<svg width="164" height="61" viewBox="0 0 164 61" fill="none" xmlns="http://www.w3.org/2000/svg">
<g clip-path="url(#clip0_820_1724)">
<path d="M127.225 9.68898C126.334 8.70032 124.838 7.76659 123.044 7.76659C117.267 7.76659 115.363 12.9296 115.363 17.785C115.363 22.3108 117.344 26.7927 122.791 26.7927C124.287 26.7927 126.037 25.9359 126.587 24.9912V26.562C126.587 29.3742 126.356 30.7144 122.714 30.7144C120.964 30.7144 118.917 30.0772 117.113 29.1435L115.924 32.5049C118.279 33.6693 120.513 34.3724 122.967 34.3724C124.871 34.3724 127.555 34.0648 129.272 32.5708C131.099 31.0769 131.176 28.4185 131.176 25.837L131.198 7.70068L127.577 8.28289C127.577 8.28289 127.302 9.27155 127.225 9.67799V9.68898ZM126.598 19.1801C126.598 20.0369 126.521 20.9047 126.191 21.6078C125.784 22.4646 125.003 23.0248 123.99 23.0248C121.074 23.0248 120.744 21.0036 120.744 17.1588C120.744 13.7205 121.382 11.6992 123.913 11.6992C125.179 11.6992 126.114 12.3364 126.598 12.8637V19.191V19.1801Z" fill="black"/>
<path d="M109.335 53.9914L109.357 47.7409C109.357 45.8186 109.28 45.2364 109.027 44.4564C108.322 42.4352 106.188 41.2378 103.019 41.2378C101.269 41.2378 99.6955 41.5454 97.8689 42.3253C96.8566 42.7537 95.8662 43.314 94.9309 43.8632L96.7355 47.0489C98.9693 45.6538 100.719 45.1045 102.281 45.1045C104.108 45.1045 104.537 45.9174 104.537 47.9387V48.6417H103.393C97.4618 48.6417 94.4688 50.663 94.4688 54.9691C94.4688 58.3086 96.2954 60.3847 99.7946 60.7143H101.775C102.887 60.5825 103.833 60.2309 104.592 59.7476C104.999 59.5169 105.373 59.1105 105.781 58.715C106.188 59.495 106.947 60.231 107.805 60.7143L108.389 60.9889L108.642 60.7143L111.15 58.0339C109.5 56.7926 109.324 55.8809 109.324 53.9805L109.335 53.9914ZM101.863 57.276C100.598 57.276 99.7396 56.2653 99.7396 54.8483C99.7396 52.6513 100.851 51.8384 104.251 51.8384H104.526V56.1445C103.789 56.9244 102.799 57.287 101.863 57.287V57.276Z" fill="black"/>
<path d="M19.6967 1.49414H0V21.0036L9.91439 30.8462L29.6221 11.3367L19.6967 1.49414Z" fill="black"/>
<path d="M0 40.6888V60.2202H19.6967L29.6221 50.3776L9.91439 30.8462L0 40.6888Z" fill="black"/>
<path d="M39.5355 60.2202H59.1222V40.535L49.3398 30.8462L29.6211 50.3776L39.5355 60.2202Z" fill="black"/>
<path d="M29.6211 11.3367L49.3398 30.8462L59.1222 21.1464V1.49414H39.5355L29.6211 11.3367Z" fill="black"/>
<path d="M163.364 23.2552C162.505 23.4859 162.098 23.6617 161.636 23.6617C159.964 23.6617 159.512 23.0245 159.512 20.6737V11.4353H162.582L163.848 8.07387H159.512V2.98779L154.693 3.76773V8.07387H152.789V11.4353H154.693V21.4537C154.693 23.1783 154.693 23.4749 155.001 24.2878C155.562 25.9356 157.532 27.0231 159.964 27.0231C161.229 27.0231 162.571 26.7155 163.991 26.1663L163.353 23.2552H163.364Z" fill="black"/>
<path d="M73.7457 13.4569L81.3823 26.5401H87.8195L79.0715 13.0834L86.9502 1.49414H80.9421L73.7457 12.9296V1.49414H68.6289V26.5401H73.7457V13.4569Z" fill="black"/>
<path d="M97.3924 11.8201C98.7349 11.8201 99.12 12.6769 99.12 14.7751V26.5181H103.863V13.0834C103.863 11.897 103.786 11.139 103.554 10.425C102.993 8.85412 101.101 7.7666 99.043 7.7666C97.9316 7.7666 96.6882 7.99729 95.7198 8.54654C94.9386 8.95299 94.1463 9.55717 93.5961 10.2712L93.288 7.82153L89.1836 8.48063V26.5401H94.0803V15.6649C94.0803 14.3247 94.4874 13.3909 95.1146 12.7758C95.8189 12.1387 96.6111 11.8091 97.3924 11.8091V11.8201Z" fill="black"/>
<path d="M107.562 26.5398H112.481V7.68945L107.562 8.44742V26.5398Z" fill="black"/>
<path d="M144.964 7.61276C142.84 7.61276 141.013 8.3927 139.671 9.8647C139.671 9.63401 139.748 8.52452 139.748 7.99724V1.03271L134.785 1.84561V26.562H139.748V16.3679C139.748 14.6432 139.979 13.6655 140.529 13.0064C141.266 12.1496 142.51 11.6662 143.621 11.6662C145.041 11.6662 145.525 12.4462 145.525 14.1708V26.54H150.267V13.6326C150.267 11.831 150.19 11.2818 149.783 10.2711C149.222 8.62339 147.351 7.61276 144.964 7.61276Z" fill="black"/>
<path d="M110.05 0C108.378 0 107.035 1.34018 107.035 3.0099C107.035 4.67963 108.378 6.01981 110.05 6.01981C111.723 6.01981 113.065 4.67963 113.065 3.0099C113.065 1.34018 111.723 0 110.05 0Z" fill="black"/>
<path d="M68.5742 60.0884H73.5479V48.9825H80.0401V44.929H73.5479V39.063H81.6027L82.2409 35.0645H68.5742V60.0884Z" fill="black"/>
<path d="M87.3798 44.05L86.8957 41.5454L82.9453 42.1825V60.0991H87.842V48.6637C87.842 47.73 87.996 46.939 88.5462 46.3349C89.0304 45.8295 89.8117 45.478 90.703 45.478C91.2642 45.478 91.8914 45.6318 92.3755 45.8625L93.619 41.5564C92.8377 41.2488 92.5076 41.1719 91.7923 41.1719C89.9657 41.1719 88.1721 42.8196 87.3798 44.0609V44.05Z" fill="black"/>
<path d="M131.793 35.5475V60.0881H136.679V49.6194V34.7676L131.793 35.5475Z" fill="black"/>
<path d="M147.426 41.6226H141.495L136.676 49.6197L143.036 60.0884H148.769L141.418 49.389L147.426 41.6226Z" fill="black"/>
<path d="M123.273 41.3149C122.162 41.3149 120.886 41.5456 119.95 42.0949C119.169 42.5013 118.377 43.1055 117.827 43.8195L117.518 41.3699L113.414 42.029V60.0884H118.311V49.2132C118.311 47.873 118.718 46.9393 119.345 46.3022C120.049 45.665 120.842 45.3684 121.623 45.3684C122.965 45.3684 123.372 46.2253 123.372 48.3564V60.0994H128.115V46.6427C128.115 45.4783 128.038 44.6983 127.807 43.9843C127.224 42.4464 125.32 41.3259 123.273 41.3259V41.3149Z" fill="black"/>
</g>
<defs>
<clipPath id="clip0_820_1724">
<rect width="164" height="61" fill="white"/>
</clipPath>
</defs>
</svg>
