<svg width="330" height="277" viewBox="0 0 330 277" fill="none" xmlns="http://www.w3.org/2000/svg">
<path d="M19.74 175.13C30.17 175.13 37.03 181.57 37.03 190.67C37.03 200.26 29.68 206.7 18.69 206.7C12.18 206.7 5.81 203.41 3.85 200.75C3.08 199.63 1.82 197.53 2.94 195.29C3.85 193.54 6.72 192.63 8.54 194.17C9.94 195.36 10.08 197.6 10.08 199.21C10.01 202.36 13.86 204.81 18.69 204.81C26.11 204.81 29.47 198.44 29.47 191.02C29.47 183.81 25.9 177.93 19.18 177.44C14.7 177.16 10.71 179.33 8.75 181.15L6.86 180.8L8.75 157H34.09V162.39H10.57L9.31 178.35C11.76 176.67 15.12 175.13 19.74 175.13ZM104.757 200.33C105.317 202.99 106.297 204.18 108.887 204.46V206H94.4672V204.46C96.8472 204.32 97.6172 202.92 97.0572 200.19L90.6872 167.43L77.5272 206H74.7972L60.3772 166.94L55.1972 200.26C54.8472 202.92 55.4772 204.18 58.1372 204.46V206H48.6172V204.46C51.2772 204.18 52.1172 202.99 52.5372 200.26L58.2772 163.09C58.6972 160.5 58.3472 158.75 55.6872 158.54V157H64.5772L78.4372 195.5L91.5972 157H99.7872V158.54C97.3372 158.75 96.5672 160.22 97.1272 163.16L104.757 200.33ZM124.366 158.54C121.776 158.75 121.076 159.94 121.076 162.67V200.26C121.076 202.99 121.776 204.18 124.366 204.46V206H110.296V204.46C112.956 204.18 113.586 202.99 113.586 200.26V162.67C113.586 159.94 112.956 158.75 110.296 158.54V157H124.366V158.54ZM162.728 157H172.038V158.54C169.378 158.75 168.678 159.94 168.678 162.67V206H164.338L133.118 166.1V200.26C133.118 202.99 133.818 204.18 136.408 204.46V206H127.168V204.46C129.758 204.18 130.458 202.99 130.458 200.26V162.67C130.458 159.94 129.758 158.75 127.168 158.54V157H135.778L166.018 195.57V162.67C166.018 159.94 165.318 158.75 162.728 158.54V157ZM193.779 177.37C202.529 182.48 208.759 186.61 206.379 196.06C204.279 204.04 196.929 206.7 189.649 206.7C183.279 206.7 177.959 204.95 173.409 201.73V191.86H174.739C177.259 199.91 182.019 204.46 188.669 204.81C195.389 205.16 198.749 201.66 199.519 197.25C200.709 190.39 195.109 187.38 188.669 183.74C181.599 179.75 173.969 174.99 176.069 165.61C177.609 158.75 183.489 156.23 190.139 156.23C195.529 156.23 199.519 158.12 204.139 161.2V170.65H202.809C200.709 161.97 196.649 158.4 191.049 158.19C185.589 157.91 182.789 160.71 182.439 164.98C181.879 171.07 187.409 173.66 193.779 177.37Z" fill="#001D47"/>
<path d="M1.988 239V219.4H5.348V236.368H14.084V239H1.988ZM17.3552 239V219.4H20.7152V239H17.3552ZM30.34 239L23.144 219.4H26.756L32.384 235.556L38.096 219.4H41.652L34.428 239H30.34ZM44.1247 239V219.4H56.7807V222.116H47.4847V227.744H55.9407V230.404H47.4847V236.284H56.7807V239H44.1247ZM60.3122 239V219.4H67.3402C68.8896 219.4 70.1682 219.671 71.1762 220.212C72.2029 220.735 72.9589 221.444 73.4442 222.34C73.9482 223.217 74.2002 224.216 74.2002 225.336C74.2002 226.381 73.9576 227.352 73.4722 228.248C72.9869 229.144 72.2309 229.863 71.2042 230.404C70.1776 230.945 68.8616 231.216 67.2562 231.216H63.6722V239H60.3122ZM70.5322 239L66.4162 230.348H70.0562L74.3682 239H70.5322ZM63.6722 228.724H67.1162C68.3669 228.724 69.2816 228.425 69.8602 227.828C70.4576 227.212 70.7562 226.409 70.7562 225.42C70.7562 224.449 70.4669 223.675 69.8882 223.096C69.3096 222.499 68.3856 222.2 67.1162 222.2H63.6722V228.724ZM77.6755 239V219.4H84.7315C86.2995 219.4 87.5968 219.671 88.6235 220.212C89.6502 220.735 90.4155 221.444 90.9195 222.34C91.4235 223.236 91.6755 224.263 91.6755 225.42C91.6755 226.503 91.4328 227.501 90.9475 228.416C90.4622 229.312 89.7062 230.04 88.6795 230.6C87.6528 231.141 86.3368 231.412 84.7315 231.412H81.0355V239H77.6755ZM81.0355 228.668H84.5355C85.8608 228.668 86.8128 228.379 87.3915 227.8C87.9702 227.203 88.2595 226.409 88.2595 225.42C88.2595 224.393 87.9702 223.591 87.3915 223.012C86.8128 222.433 85.8608 222.144 84.5355 222.144H81.0355V228.668ZM103.506 239.336C101.621 239.336 99.9499 238.916 98.4939 238.076C97.0566 237.217 95.9273 236.032 95.1059 234.52C94.2846 232.989 93.8739 231.216 93.8739 229.2C93.8739 227.203 94.2846 225.448 95.1059 223.936C95.9273 222.405 97.0566 221.211 98.4939 220.352C99.9499 219.493 101.621 219.064 103.506 219.064C105.429 219.064 107.118 219.493 108.574 220.352C110.03 221.211 111.159 222.405 111.962 223.936C112.765 225.448 113.166 227.203 113.166 229.2C113.166 231.216 112.765 232.989 111.962 234.52C111.159 236.032 110.03 237.217 108.574 238.076C107.118 238.916 105.429 239.336 103.506 239.336ZM103.534 236.312C104.785 236.312 105.877 236.032 106.81 235.472C107.743 234.893 108.462 234.072 108.966 233.008C109.47 231.944 109.722 230.675 109.722 229.2C109.722 227.725 109.47 226.456 108.966 225.392C108.462 224.328 107.743 223.516 106.81 222.956C105.877 222.377 104.785 222.088 103.534 222.088C102.283 222.088 101.191 222.377 100.258 222.956C99.3246 223.516 98.5966 224.328 98.0739 225.392C97.5699 226.456 97.3179 227.725 97.3179 229.2C97.3179 230.675 97.5699 231.944 98.0739 233.008C98.5966 234.072 99.3246 234.893 100.258 235.472C101.191 236.032 102.283 236.312 103.534 236.312ZM125.381 239.336C123.496 239.336 121.825 238.916 120.369 238.076C118.932 237.217 117.802 236.032 116.981 234.52C116.16 232.989 115.749 231.216 115.749 229.2C115.749 227.203 116.16 225.448 116.981 223.936C117.802 222.405 118.932 221.211 120.369 220.352C121.825 219.493 123.496 219.064 125.381 219.064C127.304 219.064 128.993 219.493 130.449 220.352C131.905 221.211 133.034 222.405 133.837 223.936C134.64 225.448 135.041 227.203 135.041 229.2C135.041 231.216 134.64 232.989 133.837 234.52C133.034 236.032 131.905 237.217 130.449 238.076C128.993 238.916 127.304 239.336 125.381 239.336ZM125.409 236.312C126.66 236.312 127.752 236.032 128.685 235.472C129.618 234.893 130.337 234.072 130.841 233.008C131.345 231.944 131.597 230.675 131.597 229.2C131.597 227.725 131.345 226.456 130.841 225.392C130.337 224.328 129.618 223.516 128.685 222.956C127.752 222.377 126.66 222.088 125.409 222.088C124.158 222.088 123.066 222.377 122.133 222.956C121.2 223.516 120.472 224.328 119.949 225.392C119.445 226.456 119.193 227.725 119.193 229.2C119.193 230.675 119.445 231.944 119.949 233.008C120.472 234.072 121.2 234.893 122.133 235.472C123.066 236.032 124.158 236.312 125.409 236.312ZM138.324 239V219.4H141.684V236.368H150.42V239H138.324ZM167.107 239.336C165.688 239.336 164.428 239.084 163.327 238.58C162.226 238.076 161.367 237.357 160.751 236.424C160.135 235.491 159.818 234.38 159.799 233.092H163.355C163.355 233.745 163.504 234.333 163.803 234.856C164.12 235.36 164.55 235.761 165.091 236.06C165.651 236.359 166.323 236.508 167.107 236.508C167.779 236.508 168.358 236.405 168.843 236.2C169.347 235.976 169.73 235.668 169.991 235.276C170.271 234.865 170.411 234.389 170.411 233.848C170.411 233.232 170.262 232.728 169.963 232.336C169.683 231.925 169.291 231.58 168.787 231.3C168.283 231.02 167.704 230.777 167.051 230.572C166.398 230.348 165.707 230.115 164.979 229.872C163.43 229.349 162.263 228.687 161.479 227.884C160.695 227.063 160.303 225.971 160.303 224.608C160.303 223.469 160.574 222.489 161.115 221.668C161.656 220.847 162.412 220.212 163.383 219.764C164.372 219.297 165.511 219.064 166.799 219.064C168.106 219.064 169.244 219.297 170.215 219.764C171.204 220.231 171.979 220.884 172.539 221.724C173.118 222.545 173.416 223.535 173.435 224.692H169.851C169.832 224.207 169.702 223.759 169.459 223.348C169.216 222.919 168.862 222.573 168.395 222.312C167.947 222.032 167.396 221.892 166.743 221.892C166.183 221.873 165.679 221.967 165.231 222.172C164.802 222.359 164.456 222.639 164.195 223.012C163.952 223.367 163.831 223.815 163.831 224.356C163.831 224.879 163.943 225.317 164.167 225.672C164.41 226.008 164.755 226.297 165.203 226.54C165.651 226.764 166.174 226.979 166.771 227.184C167.368 227.389 168.022 227.613 168.731 227.856C169.702 228.173 170.579 228.565 171.363 229.032C172.166 229.48 172.8 230.068 173.267 230.796C173.734 231.524 173.967 232.467 173.967 233.624C173.967 234.632 173.706 235.575 173.183 236.452C172.66 237.311 171.895 238.011 170.887 238.552C169.879 239.075 168.619 239.336 167.107 239.336ZM181.525 239V222.116H175.757V219.4H190.625V222.116H184.857V239H181.525Z" fill="#001D47"/>
<path d="M117 0V139" stroke="#001D47" stroke-width="4.5"/>
<path d="M52.3897 273.205C49.0636 273.205 46.2942 271.065 45.5567 267.655H59.2088C58.4851 271.079 55.7018 273.205 52.3757 273.205M52.3897 258.795C55.66 258.795 58.4155 261.492 59.1809 264.217H45.5845C46.3499 261.477 49.1054 258.795 52.3757 258.795M66 264.231H62.9662C62.1451 259.437 57.7197 255 52.3897 255C47.0596 255 42.6481 259.437 41.8131 264.231H38V267.655H41.7992C42.5785 273.119 47.0318 277 52.3897 277C57.7475 277 62.2147 273.119 62.9801 267.655H66V264.231Z" fill="#753DBD"/>
<path d="M116.39 273.205C113.064 273.205 110.294 271.065 109.557 267.655H123.209C122.485 271.079 119.702 273.205 116.376 273.205M116.39 258.795C119.66 258.795 122.416 261.492 123.181 264.217H109.584C110.35 261.477 113.105 258.795 116.376 258.795M130 264.231H126.966C126.145 259.437 121.72 255 116.39 255C111.06 255 106.648 259.437 105.813 264.231H102V267.655H105.799C106.579 273.119 111.032 277 116.39 277C121.748 277 126.215 273.119 126.98 267.655H130V264.231Z" fill="#EA9BAD"/>
<path d="M182.39 273.205C179.064 273.205 176.294 271.065 175.557 267.655H189.209C188.485 271.079 185.702 273.205 182.376 273.205M182.39 258.795C185.66 258.795 188.416 261.492 189.181 264.217H175.584C176.35 261.477 179.105 258.795 182.376 258.795M196 264.231H192.966C192.145 259.437 187.72 255 182.39 255C177.06 255 172.648 259.437 171.813 264.231H168V267.655H171.799C172.579 273.119 177.032 277 182.39 277C187.748 277 192.215 273.119 192.98 267.655H196V264.231Z" fill="#E32119"/>
<path d="M84.3897 273.205C81.0636 273.205 78.2942 271.065 77.5567 267.655H91.2088C90.4851 271.079 87.7018 273.205 84.3757 273.205M84.3897 258.795C87.66 258.795 90.4155 261.492 91.1809 264.217H77.5845C78.3499 261.477 81.1054 258.795 84.3757 258.795M98 264.231H94.9662C94.1451 259.437 89.7197 255 84.3897 255C79.0596 255 74.6481 259.437 73.8131 264.231H70V267.655H73.7992C74.5785 273.119 79.0318 277 84.3897 277C89.7475 277 94.2147 273.119 94.9801 267.655H98V264.231Z" fill="#8A134E"/>
<path d="M148.39 273.205C145.064 273.205 142.294 271.065 141.557 267.655H155.209C154.485 271.079 151.702 273.205 148.376 273.205M148.39 258.795C151.66 258.795 154.416 261.492 155.181 264.217H141.584C142.35 261.477 145.105 258.795 148.376 258.795M162 264.231H158.966C158.145 259.437 153.72 255 148.39 255C143.06 255 138.648 259.437 137.813 264.231H134V267.655H137.799C138.579 273.119 143.032 277 148.39 277C153.748 277 158.215 273.119 158.98 267.655H162V264.231Z" fill="#FECD00"/>
<g clip-path="url(#clip0_1136_1474)">
<path d="M9.69782 257L18.6075 261.109H3V263.728H19.1682L11.4579 267.272H3V269.907H11.5202L20.4299 274H26.3178L17.4081 269.907H33V267.272H17.3458L25.0561 263.728H33V261.109H24.4953L15.5857 257H9.69782Z" fill="#ED1C24"/>
</g>
<defs>
<clipPath id="clip0_1136_1474">
<rect width="30" height="17" fill="white" transform="translate(3 257)"/>
</clipPath>
</defs>
</svg>
