<svg width="330" height="278" viewBox="0 0 330 278" fill="none" xmlns="http://www.w3.org/2000/svg">
<path d="M13.93 201.26C13.93 203.99 14.63 205.25 17.22 205.46V207H3.71V205.46C6.3 205.25 7 203.99 7 201.26V165.28C6.02 165.28 4.41 165.28 2.8 165.28V163.74L12.67 158H13.93V201.26ZM32.1683 201.26C32.1683 203.99 32.8683 205.25 35.4583 205.46V207H21.9483V205.46C24.5383 205.25 25.2383 203.99 25.2383 201.26V165.28C24.2583 165.28 22.6483 165.28 21.0383 165.28V163.74L30.9083 158H32.1683V201.26ZM103.513 201.33C104.073 203.99 105.053 205.18 107.643 205.46V207H93.223V205.46C95.6031 205.32 96.373 203.92 95.813 201.19L89.4431 168.43L76.283 207H73.553L59.133 167.94L53.953 201.26C53.603 203.92 54.233 205.18 56.893 205.46V207H47.373V205.46C50.033 205.18 50.873 203.99 51.293 201.26L57.033 164.09C57.453 161.5 57.103 159.75 54.443 159.54V158H63.333L77.193 196.5L90.3531 158H98.543V159.54C96.093 159.75 95.323 161.22 95.8831 164.16L103.513 201.33ZM123.122 159.54C120.532 159.75 119.832 160.94 119.832 163.67V201.26C119.832 203.99 120.532 205.18 123.122 205.46V207H109.052V205.46C111.712 205.18 112.342 203.99 112.342 201.26V163.67C112.342 160.94 111.712 159.75 109.052 159.54V158H123.122V159.54ZM161.483 158H170.793V159.54C168.133 159.75 167.433 160.94 167.433 163.67V207H163.093L131.873 167.1V201.26C131.873 203.99 132.573 205.18 135.163 205.46V207H125.923V205.46C128.513 205.18 129.213 203.99 129.213 201.26V163.67C129.213 160.94 128.513 159.75 125.923 159.54V158H134.533L164.773 196.57V163.67C164.773 160.94 164.073 159.75 161.483 159.54V158ZM192.534 178.37C201.284 183.48 207.514 187.61 205.134 197.06C203.034 205.04 195.684 207.7 188.404 207.7C182.034 207.7 176.714 205.95 172.164 202.73V192.86H173.494C176.014 200.91 180.774 205.46 187.424 205.81C194.144 206.16 197.504 202.66 198.274 198.25C199.464 191.39 193.864 188.38 187.424 184.74C180.354 180.75 172.724 175.99 174.824 166.61C176.364 159.75 182.244 157.23 188.894 157.23C194.284 157.23 198.274 159.12 202.894 162.2V171.65H201.564C199.464 162.97 195.404 159.4 189.804 159.19C184.344 158.91 181.544 161.71 181.194 165.98C180.634 172.07 186.164 174.66 192.534 178.37Z" fill="#001D47"/>
<path d="M1.988 240V220.4H5.348V228.492L12.74 220.4H16.912L9.66 228.184L17.08 240H12.992L7.28 230.76L5.348 232.86V240H1.988ZM19.7068 240V220.4H23.0668V240H19.7068ZM27.0075 240V220.4H30.3675L39.8035 234.568V220.4H43.1635V240H39.8035L30.3675 225.86V240H27.0075ZM55.6452 240.336C53.7972 240.336 52.1732 239.916 50.7732 239.076C49.3919 238.236 48.3185 237.069 47.5532 235.576C46.7879 234.064 46.4052 232.3 46.4052 230.284C46.4052 228.287 46.7972 226.523 47.5812 224.992C48.3652 223.443 49.4852 222.239 50.9412 221.38C52.4159 220.503 54.1612 220.064 56.1772 220.064C58.4545 220.064 60.3399 220.615 61.8332 221.716C63.3452 222.799 64.3252 224.311 64.7732 226.252H60.9932C60.7132 225.281 60.1625 224.525 59.3412 223.984C58.5199 223.443 57.4559 223.172 56.1492 223.172C54.8239 223.172 53.6852 223.461 52.7332 224.04C51.7999 224.6 51.0812 225.421 50.5772 226.504C50.0919 227.568 49.8492 228.837 49.8492 230.312C49.8492 231.787 50.0919 233.056 50.5772 234.12C51.0812 235.184 51.7905 235.996 52.7052 236.556C53.6199 237.097 54.6932 237.368 55.9252 237.368C57.7545 237.368 59.1359 236.855 60.0692 235.828C61.0025 234.801 61.5532 233.467 61.7212 231.824H56.6532V229.276H65.1092V240H62.0292L61.7492 237.312C61.3199 237.947 60.8252 238.497 60.2652 238.964C59.7052 239.412 59.0425 239.757 58.2772 240C57.5305 240.224 56.6532 240.336 55.6452 240.336ZM72.6821 220.4L69.9101 227.372H67.5861L69.0981 220.4H72.6821ZM82.0953 240.336C80.6767 240.336 79.4167 240.084 78.3153 239.58C77.214 239.076 76.3553 238.357 75.7393 237.424C75.1233 236.491 74.806 235.38 74.7873 234.092H78.3433C78.3433 234.745 78.4927 235.333 78.7913 235.856C79.1087 236.36 79.538 236.761 80.0793 237.06C80.6393 237.359 81.3113 237.508 82.0953 237.508C82.7673 237.508 83.346 237.405 83.8313 237.2C84.3353 236.976 84.718 236.668 84.9793 236.276C85.2593 235.865 85.3993 235.389 85.3993 234.848C85.3993 234.232 85.25 233.728 84.9513 233.336C84.6713 232.925 84.2793 232.58 83.7753 232.3C83.2713 232.02 82.6927 231.777 82.0393 231.572C81.386 231.348 80.6953 231.115 79.9673 230.872C78.418 230.349 77.2513 229.687 76.4673 228.884C75.6833 228.063 75.2913 226.971 75.2913 225.608C75.2913 224.469 75.562 223.489 76.1033 222.668C76.6447 221.847 77.4007 221.212 78.3713 220.764C79.3607 220.297 80.4993 220.064 81.7873 220.064C83.094 220.064 84.2327 220.297 85.2033 220.764C86.1927 221.231 86.9673 221.884 87.5273 222.724C88.106 223.545 88.4047 224.535 88.4233 225.692H84.8393C84.8207 225.207 84.69 224.759 84.4473 224.348C84.2047 223.919 83.85 223.573 83.3833 223.312C82.9353 223.032 82.3847 222.892 81.7313 222.892C81.1713 222.873 80.6673 222.967 80.2193 223.172C79.79 223.359 79.4447 223.639 79.1833 224.012C78.9407 224.367 78.8193 224.815 78.8193 225.356C78.8193 225.879 78.9313 226.317 79.1553 226.672C79.398 227.008 79.7433 227.297 80.1913 227.54C80.6393 227.764 81.162 227.979 81.7593 228.184C82.3567 228.389 83.01 228.613 83.7193 228.856C84.69 229.173 85.5673 229.565 86.3513 230.032C87.154 230.48 87.7887 231.068 88.2553 231.796C88.722 232.524 88.9553 233.467 88.9553 234.624C88.9553 235.632 88.694 236.575 88.1713 237.452C87.6487 238.311 86.8833 239.011 85.8753 239.552C84.8673 240.075 83.6073 240.336 82.0953 240.336ZM107.766 240.336C105.825 240.336 104.145 239.916 102.726 239.076C101.326 238.217 100.244 237.032 99.4783 235.52C98.7316 233.989 98.3583 232.225 98.3583 230.228C98.3583 228.212 98.7316 226.448 99.4783 224.936C100.244 223.405 101.326 222.211 102.726 221.352C104.145 220.493 105.825 220.064 107.766 220.064C110.1 220.064 112.004 220.643 113.478 221.8C114.953 222.939 115.886 224.553 116.278 226.644H112.582C112.321 225.543 111.789 224.675 110.986 224.04C110.184 223.405 109.101 223.088 107.738 223.088C106.506 223.088 105.442 223.377 104.546 223.956C103.669 224.516 102.988 225.337 102.502 226.42C102.036 227.484 101.802 228.753 101.802 230.228C101.802 231.703 102.036 232.972 102.502 234.036C102.988 235.081 103.669 235.893 104.546 236.472C105.442 237.032 106.506 237.312 107.738 237.312C109.101 237.312 110.184 237.023 110.986 236.444C111.789 235.847 112.321 235.025 112.582 233.98H116.278C115.905 235.959 114.972 237.517 113.478 238.656C112.004 239.776 110.1 240.336 107.766 240.336ZM119.566 240V220.4H126.594C128.143 220.4 129.422 220.671 130.43 221.212C131.457 221.735 132.213 222.444 132.698 223.34C133.202 224.217 133.454 225.216 133.454 226.336C133.454 227.381 133.211 228.352 132.726 229.248C132.241 230.144 131.485 230.863 130.458 231.404C129.431 231.945 128.115 232.216 126.51 232.216H122.926V240H119.566ZM129.786 240L125.67 231.348H129.31L133.622 240H129.786ZM122.926 229.724H126.37C127.621 229.724 128.535 229.425 129.114 228.828C129.711 228.212 130.01 227.409 130.01 226.42C130.01 225.449 129.721 224.675 129.142 224.096C128.563 223.499 127.639 223.2 126.37 223.2H122.926V229.724ZM145.861 240.336C143.976 240.336 142.305 239.916 140.849 239.076C139.412 238.217 138.283 237.032 137.461 235.52C136.64 233.989 136.229 232.216 136.229 230.2C136.229 228.203 136.64 226.448 137.461 224.936C138.283 223.405 139.412 222.211 140.849 221.352C142.305 220.493 143.976 220.064 145.861 220.064C147.784 220.064 149.473 220.493 150.929 221.352C152.385 222.211 153.515 223.405 154.317 224.936C155.12 226.448 155.521 228.203 155.521 230.2C155.521 232.216 155.12 233.989 154.317 235.52C153.515 237.032 152.385 238.217 150.929 239.076C149.473 239.916 147.784 240.336 145.861 240.336ZM145.889 237.312C147.14 237.312 148.232 237.032 149.165 236.472C150.099 235.893 150.817 235.072 151.321 234.008C151.825 232.944 152.077 231.675 152.077 230.2C152.077 228.725 151.825 227.456 151.321 226.392C150.817 225.328 150.099 224.516 149.165 223.956C148.232 223.377 147.14 223.088 145.889 223.088C144.639 223.088 143.547 223.377 142.613 223.956C141.68 224.516 140.952 225.328 140.429 226.392C139.925 227.456 139.673 228.725 139.673 230.2C139.673 231.675 139.925 232.944 140.429 234.008C140.952 235.072 141.68 235.893 142.613 236.472C143.547 237.032 144.639 237.312 145.889 237.312ZM165.384 240.336C163.966 240.336 162.706 240.084 161.604 239.58C160.503 239.076 159.644 238.357 159.028 237.424C158.412 236.491 158.095 235.38 158.076 234.092H161.632C161.632 234.745 161.782 235.333 162.08 235.856C162.398 236.36 162.827 236.761 163.368 237.06C163.928 237.359 164.6 237.508 165.384 237.508C166.056 237.508 166.635 237.405 167.12 237.2C167.624 236.976 168.007 236.668 168.268 236.276C168.548 235.865 168.688 235.389 168.688 234.848C168.688 234.232 168.539 233.728 168.24 233.336C167.96 232.925 167.568 232.58 167.064 232.3C166.56 232.02 165.982 231.777 165.328 231.572C164.675 231.348 163.984 231.115 163.256 230.872C161.707 230.349 160.54 229.687 159.756 228.884C158.972 228.063 158.58 226.971 158.58 225.608C158.58 224.469 158.851 223.489 159.392 222.668C159.934 221.847 160.69 221.212 161.66 220.764C162.65 220.297 163.788 220.064 165.076 220.064C166.383 220.064 167.522 220.297 168.492 220.764C169.482 221.231 170.256 221.884 170.816 222.724C171.395 223.545 171.694 224.535 171.712 225.692H168.128C168.11 225.207 167.979 224.759 167.736 224.348C167.494 223.919 167.139 223.573 166.672 223.312C166.224 223.032 165.674 222.892 165.02 222.892C164.46 222.873 163.956 222.967 163.508 223.172C163.079 223.359 162.734 223.639 162.472 224.012C162.23 224.367 162.108 224.815 162.108 225.356C162.108 225.879 162.22 226.317 162.444 226.672C162.687 227.008 163.032 227.297 163.48 227.54C163.928 227.764 164.451 227.979 165.048 228.184C165.646 228.389 166.299 228.613 167.008 228.856C167.979 229.173 168.856 229.565 169.64 230.032C170.443 230.48 171.078 231.068 171.544 231.796C172.011 232.524 172.244 233.467 172.244 234.624C172.244 235.632 171.983 236.575 171.46 237.452C170.938 238.311 170.172 239.011 169.164 239.552C168.156 240.075 166.896 240.336 165.384 240.336ZM182.091 240.336C180.673 240.336 179.413 240.084 178.311 239.58C177.21 239.076 176.351 238.357 175.735 237.424C175.119 236.491 174.802 235.38 174.783 234.092H178.339C178.339 234.745 178.489 235.333 178.787 235.856C179.105 236.36 179.534 236.761 180.075 237.06C180.635 237.359 181.307 237.508 182.091 237.508C182.763 237.508 183.342 237.405 183.827 237.2C184.331 236.976 184.714 236.668 184.975 236.276C185.255 235.865 185.395 235.389 185.395 234.848C185.395 234.232 185.246 233.728 184.947 233.336C184.667 232.925 184.275 232.58 183.771 232.3C183.267 232.02 182.689 231.777 182.035 231.572C181.382 231.348 180.691 231.115 179.963 230.872C178.414 230.349 177.247 229.687 176.463 228.884C175.679 228.063 175.287 226.971 175.287 225.608C175.287 224.469 175.558 223.489 176.099 222.668C176.641 221.847 177.397 221.212 178.367 220.764C179.357 220.297 180.495 220.064 181.783 220.064C183.09 220.064 184.229 220.297 185.199 220.764C186.189 221.231 186.963 221.884 187.523 222.724C188.102 223.545 188.401 224.535 188.419 225.692H184.835C184.817 225.207 184.686 224.759 184.443 224.348C184.201 223.919 183.846 223.573 183.379 223.312C182.931 223.032 182.381 222.892 181.727 222.892C181.167 222.873 180.663 222.967 180.215 223.172C179.786 223.359 179.441 223.639 179.179 224.012C178.937 224.367 178.815 224.815 178.815 225.356C178.815 225.879 178.927 226.317 179.151 226.672C179.394 227.008 179.739 227.297 180.187 227.54C180.635 227.764 181.158 227.979 181.755 228.184C182.353 228.389 183.006 228.613 183.715 228.856C184.686 229.173 185.563 229.565 186.347 230.032C187.15 230.48 187.785 231.068 188.251 231.796C188.718 232.524 188.951 233.467 188.951 234.624C188.951 235.632 188.69 236.575 188.167 237.452C187.645 238.311 186.879 239.011 185.871 239.552C184.863 240.075 183.603 240.336 182.091 240.336Z" fill="#001D47"/>
<path d="M113 0V139" stroke="#001D47" stroke-width="4.5"/>
<path d="M49.3897 274.205C46.0636 274.205 43.2942 272.065 42.5567 268.655H56.2088C55.4851 272.079 52.7018 274.205 49.3757 274.205M49.3897 259.795C52.66 259.795 55.4155 262.492 56.1809 265.217H42.5845C43.3499 262.477 46.1054 259.795 49.3757 259.795M63 265.231H59.9662C59.1451 260.437 54.7197 256 49.3897 256C44.0596 256 39.6481 260.437 38.8131 265.231H35V268.655H38.7992C39.5785 274.119 44.0318 278 49.3897 278C54.7475 278 59.2147 274.119 59.9801 268.655H63V265.231Z" fill="#EA9BAD"/>
<path d="M113.39 274.205C110.064 274.205 107.294 272.065 106.557 268.655H120.209C119.485 272.079 116.702 274.205 113.376 274.205M113.39 259.795C116.66 259.795 119.416 262.492 120.181 265.217H106.584C107.35 262.477 110.105 259.795 113.376 259.795M127 265.231H123.966C123.145 260.437 118.72 256 113.39 256C108.06 256 103.648 260.437 102.813 265.231H99V268.655H102.799C103.579 274.119 108.032 278 113.39 278C118.748 278 123.215 274.119 123.98 268.655H127V265.231Z" fill="black"/>
<path d="M177.39 274.205C174.064 274.205 171.294 272.065 170.557 268.655H184.209C183.485 272.079 180.702 274.205 177.376 274.205M177.39 259.795C180.66 259.795 183.416 262.492 184.181 265.217H170.584C171.35 262.477 174.105 259.795 177.376 259.795M191 265.231H187.966C187.145 260.437 182.72 256 177.39 256C172.06 256 167.648 260.437 166.813 265.231H163V268.655H166.799C167.579 274.119 172.032 278 177.39 278C182.748 278 187.215 274.119 187.98 268.655H191V265.231Z" fill="#039BE5"/>
<path d="M81.3897 274.205C78.0636 274.205 75.2942 272.065 74.5567 268.655H88.2088C87.4851 272.079 84.7018 274.205 81.3757 274.205M81.3897 259.795C84.66 259.795 87.4155 262.492 88.1809 265.217H74.5845C75.3499 262.477 78.1054 259.795 81.3757 259.795M95 265.231H91.9662C91.1451 260.437 86.7197 256 81.3897 256C76.0596 256 71.6481 260.437 70.8131 265.231H67V268.655H70.7992C71.5785 274.119 76.0318 278 81.3897 278C86.7475 278 91.2147 274.119 91.9801 268.655H95V265.231Z" fill="#8A134E"/>
<path d="M145.39 274.205C142.064 274.205 139.294 272.065 138.557 268.655H152.209C151.485 272.079 148.702 274.205 145.376 274.205M145.39 259.795C148.66 259.795 151.416 262.492 152.181 265.217H138.584C139.35 262.477 142.105 259.795 145.376 259.795M159 265.231H155.966C155.145 260.437 150.72 256 145.39 256C140.06 256 135.648 260.437 134.813 265.231H131V268.655H134.799C135.579 274.119 140.032 278 145.39 278C150.748 278 155.215 274.119 155.98 268.655H159V265.231Z" fill="#2D2A80"/>
<g clip-path="url(#clip0_1136_1477)">
<path d="M6.69782 258L15.6075 262.109H0V264.728H16.1682L8.45794 268.272H0V270.907H8.52025L17.4299 275H23.3178L14.4081 270.907H30V268.272H14.3458L22.0561 264.728H30V262.109H21.4953L12.5857 258H6.69782Z" fill="#ED1C24"/>
</g>
<defs>
<clipPath id="clip0_1136_1477">
<rect width="30" height="17" fill="white" transform="translate(0 258)"/>
</clipPath>
</defs>
</svg>
