<svg width="330" height="274" viewBox="0 0 330 274" fill="none" xmlns="http://www.w3.org/2000/svg">
<path d="M37.8 193.82H31.08V200.26C31.08 202.99 31.78 204.25 34.44 204.46V206H20.86V204.46C23.52 204.25 24.22 202.99 24.22 200.26V193.82H0.7V191.3L24.22 157H31.08V191.3H37.8V193.82ZM3.78 191.3H24.22V161.62L3.78 191.3ZM104.484 200.33C105.044 202.99 106.024 204.18 108.614 204.46V206H94.1938V204.46C96.5738 204.32 97.3438 202.92 96.7838 200.19L90.4138 167.43L77.2538 206H74.5238L60.1038 166.94L54.9238 200.26C54.5738 202.92 55.2038 204.18 57.8638 204.46V206H48.3438V204.46C51.0038 204.18 51.8438 202.99 52.2638 200.26L58.0038 163.09C58.4238 160.5 58.0738 158.75 55.4138 158.54V157H64.3038L78.1638 195.5L91.3238 157H99.5138V158.54C97.0638 158.75 96.2938 160.22 96.8538 163.16L104.484 200.33ZM124.093 158.54C121.503 158.75 120.803 159.94 120.803 162.67V200.26C120.803 202.99 121.503 204.18 124.093 204.46V206H110.023V204.46C112.683 204.18 113.313 202.99 113.313 200.26V162.67C113.313 159.94 112.683 158.75 110.023 158.54V157H124.093V158.54ZM162.454 157H171.764V158.54C169.104 158.75 168.404 159.94 168.404 162.67V206H164.064L132.844 166.1V200.26C132.844 202.99 133.544 204.18 136.134 204.46V206H126.894V204.46C129.484 204.18 130.184 202.99 130.184 200.26V162.67C130.184 159.94 129.484 158.75 126.894 158.54V157H135.504L165.744 195.57V162.67C165.744 159.94 165.044 158.75 162.454 158.54V157ZM193.505 177.37C202.255 182.48 208.485 186.61 206.105 196.06C204.005 204.04 196.655 206.7 189.375 206.7C183.005 206.7 177.685 204.95 173.135 201.73V191.86H174.465C176.985 199.91 181.745 204.46 188.395 204.81C195.115 205.16 198.475 201.66 199.245 197.25C200.435 190.39 194.835 187.38 188.395 183.74C181.325 179.75 173.695 174.99 175.795 165.61C177.335 158.75 183.215 156.23 189.865 156.23C195.255 156.23 199.245 158.12 203.865 161.2V170.65H202.535C200.435 161.97 196.375 158.4 190.775 158.19C185.315 157.91 182.515 160.71 182.165 164.98C181.605 171.07 187.135 173.66 193.505 177.37Z" fill="#001D47"/>
<path d="M10.696 239.336C8.75467 239.336 7.07467 238.916 5.656 238.076C4.256 237.217 3.17333 236.032 2.408 234.52C1.66133 232.989 1.288 231.225 1.288 229.228C1.288 227.212 1.66133 225.448 2.408 223.936C3.17333 222.405 4.256 221.211 5.656 220.352C7.07467 219.493 8.75467 219.064 10.696 219.064C13.0293 219.064 14.9333 219.643 16.408 220.8C17.8827 221.939 18.816 223.553 19.208 225.644H15.512C15.2507 224.543 14.7187 223.675 13.916 223.04C13.1133 222.405 12.0307 222.088 10.668 222.088C9.436 222.088 8.372 222.377 7.476 222.956C6.59867 223.516 5.91733 224.337 5.432 225.42C4.96533 226.484 4.732 227.753 4.732 229.228C4.732 230.703 4.96533 231.972 5.432 233.036C5.91733 234.081 6.59867 234.893 7.476 235.472C8.372 236.032 9.436 236.312 10.668 236.312C12.0307 236.312 13.1133 236.023 13.916 235.444C14.7187 234.847 15.2507 234.025 15.512 232.98H19.208C18.8347 234.959 17.9013 236.517 16.408 237.656C14.9333 238.776 13.0293 239.336 10.696 239.336ZM22.4958 239V219.4H25.8558V239H22.4958ZM34.3606 239V222.116H28.5926V219.4H43.4606V222.116H37.6926V239H34.3606ZM51.2142 239V231.944L44.6902 219.4H48.4982L53.2862 229.368H52.5582L57.3462 219.4H61.1262L54.5742 231.944V239H51.2142ZM74.9387 239V222.116H69.1707V219.4H84.0387V222.116H78.2707V239H74.9387ZM99.1843 239V219.4H102.544V239H99.1843ZM86.8083 239V219.4H90.1683V239H86.8083ZM89.6643 230.376V227.632H99.8283V230.376H89.6643ZM105.235 239L112.403 219.4H116.155L123.323 239H119.767L114.251 223.32L108.735 239H105.235ZM108.427 234.38L109.323 231.72H118.983L119.879 234.38H108.427ZM126.019 239V219.4H129.995L136.267 232.056L142.483 219.4H146.487V239H143.127V225.168L137.583 236.256H134.951L129.379 225.196V239H126.019ZM150.465 239V219.4H163.121V222.116H153.825V227.744H162.281V230.404H153.825V236.284H163.121V239H150.465ZM173.232 239.336C171.813 239.336 170.553 239.084 169.452 238.58C168.351 238.076 167.492 237.357 166.876 236.424C166.26 235.491 165.943 234.38 165.924 233.092H169.48C169.48 233.745 169.629 234.333 169.928 234.856C170.245 235.36 170.675 235.761 171.216 236.06C171.776 236.359 172.448 236.508 173.232 236.508C173.904 236.508 174.483 236.405 174.968 236.2C175.472 235.976 175.855 235.668 176.116 235.276C176.396 234.865 176.536 234.389 176.536 233.848C176.536 233.232 176.387 232.728 176.088 232.336C175.808 231.925 175.416 231.58 174.912 231.3C174.408 231.02 173.829 230.777 173.176 230.572C172.523 230.348 171.832 230.115 171.104 229.872C169.555 229.349 168.388 228.687 167.604 227.884C166.82 227.063 166.428 225.971 166.428 224.608C166.428 223.469 166.699 222.489 167.24 221.668C167.781 220.847 168.537 220.212 169.508 219.764C170.497 219.297 171.636 219.064 172.924 219.064C174.231 219.064 175.369 219.297 176.34 219.764C177.329 220.231 178.104 220.884 178.664 221.724C179.243 222.545 179.541 223.535 179.56 224.692H175.976C175.957 224.207 175.827 223.759 175.584 223.348C175.341 222.919 174.987 222.573 174.52 222.312C174.072 222.032 173.521 221.892 172.868 221.892C172.308 221.873 171.804 221.967 171.356 222.172C170.927 222.359 170.581 222.639 170.32 223.012C170.077 223.367 169.956 223.815 169.956 224.356C169.956 224.879 170.068 225.317 170.292 225.672C170.535 226.008 170.88 226.297 171.328 226.54C171.776 226.764 172.299 226.979 172.896 227.184C173.493 227.389 174.147 227.613 174.856 227.856C175.827 228.173 176.704 228.565 177.488 229.032C178.291 229.48 178.925 230.068 179.392 230.796C179.859 231.524 180.092 232.467 180.092 233.624C180.092 234.632 179.831 235.575 179.308 236.452C178.785 237.311 178.02 238.011 177.012 238.552C176.004 239.075 174.744 239.336 173.232 239.336ZM183.359 239V219.4H186.719V236.368H195.455V239H183.359ZM198.726 239V219.4H202.086V239H198.726ZM206.027 239V219.4H209.387L218.823 233.568V219.4H222.183V239H218.823L209.387 224.86V239H206.027ZM226.125 239V219.4H229.485V227.492L236.877 219.4H241.049L233.797 227.184L241.217 239H237.129L231.417 229.76L229.485 231.86V239H226.125Z" fill="#001D47"/>
<path d="M117 0V139" stroke="#001D47" stroke-width="4.5"/>
<g clip-path="url(#clip0_1136_1475)">
<path d="M10.6978 257L19.6075 261.109H4V263.728H20.1682L12.4579 267.272H4V269.907H12.5202L21.4299 274H27.3178L18.4081 269.907H34V267.272H18.3458L26.0561 263.728H34V261.109H25.4953L16.5857 257H10.6978Z" fill="#ED1C24"/>
</g>
<defs>
<clipPath id="clip0_1136_1475">
<rect width="30" height="17" fill="white" transform="translate(4 257)"/>
</clipPath>
</defs>
</svg>
