<svg width="330" height="277" viewBox="0 0 330 277" fill="none" xmlns="http://www.w3.org/2000/svg">
<path d="M13.93 200.26C13.93 202.99 14.63 204.25 17.22 204.46V206H3.71V204.46C6.3 204.25 7 202.99 7 200.26V164.28C6.02 164.28 4.41 164.28 2.8 164.28V162.74L12.67 157H13.93V200.26ZM38.0647 156.3C49.1247 156.3 56.7547 166.31 56.7547 181.5C56.7547 196.69 49.1247 206.7 38.0647 206.7C26.9347 206.7 19.3047 196.69 19.3047 181.5C19.3047 166.31 26.9347 156.3 38.0647 156.3ZM38.0647 204.81C45.1347 204.81 49.4047 196.62 49.4047 181.5C49.4047 166.31 45.1347 158.19 38.0647 158.19C30.9247 158.19 26.7247 166.31 26.7247 181.5C26.7247 196.62 30.9247 204.81 38.0647 204.81ZM123.406 200.33C123.966 202.99 124.946 204.18 127.536 204.46V206H113.116V204.46C115.496 204.32 116.266 202.92 115.706 200.19L109.336 167.43L96.1756 206H93.4456L79.0256 166.94L73.8456 200.26C73.4956 202.92 74.1256 204.18 76.7856 204.46V206H67.2656V204.46C69.9256 204.18 70.7656 202.99 71.1856 200.26L76.9256 163.09C77.3456 160.5 76.9956 158.75 74.3356 158.54V157H83.2256L97.0856 195.5L110.246 157H118.436V158.54C115.986 158.75 115.216 160.22 115.776 163.16L123.406 200.33ZM143.015 158.54C140.425 158.75 139.725 159.94 139.725 162.67V200.26C139.725 202.99 140.425 204.18 143.015 204.46V206H128.945V204.46C131.605 204.18 132.235 202.99 132.235 200.26V162.67C132.235 159.94 131.605 158.75 128.945 158.54V157H143.015V158.54ZM181.376 157H190.686V158.54C188.026 158.75 187.326 159.94 187.326 162.67V206H182.986L151.766 166.1V200.26C151.766 202.99 152.466 204.18 155.056 204.46V206H145.816V204.46C148.406 204.18 149.106 202.99 149.106 200.26V162.67C149.106 159.94 148.406 158.75 145.816 158.54V157H154.426L184.666 195.57V162.67C184.666 159.94 183.966 158.75 181.376 158.54V157ZM212.427 177.37C221.177 182.48 227.407 186.61 225.027 196.06C222.927 204.04 215.577 206.7 208.297 206.7C201.927 206.7 196.607 204.95 192.057 201.73V191.86H193.387C195.907 199.91 200.667 204.46 207.317 204.81C214.037 205.16 217.397 201.66 218.167 197.25C219.357 190.39 213.757 187.38 207.317 183.74C200.247 179.75 192.617 174.99 194.717 165.61C196.257 158.75 202.137 156.23 208.787 156.23C214.177 156.23 218.167 158.12 222.787 161.2V170.65H221.457C219.357 161.97 215.297 158.4 209.697 158.19C204.237 157.91 201.437 160.71 201.087 164.98C200.527 171.07 206.057 173.66 212.427 177.37Z" fill="#001D47"/>
<path d="M1.988 239V219.4H5.348V236.368H14.084V239H1.988ZM24.5098 239.336C22.6245 239.336 20.9538 238.916 19.4978 238.076C18.0605 237.217 16.9312 236.032 16.1098 234.52C15.2885 232.989 14.8778 231.216 14.8778 229.2C14.8778 227.203 15.2885 225.448 16.1098 223.936C16.9312 222.405 18.0605 221.211 19.4978 220.352C20.9538 219.493 22.6245 219.064 24.5098 219.064C26.4325 219.064 28.1218 219.493 29.5778 220.352C31.0338 221.211 32.1632 222.405 32.9658 223.936C33.7685 225.448 34.1698 227.203 34.1698 229.2C34.1698 231.216 33.7685 232.989 32.9658 234.52C32.1632 236.032 31.0338 237.217 29.5778 238.076C28.1218 238.916 26.4325 239.336 24.5098 239.336ZM24.5378 236.312C25.7885 236.312 26.8805 236.032 27.8138 235.472C28.7472 234.893 29.4658 234.072 29.9698 233.008C30.4738 231.944 30.7258 230.675 30.7258 229.2C30.7258 227.725 30.4738 226.456 29.9698 225.392C29.4658 224.328 28.7472 223.516 27.8138 222.956C26.8805 222.377 25.7885 222.088 24.5378 222.088C23.2872 222.088 22.1952 222.377 21.2618 222.956C20.3285 223.516 19.6005 224.328 19.0778 225.392C18.5738 226.456 18.3218 227.725 18.3218 229.2C18.3218 230.675 18.5738 231.944 19.0778 233.008C19.6005 234.072 20.3285 234.893 21.2618 235.472C22.1952 236.032 23.2872 236.312 24.5378 236.312ZM37.4528 239V219.4H40.8128L50.2488 233.568V219.4H53.6088V239H50.2488L40.8128 224.86V239H37.4528ZM57.5505 239V219.4H63.8785C66.1558 219.4 68.0318 219.801 69.5065 220.604C70.9998 221.407 72.1012 222.545 72.8105 224.02C73.5385 225.476 73.9025 227.212 73.9025 229.228C73.9025 231.207 73.5385 232.933 72.8105 234.408C72.1012 235.864 70.9998 236.993 69.5065 237.796C68.0318 238.599 66.1558 239 63.8785 239H57.5505ZM60.9105 236.144H63.7105C65.4092 236.144 66.7438 235.873 67.7145 235.332C68.7038 234.772 69.4038 233.979 69.8145 232.952C70.2438 231.907 70.4585 230.665 70.4585 229.228C70.4585 227.772 70.2438 226.531 69.8145 225.504C69.4038 224.459 68.7038 223.656 67.7145 223.096C66.7438 222.517 65.4092 222.228 63.7105 222.228H60.9105V236.144ZM86.1153 239.336C84.23 239.336 82.5593 238.916 81.1033 238.076C79.666 237.217 78.5366 236.032 77.7153 234.52C76.894 232.989 76.4833 231.216 76.4833 229.2C76.4833 227.203 76.894 225.448 77.7153 223.936C78.5366 222.405 79.666 221.211 81.1033 220.352C82.5593 219.493 84.23 219.064 86.1153 219.064C88.038 219.064 89.7273 219.493 91.1833 220.352C92.6393 221.211 93.7686 222.405 94.5713 223.936C95.374 225.448 95.7753 227.203 95.7753 229.2C95.7753 231.216 95.374 232.989 94.5713 234.52C93.7686 236.032 92.6393 237.217 91.1833 238.076C89.7273 238.916 88.038 239.336 86.1153 239.336ZM86.1433 236.312C87.394 236.312 88.486 236.032 89.4193 235.472C90.3526 234.893 91.0713 234.072 91.5753 233.008C92.0793 231.944 92.3313 230.675 92.3313 229.2C92.3313 227.725 92.0793 226.456 91.5753 225.392C91.0713 224.328 90.3526 223.516 89.4193 222.956C88.486 222.377 87.394 222.088 86.1433 222.088C84.8926 222.088 83.8006 222.377 82.8673 222.956C81.934 223.516 81.206 224.328 80.6833 225.392C80.1793 226.456 79.9273 227.725 79.9273 229.2C79.9273 230.675 80.1793 231.944 80.6833 233.008C81.206 234.072 81.934 234.893 82.8673 235.472C83.8006 236.032 84.8926 236.312 86.1433 236.312ZM99.0583 239V219.4H102.418L111.854 233.568V219.4H115.214V239H111.854L102.418 224.86V239H99.0583ZM125.992 239V219.4H133.664C135.045 219.4 136.193 219.615 137.108 220.044C138.041 220.473 138.741 221.071 139.208 221.836C139.675 222.583 139.908 223.451 139.908 224.44C139.908 225.429 139.693 226.26 139.264 226.932C138.835 227.604 138.265 228.117 137.556 228.472C136.865 228.827 136.109 229.041 135.288 229.116L135.708 228.808C136.585 228.827 137.369 229.06 138.06 229.508C138.769 229.956 139.329 230.544 139.74 231.272C140.151 231.981 140.356 232.775 140.356 233.652C140.356 234.679 140.104 235.603 139.6 236.424C139.115 237.227 138.396 237.861 137.444 238.328C136.492 238.776 135.325 239 133.944 239H125.992ZM129.352 236.256H133.44C134.541 236.256 135.4 235.995 136.016 235.472C136.632 234.949 136.94 234.221 136.94 233.288C136.94 232.355 136.623 231.617 135.988 231.076C135.353 230.516 134.485 230.236 133.384 230.236H129.352V236.256ZM129.352 227.688H133.188C134.271 227.688 135.092 227.445 135.652 226.96C136.212 226.456 136.492 225.765 136.492 224.888C136.492 224.029 136.212 223.357 135.652 222.872C135.092 222.368 134.261 222.116 133.16 222.116H129.352V227.688ZM143.574 239V219.4H150.602C152.151 219.4 153.43 219.671 154.438 220.212C155.465 220.735 156.221 221.444 156.706 222.34C157.21 223.217 157.462 224.216 157.462 225.336C157.462 226.381 157.219 227.352 156.734 228.248C156.249 229.144 155.493 229.863 154.466 230.404C153.439 230.945 152.123 231.216 150.518 231.216H146.934V239H143.574ZM153.794 239L149.678 230.348H153.318L157.63 239H153.794ZM146.934 228.724H150.378C151.629 228.724 152.543 228.425 153.122 227.828C153.719 227.212 154.018 226.409 154.018 225.42C154.018 224.449 153.729 223.675 153.15 223.096C152.571 222.499 151.647 222.2 150.378 222.2H146.934V228.724ZM160.937 239V219.4H164.297V239H160.937ZM168.238 239V219.4H174.566C176.843 219.4 178.719 219.801 180.194 220.604C181.687 221.407 182.789 222.545 183.498 224.02C184.226 225.476 184.59 227.212 184.59 229.228C184.59 231.207 184.226 232.933 183.498 234.408C182.789 235.864 181.687 236.993 180.194 237.796C178.719 238.599 176.843 239 174.566 239H168.238ZM171.598 236.144H174.398C176.097 236.144 177.431 235.873 178.402 235.332C179.391 234.772 180.091 233.979 180.502 232.952C180.931 231.907 181.146 230.665 181.146 229.228C181.146 227.772 180.931 226.531 180.502 225.504C180.091 224.459 179.391 223.656 178.402 223.096C177.431 222.517 176.097 222.228 174.398 222.228H171.598V236.144ZM196.411 239.336C194.563 239.336 192.939 238.916 191.539 238.076C190.157 237.236 189.084 236.069 188.319 234.576C187.553 233.064 187.171 231.3 187.171 229.284C187.171 227.287 187.563 225.523 188.347 223.992C189.131 222.443 190.251 221.239 191.707 220.38C193.181 219.503 194.927 219.064 196.943 219.064C199.22 219.064 201.105 219.615 202.599 220.716C204.111 221.799 205.091 223.311 205.539 225.252H201.759C201.479 224.281 200.928 223.525 200.107 222.984C199.285 222.443 198.221 222.172 196.915 222.172C195.589 222.172 194.451 222.461 193.499 223.04C192.565 223.6 191.847 224.421 191.343 225.504C190.857 226.568 190.615 227.837 190.615 229.312C190.615 230.787 190.857 232.056 191.343 233.12C191.847 234.184 192.556 234.996 193.471 235.556C194.385 236.097 195.459 236.368 196.691 236.368C198.52 236.368 199.901 235.855 200.835 234.828C201.768 233.801 202.319 232.467 202.487 230.824H197.419V228.276H205.875V239H202.795L202.515 236.312C202.085 236.947 201.591 237.497 201.031 237.964C200.471 238.412 199.808 238.757 199.043 239C198.296 239.224 197.419 239.336 196.411 239.336ZM209.5 239V219.4H222.156V222.116H212.86V227.744H221.316V230.404H212.86V236.284H222.156V239H209.5Z" fill="#001D47"/>
<path d="M117 0V139" stroke="#001D47" stroke-width="4.5"/>
<path d="M53.3897 273.205C50.0636 273.205 47.2942 271.065 46.5567 267.655H60.2088C59.4851 271.079 56.7018 273.205 53.3757 273.205M53.3897 258.795C56.66 258.795 59.4155 261.492 60.1809 264.217H46.5845C47.3499 261.477 50.1054 258.795 53.3757 258.795M67 264.231H63.9662C63.1451 259.437 58.7197 255 53.3897 255C48.0596 255 43.6481 259.437 42.8131 264.231H39V267.655H42.7992C43.5785 273.119 48.0318 277 53.3897 277C58.7475 277 63.2147 273.119 63.9801 267.655H67V264.231Z" fill="black"/>
<path d="M85.3897 273.205C82.0636 273.205 79.2942 271.065 78.5567 267.655H92.2088C91.4851 271.079 88.7018 273.205 85.3757 273.205M85.3897 258.795C88.66 258.795 91.4155 261.492 92.1809 264.217H78.5845C79.3499 261.477 82.1054 258.795 85.3757 258.795M99 264.231H95.9662C95.1451 259.437 90.7197 255 85.3897 255C80.0596 255 75.6481 259.437 74.8131 264.231H71V267.655H74.7992C75.5785 273.119 80.0318 277 85.3897 277C90.7475 277 95.2147 273.119 95.9801 267.655H99V264.231Z" fill="#79858D"/>
<g clip-path="url(#clip0_1136_1473)">
<path d="M10.6978 257L19.6075 261.109H4V263.728H20.1682L12.4579 267.272H4V269.907H12.5202L21.4299 274H27.3178L18.4081 269.907H34V267.272H18.3458L26.0561 263.728H34V261.109H25.4953L16.5857 257H10.6978Z" fill="#ED1C24"/>
</g>
<defs>
<clipPath id="clip0_1136_1473">
<rect width="30" height="17" fill="white" transform="translate(4 257)"/>
</clipPath>
</defs>
</svg>
