<svg width="133" height="84" viewBox="0 0 133 84" fill="none" xmlns="http://www.w3.org/2000/svg">
<path d="M52.6649 7.18774H33.9199V13.4361H52.6649V7.18774Z" fill="#001D47"/>
<path d="M124.274 36.764H113.48H124.287C119.425 32.2599 112.926 29.5032 105.776 29.5032C102.896 29.4971 100.12 29.9463 97.5171 30.7769L105.24 48.3074L108.723 56.2019L102.994 58.7247L98.5386 48.6212L91.8063 33.3551C83.8678 38.1116 78.5508 46.7937 78.5508 56.725C78.5508 71.7634 90.7416 83.9528 105.782 83.9528C108.459 83.9528 111.043 83.559 113.486 82.8453C124.767 79.5225 133 69.0929 133 56.7373C133 48.8489 129.64 41.7481 124.28 36.7763L124.274 36.764Z" fill="#001D47"/>
<path d="M41.2602 33.5742L31.731 54.1243L28.975 52.8689L26.0406 51.5403L35.6005 30.8074C32.9614 29.9663 30.1562 29.5032 27.2341 29.5032C12.3221 29.5032 0.227617 41.3749 0.0184554 56.0928H0C0 56.2147 0.00615181 56.3365 0.0123036 56.4584C0.0123036 56.4584 0.0123036 56.4706 0.0123036 56.4767C0.221465 71.1945 12.3159 83.0602 27.2218 83.0602C42.1276 83.0602 54.2282 71.1884 54.4312 56.4767H54.4497C54.4497 56.3548 54.4435 56.2329 54.4374 56.1111C54.4374 56.1111 54.4374 56.0989 54.4374 56.0928C54.302 46.4576 49.0668 38.0474 41.2909 33.3853L41.211 33.5559L41.254 33.5742H41.2602Z" fill="#001D47"/>
<path d="M97.2883 30.7027H97.2945L84.0624 0.183787L63.4179 0.046875L63.375 6.38215L79.9825 6.48795L85.1283 18.3557L86.8188 22.4506L87.8789 24.6972L91.5116 33.0737L97.2148 30.5222L97.2883 30.7027Z" fill="#001D47"/>
<path d="M41.3475 17.9054L35.7051 30.4449C37.7106 31.1052 39.6118 31.9835 41.3843 33.0737L45.3524 24.253L88.3695 24.3838L85.6158 18.0362L41.3475 17.8992V17.9054Z" fill="#001D47"/>
</svg>
