<svg width="185" height="129" viewBox="0 0 185 129" fill="none" xmlns="http://www.w3.org/2000/svg">
<path d="M1.07422 47.8875H177.441V37.3378H1.07422V47.8875ZM1.07422 47.8875V58.4372M1.07422 47.8875H184.439V58.4372M12.397 26.7881V37.3378H170.838V26.7881H12.397ZM12.397 26.7881H140.166V16.2384M12.397 26.7881V16.2384H140.166M140.166 16.2384H28.8076V6.7831L32.6844 1H136.289L140.166 6.7831V16.2384ZM184.439 58.4372H1.07422M184.439 58.4372V68.9869M1.07422 58.4372V68.9869M184.439 68.9869H1.07422M184.439 68.9869V79.5366M1.07422 68.9869V79.5366M184.439 79.5366H1.07422M184.439 79.5366V90.0863M1.07422 79.5366V90.0863H184.439M184.439 90.0863H38.9666V100.636H184.439V90.0863Z" stroke="#123359" stroke-width="0.976824" stroke-miterlimit="10"/>
<path d="M38.9666 111.186L1.07422 111.186L184.439 111.186H38.9666ZM184.439 101V111.186V101ZM184.439 111.186L1.07422 111.186V128.385H45.8043V125.06H71.7879L77.3512 121.735H184.439V111.186Z" fill="#001D47"/>
<path d="M1.07422 111.186L38.9666 111.186H184.439M1.07422 111.186L184.439 111.186M1.07422 111.186V128.385H45.8043V125.06H71.7879L77.3512 121.735H184.439V111.186M1.07422 111.186V90M184.439 111.186V101" stroke="#123359" stroke-width="0.976824" stroke-miterlimit="10"/>
</svg>
