<svg width="60" height="15" viewBox="0 0 60 15" fill="none" xmlns="http://www.w3.org/2000/svg">
<path d="M30.9724 11.9604C28.9184 11.9604 27.2081 10.6388 26.7526 8.533H35.1836C34.7367 10.6476 33.0179 11.9604 30.9638 11.9604M30.9724 3.06146C32.9921 3.06146 34.6938 4.72671 35.1664 6.40958H26.7698C27.2425 4.7179 28.9442 3.06146 30.9638 3.06146M39.3776 6.41839H37.5041C36.997 3.45795 34.264 0.717773 30.9724 0.717773C27.6808 0.717773 24.9564 3.45795 24.4408 6.41839H22.0859V8.533H24.4322C24.9135 11.9076 27.6636 14.3041 30.9724 14.3041C34.2812 14.3041 37.04 11.9076 37.5127 8.533H39.3776V6.41839Z" fill="black"/>
<path d="M50.7341 11.9604C48.6801 11.9604 46.9698 10.6388 46.5144 8.533H54.9453C54.4984 10.6476 52.7796 11.9604 50.7256 11.9604M50.7341 3.06146C52.7538 3.06146 54.4555 4.72671 54.9282 6.40958H46.5315C47.0042 4.7179 48.7059 3.06146 50.7256 3.06146M59.1394 6.41839H57.2658C56.7587 3.45795 54.0258 0.717773 50.7341 0.717773C47.4425 0.717773 44.7181 3.45795 44.2025 6.41839H41.8477V8.533H44.1939C44.6752 11.9076 47.4253 14.3041 50.7341 14.3041C54.0429 14.3041 56.8017 11.9076 57.2744 8.533H59.1394V6.41839Z" fill="#79858D"/>
<g clip-path="url(#clip0_1277_4339)">
<path d="M4.60701 1.95312L10.1093 4.49059H0.470703V6.10799H10.4556L5.694 8.29679H0.470703V9.92387H5.73247L11.2347 12.4517H14.8708L9.36858 9.92387H18.9975V8.29679H9.3301L14.0917 6.10799H18.9975V4.49059H13.7454L8.24312 1.95312H4.60701Z" fill="#ED1C24"/>
</g>
<defs>
<clipPath id="clip0_1277_4339">
<rect width="18.5268" height="10.4985" fill="white" transform="translate(0.470703 1.95312)"/>
</clipPath>
</defs>
</svg>
