<svg width="99" height="14" viewBox="0 0 99 14" fill="none" xmlns="http://www.w3.org/2000/svg">
<path d="M30.7048 11.6162C28.6508 11.6162 26.9406 10.2946 26.4851 8.18876H34.916C34.4691 10.3034 32.7503 11.6162 30.6963 11.6162M30.7048 2.71722C32.7245 2.71722 34.4262 4.38247 34.8989 6.06534H26.5022C26.9749 4.37366 28.6766 2.71722 30.6963 2.71722M39.1101 6.07416H37.2365C36.7294 3.11371 33.9965 0.373535 30.7048 0.373535C27.4132 0.373535 24.6888 3.11371 24.1732 6.07416H21.8184V8.18876H24.1646C24.6459 11.5633 27.396 13.9599 30.7048 13.9599C34.0136 13.9599 36.7724 11.5633 37.2451 8.18876H39.1101V6.07416Z" fill="#B26300"/>
<path d="M70.2302 11.6162C68.1762 11.6162 66.4659 10.2946 66.0104 8.18876H74.4414C73.9945 10.3034 72.2757 11.6162 70.2216 11.6162M70.2302 2.71722C72.2499 2.71722 73.9516 4.38247 74.4242 6.06534H66.0276C66.5003 4.37366 68.202 2.71722 70.2216 2.71722M78.6354 6.07416H76.7619C76.2548 3.11371 73.5218 0.373535 70.2302 0.373535C66.9386 0.373535 64.2142 3.11371 63.6986 6.07416H61.3438V8.18876H63.69C64.1713 11.5633 66.9214 13.9599 70.2302 13.9599C73.539 13.9599 76.2978 11.5633 76.7705 8.18876H78.6354V6.07416Z" fill="black"/>
<path d="M50.4685 11.6162C48.4145 11.6162 46.7042 10.2946 46.2487 8.18876H54.6797C54.2328 10.3034 52.514 11.6162 50.4599 11.6162M50.4685 2.71722C52.4882 2.71722 54.1898 4.38247 54.6625 6.06534H46.2659C46.7386 4.37366 48.4403 2.71722 50.4599 2.71722M58.8737 6.07416H57.0002C56.4931 3.11371 53.7601 0.373535 50.4685 0.373535C47.1769 0.373535 44.4525 3.11371 43.9369 6.07416H41.582V8.18876H43.9283C44.4096 11.5633 47.1597 13.9599 50.4685 13.9599C53.7773 13.9599 56.5361 11.5633 57.0088 8.18876H58.8737V6.07416Z" fill="#79858D"/>
<path d="M89.992 11.6162C87.9379 11.6162 86.2277 10.2946 85.7722 8.18876H94.2032C93.7563 10.3034 92.0374 11.6162 89.9834 11.6162M89.992 2.71722C92.0116 2.71722 93.7133 4.38247 94.186 6.06534H85.7894C86.262 4.37366 87.9637 2.71722 89.9834 2.71722M98.3972 6.07416H96.5236C96.0166 3.11371 93.2836 0.373535 89.992 0.373535C86.7003 0.373535 83.976 3.11371 83.4603 6.07416H81.1055V8.18876H83.4517C83.933 11.5633 86.6832 13.9599 89.992 13.9599C93.3008 13.9599 96.0595 11.5633 96.5322 8.18876H98.3972V6.07416Z" fill="#68CCB2"/>
<g clip-path="url(#clip0_1277_4344)">
<path d="M4.34139 1.60889L9.84364 4.14635H0.205078V5.76375H10.1899L5.42837 7.95256H0.205078V9.57963H5.46685L10.9691 12.1074H14.6052L9.10295 9.57963H18.7319V7.95256H9.06448L13.826 5.76375H18.7319V4.14635H13.4797L7.97749 1.60889H4.34139Z" fill="#ED1C24"/>
</g>
<defs>
<clipPath id="clip0_1277_4344">
<rect width="18.5268" height="10.4985" fill="white" transform="translate(0.205078 1.60889)"/>
</clipPath>
</defs>
</svg>
