<svg width="119" height="15" viewBox="0 0 119 15" fill="none" xmlns="http://www.w3.org/2000/svg">
<path d="M31.3533 11.7583C29.2993 11.7583 27.589 10.4366 27.1335 8.33085H35.5645C35.1176 10.4455 33.3987 11.7583 31.3447 11.7583M31.3533 2.85931C33.3729 2.85931 35.0746 4.52456 35.5473 6.20743H27.1507C27.6234 4.51575 29.325 2.85931 31.3447 2.85931M39.7585 6.21625H37.8849C37.3779 3.2558 34.6449 0.515625 31.3533 0.515625C28.0617 0.515625 25.3373 3.2558 24.8216 6.21625H22.4668V8.33085H24.813C25.2943 11.7054 28.0445 14.102 31.3533 14.102C34.6621 14.102 37.4208 11.7054 37.8935 8.33085H39.7585V6.21625Z" fill="#EA9BAD"/>
<path d="M70.8767 11.7583C68.8227 11.7583 67.1124 10.4366 66.6569 8.33085H75.0879C74.641 10.4455 72.9222 11.7583 70.8681 11.7583M70.8767 2.85931C72.8964 2.85931 74.598 4.52456 75.0707 6.20743H66.6741C67.1468 4.51575 68.8485 2.85931 70.8681 2.85931M79.2819 6.21625H77.4084C76.9013 3.2558 74.1683 0.515625 70.8767 0.515625C67.5851 0.515625 64.8607 3.2558 64.3451 6.21625H61.9902V8.33085H64.3365C64.8178 11.7054 67.5679 14.102 70.8767 14.102C74.1855 14.102 76.9443 11.7054 77.417 8.33085H79.2819V6.21625Z" fill="black"/>
<path d="M110.4 11.7583C108.346 11.7583 106.636 10.4366 106.18 8.33085H114.611C114.164 10.4455 112.446 11.7583 110.392 11.7583M110.4 2.85931C112.42 2.85931 114.121 4.52456 114.594 6.20743H106.198C106.67 4.51575 108.372 2.85931 110.392 2.85931M118.805 6.21625H116.932C116.425 3.2558 113.692 0.515625 110.4 0.515625C107.109 0.515625 104.384 3.2558 103.869 6.21625H101.514V8.33085H103.86C104.341 11.7054 107.091 14.102 110.4 14.102C113.709 14.102 116.468 11.7054 116.94 8.33085H118.805V6.21625Z" fill="#039BE5"/>
<path d="M51.1131 11.7583C49.059 11.7583 47.3488 10.4366 46.8933 8.33085H55.3243C54.8773 10.4455 53.1585 11.7583 51.1045 11.7583M51.1131 2.85931C53.1327 2.85931 54.8344 4.52456 55.3071 6.20743H46.9104C47.3831 4.51575 49.0848 2.85931 51.1045 2.85931M59.5183 6.21625H57.6447C57.1376 3.2558 54.4047 0.515625 51.1131 0.515625C47.8214 0.515625 45.0971 3.2558 44.5814 6.21625H42.2266V8.33085H44.5728C45.0541 11.7054 47.8043 14.102 51.1131 14.102C54.4218 14.102 57.1806 11.7054 57.6533 8.33085H59.5183V6.21625Z" fill="#8A134E"/>
<path d="M90.6384 11.7583C88.5844 11.7583 86.8741 10.4366 86.4186 8.33085H94.8496C94.4027 10.4455 92.6839 11.7583 90.6298 11.7583M90.6384 2.85931C92.6581 2.85931 94.3598 4.52456 94.8325 6.20743H86.4358C86.9085 4.51575 88.6102 2.85931 90.6298 2.85931M99.0436 6.21625H97.1701C96.663 3.2558 93.9301 0.515625 90.6384 0.515625C87.3468 0.515625 84.6224 3.2558 84.1068 6.21625H81.752V8.33085H84.0982C84.5795 11.7054 87.3296 14.102 90.6384 14.102C93.9472 14.102 96.706 11.7054 97.1787 8.33085H99.0436V6.21625Z" fill="#2D2A80"/>
<g clip-path="url(#clip0_1277_4343)">
<path d="M4.98787 1.75098L10.4901 4.28844H0.851562V5.90584H10.8364L6.07486 8.09465H0.851562V9.72172H6.11333L11.6156 12.2495H15.2517L9.74944 9.72172H19.3784V8.09465H9.71096L14.4725 5.90584H19.3784V4.28844H14.1262L8.62398 1.75098H4.98787Z" fill="#ED1C24"/>
</g>
<defs>
<clipPath id="clip0_1277_4343">
<rect width="18.5268" height="10.4985" fill="white" transform="translate(0.851562 1.75098)"/>
</clipPath>
</defs>
</svg>
