<svg width="81" height="15" viewBox="0 0 81 15" fill="none" xmlns="http://www.w3.org/2000/svg">
<path d="M31.4431 11.7583C29.3891 11.7583 27.6788 10.4366 27.2233 8.33085H35.6543C35.2074 10.4455 33.4886 11.7583 31.4345 11.7583M31.4431 2.85931C33.4628 2.85931 35.1645 4.52456 35.6371 6.20743H27.2405C27.7132 4.51575 29.4149 2.85931 31.4345 2.85931M39.8483 6.21625H37.9748C37.4677 3.2558 34.7347 0.515625 31.4431 0.515625C28.1515 0.515625 25.4271 3.2558 24.9115 6.21625H22.5566V8.33085H24.9029C25.3842 11.7054 28.1343 14.102 31.4431 14.102C34.7519 14.102 37.5107 11.7054 37.9834 8.33085H39.8483V6.21625Z" fill="#EA9BAD"/>
<path d="M72.2009 11.7583C70.1469 11.7583 68.4366 10.4366 67.9811 8.33085H76.4121C75.9652 10.4455 74.2464 11.7583 72.1923 11.7583M72.2009 2.85931C74.2206 2.85931 75.9223 4.52456 76.395 6.20743H67.9983C68.471 4.51575 70.1727 2.85931 72.1923 2.85931M80.6061 6.21625H78.7326C78.2255 3.2558 75.4926 0.515625 72.2009 0.515625C68.9093 0.515625 66.1849 3.2558 65.6693 6.21625H63.3145V8.33085H65.6607C66.142 11.7054 68.8921 14.102 72.2009 14.102C75.5097 14.102 78.2685 11.7054 78.7412 8.33085H80.6061V6.21625Z" fill="black"/>
<path d="M51.2029 11.7583C49.1489 11.7583 47.4386 10.4366 46.9831 8.33085H55.4141C54.9672 10.4455 53.2483 11.7583 51.1943 11.7583M51.2029 2.85931C53.2226 2.85931 54.9242 4.52456 55.3969 6.20743H47.0003C47.473 4.51575 49.1746 2.85931 51.1943 2.85931M59.6081 6.21625H57.7346C57.2275 3.2558 54.4945 0.515625 51.2029 0.515625C47.9113 0.515625 45.1869 3.2558 44.6712 6.21625H42.3164V8.33085H44.6626C45.1439 11.7054 47.8941 14.102 51.2029 14.102C54.5117 14.102 57.2705 11.7054 57.7431 8.33085H59.6081V6.21625Z" fill="#8A134E"/>
<g clip-path="url(#clip0_1277_4342)">
<path d="M5.07576 1.75098L10.578 4.28844H0.939453V5.90584H10.9243L6.16275 8.09465H0.939453V9.72172H6.20122L11.7035 12.2495H15.3396L9.83733 9.72172H19.4663V8.09465H9.79885L14.5604 5.90584H19.4663V4.28844H14.2141L8.71187 1.75098H5.07576Z" fill="#ED1C24"/>
</g>
<defs>
<clipPath id="clip0_1277_4342">
<rect width="18.5268" height="10.4985" fill="white" transform="translate(0.939453 1.75098)"/>
</clipPath>
</defs>
</svg>
