<svg width="99" height="14" viewBox="0 0 99 14" fill="none" xmlns="http://www.w3.org/2000/svg">
<path d="M30.5017 11.6162C28.4477 11.6162 26.7374 10.2946 26.2819 8.18876H34.7129C34.266 10.3034 32.5472 11.6162 30.4931 11.6162M30.5017 2.71722C32.5214 2.71722 34.223 4.38247 34.6957 6.06534H26.2991C26.7718 4.37366 28.4735 2.71722 30.4931 2.71722M38.9069 6.07416H37.0334C36.5263 3.11371 33.7933 0.373535 30.5017 0.373535C27.2101 0.373535 24.4857 3.11371 23.9701 6.07416H21.6152V8.18876H23.9615C24.4428 11.5633 27.1929 13.9599 30.5017 13.9599C33.8105 13.9599 36.5693 11.5633 37.042 8.18876H38.9069V6.07416Z" fill="#753DBD"/>
<path d="M70.0252 11.6162C67.9711 11.6162 66.2609 10.2946 65.8054 8.18876H74.2364C73.7895 10.3034 72.0706 11.6162 70.0166 11.6162M70.0252 2.71722C72.0448 2.71722 73.7465 4.38247 74.2192 6.06534H65.8226C66.2952 4.37366 67.9969 2.71722 70.0166 2.71722M78.4304 6.07416H76.5568C76.0498 3.11371 73.3168 0.373535 70.0252 0.373535C66.7336 0.373535 64.0092 3.11371 63.4935 6.07416H61.1387V8.18876H63.4849C63.9662 11.5633 66.7164 13.9599 70.0252 13.9599C73.334 13.9599 76.0927 11.5633 76.5654 8.18876H78.4304V6.07416Z" fill="#EA9BAD"/>
<path d="M50.2615 11.6162C48.2075 11.6162 46.4972 10.2946 46.0417 8.18876H54.4727C54.0258 10.3034 52.3069 11.6162 50.2529 11.6162M50.2615 2.71722C52.2811 2.71722 53.9828 4.38247 54.4555 6.06534H46.0589C46.5316 4.37366 48.2332 2.71722 50.2529 2.71722M58.6667 6.07416H56.7931C56.2861 3.11371 53.5531 0.373535 50.2615 0.373535C46.9699 0.373535 44.2455 3.11371 43.7298 6.07416H41.375V8.18876H43.7212C44.2025 11.5633 46.9527 13.9599 50.2615 13.9599C53.5703 13.9599 56.3291 11.5633 56.8017 8.18876H58.6667V6.07416Z" fill="#8A134E"/>
<path d="M89.7869 11.6162C87.7328 11.6162 86.0226 10.2946 85.5671 8.18876H93.9981C93.5512 10.3034 91.8323 11.6162 89.7783 11.6162M89.7869 2.71722C91.8065 2.71722 93.5082 4.38247 93.9809 6.06534H85.5843C86.057 4.37366 87.7586 2.71722 89.7783 2.71722M98.1921 6.07416H96.3185C95.8115 3.11371 93.0785 0.373535 89.7869 0.373535C86.4953 0.373535 83.7709 3.11371 83.2552 6.07416H80.9004V8.18876H83.2466C83.7279 11.5633 86.4781 13.9599 89.7869 13.9599C93.0957 13.9599 95.8544 11.5633 96.3271 8.18876H98.1921V6.07416Z" fill="#FECD00"/>
<g clip-path="url(#clip0_1277_4348)">
<path d="M4.13631 1.60889L9.63856 4.14635H0V5.76375H9.98486L5.22329 7.95256H0V9.57963H5.26177L10.764 12.1074H14.4001L8.89787 9.57963H18.5268V7.95256H8.8594L13.621 5.76375H18.5268V4.14635H13.2747L7.77241 1.60889H4.13631Z" fill="#ED1C24"/>
</g>
<defs>
<clipPath id="clip0_1277_4348">
<rect width="18.5268" height="10.4985" fill="white" transform="translate(0 1.60889)"/>
</clipPath>
</defs>
</svg>
