<svg width="120" height="15" viewBox="0 0 120 15" fill="none" xmlns="http://www.w3.org/2000/svg">
<path d="M30.9724 11.7915C28.9184 11.7915 27.2081 10.4698 26.7526 8.36405H35.1836C34.7367 10.4787 33.0179 11.7915 30.9638 11.7915M30.9724 2.89251C32.9921 2.89251 34.6938 4.55777 35.1664 6.24064H26.7698C27.2425 4.54895 28.9442 2.89251 30.9638 2.89251M39.3776 6.24945H37.5041C36.997 3.289 34.264 0.548828 30.9724 0.548828C27.6808 0.548828 24.9564 3.289 24.4408 6.24945H22.0859V8.36405H24.4322C24.9135 11.7386 27.6636 14.1352 30.9724 14.1352C34.2812 14.1352 37.04 11.7386 37.5127 8.36405H39.3776V6.24945Z" fill="#753DBD"/>
<path d="M70.4959 11.7915C68.4418 11.7915 66.7316 10.4698 66.2761 8.36405H74.7071C74.2602 10.4787 72.5413 11.7915 70.4873 11.7915M70.4959 2.89251C72.5155 2.89251 74.2172 4.55777 74.6899 6.24064H66.2933C66.7659 4.54895 68.4676 2.89251 70.4873 2.89251M78.9011 6.24945H77.0275C76.5205 3.289 73.7875 0.548828 70.4959 0.548828C67.2043 0.548828 64.4799 3.289 63.9642 6.24945H61.6094V8.36405H63.9556C64.4369 11.7386 67.1871 14.1352 70.4959 14.1352C73.8047 14.1352 76.5634 11.7386 77.0361 8.36405H78.9011V6.24945Z" fill="#EA9BAD"/>
<path d="M111.256 11.7915C109.202 11.7915 107.491 10.4698 107.036 8.36405H115.467C115.02 10.4787 113.301 11.7915 111.247 11.7915M111.256 2.89251C113.275 2.89251 114.977 4.55777 115.45 6.24064H107.053C107.526 4.54895 109.227 2.89251 111.247 2.89251M119.661 6.24945H117.787C117.28 3.289 114.547 0.548828 111.256 0.548828C107.964 0.548828 105.24 3.289 104.724 6.24945H102.369V8.36405H104.715C105.197 11.7386 107.947 14.1352 111.256 14.1352C114.564 14.1352 117.323 11.7386 117.796 8.36405H119.661V6.24945Z" fill="#E32119"/>
<path d="M50.7341 11.7915C48.6801 11.7915 46.9698 10.4698 46.5144 8.36405H54.9453C54.4984 10.4787 52.7796 11.7915 50.7256 11.7915M50.7341 2.89251C52.7538 2.89251 54.4555 4.55777 54.9282 6.24064H46.5315C47.0042 4.54895 48.7059 2.89251 50.7256 2.89251M59.1394 6.24945H57.2658C56.7587 3.289 54.0258 0.548828 50.7341 0.548828C47.4425 0.548828 44.7181 3.289 44.2025 6.24945H41.8477V8.36405H44.1939C44.6752 11.7386 47.4253 14.1352 50.7341 14.1352C54.0429 14.1352 56.8017 11.7386 57.2744 8.36405H59.1394V6.24945Z" fill="#8A134E"/>
<path d="M90.2576 11.7915C88.2035 11.7915 86.4933 10.4698 86.0378 8.36405H94.4688C94.0219 10.4787 92.303 11.7915 90.249 11.7915M90.2576 2.89251C92.2772 2.89251 93.9789 4.55777 94.4516 6.24064H86.055C86.5277 4.54895 88.2293 2.89251 90.249 2.89251M98.6628 6.24945H96.7892C96.2822 3.289 93.5492 0.548828 90.2576 0.548828C86.966 0.548828 84.2416 3.289 83.7259 6.24945H81.3711V8.36405H83.7173C84.1986 11.7386 86.9488 14.1352 90.2576 14.1352C93.5664 14.1352 96.3251 11.7386 96.7978 8.36405H98.6628V6.24945Z" fill="#FECD00"/>
<g clip-path="url(#clip0_1277_4345)">
<path d="M4.60701 1.78418L10.1093 4.32165H0.470703V5.93904H10.4556L5.694 8.12785H0.470703V9.75493H5.73247L11.2347 12.2827H14.8708L9.36858 9.75493H18.9975V8.12785H9.3301L14.0917 5.93904H18.9975V4.32165H13.7454L8.24312 1.78418H4.60701Z" fill="#ED1C24"/>
</g>
<defs>
<clipPath id="clip0_1277_4345">
<rect width="18.5268" height="10.4985" fill="white" transform="translate(0.470703 1.78418)"/>
</clipPath>
</defs>
</svg>
