<svg width="60" height="15" viewBox="0 0 60 15" fill="none" xmlns="http://www.w3.org/2000/svg">
<path d="M30.9724 12.0151C28.9184 12.0151 27.2081 10.6935 26.7526 8.58769H35.1836C34.7367 10.7023 33.0179 12.0151 30.9638 12.0151M30.9724 3.11615C32.9921 3.11615 34.6938 4.7814 35.1664 6.46427H26.7698C27.2425 4.77259 28.9442 3.11615 30.9638 3.11615M39.3776 6.47308H37.5041C36.997 3.51264 34.264 0.772461 30.9724 0.772461C27.6808 0.772461 24.9564 3.51264 24.4408 6.47308H22.0859V8.58769H24.4322C24.9135 11.9622 27.6636 14.3588 30.9724 14.3588C34.2812 14.3588 37.04 11.9622 37.5127 8.58769H39.3776V6.47308Z" fill="#FFCD00"/>
<path d="M50.7341 12.0151C48.6801 12.0151 46.9698 10.6935 46.5144 8.58769H54.9453C54.4984 10.7023 52.7796 12.0151 50.7256 12.0151M50.7341 3.11615C52.7538 3.11615 54.4555 4.7814 54.9282 6.46427H46.5315C47.0042 4.77259 48.7059 3.11615 50.7256 3.11615M59.1394 6.47308H57.2658C56.7587 3.51264 54.0258 0.772461 50.7341 0.772461C47.4425 0.772461 44.7181 3.51264 44.2025 6.47308H41.8477V8.58769H44.1939C44.6752 11.9622 47.4253 14.3588 50.7341 14.3588C54.0429 14.3588 56.8017 11.9622 57.2744 8.58769H59.1394V6.47308Z" fill="#007934"/>
<g clip-path="url(#clip0_1277_4336)">
<path d="M4.60701 2.00781L10.1093 4.54528H0.470703V6.16267H10.4556L5.694 8.35148H0.470703V9.97856H5.73247L11.2347 12.5063H14.8708L9.36858 9.97856H18.9975V8.35148H9.3301L14.0917 6.16267H18.9975V4.54528H13.7454L8.24312 2.00781H4.60701Z" fill="#ED1C24"/>
</g>
<defs>
<clipPath id="clip0_1277_4336">
<rect width="18.5268" height="10.4985" fill="white" transform="translate(0.470703 2.00781)"/>
</clipPath>
</defs>
</svg>
