<svg width="60" height="15" viewBox="0 0 60 15" fill="none" xmlns="http://www.w3.org/2000/svg">
<path d="M31.3533 12.0151C29.2993 12.0151 27.589 10.6935 27.1335 8.58769H35.5645C35.1176 10.7023 33.3987 12.0151 31.3447 12.0151M31.3533 3.11615C33.3729 3.11615 35.0746 4.7814 35.5473 6.46427H27.1507C27.6234 4.77259 29.325 3.11615 31.3447 3.11615M39.7585 6.47308H37.8849C37.3779 3.51264 34.6449 0.772461 31.3533 0.772461C28.0617 0.772461 25.3373 3.51264 24.8216 6.47308H22.4668V8.58769H24.813C25.2943 11.9622 28.0445 14.3588 31.3533 14.3588C34.6621 14.3588 37.4208 11.9622 37.8935 8.58769H39.7585V6.47308Z" fill="black"/>
<path d="M51.1131 12.0151C49.059 12.0151 47.3488 10.6935 46.8933 8.58769H55.3243C54.8773 10.7023 53.1585 12.0151 51.1045 12.0151M51.1131 3.11615C53.1327 3.11615 54.8344 4.7814 55.3071 6.46427H46.9104C47.3831 4.77259 49.0848 3.11615 51.1045 3.11615M59.5183 6.47308H57.6447C57.1376 3.51264 54.4047 0.772461 51.1131 0.772461C47.8214 0.772461 45.0971 3.51264 44.5814 6.47308H42.2266V8.58769H44.5728C45.0541 11.9622 47.8043 14.3588 51.1131 14.3588C54.4218 14.3588 57.1806 11.9622 57.6533 8.58769H59.5183V6.47308Z" fill="#79858D"/>
<g clip-path="url(#clip0_1277_4337)">
<path d="M4.98787 2.00781L10.4901 4.54528H0.851562V6.16267H10.8364L6.07486 8.35148H0.851562V9.97856H6.11333L11.6156 12.5063H15.2517L9.74944 9.97856H19.3784V8.35148H9.71096L14.4725 6.16267H19.3784V4.54528H14.1262L8.62398 2.00781H4.98787Z" fill="#ED1C24"/>
</g>
<defs>
<clipPath id="clip0_1277_4337">
<rect width="18.5268" height="10.4985" fill="white" transform="translate(0.851562 2.00781)"/>
</clipPath>
</defs>
</svg>
