<svg width="120" height="15" viewBox="0 0 120 15" fill="none" xmlns="http://www.w3.org/2000/svg">
<path d="M30.7341 11.9604C28.6801 11.9604 26.9698 10.6388 26.5144 8.533H34.9453C34.4984 10.6476 32.7796 11.9604 30.7256 11.9604M30.7341 3.06146C32.7538 3.06146 34.4555 4.72671 34.9282 6.40958H26.5315C27.0042 4.7179 28.7059 3.06146 30.7256 3.06146M39.1394 6.41839H37.2658C36.7587 3.45795 34.0258 0.717773 30.7341 0.717773C27.4425 0.717773 24.7181 3.45795 24.2025 6.41839H21.8477V8.533H24.1939C24.6752 11.9076 27.4253 14.3041 30.7341 14.3041C34.0429 14.3041 36.8017 11.9076 37.2744 8.533H39.1394V6.41839Z" fill="#753DBD"/>
<path d="M70.2595 11.9604C68.2055 11.9604 66.4952 10.6388 66.0397 8.533H74.4707C74.0238 10.6476 72.305 11.9604 70.2509 11.9604M70.2595 3.06146C72.2792 3.06146 73.9809 4.72671 74.4535 6.40958H66.0569C66.5296 4.7179 68.2313 3.06146 70.2509 3.06146M78.6647 6.41839H76.7912C76.2841 3.45795 73.5511 0.717773 70.2595 0.717773C66.9679 0.717773 64.2435 3.45795 63.7279 6.41839H61.373V8.533H63.7193C64.2006 11.9076 66.9507 14.3041 70.2595 14.3041C73.5683 14.3041 76.3271 11.9076 76.7998 8.533H78.6647V6.41839Z" fill="#EA9BAD"/>
<path d="M111.017 11.9604C108.963 11.9604 107.253 10.6388 106.798 8.533H115.229C114.782 10.6476 113.063 11.9604 111.009 11.9604M111.017 3.06146C113.037 3.06146 114.739 4.72671 115.211 6.40958H106.815C107.287 4.7179 108.989 3.06146 111.009 3.06146M119.423 6.41839H117.549C117.042 3.45795 114.309 0.717773 111.017 0.717773C107.726 0.717773 105.001 3.45795 104.486 6.41839H102.131V8.533H104.477C104.958 11.9076 107.709 14.3041 111.017 14.3041C114.326 14.3041 117.085 11.9076 117.558 8.533H119.423V6.41839Z" fill="#E32119"/>
<path d="M50.4959 11.9604C48.4418 11.9604 46.7316 10.6388 46.2761 8.533H54.7071C54.2602 10.6476 52.5413 11.9604 50.4873 11.9604M50.4959 3.06146C52.5155 3.06146 54.2172 4.72671 54.6899 6.40958H46.2933C46.7659 4.7179 48.4676 3.06146 50.4873 3.06146M58.9011 6.41839H57.0275C56.5205 3.45795 53.7875 0.717773 50.4959 0.717773C47.2043 0.717773 44.4799 3.45795 43.9642 6.41839H41.6094V8.533H43.9556C44.4369 11.9076 47.1871 14.3041 50.4959 14.3041C53.8047 14.3041 56.5634 11.9076 57.0361 8.533H58.9011V6.41839Z" fill="#8A134E"/>
<path d="M90.0213 11.9604C87.9672 11.9604 86.257 10.6388 85.8015 8.533H94.2325C93.7856 10.6476 92.0667 11.9604 90.0127 11.9604M90.0213 3.06146C92.0409 3.06146 93.7426 4.72671 94.2153 6.40958H85.8187C86.2913 4.7179 87.993 3.06146 90.0127 3.06146M98.4265 6.41839H96.5529C96.0458 3.45795 93.3129 0.717773 90.0213 0.717773C86.7296 0.717773 84.0053 3.45795 83.4896 6.41839H81.1348V8.533H83.481C83.9623 11.9076 86.7125 14.3041 90.0213 14.3041C93.3301 14.3041 96.0888 11.9076 96.5615 8.533H98.4265V6.41839Z" fill="#FECD00"/>
<g clip-path="url(#clip0_1277_4340)">
<path d="M4.37068 1.95312L9.87294 4.49059H0.234375V6.10799H10.2192L5.45767 8.29679H0.234375V9.92387H5.49614L10.9984 12.4517H14.6345L9.13225 9.92387H18.7612V8.29679H9.09377L13.8553 6.10799H18.7612V4.49059H13.509L8.00679 1.95312H4.37068Z" fill="#ED1C24"/>
</g>
<defs>
<clipPath id="clip0_1277_4340">
<rect width="18.5268" height="10.4985" fill="white" transform="translate(0.234375 1.95312)"/>
</clipPath>
</defs>
</svg>
