<svg width="77" height="14" viewBox="0 0 77 14" fill="none" xmlns="http://www.w3.org/2000/svg">
<path d="M67.8865 11.2426C65.8325 11.2426 64.1222 9.92102 63.6667 7.81522H72.0977C71.6508 9.92983 69.9319 11.2426 67.8779 11.2426M67.8865 2.34369C69.9061 2.34369 71.6078 4.00894 72.0805 5.69181H63.6839C64.1566 4.00013 65.8582 2.34369 67.8779 2.34369M76.2917 5.70062H74.4181C73.9111 2.74017 71.1781 0 67.8865 0C64.5949 0 61.8705 2.74017 61.3548 5.70062H59V7.81522H61.3462C61.8275 11.1898 64.5777 13.5863 67.8865 13.5863C71.1953 13.5863 73.9541 11.1898 74.4267 7.81522H76.2917V5.70062Z" fill="#68CCB2"/>
<path d="M28.9705 11.2426C26.9164 11.2426 25.2062 9.92102 24.7507 7.81522H33.1817C32.7348 9.92983 31.0159 11.2426 28.9619 11.2426M28.9705 2.34369C30.9901 2.34369 32.6918 4.00894 33.1645 5.69181H24.7679C25.2406 4.00013 26.9422 2.34369 28.9619 2.34369M37.3757 5.70062H35.5021C34.9951 2.74017 32.2621 0 28.9705 0C25.6789 0 22.9545 2.74017 22.4388 5.70062H20.084V7.81522H22.4302C22.9115 11.1898 25.6617 13.5863 28.9705 13.5863C32.2793 13.5863 35.038 11.1898 35.5107 7.81522H37.3757V5.70062Z" fill="black"/>
<path d="M48.7302 11.2426C46.6762 11.2426 44.9659 9.92102 44.5104 7.81522H52.9414C52.4945 9.92983 50.7757 11.2426 48.7216 11.2426M48.7302 2.34369C50.7499 2.34369 52.4516 4.00894 52.9242 5.69181H44.5276C45.0003 4.00013 46.702 2.34369 48.7216 2.34369M57.1354 5.70062H55.2619C54.7548 2.74017 52.0218 0 48.7302 0C45.4386 0 42.7142 2.74017 42.1986 5.70062H39.8438V7.81522H42.19C42.6713 11.1898 45.4214 13.5863 48.7302 13.5863C52.039 13.5863 54.7978 11.1898 55.2705 7.81522H57.1354V5.70062Z" fill="#118C86"/>
<path d="M8.88649 11.2426C6.83245 11.2426 5.12219 9.92102 4.6667 7.81522H13.0977C12.6508 9.92983 10.9319 11.2426 8.8779 11.2426M8.88649 2.34369C10.9061 2.34369 12.6078 4.00894 13.0805 5.69181H4.68388C5.15657 4.00013 6.85824 2.34369 8.8779 2.34369M17.2917 5.70062H15.4181C14.9111 2.74017 12.1781 0 8.88649 0C5.59488 0 2.87049 2.74017 2.35483 5.70062H0V7.81522H2.34624C2.82752 11.1898 5.57769 13.5863 8.88649 13.5863C12.1953 13.5863 14.9541 11.1898 15.4267 7.81522H17.2917V5.70062Z" fill="#E32119"/>
</svg>
