<svg width="74" height="97" viewBox="0 0 74 97" fill="none" xmlns="http://www.w3.org/2000/svg">
<path d="M62.6029 6.7666V40.7319H10.482V6.7666C4.53602 7.77204 0 12.9495 0 19.1843V65.8793C0 72.7151 5.449 78.2739 12.2386 78.4646V96.7878H20.2936V89.3915H52.7854V96.7878H60.8405V78.4646C67.6301 78.2739 73.0791 72.7151 73.0791 65.8793V19.1843C73.0791 12.9495 68.543 7.77204 62.5971 6.77238L62.6029 6.7666ZM10.3028 62.0021C10.3028 58.7604 12.932 56.1312 16.1737 56.1312C19.4153 56.1312 22.0445 58.7604 22.0445 62.0021C22.0445 65.2437 19.4153 67.8729 16.1737 67.8729C12.932 67.8729 10.3028 65.2437 10.3028 62.0021ZM20.2936 83.2087V78.4762H52.7854V83.2087H20.2936ZM56.9112 67.8729C53.6695 67.8729 51.0404 65.2437 51.0404 62.0021C51.0404 58.7604 53.6695 56.1312 56.9112 56.1312C60.1528 56.1312 62.782 58.7604 62.782 62.0021C62.782 65.2437 60.1528 67.8729 56.9112 67.8729Z" fill="#001D47"/>
<path d="M60.4865 6.58734C61.2088 6.58734 61.908 6.65091 62.5956 6.76647V0H10.4805V6.76647C11.1681 6.65091 11.8731 6.58734 12.5896 6.58734H60.4865Z" fill="#001D47"/>
</svg>
