<svg width="46" height="61" viewBox="0 0 46 61" fill="none" xmlns="http://www.w3.org/2000/svg">
<path d="M38.8876 4.64893V25.6245H6.69981V4.64893C3.02783 5.26984 0.226562 8.46722 0.226562 12.3176V41.1546C0.226562 45.3762 3.59165 48.809 7.78463 48.9268V60.2425H12.7591V55.6748H32.8248V60.2425H37.7992V48.9268C41.9922 48.809 45.3573 45.3762 45.3573 41.1546V12.3176C45.3573 8.46722 42.556 5.26984 38.8841 4.65249L38.8876 4.64893ZM6.58919 38.7602C6.58919 36.7582 8.21285 35.1346 10.2148 35.1346C12.2167 35.1346 13.8404 36.7582 13.8404 38.7602C13.8404 40.7621 12.2167 42.3858 10.2148 42.3858C8.21285 42.3858 6.58919 40.7621 6.58919 38.7602ZM12.7591 51.8565V48.9339H32.8248V51.8565H12.7591ZM35.3727 42.3858C33.3707 42.3858 31.7471 40.7621 31.7471 38.7602C31.7471 36.7582 33.3707 35.1346 35.3727 35.1346C37.3746 35.1346 38.9983 36.7582 38.9983 38.7602C38.9983 40.7621 37.3746 42.3858 35.3727 42.3858Z" fill="#004514"/>
<path d="M37.581 4.5383C38.027 4.5383 38.4588 4.57755 38.8835 4.64892V0.470215H6.69922V4.64892C7.12387 4.57755 7.55923 4.5383 8.00172 4.5383H37.581Z" fill="#004514"/>
</svg>
