<svg width="83" height="53" viewBox="0 0 83 53" fill="none" xmlns="http://www.w3.org/2000/svg">
<path d="M32.959 5.32031H21.3828V9.17903H32.959V5.32031Z" fill="#004514"/>
<path d="M77.1823 23.5851H70.5164H77.1899C74.1876 20.8035 70.1744 19.1011 65.7583 19.1011C63.9797 19.0973 62.2657 19.3747 60.6582 19.8877L65.4277 30.7138L67.5787 35.5892L64.0405 37.1472L61.289 30.9076L57.1314 21.4799C52.2289 24.4173 48.9453 29.779 48.9453 35.9122C48.9453 45.1993 56.4739 52.727 65.7621 52.727C67.4153 52.727 69.0114 52.4838 70.5202 52.043C77.4863 49.9911 82.5713 43.5501 82.5713 35.9198C82.5713 31.0482 80.4963 26.6631 77.1861 23.5927L77.1823 23.5851Z" fill="#004514"/>
<path d="M25.9162 21.6152L20.0314 34.3061L18.3294 33.5308L16.5172 32.7103L22.421 19.9065C20.7912 19.3871 19.0588 19.1011 17.2542 19.1011C8.04517 19.1011 0.576114 26.4326 0.446944 35.5218H0.435547C0.435547 35.597 0.439346 35.6723 0.443145 35.7476C0.443145 35.7476 0.443145 35.7551 0.443145 35.7589C0.572315 44.848 8.04138 52.1758 17.2466 52.1758C26.4519 52.1758 33.9247 44.8443 34.0501 35.7589H34.0615C34.0615 35.6836 34.0577 35.6083 34.0539 35.5331C34.0539 35.5331 34.0539 35.5255 34.0539 35.5218C33.9703 29.5715 30.7373 24.3777 25.9352 21.4985L25.8858 21.6039L25.9124 21.6152H25.9162Z" fill="#004514"/>
<path d="M60.5158 19.842H60.5196L52.348 0.994708L39.5987 0.910156L39.5723 4.82258L49.8284 4.88791L53.0062 12.217L54.0502 14.7458L54.7049 16.1332L56.9483 21.3062L60.4704 19.7305L60.5158 19.842Z" fill="#004514"/>
<path d="M25.9689 11.9389L22.4844 19.6828C23.7229 20.0906 24.897 20.633 25.9916 21.3062L28.4422 15.8589L55.0079 15.9397L53.3073 12.0197L25.9689 11.9351V11.9389Z" fill="#004514"/>
</svg>
