<svg width="61" height="101" viewBox="0 0 61 101" fill="none" xmlns="http://www.w3.org/2000/svg">
<path d="M4.6582 100.382H14.5108L21.6998 67.5235L12.4898 60.5103L4.6582 100.382Z" fill="#001D47"/>
<path d="M39.5697 46.1101C45.7042 51.0584 52.7834 53.8758 60.7797 53.7934V44.4735C53.2337 44.3692 46.2919 40.8543 41.772 34.8571C36.9665 28.4754 34.6544 18.3262 24.2141 21.4457L0 31.5894V53.7879H9.3089V38.0314L17.5194 34.879L13.4608 55.5399L30.3267 68.3691L30.2937 68.4076L32.5784 70.0881V100.371H41.8873V65.1563L32.3422 56.0506L35.0443 41.9966L39.5697 46.0992V46.1101Z" fill="#001D47"/>
<path d="M34.0959 18.7051C47.8752 19.7706 47.8148 -1.98865 33.0689 0.147725C23.1339 1.58662 23.2327 17.8648 34.0959 18.7051Z" fill="#001D47"/>
</svg>
