<svg width="39" height="62" viewBox="0 0 39 62" fill="none" xmlns="http://www.w3.org/2000/svg">
<path d="M3.60352 61.9919H9.6881L14.1277 41.6998L8.43998 37.3687L3.60352 61.9919Z" fill="#004514"/>
<path d="M25.1632 28.4756C28.9517 31.5315 33.3235 33.2714 38.2617 33.2205V27.4649C33.6016 27.4005 29.3146 25.2298 26.5233 21.5262C23.5556 17.5851 22.1277 11.3174 15.6803 13.2438L0.726562 19.5082V33.2171H6.47537V23.4865L11.5459 21.5397L9.03944 34.299L19.4551 42.2219L19.4348 42.2456L20.8457 43.2835V61.9849H26.5945V40.2378L20.6999 34.6145L22.3685 25.9353L25.1632 28.4688V28.4756Z" fill="#004514"/>
<path d="M21.7837 11.5515C30.2933 12.2095 30.256 -1.22811 21.1494 0.0912294C15.014 0.979836 15.075 11.0326 21.7837 11.5515Z" fill="#004514"/>
</svg>
