<svg width="179" height="41" viewBox="0 0 179 41" fill="none" xmlns="http://www.w3.org/2000/svg">
    <path d="M6.90149 40.3181V7.12693L0 8.87602V4.63671L8.98853 0.735352H12.6646V40.324H6.89556L6.90149 40.3181Z" fill="#fff"/>
    <path d="M35.8534 41.0002C32.3493 41.0002 29.3313 40.1404 26.8055 38.4269C24.2797 36.7134 22.3409 34.3181 20.9831 31.2468C19.6254 28.1755 18.9495 24.6002 18.9495 20.5329C18.9495 16.4655 19.6254 12.8902 20.9831 9.81896C22.3409 6.74768 24.2797 4.35232 26.8055 2.6388C29.3313 0.913432 32.3433 0.0537109 35.8534 0.0537109C39.3634 0.0537109 42.3635 0.913432 44.8715 2.62695C47.3796 4.34046 49.3006 6.73582 50.6406 9.8071C51.9805 12.8784 52.6505 16.4536 52.6505 20.521C52.6505 24.5884 51.9805 28.1636 50.6406 31.2349C49.3006 34.3062 47.3796 36.7016 44.8715 38.4151C42.3635 40.1286 39.3575 40.9883 35.8534 40.9883V41.0002ZM35.8534 35.9663C37.9641 35.9663 39.8614 35.3438 41.5394 34.0987C43.2173 32.8536 44.5277 31.0808 45.4704 28.7803C46.4131 26.4798 46.8874 23.7287 46.8874 20.521C46.8874 17.3134 46.4131 14.5622 45.4704 12.2618C44.5277 9.96126 43.2173 8.20031 41.5394 6.97298C39.8614 5.74566 37.9641 5.13496 35.8534 5.13496C33.7426 5.13496 31.7801 5.74566 30.0843 6.97298C28.3886 8.20031 27.0664 9.96126 26.1237 12.2618C25.181 14.5622 24.7066 17.3134 24.7066 20.521C24.7066 23.7287 25.181 26.4798 26.1237 28.7803C27.0664 31.0808 28.3827 32.8536 30.0843 34.0987C31.7801 35.3438 33.7011 35.9663 35.8534 35.9663Z" fill="#fff"/>
    <path d="M106.232 40.217L95.4883 0.634277H101.542L109.57 33.6061L118.79 0.634277H125.069L134.004 33.7187L142.144 0.634277H148.198L137.283 40.2229H130.666L121.79 8.72159L112.683 40.2229H106.238L106.232 40.217Z" fill="#fff"/>
    <path d="M92.346 0.634277H85.2726L69.6672 17.5975L67.0347 20.3426L67.2778 20.6154L67.26 20.6213L69.8036 23.5266L70.4795 24.3389L70.4973 24.3211L84.3773 40.1637H92.2215L74.2978 20.2003L92.346 0.634277Z" fill="#fff"/>
    <path d="M61.3367 26.426V40.2527H66.993V20.5146L61.3367 26.426Z" fill="#fff"/>
    <path d="M66.993 0.669922H61.3367V13.8029L66.993 20.2716V0.669922Z" fill="#fff"/>
    <path d="M67.1056 20.396L66.9929 20.2715V20.5146L67.1056 20.396Z" fill="#fff"/>
    <path d="M165.452 40.8279C162.559 40.8279 160.015 40.312 157.839 39.2744C155.657 38.2428 153.967 36.7842 152.764 34.9047C151.56 33.0252 150.961 30.8255 150.961 28.3056H156.884C156.92 29.7345 157.27 31.0389 157.928 32.2247C158.586 33.4105 159.547 34.3473 160.804 35.047C162.06 35.7407 163.614 36.0905 165.458 36.0905C167.035 36.0905 168.399 35.8296 169.549 35.3019C170.693 34.7742 171.571 34.0509 172.17 33.1319C172.768 32.2129 173.071 31.1516 173.071 29.9479C173.071 28.5546 172.751 27.4103 172.11 26.5091C171.47 25.6078 170.616 24.8667 169.543 24.2797C168.47 23.6987 167.231 23.1828 165.82 22.7263C164.408 22.2757 162.932 21.7895 161.39 21.2618C158.272 20.2479 155.948 18.9317 154.424 17.313C152.9 15.6944 152.141 13.5895 152.141 10.9985C152.141 8.78102 152.669 6.85405 153.718 5.21762C154.768 3.58118 156.244 2.30642 158.147 1.38148C160.045 0.462471 162.292 0 164.889 0C167.486 0 169.679 0.4684 171.6 1.41113C173.516 2.35386 175.022 3.6464 176.112 5.30063C177.203 6.95485 177.749 8.89367 177.749 11.1112H171.772C171.772 10.0973 171.511 9.10119 170.984 8.12288C170.456 7.14458 169.668 6.34415 168.612 5.72752C167.557 5.10497 166.264 4.79665 164.723 4.79665C163.442 4.76108 162.298 4.9686 161.284 5.41921C160.27 5.86982 159.481 6.52795 158.912 7.3936C158.349 8.25925 158.064 9.29092 158.064 10.4945C158.064 11.6981 158.319 12.6646 158.823 13.3998C159.333 14.135 160.074 14.7635 161.053 15.2912C162.031 15.8189 163.169 16.2991 164.462 16.732C165.76 17.1648 167.195 17.645 168.778 18.1727C170.735 18.8131 172.472 19.5898 173.996 20.5147C175.52 21.4337 176.723 22.6196 177.607 24.0663C178.49 25.513 178.935 27.3629 178.935 29.6218C178.935 31.5785 178.425 33.3987 177.411 35.0944C176.397 36.7842 174.891 38.1657 172.899 39.2389C170.907 40.312 168.422 40.8457 165.452 40.8457V40.8279Z" fill="#fff"/>
    </svg>
    