<svg width="189" height="55" viewBox="0 0 189 55" fill="none" xmlns="http://www.w3.org/2000/svg">
<g clip-path="url(#clip0_1312_222)">
<path d="M4.12582 24.503V4.3116L0 5.37705V2.79805L5.3763 0.423183H7.5738V24.503H4.12582Z" fill="#EFEDDF"/>
<path d="M21.4391 24.9162C19.3419 24.9162 17.5384 24.3959 16.0285 23.3504C14.5187 22.3073 13.3563 20.8511 12.5463 18.9815C11.7339 17.112 11.3276 14.9388 11.3276 12.4618C11.3276 9.9849 11.7339 7.81167 12.5463 5.94215C13.3587 4.07262 14.5187 2.61633 16.0285 1.57328C17.5384 0.532719 19.3419 0.00994873 21.4391 0.00994873C23.5363 0.00994873 25.3324 0.532719 26.8325 1.57577C28.3301 2.61882 29.4803 4.07511 30.2805 5.94464C31.0807 7.81416 31.482 9.98739 31.482 12.4643C31.482 14.9413 31.0807 17.1145 30.2805 18.984C29.4803 20.8535 28.3301 22.3098 26.8325 23.3529C25.3324 24.3959 23.5363 24.9187 21.4391 24.9187V24.9162ZM21.4391 21.8543C22.7018 21.8543 23.8348 21.4759 24.8381 20.7191C25.8414 19.9623 26.6245 18.8844 27.1873 17.4854C27.7502 16.0864 28.034 14.4135 28.034 12.4618C28.034 10.5102 27.7526 8.8373 27.1873 7.43826C26.6245 6.03923 25.839 4.96631 24.8381 4.22198C23.8348 3.47766 22.7018 3.10425 21.4391 3.10425C20.1764 3.10425 19.0042 3.47766 17.9911 4.22198C16.9756 4.96631 16.1876 6.03923 15.6248 7.43826C15.0619 8.8373 14.7781 10.5127 14.7781 12.4618C14.7781 14.411 15.0595 16.0864 15.6248 17.4854C16.1876 18.8844 16.978 19.9623 17.9911 20.7191C19.0067 21.4759 20.1544 21.8543 21.4391 21.8543Z" fill="#EFEDDF"/>
<path d="M43.1034 54.871L36.6772 30.7912H40.2965L45.0977 50.8457L50.6086 30.7912H54.3625L59.7045 50.9154L64.5743 30.7912H68.1936L61.6671 54.871H57.7101L52.3999 35.7103L46.9551 54.871H43.1009H43.1034Z" fill="#EFEDDF"/>
<path d="M70.8096 54.871V30.7912H74.1915V54.871H70.8096Z" fill="#EFEDDF"/>
<path d="M78.8629 54.871V30.7912H82.2448V52.1551H93.0659V54.8735H78.8629V54.871Z" fill="#EFEDDF"/>
<path d="M95.9536 54.871V30.7912H99.3355V52.1551H110.157V54.8735H95.9536V54.871Z" fill="#EFEDDF"/>
<path d="M113.044 54.871V30.7912H116.426V54.871H113.044Z" fill="#EFEDDF"/>
<path d="M119.069 54.871L127.761 30.7912H131.446L140.136 54.871H136.517L129.584 34.9186L122.617 54.871H119.067H119.069ZM122.992 48.9189L123.939 46.1657H135.063L136.01 48.9189H122.992Z" fill="#EFEDDF"/>
<path d="M142.747 54.871V30.7912H146.738L154.753 47.0618L162.733 30.7912H166.758V54.871H163.376V36.8106L156.037 51.5004H153.434L146.129 36.8454V54.871H142.747Z" fill="#EFEDDF"/>
<path d="M175.301 43.0663C174.43 43.0663 173.664 42.9069 173.008 42.5908C172.352 42.2746 171.841 41.829 171.479 41.2515C171.117 40.6765 170.935 40.0018 170.935 39.2301H172.719C172.732 39.6683 172.834 40.069 173.033 40.43C173.231 40.7935 173.52 41.0797 173.899 41.2938C174.278 41.5079 174.746 41.6125 175.301 41.6125C175.776 41.6125 176.187 41.5328 176.532 41.371C176.877 41.2092 177.141 40.9876 177.322 40.7063C177.503 40.425 177.594 40.0989 177.594 39.7305C177.594 39.3048 177.499 38.9538 177.305 38.6775C177.112 38.4012 176.855 38.1746 176.532 37.9954C176.209 37.8162 175.835 37.6593 175.411 37.5199C174.985 37.383 174.542 37.2311 174.078 37.0718C173.138 36.7607 172.438 36.3574 171.98 35.862C171.523 35.3666 171.293 34.7218 171.293 33.9277C171.293 33.2481 171.452 32.6581 171.767 32.1578C172.083 31.6574 172.528 31.2641 173.101 30.9828C173.674 30.7015 174.349 30.5596 175.13 30.5596C175.91 30.5596 176.574 30.704 177.151 30.9928C177.729 31.2815 178.181 31.6773 178.509 32.1852C178.837 32.693 179.001 33.2855 179.001 33.9651H177.2C177.2 33.6539 177.122 33.3502 176.963 33.049C176.804 32.7503 176.566 32.5038 176.248 32.3146C175.93 32.1254 175.541 32.0283 175.076 32.0283C174.692 32.0159 174.347 32.0806 174.041 32.2175C173.735 32.3544 173.498 32.5561 173.326 32.8225C173.157 33.0863 173.072 33.405 173.072 33.7734C173.072 34.1418 173.148 34.4381 173.302 34.6621C173.453 34.8861 173.679 35.0803 173.972 35.2421C174.266 35.4039 174.609 35.5508 175 35.6827C175.392 35.8147 175.825 35.9616 176.299 36.1234C176.889 36.32 177.413 36.559 177.871 36.8403C178.328 37.1216 178.69 37.4851 178.957 37.9282C179.224 38.3713 179.356 38.9389 179.356 39.6309C179.356 40.2309 179.204 40.7885 178.898 41.3063C178.592 41.8241 178.14 42.2473 177.54 42.5758C176.941 42.9044 176.192 43.0687 175.299 43.0687L175.301 43.0663Z" fill="#EFEDDF"/>
<path d="M183.768 42.8596V32.1826H180.252V30.7662H188.998V32.1826H185.464V42.8596H183.766H183.768Z" fill="#EFEDDF"/>
<path d="M58.0576 24.4931V0.413258H61.4395V24.4931H58.0576Z" fill="#EFEDDF"/>
<path d="M66.1111 24.4931V0.413258H69.493L81.5646 18.887V0.413258H84.9465V24.4931H81.5646L69.493 6.0542V24.4931H66.1111Z" fill="#EFEDDF"/>
<path d="M99.7613 24.9064C97.5295 24.9064 95.5792 24.3911 93.9102 23.358C92.2413 22.3249 90.9468 20.881 90.0218 19.024C89.0968 17.1669 88.6343 14.9986 88.6343 12.5217C88.6343 10.0447 89.1017 7.90139 90.0365 6.01942C90.9713 4.13994 92.3147 2.66622 94.062 1.59828C95.8092 0.532822 97.877 -0.00239563 100.268 -0.00239563C102.95 -0.00239563 105.194 0.657291 106.997 1.97666C108.801 3.29604 109.961 5.12324 110.48 7.46326H106.625C106.288 6.13393 105.578 5.08341 104.494 4.31668C103.412 3.54995 101.991 3.1641 100.234 3.1641C98.4765 3.1641 97.116 3.54248 95.8875 4.29926C94.6591 5.05603 93.7169 6.13393 93.0635 7.53296C92.4102 8.932 92.0823 10.5949 92.0823 12.5217C92.0823 14.4485 92.4077 16.1462 93.0635 17.5453C93.7169 18.9443 94.6419 20.0097 95.8361 20.7441C97.0303 21.4785 98.4056 21.8444 99.9619 21.8444C102.35 21.8444 104.149 21.1449 105.355 19.7459C106.562 18.3468 107.267 16.4773 107.47 14.1398H100.943V11.4911H110.886V24.4931H107.807L107.504 20.8113C106.963 21.705 106.337 22.4568 105.627 23.0642C104.917 23.6716 104.088 24.1297 103.141 24.4408C102.194 24.7495 101.066 24.9064 99.7588 24.9064H99.7613Z" fill="#EFEDDF"/>
<path d="M55.219 0.361092H50.9928L41.6596 10.6821L40.0861 12.35L40.2304 12.5167L40.2207 12.5192L41.7403 14.2867L42.1441 14.7846L42.1563 14.7696L50.4545 24.4085H55.148L44.4272 12.2653L55.219 0.361092Z" fill="#EFEDDF"/>
<path d="M36.6772 16.0515V24.4631H40.0591V12.4543L36.6772 16.0515Z" fill="#EFEDDF"/>
<path d="M40.0591 0.383419H36.6772V8.37185L40.0591 12.3051V0.383419Z" fill="#EFEDDF"/>
<path d="M40.1254 12.3848L40.0592 12.3051V12.4545L40.1254 12.3848Z" fill="#EFEDDF"/>
</g>
<defs>
<clipPath id="clip0_1312_222">
<rect width="189" height="54.871" fill="white"/>
</clipPath>
</defs>
</svg>
