<svg width="393" height="1310" viewBox="0 0 393 1310" fill="none" xmlns="http://www.w3.org/2000/svg">
<g clip-path="url(#clip0_1960_3956)">
<rect width="393" height="1310" fill="white"/>
<mask id="mask0_1960_3956" style="mask-type:luminance" maskUnits="userSpaceOnUse" x="-28" y="-20" width="842" height="1497">
<path d="M813.5 1476.93L813.5 -19.9326L-27.5 -19.9327L-27.5001 1476.93L813.5 1476.93Z" fill="white"/>
</mask>
<g mask="url(#mask0_1960_3956)">
<path d="M1408.54 2250.48L1408.54 -244.384L15.9606 -244.384L15.9605 2250.48L1408.54 2250.48Z" stroke="black" stroke-miterlimit="10"/>
<path d="M-28.3032 479.463L143.148 428.862C108.362 323.888 96.0129 209.652 111.102 92.6368C127.379 -33.5317 173.719 -148.439 241.94 -245.896L-171.838 -238.232L-134.374 1783.37L292.108 1598.21L-28.3032 479.447L-28.3032 479.463Z" fill="#004514"/>
<path d="M628.356 285.675L818.424 229.588L808.699 -295.107L1441.96 -306.839C1323.83 -443.952 1156.68 -539.68 963.062 -564.648C672.458 -602.128 399.081 -470.371 241.94 -245.889C173.719 -148.432 127.379 -33.5241 111.102 92.6445C96.0128 209.659 108.362 323.896 143.148 428.87L628.349 285.683L628.356 285.675Z" fill="#42AD56"/>
<path d="M649.798 1442.93L839.378 1360.62L831.768 950.084C810.76 949.119 789.62 947.337 768.387 944.597C724.131 938.885 681.264 929.446 640.042 916.696C402.061 843.095 219.102 658.06 143.148 428.862L-28.3032 479.462L292.108 1598.22L649.798 1442.93Z" fill="#42AD56"/>
<path d="M818.424 229.588L628.357 285.676L143.156 428.863C219.11 658.061 402.069 843.096 640.05 916.696C681.272 929.446 724.139 938.886 768.395 944.597C789.628 947.337 810.76 949.12 831.776 950.085L818.424 229.588Z" fill="#004514"/>
</g>
</g>
<defs>
<clipPath id="clip0_1960_3956">
<rect width="393" height="1310" fill="white"/>
</clipPath>
</defs>
</svg>
