<svg width="393" height="1310" viewBox="0 0 393 1310" fill="none" xmlns="http://www.w3.org/2000/svg">
<g clip-path="url(#clip0_1960_3967)">
<rect width="393" height="1310" fill="white"/>
<mask id="mask0_1960_3967" style="mask-type:luminance" maskUnits="userSpaceOnUse" x="-384" y="-50" width="842" height="1497">
<path d="M-383.067 -49.9323L-383.067 1446.93L457.933 1446.93L457.933 -49.9322L-383.067 -49.9323Z" fill="white"/>
</mask>
<g mask="url(#mask0_1960_3967)">
<path d="M-978.105 -823.484L-978.105 1671.38L414.472 1671.38L414.472 -823.484L-978.105 -823.484Z" stroke="black" stroke-miterlimit="10"/>
<path d="M458.735 947.537L287.284 998.138C322.07 1103.11 334.419 1217.35 319.33 1334.36C303.053 1460.53 256.713 1575.44 188.492 1672.9L602.27 1665.23L564.806 -356.374L138.324 -171.208L458.735 947.553L458.735 947.537Z" fill="#771212"/>
<path d="M-197.925 1141.32L-387.992 1197.41L-378.267 1722.11L-1011.53 1733.84C-893.399 1870.95 -726.247 1966.68 -532.63 1991.65C-242.026 2029.13 31.3503 1897.37 188.492 1672.89C256.712 1575.43 303.052 1460.52 319.33 1334.36C334.419 1217.34 322.07 1103.1 287.284 998.13L-197.917 1141.32L-197.925 1141.32Z" fill="#E4363F"/>
<path d="M-219.365 -15.9265L-408.946 66.3799L-401.336 476.916C-380.327 477.881 -359.187 479.663 -337.955 482.403C-293.699 488.115 -250.832 497.554 -209.61 510.304C28.3716 583.905 211.33 768.94 287.284 998.138L458.735 947.537L138.324 -171.223L-219.365 -15.9265Z" fill="#E4363F"/>
<path d="M-387.992 1197.41L-197.925 1141.32L287.276 998.137C211.322 768.939 28.3636 583.904 -209.618 510.304C-250.84 497.554 -293.707 488.114 -337.963 482.403C-359.195 479.663 -380.328 477.88 -401.344 476.915L-387.992 1197.41Z" fill="#771212"/>
</g>
</g>
<defs>
<clipPath id="clip0_1960_3967">
<rect width="393" height="1310" fill="white"/>
</clipPath>
</defs>
</svg>
