<svg width="393" height="1310" viewBox="0 0 393 1310" fill="none" xmlns="http://www.w3.org/2000/svg">
<g clip-path="url(#clip0_1960_3850)">
<rect width="393" height="1310" fill="white"/>
<g clip-path="url(#clip1_1960_3850)">
<path d="M89.5177 319.989L664.426 226.955L739.992 674.363L925.494 563.073L925.494 -22.7754L-37.1701 -22.7754L-37.1702 1140.61L203.701 996.1L89.5177 319.989Z" fill="#567BD7"/>
<path d="M924.31 563.073L739.418 673.97L852.109 1341.04L279.108 1433.75L204.911 994.556L-35.1658 1138.54L-35.1659 1657.18L924.31 1657.18L924.31 563.073Z" fill="#001D47"/>
<path d="M278.145 1436.87L853.054 1343.84L739.992 674.363L203.701 996.1L278.145 1436.87Z" fill="#567BD7"/>
<path d="M203.701 996.099L739.992 674.363L664.426 226.954L228.966 297.417L123.481 521.13L203.701 996.099Z" fill="#001D47"/>
<path d="M89.5179 319.989L228.966 297.417L380.072 -23.0459L-37.17 -22.7755L-37.5762 862.718L123.482 521.13L89.5179 319.989Z" fill="#001D47"/>
<path d="M123.481 521.13L228.966 297.417L89.5177 319.989L123.481 521.13Z" fill="#567BD7"/>
</g>
</g>
<defs>
<clipPath id="clip0_1960_3850">
<rect width="393" height="1310" fill="white"/>
</clipPath>
<clipPath id="clip1_1960_3850">
<rect width="1633" height="936" fill="white" transform="translate(913 -59) rotate(90)"/>
</clipPath>
</defs>
</svg>
