<svg width="277" height="43" viewBox="0 0 277 43" fill="none" xmlns="http://www.w3.org/2000/svg">
    <path fill-rule="evenodd" clip-rule="evenodd" d="M131.852 40.5036H139.47V2.3584H131.852V40.5036Z" fill="#fff"/>
    <path fill-rule="evenodd" clip-rule="evenodd" d="M91.5486 2.3584H99.1661V33.9842H118.279V40.6423H91.5486V2.3584Z" fill="#fff"/>
    <path fill-rule="evenodd" clip-rule="evenodd" d="M49.0291 2.3584H77.4216V8.87775H56.6466V17.7552H75.8981V24.2745H56.6466V33.9842H77.5601V40.5036H49.0291V2.3584Z" fill="#fff"/>
    <path fill-rule="evenodd" clip-rule="evenodd" d="M227.833 37.5906L228.941 40.6422H237.251L234.342 33.1519L227.971 37.5906H227.833Z" fill="#fff"/>
    <path fill-rule="evenodd" clip-rule="evenodd" d="M212.736 24.1358L217.861 9.43259H218.138L223.262 24.1358H212.736ZM225.478 30.5165H233.373L222.431 2.3584H213.567L198.748 40.5036H207.058L210.52 30.5165H225.478Z" fill="#fff"/>
    <path fill-rule="evenodd" clip-rule="evenodd" d="M153.458 21.5001C153.458 9.15495 161.214 1.38721 172.294 1.38721C183.374 1.38721 187.668 7.0743 189.468 14.9808H181.296C180.05 11.0969 177.142 8.04527 172.294 8.04527C164.815 8.04527 161.214 14.5646 161.214 21.5001C161.214 28.4356 164.815 35.0937 172.294 35.0937C179.773 35.0937 181.158 30.7937 181.851 25.8001H189.884C188.776 34.8162 182.682 41.7517 172.294 41.7517C161.907 41.7517 153.458 33.8453 153.458 21.6388" fill="#fff"/>
    <path fill-rule="evenodd" clip-rule="evenodd" d="M249.023 2.3584V40.5036H275.754V33.8455H256.641V2.3584H249.023Z" fill="#fff"/>
    <path d="M26.4535 31.7642V40.5029H34.071V26.3545L26.4535 31.7642Z" fill="#fff"/>
    <path d="M26.4535 2.35791V17.616H8.86396H1.24646V40.5031H8.86396V24.4128H26.4535H34.071V2.35791H26.4535Z" fill="#fff"/>
    <path d="M8.86396 10.5418V2.35791H1.24646V15.9515L8.86396 10.5418Z" fill="#fff"/>
    </svg>
    