<svg width="156" height="70" viewBox="0 0 156 70" fill="none" xmlns="http://www.w3.org/2000/svg">
    <g clip-path="url(#clip0_1255_760)">
    <path d="M94.5578 13.8887H76.9203V15.5097C77.7675 15.5929 78.4556 15.6811 79.0212 15.8109C79.6873 15.9627 80.1794 16.1684 80.5418 16.4769C81.5947 17.3755 81.5727 19.0553 81.5727 22.0989V42.5279C81.5678 46.6857 81.9449 52.5722 76.0559 52.4938C73.5314 52.4596 70.9383 50.6623 70.1327 47.3762H68.1052C68.9622 52.8832 71.8957 56.6198 79.0041 56.6198H79.0359C85.0743 56.6198 90.4637 53.8455 90.4539 44.4158V22.0989C90.4539 19.0553 90.4319 17.4441 91.4848 16.5454C92.1581 15.97 92.7164 15.6884 94.5554 15.5072V13.8862L94.5578 13.8887Z" fill="#fff"/>
    <path d="M114.788 13.8911H97.1504V15.5121C98.9918 15.6909 99.5476 15.9749 100.221 16.5503C101.066 17.2702 101.218 18.4505 101.247 20.4559C101.247 21.0632 101.24 21.7414 101.252 22.4981V46.933C101.24 47.6896 101.245 48.3679 101.247 48.9751C101.218 50.9806 101.066 52.1584 100.221 52.8783C99.5476 53.4537 98.9918 53.7353 97.1504 53.9165V55.5375H114.788H114.859H123.799L126.61 47.3811H124.541C122.491 51.8621 119.325 52.3861 116.436 52.3861C114.073 52.3861 112.501 52.2539 111.387 51.5315C110.488 50.9561 110.15 49.4379 110.135 46.8644V22.1014C110.135 19.0577 110.113 17.378 111.166 16.4793C111.84 15.9039 112.947 15.6909 114.788 15.5097V13.8887V13.8911Z" fill="#fff"/>
    <path d="M144.176 13.8911H126.539V15.5121C128.38 15.6909 128.936 15.9749 129.609 16.5503C130.454 17.2702 130.606 18.4505 130.633 20.4559C130.633 21.0632 130.625 21.7414 130.64 22.4981V46.933C130.628 47.6896 130.633 48.3679 130.633 48.9751C130.606 50.9806 130.451 52.1584 129.609 52.8783C128.936 53.4537 128.38 53.7353 126.539 53.9165V55.5375H144.176H144.247H153.189L156.001 47.3811H153.931C151.882 51.8621 148.716 52.3861 145.826 52.3861C143.464 52.3861 141.891 52.2539 140.777 51.5315C139.879 50.9561 139.543 49.4379 139.526 46.8644V22.1014C139.526 19.0577 139.504 17.378 140.557 16.4793C141.23 15.9039 142.337 15.6909 144.179 15.5097V13.8887L144.176 13.8911Z" fill="#fff"/>
    <path d="M25.8932 68.0992C26.7184 67.7197 27.502 67.2594 28.239 66.75C28.3982 66.6398 28.5598 66.537 28.7116 66.4219C29.6494 65.7192 30.5089 64.9283 31.3121 64.0786C32.3674 62.9644 33.3126 61.7426 34.1574 60.4546C34.8283 59.4311 35.4429 58.3733 35.9963 57.2934C38.1633 53.0499 39.5468 48.329 40.2618 43.7059C40.7271 40.6941 40.9401 37.675 40.9352 34.7072C40.9376 31.7395 40.7246 28.7203 40.2594 25.7085C39.5444 21.0855 38.1609 16.3645 35.9938 12.121C35.7416 11.6288 35.4747 11.1416 35.2005 10.6567C34.0447 12.7724 33.1045 14.9933 32.3356 17.2778C33.7411 21.4552 34.5565 25.8407 34.8577 30.2262C34.9605 31.7125 34.9997 33.2087 34.9997 34.7072H34.9948C34.9948 36.2058 34.9581 37.7043 34.8552 39.1882C34.4855 44.5434 33.364 49.901 31.3096 54.8693C30.5114 56.8012 29.5662 58.6671 28.4643 60.4546C28.2072 60.8733 27.9672 61.3018 27.6905 61.7107C27.1322 62.5408 26.5274 63.3562 25.8859 64.1496C25.1537 65.0556 24.3726 65.9322 23.5376 66.75C22.6488 67.6193 21.7012 68.4224 20.6997 69.1399C20.6189 69.1962 20.543 69.2599 20.4622 69.3162V69.4093C22.3231 69.3627 24.1792 68.8852 25.8859 68.0992H25.8932Z" fill="#fff"/>
    <path d="M36.7343 68.0992C37.5595 67.7196 38.343 67.2593 39.0825 66.75C39.2392 66.6398 39.4033 66.537 39.5575 66.4219C42.704 64.0663 45.067 60.768 46.8422 57.2934C49.0093 53.0499 50.3927 48.3289 51.1077 43.7059C51.573 40.6941 51.786 37.6749 51.7811 34.7072C51.7836 31.7394 51.5705 28.7203 51.1053 25.7084C50.3903 21.0854 49.0068 16.3645 46.8398 12.121C45.2016 8.91082 43.0517 5.86227 40.2554 3.55811C39.3567 4.52042 38.5242 5.5415 37.7578 6.58951C38.0247 6.95681 38.2867 7.329 38.5389 7.70119C43.0101 14.3443 45.1576 22.2999 45.7036 30.2262C45.8064 31.7125 45.8554 33.2086 45.8554 34.7072C45.8554 36.2057 45.8064 37.7018 45.7036 39.1882C45.1551 47.1144 43.0101 55.07 38.5389 61.7107C37.9806 62.5408 37.3758 63.3562 36.7343 64.1495C36.0021 65.0555 35.2235 65.9321 34.3885 66.75C33.4996 67.6193 32.552 68.4224 31.5505 69.1399C31.4697 69.1962 31.3938 69.2598 31.313 69.3162V69.4092C33.1739 69.3627 35.03 68.8852 36.7343 68.0992Z" fill="#fff"/>
    <path d="M50.3998 66.4216C53.5463 64.066 55.9092 60.7677 57.6845 57.2931C59.8515 53.0496 61.235 48.3262 61.95 43.7032C62.4153 40.6914 62.6283 37.6722 62.6234 34.7045C62.6258 31.7367 62.4128 28.7176 61.9476 25.7058C61.2326 21.0827 59.8491 16.3618 57.6821 12.1183C55.9068 8.64368 53.5463 5.34537 50.3974 2.98978C48.054 1.23166 45.1108 0.073459 42.1577 0V0.0930481C45.03 2.09358 47.4566 4.83605 49.3836 7.6985C53.8548 14.3392 56.0023 22.2973 56.5483 30.2235C56.6487 31.7098 56.6977 33.2059 56.7002 34.7045C56.7002 36.203 56.6487 37.6992 56.5483 39.1855C55.9998 47.1117 53.8548 55.0673 49.3812 61.708C47.4566 64.5705 45.0275 67.3129 42.1553 69.3135V69.4065C45.1059 69.3331 48.0516 68.1749 50.3974 66.4167L50.3998 66.4216Z" fill="#fff"/>
    <path d="M36.7346 1.31003C35.9094 1.68956 35.1259 2.14991 34.3864 2.65922C34.2272 2.76941 34.0656 2.8747 33.9138 2.98734C32.976 3.68765 32.1165 4.48101 31.3133 5.33068C30.258 6.44481 29.3128 7.66668 28.468 8.95466C27.7971 9.97819 27.1825 11.036 26.6291 12.1158C24.4621 16.3593 23.0786 21.0803 22.3636 25.7033C21.8983 28.7151 21.6853 31.7343 21.6878 34.702C21.6853 37.6698 21.8983 40.689 22.3636 43.7008C23.0761 48.3238 24.4621 53.0448 26.6291 57.2882C26.8813 57.7804 27.1482 58.2677 27.4225 58.7501C28.5782 56.6345 29.5185 54.4135 30.2874 52.129C28.8819 47.9516 28.0665 43.5661 27.7653 39.1806C27.6624 37.6943 27.6233 36.1982 27.6208 34.6996H27.6257C27.6257 33.201 27.6624 31.7025 27.7653 30.2186C28.135 24.8634 29.2565 19.5058 31.3109 14.5375C32.1091 12.6056 33.0543 10.7397 34.1562 8.95221C34.4133 8.5335 34.6533 8.10498 34.93 7.69606C35.4883 6.86598 36.0931 6.05058 36.7346 5.25722C37.4668 4.35123 38.2479 3.47462 39.0829 2.65677C39.9717 1.78751 40.9193 0.984358 41.9208 0.266908C42.0016 0.21059 42.0775 0.146925 42.1583 0.0906067V-0.00244141C40.2974 0.0440826 38.4413 0.521566 36.7371 1.30758L36.7346 1.31003Z" fill="#fff"/>
    <path d="M25.8914 1.31002C25.0662 1.68956 24.2827 2.1499 23.5432 2.65922C23.3865 2.7694 23.2224 2.8747 23.0706 2.98733C19.9241 5.34292 17.5612 8.64123 15.7859 12.1158C13.6189 16.3593 12.2354 21.0803 11.5204 25.7033C11.0551 28.7151 10.8421 31.7343 10.847 34.702C10.8446 37.6698 11.0576 40.6889 11.5228 43.7008C12.2378 48.3238 13.6213 53.0447 15.7884 57.2882C17.4265 60.4984 19.5764 63.5469 22.3727 65.8511C23.2714 64.8888 24.1039 63.8677 24.8703 62.8197C24.6034 62.4524 24.3414 62.0802 24.0892 61.708C19.618 55.0673 17.4706 47.1117 16.9245 39.183C16.8217 37.6967 16.7727 36.2006 16.7727 34.702C16.7727 33.2035 16.8217 31.7074 16.9245 30.221C17.473 22.2948 19.618 14.3392 24.0892 7.6985C24.6475 6.86842 25.2523 6.05302 25.8939 5.25966C26.626 4.35367 27.4047 3.47706 28.2421 2.65922C29.131 1.78995 30.0786 0.986799 31.0801 0.26935C31.1609 0.213031 31.2368 0.149367 31.3176 0.0930481V0C29.4566 0.046524 27.6006 0.524008 25.8963 1.31002H25.8914Z" fill="#fff"/>
    <path d="M12.226 2.99026C9.07955 5.34585 6.71662 8.64416 4.94136 12.1188C2.77432 16.3623 1.39084 21.0832 0.675844 25.7062C0.210603 28.7181 2.08623e-05 31.7372 2.08623e-05 34.705C-0.00242777 37.6727 0.210603 40.6919 0.675844 43.7037C1.39084 48.3267 2.77432 53.0477 4.94136 57.2912C6.71662 60.7658 9.0771 64.0641 12.226 66.4197C14.5718 68.1778 17.5151 69.336 20.4681 69.4094V69.3164C17.5959 67.3159 15.1693 64.5734 13.2422 61.7109C8.77103 55.0703 6.62357 47.1122 6.07753 39.186C5.97469 37.6996 5.92816 36.2035 5.92571 34.705C5.92571 33.2064 5.97469 31.7103 6.07753 30.224C6.62602 22.2977 8.77103 14.3421 13.2447 7.70143C15.1693 4.83898 17.5983 2.09651 20.4706 0.0959778V0.00292969C17.5175 0.0763887 14.5743 1.23459 12.2285 2.99271L12.226 2.99026Z" fill="#fff"/>
    <path d="M33.2163 65.8563C34.1149 64.894 34.9475 63.8729 35.7139 62.8249C35.4446 62.4576 35.185 62.0854 34.9352 61.7132C34.661 61.3043 34.4186 60.8757 34.1615 60.457C33.3167 61.745 32.3715 62.9669 31.3162 64.081C31.9136 64.7128 32.5478 65.3053 33.2188 65.8587" fill="white"/>
    <path d="M39.0826 66.75C38.3456 67.2618 37.5596 67.7197 36.7344 68.0992C38.4411 68.8852 40.2947 69.3627 42.1556 69.4092V69.3137C41.066 68.5547 40.04 67.6878 39.0802 66.7476" fill="white"/>
    <path d="M30.2903 69.3382C30.5842 69.3064 30.8756 69.2599 31.1669 69.206C30.8707 68.9954 30.5768 68.7799 30.2903 68.5547C29.5753 67.9915 28.8922 67.3867 28.2384 66.7476C27.5013 67.2593 26.7153 67.7172 25.8901 68.0968C27.0116 68.6134 28.2016 68.9881 29.4113 69.2035C29.7027 69.255 29.994 69.3039 30.2879 69.3358M31.3139 69.4117V69.3162C31.2649 69.2819 31.2159 69.2427 31.1669 69.2084C30.8756 69.2599 30.5842 69.3088 30.2903 69.3407C30.6307 69.3774 30.9711 69.4043 31.3139 69.4117Z" fill="white"/>
    <path d="M29.4109 3.55567C28.5123 4.51798 27.6797 5.53906 26.9158 6.58708C27.1827 6.95437 27.4447 7.32657 27.6944 7.69876C27.9687 8.10768 28.2111 8.53619 28.4682 8.95491C29.313 7.66693 30.2582 6.44506 31.3135 5.33093C30.7161 4.69918 30.0819 4.10661 29.4109 3.55322" fill="white"/>
    <path d="M23.5437 2.65922C24.2808 2.1499 25.0668 1.68956 25.892 1.31002C24.1853 0.524008 22.3292 0.046524 20.4707 0V0.0930481C21.5603 0.852124 22.5863 1.71894 23.5462 2.65922" fill="white"/>
    <path d="M36.736 1.31002C35.6145 0.793357 34.4245 0.418716 33.2148 0.203237C32.9234 0.151815 32.6321 0.102843 32.3382 0.0710104C31.9979 0.0342809 31.6575 0.0073459 31.3147 0V0.0930481C31.3637 0.127329 31.4126 0.166507 31.4616 0.203237C31.7579 0.413819 32.0517 0.629299 32.3382 0.854573C33.0532 1.41531 33.7364 2.02257 34.3902 2.66167C35.1272 2.1499 35.9132 1.69201 36.7384 1.31247" fill="white"/>
    <path d="M151.548 13.7612C151.969 13.7612 152.373 13.8665 152.763 14.0771C153.15 14.2877 153.456 14.5913 153.676 14.9831C153.896 15.3773 154.009 15.7887 154.009 16.2197C154.009 16.6506 153.901 17.0546 153.683 17.444C153.466 17.8333 153.164 18.1345 152.775 18.3524C152.386 18.5703 151.979 18.6781 151.551 18.6781C151.122 18.6781 150.716 18.5703 150.326 18.3524C149.937 18.1345 149.636 17.8333 149.418 17.444C149.2 17.0546 149.092 16.6482 149.092 16.2197C149.092 15.7911 149.202 15.3773 149.425 14.9831C149.648 14.5889 149.952 14.2877 150.339 14.0771C150.726 13.8665 151.13 13.7612 151.551 13.7612H151.548ZM151.551 14.2436C151.213 14.2436 150.89 14.3269 150.579 14.4983C150.268 14.6697 150.023 14.9096 149.844 15.228C149.665 15.5438 149.575 15.8768 149.575 16.2221C149.575 16.5674 149.663 16.8955 149.837 17.2065C150.011 17.5199 150.255 17.7623 150.566 17.9386C150.88 18.1149 151.205 18.2006 151.548 18.2006C151.891 18.2006 152.222 18.1125 152.533 17.9386C152.844 17.7623 153.088 17.5199 153.262 17.2065C153.439 16.893 153.527 16.5649 153.527 16.2221C153.527 15.8793 153.436 15.5438 153.26 15.228C153.081 14.9121 152.836 14.6672 152.525 14.4983C152.214 14.3293 151.889 14.2436 151.551 14.2436ZM150.437 17.5346V14.9243H150.965C151.463 14.9243 151.739 14.9243 151.8 14.9317C151.977 14.9464 152.111 14.9806 152.209 15.037C152.307 15.0908 152.388 15.1741 152.454 15.2867C152.52 15.3994 152.552 15.5242 152.552 15.6614C152.552 15.8499 152.491 16.0115 152.369 16.1438C152.246 16.2784 152.072 16.3592 151.849 16.3935C151.928 16.4229 151.989 16.4572 152.033 16.4915C152.075 16.5257 152.133 16.5943 152.209 16.6922C152.229 16.7167 152.293 16.8245 152.403 17.0106L152.711 17.537H152.058L151.84 17.1134C151.693 16.8294 151.57 16.6506 151.475 16.5747C151.379 16.5013 151.257 16.4645 151.11 16.4645H150.973V17.537H150.444L150.437 17.5346ZM150.965 16.0532H151.181C151.487 16.0532 151.676 16.0409 151.751 16.0189C151.825 15.9944 151.884 15.9552 151.925 15.8964C151.967 15.8377 151.989 15.7716 151.989 15.6957C151.989 15.6197 151.967 15.5585 151.928 15.5022C151.886 15.4459 151.827 15.4043 151.749 15.3798C151.673 15.3553 151.482 15.343 151.181 15.343H150.965V16.0556V16.0532Z" fill="#fff"/>
    </g>
    <defs>
    <clipPath id="clip0_1255_760">
    <rect width="156" height="69.4114" fill="white"/>
    </clipPath>
    </defs>
    </svg>
    