<svg width="164" height="61" viewBox="0 0 164 61" fill="none" xmlns="http://www.w3.org/2000/svg">
<g clip-path="url(#clip0_1255_742)">
<path d="M127.225 9.68898C126.334 8.70032 124.838 7.76659 123.044 7.76659C117.267 7.76659 115.363 12.9296 115.363 17.785C115.363 22.3108 117.344 26.7927 122.791 26.7927C124.287 26.7927 126.037 25.9359 126.587 24.9912V26.562C126.587 29.3742 126.356 30.7144 122.714 30.7144C120.964 30.7144 118.917 30.0772 117.113 29.1435L115.924 32.5049C118.279 33.6694 120.513 34.3724 122.967 34.3724C124.871 34.3724 127.555 34.0648 129.272 32.5708C131.099 31.0769 131.176 28.4185 131.176 25.837L131.198 7.70068L127.577 8.28289C127.577 8.28289 127.302 9.27155 127.225 9.67799V9.68898ZM126.598 19.1801C126.598 20.0369 126.521 20.9047 126.191 21.6078C125.784 22.4646 125.003 23.0248 123.99 23.0248C121.074 23.0248 120.744 21.0036 120.744 17.1588C120.744 13.7205 121.382 11.6992 123.913 11.6992C125.179 11.6992 126.114 12.3364 126.598 12.8637V19.191V19.1801Z" fill="#EFEDDF"/>
<path d="M109.333 53.9914L109.355 47.7409C109.355 45.8186 109.278 45.2364 109.025 44.4564C108.321 42.4352 106.186 41.2378 103.017 41.2378C101.267 41.2378 99.6936 41.5454 97.867 42.3253C96.8546 42.7537 95.8643 43.314 94.929 43.8632L96.7336 47.0489C98.9673 45.6538 100.717 45.1045 102.279 45.1045C104.106 45.1045 104.535 45.9174 104.535 47.9387V48.6417H103.391C97.4598 48.6417 94.4668 50.663 94.4668 54.9691C94.4668 58.3086 96.2934 60.3847 99.7926 60.7143H101.773C102.885 60.5825 103.831 60.2309 104.59 59.7476C104.997 59.5169 105.372 59.1105 105.779 58.715C106.186 59.495 106.945 60.231 107.803 60.7143L108.387 60.9889L108.64 60.7143L111.148 58.0339C109.498 56.7926 109.322 55.8809 109.322 53.9805L109.333 53.9914ZM101.861 57.276C100.596 57.276 99.7376 56.2653 99.7376 54.8483C99.7376 52.6513 100.849 51.8384 104.249 51.8384H104.524V56.1445C103.787 56.9244 102.797 57.287 101.861 57.287V57.276Z" fill="#EFEDDF"/>
<path d="M19.6967 1.49414H0V21.0036L9.91439 30.8462L29.6221 11.3367L19.6967 1.49414Z" fill="#EFEDDF"/>
<path d="M0 40.6888V60.2202H19.6967L29.6221 50.3776L9.91439 30.8462L0 40.6888Z" fill="#EFEDDF"/>
<path d="M39.5374 60.2202H59.1241V40.535L49.3418 30.8462L29.623 50.3776L39.5374 60.2202Z" fill="#EFEDDF"/>
<path d="M29.623 11.3367L49.3418 30.8462L59.1241 21.1464V1.49414H39.5374L29.623 11.3367Z" fill="#EFEDDF"/>
<path d="M163.362 23.2552C162.503 23.4859 162.096 23.6617 161.634 23.6617C159.962 23.6617 159.51 23.0245 159.51 20.6737V11.4353H162.58L163.846 8.07387H159.51V2.98779L154.691 3.76773V8.07387H152.787V11.4353H154.691V21.4537C154.691 23.1783 154.691 23.4749 154.999 24.2878C155.56 25.9356 157.53 27.0231 159.962 27.0231C161.227 27.0231 162.569 26.7155 163.989 26.1663L163.351 23.2552H163.362Z" fill="#EFEDDF"/>
<path d="M73.7476 13.4569L81.3842 26.5401H87.8214L79.0734 13.0834L86.9521 1.49414H80.9441L73.7476 12.9296V1.49414H68.6309V26.5401H73.7476V13.4569Z" fill="#EFEDDF"/>
<path d="M97.3943 11.8201C98.7368 11.8201 99.1219 12.6769 99.1219 14.7751V26.5181H103.865V13.0834C103.865 11.897 103.788 11.139 103.556 10.425C102.995 8.85412 101.103 7.7666 99.0449 7.7666C97.9335 7.7666 96.6901 7.99729 95.7218 8.54654C94.9405 8.95299 94.1482 9.55717 93.598 10.2712L93.2899 7.82153L89.1855 8.48063V26.5401H94.0822V15.6649C94.0822 14.3247 94.4894 13.3909 95.1166 12.7758C95.8208 12.1387 96.6131 11.8091 97.3943 11.8091V11.8201Z" fill="#EFEDDF"/>
<path d="M107.562 26.5398H112.481V7.68945L107.562 8.44742V26.5398Z" fill="#EFEDDF"/>
<path d="M144.964 7.61276C142.84 7.61276 141.013 8.3927 139.671 9.8647C139.671 9.63401 139.748 8.52452 139.748 7.99724V1.03271L134.785 1.84561V26.562H139.748V16.3678C139.748 14.6432 139.979 13.6655 140.529 13.0064C141.266 12.1496 142.51 11.6662 143.621 11.6662C145.041 11.6662 145.525 12.4462 145.525 14.1708V26.54H150.267V13.6326C150.267 11.831 150.19 11.2818 149.783 10.2711C149.222 8.62339 147.351 7.61276 144.964 7.61276Z" fill="#EFEDDF"/>
<path d="M110.048 0C108.376 0 107.033 1.34018 107.033 3.0099C107.033 4.67963 108.376 6.01981 110.048 6.01981C111.721 6.01981 113.063 4.67963 113.063 3.0099C113.063 1.34018 111.721 0 110.048 0Z" fill="#EFEDDF"/>
<path d="M68.5762 60.0884H73.5499V48.9825H80.0421V44.929H73.5499V39.063H81.6046L82.2428 35.0645H68.5762V60.0884Z" fill="#EFEDDF"/>
<path d="M87.3818 44.05L86.8976 41.5454L82.9473 42.1825V60.0991H87.8439V48.6637C87.8439 47.73 87.998 46.939 88.5482 46.3349C89.0323 45.8295 89.8136 45.478 90.7049 45.478C91.2661 45.478 91.8933 45.6318 92.3775 45.8625L93.6209 41.5564C92.8396 41.2488 92.5095 41.1719 91.7943 41.1719C89.9677 41.1719 88.1741 42.8196 87.3818 44.0609V44.05Z" fill="#EFEDDF"/>
<path d="M131.793 35.5475V60.0881H136.679V49.6194V34.7676L131.793 35.5475Z" fill="#EFEDDF"/>
<path d="M147.428 41.6226H141.497L136.678 49.6197L143.038 60.0884H148.771L141.42 49.389L147.428 41.6226Z" fill="#EFEDDF"/>
<path d="M123.275 41.3149C122.164 41.3149 120.888 41.5456 119.952 42.0949C119.171 42.5013 118.379 43.1055 117.829 43.8195L117.52 41.3699L113.416 42.029V60.0884H118.313V49.2132C118.313 47.873 118.72 46.9393 119.347 46.3022C120.051 45.665 120.844 45.3684 121.625 45.3684C122.967 45.3684 123.374 46.2253 123.374 48.3564V60.0994H128.117V46.6427C128.117 45.4783 128.04 44.6983 127.809 43.9843C127.226 42.4464 125.322 41.3259 123.275 41.3259V41.3149Z" fill="#EFEDDF"/>
</g>
<defs>
<clipPath id="clip0_1255_742">
<rect width="164" height="61" fill="white"/>
</clipPath>
</defs>
</svg>
