<svg width="129" height="137" viewBox="0 0 129 137" fill="none" xmlns="http://www.w3.org/2000/svg">
<path d="M128.245 111.93H35.0416L0 76.8567V0H93.2033L128.25 35.0812L128.245 111.93ZM36.5852 108.154H124.469V36.6697L91.657 3.77594H3.77594V75.2656L36.5879 108.154H36.5852Z" fill="#EFEDDF"/>
<path d="M13.1126 20.4736V26.0333H9.12024V9.0376H14.8039C16.8542 9.0376 18.448 9.54686 19.5879 10.568C20.7278 11.5866 21.2977 12.9692 21.2977 14.7134C21.2977 16.4892 20.6908 17.8956 19.4797 18.93C18.2659 19.9643 16.6537 20.4789 14.643 20.4736H13.1099H13.1126ZM13.1126 12.2964V17.2149H14.3712C15.3343 17.2149 16.06 17.0117 16.5534 16.5868C17.0468 16.162 17.2922 15.5551 17.2922 14.7767C17.2922 13.9983 17.0468 13.3571 16.5534 12.9323C16.06 12.5075 15.3317 12.299 14.3712 12.299L13.1126 12.2937V12.2964Z" fill="#EFEDDF"/>
<path d="M28.3782 26.0094C27.6446 26.2284 26.8794 26.3313 26.1116 26.3102C24.9611 26.3181 24.0824 25.9988 23.4782 25.3497C22.8686 24.7032 22.5652 23.748 22.5652 22.4894V9.04004H26.2329V21.7294C26.2039 22.112 26.291 22.492 26.4757 22.8245C26.5707 22.9459 26.6921 23.0408 26.8319 23.1015C26.9718 23.1622 27.1248 23.186 27.2779 23.1728C27.6552 23.1543 28.0246 23.0699 28.3729 22.9247V26.0094H28.3782Z" fill="#EFEDDF"/>
<path d="M37.1088 26.033V25.0883C36.6286 25.4683 36.0876 25.7691 35.5124 25.9776C34.9715 26.1887 34.3962 26.3021 33.8157 26.31C32.7866 26.3523 31.7787 26.0145 30.9818 25.3628C30.6097 25.054 30.3142 24.6662 30.1189 24.2255C29.921 23.7848 29.8287 23.3072 29.8472 22.8244C29.8472 20.0511 32.1903 18.4626 36.8766 18.0589C36.8766 17.5101 36.7315 17.0984 36.4438 16.8214C36.1536 16.5443 35.6734 16.4045 35.0005 16.4045C33.6574 16.4045 32.1877 16.8451 30.5834 17.7238L31.5042 14.1537C32.8658 13.6866 34.296 13.4386 35.734 13.4175C38.9427 13.4175 40.547 14.9796 40.547 18.109V26.0356H37.1088V26.033ZM36.874 20.4522C35.6364 20.6158 34.7525 20.8691 34.2168 21.2095C33.6838 21.5499 33.4146 21.9932 33.4146 22.5394C33.4015 22.6951 33.4226 22.8481 33.478 22.9932C33.5334 23.1384 33.6205 23.2677 33.7313 23.3758C33.85 23.4787 33.9872 23.5553 34.135 23.6054C34.2828 23.6555 34.4385 23.674 34.5941 23.6608C35.2248 23.6687 35.9874 23.4418 36.8845 22.9774L36.874 20.4522Z" fill="#EFEDDF"/>
<path d="M52.2865 25.4155C51.0964 26.0092 49.785 26.3126 48.4551 26.2994C46.7057 26.3311 45.0143 25.6741 43.7451 24.4708C43.1118 23.893 42.6078 23.1884 42.2701 22.3995C41.9323 21.6105 41.7661 20.7609 41.7872 19.9033C41.7872 18.0114 42.4284 16.4545 43.7108 15.2355C44.3256 14.6391 45.0539 14.1721 45.8507 13.8581C46.6476 13.5441 47.4999 13.391 48.3575 13.4069C49.7322 13.3858 51.0885 13.7288 52.2891 14.4043V17.9111C50.9645 17.1643 49.7322 16.7923 48.595 16.7923C47.7796 16.7765 46.988 17.0773 46.3864 17.6288C46.075 17.9164 45.8323 18.27 45.6713 18.6631C45.5104 19.0563 45.4391 19.4785 45.4576 19.9007C45.4497 20.8374 45.761 21.5736 46.3943 22.1092C47.0302 22.6449 47.8403 22.9299 48.6715 22.9114C49.9407 22.9193 51.1888 22.5947 52.2891 21.9667V25.4128L52.2865 25.4155Z" fill="#EFEDDF"/>
<path d="M57.6762 20.9328C57.7078 21.2811 57.816 21.6189 57.9928 21.9223C58.1696 22.2258 58.4124 22.4844 58.7 22.6823C59.357 23.1044 60.1301 23.3155 60.9086 23.2839C61.6184 23.2839 62.3282 23.2205 63.0248 23.0886C63.9641 22.8802 64.8824 22.5925 65.7716 22.2258V25.3473C64.2016 26.0043 62.5129 26.3342 60.8083 26.321C58.7501 26.3289 57.0957 25.7669 55.8476 24.6296C54.5968 23.4923 53.9741 21.8906 53.9741 19.8246C53.9741 17.8851 54.5494 16.3336 55.6998 15.1699C56.8503 14.0089 58.3068 13.4258 60.0695 13.4258C61.9535 13.4258 63.4179 14.0168 64.4629 15.2016C65.5078 16.3864 66.0329 18.0698 66.0434 20.2599V20.9434L57.6735 20.9354L57.6762 20.9328ZM62.6131 18.3575C62.497 17.7796 62.1936 17.2545 61.7503 16.864C61.3202 16.4972 60.7687 16.2993 60.204 16.3125C59.5892 16.2861 58.985 16.4787 58.4968 16.8534C58.043 17.236 57.7527 17.7743 57.6762 18.3627L62.6131 18.3548V18.3575Z" fill="#EFEDDF"/>
<path d="M67.9746 25.1387V21.6424C69.3414 22.8193 70.8323 23.4103 72.4419 23.4103C73.5923 23.4103 74.1676 23.128 74.1676 22.5633C74.1596 22.4129 74.1121 22.2678 74.0277 22.1438C73.9433 22.0197 73.8272 21.9221 73.69 21.8588C73.3707 21.6714 72.5976 21.3706 71.3679 20.9564C70.0011 20.5078 69.0881 19.9932 68.6316 19.4127C68.1593 18.7874 67.9192 18.0195 67.9456 17.2358C67.9377 16.7081 68.0538 16.1856 68.286 15.7107C68.5155 15.2357 68.8533 14.8214 69.2728 14.4995C70.1568 13.7792 71.3442 13.4203 72.8377 13.4203C74.2705 13.3966 75.6927 13.6842 77.0041 14.262V17.4337C75.7903 16.7292 74.4156 16.3492 73.0118 16.3281C72.0909 16.3281 71.6292 16.5867 71.6292 17.1013C71.6292 17.3757 71.7954 17.5947 72.1226 17.7477C72.7559 18.0222 73.4103 18.2438 74.0805 18.4074C75.3998 18.7979 76.3577 19.3125 76.954 19.9457C77.5556 20.5869 77.8775 21.4419 77.8485 22.3179C77.8643 22.8826 77.743 23.4394 77.4949 23.946C77.2495 24.4526 76.8828 24.8933 76.4315 25.2284C75.4948 25.9487 74.2071 26.3076 72.5738 26.3076C70.9669 26.3208 69.3836 25.9171 67.9772 25.1387H67.9746Z" fill="#EFEDDF"/>
<path d="M17.1699 34.0309C16.5261 33.6563 15.8005 33.4478 15.0563 33.4214C14.8241 33.4056 14.5919 33.4399 14.3729 33.5164C14.1539 33.5956 13.9534 33.7169 13.7845 33.8753C13.6288 34.0521 13.5101 34.2552 13.4362 34.4795C13.3623 34.7012 13.3333 34.936 13.3518 35.1709V35.7698H16.8981V38.5932H13.3544V48.0977H9.68665V38.5932H8.10608V35.7698H9.68665V35.1735C9.68665 33.6721 10.0904 32.5295 10.9004 31.7459C11.7079 30.9622 12.8689 30.569 14.3782 30.569C15.3255 30.5585 16.2675 30.6772 17.1831 30.9173L17.1673 34.0309H17.1699Z" fill="#EFEDDF"/>
<path d="M23.4182 48.3799C22.5553 48.3957 21.6978 48.24 20.8956 47.9207C20.0934 47.5988 19.3652 47.1212 18.7504 46.5143C18.1303 45.9259 17.6395 45.2161 17.3096 44.4271C16.9798 43.6382 16.8189 42.7912 16.8347 41.9362C16.8215 41.0839 16.9824 40.2369 17.3123 39.4506C17.6421 38.6643 18.1303 37.9545 18.7504 37.3687C19.3625 36.7565 20.0934 36.2736 20.8956 35.9491C21.7004 35.6245 22.5606 35.4688 23.4261 35.4873C24.2942 35.4688 25.1571 35.6245 25.9619 35.9491C26.7667 36.2736 27.4976 36.7565 28.1124 37.3687C28.7298 37.9571 29.218 38.6669 29.5478 39.4532C29.8777 40.2396 30.0439 41.0839 30.0333 41.9362C30.0439 42.7859 29.8803 43.6303 29.5505 44.4166C29.2233 45.2003 28.7377 45.9101 28.1229 46.5011C27.5081 47.1186 26.7719 47.6041 25.9619 47.926C25.1518 48.2506 24.2837 48.4036 23.4129 48.3825L23.4182 48.3799ZM23.4182 44.9971C23.8113 45.0103 24.2019 44.9364 24.566 44.786C24.9301 44.633 25.2547 44.406 25.5212 44.1184C26.07 43.5273 26.3709 42.7437 26.355 41.9362C26.3682 41.5351 26.2996 41.1367 26.1571 40.762C26.0146 40.3873 25.7983 40.0469 25.5212 39.7567C25.2521 39.4717 24.9249 39.2474 24.5634 39.0944C24.2019 38.9413 23.8113 38.8675 23.4182 38.8754C23.0277 38.8675 22.6371 38.9413 22.2756 39.0944C21.9141 39.2474 21.5896 39.4717 21.3204 39.7567C20.7663 40.3451 20.4708 41.1288 20.4945 41.9362C20.4787 42.3373 20.5447 42.7357 20.6845 43.1104C20.8244 43.4851 21.0407 43.8282 21.3152 44.1184C21.5843 44.406 21.9089 44.633 22.2704 44.7834C22.6319 44.9364 23.0224 45.0076 23.4155 44.9971H23.4182Z" fill="#EFEDDF"/>
<path d="M38.8806 38.8729C38.498 38.7753 38.1048 38.7251 37.7117 38.7225C36.7274 38.7172 35.7775 39.0734 35.036 39.7199V48.1056H31.3683V35.7724H34.7906V36.8675C35.1996 36.4348 35.6852 36.0812 36.2208 35.8226C36.7749 35.5851 37.3739 35.469 37.9755 35.4848H38.1919C38.4215 35.4901 38.651 35.5139 38.8753 35.5613L38.8806 38.8782V38.8729Z" fill="#EFEDDF"/>
<path d="M9.12024 70.1754V53.1797H13.1126V66.6237H19.6486V70.178H9.12288L9.12024 70.1754Z" fill="#EFEDDF"/>
<path d="M26.8272 70.4503C25.9617 70.4687 25.1015 70.3131 24.2994 69.9938C23.4946 69.6719 22.7663 69.1943 22.1515 68.5847C21.5314 67.9963 21.0406 67.2865 20.7108 66.4975C20.3809 65.7086 20.22 64.8616 20.2358 64.0066C20.2226 63.1543 20.3836 62.3073 20.7134 61.521C21.0432 60.7347 21.5314 60.0249 22.1515 59.4391C22.7637 58.8269 23.4946 58.3467 24.2994 58.0248C25.1042 57.7028 25.9644 57.5445 26.8299 57.563C27.698 57.5445 28.5608 57.7002 29.3656 58.0221C30.1704 58.344 30.9013 58.8269 31.5161 59.4417C32.131 60.0302 32.6217 60.74 32.9516 61.5263C33.2814 62.3126 33.4477 63.157 33.4397 64.0093C33.4477 64.8589 33.2841 65.7007 32.9542 66.4844C32.627 67.268 32.1415 67.9752 31.5293 68.5663C30.9145 69.1837 30.181 69.6666 29.3735 69.9912C28.5661 70.3157 27.7006 70.4714 26.8299 70.4529L26.8272 70.4503ZM26.8272 67.0675C27.2204 67.0807 27.6109 67.0094 27.975 66.8564C28.3392 66.7034 28.6637 66.4791 28.9329 66.1915C29.4844 65.6004 29.7825 64.8167 29.7667 64.0093C29.7799 63.6082 29.7113 63.2098 29.5688 62.8351C29.4263 62.4604 29.2099 62.1173 28.9329 61.8297C28.6637 61.5448 28.3365 61.3205 27.975 61.1674C27.6135 61.0144 27.223 60.9405 26.8299 60.9484C26.4393 60.9405 26.0488 61.0144 25.6873 61.1674C25.3258 61.3205 25.0013 61.5448 24.7321 61.8297C24.1806 62.4182 23.8825 63.2018 23.9062 64.0093C23.8904 64.4104 23.9563 64.8088 24.0962 65.1835C24.236 65.5582 24.4524 65.9012 24.7268 66.1915C24.996 66.4791 25.3205 66.7034 25.6847 66.8564C26.0462 67.0068 26.4367 67.0807 26.8299 67.0675H26.8272Z" fill="#EFEDDF"/>
<path d="M42.9143 70.1751V64.0533C42.9301 63.4517 42.8853 62.8527 42.7797 62.2617C42.6874 61.8553 42.4578 61.4938 42.1333 61.2352C41.7533 60.945 41.281 60.7972 40.8034 60.8183C40.0461 60.8183 39.3125 61.0663 38.7135 61.5281V70.1751H35.0458V57.8445H38.4681V58.8789C38.8745 58.4488 39.3706 58.1084 39.9168 57.8788C40.4656 57.6519 41.054 57.5437 41.6477 57.5595C42.6663 57.5279 43.669 57.8076 44.5239 58.3617C45.2443 58.8261 45.8063 59.4963 46.1388 60.2853C46.4396 61.0294 46.5847 62.0664 46.5847 63.3937V70.1724H42.9169L42.9143 70.1751Z" fill="#EFEDDF"/>
<path d="M57.3213 70.1754V69.2809C56.3873 70.0408 55.2183 70.4525 54.0151 70.4498C52.2393 70.4577 50.8091 69.8561 49.7272 68.6397C48.6454 67.4233 48.1045 65.9377 48.1045 64.1777C48.0965 62.3385 48.6427 60.7738 49.7457 59.4888C50.8487 58.2011 52.2868 57.5573 54.0599 57.5599C55.0996 57.5546 56.1181 57.8501 56.9942 58.4043V53.1797H60.6619V70.1754H57.3213ZM56.9994 61.6419C56.3107 61.2013 55.5165 60.9611 54.6985 60.9453C54.3106 60.9427 53.9227 61.0192 53.5665 61.1696C53.2077 61.3226 52.8857 61.5443 52.6166 61.8266C52.3316 62.1222 52.11 62.4705 51.9648 62.8531C51.8197 63.2357 51.7564 63.6447 51.7749 64.0537C51.7537 64.4627 51.8144 64.8743 51.9569 65.2595C52.0994 65.6448 52.3158 65.9984 52.5981 66.2992C52.8593 66.5789 53.1786 66.8005 53.5322 66.9483C53.8858 67.0961 54.2658 67.1699 54.651 67.162C55.3212 67.162 56.1076 66.9008 56.9994 66.381V61.6393V61.6419Z" fill="#EFEDDF"/>
<path d="M68.8516 70.4503C67.9861 70.4687 67.1259 70.3131 66.3238 69.9938C65.5216 69.6719 64.7907 69.1943 64.1759 68.5847C63.5558 67.9963 63.065 67.2865 62.7352 66.4975C62.4053 65.7086 62.2444 64.8616 62.2602 64.0066C62.247 63.1543 62.4106 62.3073 62.7405 61.521C63.0703 60.7347 63.5584 60.0249 64.1785 59.4391C64.7907 58.8269 65.5216 58.3467 66.3264 58.0248C67.1312 57.7028 67.9914 57.5445 68.8569 57.563C69.725 57.5445 70.5852 57.7002 71.39 58.0221C72.1948 58.344 72.9257 58.8269 73.5406 59.4417C74.158 60.0302 74.6462 60.74 74.9786 61.5263C75.3085 62.3126 75.4747 63.157 75.4668 64.0093C75.4747 64.8589 75.3085 65.7007 74.9813 66.4844C74.6541 67.268 74.1686 67.9752 73.559 68.5663C72.9442 69.1837 72.2107 69.6666 71.4032 69.9912C70.5958 70.3157 69.7303 70.4714 68.8595 70.4529L68.8516 70.4503ZM68.8516 67.0675C69.2448 67.0807 69.638 67.0095 70.0021 66.859C70.3662 66.7086 70.6934 66.4817 70.9626 66.1915C71.5114 65.5978 71.8096 64.8167 71.7964 64.0066C71.8069 63.6056 71.741 63.2071 71.5985 62.8324C71.456 62.4577 71.2396 62.1173 70.9652 61.8271C70.6961 61.5421 70.3689 61.3178 70.0074 61.1648C69.6459 61.0117 69.2553 60.9379 68.8622 60.9458C68.4717 60.9379 68.0811 61.0117 67.7196 61.1648C67.3581 61.3178 67.0336 61.5421 66.7644 61.8271C66.2103 62.4155 65.9148 63.1992 65.9385 64.0066C65.9227 64.4077 65.986 64.8062 66.1259 65.1808C66.2657 65.5555 66.4795 65.8986 66.7539 66.1888C67.023 66.4764 67.3476 66.7007 67.7117 66.8538C68.0732 67.0042 68.4637 67.0754 68.8569 67.0649L68.8516 67.0675Z" fill="#EFEDDF"/>
<path d="M84.9336 70.1751V64.0533C84.9494 63.4517 84.9019 62.8527 84.7964 62.2617C84.7067 61.8553 84.4771 61.4912 84.1499 61.2352C83.7726 60.9476 83.3055 60.7998 82.8306 60.8183C82.0733 60.8183 81.3397 61.0663 80.7408 61.5281V70.1751H77.073V57.8445H80.4954V58.8789C80.9017 58.4488 81.3952 58.1084 81.9414 57.8815C82.4876 57.6545 83.076 57.5437 83.6697 57.5595C84.6882 57.5279 85.6909 57.8076 86.5432 58.3617C87.2636 58.8261 87.8256 59.4963 88.1607 60.2853C88.4589 61.0294 88.6093 62.0664 88.6093 63.3937V70.1724H84.9389L84.9336 70.1751Z" fill="#EFEDDF"/>
<path d="M60.1586 119.68H58.2166V118.614H63.2802V119.68H61.3381V124.963H60.1586V119.68Z" fill="#EFEDDF"/>
<path d="M67.7676 120.804C68.1133 121.171 68.2874 121.685 68.2874 122.345V124.963H67.1924V122.432C67.1924 122.052 67.0974 121.757 66.9127 121.551C66.7253 121.345 66.4404 121.242 66.0604 121.242C65.8625 121.242 65.6725 121.274 65.4878 121.337C65.3031 121.401 65.1421 121.48 65.0023 121.575V124.963H63.9072V118.617H65.0023V120.625C65.3453 120.377 65.7701 120.253 66.2768 120.253C66.9232 120.253 67.4193 120.437 67.765 120.807L67.7676 120.804Z" fill="#EFEDDF"/>
<path d="M73.4336 122.965H70.1406C70.1907 123.34 70.3411 123.625 70.5891 123.825C70.8372 124.026 71.1617 124.126 71.5602 124.126C71.8715 124.126 72.1644 124.084 72.4362 124.002C72.708 123.92 73.0114 123.796 73.3413 123.63V124.688C73.0431 124.82 72.7476 124.918 72.452 124.978C72.1565 125.039 71.8399 125.071 71.4942 125.071C71.014 125.071 70.5838 124.968 70.2092 124.767C69.8345 124.564 69.5442 124.279 69.3384 123.915C69.1326 123.551 69.0297 123.131 69.0297 122.654C69.0297 122.203 69.1299 121.796 69.3252 121.432C69.5205 121.068 69.7949 120.78 70.1432 120.572C70.4941 120.363 70.882 120.258 71.3148 120.258C71.9744 120.258 72.4943 120.474 72.8716 120.907C73.2489 121.337 73.4389 121.931 73.4389 122.685V122.97L73.4336 122.965ZM70.5786 121.421C70.3807 121.588 70.2487 121.825 70.1775 122.134H72.3465C72.3069 121.836 72.1987 121.601 72.0193 121.429C71.8372 121.258 71.605 121.173 71.32 121.173C71.0351 121.173 70.7738 121.255 70.5786 121.421Z" fill="#EFEDDF"/>
<path d="M77.9718 119.68H76.0298V118.614H81.0934V119.68H79.1513V124.963H77.9718V119.68Z" fill="#EFEDDF"/>
<path d="M82.8828 119.632C82.7562 119.777 82.6929 119.986 82.6929 120.25V120.355H84.2734V121.279H82.6929V124.962H81.5978V121.279H80.8854V120.355H81.5978V120.26C81.5978 119.714 81.7535 119.284 82.0649 118.965C82.3762 118.648 82.8063 118.49 83.3578 118.49C83.656 118.49 83.9621 118.535 84.2708 118.622V119.603C83.9858 119.477 83.7061 119.413 83.4343 119.413C83.1942 119.413 83.0095 119.487 82.8828 119.632Z" fill="#EFEDDF"/>
<path d="M84.8359 118.617H86.0154V123.889H88.823V124.965H84.8359V118.619V118.617Z" fill="#EFEDDF"/>
<path d="M91.8491 118.617H93.9231C94.6725 118.617 95.2425 118.801 95.6356 119.173C96.0288 119.546 96.2267 120.028 96.2267 120.625C96.2267 121.05 96.1264 121.416 95.9259 121.725C95.7253 122.034 95.4483 122.266 95.0947 122.424C94.7411 122.583 94.3348 122.662 93.8783 122.662H93.0313V124.965H91.8518V118.619L91.8491 118.617ZM93.7806 121.633C94.1923 121.633 94.5036 121.548 94.7121 121.377C94.9205 121.205 95.0261 120.962 95.0261 120.646C95.0261 120.329 94.9232 120.065 94.7121 119.894C94.5036 119.722 94.1923 119.638 93.7806 119.638H93.0286V121.635H93.7806V121.633Z" fill="#EFEDDF"/>
<path d="M99.9747 120.395V121.432L99.9562 121.44C99.7293 121.314 99.4839 121.25 99.2253 121.25C98.819 121.25 98.4495 121.393 98.1197 121.678V124.96H97.0247V120.353H98.0828V120.667C98.2596 120.522 98.4443 120.416 98.6395 120.348C98.8321 120.282 99.0485 120.248 99.2913 120.248C99.5578 120.248 99.7847 120.295 99.9747 120.39V120.395Z" fill="#EFEDDF"/>
<path d="M101.251 124.754C100.877 124.546 100.581 124.256 100.368 123.889C100.151 123.522 100.043 123.11 100.043 122.662C100.043 122.213 100.151 121.802 100.368 121.435C100.584 121.065 100.879 120.778 101.251 120.569C101.626 120.361 102.038 120.255 102.489 120.255C102.94 120.255 103.362 120.361 103.737 120.569C104.112 120.778 104.405 121.068 104.621 121.435C104.837 121.802 104.946 122.213 104.946 122.662C104.946 123.11 104.837 123.522 104.621 123.889C104.405 124.258 104.109 124.546 103.737 124.754C103.362 124.963 102.948 125.068 102.489 125.068C102.03 125.068 101.626 124.963 101.251 124.754ZM103.455 123.649C103.711 123.39 103.84 123.06 103.84 122.659C103.84 122.258 103.713 121.928 103.455 121.67C103.199 121.411 102.877 121.279 102.489 121.279C102.101 121.279 101.79 121.408 101.531 121.67C101.275 121.931 101.146 122.261 101.146 122.659C101.146 123.058 101.273 123.39 101.531 123.649C101.787 123.91 102.109 124.039 102.489 124.039C102.869 124.039 103.199 123.91 103.455 123.649Z" fill="#EFEDDF"/>
<path d="M109.243 120.561C109.597 120.767 109.876 121.052 110.074 121.416C110.275 121.78 110.375 122.197 110.375 122.659C110.375 123.121 110.275 123.538 110.072 123.902C109.868 124.266 109.586 124.551 109.225 124.757C108.863 124.963 108.449 125.066 107.987 125.066C107.525 125.066 107.156 124.965 106.844 124.77V126.731H105.749V120.356H106.757V120.67C106.929 120.538 107.127 120.435 107.351 120.361C107.578 120.287 107.805 120.25 108.032 120.25C108.483 120.25 108.884 120.353 109.24 120.559L109.243 120.561ZM108.868 123.678C109.137 123.411 109.272 123.073 109.272 122.659C109.272 122.245 109.137 121.92 108.871 121.659C108.604 121.398 108.261 121.269 107.842 121.269C107.525 121.269 107.19 121.377 106.842 121.593V123.754C106.974 123.849 107.129 123.928 107.309 123.986C107.488 124.044 107.662 124.076 107.831 124.076C108.251 124.076 108.594 123.944 108.863 123.675L108.868 123.678Z" fill="#EFEDDF"/>
<path d="M115.345 122.965H112.052C112.102 123.34 112.252 123.625 112.5 123.825C112.748 124.026 113.073 124.126 113.471 124.126C113.783 124.126 114.075 124.084 114.347 124.002C114.619 123.92 114.922 123.796 115.252 123.63V124.688C114.954 124.82 114.659 124.918 114.363 124.978C114.068 125.039 113.751 125.071 113.405 125.071C112.925 125.071 112.495 124.968 112.12 124.767C111.745 124.564 111.455 124.279 111.249 123.915C111.044 123.551 110.941 123.131 110.941 122.654C110.941 122.203 111.041 121.796 111.236 121.432C111.431 121.068 111.706 120.78 112.054 120.572C112.405 120.363 112.793 120.258 113.226 120.258C113.885 120.258 114.405 120.474 114.783 120.907C115.16 121.337 115.35 121.931 115.35 122.685V122.97L115.345 122.965ZM112.49 121.421C112.292 121.588 112.16 121.825 112.088 122.134H114.257C114.218 121.836 114.11 121.601 113.93 121.429C113.748 121.258 113.516 121.173 113.231 121.173C112.946 121.173 112.685 121.255 112.49 121.421Z" fill="#EFEDDF"/>
<path d="M119.082 120.395V121.432L119.064 121.44C118.837 121.314 118.591 121.25 118.333 121.25C117.926 121.25 117.557 121.393 117.227 121.678V124.96H116.132V120.353H117.19V120.667C117.367 120.522 117.552 120.416 117.747 120.348C117.939 120.282 118.156 120.248 118.399 120.248C118.665 120.248 118.892 120.295 119.082 120.39V120.395Z" fill="#EFEDDF"/>
<path d="M122.581 124.021C122.75 123.976 122.911 123.913 123.071 123.831V124.849C122.697 124.995 122.301 125.068 121.881 125.068C121.348 125.068 120.939 124.918 120.654 124.62C120.369 124.322 120.227 123.9 120.227 123.353V121.298H119.515V120.356H120.227V119.261H121.333V120.356H123.045V121.298H121.333V123.298C121.333 123.588 121.401 123.794 121.541 123.91C121.681 124.029 121.874 124.087 122.122 124.087C122.261 124.087 122.414 124.063 122.583 124.018L122.581 124.021Z" fill="#EFEDDF"/>
<path d="M128.21 120.355L126.012 125.646C125.708 126.369 125.146 126.731 124.326 126.731C124.141 126.731 123.98 126.72 123.84 126.701V125.77C124.03 125.796 124.183 125.81 124.297 125.81C124.495 125.81 124.658 125.762 124.788 125.672C124.917 125.58 125.033 125.43 125.136 125.219L125.223 125.029L123.186 120.355H124.394L125.745 123.678L127.012 120.355H128.21Z" fill="#EFEDDF"/>
<path d="M60.161 134.926C59.6332 134.641 59.2163 134.248 58.9155 133.752C58.6147 133.253 58.4617 132.697 58.4617 132.082C58.4617 131.467 58.6121 130.897 58.9155 130.393C59.2163 129.889 59.628 129.491 60.1531 129.198C60.6755 128.905 61.2613 128.76 61.9078 128.76C62.2772 128.76 62.6361 128.799 62.9844 128.879C63.3327 128.958 63.6519 129.074 63.9369 129.227V130.464C63.6203 130.256 63.3036 130.098 62.9844 129.992C62.6651 129.886 62.3141 129.836 61.9289 129.836C61.4909 129.836 61.1003 129.929 60.7573 130.116C60.4143 130.303 60.1478 130.562 59.9525 130.892C59.7599 131.222 59.6623 131.599 59.6623 132.024C59.6623 132.449 59.7599 132.852 59.9578 133.193C60.1557 133.536 60.4275 133.802 60.7758 133.992C61.1241 134.182 61.5225 134.277 61.9658 134.277C62.3141 134.277 62.6466 134.23 62.9659 134.135C63.2852 134.04 63.6071 133.887 63.9369 133.678V134.895C63.6599 135.042 63.3432 135.153 62.9896 135.232C62.6361 135.312 62.2851 135.351 61.9289 135.351C61.2798 135.351 60.694 135.209 60.1636 134.924L60.161 134.926Z" fill="#EFEDDF"/>
<path d="M65.5333 135.021C65.1587 134.812 64.8631 134.522 64.6494 134.155C64.433 133.789 64.3248 133.377 64.3248 132.928C64.3248 132.48 64.433 132.068 64.6494 131.701C64.8658 131.332 65.1613 131.044 65.5333 130.836C65.908 130.628 66.3197 130.522 66.7709 130.522C67.2221 130.522 67.6443 130.628 68.019 130.836C68.3937 131.044 68.6866 131.335 68.9029 131.701C69.1193 132.068 69.2275 132.48 69.2275 132.928C69.2275 133.377 69.1193 133.789 68.9029 134.155C68.6866 134.525 68.391 134.812 68.019 135.021C67.6443 135.229 67.23 135.335 66.7709 135.335C66.3118 135.335 65.908 135.229 65.5333 135.021ZM67.7366 133.915C67.9926 133.657 68.1219 133.327 68.1219 132.926C68.1219 132.525 67.9952 132.195 67.7366 131.936C67.4807 131.678 67.1588 131.546 66.7709 131.546C66.383 131.546 66.0716 131.675 65.813 131.936C65.5571 132.198 65.4278 132.527 65.4278 132.926C65.4278 133.324 65.5545 133.657 65.813 133.915C66.069 134.177 66.3909 134.306 66.7709 134.306C67.1509 134.306 67.4807 134.177 67.7366 133.915Z" fill="#EFEDDF"/>
<path d="M76.9866 131.071C77.327 131.433 77.4959 131.934 77.4959 132.575V135.241H76.4008V132.67C76.4008 131.903 76.0578 131.517 75.3718 131.517C74.9839 131.517 74.6092 131.655 74.2477 131.926C74.2925 132.111 74.3136 132.327 74.3136 132.573V135.227H73.2186V132.668C73.2186 131.895 72.865 131.507 72.1526 131.507C71.9626 131.507 71.7779 131.538 71.6011 131.602C71.4243 131.665 71.2633 131.744 71.1235 131.839V135.227H70.0284V130.62H71.0865V130.905C71.4349 130.644 71.8623 130.515 72.3716 130.515C73.0207 130.515 73.5141 130.713 73.8572 131.106C74.3585 130.718 74.9153 130.525 75.5327 130.525C76.1502 130.525 76.6436 130.705 76.984 131.069L76.9866 131.071Z" fill="#EFEDDF"/>
<path d="M82.0263 130.828C82.3799 131.034 82.6596 131.319 82.8575 131.683C83.058 132.047 83.1583 132.464 83.1583 132.926C83.1583 133.387 83.058 133.804 82.8549 134.169C82.6517 134.533 82.3694 134.818 82.0079 135.023C81.6464 135.229 81.2321 135.332 80.7703 135.332C80.3085 135.332 79.9391 135.232 79.6278 135.037V136.997H78.5327V130.622H79.5407V130.936C79.7122 130.804 79.9101 130.701 80.1344 130.627C80.3613 130.554 80.5882 130.517 80.8152 130.517C81.2664 130.517 81.6675 130.62 82.0237 130.825L82.0263 130.828ZM81.6516 133.944C81.9208 133.678 82.0553 133.34 82.0553 132.926C82.0553 132.511 81.9208 132.187 81.6543 131.926C81.3878 131.664 81.0447 131.535 80.6252 131.535C80.3085 131.535 79.9734 131.643 79.6251 131.86V134.021C79.7571 134.116 79.9127 134.195 80.0922 134.253C80.2716 134.311 80.4458 134.343 80.6146 134.343C81.0342 134.343 81.3772 134.211 81.6464 133.942L81.6516 133.944Z" fill="#EFEDDF"/>
<path d="M86.9363 131C87.2846 131.32 87.4587 131.81 87.4587 132.47V135.23H86.4033V134.905C86.2133 135.037 86.0022 135.143 85.77 135.219C85.5378 135.296 85.3108 135.336 85.0892 135.336C84.6459 135.336 84.2844 135.212 84.01 134.969C83.7329 134.723 83.5957 134.412 83.5957 134.032C83.5957 133.512 83.8411 133.101 84.3293 132.797C84.8174 132.494 85.4955 132.314 86.3663 132.264C86.361 132.003 86.2687 131.805 86.0893 131.668C85.9125 131.531 85.675 131.465 85.3768 131.465C84.8807 131.465 84.3741 131.649 83.8543 132.016L83.8358 131.998L84.1208 130.845C84.3108 130.744 84.5272 130.665 84.7725 130.607C85.0179 130.549 85.2581 130.52 85.5008 130.52C86.1104 130.52 86.588 130.681 86.9363 131ZM84.857 134.341C84.9625 134.433 85.1129 134.478 85.3108 134.478C85.6644 134.478 86.018 134.357 86.3663 134.117V133.032C85.8333 133.064 85.4243 133.161 85.1341 133.328C84.8464 133.491 84.7013 133.705 84.7013 133.963C84.7013 134.122 84.7541 134.248 84.857 134.341Z" fill="#EFEDDF"/>
<path d="M92.3553 131.071C92.7009 131.438 92.8751 131.952 92.8751 132.612V135.229H91.78V132.699C91.78 132.319 91.685 132.023 91.5003 131.817C91.313 131.612 91.028 131.509 90.648 131.509C90.4501 131.509 90.2601 131.54 90.0754 131.604C89.8907 131.667 89.7298 131.746 89.5899 131.841V135.229H88.4949V130.622H89.553V130.918C89.9013 130.651 90.3393 130.517 90.8644 130.517C91.5109 130.517 92.0069 130.701 92.3526 131.071H92.3553Z" fill="#EFEDDF"/>
<path d="M98.1294 130.625L95.9314 135.916C95.6279 136.639 95.0659 137.001 94.2453 137.001C94.0605 137.001 93.8996 136.99 93.7597 136.972V136.04C93.9497 136.066 94.1028 136.08 94.2162 136.08C94.4141 136.08 94.5777 136.032 94.707 135.942C94.8363 135.85 94.9524 135.7 95.0553 135.489L95.1424 135.299L93.1053 130.625H94.3139L95.6649 133.948L96.9314 130.625H98.1294Z" fill="#EFEDDF"/>
<path d="M50.8483 126.854C50.8483 128.285 50.2784 129.657 49.2678 130.67C48.2572 131.683 46.8851 132.253 45.4549 132.256C44.7451 132.256 44.0432 132.116 43.3888 131.844C42.7344 131.572 42.1381 131.174 41.6367 130.673C41.1354 130.171 40.7369 129.575 40.4652 128.92C40.1934 128.266 40.0535 127.564 40.0535 126.854C40.0535 126.145 40.1934 125.443 40.4652 124.788C40.7369 124.134 41.1354 123.538 41.6367 123.036C42.1381 122.535 42.7344 122.136 43.3888 121.865C44.0458 121.593 44.7477 121.453 45.4549 121.453C46.1621 121.453 46.8666 121.593 47.521 121.865C48.1754 122.136 48.7717 122.535 49.2731 123.036C49.7744 123.538 50.1728 124.134 50.4446 124.788C50.7164 125.443 50.8563 126.145 50.8563 126.854M45.4417 118.49C44.344 118.49 43.2542 118.706 42.2384 119.126C41.2225 119.545 40.3016 120.163 39.5232 120.941C38.7447 121.717 38.1299 122.64 37.7104 123.656C37.2908 124.672 37.0745 125.759 37.0745 126.86C37.0745 127.957 37.2908 129.047 37.7104 130.063C38.1299 131.079 38.7474 132 39.5258 132.778C40.3042 133.554 41.2251 134.171 42.241 134.591C43.2569 135.01 44.344 135.227 45.4443 135.227C46.5447 135.227 47.6318 135.01 48.6477 134.591C49.6636 134.171 50.5871 133.554 51.3655 132.778C52.1413 132.002 52.7587 131.079 53.1809 130.063C53.6031 129.047 53.8195 127.96 53.8195 126.86C53.8195 125.759 53.6031 124.672 53.1836 123.656C52.764 122.64 52.1466 121.717 51.3682 120.941C50.5898 120.165 49.6662 119.548 48.6503 119.126C47.6344 118.706 46.5447 118.49 45.447 118.49H45.4417Z" fill="#EFEDDF"/>
<path d="M55.7302 125.163H35.1274V128.548H55.7302V125.163Z" fill="#EFEDDF"/>
</svg>
