<svg width="19" height="14" viewBox="0 0 19 14" fill="none" xmlns="http://www.w3.org/2000/svg">
<path d="M9.73024 11.2426C7.6762 11.2426 5.96594 9.92102 5.51045 7.81522H13.9414C13.4945 9.92983 11.7757 11.2426 9.72165 11.2426M9.73024 2.34369C11.7499 2.34369 13.4516 4.00894 13.9242 5.69181H5.52763C6.00032 4.00013 7.70199 2.34369 9.72165 2.34369M18.1354 5.70062H16.2619C15.7548 2.74017 13.0218 0 9.73024 0C6.43863 0 3.71424 2.74017 3.19858 5.70062H0.84375V7.81522H3.18999C3.67127 11.1898 6.42144 13.5863 9.73024 13.5863C13.039 13.5863 15.7978 11.1898 16.2705 7.81522H18.1354V5.70062Z" fill="#118C86"/>
</svg>
