<svg width="147" height="35" viewBox="0 0 147 35" fill="none" xmlns="http://www.w3.org/2000/svg">
<g clip-path="url(#clip0_1194_3257)">
<path d="M5.85335 34.1747V5.99801L0 7.48589V3.89018L7.63054 0.578621H10.751V34.1747H5.85335Z" fill="#EFEDDF"/>
<path d="M30.4285 34.7533C27.4527 34.7533 24.8903 34.0249 22.7463 32.568C20.6023 31.1111 18.9543 29.0808 17.8022 26.4718C16.6501 23.8629 16.0767 20.8303 16.0767 17.3741C16.0767 13.9179 16.6501 10.8853 17.8022 8.27632C18.9543 5.66736 20.6023 3.63703 22.7463 2.18015C24.8903 0.723268 27.4476 -0.00517273 30.4285 -0.00517273C33.4094 -0.00517273 35.9564 0.723268 38.0849 2.18015C40.2133 3.63703 41.8459 5.66736 42.9825 8.27632C44.119 10.8853 44.6873 13.9179 44.6873 17.3741C44.6873 20.8303 44.119 23.8629 42.9825 26.4718C41.8459 29.0808 40.2133 31.1111 38.0849 32.568C35.9564 34.0249 33.4042 34.7533 30.4285 34.7533ZM30.4285 30.4808C32.2212 30.4808 33.8279 29.9539 35.2538 28.8948C36.6745 27.8409 37.7904 26.3375 38.5911 24.3847C39.3919 22.4318 39.7897 20.0967 39.7897 17.3792C39.7897 14.6618 39.3867 12.3215 38.5911 10.3738C37.7904 8.42097 36.6796 6.92793 35.2538 5.88434C33.8279 4.84593 32.2212 4.32414 30.4285 4.32414C28.6358 4.32414 26.9723 4.84593 25.5309 5.88434C24.0895 6.92276 22.9684 8.42097 22.1728 10.3738C21.3721 12.3267 20.9743 14.6618 20.9743 17.3792C20.9743 20.0967 21.3772 22.437 22.1728 24.3847C22.9736 26.3375 24.0947 27.8409 25.5309 28.8948C26.9723 29.9487 28.6048 30.4808 30.4285 30.4808Z" fill="#EFEDDF"/>
<path d="M76.3935 1.14177H69.8479L55.4082 17.6531L69.8479 34.1592H76.3935L61.5715 17.6531L76.3935 1.14177Z" fill="#EFEDDF"/>
<path d="M50.6904 34.1592H55.4072V17.6531L50.6904 23.0415V34.1592Z" fill="#EFEDDF"/>
<path d="M50.6904 1.14175V12.2595L55.4072 17.6531V1.14175H50.6904Z" fill="#EFEDDF"/>
<path d="M87.4068 34.1592L78.4434 1.14177H83.4908L90.1914 28.6417L97.8788 1.14177H103.117L110.567 28.7347L117.361 1.14177H122.408L113.305 34.1592H107.788L100.379 7.88888L92.7849 34.1592H87.4068Z" fill="#EFEDDF"/>
<path d="M135.165 34.7585C132.742 34.7585 130.618 34.3245 128.795 33.4618C126.971 32.599 125.556 31.3798 124.548 29.8041C123.541 28.2335 123.04 26.3892 123.04 24.2814H127.994C128.025 25.4748 128.314 26.57 128.867 27.5619C129.42 28.5538 130.221 29.3391 131.275 29.9229C132.328 30.5067 133.625 30.796 135.17 30.796C136.492 30.796 137.629 30.5738 138.59 30.1347C139.551 29.6956 140.279 29.0911 140.786 28.3162C141.292 27.5413 141.54 26.6578 141.54 25.6504C141.54 24.488 141.271 23.5271 140.739 22.7728C140.202 22.0186 139.489 21.3986 138.595 20.9078C137.696 20.4222 136.658 19.9882 135.48 19.6111C134.302 19.2339 133.067 18.8258 131.776 18.3867C129.167 17.5343 127.219 16.439 125.948 15.0803C124.672 13.7267 124.037 11.965 124.037 9.79522C124.037 7.94054 124.476 6.32867 125.359 4.95962C126.237 3.59056 127.477 2.52115 129.063 1.75138C130.655 0.981607 132.53 0.594139 134.705 0.594139C136.88 0.594139 138.714 0.986774 140.321 1.77204C141.927 2.55731 143.183 3.64739 144.097 5.02678C145.012 6.41133 145.466 8.03353 145.466 9.88821H140.465C140.465 9.04095 140.243 8.20402 139.804 7.38775C139.365 6.57148 138.704 5.89987 137.82 5.38325C136.942 4.86146 135.852 4.60314 134.565 4.60314C133.496 4.57215 132.535 4.74263 131.688 5.12493C130.841 5.50207 130.179 6.04969 129.704 6.77813C129.234 7.50141 128.996 8.36934 128.996 9.37159C128.996 10.3738 129.208 11.1901 129.632 11.8049C130.055 12.4197 130.675 12.9466 131.497 13.3858C132.313 13.8249 133.269 14.2279 134.354 14.5895C135.439 14.9511 136.642 15.3541 137.965 15.7932C139.597 16.3305 141.054 16.9815 142.33 17.7512C143.601 18.521 144.609 19.5129 145.353 20.727C146.091 21.9359 146.463 23.4858 146.463 25.3766C146.463 27.0143 146.04 28.5383 145.187 29.9539C144.34 31.3694 143.079 32.5267 141.411 33.4204C139.742 34.3194 137.665 34.7637 135.18 34.7637" fill="#EFEDDF"/>
</g>
<defs>
<clipPath id="clip0_1194_3257">
<rect width="146.442" height="34.7585" fill="white"/>
</clipPath>
</defs>
</svg>
