<svg width="299" height="71" viewBox="0 0 299 71" fill="none" xmlns="http://www.w3.org/2000/svg">
<path d="M46.8898 28L56.6179 1.4H61.7099L71.4378 28H66.6119L59.1258 6.72L51.6399 28H46.8898ZM51.2219 21.73L52.4378 18.12H65.5479L66.7639 21.73H51.2219ZM76.9968 28V1.4H81.5568L94.3628 20.628V1.4H98.9228V28H94.3628L81.5568 8.81V28H76.9968ZM112.936 28V18.424L104.082 1.4H109.25L115.748 14.928H114.76L121.258 1.4H126.388L117.496 18.424V28H112.936ZM137.756 28V5.086H129.928V1.4H150.106V5.086H142.278V28H137.756ZM172.561 28V1.4H177.121V28H172.561ZM155.765 28V1.4H160.325V28H155.765ZM159.641 16.296V12.572H173.435V16.296H159.641ZM184.421 28V1.4H188.981V28H184.421ZM196.229 28V1.4H200.789L213.595 20.628V1.4H218.155V28H213.595L200.789 8.81V28H196.229ZM236.995 28.456C234.487 28.456 232.283 27.886 230.383 26.746C228.508 25.606 227.051 24.0227 226.013 21.996C224.974 19.944 224.455 17.55 224.455 14.814C224.455 12.1033 224.987 9.70933 226.051 7.632C227.115 5.52933 228.635 3.89533 230.611 2.73C232.612 1.53933 234.981 0.944 237.717 0.944C240.807 0.944 243.366 1.69133 245.393 3.186C247.445 4.65533 248.775 6.70733 249.383 9.342H244.253C243.873 8.02467 243.125 6.99867 242.011 6.264C240.896 5.52933 239.452 5.162 237.679 5.162C235.88 5.162 234.335 5.55467 233.043 6.34C231.776 7.1 230.801 8.21467 230.117 9.684C229.458 11.128 229.129 12.8507 229.129 14.852C229.129 16.8533 229.458 18.576 230.117 20.02C230.801 21.464 231.763 22.566 233.005 23.326C234.246 24.0607 235.703 24.428 237.375 24.428C239.857 24.428 241.732 23.7313 242.999 22.338C244.265 20.9447 245.013 19.1333 245.241 16.904H238.363V13.446H249.839V28H245.659L245.279 24.352C244.696 25.2133 244.025 25.9607 243.265 26.594C242.505 27.202 241.605 27.6707 240.567 28C239.553 28.304 238.363 28.456 236.995 28.456ZM15.0733 55.712C19.3293 56.206 22.5973 58.296 22.5973 62.552C22.5973 67.758 17.2393 70 11.8813 70H0.747308V69.164C2.19131 69.012 2.57131 68.366 2.57131 66.884V46.478C2.57131 44.996 2.19131 44.35 0.747308 44.236V43.4H9.37331C14.5413 43.4 19.9753 44.616 19.9753 50.05C19.9753 52.938 17.9233 54.99 15.0733 55.712ZM8.95531 44.844H6.59931V55.332H9.22131C13.1353 55.332 15.9473 53.926 15.9473 50.05C15.9473 46.022 12.8693 44.844 8.95531 44.844ZM11.2353 68.518C15.1873 68.518 18.3793 66.998 18.3793 62.666C18.3793 58.6 14.9593 56.776 10.9693 56.776H6.59931V68.518H11.2353ZM46.0768 43.4H51.1309V44.236C49.7249 44.35 49.3449 44.996 49.3449 46.478V59.702C49.3449 65.782 45.6589 70.38 39.4648 70.38C33.5368 70.38 28.3688 66.884 28.3688 59.778V46.478C28.3688 44.996 27.9888 44.35 26.5828 44.236V43.4H34.2208V44.236C32.7768 44.35 32.3968 44.996 32.3968 46.478V59.854C32.3968 66.314 36.0068 68.822 40.4148 68.822C45.4308 68.822 47.8628 64.68 47.8628 59.778V46.478C47.8628 44.996 47.4828 44.35 46.0768 44.236V43.4ZM76.812 43.4L77.534 49.29H76.812C76.204 47.352 75.216 44.844 71.682 44.844H68.148V66.884C68.148 68.366 68.528 69.05 69.972 69.164V70H62.296V69.164C63.74 69.05 64.12 68.366 64.12 66.884V44.844H60.586C57.052 44.844 56.064 47.352 55.456 49.29H54.734L55.456 43.4H76.812ZM104.812 43.02C112.83 43.02 118.948 48.72 118.948 56.7C118.948 64.642 112.83 70.38 104.812 70.38C96.7941 70.38 90.6381 64.642 90.6381 56.7C90.6381 48.72 96.7941 43.02 104.812 43.02ZM104.812 69.354C110.246 69.354 114.654 64.794 114.654 56.7C114.654 48.568 110.246 44.046 104.812 44.046C99.3781 44.046 94.9701 48.568 94.9701 56.7C94.9701 64.794 99.3781 69.354 104.812 69.354ZM143.873 66.884C144.709 68.176 145.735 68.936 146.761 69.164V70H141.289L134.297 58.942C133.917 58.942 133.499 58.98 133.119 58.98H129.357V66.884C129.357 68.366 129.737 69.05 131.143 69.164V70H123.505V69.164C124.949 69.05 125.329 68.366 125.329 66.884V46.478C125.329 44.996 124.949 44.35 123.505 44.236V43.4H133.119C138.705 43.4 143.607 45.756 143.607 51.19C143.607 54.876 141.365 57.118 138.135 58.22L143.873 66.884ZM132.739 57.498C136.767 57.498 139.389 55.104 139.389 51.19C139.389 47.276 136.767 44.844 132.739 44.844H129.357V57.498H132.739ZM160.892 43.4C170.81 43.4 175.788 49.518 175.788 56.7C175.788 63.882 170.81 70 160.892 70L150.936 69.962V69.164C152.342 69.012 152.722 68.366 152.722 66.884V46.478C152.722 44.996 152.342 44.35 150.936 44.236V43.4H160.892ZM160.36 68.518C167.656 68.518 171.494 64.034 171.494 56.7C171.494 49.366 167.656 44.844 160.36 44.844H156.788V68.518H160.36ZM187.787 44.236C186.381 44.35 186.001 44.996 186.001 46.478V66.884C186.001 68.366 186.381 69.012 187.787 69.164V70H180.149V69.164C181.593 69.012 181.935 68.366 181.935 66.884V46.478C181.935 44.996 181.593 44.35 180.149 44.236V43.4H187.787V44.236ZM212.411 43.4H217.465V44.236C216.021 44.35 215.641 44.996 215.641 46.478V70H213.285L196.337 48.34V66.884C196.337 68.366 196.717 69.012 198.123 69.164V70H193.107V69.164C194.513 69.012 194.893 68.366 194.893 66.884V46.478C194.893 44.996 194.513 44.35 193.107 44.236V43.4H197.781L214.197 64.338V46.478C214.197 44.996 213.817 44.35 212.411 44.236V43.4ZM244.629 66.884C245.237 68.29 245.845 69.05 247.289 69.164V70H238.739V69.164C240.145 69.05 240.829 68.1 240.297 66.732L238.093 61.412H227.377L225.325 66.884C224.793 68.328 225.401 69.012 226.845 69.164V70H221.069V69.164C222.513 69.012 223.159 68.328 223.691 66.922L231.329 46.478C231.785 45.262 231.519 44.35 230.189 44.236V43.4H234.749L244.629 66.884ZM227.909 59.968H237.523L232.469 47.656L227.909 59.968ZM271.826 66.884C272.662 68.176 273.688 68.936 274.714 69.164V70H269.242L262.25 58.942C261.87 58.942 261.452 58.98 261.072 58.98H257.31V66.884C257.31 68.366 257.69 69.05 259.096 69.164V70H251.458V69.164C252.902 69.05 253.282 68.366 253.282 66.884V46.478C253.282 44.996 252.902 44.35 251.458 44.236V43.4H261.072C266.658 43.4 271.56 45.756 271.56 51.19C271.56 54.876 269.318 57.118 266.088 58.22L271.826 66.884ZM260.692 57.498C264.72 57.498 267.342 55.104 267.342 51.19C267.342 47.276 264.72 44.844 260.692 44.844H257.31V57.498H260.692ZM292.727 43.4H298.389V44.236C296.983 44.35 296.223 45.148 295.463 46.478L288.851 58.524V66.884C288.851 68.366 289.231 69.05 290.675 69.164V70H283.037V69.164C284.443 69.05 284.823 68.366 284.823 66.884V58.904L277.185 46.478C276.425 45.224 275.741 44.35 274.335 44.236V43.4H282.505V44.236C281.289 44.236 280.719 45.11 281.403 46.288L287.901 57.156L293.905 46.364C294.513 45.11 294.095 44.274 292.727 44.236V43.4Z" fill="#001D47"/>
</svg>
