<svg width="104" height="112" viewBox="0 0 104 112" fill="none" xmlns="http://www.w3.org/2000/svg">
<path d="M103.996 90.7657H28.4158L0 62.3243V0H75.5799L104 28.4479L103.996 90.7657ZM29.6675 87.7037H100.934V29.736L74.3261 3.06197H3.06197V61.034L29.6697 87.7037H29.6675Z" fill="#EFEDDF"/>
<path d="M10.6332 16.6023V21.1107H7.39575V7.32861H12.0048C13.6673 7.32861 14.9597 7.74158 15.8841 8.56966C16.8085 9.3956 17.2707 10.5168 17.2707 11.9312C17.2707 13.3712 16.7785 14.5117 15.7964 15.3505C14.8121 16.1893 13.5047 16.6065 11.8742 16.6023H10.631H10.6332ZM10.6332 9.97119V13.9597H11.6538C12.4348 13.9597 13.0233 13.7949 13.4234 13.4504C13.8235 13.1059 14.0225 12.6138 14.0225 11.9826C14.0225 11.3513 13.8235 10.8314 13.4234 10.4869C13.0233 10.1424 12.4327 9.97333 11.6538 9.97333L10.6332 9.96905V9.97119Z" fill="#EFEDDF"/>
<path d="M23.0122 21.0915C22.4174 21.2691 21.7969 21.3525 21.1742 21.3354C20.2413 21.3418 19.5287 21.0829 19.0387 20.5566C18.5445 20.0323 18.2984 19.2577 18.2984 18.2371V7.33081H21.2726V17.6208C21.2491 17.9311 21.3197 18.2392 21.4695 18.5088C21.5465 18.6072 21.6449 18.6843 21.7583 18.7335C21.8718 18.7827 21.9959 18.802 22.12 18.7913C22.4259 18.7763 22.7255 18.7078 23.008 18.5901V21.0915H23.0122Z" fill="#EFEDDF"/>
<path d="M30.0922 21.1105V20.3444C29.7028 20.6526 29.2641 20.8965 28.7977 21.0655C28.359 21.2367 27.8925 21.3287 27.4218 21.3351C26.5873 21.3694 25.7699 21.0955 25.1237 20.567C24.822 20.3166 24.5824 20.0021 24.424 19.6448C24.2635 19.2874 24.1886 18.9001 24.2036 18.5086C24.2036 16.2597 26.1037 14.9716 29.9039 14.6442C29.9039 14.1991 29.7862 13.8653 29.553 13.6406C29.3176 13.416 28.9282 13.3026 28.3825 13.3026C27.2934 13.3026 26.1016 13.6599 24.8006 14.3724L25.5474 11.4774C26.6515 11.0986 27.8112 10.8975 28.9774 10.8804C31.5793 10.8804 32.8803 12.1471 32.8803 14.6848V21.1126H30.0922V21.1105ZM29.9018 16.5849C28.8982 16.7176 28.1814 16.923 27.747 17.199C27.3148 17.4751 27.0966 17.8345 27.0966 18.2775C27.0859 18.4037 27.103 18.5278 27.1479 18.6455C27.1928 18.7632 27.2635 18.868 27.3533 18.9558C27.4496 19.0392 27.5609 19.1013 27.6807 19.1419C27.8005 19.1826 27.9268 19.1975 28.053 19.1868C28.5644 19.1933 29.1828 19.0093 29.9103 18.6327L29.9018 16.5849Z" fill="#EFEDDF"/>
<path d="M42.4 20.61C41.4349 21.0914 40.3715 21.3375 39.2931 21.3268C37.8744 21.3525 36.5028 20.8197 35.4736 19.8439C34.9601 19.3753 34.5514 18.804 34.2775 18.1642C34.0036 17.5245 33.8688 16.8355 33.8859 16.14C33.8859 14.6058 34.4059 13.3434 35.4458 12.3548C35.9444 11.8713 36.5349 11.4925 37.1811 11.2379C37.8273 10.9833 38.5185 10.8592 39.2139 10.872C40.3287 10.8549 41.4285 11.133 42.4021 11.6808V14.5245C41.328 13.919 40.3287 13.6173 39.4065 13.6173C38.7453 13.6044 38.1034 13.8484 37.6155 14.2956C37.363 14.5288 37.1662 14.8155 37.0356 15.1344C36.9051 15.4532 36.8473 15.7955 36.8623 16.1379C36.8559 16.8975 37.1084 17.4945 37.6219 17.9289C38.1376 18.3632 38.7945 18.5943 39.4685 18.5793C40.4977 18.5858 41.5098 18.3226 42.4021 17.8133V20.6078L42.4 20.61Z" fill="#EFEDDF"/>
<path d="M46.7705 16.9748C46.7962 17.2572 46.8839 17.5311 47.0273 17.7772C47.1706 18.0232 47.3675 18.2329 47.6007 18.3934C48.1335 18.7358 48.7604 18.907 49.3917 18.8813C49.9673 18.8813 50.5429 18.8299 51.1077 18.7229C51.8695 18.5539 52.6141 18.3207 53.3352 18.0232V20.5546C52.0621 21.0874 50.6926 21.3548 49.3104 21.3441C47.6414 21.3505 46.2997 20.8948 45.2876 19.9725C44.2734 19.0503 43.7684 17.7515 43.7684 16.0761C43.7684 14.5034 44.2349 13.2452 45.1678 12.3016C46.1007 11.3601 47.2819 10.8872 48.7112 10.8872C50.239 10.8872 51.4266 11.3665 52.2739 12.3273C53.1212 13.288 53.547 14.6532 53.5556 16.4291V16.9833L46.7684 16.9769L46.7705 16.9748ZM50.7739 14.8864C50.6798 14.4178 50.4337 13.992 50.0743 13.6753C49.7255 13.3779 49.2783 13.2174 48.8204 13.2281C48.3218 13.2067 47.8318 13.3629 47.4359 13.6667C47.0679 13.977 46.8325 14.4135 46.7705 14.8907L50.7739 14.8842V14.8864Z" fill="#EFEDDF"/>
<path d="M55.1215 20.3853V17.5501C56.2299 18.5045 57.4389 18.9838 58.7441 18.9838C59.677 18.9838 60.1435 18.7548 60.1435 18.2969C60.1371 18.1749 60.0986 18.0572 60.0301 17.9567C59.9616 17.8561 59.8675 17.7769 59.7562 17.7256C59.4973 17.5737 58.8704 17.3297 57.8732 16.9938C56.7649 16.63 56.0245 16.2128 55.6543 15.742C55.2713 15.2349 55.0766 14.6123 55.098 13.9768C55.0916 13.5488 55.1857 13.1251 55.374 12.74C55.5602 12.3548 55.8341 12.0189 56.1743 11.7578C56.8911 11.1737 57.854 10.8827 59.0651 10.8827C60.227 10.8634 61.3803 11.0967 62.4437 11.5653V14.1372C61.4594 13.5659 60.3446 13.2578 59.2063 13.2407C58.4595 13.2407 58.0851 13.4504 58.0851 13.8676C58.0851 14.0902 58.2199 14.2678 58.4852 14.3919C58.9987 14.6144 59.5294 14.7941 60.0729 14.9268C61.1428 15.2435 61.9195 15.6607 62.4031 16.1743C62.8909 16.6942 63.152 17.3875 63.1284 18.0979C63.1413 18.5558 63.0429 19.0073 62.8417 19.4181C62.6427 19.829 62.3453 20.1863 61.9794 20.458C61.2198 21.0422 60.1756 21.3332 58.8511 21.3332C57.548 21.3439 56.2642 21.0165 55.1237 20.3853H55.1215Z" fill="#EFEDDF"/>
<path d="M13.9232 27.5962C13.4011 27.2924 12.8127 27.1233 12.2093 27.1019C12.021 27.0891 11.8327 27.1169 11.6551 27.1789C11.4775 27.2431 11.3148 27.3416 11.1779 27.47C11.0517 27.6133 10.9554 27.7781 10.8955 27.96C10.8355 28.1397 10.812 28.3301 10.827 28.5206V29.0063H13.7028V31.2958H10.8291V39.0032H7.85489V31.2958H6.57318V29.0063H7.85489V28.5227C7.85489 27.3052 8.18227 26.3787 8.83917 25.7432C9.49393 25.1077 10.4354 24.7889 11.6593 24.7889C12.4275 24.7803 13.1914 24.8766 13.9339 25.0713L13.9211 27.5962H13.9232Z" fill="#EFEDDF"/>
<path d="M18.9901 39.2321C18.2904 39.2449 17.595 39.1187 16.9445 38.8598C16.294 38.5987 15.7035 38.2114 15.2049 37.7193C14.7021 37.2421 14.3041 36.6665 14.0366 36.0268C13.7692 35.387 13.6386 34.7001 13.6515 34.0068C13.6408 33.3157 13.7713 32.6288 14.0388 31.9912C14.3062 31.3536 14.7021 30.778 15.2049 30.3029C15.7013 29.8065 16.294 29.415 16.9445 29.1518C17.5972 28.8886 18.2947 28.7623 18.9965 28.7773C19.7005 28.7623 20.4002 28.8886 21.0528 29.1518C21.7055 29.415 22.2982 29.8065 22.7967 30.3029C23.2974 30.7801 23.6933 31.3557 23.9607 31.9933C24.2282 32.631 24.363 33.3157 24.3545 34.0068C24.363 34.6958 24.2303 35.3806 23.9629 36.0182C23.6976 36.6537 23.3038 37.2293 22.8053 37.7086C22.3067 38.2093 21.7097 38.603 21.0528 38.8641C20.3959 39.1272 19.692 39.2513 18.9858 39.2342L18.9901 39.2321ZM18.9901 36.4889C19.3089 36.4996 19.6256 36.4397 19.9209 36.3178C20.2162 36.1937 20.4794 36.0096 20.6955 35.7764C21.1406 35.2971 21.3845 34.6616 21.3717 34.0068C21.3824 33.6816 21.3267 33.3585 21.2112 33.0547C21.0956 32.7508 20.9202 32.4748 20.6955 32.2394C20.4772 32.0083 20.2119 31.8264 19.9188 31.7023C19.6256 31.5782 19.3089 31.5183 18.9901 31.5247C18.6734 31.5183 18.3568 31.5782 18.0636 31.7023C17.7705 31.8264 17.5073 32.0083 17.289 32.2394C16.8397 32.7166 16.6 33.3521 16.6193 34.0068C16.6065 34.3321 16.6599 34.6552 16.7734 34.959C16.8868 35.2629 17.0622 35.541 17.2847 35.7764C17.503 36.0096 17.7662 36.1937 18.0593 36.3156C18.3525 36.4397 18.6692 36.4975 18.988 36.4889H18.9901Z" fill="#EFEDDF"/>
<path d="M31.5288 31.5225C31.2185 31.4433 30.8997 31.4027 30.5809 31.4005C29.7828 31.3963 29.0125 31.6851 28.4112 32.2094V39.0095H25.437V29.0083H28.2122V29.8963C28.5439 29.5454 28.9376 29.2587 29.3719 29.049C29.8213 28.8564 30.307 28.7622 30.7949 28.7751H30.9703C31.1565 28.7794 31.3426 28.7986 31.5245 28.8371L31.5288 31.5268V31.5225Z" fill="#EFEDDF"/>
<path d="M7.39575 56.9063V43.1243H10.6332V54.0263H15.9333V56.9085H7.39789L7.39575 56.9063Z" fill="#EFEDDF"/>
<path d="M21.7547 57.1289C21.0528 57.1439 20.3553 57.0177 19.7048 56.7588C19.0522 56.4977 18.4616 56.1104 17.963 55.6161C17.4602 55.139 17.0622 54.5634 16.7947 53.9236C16.5273 53.2838 16.3967 52.597 16.4096 51.9037C16.3989 51.2126 16.5294 50.5257 16.7969 49.8881C17.0643 49.2504 17.4602 48.6748 17.963 48.1998C18.4595 47.7034 19.0522 47.3139 19.7048 47.0529C20.3574 46.7918 21.055 46.6635 21.7568 46.6784C22.4608 46.6635 23.1605 46.7897 23.8131 47.0508C24.4657 47.3118 25.0584 47.7034 25.557 48.2019C26.0555 48.6791 26.4535 49.2547 26.721 49.8923C26.9885 50.53 27.1233 51.2147 27.1169 51.9058C27.1233 52.5948 26.9906 53.2774 26.7231 53.9129C26.4578 54.5484 26.0641 55.1219 25.5677 55.6012C25.0691 56.1019 24.4743 56.4934 23.8195 56.7566C23.1647 57.0198 22.4629 57.1461 21.7568 57.1311L21.7547 57.1289ZM21.7547 54.3858C22.0735 54.3965 22.3902 54.3387 22.6854 54.2146C22.9807 54.0905 23.2439 53.9086 23.4622 53.6754C23.9094 53.1961 24.1512 52.5606 24.1383 51.9058C24.149 51.5806 24.0934 51.2575 23.9778 50.9536C23.8623 50.6498 23.6868 50.3716 23.4622 50.1384C23.2439 49.9073 22.9786 49.7254 22.6854 49.6013C22.3923 49.4772 22.0756 49.4173 21.7568 49.4237C21.4401 49.4173 21.1234 49.4772 20.8303 49.6013C20.5371 49.7254 20.274 49.9073 20.0557 50.1384C19.6085 50.6156 19.3667 51.2511 19.386 51.9058C19.3731 52.2311 19.4266 52.5542 19.54 52.858C19.6534 53.1619 19.8289 53.44 20.0514 53.6754C20.2697 53.9086 20.5329 54.0905 20.8281 54.2146C21.1213 54.3366 21.438 54.3965 21.7568 54.3858H21.7547Z" fill="#EFEDDF"/>
<path d="M34.7999 56.9061V51.9419C34.8127 51.4541 34.7763 50.9684 34.6907 50.4891C34.6158 50.1595 34.4297 49.8664 34.1665 49.6567C33.8584 49.4213 33.4754 49.3015 33.0881 49.3186C32.474 49.3186 31.8791 49.5197 31.3934 49.8942V56.9061H28.4192V46.9071H31.1944V47.7459C31.5239 47.3971 31.9262 47.1211 32.3691 46.9349C32.8142 46.7509 33.2913 46.6632 33.7728 46.676C34.5987 46.6504 35.4118 46.8772 36.1051 47.3265C36.6893 47.7031 37.145 48.2466 37.4146 48.8864C37.6586 49.4898 37.7762 50.3307 37.7762 51.407V56.904H34.802L34.7999 56.9061Z" fill="#EFEDDF"/>
<path d="M46.4828 56.9063V56.181C45.7253 56.7972 44.7774 57.131 43.8017 57.1289C42.3616 57.1353 41.2019 56.6474 40.3246 55.661C39.4473 54.6746 39.0086 53.4699 39.0086 52.0427C39.0022 50.5513 39.4452 49.2824 40.3396 48.2404C41.234 47.1962 42.4001 46.6741 43.838 46.6762C44.6811 46.672 45.507 46.9116 46.2174 47.361V43.1243H49.1917V56.9063H46.4828ZM46.2217 49.9864C45.6632 49.6291 45.0192 49.4344 44.3559 49.4215C44.0413 49.4194 43.7268 49.4814 43.4379 49.6034C43.1469 49.7275 42.8859 49.9072 42.6676 50.1362C42.4365 50.3759 42.2568 50.6583 42.1391 50.9686C42.0214 51.2788 41.97 51.6105 41.985 51.9421C41.9679 52.2738 42.0171 52.6076 42.1327 52.92C42.2482 53.2324 42.4237 53.5191 42.6526 53.7631C42.8645 53.9899 43.1234 54.1696 43.4101 54.2894C43.6968 54.4093 44.0049 54.4692 44.3173 54.4628C44.8608 54.4628 45.4985 54.2509 46.2217 53.8294V49.9843V49.9864Z" fill="#EFEDDF"/>
<path d="M55.8327 57.1289C55.1309 57.1439 54.4333 57.0177 53.7829 56.7588C53.1324 56.4977 52.5397 56.1104 52.0411 55.6161C51.5383 55.139 51.1403 54.5634 50.8728 53.9236C50.6053 53.2838 50.4748 52.597 50.4876 51.9037C50.477 51.2126 50.6096 50.5257 50.8771 49.8881C51.1446 49.2504 51.5404 48.6748 52.0432 48.1998C52.5397 47.7034 53.1324 47.3139 53.785 47.0529C54.4376 46.7918 55.1352 46.6635 55.837 46.6784C56.541 46.6635 57.2385 46.7897 57.8912 47.0508C58.5438 47.3118 59.1365 47.7034 59.635 48.2019C60.1357 48.6791 60.5316 49.2547 60.8012 49.8923C61.0687 50.53 61.2035 51.2147 61.1971 51.9058C61.2035 52.5948 61.0687 53.2774 60.8033 53.9129C60.538 54.5484 60.1443 55.1219 59.65 55.6012C59.1515 56.1019 58.5566 56.4934 57.9019 56.7566C57.2471 57.0198 56.5453 57.1461 55.8391 57.1311L55.8327 57.1289ZM55.8327 54.3858C56.1515 54.3965 56.4704 54.3387 56.7657 54.2167C57.0609 54.0948 57.3263 53.9108 57.5445 53.6754C57.9896 53.194 58.2314 52.5606 58.2207 51.9037C58.2292 51.5784 58.1757 51.2553 58.0602 50.9515C57.9446 50.6477 57.7692 50.3716 57.5467 50.1363C57.3284 49.9052 57.0631 49.7233 56.7699 49.5992C56.4768 49.4751 56.1601 49.4152 55.8413 49.4216C55.5246 49.4152 55.2079 49.4751 54.9148 49.5992C54.6216 49.7233 54.3584 49.9052 54.1402 50.1363C53.6908 50.6134 53.4512 51.2489 53.4704 51.9037C53.4576 52.2289 53.509 52.552 53.6224 52.8559C53.7358 53.1597 53.9091 53.4379 54.1316 53.6733C54.3499 53.9065 54.6131 54.0884 54.9084 54.2125C55.2015 54.3344 55.5182 54.3922 55.837 54.3836L55.8327 54.3858Z" fill="#EFEDDF"/>
<path d="M68.8741 56.9061V51.9419C68.8869 51.4541 68.8484 50.9684 68.7628 50.4891C68.6901 50.1595 68.5039 49.8643 68.2386 49.6567C67.9326 49.4235 67.5539 49.3036 67.1687 49.3186C66.5546 49.3186 65.9598 49.5197 65.4741 49.8942V56.9061H62.4998V46.9071H65.2751V47.7459C65.6046 47.3971 66.0047 47.1211 66.4476 46.9371C66.8906 46.7531 67.3677 46.6632 67.8492 46.676C68.6751 46.6504 69.4882 46.8772 70.1794 47.3265C70.7635 47.7031 71.2193 48.2466 71.491 48.8864C71.7328 49.4898 71.8548 50.3307 71.8548 51.407V56.904H68.8784L68.8741 56.9061Z" fill="#EFEDDF"/>
<path d="M48.7837 97.0502H47.2088V96.1858H51.315V97.0502H49.7401V101.334H48.7837V97.0502Z" fill="#EFEDDF"/>
<path d="M54.954 97.9616C55.2343 98.259 55.3755 98.6763 55.3755 99.2112V101.334H54.4875V99.2818C54.4875 98.9737 54.4105 98.734 54.2607 98.5671C54.1088 98.4002 53.8777 98.3168 53.5695 98.3168C53.4091 98.3168 53.255 98.3425 53.1052 98.3938C52.9554 98.4452 52.8249 98.5094 52.7115 98.5864V101.334H51.8235V96.1877H52.7115V97.8161C52.9897 97.615 53.3342 97.5144 53.745 97.5144C54.2692 97.5144 54.6715 97.6642 54.9518 97.9637L54.954 97.9616Z" fill="#EFEDDF"/>
<path d="M59.5485 99.7142H56.8781C56.9188 100.018 57.0407 100.249 57.2419 100.412C57.443 100.574 57.7062 100.656 58.0293 100.656C58.2818 100.656 58.5193 100.621 58.7397 100.555C58.9601 100.489 59.2062 100.388 59.4736 100.253V101.111C59.2318 101.218 58.9922 101.298 58.7525 101.347C58.5129 101.396 58.2561 101.422 57.9758 101.422C57.5864 101.422 57.2376 101.338 56.9337 101.176C56.6299 101.011 56.3945 100.78 56.2276 100.484C56.0607 100.189 55.9773 99.849 55.9773 99.4617C55.9773 99.0958 56.0586 98.7663 56.2169 98.471C56.3753 98.1757 56.5978 97.9425 56.8803 97.7734C57.1648 97.6044 57.4794 97.5188 57.8303 97.5188C58.3652 97.5188 58.7868 97.6943 59.0927 98.0452C59.3987 98.394 59.5528 98.8754 59.5528 99.4874V99.7185L59.5485 99.7142ZM57.2333 98.4624C57.0728 98.5972 56.9658 98.7898 56.9081 99.0402H58.6669C58.6348 98.7984 58.5471 98.6079 58.4016 98.4688C58.254 98.3298 58.0657 98.2613 57.8346 98.2613C57.6035 98.2613 57.3917 98.3276 57.2333 98.4624Z" fill="#EFEDDF"/>
<path d="M63.2288 97.0502H61.654V96.1858H65.7601V97.0502H64.1853V101.334H63.2288V97.0502Z" fill="#EFEDDF"/>
<path d="M67.2111 97.0115C67.1083 97.1292 67.057 97.2982 67.057 97.5122V97.5978H68.3387V98.3467H67.057V101.334H66.169V98.3467H65.5913V97.5978H66.169V97.5207C66.169 97.0778 66.2953 96.729 66.5477 96.4701C66.8002 96.2133 67.149 96.085 67.5962 96.085C67.838 96.085 68.0862 96.1213 68.3366 96.1919V96.9879C68.1055 96.8852 67.8787 96.8339 67.6583 96.8339C67.4636 96.8339 67.3138 96.8938 67.2111 97.0115Z" fill="#EFEDDF"/>
<path d="M68.7951 96.1877H69.7515V100.463H72.0282V101.336H68.7951V96.1899V96.1877Z" fill="#EFEDDF"/>
<path d="M74.482 96.1877H76.1638C76.7715 96.1877 77.2337 96.3375 77.5525 96.6392C77.8713 96.9409 78.0318 97.3325 78.0318 97.8161C78.0318 98.1606 77.9505 98.458 77.7879 98.7084C77.6253 98.9587 77.4006 99.147 77.1139 99.2754C76.8271 99.4038 76.4976 99.468 76.1274 99.468H75.4406V101.336H74.4841V96.1899L74.482 96.1877ZM76.0483 98.6335C76.3821 98.6335 76.6346 98.565 76.8036 98.4259C76.9726 98.2868 77.0582 98.09 77.0582 97.8332C77.0582 97.5764 76.9748 97.3625 76.8036 97.2234C76.6346 97.0843 76.3821 97.0158 76.0483 97.0158H75.4384V98.6356H76.0483V98.6335Z" fill="#EFEDDF"/>
<path d="M81.0712 97.6301V98.471L81.0563 98.4774C80.8722 98.3747 80.6733 98.3234 80.4636 98.3234C80.134 98.3234 79.8345 98.4389 79.567 98.67V101.332H78.679V97.5958H79.537V97.8505C79.6804 97.7328 79.8302 97.6472 79.9885 97.5916C80.1447 97.5381 80.3202 97.5103 80.5171 97.5103C80.7332 97.5103 80.9172 97.5488 81.0712 97.6258V97.6301Z" fill="#EFEDDF"/>
<path d="M82.1064 101.165C81.8026 100.996 81.563 100.76 81.3896 100.463C81.2142 100.166 81.1264 99.8318 81.1264 99.468C81.1264 99.1043 81.2142 98.7705 81.3896 98.4731C81.5651 98.1735 81.8047 97.9403 82.1064 97.7712C82.4103 97.6022 82.7441 97.5166 83.11 97.5166C83.4759 97.5166 83.8182 97.6022 84.1221 97.7712C84.4259 97.9403 84.6634 98.1756 84.8389 98.4731C85.0144 98.7705 85.1021 99.1043 85.1021 99.468C85.1021 99.8318 85.0144 100.166 84.8389 100.463C84.6634 100.763 84.4238 100.996 84.1221 101.165C83.8182 101.334 83.4823 101.419 83.11 101.419C82.7377 101.419 82.4103 101.334 82.1064 101.165ZM83.8931 100.268C84.1007 100.059 84.2055 99.7912 84.2055 99.4659C84.2055 99.1407 84.1028 98.8732 83.8931 98.6635C83.6856 98.4538 83.4245 98.3468 83.11 98.3468C82.7954 98.3468 82.543 98.4517 82.3333 98.6635C82.1257 98.8753 82.0209 99.1428 82.0209 99.4659C82.0209 99.789 82.1236 100.059 82.3333 100.268C82.5408 100.48 82.8019 100.585 83.11 100.585C83.4181 100.585 83.6856 100.48 83.8931 100.268Z" fill="#EFEDDF"/>
<path d="M88.5869 97.7647C88.8736 97.9316 89.1005 98.1627 89.2609 98.458C89.4236 98.7533 89.5049 99.0913 89.5049 99.4658C89.5049 99.8402 89.4235 100.178 89.2588 100.474C89.094 100.769 88.8651 101 88.5719 101.167C88.2788 101.334 87.9428 101.417 87.5684 101.417C87.1939 101.417 86.8944 101.336 86.6419 101.178V102.767H85.7539V97.5978H86.5713V97.8524C86.7104 97.7454 86.8708 97.662 87.0527 97.6021C87.2367 97.5422 87.4208 97.5122 87.6048 97.5122C87.9707 97.5122 88.2959 97.5957 88.5848 97.7626L88.5869 97.7647ZM88.2831 100.292C88.5013 100.076 88.6104 99.8017 88.6104 99.4658C88.6104 99.1299 88.5013 98.8667 88.2852 98.6548C88.0691 98.443 87.7909 98.3381 87.4507 98.3381C87.1939 98.3381 86.9222 98.4259 86.6397 98.6013V100.354C86.7467 100.431 86.873 100.495 87.0185 100.542C87.164 100.589 87.3052 100.615 87.4422 100.615C87.7824 100.615 88.0605 100.508 88.2788 100.29L88.2831 100.292Z" fill="#EFEDDF"/>
<path d="M93.5349 99.7142H90.8645C90.9052 100.018 91.0271 100.249 91.2283 100.412C91.4294 100.574 91.6926 100.656 92.0157 100.656C92.2682 100.656 92.5057 100.621 92.7261 100.555C92.9465 100.489 93.1926 100.388 93.46 100.253V101.111C93.2182 101.218 92.9786 101.298 92.7389 101.347C92.4993 101.396 92.2425 101.422 91.9622 101.422C91.5728 101.422 91.224 101.338 90.9201 101.176C90.6163 101.011 90.3809 100.78 90.214 100.484C90.0471 100.189 89.9637 99.849 89.9637 99.4617C89.9637 99.0958 90.045 98.7663 90.2033 98.471C90.3617 98.1757 90.5842 97.9425 90.8667 97.7734C91.1512 97.6044 91.4658 97.5188 91.8167 97.5188C92.3516 97.5188 92.7732 97.6943 93.0791 98.0452C93.3851 98.394 93.5392 98.8754 93.5392 99.4874V99.7185L93.5349 99.7142ZM91.2197 98.4624C91.0592 98.5972 90.9522 98.7898 90.8945 99.0402H92.6533C92.6212 98.7984 92.5335 98.6079 92.388 98.4688C92.2404 98.3298 92.0521 98.2613 91.821 98.2613C91.5899 98.2613 91.3781 98.3276 91.2197 98.4624Z" fill="#EFEDDF"/>
<path d="M96.5657 97.6301V98.471L96.5507 98.4774C96.3667 98.3747 96.1677 98.3234 95.958 98.3234C95.6285 98.3234 95.3289 98.4389 95.0615 98.67V101.332H94.1735V97.5958H95.0315V97.8505C95.1749 97.7328 95.3246 97.6472 95.483 97.5916C95.6392 97.5381 95.8146 97.5103 96.0115 97.5103C96.2276 97.5103 96.4116 97.5488 96.5657 97.6258V97.6301Z" fill="#EFEDDF"/>
<path d="M99.4027 100.57C99.5396 100.534 99.6701 100.482 99.8006 100.416V101.242C99.4968 101.36 99.1758 101.42 98.8356 101.42C98.4034 101.42 98.0717 101.298 97.8406 101.056C97.6096 100.814 97.494 100.472 97.494 100.029V98.3618H96.9163V97.598H97.494V96.71H98.3906V97.598H99.7793V98.3618H98.3906V99.9838C98.3906 100.219 98.4462 100.386 98.5596 100.48C98.673 100.576 98.8292 100.624 99.0303 100.624C99.1437 100.624 99.2679 100.604 99.4048 100.568L99.4027 100.57Z" fill="#EFEDDF"/>
<path d="M103.968 97.5979L102.185 101.888C101.939 102.474 101.483 102.768 100.818 102.768C100.668 102.768 100.538 102.759 100.424 102.744V101.989C100.578 102.01 100.702 102.021 100.794 102.021C100.955 102.021 101.087 101.982 101.192 101.909C101.297 101.835 101.391 101.713 101.475 101.541L101.545 101.387L99.8934 97.5979H100.873L101.969 100.292L102.996 97.5979H103.968Z" fill="#EFEDDF"/>
<path d="M48.7854 109.414C48.3575 109.183 48.0194 108.864 47.7755 108.461C47.5316 108.057 47.4075 107.606 47.4075 107.107C47.4075 106.608 47.5294 106.146 47.7755 105.738C48.0194 105.329 48.3532 105.006 48.779 104.768C49.2027 104.531 49.6777 104.413 50.202 104.413C50.5015 104.413 50.7925 104.445 51.075 104.509C51.3574 104.574 51.6163 104.668 51.8474 104.792V105.795C51.5907 105.626 51.3339 105.498 51.075 105.412C50.8161 105.327 50.5315 105.286 50.2191 105.286C49.8639 105.286 49.5472 105.361 49.269 105.513C48.9909 105.665 48.7748 105.875 48.6164 106.142C48.4602 106.409 48.381 106.715 48.381 107.06C48.381 107.404 48.4602 107.732 48.6207 108.008C48.7812 108.286 49.0016 108.502 49.284 108.656C49.5665 108.81 49.8896 108.887 50.249 108.887C50.5315 108.887 50.8011 108.849 51.06 108.772C51.3189 108.695 51.58 108.571 51.8474 108.402V109.388C51.6227 109.508 51.366 109.598 51.0793 109.662C50.7925 109.726 50.5079 109.758 50.2191 109.758C49.6927 109.758 49.2177 109.643 48.7876 109.412L48.7854 109.414Z" fill="#EFEDDF"/>
<path d="M53.1422 109.491C52.8384 109.322 52.5988 109.086 52.4254 108.789C52.25 108.491 52.1622 108.157 52.1622 107.794C52.1622 107.43 52.25 107.096 52.4254 106.799C52.6009 106.499 52.8405 106.266 53.1422 106.097C53.4461 105.928 53.7799 105.842 54.1458 105.842C54.5117 105.842 54.854 105.928 55.1579 106.097C55.4617 106.266 55.6992 106.501 55.8747 106.799C56.0502 107.096 56.1379 107.43 56.1379 107.794C56.1379 108.157 56.0502 108.491 55.8747 108.789C55.6992 109.088 55.4596 109.322 55.1579 109.491C54.854 109.66 54.5181 109.745 54.1458 109.745C53.7735 109.745 53.4461 109.66 53.1422 109.491ZM54.9289 108.594C55.1365 108.384 55.2413 108.117 55.2413 107.792C55.2413 107.466 55.1386 107.199 54.9289 106.989C54.7214 106.779 54.4603 106.673 54.1458 106.673C53.8312 106.673 53.5788 106.777 53.3691 106.989C53.1615 107.201 53.0567 107.468 53.0567 107.792C53.0567 108.115 53.1594 108.384 53.3691 108.594C53.5766 108.806 53.8377 108.911 54.1458 108.911C54.4539 108.911 54.7214 108.806 54.9289 108.594Z" fill="#EFEDDF"/>
<path d="M62.4296 106.287C62.7057 106.581 62.8426 106.987 62.8426 107.507V109.668H61.9546V107.584C61.9546 106.961 61.6764 106.649 61.1201 106.649C60.8056 106.649 60.5017 106.76 60.2086 106.981C60.245 107.13 60.2621 107.306 60.2621 107.505V109.658H59.3741V107.582C59.3741 106.955 59.0874 106.64 58.5096 106.64C58.3556 106.64 58.2058 106.666 58.0624 106.718C57.9191 106.769 57.7885 106.833 57.6751 106.91V109.658H56.7871V105.922H57.6452V106.153C57.9276 105.941 58.2743 105.836 58.6872 105.836C59.2136 105.836 59.6137 105.996 59.8919 106.315C60.2985 106.001 60.7499 105.844 61.2506 105.844C61.7513 105.844 62.1515 105.99 62.4275 106.285L62.4296 106.287Z" fill="#EFEDDF"/>
<path d="M66.5168 106.09C66.8035 106.257 67.0303 106.488 67.1908 106.784C67.3534 107.079 67.4347 107.417 67.4347 107.791C67.4347 108.166 67.3534 108.504 67.1886 108.799C67.0239 109.095 66.7949 109.326 66.5018 109.493C66.2086 109.659 65.8727 109.743 65.4982 109.743C65.1238 109.743 64.8242 109.662 64.5717 109.503V111.093H63.6837V105.923H64.5011V106.178C64.6402 106.071 64.8007 105.988 64.9826 105.928C65.1666 105.868 65.3506 105.838 65.5346 105.838C65.9005 105.838 66.2258 105.921 66.5146 106.088L66.5168 106.09ZM66.2129 108.617C66.4312 108.401 66.5403 108.127 66.5403 107.791C66.5403 107.456 66.4312 107.192 66.2151 106.981C65.999 106.769 65.7208 106.664 65.3806 106.664C65.1238 106.664 64.852 106.752 64.5696 106.927V108.679C64.6766 108.756 64.8028 108.821 64.9483 108.868C65.0938 108.915 65.2351 108.941 65.372 108.941C65.7122 108.941 65.9904 108.834 66.2086 108.615L66.2129 108.617Z" fill="#EFEDDF"/>
<path d="M70.498 106.23C70.7805 106.489 70.9217 106.887 70.9217 107.422V109.66H70.0658V109.397C69.9117 109.504 69.7405 109.589 69.5522 109.651C69.3639 109.713 69.1799 109.745 69.0002 109.745C68.6407 109.745 68.3476 109.645 68.125 109.448C67.9004 109.249 67.7891 108.996 67.7891 108.688C67.7891 108.267 67.9881 107.933 68.3839 107.687C68.7798 107.441 69.3297 107.295 70.0358 107.255C70.0315 107.043 69.9567 106.882 69.8112 106.771C69.6678 106.66 69.4752 106.606 69.2334 106.606C68.8311 106.606 68.4203 106.756 67.9988 107.054L67.9838 107.039L68.2149 106.104C68.369 106.022 68.5444 105.958 68.7434 105.911C68.9424 105.864 69.1371 105.84 69.334 105.84C69.8283 105.84 70.2156 105.971 70.498 106.23ZM68.8119 108.939C68.8975 109.014 69.0194 109.05 69.1799 109.05C69.4667 109.05 69.7534 108.952 70.0358 108.757V107.877C69.6036 107.903 69.2719 107.982 69.0366 108.117C68.8033 108.25 68.6856 108.423 68.6856 108.633C68.6856 108.761 68.7284 108.864 68.8119 108.939Z" fill="#EFEDDF"/>
<path d="M74.8925 106.287C75.1728 106.585 75.314 107.002 75.314 107.537V109.659H74.426V107.607C74.426 107.299 74.349 107.06 74.1992 106.893C74.0473 106.726 73.8162 106.642 73.5081 106.642C73.3476 106.642 73.1936 106.668 73.0438 106.719C72.894 106.771 72.7635 106.835 72.6501 106.912V109.659H71.7621V105.923H72.6201V106.163C72.9026 105.947 73.2577 105.838 73.6836 105.838C74.2078 105.838 74.6101 105.988 74.8904 106.287H74.8925Z" fill="#EFEDDF"/>
<path d="M79.5748 105.926L77.7924 110.216C77.5463 110.802 77.0905 111.095 76.4251 111.095C76.2753 111.095 76.1448 111.087 76.0314 111.072V110.317C76.1854 110.338 76.3095 110.349 76.4015 110.349C76.562 110.349 76.6947 110.31 76.7995 110.237C76.9044 110.162 76.9985 110.04 77.082 109.869L77.1526 109.715L75.5007 105.926H76.4807L77.5762 108.62L78.6033 105.926H79.5748Z" fill="#EFEDDF"/>
<path d="M41.2338 102.868C41.2338 104.028 40.7716 105.14 39.9521 105.962C39.1326 106.784 38.0199 107.246 36.8602 107.248C36.2846 107.248 35.7154 107.135 35.1848 106.914C34.6541 106.694 34.1705 106.371 33.764 105.964C33.3574 105.558 33.0343 105.074 32.8139 104.543C32.5935 104.013 32.4801 103.444 32.4801 102.868C32.4801 102.292 32.5935 101.723 32.8139 101.193C33.0343 100.662 33.3574 100.178 33.764 99.7717C34.1705 99.3652 34.6541 99.0421 35.1848 98.8217C35.7176 98.6013 36.2867 98.4879 36.8602 98.4879C37.4336 98.4879 38.0049 98.6013 38.5356 98.8217C39.0663 99.0421 39.5498 99.3652 39.9564 99.7717C40.3629 100.178 40.686 100.662 40.9064 101.193C41.1268 101.723 41.2402 102.292 41.2402 102.868M36.8495 96.085C35.9594 96.085 35.0756 96.2604 34.2518 96.6006C33.428 96.9409 32.6813 97.4416 32.05 98.0728C31.4188 98.7019 30.9203 99.4508 30.58 100.275C30.2398 101.098 30.0644 101.98 30.0644 102.872C30.0644 103.762 30.2398 104.646 30.58 105.47C30.9203 106.294 31.421 107.04 32.0522 107.672C32.6834 108.301 33.4302 108.801 34.254 109.142C35.0778 109.482 35.9593 109.657 36.8516 109.657C37.7439 109.657 38.6255 109.482 39.4493 109.142C40.2731 108.801 41.022 108.301 41.6532 107.672C42.2823 107.043 42.783 106.294 43.1253 105.47C43.4677 104.646 43.6432 103.764 43.6432 102.872C43.6432 101.98 43.4677 101.098 43.1275 100.275C42.7873 99.4508 42.2866 98.7019 41.6553 98.0728C41.0241 97.4437 40.2752 96.943 39.4514 96.6006C38.6276 96.2604 37.7439 96.085 36.8538 96.085H36.8495Z" fill="#EFEDDF"/>
<path d="M45.1925 101.496H28.4854V104.242H45.1925V101.496Z" fill="#EFEDDF"/>
</svg>
