<svg width="161" height="141" viewBox="0 0 161 141" fill="none" xmlns="http://www.w3.org/2000/svg">
<path d="M126.5 101.322V88.6653H113.393C112.521 84.123 110.741 79.8999 108.236 76.2108L117.5 66.9482L108.549 57.9987L99.2856 67.2613C95.596 64.7569 91.3723 62.9768 86.8294 62.1052V49H74.1707V62.1052C69.6278 62.9768 65.4103 64.763 61.7207 67.2674L52.4507 57.9987L43.5 66.9482L52.7761 76.2231C50.2714 79.9122 48.4788 84.1292 47.6132 88.6715H65.2322C67.7186 82.6805 73.6182 78.4697 80.5062 78.4697C87.3942 78.4697 93.2939 82.6805 95.7802 88.6715H80.807V101.329H95.7802C93.2939 107.319 87.3942 111.53 80.5062 111.53C73.6182 111.53 67.7186 107.319 65.2322 101.329H47.6132C48.4849 105.871 50.2714 110.082 52.7761 113.777L43.5 123.052L52.4507 132.001L61.7207 122.733C65.4103 125.237 69.6278 127.023 74.1707 127.895V141H86.8294V127.895C91.3723 127.023 95.596 125.243 99.2856 122.739L108.549 132.001L117.5 123.052L108.236 113.789C110.741 110.1 112.521 105.877 113.393 101.335H126.5V101.322Z" fill="#EFEDDF"/>
<path d="M47.5 89H34.5V101H47.5C47.1103 99.0563 46.8972 97.0543 46.8972 95C46.8972 92.9457 47.1103 90.9437 47.5 89Z" fill="#EFEDDF"/>
</svg>
