<svg width="161" height="141" viewBox="0 0 161 141" fill="none" xmlns="http://www.w3.org/2000/svg">
<g clip-path="url(#clip0_1814_3190)">
<path d="M70.4523 121.697V140.995H74.595V132.176H133.502V140.995H137.645V121.697H70.4523Z" fill="#EFEDDF"/>
<path d="M130.596 101.464H77.5012V117.634H130.596V101.464Z" fill="#EFEDDF"/>
<path d="M57.8073 49.9602C52.7821 49.9602 48.0476 51.1756 43.8626 53.3103C44.8877 54.9907 45.4901 56.9564 45.4901 59.07C45.4901 65.1837 40.5336 70.1402 34.4199 70.1402C32.618 70.1402 30.9271 69.7017 29.4211 68.9407C27.9257 72.5551 27.0961 76.5182 27.0961 80.6715C27.0961 96.2702 38.7264 109.142 53.7861 111.108V141H61.8127V111.108C76.8724 109.142 88.5028 96.2702 88.5028 80.6715C88.5028 63.7148 74.7535 49.9655 57.7968 49.9655L57.8073 49.9602Z" fill="#EFEDDF"/>
<path d="M43.8626 53.3103C41.9181 50.1293 38.4253 47.9998 34.4252 47.9998C28.3115 47.9998 23.355 52.9563 23.355 59.07C23.355 63.3818 25.8279 67.1124 29.4264 68.9354C32.227 62.1665 37.379 56.6234 43.8626 53.3103Z" fill="#EFEDDF"/>
</g>
<defs>
<clipPath id="clip0_1814_3190">
<rect width="161" height="141" fill="white"/>
</clipPath>
</defs>
</svg>
