<svg width="243" height="71" viewBox="0 0 243 71" fill="none" xmlns="http://www.w3.org/2000/svg">
<path d="M15.2718 28V1.4H24.8478C26.9758 1.4 28.7365 1.76733 30.1298 2.502C31.5232 3.21133 32.5618 4.174 33.2458 5.39C33.9298 6.606 34.2718 7.99933 34.2718 9.57C34.2718 11.0393 33.9425 12.3947 33.2838 13.636C32.6252 14.852 31.5992 15.84 30.2058 16.6C28.8125 17.3347 27.0265 17.702 24.8478 17.702H19.8318V28H15.2718ZM19.8318 13.978H24.5818C26.3805 13.978 27.6725 13.5853 28.4578 12.8C29.2432 11.9893 29.6358 10.9127 29.6358 9.57C29.6358 8.17667 29.2432 7.08733 28.4578 6.302C27.6725 5.51666 26.3805 5.124 24.5818 5.124H19.8318V13.978ZM40.1054 28V1.4H57.2814V5.086H44.6654V12.724H56.1414V16.334H44.6654V24.314H57.2814V28H40.1054ZM63.9742 28V1.4H73.5122C75.6148 1.4 77.3502 1.76733 78.7182 2.502C80.1115 3.21133 81.1375 4.174 81.7962 5.39C82.4802 6.58067 82.8222 7.936 82.8222 9.456C82.8222 10.8747 82.4928 12.192 81.8342 13.408C81.1755 14.624 80.1495 15.5993 78.7562 16.334C77.3628 17.0687 75.5768 17.436 73.3982 17.436H68.5342V28H63.9742ZM77.8442 28L72.2582 16.258H77.1982L83.0502 28H77.8442ZM68.5342 14.054H73.2082C74.9055 14.054 76.1468 13.6487 76.9322 12.838C77.7428 12.002 78.1482 10.9127 78.1482 9.57C78.1482 8.25267 77.7555 7.20133 76.9702 6.416C76.1848 5.60533 74.9308 5.2 73.2082 5.2H68.5342V14.054ZM89.4386 28V1.4H106.425V5.086H93.9986V12.876H104.145V16.486H93.9986V28H89.4386ZM112.231 28V1.4H129.407V5.086H116.791V12.724H128.267V16.334H116.791V24.314H129.407V28H112.231ZM147.918 28.456C145.283 28.456 143.003 27.886 141.078 26.746C139.178 25.5807 137.709 23.972 136.67 21.92C135.657 19.8427 135.15 17.4487 135.15 14.738C135.15 12.002 135.657 9.608 136.67 7.556C137.709 5.47867 139.178 3.85733 141.078 2.692C143.003 1.52667 145.283 0.944 147.918 0.944C151.085 0.944 153.669 1.72933 155.67 3.3C157.671 4.84533 158.938 7.03667 159.47 9.874H154.454C154.099 8.37933 153.377 7.20133 152.288 6.34C151.199 5.47867 149.729 5.048 147.88 5.048C146.208 5.048 144.764 5.44067 143.548 6.226C142.357 6.986 141.433 8.10067 140.774 9.57C140.141 11.014 139.824 12.7367 139.824 14.738C139.824 16.7393 140.141 18.462 140.774 19.906C141.433 21.3247 142.357 22.4267 143.548 23.212C144.764 23.972 146.208 24.352 147.88 24.352C149.729 24.352 151.199 23.9593 152.288 23.174C153.377 22.3633 154.099 21.2487 154.454 19.83H159.47C158.963 22.5153 157.697 24.6307 155.67 26.176C153.669 27.696 151.085 28.456 147.918 28.456ZM171.655 28V5.086H163.827V1.4H184.005V5.086H176.177V28H171.655ZM189.664 28V1.4H194.224V24.428H206.08V28H189.664ZM215.398 28V18.424L206.544 1.4H211.712L218.21 14.928H217.222L223.72 1.4H228.85L219.958 18.424V28H215.398ZM9.39133 43.4C15.0153 43.4 20.1453 46.022 20.1453 51.57C20.1453 57.08 15.0153 59.702 9.39133 59.702H6.12333V66.884C6.12333 68.366 6.50333 69.05 7.90933 69.164V70H0.271325V69.164C1.71533 69.05 2.05733 68.366 2.05733 66.884V46.478C2.05733 44.996 1.71533 44.35 0.271325 44.236V43.4H9.39133ZM9.01133 58.258C13.2293 58.258 15.9273 55.94 15.9273 51.57C15.9273 47.162 13.2293 44.844 9.01133 44.844H6.12333V58.258H9.01133ZM38.4818 43.02C46.4998 43.02 52.6178 48.72 52.6178 56.7C52.6178 64.642 46.4998 70.38 38.4818 70.38C30.4638 70.38 24.3078 64.642 24.3078 56.7C24.3078 48.72 30.4638 43.02 38.4818 43.02ZM38.4818 69.354C43.9158 69.354 48.3238 64.794 48.3238 56.7C48.3238 48.568 43.9158 44.046 38.4818 44.046C33.0478 44.046 28.6398 48.568 28.6398 56.7C28.6398 64.794 33.0478 69.354 38.4818 69.354ZM67.6628 54.458C72.4128 57.232 75.7948 59.474 74.5028 64.604C73.3628 68.936 69.3728 70.38 65.4208 70.38C61.9628 70.38 59.0748 69.43 56.6048 67.682V62.324H57.3268C58.6948 66.694 61.2788 69.164 64.8888 69.354C68.5368 69.544 70.3608 67.644 70.7788 65.25C71.4248 61.526 68.3848 59.892 64.8888 57.916C61.0508 55.75 56.9088 53.166 58.0488 48.074C58.8848 44.35 62.0768 42.982 65.6868 42.982C68.6128 42.982 70.7788 44.008 73.2868 45.68V50.81H72.5648C71.4248 46.098 69.2208 44.16 66.1808 44.046C63.2168 43.894 61.6968 45.414 61.5068 47.732C61.2028 51.038 64.2048 52.444 67.6628 54.458ZM87.1972 44.236C85.7912 44.35 85.4112 44.996 85.4112 46.478V66.884C85.4112 68.366 85.7912 69.012 87.1972 69.164V70H79.5592V69.164C81.0032 69.012 81.3452 68.366 81.3452 66.884V46.478C81.3452 44.996 81.0032 44.35 79.5592 44.236V43.4H87.1972V44.236ZM113.646 43.4L114.368 49.29H113.646C113.038 47.352 112.05 44.844 108.516 44.844H104.982V66.884C104.982 68.366 105.362 69.05 106.806 69.164V70H99.1298V69.164C100.574 69.05 100.954 68.366 100.954 66.884V44.844H97.4198C93.8858 44.844 92.8978 47.352 92.2898 49.29H91.5678L92.2898 43.4H113.646ZM126.362 44.236C124.956 44.35 124.576 44.996 124.576 46.478V66.884C124.576 68.366 124.956 69.012 126.362 69.164V70H118.724V69.164C120.168 69.012 120.51 68.366 120.51 66.884V46.478C120.51 44.996 120.168 44.35 118.724 44.236V43.4H126.362V44.236ZM145.097 43.02C153.115 43.02 159.233 48.72 159.233 56.7C159.233 64.642 153.115 70.38 145.097 70.38C137.079 70.38 130.923 64.642 130.923 56.7C130.923 48.72 137.079 43.02 145.097 43.02ZM145.097 69.354C150.531 69.354 154.939 64.794 154.939 56.7C154.939 48.568 150.531 44.046 145.097 44.046C139.663 44.046 135.255 48.568 135.255 56.7C135.255 64.794 139.663 69.354 145.097 69.354ZM183.094 43.4H188.148V44.236C186.704 44.35 186.324 44.996 186.324 46.478V70H183.968L167.02 48.34V66.884C167.02 68.366 167.4 69.012 168.806 69.164V70H163.79V69.164C165.196 69.012 165.576 68.366 165.576 66.884V46.478C165.576 44.996 165.196 44.35 163.79 44.236V43.4H168.464L184.88 64.338V46.478C184.88 44.996 184.5 44.35 183.094 44.236V43.4ZM212.224 64.072H212.908L212.186 70H193.262V69.164C194.668 69.012 195.048 68.366 195.048 66.884V46.478C195.048 44.996 194.668 44.35 193.262 44.236V43.4H211.35L212.072 49.29H211.35C210.742 47.352 209.716 44.844 206.182 44.844H199.076V55.788H203.788C206.448 55.788 207.17 54.914 207.436 53.318H208.12V59.74H207.436C207.17 58.144 206.448 57.232 203.788 57.232H199.076V68.518H207.056C210.59 68.518 211.578 66.01 212.224 64.072ZM227.792 43.4C237.71 43.4 242.688 49.518 242.688 56.7C242.688 63.882 237.71 70 227.792 70L217.836 69.962V69.164C219.242 69.012 219.622 68.366 219.622 66.884V46.478C219.622 44.996 219.242 44.35 217.836 44.236V43.4H227.792ZM227.26 68.518C234.556 68.518 238.394 64.034 238.394 56.7C238.394 49.366 234.556 44.844 227.26 44.844H223.688V68.518H227.26Z" fill="#001D47"/>
</svg>
