<svg width="97" height="85" viewBox="0 0 97 85" fill="none" xmlns="http://www.w3.org/2000/svg">
<g clip-path="url(#clip0_33_1503)">
<path d="M27.6826 81.4653H94.1661V27.6261L69.3375 2.84209H2.85413V56.6812L27.6826 81.4653ZM97 84.3073H26.5054L0 57.8935V0H70.4946L97 26.4137V84.3073Z" fill="white"/>
<path d="M9.92067 9.26059V12.9577H10.8801C11.5976 12.9577 12.158 12.7972 12.537 12.4801C12.9158 12.1629 13.0973 11.7053 13.0973 11.1071C13.0973 10.509 12.9158 10.0354 12.537 9.71824C12.158 9.4011 11.6178 9.24052 10.8801 9.24052L9.92067 9.26059ZM9.92067 15.4225V19.6174H6.90527V6.81592H11.1946C12.7506 6.81592 13.9479 7.19326 14.8066 7.96801C15.6652 8.74276 16.1046 9.77842 16.1046 11.0871C16.1046 12.3957 15.645 13.4917 14.7259 14.2663C13.8068 15.0411 12.5893 15.4386 11.0736 15.4386H9.9166V15.4185L9.92067 15.4225Z" fill="white"/>
<path d="M21.4747 19.5973C20.9143 19.7579 20.3378 19.8341 19.7574 19.814C18.8785 19.814 18.2214 19.5772 17.7619 19.0995C17.3023 18.6018 17.0645 17.8872 17.0645 16.9519V6.81592H19.838V16.3738C19.8178 16.6509 19.8782 16.9519 20.0194 17.2088C20.1 17.3091 20.1806 17.3694 20.2976 17.4055C20.3982 17.4456 20.5152 17.4657 20.6361 17.4657C20.9143 17.4456 21.1965 17.3854 21.4747 17.2851V19.5893V19.5973Z" fill="white"/>
<path d="M27.9002 15.4231C26.9609 15.5436 26.3038 15.7402 25.8846 16.0011C25.4855 16.258 25.2879 16.5993 25.2879 16.9967C25.2879 17.1171 25.2879 17.2335 25.3283 17.3339C25.3685 17.4342 25.429 17.5346 25.5258 17.6109C25.6064 17.6912 25.7233 17.7513 25.8241 17.7915C25.945 17.8316 26.062 17.8517 26.1628 17.8316C26.6424 17.8316 27.2189 17.6711 27.9002 17.3138V15.4271V15.4231ZM28.0816 19.618V18.9035C27.7228 19.1804 27.3036 19.4213 26.8642 19.5779C26.4449 19.7384 26.0256 19.8147 25.5863 19.8348C24.8082 19.8749 24.0503 19.618 23.4497 19.1202C23.1715 18.8834 22.9498 18.6024 22.7926 18.2652C22.6515 17.928 22.5708 17.5707 22.5951 17.2134C22.5951 15.126 24.3728 13.9338 27.9042 13.6167C27.9042 13.1992 27.8034 12.9022 27.5857 12.6814C27.3681 12.4646 27.0052 12.3643 26.4893 12.3643C25.4734 12.3643 24.3526 12.7015 23.1554 13.3558L23.8528 10.6742C24.8889 10.3169 25.9692 10.1363 27.0456 10.1162C29.4804 10.1162 30.6777 11.2884 30.6777 13.6528V19.614H28.0816V19.618Z" fill="white"/>
<path d="M39.5583 19.16C38.6593 19.6177 37.6636 19.8344 36.664 19.8344C35.3457 19.8545 34.0677 19.3568 33.1124 18.4616C32.6326 18.024 32.2538 17.4861 31.9957 16.9121C31.7377 16.314 31.6168 15.6797 31.6369 15.0253C31.6369 13.5923 32.1167 12.4201 33.0922 11.5089C33.5518 11.0512 34.1121 10.7141 34.7087 10.4732C35.3054 10.2323 35.9463 10.1159 36.6034 10.136C37.6395 10.1159 38.6795 10.3729 39.5785 10.8907V13.5361C38.5787 12.9781 37.6435 12.7011 36.7848 12.7011C36.164 12.6811 35.5674 12.9179 35.1079 13.3394C34.87 13.5561 34.6886 13.8171 34.5677 14.1141C34.4467 14.4112 34.3863 14.7283 34.4064 15.0495C34.4064 15.764 34.6442 16.3019 35.1038 16.7194C35.5836 17.1168 36.2003 17.3375 36.8211 17.3175C37.7805 17.3175 38.7158 17.0807 39.5544 16.603V19.168L39.5583 19.16Z" fill="white"/>
<path d="M47.3636 13.8329C47.283 13.3953 47.0452 12.9978 46.7066 12.7008C46.3881 12.4238 45.9689 12.2833 45.5295 12.2833C45.0699 12.2633 44.6103 12.4038 44.2314 12.7008C43.8928 12.9978 43.671 13.3953 43.6146 13.8329H47.3677H47.3636ZM43.6307 15.7797C43.6509 16.0367 43.7315 16.2976 43.8685 16.5143C44.0097 16.7311 44.187 16.9318 44.4087 17.0924C44.9086 17.4095 45.485 17.5701 46.0858 17.5501C46.6259 17.5501 47.1621 17.5099 47.6821 17.4095C48.3997 17.249 49.0809 17.0321 49.7582 16.7552V19.0995C48.5609 19.5973 47.283 19.8341 46.0051 19.8341C44.4491 19.8341 43.1913 19.4167 42.252 18.5617C41.3128 17.7065 40.833 16.4942 40.833 14.9448C40.833 13.3953 41.2724 12.3195 42.1311 11.4483C43.0099 10.5732 44.1064 10.1357 45.4448 10.1357C46.8638 10.1357 47.9805 10.5732 48.7585 11.4684C49.5566 12.3636 49.9558 13.6361 49.9558 15.286V15.8038L43.6307 15.7837V15.7797Z" fill="white"/>
<path d="M51.4139 18.9389V16.2936C52.4499 17.1887 53.5706 17.6262 54.7881 17.6262C55.6669 17.6262 56.0861 17.4095 56.0861 16.992C56.0861 16.8716 56.0458 16.7753 55.9854 16.6749C55.9248 16.5745 55.824 16.5143 55.7273 16.4541C55.4895 16.3136 54.909 16.0767 53.9697 15.7797C52.9336 15.4425 52.2524 15.0451 51.8936 14.6076C51.5348 14.1298 51.3534 13.5558 51.3736 12.9778C51.3736 12.5803 51.4542 12.1829 51.6316 11.8257C51.8089 11.4684 52.071 11.1513 52.3693 10.9105C53.0465 10.3725 53.9455 10.0955 55.0622 10.0955C56.1385 10.0754 57.2189 10.2922 58.2146 10.7297V13.1143C57.2955 12.5764 56.2595 12.2993 55.1993 12.2792C54.5018 12.2792 54.1632 12.476 54.1632 12.8573C54.1632 13.054 54.2842 13.2346 54.5422 13.3551C55.0219 13.5518 55.5218 13.7325 56.0176 13.8529C57.0133 14.1499 57.7349 14.5273 58.1944 15.0049C58.654 15.4827 58.8919 16.137 58.8717 16.7954C58.8919 17.2128 58.7911 17.6504 58.6137 18.0277C58.4323 18.405 58.1542 18.7422 57.8155 19.0031C57.0979 19.541 56.1385 19.8181 54.9009 19.8181C53.6834 19.8381 52.4862 19.541 51.4099 18.943" fill="white"/>
<path d="M12.9926 25.639C12.5128 25.362 11.9565 25.2015 11.3961 25.1814C11.2188 25.1613 11.0373 25.2015 10.8761 25.2616C10.7149 25.3218 10.5577 25.4222 10.4367 25.5387C10.3158 25.6791 10.2392 25.8156 10.1787 25.9962C10.1183 26.1568 10.0981 26.3334 10.1183 26.5141V26.9717H12.795V29.0993H10.1183V36.2526H7.34474V29.0993H6.14746V26.9517H7.34474V26.494C7.34474 25.362 7.64305 24.507 8.26386 23.9089C8.88468 23.3107 9.75946 23.0137 10.9003 23.0137C11.6179 23.0137 12.3354 23.0939 13.0167 23.2706L12.9965 25.635L12.9926 25.639Z" fill="white"/>
<path d="M17.7222 33.9039C18.0205 33.9039 18.3188 33.8637 18.5809 33.7433C18.859 33.6229 19.1009 33.4664 19.2984 33.2456C19.7177 32.808 19.9354 32.2099 19.9354 31.5957C19.9354 31.2987 19.895 30.9976 19.7943 30.7206C19.6935 30.4436 19.5162 30.1827 19.3146 29.9659C19.113 29.7492 18.855 29.5886 18.597 29.4682C18.3188 29.3477 18.0366 29.2876 17.7383 29.3075C17.4401 29.3075 17.1417 29.3678 16.8797 29.4682C16.6015 29.5886 16.3597 29.7451 16.1621 29.9659C15.7429 30.4035 15.5252 30.9976 15.5454 31.6158C15.5252 31.9128 15.5856 32.2099 15.6864 32.4909C15.7872 32.7678 15.9444 33.0288 16.1662 33.2456C16.3677 33.4623 16.6257 33.6229 16.8837 33.7433C17.1215 33.8436 17.4239 33.9039 17.7222 33.9039ZM17.7222 36.4489C17.0652 36.469 16.4242 36.3485 15.8074 36.1117C15.2107 35.8749 14.6503 35.5136 14.1909 35.06C13.7111 34.6225 13.3523 34.0845 13.0944 33.4904C12.8363 32.8963 12.7154 32.258 12.7356 31.6238C12.7154 30.9896 12.8565 30.3513 13.0944 29.7572C13.3322 29.163 13.7111 28.6251 14.1707 28.1876C14.6303 27.73 15.1905 27.3526 15.7872 27.1158C16.3838 26.879 17.045 26.7585 17.7021 26.7585C18.3591 26.7384 19.0203 26.8589 19.6169 27.0957C20.2377 27.3326 20.7739 27.7099 21.2334 28.1675C21.693 28.605 22.0719 29.143 22.3098 29.7371C22.5476 30.3312 22.6887 30.9695 22.6686 31.6037C22.6686 32.238 22.5476 32.8763 22.3098 33.4703C22.0719 34.0685 21.693 34.6024 21.2334 35.0399C20.7739 35.4976 20.2135 35.8749 19.5968 36.1117C19.0364 36.3485 18.3793 36.469 17.7222 36.4489Z" fill="white"/>
<path d="M29.42 29.2956C29.1418 29.2153 28.8394 29.1753 28.5411 29.1753C27.8034 29.1753 27.0858 29.4321 26.5255 29.9299V36.2483H23.752V26.9473H26.3481V27.7622C26.6666 27.4451 27.0253 27.1681 27.4245 26.9674C27.8437 26.7907 28.3033 26.7104 28.7427 26.7104H28.9039C29.0813 26.7104 29.2425 26.7305 29.4239 26.7707V29.2956H29.42Z" fill="white"/>
<path d="M6.90527 52.8673V40.0659H9.92067V50.1818H14.867V52.8673H6.90527Z" fill="white"/>
<path d="M20.2965 50.5196C20.5947 50.5196 20.893 50.4794 21.1551 50.3589C21.4332 50.2385 21.6751 50.082 21.8726 49.8612C22.2919 49.4237 22.5096 48.8255 22.5096 48.2113C22.5096 47.9143 22.4693 47.6132 22.3685 47.3362C22.2677 47.0592 22.0904 46.7983 21.8888 46.5816C21.6872 46.3648 21.4292 46.2042 21.1712 46.0838C20.893 45.9634 20.6108 45.9031 20.3126 45.9232C20.0142 45.9232 19.7119 45.9835 19.4539 46.0838C19.1757 46.2042 18.9339 46.3608 18.7363 46.5816C18.3171 47.0191 18.0994 47.6132 18.1196 48.2314C18.0994 48.5284 18.1598 48.8255 18.2606 49.1265C18.3614 49.4036 18.5186 49.6645 18.7404 49.8813C18.9419 50.0981 19.2 50.2586 19.4579 50.379C19.6957 50.4794 19.9981 50.5396 20.2965 50.5196ZM20.2965 53.0645C19.6393 53.0846 18.9984 52.9642 18.3816 52.7274C17.7849 52.4905 17.2246 52.1293 16.7651 51.6757C16.2853 51.2381 15.9265 50.7002 15.6686 50.1061C15.4106 49.5119 15.2896 48.8737 15.3098 48.2394C15.2896 47.6051 15.4307 46.967 15.6686 46.3728C15.9064 45.7787 16.2853 45.2408 16.7449 44.8032C17.2045 44.3456 17.7648 43.9884 18.3614 43.7315C18.958 43.4946 19.6192 43.3742 20.2763 43.3943C20.9334 43.3742 21.5945 43.4946 22.1912 43.7315C22.812 43.9723 23.3481 44.3496 23.8278 44.8032C24.2873 45.2408 24.6663 45.7787 24.9041 46.3728C25.1622 46.9709 25.2831 47.6051 25.263 48.2394C25.263 48.8737 25.142 49.5119 24.9041 50.1061C24.6663 50.7002 24.2833 51.2381 23.8278 51.6757C23.3683 52.1332 22.812 52.5106 22.1912 52.7474C21.6106 52.9642 20.9535 53.0846 20.2965 53.0645Z" fill="white"/>
<path d="M32.4717 52.8675V48.2552C32.4917 47.7976 32.4515 47.3399 32.3709 46.9024C32.2902 46.6053 32.133 46.3244 31.8709 46.1276C31.5928 45.9108 31.234 45.7904 30.8712 45.8105C30.2907 45.8105 29.7344 45.9911 29.295 46.3484V52.8675H26.5215V43.5866H29.1176V44.3613C29.416 44.0442 29.7948 43.7833 30.2141 43.6067C30.6333 43.426 31.0727 43.3497 31.5323 43.3698C32.3103 43.3497 33.0682 43.5505 33.7092 43.9679C34.2494 44.3252 34.6888 44.8229 34.9266 45.4171C35.1443 45.9751 35.2653 46.7699 35.2653 47.7614V52.8675H32.4717Z" fill="white"/>
<path d="M43.1097 46.4245C42.5897 46.0873 41.9931 45.9067 41.3723 45.9067C41.074 45.9067 40.7918 45.9669 40.5136 46.0873C40.2354 46.2077 39.9936 46.3642 39.796 46.585C39.5784 46.8058 39.4171 47.0628 39.2962 47.3598C39.1954 47.6568 39.135 47.9539 39.155 48.2751C39.135 48.5922 39.1954 48.8933 39.2962 49.1903C39.397 49.4874 39.5744 49.7483 39.7759 49.965C39.9734 50.1818 40.2153 50.3424 40.4733 50.4628C40.7313 50.5832 41.0336 50.6234 41.3118 50.6234C41.8117 50.6234 42.4083 50.4227 43.0896 50.0252V46.4285H43.1097V46.4245ZM43.3678 52.8633V52.1889C42.6703 52.763 41.7713 53.0641 40.8724 53.0641C39.534 53.0641 38.4577 52.6064 37.6393 51.6912C36.821 50.7759 36.4219 49.664 36.4219 48.3312C36.4219 46.9985 36.821 45.7661 37.6595 44.7947C38.498 43.8192 39.5744 43.3456 40.9329 43.3456C41.7109 43.3456 42.4889 43.5623 43.146 43.9798V40.0659H45.9195V52.8633H43.3637H43.3678Z" fill="white"/>
<path d="M52.0924 50.5196C52.3906 50.5396 52.6889 50.4794 52.9712 50.3589C53.2493 50.2385 53.4912 50.082 53.6887 49.8612C54.1079 49.4237 54.3256 48.8255 54.3256 48.2113C54.3256 47.9143 54.2853 47.6132 54.1644 47.3362C54.0636 47.0592 53.8862 46.7983 53.6847 46.5816C53.4831 46.3648 53.2251 46.2042 52.9671 46.0838C52.6889 45.9634 52.4067 45.9031 52.1085 45.9232C51.8101 45.9232 51.5077 45.9835 51.2498 46.0838C50.9716 46.2042 50.7298 46.3608 50.5322 46.5816C50.113 47.0191 49.8953 47.6132 49.9155 48.2314C49.8953 48.5284 49.9557 48.8255 50.0565 49.1265C50.1573 49.4036 50.3145 49.6645 50.5363 49.8813C50.7378 50.0981 50.9958 50.2586 51.2538 50.379C51.4916 50.4794 51.794 50.5396 52.0924 50.5196ZM52.0924 53.0645C51.4352 53.0846 50.7943 52.9642 50.1775 52.7274C49.5808 52.4905 49.0205 52.1293 48.561 51.6757C48.0812 51.2381 47.7224 50.7002 47.4645 50.1061C47.2065 49.5119 47.0855 48.8737 47.1057 48.2394C47.0855 47.6051 47.2266 46.967 47.4645 46.3728C47.7023 45.7787 48.0812 45.2408 48.5408 44.8032C49.0004 44.3456 49.5607 43.9884 50.1573 43.7315C50.7539 43.4946 51.4151 43.3742 52.0722 43.3943C52.7293 43.3742 53.3904 43.4946 53.987 43.7315C54.6079 43.9723 55.144 44.3496 55.6036 44.8032C56.063 45.2408 56.442 45.7787 56.6799 46.3728C56.9379 46.9709 57.0589 47.6051 57.0387 48.2394C57.0387 48.8737 56.9177 49.5119 56.6799 50.1061C56.442 50.7002 56.063 51.2381 55.6036 51.6757C55.144 52.1332 54.5836 52.5106 53.9669 52.7474C53.3863 52.9642 52.7494 53.0846 52.0924 53.0645Z" fill="white"/>
<path d="M64.247 52.8675V48.2552C64.2671 47.7976 64.2269 47.3399 64.1463 46.9024C64.0857 46.6053 63.9043 46.3244 63.6463 46.1276C63.3682 45.9108 63.0094 45.8105 62.6466 45.8105C62.0702 45.8105 61.5098 45.9911 61.0704 46.3484V52.8675H58.2969V43.5866H60.893V44.3613C61.1914 44.0442 61.5702 43.7833 61.9895 43.6067C62.4088 43.426 62.8482 43.3497 63.2876 43.3698C64.0656 43.3497 64.8235 43.5505 65.4645 43.9679C66.0046 44.3252 66.444 44.8229 66.6818 45.4171C66.8996 45.9751 67.0205 46.7699 67.0205 47.7614V52.8675H64.247Z" fill="white"/>
</g>
<defs>
<clipPath id="clip0_33_1503">
<rect width="97" height="85" fill="white"/>
</clipPath>
</defs>
</svg>
