<svg width="149" height="143" viewBox="0 0 149 143" fill="none" xmlns="http://www.w3.org/2000/svg">
<path d="M5.3161 12.5796L125.711 12.5796L148.043 127.209L13.0834 142.85L5.3161 12.5796Z" fill="#EFEDDF"/>
<g clip-path="url(#clip0_820_1989)">
<path d="M84.738 58.203L38.1465 58.2681L38.178 80.8592L84.7695 80.7941L84.738 58.203Z" fill="#001D47"/>
<path d="M90.4548 73.9097L32.4395 73.9907L32.4676 94.1226L90.4829 94.0416L90.4548 73.9097Z" fill="#001D47"/>
<path d="M84.5851 74.1929H38.2383V80.8127H84.5851V74.1929Z" fill="#EFEDDF"/>
<path d="M103.008 76.9048C103.008 76.9048 103.008 76.9325 103.008 76.9483L103.052 76.9206C105.527 78.0141 109.008 77.6825 112.127 75.8035C115.245 73.9245 117.16 70.9955 117.349 68.2955L117.393 68.2679C117.393 68.2679 117.365 68.256 117.353 68.2521C117.353 68.2363 117.353 68.2244 117.353 68.2086L117.31 68.2363C114.835 67.1428 111.353 67.4744 108.235 69.3534C105.116 71.2324 103.202 74.1614 103.012 76.8614L102.969 76.889C102.969 76.889 102.996 76.9009 103.008 76.9048Z" fill="#001D47"/>
<path d="M102.598 73.3718C102.598 73.3718 102.598 73.3955 102.598 73.4074L102.566 73.3797C100.34 73.9561 97.4584 73.2021 95.0978 71.1968C92.7373 69.1915 91.5294 66.4717 91.7425 64.1783L91.7109 64.1506C91.7109 64.1506 91.7346 64.1427 91.7465 64.1427C91.7465 64.1309 91.7465 64.1191 91.7465 64.1072L91.778 64.1349C94.0044 63.5585 96.886 64.3125 99.2466 66.3178C101.607 68.3231 102.815 71.0429 102.602 73.3363L102.633 73.3639C102.633 73.3639 102.61 73.3718 102.598 73.3718Z" fill="#001D47"/>
<path d="M102.835 67.2411C102.835 67.2411 102.859 67.2569 102.87 67.2648V67.2174C105.014 65.7134 106.478 62.6621 106.478 59.137C106.478 55.6159 105.01 52.5645 102.867 51.0606V51.0132C102.867 51.0132 102.843 51.029 102.831 51.0369C102.819 51.029 102.807 51.0211 102.795 51.0132V51.0606C100.652 52.5645 99.1875 55.6159 99.1875 59.1409C99.1875 62.6621 100.656 65.7134 102.799 67.2174V67.2648C102.799 67.2648 102.823 67.249 102.835 67.2411Z" fill="#001D47"/>
<path d="M109.778 80.6782H103.549V80.7059H97.3555L99.1831 93.8034L103.742 93.8153V93.7876L107.946 93.7758L109.778 80.6782Z" fill="#001D47"/>
<path d="M101.856 81.5347H103.869V65.1963H101.856V81.5347Z" fill="#001D47"/>
</g>
<defs>
<clipPath id="clip0_820_1989">
<rect width="84.9487" height="43.1138" fill="white" transform="translate(32.4395 51.0093)"/>
</clipPath>
</defs>
</svg>
