<svg width="365" height="71" viewBox="0 0 365 71" fill="none" xmlns="http://www.w3.org/2000/svg">
<path d="M9.69032 28V18.424L0.836317 1.4H6.00432L12.5023 14.928H11.5143L18.0123 1.4H23.1423L14.2503 18.424V28H9.69032ZM38.6944 28.456C36.1357 28.456 33.8684 27.886 31.8924 26.746C29.9417 25.5807 28.4091 23.972 27.2944 21.92C26.1797 19.8427 25.6224 17.436 25.6224 14.7C25.6224 11.9893 26.1797 9.608 27.2944 7.556C28.4091 5.47867 29.9417 3.85733 31.8924 2.692C33.8684 1.52667 36.1357 0.944 38.6944 0.944C41.3037 0.944 43.5964 1.52667 45.5724 2.692C47.5484 3.85733 49.0811 5.47867 50.1704 7.556C51.2597 9.608 51.8044 11.9893 51.8044 14.7C51.8044 17.436 51.2597 19.8427 50.1704 21.92C49.0811 23.972 47.5484 25.5807 45.5724 26.746C43.5964 27.886 41.3037 28.456 38.6944 28.456ZM38.7324 24.352C40.4297 24.352 41.9117 23.972 43.1784 23.212C44.4451 22.4267 45.4204 21.312 46.1044 19.868C46.7884 18.424 47.1304 16.7013 47.1304 14.7C47.1304 12.6987 46.7884 10.976 46.1044 9.532C45.4204 8.088 44.4451 6.986 43.1784 6.226C41.9117 5.44067 40.4297 5.048 38.7324 5.048C37.0351 5.048 35.5531 5.44067 34.2864 6.226C33.0197 6.986 32.0317 8.088 31.3224 9.532C30.6384 10.976 30.2964 12.6987 30.2964 14.7C30.2964 16.7013 30.6384 18.424 31.3224 19.868C32.0317 21.312 33.0197 22.4267 34.2864 23.212C35.5531 23.972 37.0351 24.352 38.7324 24.352ZM68.2299 28.456C66.3046 28.456 64.5566 28.076 62.9859 27.316C61.4406 26.556 60.1992 25.3907 59.2619 23.82C58.3499 22.2493 57.8939 20.2733 57.8939 17.892V1.4H62.4539V17.93C62.4539 19.374 62.6946 20.5647 63.1759 21.502C63.6572 22.4393 64.3286 23.1487 65.1899 23.63C66.0766 24.086 67.1152 24.314 68.3059 24.314C69.5219 24.314 70.5606 24.086 71.4219 23.63C72.3086 23.1487 72.9799 22.4393 73.4359 21.502C73.9172 20.5647 74.1579 19.374 74.1579 17.93V1.4H78.7179V17.892C78.7179 20.2733 78.2492 22.2493 77.3119 23.82C76.3746 25.3907 75.1079 26.556 73.5119 27.316C71.9159 28.076 70.1552 28.456 68.2299 28.456ZM85.7396 28V1.4H95.2776C97.3803 1.4 99.1156 1.76733 100.484 2.502C101.877 3.21133 102.903 4.174 103.562 5.39C104.246 6.58067 104.588 7.936 104.588 9.456C104.588 10.8747 104.258 12.192 103.6 13.408C102.941 14.624 101.915 15.5993 100.522 16.334C99.1283 17.0687 97.3423 17.436 95.1636 17.436H90.2996V28H85.7396ZM99.6096 28L94.0236 16.258H98.9636L104.816 28H99.6096ZM90.2996 14.054H94.9736C96.6709 14.054 97.9123 13.6487 98.6976 12.838C99.5083 12.002 99.9136 10.9127 99.9136 9.57C99.9136 8.25267 99.5209 7.20133 98.7356 6.416C97.9503 5.60533 96.6963 5.2 94.9736 5.2H90.2996V14.054ZM127.739 28L120.671 1.4H125.535L130.513 22.794L136.289 1.4H141.343L146.929 22.832L151.945 1.4H156.847L149.589 28H144.193L138.721 7.86L133.097 28H127.739ZM173.401 28.456C170.843 28.456 168.575 27.886 166.599 26.746C164.649 25.5807 163.116 23.972 162.001 21.92C160.887 19.8427 160.329 17.436 160.329 14.7C160.329 11.9893 160.887 9.608 162.001 7.556C163.116 5.47867 164.649 3.85733 166.599 2.692C168.575 1.52667 170.843 0.944 173.401 0.944C176.011 0.944 178.303 1.52667 180.279 2.692C182.255 3.85733 183.788 5.47867 184.877 7.556C185.967 9.608 186.511 11.9893 186.511 14.7C186.511 17.436 185.967 19.8427 184.877 21.92C183.788 23.972 182.255 25.5807 180.279 26.746C178.303 27.886 176.011 28.456 173.401 28.456ZM173.439 24.352C175.137 24.352 176.619 23.972 177.885 23.212C179.152 22.4267 180.127 21.312 180.811 19.868C181.495 18.424 181.837 16.7013 181.837 14.7C181.837 12.6987 181.495 10.976 180.811 9.532C180.127 8.088 179.152 6.986 177.885 6.226C176.619 5.44067 175.137 5.048 173.439 5.048C171.742 5.048 170.26 5.44067 168.993 6.226C167.727 6.986 166.739 8.088 166.029 9.532C165.345 10.976 165.003 12.6987 165.003 14.7C165.003 16.7013 165.345 18.424 166.029 19.868C166.739 21.312 167.727 22.4267 168.993 23.212C170.26 23.972 171.742 24.352 173.439 24.352ZM192.867 28V1.4H202.405C204.508 1.4 206.243 1.76733 207.611 2.502C209.004 3.21133 210.03 4.174 210.689 5.39C211.373 6.58067 211.715 7.936 211.715 9.456C211.715 10.8747 211.386 12.192 210.727 13.408C210.068 14.624 209.042 15.5993 207.649 16.334C206.256 17.0687 204.47 17.436 202.291 17.436H197.427V28H192.867ZM206.737 28L201.151 16.258H206.091L211.943 28H206.737ZM197.427 14.054H202.101C203.798 14.054 205.04 13.6487 205.825 12.838C206.636 12.002 207.041 10.9127 207.041 9.57C207.041 8.25267 206.648 7.20133 205.863 6.416C205.078 5.60533 203.824 5.2 202.101 5.2H197.427V14.054ZM218.331 28V1.4H222.891V12.382L232.923 1.4H238.585L228.743 11.964L238.813 28H233.265L225.513 15.46L222.891 18.31V28H218.331ZM253.208 28.456C251.283 28.456 249.573 28.114 248.078 27.43C246.584 26.746 245.418 25.7707 244.582 24.504C243.746 23.2373 243.316 21.73 243.29 19.982H248.116C248.116 20.8687 248.319 21.6667 248.724 22.376C249.155 23.06 249.738 23.6047 250.472 24.01C251.232 24.4153 252.144 24.618 253.208 24.618C254.12 24.618 254.906 24.4787 255.564 24.2C256.248 23.896 256.768 23.478 257.122 22.946C257.502 22.3887 257.692 21.7427 257.692 21.008C257.692 20.172 257.49 19.488 257.084 18.956C256.704 18.3987 256.172 17.93 255.488 17.55C254.804 17.17 254.019 16.8407 253.132 16.562C252.246 16.258 251.308 15.9413 250.32 15.612C248.218 14.9027 246.634 14.0033 245.57 12.914C244.506 11.7993 243.974 10.3173 243.974 8.468C243.974 6.92267 244.342 5.59267 245.076 4.478C245.811 3.36333 246.837 2.502 248.154 1.894C249.497 1.26067 251.042 0.944 252.79 0.944C254.564 0.944 256.109 1.26067 257.426 1.894C258.769 2.52733 259.82 3.414 260.58 4.554C261.366 5.66867 261.771 7.01133 261.796 8.582H256.932C256.907 7.92333 256.73 7.31533 256.4 6.758C256.071 6.17533 255.59 5.70667 254.956 5.352C254.348 4.972 253.601 4.782 252.714 4.782C251.954 4.75667 251.27 4.88333 250.662 5.162C250.08 5.41533 249.611 5.79533 249.256 6.302C248.927 6.78333 248.762 7.39133 248.762 8.126C248.762 8.83533 248.914 9.43067 249.218 9.912C249.548 10.368 250.016 10.7607 250.624 11.09C251.232 11.394 251.942 11.6853 252.752 11.964C253.563 12.2427 254.45 12.5467 255.412 12.876C256.73 13.3067 257.92 13.8387 258.984 14.472C260.074 15.08 260.935 15.878 261.568 16.866C262.202 17.854 262.518 19.1333 262.518 20.704C262.518 22.072 262.164 23.3513 261.454 24.542C260.745 25.7073 259.706 26.6573 258.338 27.392C256.97 28.1013 255.26 28.456 253.208 28.456ZM268.852 28V1.4H278.428C280.556 1.4 282.317 1.76733 283.71 2.502C285.103 3.21133 286.142 4.174 286.826 5.39C287.51 6.606 287.852 7.99933 287.852 9.57C287.852 11.0393 287.523 12.3947 286.864 13.636C286.205 14.852 285.179 15.84 283.786 16.6C282.393 17.3347 280.607 17.702 278.428 17.702H273.412V28H268.852ZM273.412 13.978H278.162C279.961 13.978 281.253 13.5853 282.038 12.8C282.823 11.9893 283.216 10.9127 283.216 9.57C283.216 8.17667 282.823 7.08733 282.038 6.302C281.253 5.51666 279.961 5.124 278.162 5.124H273.412V13.978ZM289.006 28L298.734 1.4H303.826L313.554 28H308.728L301.242 6.72L293.756 28H289.006ZM293.338 21.73L294.554 18.12H307.664L308.88 21.73H293.338ZM329.41 28.456C326.775 28.456 324.495 27.886 322.57 26.746C320.67 25.5807 319.2 23.972 318.162 21.92C317.148 19.8427 316.642 17.4487 316.642 14.738C316.642 12.002 317.148 9.608 318.162 7.556C319.2 5.47867 320.67 3.85733 322.57 2.692C324.495 1.52667 326.775 0.944 329.41 0.944C332.576 0.944 335.16 1.72933 337.162 3.3C339.163 4.84533 340.43 7.03667 340.962 9.874H335.946C335.591 8.37933 334.869 7.20133 333.78 6.34C332.69 5.47867 331.221 5.048 329.372 5.048C327.7 5.048 326.256 5.44067 325.04 6.226C323.849 6.986 322.924 8.10067 322.266 9.57C321.632 11.014 321.316 12.7367 321.316 14.738C321.316 16.7393 321.632 18.462 322.266 19.906C322.924 21.3247 323.849 22.4267 325.04 23.212C326.256 23.972 327.7 24.352 329.372 24.352C331.221 24.352 332.69 23.9593 333.78 23.174C334.869 22.3633 335.591 21.2487 335.946 19.83H340.962C340.455 22.5153 339.188 24.6307 337.162 26.176C335.16 27.696 332.576 28.456 329.41 28.456ZM347.324 28V1.4H364.5V5.086H351.884V12.724H363.36V16.334H351.884V24.314H364.5V28H347.324ZM65.7903 43.4L66.5123 49.29H65.7903C65.1823 47.352 64.1943 44.844 60.6603 44.844H57.1263V66.884C57.1263 68.366 57.5063 69.05 58.9503 69.164V70H51.2743V69.164C52.7183 69.05 53.0983 68.366 53.0983 66.884V44.844H49.5643C46.0303 44.844 45.0423 47.352 44.4343 49.29H43.7123L44.4343 43.4H65.7903ZM89.8749 66.884C90.4829 68.29 91.0909 69.05 92.5349 69.164V70H83.9849V69.164C85.3909 69.05 86.0749 68.1 85.5429 66.732L83.3389 61.412H72.6229L70.5709 66.884C70.0389 68.328 70.6469 69.012 72.0909 69.164V70H66.3149V69.164C67.7589 69.012 68.4049 68.328 68.9369 66.922L76.5749 46.478C77.0309 45.262 76.7649 44.35 75.4349 44.236V43.4H79.9949L89.8749 66.884ZM73.1549 59.968H82.7689L77.7149 47.656L73.1549 59.968ZM118.745 66.884C119.581 68.29 120.417 68.974 121.481 69.164V70H113.311V69.164C114.641 69.05 114.793 67.986 114.033 66.808L107.003 55.56L102.519 60.348V66.884C102.519 68.366 102.899 69.05 104.343 69.164V70H96.7045V69.164C98.1105 69.05 98.4905 68.366 98.4905 66.884V46.478C98.4905 44.996 98.1105 44.35 96.7045 44.236V43.4H104.343V44.236C102.899 44.35 102.519 44.996 102.519 46.478V58.22L113.615 46.516C114.755 45.3 114.565 44.426 113.615 44.236V43.4H118.783V44.236C117.681 44.426 116.769 45.224 115.591 46.478L109.853 52.558L118.745 66.884ZM133.295 44.236C131.889 44.35 131.509 44.996 131.509 46.478V66.884C131.509 68.366 131.889 69.012 133.295 69.164V70H125.657V69.164C127.101 69.012 127.443 68.366 127.443 66.884V46.478C127.443 44.996 127.101 44.35 125.657 44.236V43.4H133.295V44.236ZM157.92 43.4H162.974V44.236C161.53 44.35 161.15 44.996 161.15 46.478V70H158.794L141.846 48.34V66.884C141.846 68.366 142.226 69.012 143.632 69.164V70H138.616V69.164C140.022 69.012 140.402 68.366 140.402 66.884V46.478C140.402 44.996 140.022 44.35 138.616 44.236V43.4H143.29L159.706 64.338V46.478C159.706 44.996 159.326 44.35 157.92 44.236V43.4ZM186.281 58.866H193.729V59.702C192.323 59.816 191.943 60.462 191.943 61.944V67.074C189.967 68.974 186.205 70.532 181.797 70.38C173.931 70.152 167.509 64.984 167.509 56.7C167.509 48.416 173.551 43.02 181.569 43.02C184.989 43.02 188.523 44.122 190.993 45.718V51.114H190.195C189.055 46.364 185.673 44.084 181.569 44.084C175.641 44.084 171.955 49.404 171.955 56.7C171.955 63.996 175.641 68.974 181.569 69.354C184.115 69.506 186.357 68.784 188.067 67.264V61.944C188.067 60.462 187.687 59.816 186.281 59.702V58.866ZM217.89 54.458C222.64 57.232 226.022 59.474 224.73 64.604C223.59 68.936 219.6 70.38 215.648 70.38C212.19 70.38 209.302 69.43 206.832 67.682V62.324H207.554C208.922 66.694 211.506 69.164 215.116 69.354C218.764 69.544 220.588 67.644 221.006 65.25C221.652 61.526 218.612 59.892 215.116 57.916C211.278 55.75 207.136 53.166 208.276 48.074C209.112 44.35 212.304 42.982 215.914 42.982C218.84 42.982 221.006 44.008 223.514 45.68V50.81H222.792C221.652 46.098 219.448 44.16 216.408 44.046C213.444 43.894 211.924 45.414 211.734 47.732C211.43 51.038 214.432 52.444 217.89 54.458ZM255.094 44.236C253.688 44.35 253.308 44.996 253.308 46.478V66.884C253.308 68.366 253.688 69.012 255.094 69.164V70H247.456V69.164C248.9 69.012 249.28 68.366 249.28 66.884V57.118H235.638V66.884C235.638 68.366 236.018 69.012 237.462 69.164V70H229.786V69.164C231.23 69.012 231.61 68.366 231.61 66.884V46.478C231.61 44.996 231.23 44.35 229.786 44.236V43.4H237.462V44.236C236.018 44.35 235.638 44.996 235.638 46.478V55.674H249.28V46.478C249.28 44.996 248.9 44.35 247.456 44.236V43.4H255.094V44.236ZM282.829 66.884C283.437 68.29 284.045 69.05 285.489 69.164V70H276.939V69.164C278.345 69.05 279.029 68.1 278.497 66.732L276.293 61.412H265.577L263.525 66.884C262.993 68.328 263.601 69.012 265.045 69.164V70H259.269V69.164C260.713 69.012 261.359 68.328 261.891 66.922L269.529 46.478C269.985 45.262 269.719 44.35 268.389 44.236V43.4H272.949L282.829 66.884ZM266.109 59.968H275.723L270.669 47.656L266.109 59.968ZM298.778 43.4C304.402 43.4 309.532 46.022 309.532 51.57C309.532 57.08 304.402 59.702 298.778 59.702H295.51V66.884C295.51 68.366 295.89 69.05 297.296 69.164V70H289.658V69.164C291.102 69.05 291.444 68.366 291.444 66.884V46.478C291.444 44.996 291.102 44.35 289.658 44.236V43.4H298.778ZM298.398 58.258C302.616 58.258 305.314 55.94 305.314 51.57C305.314 47.162 302.616 44.844 298.398 44.844H295.51V58.258H298.398ZM333.046 64.072H333.73L333.008 70H314.084V69.164C315.49 69.012 315.87 68.366 315.87 66.884V46.478C315.87 44.996 315.49 44.35 314.084 44.236V43.4H332.172L332.894 49.29H332.172C331.564 47.352 330.538 44.844 327.004 44.844H319.898V55.788H324.61C327.27 55.788 327.992 54.914 328.258 53.318H328.942V59.74H328.258C327.992 58.144 327.27 57.232 324.61 57.232H319.898V68.518H327.878C331.412 68.518 332.4 66.01 333.046 64.072Z" fill="#001D47"/>
</svg>
