<svg width="137" height="61" viewBox="0 0 137 61" fill="none" xmlns="http://www.w3.org/2000/svg">
<path d="M37.9331 0.242188C38.3618 0.309873 38.8017 0.366278 39.2304 0.445245C41.1482 0.806235 42.8629 1.61847 44.4422 2.76913C47.1835 4.76585 49.1351 7.40559 50.7144 10.3612C52.5645 13.8245 53.7264 17.5133 54.4371 21.3601C55.0689 24.7895 55.3058 28.2528 55.2155 31.7386C55.0801 36.9842 54.2002 42.0832 52.2599 46.9679C51.1657 49.743 49.7894 52.3602 47.8716 54.6728C46.2246 56.6582 44.3181 58.3391 41.9266 59.3995C40.618 59.9748 39.253 60.3809 37.8316 60.4261C36.4102 60.4712 35.0114 60.1666 33.6689 59.6815C33.5335 59.6364 33.3982 59.6025 33.2741 59.5348C32.9018 59.2979 32.5634 59.3544 32.1686 59.5348C30.9164 60.0763 29.5965 60.3809 28.2315 60.4486C27.9043 60.4712 27.5659 60.3922 27.2275 60.3809C25.8851 60.3358 24.6329 59.9635 23.392 59.422C24.0801 59.0272 24.757 58.6549 25.3774 58.3052C26.1558 58.9257 26.9229 59.5461 27.7013 60.144C28.0961 60.4486 28.0059 60.4148 28.3669 60.144C30.5892 58.5421 32.3942 56.5454 33.9509 54.3118C36.5117 50.6568 38.2264 46.6182 39.2981 42.2976C40.0314 39.3645 40.4149 36.3864 40.5841 33.3743C40.7195 30.7797 40.6857 28.1964 40.4601 25.613C39.9637 19.8598 38.5423 14.3659 35.6995 9.3008C35.1129 8.25167 34.4135 7.25894 33.7592 6.25493C33.6576 6.10828 33.6464 6.00676 33.7592 5.87139C34.3571 5.13812 34.9549 4.39358 35.5528 3.66032C35.6205 3.58136 35.6995 3.50238 35.7785 3.42341C36.7486 4.22436 37.6172 5.11556 38.4069 6.07444C40.539 8.65778 42.0281 11.6021 43.19 14.7269C44.194 17.4456 44.8596 20.2659 45.277 23.1312C45.7846 26.6622 45.9087 30.1931 45.6831 33.7466C45.3447 39.1163 44.1715 44.2943 41.8814 49.1789C40.5165 52.0781 38.7792 54.7066 36.3876 56.8613C35.88 57.3125 35.3498 57.7186 34.797 58.1699C35.2144 58.5421 35.6205 58.937 36.0605 59.3092C36.5004 59.6815 36.9517 60.0199 37.448 60.4148C38.0685 59.8958 38.7115 59.4108 39.3094 58.8693C41.9943 56.4439 44.0474 53.556 45.6944 50.3634C47.4317 46.9792 48.5598 43.3918 49.2479 39.6578C49.9135 36.0366 50.1278 32.3703 50.0263 28.6927C49.8909 24.0224 49.2028 19.4424 47.6686 15.009C46.3149 11.117 44.3745 7.54096 41.7686 4.34845C40.5052 2.80296 39.0725 1.44925 37.4142 0.309879C36.5343 0.896488 35.722 1.57334 34.9549 2.29532C32.1234 4.99147 30.0703 8.2291 28.412 11.7262C27.0244 14.648 26.1445 17.7277 25.5466 20.8863C24.9262 24.2142 24.6893 27.5759 24.7231 30.9489C24.7795 35.7997 25.4677 40.5603 26.9906 45.1742C27.0244 45.287 27.0357 45.4224 27.0019 45.5239C26.3701 47.3965 25.6143 49.2128 24.678 50.95C24.6554 50.9839 24.6329 51.0177 24.5878 51.0854C24.5313 51.0065 24.4975 50.95 24.4637 50.8824C22.7828 47.8816 21.6209 44.6891 20.8538 41.3387C19.8836 37.1535 19.5339 32.9118 19.6693 28.6251C19.7821 24.9813 20.2559 21.3827 21.226 17.863C22.1285 14.569 23.392 11.4103 25.1969 8.49984C25.4677 8.05988 25.5015 7.76658 25.1969 7.37175C24.8585 6.94307 24.5765 6.46927 24.238 5.97291C24.9375 5.11556 25.6482 4.23565 26.3927 3.32189C26.9568 3.84081 27.4757 4.31461 27.9833 4.76585C28.8632 3.99875 29.7544 3.23164 30.702 2.41941C29.856 1.73127 28.9873 1.02058 28.0623 0.264754C27.1147 1.0657 26.1671 1.78768 25.3097 2.59991C23.2679 4.51767 21.6998 6.79643 20.3236 9.22183C18.3494 12.7189 17.0859 16.4642 16.3075 20.39C15.5404 24.248 15.3035 28.14 15.4163 32.0545C15.5517 36.7022 16.2399 41.271 17.7853 45.6818C18.8796 48.8179 20.3348 51.7623 22.2977 54.4584C22.4105 54.6051 22.4105 54.6953 22.2977 54.842C21.6434 55.6542 20.9891 56.4777 20.3236 57.3238C20.1995 57.2223 20.1318 57.1659 20.0528 57.1095C17.8417 55.203 16.1496 52.9129 14.7959 50.3522C12.9233 46.8099 11.7387 43.0421 11.028 39.1163C10.385 35.5854 10.182 32.0206 10.3061 28.4333C10.4753 23.3343 11.3665 18.382 13.2504 13.6214C14.5026 10.4627 16.1496 7.55224 18.4396 5.03659C19.2519 4.15668 20.1205 3.33317 21.1132 2.64504C21.1583 2.61119 21.1922 2.57735 21.2373 2.53223C20.4815 1.72 19.6693 0.998017 18.7555 0.388845C18.6991 0.355002 18.5412 0.38884 18.4622 0.445245C17.2326 1.29132 16.1158 2.27277 15.1118 3.3783C11.9644 6.85283 9.7533 10.8576 8.26422 15.291C7.35046 17.9984 6.75258 20.7622 6.40287 23.5937C5.99676 26.9442 5.89522 30.2946 6.09828 33.6676C6.36902 38.2139 7.19252 42.636 8.83954 46.9002C10.3061 50.6793 12.3141 54.12 15.0215 57.1546C16.0932 58.3503 17.289 59.422 18.6427 60.3358C18.7555 60.2681 18.8796 60.2004 18.9924 60.1215C21.0681 58.6211 22.7941 56.7823 24.2945 54.7179C27.0244 50.9613 28.8294 46.7874 29.9462 42.3089C30.5892 39.7255 30.984 37.0971 31.1758 34.446C31.345 32.1447 31.3789 29.8547 31.2548 27.5534C31.0405 23.4471 30.3523 19.4311 29.0663 15.5166C29.0212 15.3812 28.9986 15.212 29.0437 15.0879C29.6529 13.2266 30.4087 11.4329 31.3338 9.7069C31.3676 9.6505 31.4014 9.60538 31.4578 9.50385C31.8188 10.192 32.1685 10.8463 32.4957 11.5119C33.9058 14.4223 34.8534 17.4908 35.4852 20.6607C36.241 24.4173 36.4891 28.2189 36.3763 32.0319C36.2184 37.1535 35.3272 42.1396 33.432 46.9228C32.6536 48.8744 31.7512 50.7583 30.6005 52.5181C30.5215 52.6422 30.5328 52.7324 30.6005 52.8453C31.0066 53.4657 31.4127 54.0861 31.8414 54.7404C31.1533 55.5865 30.4426 56.4664 29.7093 57.3689C29.1227 56.8387 28.5699 56.3423 27.9946 55.8347C27.8931 55.9475 27.7915 56.0603 27.6787 56.1731C25.5128 58.418 22.9182 59.8394 19.8159 60.3245C18.4058 60.5389 17.0408 60.3245 15.6984 59.9184C12.8104 59.0385 10.4753 57.3463 8.53497 55.0789C6.38031 52.5632 4.85737 49.6979 3.66159 46.6295C2.62374 43.9672 1.92432 41.2033 1.47308 38.3831C1.13465 36.2848 0.94288 34.1753 0.875194 32.0545C0.875194 31.9529 0.85264 31.8514 0.830078 31.7499V28.9522C0.841359 28.8394 0.863913 28.7266 0.875194 28.6138C0.931599 26.5042 1.13465 24.3947 1.47308 22.3077C2.1161 18.303 3.28932 14.4675 5.09427 10.835C6.51567 7.9922 8.32062 5.45399 10.7799 3.40086C12.5623 1.91177 14.5477 0.86264 16.849 0.445245C17.2777 0.366278 17.6951 0.321157 18.1238 0.253471H19.0263C19.0939 0.276033 19.1616 0.298596 19.2293 0.298596C20.5605 0.411405 21.8239 0.738552 23.031 1.3026C23.2002 1.38157 23.3356 1.38157 23.5048 1.3026C24.4072 0.896485 25.3436 0.614465 26.325 0.43397C26.7424 0.355004 27.1711 0.309873 27.5998 0.242188H28.3443C28.5248 0.27603 28.7053 0.33244 28.8858 0.343721C30.1267 0.445249 31.3225 0.78368 32.4618 1.28004C32.6423 1.35901 32.7777 1.35901 32.9582 1.28004C33.9397 0.851365 34.9549 0.546779 36.0041 0.388845C36.3425 0.332441 36.6809 0.287311 37.0194 0.242188H37.9218H37.9331Z" fill="#EFEDDF"/>
<path d="M110.774 41.2599C110.74 41.384 110.717 41.4743 110.695 41.5533C109.939 43.7418 109.183 45.919 108.439 48.1075C108.371 48.288 108.292 48.3444 108.1 48.3444C100.576 48.3444 93.0514 48.3444 85.5271 48.3444H85.2789V46.9568C85.4932 46.923 85.7188 46.8891 85.9332 46.8553C86.6213 46.7538 87.2643 46.5733 87.8284 46.122C88.3698 45.6934 88.5729 45.1067 88.6406 44.4637C88.7083 43.8546 88.7534 43.2341 88.7534 42.625C88.7534 34.2319 88.7534 25.8389 88.7534 17.4459C88.7534 16.8818 88.697 16.3178 88.5842 15.765C88.3473 14.7046 87.6027 14.1406 86.5875 13.8811C86.1588 13.7796 85.7188 13.7232 85.2676 13.6555V12.3018H100.553V13.7119C100.136 13.7683 99.6734 13.8134 99.2334 13.8811C98.895 13.9375 98.5566 14.0052 98.2294 14.1067C97.2931 14.3887 96.808 15.0769 96.6952 16.0019C96.5937 16.8254 96.5373 17.6489 96.5373 18.4724C96.526 25.8953 96.526 33.3294 96.5373 40.7523C96.5373 41.7225 96.5937 42.6926 96.8418 43.629C97.0449 44.4186 97.5074 44.9375 98.2971 45.197C99.0191 45.4339 99.7523 45.5241 100.508 45.558C101.828 45.6144 103.148 45.6595 104.456 45.3549C106.295 44.9375 107.615 43.832 108.54 42.2188C108.687 41.9594 108.811 41.6886 108.969 41.4292C109.014 41.3615 109.093 41.2599 109.161 41.2599C109.691 41.2487 110.221 41.2599 110.785 41.2599" fill="#EFEDDF"/>
<path d="M136.248 41.2599C136.067 41.7902 135.898 42.2865 135.729 42.7829C135.119 44.5653 134.499 46.3364 133.901 48.1188C133.845 48.288 133.777 48.3444 133.585 48.3444C126.038 48.3444 118.503 48.3444 110.956 48.3444H110.73V46.9568C111.035 46.9117 111.362 46.8666 111.666 46.8102C112.163 46.7199 112.637 46.562 113.065 46.2913C113.832 45.8062 114.069 45.0503 114.137 44.2156C114.193 43.4936 114.227 42.7603 114.227 42.0271C114.227 34.0853 114.227 26.1435 114.227 18.1904C114.227 17.4684 114.193 16.7464 114.092 16.0357C113.934 14.84 113.167 14.1744 112.05 13.8924C111.621 13.7796 111.17 13.7344 110.719 13.6555V12.3018H126.038V13.7006C125.474 13.7796 124.91 13.836 124.357 13.9375C122.834 14.2195 122.203 14.9189 122.079 16.4644C122.022 17.209 121.988 17.9648 121.988 18.7093C121.988 26.0307 121.977 33.352 121.988 40.6733C121.988 41.5532 122.113 42.4445 122.225 43.3244C122.372 44.4637 123.06 45.118 124.166 45.3211C126.129 45.6934 128.091 45.7611 130.043 45.3211C131.837 44.915 133.089 43.7756 133.991 42.2188C134.138 41.9594 134.262 41.6886 134.409 41.4292C134.454 41.3615 134.544 41.2825 134.612 41.2825C135.142 41.2712 135.672 41.2825 136.225 41.2825" fill="#EFEDDF"/>
<path d="M67.6704 13.6668V12.3018H82.9335V13.6668C82.6289 13.7119 82.3243 13.757 82.0197 13.8134C80.3163 14.1293 79.5492 14.9866 79.4477 16.7126C79.4138 17.3669 79.3913 18.0212 79.3913 18.6642C79.3913 25.2974 79.3913 31.9306 79.3913 38.5638C79.3913 40.2559 79.2333 41.9368 78.6693 43.55C77.654 46.4717 75.6234 48.2767 72.634 48.9648C70.2424 49.5176 67.8621 49.495 65.5157 48.7505C63.0113 47.9496 61.432 46.2123 60.5972 43.7643C60.3265 42.9747 60.1573 42.1624 59.9316 41.3051C60.5521 41.3051 61.0936 41.3051 61.6463 41.3051C61.7028 41.3051 61.7817 41.4179 61.8043 41.4969C62.075 42.3993 62.4698 43.2228 63.1129 43.911C64.6245 45.558 66.4746 46.0656 68.6067 45.4903C70.0168 45.118 70.7839 44.0802 71.2126 42.749C71.5849 41.5871 71.6751 40.38 71.6751 39.173C71.6751 32.1675 71.6751 25.162 71.6751 18.1678C71.6751 17.3782 71.5961 16.5885 71.472 15.8101C71.3254 14.8738 70.7501 14.2759 69.8363 14.039C69.2384 13.8924 68.6293 13.8134 68.0201 13.7119C67.9073 13.6893 67.7945 13.678 67.6816 13.6555" fill="#EFEDDF"/>
</svg>
