<svg width="224" height="34" viewBox="0 0 224 34" fill="none" xmlns="http://www.w3.org/2000/svg">
<g clip-path="url(#clip0_1948_3265)">
<path d="M18.0319 16.9105C17.8021 16.7212 17.6534 16.5049 17.5047 16.5049C17.356 16.5049 17.2209 16.7482 17.0722 16.8699C17.2073 17.0051 17.329 17.2484 17.4777 17.2619C17.6264 17.2754 17.7886 17.0592 18.0319 16.897M17.4371 18.1946C17.0181 17.7755 16.5855 17.3565 16.18 16.9375C16.6261 16.5049 17.0722 16.0724 17.5318 15.6263C17.8967 16.0319 18.3293 16.4914 18.7618 16.9645C18.3833 17.316 17.9237 17.7485 17.4371 18.1946ZM17.4912 22.3308C16.5991 23.1959 15.5988 24.007 14.7742 24.9803C13.6388 26.3185 13.8821 28.3325 15.1798 29.522C16.4774 30.7251 18.4644 30.7386 19.7621 29.5762C21.1003 28.3596 21.3571 26.332 20.1947 24.9667C19.3701 23.9935 18.3698 23.1825 17.4912 22.3174M17.5047 21.3847C18.505 22.3579 19.5323 23.3041 20.4785 24.3179C21.9654 25.913 21.8573 28.4002 20.2893 29.9276C18.7754 31.3875 16.3152 31.4145 14.7742 29.9952C13.1522 28.4948 12.9764 26.0211 14.4498 24.3855C15.396 23.3311 16.4639 22.3985 17.5047 21.3847ZM22.817 16.8834C23.7227 17.8026 24.5202 18.7083 25.4258 19.5058C26.8046 20.7223 28.8592 20.5736 30.1028 19.2354C31.3464 17.9107 31.3329 15.8561 30.0758 14.5314C28.8187 13.2067 26.764 13.0715 25.3853 14.3016C24.4931 15.0991 23.6821 15.9913 22.8035 16.8699M21.9114 16.8834C22.8846 15.9102 23.8308 14.9234 24.8176 13.9907C26.4667 12.4362 28.9268 12.5038 30.4813 14.0853C32.0088 15.6398 32.0087 18.2081 30.4543 19.7626C28.8998 21.3171 26.4396 21.3576 24.7905 19.8031C23.8173 18.8839 22.9117 17.9108 21.9114 16.897M12.1654 16.9239C11.2868 16.0318 10.5163 15.1397 9.63768 14.3422C8.23189 13.0716 6.17725 13.1932 4.89311 14.545C3.636 15.8832 3.63602 17.8972 4.90664 19.2354C6.2043 20.6007 8.24542 20.6953 9.65121 19.4111C10.5163 18.6136 11.3138 17.7486 12.1519 16.9105M13.0981 16.9239C12.1249 17.8972 11.1786 18.8704 10.1784 19.8031C8.50222 21.3846 6.02859 21.3036 4.46059 19.668C2.96017 18.1135 2.98719 15.5993 4.52816 14.0583C6.10968 12.4632 8.58335 12.4497 10.246 14.0583C11.2057 14.991 12.1249 15.9507 13.0981 16.9239ZM17.4777 11.5576C18.3563 10.6925 19.2349 9.90854 20.0325 9.04343C21.3031 7.66467 21.1949 5.59652 19.8567 4.29886C18.5591 3.04176 16.5045 3.04176 15.1527 4.29886C13.801 5.56948 13.6794 7.63764 14.9365 9.04343C15.7205 9.92206 16.5991 10.706 17.4642 11.5712M17.5047 12.3416C16.4774 11.3549 15.3285 10.3816 14.3417 9.25967C12.9494 7.66464 13.2198 5.21803 14.8013 3.7852C16.3828 2.36589 18.8024 2.40645 20.3028 3.87983C21.8168 5.35321 21.979 7.82687 20.5596 9.36783C19.5864 10.4222 18.4915 11.3819 17.5047 12.3281M16.8424 20.506C16.6126 20.5601 16.3287 20.5466 16.18 20.6818C15.3014 21.5198 14.4498 22.3715 13.6118 23.2366C11.5436 25.3993 11.5842 28.7651 13.6793 30.8332C15.761 32.8879 19.1268 32.9284 21.222 30.9143C23.3983 28.8327 23.4929 25.4668 21.4112 23.2635C19.8973 21.6685 18.3023 20.1276 16.7478 18.5731C16.3693 18.1946 16.0043 17.7891 15.6529 17.4242C15.0852 17.7215 15.2203 17.9378 15.5177 18.2352C17.2344 19.9383 18.9511 21.6415 20.6407 23.3717C21.0733 23.8178 21.4923 24.318 21.7762 24.8586C22.8846 27.0214 22.1546 29.6572 20.1406 30.9819C18.086 32.3336 15.4636 31.9687 13.8551 30.1303C12.2465 28.292 12.2736 25.5615 13.9632 23.7367C14.9094 22.7229 15.9232 21.7767 16.9235 20.8035C16.8965 20.6953 16.8559 20.5871 16.8289 20.479M18.0995 13.2473C18.3293 13.2067 18.6402 13.2608 18.7754 13.1391C19.7351 12.2064 20.7218 11.2873 21.6005 10.287C23.5334 8.07017 23.3036 4.77196 21.1274 2.7714C19.0727 0.878988 15.8016 0.919563 13.7469 2.87957C11.6653 4.85309 11.4625 8.24588 13.436 10.3546C15.3555 12.3957 17.4101 14.3152 19.4242 16.3022C19.9108 16.0589 19.7215 15.8155 19.4242 15.5046C17.6669 13.7744 15.9232 12.0172 14.1795 10.2735C13.1252 9.21912 12.5709 7.93503 12.7061 6.43461C12.8953 4.24482 14.4363 2.51456 16.5315 2.08201C18.5591 1.66298 20.6678 2.63623 21.6816 4.46106C22.7224 6.33996 22.4115 8.58381 20.857 10.1924C19.9378 11.1386 19.0051 12.0578 18.086 12.9905C18.086 13.0851 18.086 13.1662 18.086 13.2608M18.87 18.857C20.6002 17.0997 22.3439 15.356 24.1012 13.6123C25.4799 12.2335 27.129 11.7604 29.0079 12.3281C30.8598 12.8823 32.2521 14.6261 32.3737 16.4779C32.5089 18.5326 31.4545 20.3844 29.6567 21.2359C27.8454 22.1011 25.7503 21.7767 24.2498 20.3574C23.2631 19.4247 22.3169 18.4514 21.3436 17.4917C21.2625 17.5052 21.1949 17.5187 21.1138 17.5322C21.1409 17.7485 21.0868 18.0595 21.2085 18.1811C22.1141 19.1273 23.0198 20.087 23.993 20.9657C25.2501 22.1011 26.7776 22.5471 28.4537 22.2497C30.8733 21.8172 32.5765 20.0465 32.9279 17.6675C33.2659 15.4236 32.0763 13.1392 30.0352 12.0983C27.913 11.017 25.4799 11.3954 23.7227 13.1256C21.8167 15.0045 19.9243 16.9104 18.0319 18.8029C18.2752 19.303 18.505 19.2219 18.8429 18.8704M16.0854 14.964C14.3552 16.7212 12.598 18.465 10.8542 20.2087C9.48898 21.5604 7.86693 22.0335 6.01506 21.4928C4.10913 20.9386 2.7709 19.2354 2.60869 17.2889C2.44648 15.3695 3.54138 13.4501 5.31214 12.5849C7.06938 11.7198 9.19162 12.0172 10.665 13.396C11.6788 14.3422 12.6385 15.3559 13.6118 16.3427C13.6929 16.3292 13.774 16.3157 13.8551 16.2887C13.828 16.0724 13.8956 15.7615 13.774 15.6399C12.8683 14.6937 11.9626 13.7339 10.9759 12.8553C8.77256 10.9088 5.50139 11.0575 3.50083 13.1527C1.48676 15.2613 1.48676 18.546 3.50083 20.6412C5.5149 22.7499 8.81314 22.9392 10.9624 20.9386C13.017 19.0327 14.9365 16.9645 16.9235 14.9774C16.6667 14.4638 16.4098 14.653 16.1125 14.9774M160.531 28.3325C158.409 28.3325 158.422 28.3326 158.49 30.4953C158.503 31.036 158.638 31.2523 159.206 31.2252C160.234 31.1847 161.274 31.1306 162.288 31.2388C163.356 31.3469 163.599 30.9549 163.545 29.9546C163.464 28.3325 163.518 28.3325 161.91 28.3325C161.626 28.3325 161.342 28.3325 161.058 28.3325C160.882 28.3325 160.707 28.3325 160.531 28.3325ZM193.648 25.3047C193.648 20.1005 193.648 14.9099 193.648 9.70577C193.648 7.08342 193.648 7.12399 191.039 7.11048C190.269 7.11048 190.093 7.34022 190.093 8.07015C190.12 13.2337 190.107 18.3974 190.107 23.561C190.107 25.7508 191.202 26.76 193.391 26.5888C193.391 26.5888 193.459 26.5618 193.635 26.4942V25.3047H193.648ZM43.0253 25.5615C43.0118 26.386 43.1875 26.6564 44.0661 26.6428C46.8777 26.5888 49.6893 26.6159 52.5009 26.6159C55.0016 26.6159 54.9746 26.6159 54.9205 24.1557C54.907 23.5204 54.6907 23.3852 54.1095 23.3852C51.9332 23.4123 49.7704 23.3717 47.5942 23.4123C46.8102 23.4258 46.5533 23.223 46.5533 22.3985C46.5939 18.1946 46.5668 14.0043 46.5668 9.8004C46.5668 7.04288 46.5668 7.06992 43.8499 7.11048C43.201 7.11048 42.9983 7.29971 43.0118 7.94854C43.0388 10.9088 43.0253 13.8556 43.0253 16.8159C43.0253 19.7356 43.0523 22.6553 43.0118 25.575M95.0668 15.9778C95.1479 15.1803 94.9316 14.9234 94.107 14.9505C92.3633 15.0181 90.6196 14.9504 88.8758 14.9774C88.1865 14.991 87.9297 14.7882 87.9702 14.0583C88.0378 13.0986 88.0243 12.1388 87.9702 11.1791C87.9297 10.5168 88.173 10.3141 88.8218 10.3276C90.7007 10.3546 92.5931 10.3276 94.4855 10.3276C96.8375 10.3276 96.8105 10.3276 96.7699 7.94854C96.7699 7.20509 96.4861 7.08341 95.8372 7.08341C92.3903 7.11045 88.9299 7.12397 85.483 7.08341C84.6855 7.08341 84.4692 7.28616 84.4692 8.08368C84.5098 13.3824 84.4827 18.6812 84.4827 23.9935C84.4827 26.6835 84.4828 26.6564 87.1592 26.6159C87.835 26.6159 87.9972 26.3861 87.9837 25.7643C87.9567 23.561 87.9972 21.3576 87.9567 19.1408C87.9432 18.3973 88.1594 18.1541 88.9164 18.1676C90.9034 18.2081 92.8905 18.1811 95.0397 18.1811C95.0397 17.3701 94.9721 16.6536 95.0532 15.9643M197.528 21.1414C197.298 21.3171 197.122 21.8443 197.203 22.1281C198.339 26.0346 202.934 28.0081 206.719 26.2373C210.423 24.5071 211.085 19.3706 207.868 16.8564C206.963 16.14 205.841 15.6804 204.827 15.0991C204.056 14.6666 203.245 14.2881 202.543 13.7474C201.367 12.8553 201.191 11.6928 201.961 10.8007C202.732 9.90852 204.124 9.895 205.111 10.8007C205.543 11.1927 205.881 11.6793 206.273 12.1253C207.22 11.517 208.112 10.9494 208.99 10.3816C207.855 7.96204 206.016 6.84008 203.354 6.89415C201.069 6.9347 199.204 8.20537 198.487 10.233C197.69 12.4363 198.244 14.8423 200.042 16.2211C201.042 16.9916 202.245 17.5052 203.34 18.1541C204.11 18.6001 204.908 18.9922 205.611 19.5328C206.395 20.1276 206.53 20.9927 206.26 21.9389C206.003 22.8716 205.354 23.3717 204.448 23.5339C203.11 23.7772 201.948 23.3717 201.15 22.2768C200.596 21.5198 200.204 20.6277 199.704 19.722C199.001 20.1546 198.217 20.5736 197.528 21.1143M165.586 7.92148C162.261 6.11016 157.584 6.70495 154.827 9.30026C152.056 11.8956 151.65 15.2208 152.042 18.7488C152.785 25.4128 159.341 28.4001 165.032 26.0887C167.262 25.183 168.547 23.4123 169.168 21.0332C168.371 20.817 167.614 20.6547 166.884 20.4114C166.276 20.2087 165.951 20.3168 165.64 20.9386C164.708 22.8175 163.099 23.6691 161.031 23.6285C158.936 23.588 157.273 22.6688 156.354 20.7899C155.097 18.2217 155.07 15.5182 156.368 12.9634C158.044 9.6787 162.95 9.00282 164.951 11.9361C166.059 13.5581 167.033 13.5041 168.452 12.9499C168.655 12.8688 168.858 12.8283 169.168 12.7471C168.601 10.5979 167.479 8.97585 165.586 7.94854M225.306 23.3988C222.629 23.3988 220.034 23.3852 217.438 23.3988C216.803 23.3988 216.546 23.2366 216.573 22.5607C216.614 21.3847 216.655 20.2086 216.573 19.0326C216.492 18.0188 216.857 17.762 217.831 17.8026C219.655 17.8837 221.494 17.8297 223.4 17.8297C223.4 16.897 223.359 16.1264 223.4 15.3424C223.44 14.7747 223.237 14.599 222.683 14.599C221.115 14.626 219.547 14.599 217.979 14.599C216.587 14.599 216.573 14.599 216.587 13.2338C216.587 12.3146 216.29 11.0034 216.763 10.5709C217.317 10.0843 218.56 10.3276 219.507 10.3141C221.345 10.287 223.183 10.3141 224.981 10.3141V7.08341C221.169 7.08341 217.425 7.08344 213.694 7.11048C213.478 7.11048 213.072 7.543 213.072 7.75928C213.032 13.815 213.045 19.8707 213.072 25.9129C213.072 26.1292 213.424 26.5348 213.627 26.5348C217.506 26.5753 221.386 26.5617 225.306 26.5617V23.3446V23.3988ZM123.98 12.0983C123.899 12.0983 123.804 12.1118 123.723 12.1253C123.075 14.2746 122.426 16.4373 121.763 18.6407H125.981C125.291 16.3833 124.643 14.2341 123.98 12.0848M115.478 26.6159C117.397 20.9521 119.263 15.4235 121.128 9.90848C121.155 9.84089 121.182 9.77335 121.209 9.70577C122.128 6.97528 122.128 6.96173 124.98 7.13745C125.278 7.15097 125.737 7.43488 125.819 7.69171C127.941 13.9232 130.036 20.1546 132.118 26.3995C132.118 26.4266 132.104 26.4672 132.077 26.6159C131.05 26.6159 129.995 26.6564 128.941 26.5888C128.698 26.5753 128.36 26.2509 128.265 25.994C127.873 24.9262 127.616 23.8042 127.197 22.7499C127.076 22.4255 126.603 22.0335 126.278 22.02C124.643 21.9524 122.993 21.9524 121.358 22.02C121.047 22.02 120.601 22.3849 120.493 22.6823C120.087 23.7366 119.844 24.8586 119.452 25.9265C119.344 26.2239 118.911 26.5618 118.6 26.5753C117.614 26.6564 116.613 26.6023 115.451 26.6023M180.793 18.6677C180.104 16.3698 179.442 14.2205 178.793 12.0713C178.712 12.0713 178.644 12.0713 178.563 12.0713C177.901 14.234 177.238 16.4103 176.549 18.6812H180.793V18.6677ZM187.025 26.6159C185.889 26.6159 184.821 26.6564 183.767 26.5888C183.524 26.5753 183.186 26.2373 183.091 25.9805C182.699 24.9127 182.442 23.7908 182.023 22.7364C181.902 22.412 181.415 22.047 181.077 22.0335C179.482 21.9659 177.874 22.0199 176.265 21.9929C175.711 21.9929 175.44 22.1552 175.292 22.7094C175.008 23.8043 174.67 24.8991 174.264 25.967C174.156 26.2373 173.778 26.5753 173.494 26.5888C172.467 26.6699 171.439 26.6159 170.277 26.6159C171.074 24.2909 171.831 22.0876 172.575 19.8708C173.913 15.9237 175.251 11.9902 176.549 8.04317C176.765 7.36731 177.035 7.09694 177.792 7.09694C180.469 7.1375 180.442 7.09696 181.293 9.65173C183.105 15.0451 184.93 20.4384 186.741 25.8183C186.822 26.0481 186.89 26.2779 186.984 26.6159M67.2618 18.6812C66.5724 16.4239 65.9235 14.2476 65.2612 12.0848C65.1801 12.0848 65.099 12.0983 65.0179 12.1118C64.3555 14.2746 63.6932 16.4238 63.0038 18.6947H67.2482L67.2618 18.6812ZM56.7724 26.6159C58.2322 22.2633 59.6651 18.0324 61.0979 13.788C61.7602 11.8415 62.4496 9.89501 63.0849 7.93501C63.2742 7.34025 63.531 7.09694 64.1934 7.09694C66.9238 7.09694 66.9238 7.06993 67.8024 9.65173C69.6949 15.2749 71.6008 20.8846 73.5338 26.6159C72.3577 26.6159 71.2764 26.6564 70.1815 26.5888C69.9517 26.5753 69.6408 26.1968 69.5462 25.9265C69.1812 24.8856 68.8433 23.8313 68.5594 22.7769C68.4107 22.1957 68.1539 21.9659 67.5321 21.9795C65.9641 22.02 64.3961 22.0335 62.8281 21.9795C62.1387 21.9524 61.8954 22.2497 61.7332 22.8445C61.4358 23.9124 61.1249 24.9667 60.7329 25.994C60.6383 26.2509 60.2869 26.5753 60.0436 26.5888C58.9892 26.6564 57.9348 26.6159 56.7724 26.6159ZM105.705 14.8829C106.137 14.8829 106.556 14.8829 106.989 14.8829C108.611 14.8559 109.341 14.1665 109.354 12.666C109.368 11.1251 108.611 10.3816 106.962 10.341C106.543 10.341 106.11 10.341 105.678 10.341C104.173 10.341 103.42 11.1025 103.42 12.6255C103.42 14.1484 104.177 14.9009 105.691 14.8829M108.719 18.073C110.476 20.9116 112.193 23.6826 114.004 26.6159C112.72 26.6159 111.598 26.6564 110.49 26.5888C110.193 26.5618 109.841 26.2103 109.652 25.9265C108.273 23.7637 106.935 21.5874 105.583 19.4111C105.394 19.1138 105.259 18.7082 104.988 18.5325C104.637 18.3162 104.164 18.2216 103.745 18.2216C103.637 18.2216 103.434 18.7623 103.42 19.0597C103.393 21.5469 103.407 24.0341 103.407 26.6159C102.339 26.6159 101.379 26.6564 100.447 26.5753C100.244 26.5618 99.933 26.0887 99.9195 25.8318C99.8654 24.3314 99.8924 22.8445 99.8924 21.3441C99.8924 16.924 99.9195 12.5174 99.8789 8.09721C99.8789 7.29969 100.082 7.06991 100.879 7.09694C103.015 7.15101 105.151 7.06985 107.286 7.12392C111.45 7.24558 113.761 10.4087 112.639 14.4233C112.207 15.9642 111.26 17.0456 109.76 17.6404C109.436 17.762 109.125 17.8972 108.719 18.0594M138.43 14.3151C140.241 17.5863 142.053 20.844 143.851 24.1287C145.256 26.6834 145.243 26.6564 148.095 26.6428C148.879 26.6428 149.028 26.3861 149.014 25.6696C148.987 20.3709 149.001 15.0586 149.001 9.75981C149.001 7.08339 149.001 7.11048 146.338 7.11048C145.635 7.11048 145.432 7.29968 145.446 8.00258C145.486 10.4222 145.459 12.8418 145.459 15.2613V20.033C145.202 19.7221 145.081 19.6139 145.013 19.4787C142.877 15.6263 140.755 11.7604 138.592 7.90795C138.417 7.58353 138.038 7.19154 137.714 7.15098C136.659 7.05636 135.592 7.11048 134.51 7.11048V26.5483H137.93V13.7474C138.241 14.0989 138.349 14.1934 138.417 14.3016M20.5056 18.4514C21.4383 19.4111 22.371 20.4385 23.3848 21.3847C25.6151 23.4934 29.035 23.642 31.4005 21.7631C33.8471 19.8167 34.5095 16.5184 32.9685 13.8285C30.9814 10.3546 26.318 9.65172 23.3577 12.4363C22.3574 13.3825 21.4247 14.4233 20.492 15.383C19.9378 14.8559 19.5053 14.4368 18.9781 13.9231C20.0189 12.9229 21.1003 11.9632 22.0736 10.8953C24.6148 8.13777 24.0606 3.74462 20.9516 1.64945C18.3022 -0.121312 14.8418 0.36529 12.7737 2.81191C10.7326 5.2315 10.8542 8.74604 13.0711 11.0575C14.0173 12.0443 15.0176 12.9634 15.8962 13.8015C15.396 14.3557 14.9905 14.8153 14.5174 15.3424C13.5847 14.3827 12.6655 13.4095 11.7058 12.4768C10.1378 10.9629 8.24539 10.4086 6.12318 10.8412C3.54139 11.3683 1.56789 13.5311 1.28402 16.0318C0.973127 18.7353 2.27076 21.209 4.59573 22.385C7.01532 23.6015 9.75935 23.1825 11.7194 21.263C12.6791 20.3303 13.5847 19.3571 14.5174 18.3974C15.0311 18.9245 15.4636 19.357 15.9773 19.8842C14.9905 20.8439 13.9632 21.7631 13.0035 22.7769C11.0029 24.8991 10.7866 28.0892 12.4087 30.4818C14.0173 32.8473 17.0722 33.7935 19.7351 32.7527C23.8443 31.1441 25.0068 25.9535 21.9384 22.7229C20.9922 21.7226 19.9514 20.8034 18.9511 19.8437C19.4647 19.3165 19.8567 18.9245 20.2487 18.5325C20.2758 18.5055 20.3434 18.492 20.5056 18.4244M0.51353 16.194C0.594634 15.9507 0.689245 15.7074 0.756831 15.4506C1.36511 12.9499 2.86552 11.2332 5.31214 10.4492C7.7858 9.6652 10.0432 10.1924 11.9897 11.9226C12.7466 12.612 13.4496 13.3689 14.1795 14.0853C14.5985 14.5044 14.612 14.4908 15.1257 13.8961C14.2606 13.0715 13.3414 12.2876 12.5439 11.3954C10.5839 9.20563 10.1649 6.66434 11.3409 4.00144C12.4763 1.40613 14.6255 0.0274173 17.4371 0.000382745C20.3163 -0.0266518 22.4656 1.3791 23.6956 4.01497C24.8446 6.48863 24.3309 9.44896 22.4655 11.4225C21.6545 12.2741 20.7894 13.0851 19.9243 13.9367C20.1676 14.3827 20.3569 14.599 20.7894 14.1394C21.5058 13.3689 22.2358 12.612 23.0198 11.9091C25.0338 10.1113 27.3858 9.61113 29.9136 10.5303C32.4413 11.4495 33.9282 13.3148 34.3202 15.9912C34.7257 18.6541 33.3875 21.3982 31.049 22.7364C28.6159 24.1422 25.534 23.9665 23.4253 22.2228C22.4791 21.4388 21.6275 20.5331 20.7624 19.6409C20.3839 19.2489 20.1676 19.3435 19.8703 19.8842C20.7354 20.7088 21.6545 21.5198 22.4926 22.4255C24.358 24.4395 24.8311 27.3864 23.6416 29.833C22.3574 32.4689 20.1812 33.8611 17.2614 33.7665C14.585 33.6854 12.5304 32.3607 11.3814 29.9141C10.2325 27.4539 10.4487 25.0208 12.1249 22.858C12.9764 21.7631 14.0308 20.8305 15.0176 19.7897C14.8148 19.276 14.5715 19.2354 14.1524 19.668C13.4901 20.3844 12.8007 21.0603 12.0843 21.7226C10.1513 23.5204 7.88045 24.1017 5.37975 23.3312C2.89258 22.5742 1.36514 20.844 0.743342 18.3027C0.675756 18.0459 0.581104 17.8161 0.5 17.5593V16.14L0.51353 16.194Z" fill="#EFEDDF"/>
</g>
<defs>
<clipPath id="clip0_1948_3265">
<rect width="223" height="34" fill="white" transform="translate(0.5)"/>
</clipPath>
</defs>
</svg>
