<svg width="192" height="37" viewBox="0 0 192 37" fill="none" xmlns="http://www.w3.org/2000/svg">
<g clip-path="url(#clip0_1948_3360)">
<path d="M13.5597 6.19377C13.2438 6.13736 12.9844 6.19377 12.9618 6.36298C12.9054 6.70141 13.2438 6.62245 13.4356 6.66757C14.1576 6.83678 14.9134 6.84806 15.579 7.23162C15.6918 7.2993 15.8497 7.33314 15.9174 7.19777C15.9738 7.07368 15.8836 6.96087 15.7595 6.89319C15.0488 6.48707 14.2591 6.30658 13.571 6.20505M15.7595 32.625C19.8093 32.1174 23.2275 30.3012 25.7995 26.962C26.2959 26.319 26.6682 25.597 26.9615 24.8412C27.0066 24.7171 27.0292 24.5479 26.9051 24.4802C26.7923 24.4125 26.6794 24.5253 26.5779 24.6268C26.1041 25.1119 25.6303 25.6083 25.1227 26.0595C24.4684 26.6348 23.8931 27.244 23.4193 28.0111C22.2122 29.9402 20.3621 30.9103 18.0947 30.8088C17.1471 30.7637 16.3122 30.9329 15.4549 31.1811C14.936 31.3277 14.4735 31.6662 14.5299 32.1512C14.5863 32.7153 15.2293 32.5348 15.7708 32.6363M10.6831 6.56604C10.48 6.66757 10.2769 6.81422 10.0626 6.84806C9.70161 6.90447 9.39704 6.70141 9.29551 6.38555C9.17142 6.02456 9.50984 5.86662 9.76931 5.76509C10.5815 5.46051 11.4276 5.47179 12.2737 5.50563C12.8039 5.52819 13.289 5.46051 13.7966 5.26873C14.9586 4.81749 16.143 4.8739 17.3501 5.07696C19.4935 5.43795 21.4789 6.19377 23.2613 7.44595C24.6489 8.4274 25.7319 9.65702 26.1831 11.3379C26.2959 11.7553 26.5779 11.9922 26.8487 12.2742C29.4094 14.8801 30.1201 17.8696 28.7213 21.2877C28.6198 21.5246 28.5182 21.7615 28.5295 22.0322C28.6423 25.0555 27.2661 27.4245 25.134 29.3987C22.6634 31.6887 19.7755 33.144 16.3687 33.4711C15.7821 33.5275 15.1954 33.5049 14.6314 33.3245C14.0786 33.1552 13.571 32.8394 13.6951 32.1512C13.8079 31.5421 13.4807 31.6097 13.1085 31.6774C11.563 31.9595 10.0175 32.0723 8.44944 31.8466C7.86283 31.7677 7.29878 31.621 6.79114 31.3277C5.58407 30.6283 5.57279 29.41 6.79114 28.7444C8.00948 28.0901 9.35192 28.0337 10.6944 28.1691C11.9917 28.3044 13.2326 28.6993 14.4283 29.2295C14.5412 29.2859 14.6539 29.3423 14.7668 29.41C14.6539 29.4776 14.5524 29.5453 14.4283 29.6017C14.0335 29.8048 13.6612 29.6017 13.3002 29.4776C11.7322 28.9926 10.1416 28.6767 8.50585 29.0715C7.88539 29.2182 6.94907 29.2859 6.98291 29.9966C7.01675 30.5606 7.95306 30.617 8.56224 30.6734C11.8563 30.978 14.9473 30.1771 17.948 28.9136C21.1631 27.5599 24.0623 25.7324 26.2282 22.9234C27.4691 21.3102 28.2701 19.5279 28.1347 17.4409C28.0557 16.1323 27.5481 14.9929 26.781 13.9551C26.7133 13.8535 26.5892 13.7182 26.499 13.7182C26.2846 13.7182 26.3636 13.9551 26.2959 14.0792C26.262 14.1356 26.2395 14.2032 26.2395 14.2709C26.1718 14.9591 25.5401 15.5795 25.6867 16.1887C25.8221 16.7527 26.4538 17.204 26.8938 17.6778C27.5142 18.3659 27.7286 19.1217 27.2886 19.9904C27.2435 20.0806 27.1871 20.2047 27.1194 20.216C26.9389 20.2498 26.9728 20.0581 26.9276 19.9678C26.5666 19.1217 26.0703 18.3659 25.4724 17.6778C25.1678 17.3168 24.9422 17.1589 24.615 17.6778C24.051 18.5238 23.3629 19.2571 22.5732 19.9001C22.122 20.2724 22.1896 20.5093 22.5506 20.8928C23.329 21.6938 23.8592 22.664 24.1412 23.7582C24.2315 24.0854 24.3105 24.3899 23.9833 24.6494C23.8254 24.7735 23.6562 24.9991 23.5321 24.9765C23.3403 24.9427 23.3628 24.6607 23.3403 24.4689C23.1598 23.2618 22.5619 22.2804 21.761 21.4005C21.4789 21.0846 21.2533 20.9831 20.8698 21.2764C19.5273 22.303 18.0495 23.1265 16.5153 23.8485C16.0979 24.0515 16.0754 24.1756 16.4138 24.4915C17.3388 25.3714 17.8239 26.4318 17.5983 27.7291C17.5532 27.9773 17.4742 28.2367 17.3839 28.4736C17.2599 28.7782 16.9214 28.9587 16.6845 28.8572C16.4251 28.7444 16.7184 28.4736 16.7861 28.2819C17.226 26.9169 16.7071 25.5406 15.5 24.7058C15.1165 24.4351 14.8232 24.593 14.5073 24.7171C12.3639 25.5857 10.1416 26.1836 7.85155 26.5108C6.46399 26.7138 5.06515 26.7477 3.66631 26.5672C3.373 26.5333 3.09099 26.4656 2.80896 26.3641C2.08698 26.1046 1.35372 25.8113 1.27475 24.9201C1.19579 24.0628 1.78239 23.5439 2.44796 23.149C3.58734 22.4722 4.8508 22.1563 6.14811 21.9984C8.59608 21.7051 11.0215 21.8179 13.3679 22.664C13.5146 22.7204 13.7289 22.7204 13.7402 22.9234C13.7402 23.1378 13.5033 23.0701 13.3792 23.149C12.9844 23.3747 12.5783 23.2957 12.1496 23.1942C9.70162 22.5963 7.25366 22.6188 4.81697 23.2844C4.18524 23.4536 3.58734 23.6905 3.03458 24.0628C2.79768 24.2207 2.45925 24.3899 2.50437 24.7058C2.56078 25.0781 2.96689 25.1345 3.26019 25.1909C3.95961 25.3375 4.67031 25.4391 5.39229 25.3827C11.6645 24.8863 17.2824 22.7429 22.0317 18.5577C23.2613 17.4747 24.2653 16.2 24.8407 14.6319C25.5062 12.7931 25.2919 11.0671 24.0059 9.6119C21.7045 7.006 18.6925 5.8779 15.2857 5.69741C15.1729 5.69741 15.0601 5.74253 14.9473 5.77637C14.9924 5.94559 15.1503 5.88918 15.2631 5.93431C16.1318 6.22761 16.9553 6.62244 17.5193 7.38955C17.7562 7.72798 18.1285 7.75054 18.4556 7.84079C20.0462 8.31459 21.5917 8.88992 23.0695 9.64574C23.3516 9.79239 23.6561 9.91648 23.8479 10.2098C24.1299 10.6497 24.4233 11.0671 24.4909 11.5973C23.9946 11.6199 23.7238 11.2025 23.3516 10.9995C21.8738 10.1534 20.3283 9.49909 18.7264 8.9576C18.2639 8.79967 18.1059 8.85607 18.0721 9.375C18.027 10.1308 17.7562 10.8415 17.3275 11.462C17.023 11.9019 17.1358 12.0486 17.6096 12.1727C19.3017 12.6352 20.9487 13.2444 22.4942 14.1017C22.8665 14.3048 23.2275 14.5304 23.5885 14.7447C23.9269 14.9365 24.1638 15.117 23.8818 15.5795C23.5885 16.0759 23.3403 15.8503 23.0357 15.6472C21.1631 14.4289 19.1099 13.6505 16.9778 13.0526C16.4363 12.8947 16.0866 12.9736 15.6918 13.3797C14.7555 14.3386 13.6274 15.0606 12.488 15.76C12.3075 15.8728 11.9578 15.9179 11.9917 16.1548C12.0255 16.4143 12.3639 16.3015 12.5557 16.3353C14.9021 16.7302 17.1922 17.3281 19.313 18.4449C19.5386 18.569 19.7868 18.6705 19.9898 18.8284C20.1591 18.9638 20.599 19.0089 20.3621 19.3361C20.1816 19.5843 19.9109 19.8888 19.4596 19.6181C18.23 18.8848 16.8989 18.3659 15.5226 17.9711C13.853 17.4973 12.1496 17.2717 10.4349 17.1137C9.98364 17.0686 9.61138 17.2378 9.22783 17.407C6.9942 18.3208 4.72673 19.0766 2.30132 19.291C1.47781 19.3699 0.699419 19.2684 0 18.8059V17.8357C2.38028 16.3805 5.05387 16.2113 7.73873 16.0984C7.73873 16.0984 8.51712 15.8503 7.89666 16.3466C7.84026 16.3692 7.77257 16.3805 7.71617 16.403C7.56951 16.4594 7.43415 16.5158 7.2875 16.5722C7.43415 16.6061 7.5808 16.6738 7.72746 16.6625C7.84027 16.6625 7.95308 16.5722 8.06589 16.5271C10.8072 15.5231 13.3341 14.1581 15.4436 12.1163C16.1994 11.383 16.8312 10.5708 17.0794 9.51037C17.2711 8.67558 16.9553 7.75054 16.3348 7.34443C16.2333 7.27674 16.1205 7.15265 15.9964 7.28802C15.8836 7.41211 15.9851 7.52492 16.0641 7.62645C16.1205 7.70542 16.2107 7.76182 16.2671 7.82951C16.3687 7.94232 16.5492 8.07769 16.4476 8.21306C16.3461 8.33715 16.143 8.23562 15.9851 8.21306C14.6878 7.94232 13.3792 7.68285 12.0819 7.38955C11.6984 7.2993 11.405 7.33314 11.0779 7.57004C9.50985 8.67558 7.85155 9.62318 6.12556 10.4805C6.00147 10.5482 5.75329 10.5708 5.78713 10.7513C5.82098 10.943 6.05788 10.8528 6.19325 10.8528C8.79915 10.819 11.3938 10.9882 13.9658 11.4056C14.0673 11.4168 14.1689 11.4056 14.2591 11.4394C14.5299 11.5409 15.0939 11.462 15.0262 11.744C14.9473 12.0937 14.575 12.4773 14.0786 12.4209C13.4695 12.3532 12.8603 12.2516 12.2398 12.1727C9.45344 11.8342 6.66705 11.8004 3.86937 11.9583C3.38429 11.9809 2.69616 12.2178 2.54951 11.5071C2.40285 10.819 3.1361 10.7513 3.57606 10.5595C6.09171 9.49909 8.53968 8.30331 10.841 6.83678C10.9538 6.75782 11.0666 6.66757 11.1907 6.5886C11.3148 6.5322 11.5517 6.49835 11.4502 6.32914C11.3374 6.13736 11.1343 6.27274 10.9877 6.39683C10.8748 6.47579 10.762 6.55476 10.6492 6.62245" fill="#EFEDDF"/>
<path d="M138.405 18.5804C138.405 19.4603 138.529 20.3515 138.383 21.2089C138.022 23.1943 139.082 24.2096 140.673 24.9429C141.113 25.1459 141.564 25.3377 142.026 25.4731C144.79 26.2853 147.024 25.1121 147.915 22.3708C148.581 20.329 148.581 18.2194 148.355 16.1099C148.265 15.2751 148.062 14.4516 147.678 13.6845C146.956 12.2518 145.828 11.4847 144.192 11.4847C142.105 11.4847 140.379 12.3872 138.721 13.5266C138.405 13.7522 138.405 14.0568 138.405 14.3952C138.405 15.794 138.405 17.1816 138.405 18.5804ZM132.821 35.9305C132.821 35.7388 132.81 35.5357 132.81 35.3439C132.81 33.9676 132.799 33.9225 134.152 33.6969C134.818 33.5841 134.987 33.2795 134.987 32.6591C134.976 25.992 134.964 19.325 134.987 12.6579C134.987 12.0262 134.773 11.6765 134.164 11.5411C133.972 11.496 133.791 11.417 133.611 11.3606C132.291 10.932 132.325 10.932 132.584 9.55568C132.674 9.10444 132.832 8.96907 133.272 8.98035C134.513 9.00291 135.743 9.02547 136.984 8.98035C137.604 8.9465 137.728 9.20597 137.819 9.73617C138.067 11.1463 138.089 11.1463 139.285 10.3905C141.056 9.27365 142.94 8.58551 145.061 8.61936C148.186 8.67576 150.431 10.2325 151.322 13.2333C152.382 16.8206 152.281 20.4531 150.916 23.9502C149.156 28.4513 143.752 29.9855 139.477 27.3119C139.161 27.1201 138.845 26.6125 138.507 26.8268C138.225 27.0073 138.405 27.5601 138.405 27.9436C138.394 29.444 138.405 30.9331 138.405 32.4334C138.405 33.5503 138.405 33.5615 139.488 33.6631C140.267 33.742 141.045 33.821 141.823 33.8548C142.387 33.8774 142.647 34.0917 142.579 34.6896C142.534 35.107 142.579 35.5357 142.602 35.9531H132.832L132.821 35.9305Z" fill="#EFEDDF"/>
<path d="M124.599 18.0721V15.5339C124.599 13.1197 124.464 12.9167 122.185 12.0029C121.824 11.8563 121.452 11.7322 121.079 11.6307C118.079 10.8184 115.901 12.0255 114.965 14.9924C114.728 15.7369 114.615 16.5153 114.548 17.2824C114.367 19.1663 114.424 21.0503 115.033 22.8665C115.676 24.7842 116.894 25.6303 118.913 25.6303C121.282 25.6303 122.873 24.2089 124.441 22.7085C124.678 22.4716 124.599 22.1558 124.599 21.8738C124.599 20.6103 124.599 19.3355 124.599 18.0721ZM127.949 0.0338431C127.961 1.62446 127.983 3.21507 127.983 4.80568C127.983 11.3035 127.983 17.8013 127.983 24.2992C127.983 25.1941 128.423 25.7206 129.303 25.8785C129.303 25.8785 129.371 25.8898 129.393 25.9011C129.743 26.0477 130.307 25.777 130.442 26.2056C130.589 26.6794 130.51 27.2322 130.499 27.7511C130.499 28.0557 130.251 28.0896 130.002 28.0896C128.57 28.0896 127.137 28.0896 125.704 28.0896C125.321 28.0896 125.197 27.9203 125.163 27.5706C125.118 27.1194 125.05 26.6682 124.994 26.2169C124.971 26.0251 124.994 25.7882 124.802 25.698C124.588 25.6078 124.475 25.8334 124.339 25.9575C123.155 27.0066 121.858 27.8752 120.301 28.2249C117.582 28.8341 115.044 28.5972 113.047 26.3861C111.897 25.1114 111.445 23.4982 111.197 21.8512C110.814 19.3243 110.893 16.8086 111.558 14.3268C112.686 10.1077 116.149 7.95307 120.459 8.70889C121.722 8.93451 122.907 9.32934 124.012 9.96108C124.441 10.2093 124.644 10.1867 124.633 9.61137C124.61 7.60336 124.61 5.58407 124.633 3.56478C124.633 3.00073 124.362 2.72999 123.877 2.58334C123.414 2.43669 122.952 2.27875 122.478 2.16594C122.004 2.05313 121.824 1.85008 121.982 1.34243C122.117 0.913757 122.174 0.451238 122.072 0H127.927L127.949 0.0338431Z" fill="#EFEDDF"/>
<path d="M191.81 11.1456C190.084 11.078 189.858 11.2133 189.238 12.6911C186.181 19.9335 183.112 27.1759 180.066 34.4295C179.807 35.0387 179.469 35.5576 178.916 35.9186H173.839C173.839 35.9186 173.839 35.8509 173.839 35.8171C173.839 33.8316 173.839 33.7752 175.87 33.6286C176.795 33.5609 177.257 33.1773 177.573 32.3538C178.07 31.0904 178.634 29.8382 179.232 28.6198C179.525 28.0332 179.48 27.5481 179.232 26.9728C177.167 22.2122 175.103 17.4517 173.095 12.6686C172.745 11.8225 172.271 11.36 171.369 11.202C170.455 11.0441 170.455 10.9877 170.658 10.0852C170.824 9.32564 171.294 8.94585 172.068 8.94585C174.054 8.94585 176.039 8.95713 178.025 8.93457C178.566 8.93457 178.803 9.06994 178.724 9.63399C178.69 9.89345 178.69 10.1529 178.724 10.4124C178.769 10.8749 178.577 11.0554 178.126 11.0892C177.528 11.1344 176.66 10.9651 176.423 11.4615C176.197 11.924 176.761 12.5896 176.987 13.1536C178.284 16.4026 179.593 19.6515 180.901 22.9004C180.98 23.0922 180.969 23.4193 181.24 23.4193C181.51 23.4193 181.51 23.0809 181.589 22.9004C183.112 19.2905 184.613 15.6693 186.158 12.0594C186.395 11.4953 186.395 11.2133 185.707 11.202C185.549 11.202 185.38 11.1682 185.222 11.1456C184.816 11.078 184.218 11.2697 184.049 10.8862C183.812 10.356 184.161 9.75808 184.297 9.19403C184.376 8.8556 184.725 8.96841 184.962 8.96841C187.241 8.96841 189.52 8.96841 191.787 8.99098V11.1344L191.81 11.1456Z" fill="#EFEDDF"/>
<path d="M107.045 0.0332031C107.045 7.83962 107.056 15.6348 107.068 23.4412C107.068 23.9939 107.068 24.5467 107.068 25.0995C107.068 25.5281 107.248 25.7538 107.699 25.7989C108.184 25.844 108.669 25.9907 109.143 25.9681C109.865 25.9455 110.057 26.2614 109.967 26.9044C109.944 27.0962 109.944 27.2993 109.967 27.491C110.012 27.9535 109.831 28.1228 109.358 28.1228C106.684 28.1115 104.022 28.1115 101.359 28.1228C100.886 28.1228 100.716 27.931 100.75 27.4797C100.773 27.1864 100.762 26.8931 100.75 26.5998C100.728 26.2163 100.841 25.9907 101.28 25.9794C101.732 25.9681 102.183 25.8666 102.634 25.8215C103.616 25.7199 103.683 25.6748 103.683 24.7159C103.683 17.7556 103.683 10.8065 103.683 3.84616C103.683 3.22571 103.514 2.79704 102.849 2.61654C102.228 2.44733 101.438 2.44733 101.066 1.9284C100.671 1.38692 101.235 0.687498 101.168 0.0332031H107.022H107.045Z" fill="#EFEDDF"/>
<path d="M38.5013 8.99121C39.5392 8.99121 40.5883 9.00249 41.6262 8.99121C42.0887 8.99121 42.2917 9.13786 42.2466 9.61166C42.2353 9.7696 42.2466 9.93881 42.2466 10.0967C42.2466 10.7586 41.9119 11.1158 41.2426 11.1684C40.31 11.2361 39.9866 11.7174 40.2724 12.6124C41.4456 16.3238 42.6189 20.0353 43.8034 23.7354C43.8711 23.9497 43.9839 24.1415 44.0854 24.3446C44.1756 24.1415 44.2997 23.9385 44.3561 23.7241C45.6422 19.2682 46.9282 14.8235 48.1691 10.3562C48.3383 9.72447 48.6091 9.52142 49.2295 9.55526C50.0079 9.60038 50.7976 9.60038 51.5759 9.55526C52.2077 9.52142 52.4671 9.72447 52.6251 10.3788C53.6742 14.8573 54.791 19.3246 55.874 23.7918C55.9078 23.9498 55.9417 24.1077 55.9755 24.2656C56.1899 24.1867 56.2237 23.9949 56.2914 23.8144C57.2616 20.7234 58.243 17.6324 59.2132 14.5414C59.4726 13.7066 59.6982 12.8606 60.0141 12.0371C60.2397 11.4505 59.9915 11.2925 59.4952 11.2361C59.168 11.2023 58.8522 11.1459 58.525 11.1572C57.8707 11.1684 57.7466 10.8526 57.9046 10.2998C57.9722 10.0516 58.0174 9.79216 58.0625 9.5327C58.1189 9.13786 58.3332 8.99121 58.7281 9.00249C60.7135 9.00249 62.699 9.01377 64.6844 9.00249C65.1469 9.00249 65.35 9.16043 65.3049 9.62294C65.2936 9.78088 65.2936 9.95009 65.3049 10.108C65.3838 10.7849 65.2484 11.2136 64.4024 11.2136C63.5902 11.2136 63.1276 11.631 62.8569 12.5109C61.3565 17.4406 59.7434 22.3366 58.2204 27.2663C58.0061 27.9658 57.6677 28.1914 56.9795 28.135C56.235 28.0786 55.4792 28.0899 54.7346 28.135C54.1142 28.1688 53.8434 27.977 53.6855 27.3228C52.6928 23.1262 51.6436 18.9523 50.6058 14.7671C50.5268 14.4512 50.5494 13.9097 50.2561 13.9097C49.9515 13.9097 50.0079 14.4512 49.9176 14.7445C48.767 18.7944 47.6502 22.8555 46.4882 26.9054C46.0596 28.3944 46.2739 28.1011 44.8638 28.1237C44.2095 28.1237 43.5552 28.0786 42.9122 28.135C42.2015 28.2027 41.8969 27.9319 41.6713 27.2551C40.1371 22.5058 38.5126 17.7791 37.001 13.0185C36.6513 11.913 36.1549 11.2361 34.9704 11.2023C34.3499 11.1797 34.1582 10.909 34.3951 10.3336C34.474 10.1306 34.5417 9.89369 34.553 9.66807C34.5756 9.10402 34.8802 8.99121 35.3878 9.00249C36.4256 9.03633 37.4748 9.00249 38.5126 9.00249" fill="#EFEDDF"/>
<path d="M165.797 21.5687C165.797 21.0159 165.763 20.6888 165.797 20.3616C165.887 19.6509 165.593 19.493 164.928 19.5719C163.642 19.7299 162.345 19.8088 161.059 19.9442C160.291 20.0345 159.524 20.1698 158.814 20.5195C157.46 21.1738 157.189 22.3583 157.505 24.1182C157.708 25.3027 158.565 25.8216 159.964 25.8329C161.645 25.8329 162.988 25.0319 164.341 24.1633C165.39 23.4864 166.214 22.7306 165.797 21.5574M169.17 19.3802C169.17 21.1964 169.192 23.0239 169.158 24.8401C169.158 25.4944 169.361 25.8103 170.038 25.8103C170.331 25.8103 170.614 25.9457 170.907 25.9344C171.527 25.9118 171.742 26.1487 171.719 26.7917C171.651 28.3485 171.866 28.0552 170.422 28.0778C169.316 28.0891 168.211 28.0665 167.105 28.0778C166.643 28.0891 166.44 27.9762 166.327 27.4799C166.203 26.9046 166.507 26.0472 165.898 25.8441C165.582 25.7426 164.996 26.4646 164.522 26.7917C162.548 28.168 160.348 28.7659 157.968 28.4162C155.17 28.0101 153.782 26.2277 153.85 23.3059C153.929 20.136 155.655 18.331 159.152 17.767C161.115 17.4511 163.1 17.3834 165.075 17.2142C165.661 17.1691 165.864 17.0224 165.83 16.4133C165.774 15.477 165.83 14.5294 165.684 13.593C165.458 12.2168 164.826 11.5625 163.428 11.2804C162.39 11.0774 161.352 11.0774 160.325 11.224C158.802 11.4384 158.283 11.9347 158.069 13.4464C158.001 13.9315 157.866 14.033 157.404 13.954C156.76 13.8412 156.117 13.7623 155.463 13.751C154.752 13.7397 154.707 13.39 154.798 12.8147C155.091 10.9646 156.14 9.7688 157.889 9.15962C159.942 8.44892 162.063 8.42636 164.161 8.68582C167.759 9.12578 169.091 10.66 169.17 14.2812C169.203 15.9733 169.17 17.6655 169.17 19.3576H169.192" fill="#EFEDDF"/>
<path d="M80.2764 18.4783C80.2764 18.1173 80.2989 17.7563 80.2764 17.4066C79.9266 13.4357 78.494 11.0892 73.8575 11.5179C71.9172 11.6984 70.4619 12.646 69.7287 14.4622C68.6344 17.1922 68.6908 19.9899 69.7287 22.7199C70.5409 24.8746 72.3233 25.8334 74.9743 25.777C77.2531 25.7206 78.9226 24.5813 79.6785 22.4943C80.141 21.2083 80.3215 19.8545 80.2876 18.4783M83.8186 18.2639C83.875 19.753 83.6945 21.2195 83.2432 22.6635C82.3069 25.6417 80.344 27.5369 77.2869 28.225C75.2225 28.6875 73.1581 28.6424 71.1275 28.0445C68.5442 27.2887 66.8971 25.5289 66.1075 23.0358C65.2953 20.4863 65.205 17.8804 65.8029 15.2519C66.7843 10.999 69.7738 8.9797 73.7785 8.64128C75.3691 8.50591 76.9597 8.59615 78.494 9.11508C81.5285 10.1529 83.0289 12.4204 83.6042 15.4324C83.7847 16.3574 83.8411 17.2938 83.8073 18.2639" fill="#EFEDDF"/>
<path d="M91.5667 19.6178C91.5667 21.3099 91.5667 23.0021 91.5667 24.683C91.5667 25.7095 91.6005 25.7321 92.582 25.7885C93.3603 25.8449 94.1387 25.9464 94.9058 25.969C95.4248 25.9803 95.6053 26.1946 95.5601 26.6797C95.5376 26.9391 95.5376 27.1986 95.5601 27.4581C95.594 27.9093 95.4247 28.1011 94.9509 28.1011C92.0292 28.0898 89.0961 28.0898 86.1744 28.1011C85.7006 28.1011 85.5765 27.9093 85.5652 27.4693C85.5088 26.0141 85.4975 26.0141 86.9528 25.8223C87.7123 25.7246 88.0921 25.2921 88.0921 24.525C88.0921 20.6895 88.0921 16.854 88.0921 13.0185C88.0921 11.834 88.0809 11.834 86.9415 11.4504C86.8174 11.4053 86.6933 11.3714 86.5692 11.3376C85.5088 10.9879 85.2606 10.3223 85.7457 9.28446C85.8472 9.05884 85.9826 9.00243 86.1857 9.00243C87.5507 9.00243 88.9156 9.00243 90.2806 9.00243C90.6529 9.00243 90.777 9.17165 90.8334 9.52136C90.9349 10.1418 90.7657 11.0556 91.2734 11.2699C91.6456 11.4278 92.1871 10.593 92.6609 10.1982C94.5674 8.6076 96.7446 8.35942 99.0911 8.82194C99.4972 8.90091 99.6213 9.11524 99.6213 9.4988C99.6213 10.9653 99.61 12.4206 99.6213 13.8871C99.6213 14.327 99.4972 14.5075 99.0121 14.5301C96.8913 14.6203 96.8913 14.6429 96.5303 12.5108C96.3611 11.5068 96.1693 11.3714 95.1879 11.6422C93.9357 11.9806 92.9091 12.7139 91.9164 13.5148C91.5554 13.8081 91.5667 14.1804 91.5667 14.5752C91.5667 16.2674 91.5667 17.9595 91.5667 19.6404" fill="#EFEDDF"/>
</g>
<defs>
<clipPath id="clip0_1948_3360">
<rect width="191" height="37" fill="white" transform="translate(0.5)"/>
</clipPath>
</defs>
</svg>
