<svg width="149" height="75" viewBox="0 0 149 75" fill="none" xmlns="http://www.w3.org/2000/svg">
<g clip-path="url(#clip0_1948_3310)">
<path d="M39.9558 67.2617C39.2394 67.2617 38.6582 67.8429 38.6582 68.5594C38.6582 69.2758 39.2394 69.8571 39.9558 69.8571C40.6722 69.8571 41.2264 69.2758 41.2264 68.5594C41.2264 67.8429 40.6587 67.2617 39.9558 67.2617Z" fill="#EFEDDF"/>
<path d="M51.3387 73.2235L51.2576 73.3046C50.9061 73.656 50.3113 73.7912 49.8788 73.7912C48.3243 73.7912 47.9863 72.6017 47.9863 71.6149V64.5319H51.6901V63.0991H47.9863V59.5711L47.7295 59.3818L46.4184 59.5576V63.0991H44.4043V64.5319H46.4184V71.642C46.4184 73.9129 47.689 75.2781 49.7977 75.2781C50.6357 75.2781 51.3927 75.0078 52.001 74.5211L52.1497 74.2238L51.6631 73.3181L51.3251 73.2505L51.3387 73.2235Z" fill="#EFEDDF"/>
<path d="M34.943 63.0986L31.861 72.0606L28.6845 63.0986H27.7112L24.5076 72.02L21.4798 63.0986H20.074L19.8848 63.4095L24.0616 74.9938H24.9808L28.1844 66.0859L31.388 74.9938H32.2936L36.4705 63.5177L36.4974 63.4366L36.3623 63.0986H34.943Z" fill="#EFEDDF"/>
<path d="M62.2607 69.8571V70.6411C62.2607 72.6822 60.2467 73.7906 58.3408 73.7906C56.4348 73.7906 55.2588 72.8444 55.2588 71.4251C55.2588 69.9112 56.6105 68.8974 58.6246 68.8974C59.9898 68.8974 61.3687 69.384 62.2473 69.8571M58.9491 62.8281C57.2459 62.8281 55.5292 63.504 54.3532 64.6259L54.2856 64.6935V64.9503L54.8939 65.8154H55.2048L55.2723 65.7614C56.2861 64.8422 57.6244 64.315 58.9491 64.315C60.9496 64.315 62.2473 65.491 62.2473 67.3159V68.3297C61.3687 67.8971 60.1115 67.4645 58.5976 67.4645C55.6373 67.4645 53.6367 69.0596 53.6367 71.4116C53.6367 73.7636 55.4886 75.2775 58.2597 75.2775C59.8277 75.2775 61.274 74.6692 62.2473 73.6284V74.9937H63.7882V67.4916C63.7882 64.6124 61.9364 62.8281 58.9491 62.8281Z" fill="#EFEDDF"/>
<path d="M16.7471 69.8571V70.6411C16.7471 72.6822 14.733 73.7906 12.8271 73.7906C10.9212 73.7906 9.75867 72.8444 9.75867 71.4251C9.75867 69.9112 11.1104 68.8974 13.1244 68.8974C14.4897 68.8974 15.8684 69.384 16.7471 69.8571ZM13.4353 62.8281C11.7321 62.8281 10.0155 63.504 8.8395 64.6259L8.77193 64.6935V64.9503L9.38014 65.8154H9.6911L9.75867 65.7614C10.7725 64.8422 12.1106 64.315 13.4353 64.315C15.4359 64.315 16.7335 65.491 16.7335 67.3159V68.3297C15.8549 67.8971 14.5978 67.4645 13.0839 67.4645C10.1236 67.4645 8.12305 69.0596 8.12305 71.4116C8.12305 73.7636 9.97489 75.2775 12.7459 75.2775C14.3139 75.2775 15.7603 74.6692 16.7335 73.6419V75.0072H18.2745V67.5051C18.2745 64.6259 16.4226 62.8417 13.4353 62.8417" fill="#EFEDDF"/>
<path d="M4.38086 59.0976V74.9939H5.94883V59.1111L5.69199 58.9219L4.38086 59.0976Z" fill="#EFEDDF"/>
<path d="M74.5893 63.0986L70.9532 67.8297L67.3035 63.0986H65.8301L65.6814 63.4771L69.9394 68.9786L65.4922 74.6153L65.6409 74.9938H67.0737L70.8315 70.1411L74.7245 74.9938H76.1573L76.3601 74.6423L71.8724 68.9786L76.1844 63.4501L75.9681 63.0986H74.5893Z" fill="#EFEDDF"/>
<path d="M122.318 70.2087C122.318 72.3444 120.885 73.7908 118.736 73.7908C116.803 73.7908 115.505 72.4255 115.505 70.3979V63.0986H113.924V70.3979C113.924 73.2636 115.857 75.2642 118.614 75.2642C120.169 75.2642 121.507 74.6694 122.399 73.6285V74.9938H123.913V63.1121H122.332V70.2222L122.318 70.2087Z" fill="#EFEDDF"/>
<path d="M134.577 68.1404C134.861 65.8425 136.55 64.3015 138.835 64.3015C140.254 64.3015 141.376 64.8693 142.12 65.9777C142.566 66.5589 142.85 67.3023 142.958 68.1404H134.563H134.577ZM143.201 64.9098C142.187 63.5716 140.633 62.8281 138.835 62.8281C135.415 62.8281 132.941 65.4505 132.941 69.0731C132.941 73.1418 136.023 75.264 139.065 75.264C141.146 75.264 143.174 74.3178 144.228 72.8309L144.269 72.7769V72.493L143.444 71.8036H143.133L143.066 71.8982C142.241 73.0201 140.579 73.8041 139.024 73.8041C136.605 73.8041 134.793 72.101 134.523 69.6408H144.499L144.526 69.4516C144.553 69.3029 144.58 69.1542 144.58 68.9109C144.58 67.397 144.08 65.9777 143.187 64.9098" fill="#EFEDDF"/>
<path d="M111.802 73.2235L111.721 73.3046C111.423 73.602 110.896 73.7912 110.342 73.7912C108.787 73.7912 108.463 72.6017 108.463 71.6149V64.5319H112.167V63.0991H108.463V59.5711L108.206 59.3818L106.895 59.5576V63.0991H104.881V64.5319H106.895V71.642C106.895 73.9129 108.152 75.2781 110.274 75.2781C111.126 75.2781 111.869 75.0213 112.478 74.5211L112.626 74.2238L112.14 73.3181L111.802 73.2505V73.2235Z" fill="#EFEDDF"/>
<path d="M132.875 63.2066L132.807 63.1796C132.361 62.9498 131.861 62.8281 131.266 62.8281C130.036 62.8281 128.955 63.4094 128.211 64.4637V63.112H126.697V75.0072H128.265V68.208C128.265 66.0047 129.482 64.3286 131.104 64.3286C131.55 64.3286 131.888 64.4097 132.158 64.5719L132.266 64.6394L132.537 64.5043L132.996 63.4634L132.875 63.2201V63.2066Z" fill="#EFEDDF"/>
<path d="M80.0085 67.2617C79.2921 67.2617 78.7109 67.8429 78.7109 68.5594C78.7109 69.2758 79.2921 69.8571 80.0085 69.8571C80.725 69.8571 81.2792 69.2758 81.2792 68.5594C81.2792 67.8429 80.7114 67.2617 80.0085 67.2617Z" fill="#EFEDDF"/>
<path d="M92.1472 59.2873C91.5525 58.9088 90.7819 58.7061 89.9709 58.7061C88.1325 58.7061 86.1725 59.8009 86.1725 62.8829V63.0992H84.1855V64.532H86.1725V74.9943H87.7406V64.532H91.3632V63.0992H87.7406V62.8829C87.7406 61.1256 88.5381 60.1524 89.998 60.1524C90.5116 60.1524 90.9712 60.2876 91.4443 60.5579L91.5389 60.612L91.8363 60.4903L92.2959 59.5847L92.2283 59.3278L92.1607 59.2738L92.1472 59.2873Z" fill="#EFEDDF"/>
<path d="M101.42 70.2087C101.42 72.3444 99.9868 73.7908 97.8375 73.7908C95.9046 73.7908 94.607 72.4255 94.607 70.3979V63.0986H93.0254V70.3979C93.0254 73.2636 94.9584 75.2642 97.7159 75.2642C99.2704 75.2642 100.609 74.6694 101.501 73.6285V74.9938H103.015V63.1121H101.433V70.2222L101.42 70.2087Z" fill="#EFEDDF"/>
<path d="M127.683 0C116.613 0 109.178 6.23145 109.178 15.5178V15.6665C109.178 25.872 117.37 28.6025 127.264 30.914C133.726 32.4414 135.699 33.6174 135.699 35.9559V36.0911C135.699 38.4431 133.563 39.7948 129.833 39.7948C124.25 39.7948 118.965 37.8348 114.112 33.9824L107.002 42.6334C112.733 47.743 120.654 50.5546 129.346 50.5546C141.282 50.5546 148.689 44.4988 148.689 34.7529V34.6177C148.689 25.3719 141.539 21.8844 130.806 19.5189C123.939 17.9374 122.168 16.8831 122.168 14.4094V14.2742C122.168 12.5846 123.52 10.7868 127.332 10.7868C131.698 10.7868 136.497 12.4764 140.863 15.5448L147.256 6.35311C141.944 2.09517 135.537 0.0270403 127.683 0.0270403" fill="#EFEDDF"/>
<path d="M101.987 1.1084H88.9566L76.9263 21.1275L64.8959 1.1084H51.8652V49.4056H63.5306V19.0728L76.7911 39.8489L90.1326 18.9241V49.4056H101.987V1.1084Z" fill="#EFEDDF"/>
<path d="M25.9933 0C18.1668 0.189242 14.2738 4.73103 13.0708 6.47476C13.0032 6.5829 12.6518 7.11007 12.6518 7.11007C10.1376 11.1382 8.83991 16.018 9.17784 21.3167V21.4519C10.0024 34.2933 19.8699 43.5256 32.4545 43.5256C33.0087 43.5256 33.5495 43.512 34.1037 43.4715C39.078 43.1606 43.1467 41.8765 46.5665 39.538L36.4557 32.3333C33.5359 35.8748 30.5486 38.2403 25.4796 38.2403C18.6805 38.2403 13.8818 32.5496 13.8818 25.2503V25.1151C13.8818 18.032 18.6669 12.2737 25.4796 12.2737C30.1296 12.2737 33.3332 14.4905 36.1042 17.9644L46.2421 10.1244C43.3089 6.05574 39.4024 2.8251 34.0631 1.176C33.9955 1.16248 33.928 1.13545 33.8604 1.12194C33.1575 0.919176 32.4951 0.756962 31.8328 0.608273C30.035 0.229789 28.102 0.0135173 26.0068 0" fill="#EFEDDF"/>
<path d="M5.63676 20.4651C5.63676 17.7616 6.0558 15.1528 6.82628 12.7062C7.58325 9.79994 8.79975 7.0965 10.4083 4.69043C4.00113 9.24575 0 16.6937 0 25.2637V25.3989C0 39.9164 11.1788 50.541 25.0611 50.541C31.9684 50.541 36.9832 48.6215 40.9032 45.5937H40.8897C38.8621 46.1614 36.6723 46.5128 34.3203 46.6615C33.7256 46.7021 33.1173 46.7156 32.5361 46.7156C29.2514 46.7156 26.1289 46.1344 23.2362 45.0665C13.0036 41.5115 5.6502 31.8331 5.6502 20.4786" fill="#EFEDDF"/>
</g>
<defs>
<clipPath id="clip0_1948_3310">
<rect width="148" height="75" fill="white" transform="translate(0.5)"/>
</clipPath>
</defs>
</svg>
