<svg width="144" height="95" viewBox="0 0 144 95" fill="none" xmlns="http://www.w3.org/2000/svg">
<g clip-path="url(#clip0_1948_3232)">
<path d="M94.5939 24.1214C94.5939 23.4861 94.4317 23.2968 93.7964 23.3239C92.2013 23.3644 90.6199 23.3914 89.0248 23.3239C88.2408 23.2833 88.1191 23.5672 88.1191 24.2701C88.1326 35.3137 88.1327 46.3438 88.1327 57.3874C88.1327 60.5099 88.1462 63.6323 88.1191 66.7548C88.1191 67.3766 88.2949 67.5253 88.8896 67.5118C90.4441 67.4712 92.0121 67.4577 93.5801 67.5118C94.3506 67.5388 94.6075 67.3902 94.6075 66.5251C94.5669 59.4961 94.5804 52.4671 94.5804 45.4382C94.5804 38.4092 94.5804 31.218 94.5939 24.1079M115.113 46.114C113.572 43.5863 111.842 41.1666 110.49 38.5308C108.044 33.7997 108.557 29.1904 111.923 25.3109C112.802 24.2836 113.829 23.4186 114.924 22.6346C115.127 22.4859 115.586 22.4047 115.37 21.9992C115.127 21.5396 114.789 21.9181 114.545 22.0263C113.721 22.4183 112.896 22.8238 112.112 23.2969C108.044 25.703 105.07 28.9606 104.191 33.7592C103.407 38.0577 104.502 41.9777 106.692 45.6544C107.963 47.7766 109.449 49.7907 110.558 51.994C113.072 57.0359 113.086 61.9968 109.503 66.6332C106.638 70.3234 102.907 72.8511 98.6221 74.6083C98.3787 74.7165 97.8246 74.6489 97.9868 75.122C98.1355 75.5816 98.568 75.2437 98.8249 75.1897C102.975 74.2705 106.841 72.6889 110.301 70.2152C115.194 66.7413 118.114 62.1455 118.209 55.9816C118.276 52.3455 116.965 49.1419 115.113 46.1005M36.1318 44.0458C36.7671 46.8169 37.4024 49.6015 38.0647 52.3725C38.2134 52.9808 38.2134 53.2511 37.4294 53.2376C34.9828 53.1835 32.5362 53.2106 30.0895 53.2241C29.657 53.2241 29.4542 53.1835 29.5894 52.6563C31.0222 46.898 32.4416 41.1261 33.8744 35.3678C33.9015 35.2461 33.9555 35.138 34.0366 34.8947C34.753 38.0307 35.4559 41.0315 36.1453 44.0458M47.635 67.5118C48.0811 67.5118 48.2027 67.3902 48.081 66.9441C47.8107 65.9303 47.5673 64.903 47.324 63.8892C44.161 51.0072 41.1197 38.0983 37.835 25.2569C37.3484 23.3375 37.3348 23.3644 35.3613 23.3239C34.726 23.3239 34.5097 23.5267 34.3475 24.1349C30.6708 37.909 27.2645 51.7507 23.7094 65.5518C23.5472 66.1736 23.0606 66.9576 23.385 67.3766C23.7094 67.7957 24.6016 67.4442 25.2369 67.5118C25.7776 67.5794 25.9668 67.3496 26.102 66.8359C26.9671 63.3079 27.8727 59.7935 28.7243 56.2655C28.8459 55.7789 29.0352 55.6301 29.5218 55.6301C32.401 55.6572 35.2802 55.6572 38.1729 55.6301C38.6866 55.6301 38.8487 55.7788 38.9569 56.2789C39.7273 59.8205 40.5519 63.362 41.3224 66.917C41.417 67.3766 41.5793 67.5388 42.0524 67.5253C42.9445 67.4848 43.8231 67.5253 44.7152 67.5253C45.6885 67.5253 46.6617 67.5118 47.6215 67.5253M65.7616 50.007C67.9108 55.6031 70.0601 61.2128 72.1823 66.8225C72.3986 67.3767 72.6689 67.5388 73.2232 67.5253C74.9669 67.4848 76.7241 67.4983 78.4814 67.5253C79.1302 67.5253 79.3194 67.4443 79.0491 66.7414C75.9131 58.577 72.8041 50.4125 69.6681 42.248C69.4518 41.7073 69.4788 41.2613 69.7221 40.7207C72.3175 35.1921 74.8993 29.65 77.4946 24.1349C77.7649 23.5537 77.819 23.2563 77.0215 23.3374C76.5484 23.3915 76.0482 23.3915 75.5751 23.3374C75.0074 23.2833 74.7236 23.4996 74.4938 24.0133C72.6284 28.1901 70.736 32.3534 68.83 36.5167C68.6273 36.9763 68.4786 37.4765 68.0866 37.9361C67.9514 37.5847 67.8298 37.2873 67.7216 36.9899C66.086 32.6914 64.4369 28.3929 62.8284 24.0809C62.6121 23.5132 62.3553 23.3103 61.7335 23.3239C59.9762 23.3779 58.2325 23.3644 56.4752 23.3239C55.7724 23.3103 55.7453 23.4861 55.9751 24.0809C58.611 30.9882 61.2198 37.9225 63.8422 44.8299C64.0314 45.3165 64.0178 45.722 63.7881 46.2087C60.8413 52.6429 57.9081 59.0771 54.9749 65.5248C54.7045 66.1331 54.4477 66.7549 54.1908 67.3766C54.8667 67.6605 55.5696 67.4172 56.2455 67.5118C56.8402 67.5929 57.1376 67.3631 57.3809 66.7954C59.3409 62.3347 61.3415 57.9011 63.3285 53.4539C63.9773 52.0075 64.6262 50.5747 65.3426 48.9661C65.5318 49.4393 65.6535 49.7231 65.7616 50.007ZM73.8044 78.9339C73.2367 78.7176 72.75 78.7852 72.1823 79.0285C60.5169 83.9894 48.5406 87.7201 35.7803 88.3824C30.7114 88.6393 25.7099 88.2744 20.8707 86.5982C17.6536 85.4898 14.8015 83.7866 12.7875 80.9615C10.2057 77.3118 9.98942 73.2566 10.8816 69.0528C11.5304 65.9708 12.8145 63.1187 14.342 60.3882C14.6258 59.8881 14.5853 59.6583 14.004 59.4961C13.0173 59.2257 12.044 58.9014 11.0843 58.5499C10.6517 58.4012 10.3949 58.4958 10.1246 58.8473C6.71824 63.1593 3.69038 67.6741 1.6763 72.8241C0.378647 76.1224 -0.202618 79.5422 0.216417 83.0297C0.74359 87.3957 3.36592 90.356 7.20482 92.3025C11.0302 94.249 15.18 94.8843 19.3974 95.0465C27.3996 95.3574 35.2261 94.0867 42.9715 92.2078C54.2719 89.4638 65.0452 85.287 75.5076 80.2451C75.7374 80.137 76.0212 80.0829 76.1834 79.7314C75.3859 79.4611 74.5884 79.2313 73.8044 78.9339ZM70.7224 14.4565C71.4388 14.1051 72.0336 13.8077 72.6284 13.5238C83.0367 8.81984 93.7153 4.92688 104.908 2.54784C111.491 1.15556 118.114 0.23639 124.859 0.520252C129.09 0.695976 133.226 1.33133 137.052 3.2643C141.012 5.26485 143.567 8.36027 144.094 12.8615C144.446 15.8759 143.945 18.8227 142.945 21.6748C141.242 26.568 138.525 30.88 135.43 34.9893C135.146 35.3677 134.862 35.4624 134.402 35.3002C132.875 34.773 131.347 34.2593 129.793 33.7997C129.171 33.6105 129.144 33.3672 129.414 32.8401C130.644 30.3123 131.564 27.6764 131.929 24.8648C132.929 17.2952 129.455 11.5504 122.291 8.90097C119.385 7.83311 116.37 7.29239 113.302 7.10315C105.475 6.61653 97.8381 7.8061 90.2684 9.60389C84.6047 10.9556 79.1031 12.821 73.6827 14.9568C72.7635 15.3217 72.2905 15.2541 70.709 14.4431" fill="#EFEDDF"/>
</g>
<defs>
<clipPath id="clip0_1948_3232">
<rect width="144" height="95" fill="white"/>
</clipPath>
</defs>
</svg>
