<svg width="196" height="34" viewBox="0 0 196 34" fill="none" xmlns="http://www.w3.org/2000/svg">
<g clip-path="url(#clip0_1948_3500)">
<path d="M45.9862 29.5082C50.2712 29.5082 53.7451 25.0339 53.7451 16.8966C53.7451 8.75916 50.2712 4.28497 45.9862 4.28497C41.7012 4.28497 38.2273 8.82675 38.2273 16.8966C38.2273 24.9934 41.7012 29.5082 45.9862 29.5082ZM30.2656 16.8966C30.2656 5.63668 37.3081 0 45.9862 0C54.6643 0 61.7068 5.63668 61.7068 16.8966C61.7068 28.1564 54.6778 33.7931 45.9862 33.7931C37.2946 33.7931 30.2656 28.224 30.2656 16.8966Z" fill="#EFEDDF"/>
<path d="M91.228 1.17578H84.564L82.5229 6.48805L85.4291 13.9226L86.4699 11.2461L94.3099 32.2249H103.366L91.2415 1.17578H91.228ZM90.7819 32.2249L78.6569 1.17578H72.2903L60.5168 32.2249H66.2346L74.1557 11.2461L82.212 32.2249H90.7819ZM143.661 5.55538C147.244 5.55538 150.799 4.94712 152.353 8.65084C152.961 10.1107 153.002 13.4359 151.569 14.8553C149.866 16.5314 147.243 16.6936 144.986 16.8963L153.326 32.2249H161.883L154.313 18.559C158.828 16.991 160.95 14.4497 160.72 9.59703C160.477 4.35233 156.03 1.18929 150.961 1.18929H135.565V32.2384H143.648V5.56889L143.661 5.55538ZM124.183 21.722C124.034 24.6012 123.818 27.4398 120.628 28.5077C119.209 28.9808 116.6 28.9673 115.126 28.3725C114.424 28.0887 113.978 27.8453 113.437 27.3046C112.382 26.2638 111.963 24.0335 111.923 22.5871V1.18929H103.745V21.722C103.826 24.5606 104.272 27.4128 106.124 29.6972C109.301 33.6172 115.113 34.1849 119.803 33.6037C122.723 33.2387 125.291 32.279 127.333 30.1297C128.752 28.6428 129.631 26.3044 129.887 24.3038C130.036 23.1413 130.063 22.9386 130.063 21.722V1.18929H124.17V21.722H124.183ZM173.467 19.2348L177.441 9.51593L181.429 19.2348H173.467ZM175.413 1.17578L162.694 32.2249H168.182L171.683 23.6955H183.226L186.781 32.2249H195.689L182.834 1.17578H175.4H175.413ZM0.0135176 1.17578V32.2249H5.43394V11.3678L22.1683 32.2249H26.7236V1.17578H21.56V18.2886L7.66428 1.17578H0H0.0135176Z" fill="#EFEDDF"/>
<path d="M72.3184 32.6163H77.482L78.9959 28.4665L76.3735 21.6133L72.3184 32.6163Z" fill="#EFEDDF"/>
</g>
<defs>
<clipPath id="clip0_1948_3500">
<rect width="196" height="34" fill="white"/>
</clipPath>
</defs>
</svg>
