<svg width="161" height="81" viewBox="0 0 161 81" fill="none" xmlns="http://www.w3.org/2000/svg">
<g clip-path="url(#clip0_1948_3263)">
<path d="M71.0965 21.6966H74.1649C74.2595 22.021 74.2865 31.7264 74.2054 32.2941C74.2054 32.2941 74.1919 32.3212 74.1784 32.3212C74.1784 32.3212 74.1514 32.3347 74.1379 32.3482C74.0568 32.3482 73.9621 32.3752 73.881 32.3752C65.0813 32.3752 56.268 32.3752 47.4683 32.3752C47.4278 32.3752 47.3872 32.3617 47.3467 32.3482C47.252 32.0373 47.225 29.1717 47.3196 28.5093C47.9279 28.4688 48.5632 28.4958 49.185 28.4823C49.8068 28.4823 50.4151 28.4823 51.0639 28.4823C51.0909 28.3606 51.118 28.266 51.1315 28.1714C51.1315 28.0497 51.1315 27.9145 51.1315 27.7794V4.74598C50.9557 4.74598 50.8071 4.71892 50.6719 4.71892C48.8741 4.71892 47.0763 4.71892 45.2785 4.71892C44.9 4.71892 44.8865 4.71892 44.7919 5.0974C44.1431 7.3683 43.4943 9.6392 42.8454 11.8966C42.3047 13.762 41.764 15.6273 41.2233 17.5062C40.6421 19.5338 40.0744 21.575 39.4931 23.6161C38.993 25.3598 38.4793 27.1035 37.9792 28.8608C37.6953 29.834 37.425 30.8072 37.1411 31.794C37.0871 31.9832 37.0059 32.1725 36.9383 32.3752C36.8032 32.3752 36.6951 32.4023 36.5869 32.4023C34.7891 32.4023 32.9913 32.4023 31.1935 32.4023C30.7474 32.4023 30.761 32.4023 30.6258 31.9427C30.0175 29.7935 29.4093 27.6442 28.8145 25.4949C28.017 22.6428 27.233 19.7907 26.4355 16.9385C25.8001 14.6812 25.1649 12.4238 24.516 10.1664C24.4755 10.0447 24.516 9.81495 24.3132 9.85551C24.2186 9.86902 24.1375 10.0583 24.0969 10.1799C23.4481 12.4508 22.8128 14.7217 22.164 16.9791C21.6368 18.831 21.0961 20.6828 20.569 22.5482C19.812 25.1705 19.0685 27.7929 18.3116 30.4152C18.1223 31.0641 17.9466 31.6994 17.7574 32.3617H11.5124C11.3907 31.9562 11.2556 31.5372 11.1339 31.1181C10.7149 29.6447 10.2958 28.1714 9.87681 26.698C9.41722 25.0759 8.95765 23.4538 8.49806 21.8318C8.10606 20.453 7.70054 19.0878 7.30854 17.709C6.71378 15.6274 6.11901 13.5322 5.52425 11.4505C5.14577 10.1123 4.76727 8.77413 4.37527 7.44943C4.159 6.69247 3.95627 5.93547 3.72647 5.1785C3.57778 4.66485 3.60479 4.73244 3.1452 4.71892C2.28009 4.71892 1.41501 4.71892 0.549908 4.71892H0.0903257C-0.0178124 4.36747 -0.0313561 1.35314 0.0632648 0.893555H14.4592C14.5538 1.17742 14.5808 4.12416 14.4862 4.71892H10.4175C10.4445 4.92168 10.458 5.05686 10.4986 5.19203C10.9852 6.96279 11.4854 8.72006 11.972 10.4908C12.5938 12.7076 13.2156 14.9245 13.8374 17.1413C14.3916 19.1148 14.9323 21.0883 15.4865 23.0483C15.5135 23.1565 15.5811 23.2646 15.6487 23.3998C15.8514 23.0889 18.0277 15.4111 18.8928 12.1669C19.9066 8.42266 20.9745 4.70541 22.0288 0.961124H28.5036C28.9226 2.46154 29.3417 3.97548 29.7742 5.48942C30.1933 7.00335 30.6123 8.51726 31.0448 10.0312C31.4639 11.5451 31.8964 13.0591 32.3155 14.573C32.7345 16.0869 33.1535 17.6009 33.5861 19.1148C34.0186 20.6152 34.3971 22.1427 34.8702 23.6296C34.9378 23.616 34.9649 23.6161 34.9784 23.6025C34.9784 23.6025 35.0054 23.6025 35.0054 23.589C36.6815 17.4522 38.3442 11.3154 40.0068 5.16501C40.0338 5.08391 40.0338 4.98929 40.0338 4.90818C40.0338 4.86763 40.0068 4.82707 39.9797 4.73245H35.7218C35.7218 3.44831 35.7218 2.21823 35.7218 0.961124H73.7729C73.8675 1.29906 73.881 10.626 73.7729 11.045C73.7188 11.045 73.6512 11.0721 73.5701 11.0721C72.6915 11.0721 71.8129 11.0721 70.9343 11.0721C70.7045 11.0721 70.6099 10.9909 70.5423 10.7747C70.2719 9.80143 70.0286 8.81466 69.6907 7.85494C69.3392 6.84114 68.785 5.93546 67.7983 5.38125C67.2441 5.07036 66.6493 4.8541 66.014 4.81355C65.1218 4.75948 64.2297 4.73244 63.3376 4.71892C61.6209 4.71892 59.9177 4.71892 58.201 4.71892C57.7144 4.71892 57.7009 4.71893 57.7009 5.19203C57.7009 8.08473 57.7009 10.9774 57.7009 13.8701C57.7009 13.9918 57.7144 14.127 57.7279 14.2892C57.9171 14.2892 58.0794 14.3162 58.2416 14.3162C60.8774 14.3162 63.5133 14.3162 66.1356 14.3162C66.2438 14.3162 66.3654 14.3162 66.4871 14.3162C66.6899 14.3162 66.8115 14.3838 66.8926 14.5595C67.2711 15.384 67.4333 16.2627 67.2711 17.1548C67.2035 17.5739 67.0413 17.9794 66.9197 18.3849C66.8521 18.6012 66.7034 18.7093 66.4601 18.6823C66.3655 18.6823 66.2573 18.6823 66.1627 18.6823H57.8495C57.8495 18.6823 57.782 18.7363 57.7684 18.7498C57.7684 18.7498 57.7549 18.7769 57.7414 18.7904C57.7414 18.8445 57.7144 18.8985 57.7144 18.9526C57.7144 22.048 57.7144 25.1435 57.7144 28.2255C57.7144 28.2795 57.7279 28.3336 57.7414 28.4282C57.8631 28.4417 57.9847 28.4688 58.1064 28.4688C60.8233 28.4688 63.5403 28.4823 66.2573 28.4688C67.5009 28.4688 68.4876 27.9145 69.2311 26.9008C69.7583 26.1843 70.0827 25.3733 70.326 24.5352C70.5963 23.6025 70.8261 22.6564 71.083 21.6831" fill="#EFEDDF"/>
<path d="M43.6831 54.9625C43.575 55.2058 43.4804 55.3545 43.4263 55.5032C43.1965 56.125 42.9802 56.7468 42.7504 57.355C42.0881 59.1393 41.4122 60.9236 40.7499 62.7079C40.3038 63.8974 39.8577 65.1004 39.4252 66.2899C39.3576 66.4521 39.3441 66.6279 39.29 66.8307H48.0897C48.0897 66.7496 48.1168 66.6819 48.0897 66.6414C46.6839 62.8566 45.2917 59.0717 43.8859 55.2869C43.8453 55.1923 43.7777 55.1247 43.6831 54.949M72.0558 62.6808C72.1369 62.6808 72.191 62.7079 72.2451 62.7079C74.0834 62.7079 75.9218 62.7079 77.7736 62.6944C78.8685 62.6809 79.9364 62.4511 80.9232 61.9239C82.1262 61.2886 82.9643 60.3559 83.2887 59.0177C83.4914 58.1931 83.4779 57.3686 83.3563 56.544C83.113 54.8273 82.1397 53.7054 80.5311 53.1106C79.5173 52.7457 78.463 52.597 77.4087 52.5835C75.7731 52.5564 74.124 52.5835 72.4884 52.5835H72.0829C71.9747 52.9619 71.9612 62.2213 72.0558 62.6944M82.2614 65.0464C82.5047 65.1004 82.748 65.1545 82.9778 65.2086C84.3701 65.4924 85.6136 66.0737 86.5869 67.1551C87.3168 67.9661 87.7494 68.9259 87.9927 69.9802C88.1955 70.8723 88.209 71.805 88.2901 72.7106C88.3712 73.6163 88.4252 74.5355 88.8578 75.3736C89.2768 76.2116 89.9662 76.6307 90.8854 76.6982C91.2638 76.7253 91.6559 76.6982 92.0479 76.6982C92.5345 77.6039 92.6021 78.5231 92.3587 79.4828C92.2055 80.0775 91.8181 80.3839 91.1963 80.402C90.2366 80.429 89.2768 80.4831 88.3036 80.4831C87.1546 80.4831 86.0597 80.3074 84.9919 79.8613C83.7483 79.3477 82.8832 78.442 82.356 77.2254C81.8829 76.117 81.6801 74.9545 81.572 73.765C81.4639 72.5485 81.3557 71.3454 80.9367 70.1829C80.4906 68.9393 79.7607 67.9255 78.5306 67.3308C77.8683 67.0064 77.1653 66.8307 76.4354 66.7496C75.0702 66.5873 73.7049 66.682 72.3397 66.6549C72.2451 66.6549 72.1505 66.6819 71.9883 66.6954C71.9883 69.8585 71.9883 73.0216 71.9883 76.2387C72.4884 76.2387 72.9344 76.2386 73.394 76.2521C73.8536 76.2521 74.3132 76.2521 74.7728 76.2521H76.2056C76.2192 77.5363 76.2056 78.7934 76.2056 79.9965C76.1651 80.037 76.1651 80.0505 76.1516 80.064C76.1516 80.064 76.1245 80.0911 76.111 80.0911C76.0029 80.0911 75.8812 80.1181 75.7731 80.1181C66.5543 80.1181 57.3355 80.1181 48.1168 80.1181C47.9816 79.7802 47.9681 76.7118 48.1032 76.2387H51.6313C51.5772 76.0359 51.5502 75.8737 51.5096 75.7385C50.9419 74.1975 50.3606 72.6566 49.7929 71.1021C49.7659 71.0345 49.7253 70.967 49.7118 70.8994C49.6442 70.629 49.482 70.5479 49.2117 70.5479C48.0627 70.5479 46.9137 70.5479 45.7513 70.5479H38.3708C37.8842 70.5479 37.8842 70.5479 37.722 70.994C37.1408 72.535 36.5595 74.0759 35.9783 75.6169C35.9107 75.7926 35.8701 75.9819 35.8025 76.2387H39.5468V80.0235C39.2495 80.1181 28.4221 80.1586 27.7463 80.064C27.6381 79.7666 27.6111 76.7928 27.7192 76.2657C27.8544 76.2657 28.0166 76.2387 28.1653 76.2387C28.8952 76.2387 29.6387 76.2252 30.3686 76.2387C30.693 76.2387 30.8688 76.144 30.9769 75.8466C31.4095 74.7382 31.8555 73.6298 32.3016 72.5349C32.8423 71.1967 33.3694 69.845 33.9101 68.5068C34.5725 66.8577 35.2213 65.2086 35.8836 63.5595C36.6676 61.586 37.4652 59.6259 38.2492 57.6524C38.9926 55.787 39.7226 53.9217 40.466 52.0563C40.885 51.002 41.3311 49.9611 41.7366 48.9068C41.8313 48.677 41.9529 48.6094 42.1827 48.6094C43.9264 48.6094 45.6702 48.6094 47.4004 48.6094C47.6842 48.6094 47.8059 48.7445 47.9005 48.9743C48.2655 49.88 48.6304 50.7856 49.0089 51.6778C49.6307 53.2052 50.266 54.7192 50.8878 56.2466C51.4826 57.7065 52.0773 59.1664 52.6721 60.6262C53.2939 62.1402 53.9157 63.6406 54.5375 65.1545C55.4837 67.4525 56.4028 69.7504 57.349 72.0348C57.8627 73.2919 58.4034 74.549 58.9035 75.8061C59.0252 76.117 59.1874 76.2387 59.5388 76.2387C61.3231 76.2252 63.1074 76.2387 64.8917 76.2387C65.0134 76.2387 65.1485 76.2387 65.2431 76.2252C65.2837 76.1981 65.2972 76.1846 65.2972 76.171C65.2972 76.171 65.3107 76.1441 65.3242 76.1305C65.3242 76.0765 65.3513 76.0224 65.3513 75.9683C65.3513 68.25 65.3513 60.5181 65.3513 52.7997C65.3513 52.7457 65.3378 52.6916 65.3107 52.5699C64.0536 52.5159 62.7965 52.5699 61.5124 52.5294V48.6364C61.6611 48.6364 61.7962 48.6094 61.9314 48.6094C67.9331 48.6094 73.9348 48.6094 79.9364 48.6094C81.6126 48.6094 83.2481 48.8797 84.8161 49.5015C86.5058 50.1639 87.9521 51.1912 88.9794 52.7051C89.6012 53.6378 89.9797 54.6651 90.1419 55.7735C90.3312 57.0847 90.2501 58.3688 89.804 59.6259C89.4796 60.5046 89.02 61.2886 88.3982 61.9644C87.0465 63.4513 85.3839 64.3705 83.3968 64.6814C83.0859 64.7354 82.775 64.7761 82.4641 64.8301C82.3966 64.8436 82.329 64.8976 82.2614 64.9247C82.2614 64.9517 82.2614 64.9787 82.2614 65.0058" fill="#EFEDDF"/>
<path d="M154.08 64.3712C154.026 63.0736 153.958 61.7895 153.728 60.5053C153.431 58.7616 152.917 57.1124 151.958 55.612C150.998 54.1116 149.714 53.0167 148.037 52.3814C146.226 51.7056 144.374 51.638 142.495 52.0029C140.049 52.4761 138.292 53.8953 137.089 56.0311C136.183 57.6396 135.723 59.4104 135.493 61.2217C135.291 62.8032 135.21 64.3983 135.331 65.9933C135.453 67.7235 135.696 69.4402 136.305 71.0758C136.751 72.2789 137.359 73.4008 138.224 74.3605C139.67 75.9691 141.522 76.7666 143.644 76.9558C144.685 77.0504 145.74 77.0099 146.78 76.8071C149.159 76.3205 150.93 74.9958 152.16 72.9277C153.079 71.3732 153.553 69.6565 153.809 67.8992C153.972 66.7367 153.999 65.5608 154.093 64.3848M127.924 64.6145C127.978 62.5734 128.208 60.7351 128.748 58.9373C129.316 57.0314 130.208 55.2876 131.411 53.7196C132.412 52.4355 133.615 51.3406 134.98 50.4349C136.886 49.1778 138.981 48.3803 141.211 47.9748C142.793 47.6909 144.401 47.5963 146.023 47.718C147.659 47.8396 149.241 48.1505 150.768 48.6912C152.431 49.2724 153.958 50.1241 155.35 51.2054C156.689 52.2463 157.811 53.4898 158.73 54.9091C159.798 56.5312 160.514 58.302 160.946 60.1944C161.311 61.7759 161.447 63.398 161.393 65.02C161.325 67.1828 160.919 69.2915 160.081 71.2921C159.419 72.8601 158.54 74.3064 157.418 75.6041C155.756 77.5235 153.728 78.9023 151.39 79.862C150.106 80.3757 148.781 80.7001 147.416 80.9028C146.51 81.038 145.618 81.0921 144.712 81.1056C142.32 81.1191 139.995 80.7136 137.778 79.8079C135.994 79.078 134.399 78.0642 132.979 76.7396C130.938 74.8336 129.546 72.5357 128.721 69.8863C128.383 68.7914 128.167 67.656 128.045 66.5205C127.978 65.8311 127.964 65.1417 127.924 64.6281" fill="#EFEDDF"/>
<path d="M116.718 68.0339H111.744C111.325 68.0339 111.325 68.0339 111.176 67.6148C110.744 66.4659 110.73 65.3168 111.122 64.1679C111.271 63.7353 111.298 63.7083 111.771 63.7083C115.448 63.7083 119.138 63.7083 122.815 63.7083C122.963 63.7083 123.098 63.7083 123.288 63.7354C123.288 63.8976 123.315 64.0327 123.315 64.1679C123.315 68.5069 123.315 72.8595 123.315 77.1985C123.315 77.4824 123.234 77.631 122.977 77.7662C121.206 78.7259 119.341 79.4695 117.408 80.0372C116.245 80.3751 115.083 80.6454 113.893 80.8211C113.123 80.9293 112.352 80.9834 111.582 81.0375C111.122 81.0645 110.663 81.0375 110.203 81.0375C108.608 81.051 107.053 80.8211 105.526 80.4156C103.431 79.8749 101.511 78.9422 99.8217 77.604C99.1053 77.0363 98.4565 76.3875 97.8482 75.6846C96.4289 74.0084 95.4286 72.1025 94.8203 69.9938C94.4148 68.6015 94.1715 67.1822 94.0904 65.7224C94.0364 64.7221 94.0363 63.7353 94.1174 62.7486C94.2526 61.1535 94.5635 59.5991 95.0907 58.0851C95.9963 55.5169 97.4156 53.2865 99.4567 51.4887C101.336 49.8396 103.525 48.7717 105.945 48.177C107.892 47.7039 109.879 47.5281 111.879 47.6363C113.812 47.7444 115.718 48.0688 117.597 48.5825C119.097 49.0015 120.544 49.5152 121.963 50.164C122.152 50.2586 122.341 50.3533 122.531 50.4479V58.369C122.382 58.369 122.26 58.396 122.139 58.396C121.328 58.396 120.53 58.396 119.719 58.396C119.341 58.396 119.354 58.396 119.205 58.0175C118.813 56.9902 118.367 55.9764 117.759 55.0437C117.016 53.9353 116.083 53.0432 114.88 52.4619C114.028 52.0564 113.136 51.8266 112.19 51.7455C111.771 51.705 111.365 51.6509 110.946 51.6644C109.514 51.6915 108.108 51.8942 106.81 52.5295C105.81 53.0161 104.931 53.692 104.228 54.5571C102.971 56.0981 102.295 57.8824 101.903 59.8018C101.66 60.9913 101.552 62.1809 101.484 63.3839C101.376 65.6278 101.565 67.8311 102.187 69.9803C102.579 71.3321 103.16 72.5892 104.026 73.6976C105.175 75.171 106.661 76.1442 108.473 76.6308C109.946 77.0228 111.447 77.0904 112.961 76.9012C114.096 76.7525 115.204 76.4551 116.286 76.0496C116.691 75.9009 116.705 75.8739 116.705 75.4548V67.9528" fill="#EFEDDF"/>
<path d="M158.593 10.4908H155.389C155.267 10.0041 155.159 9.53101 155.037 9.07142C154.7 7.85487 154.132 6.74648 153.226 5.84082C152.388 5.00275 151.347 4.52963 150.212 4.25928C149.117 3.98894 147.995 3.93485 146.873 3.98892C145.738 4.04299 144.616 4.23226 143.575 4.73239C142.48 5.25957 141.655 6.03003 141.317 7.24659C140.858 8.89569 141.372 10.6124 143.034 11.5586C144.224 12.2345 145.521 12.5995 146.833 12.8968C148.346 13.2483 149.874 13.5591 151.401 13.9241C152.956 14.3026 154.456 14.8027 155.876 15.5732C157.43 16.4248 158.66 17.5873 159.444 19.1958C159.877 20.1015 160.134 21.0612 160.255 22.075C160.39 23.251 160.39 24.427 160.147 25.5895C159.742 27.4819 158.809 29.0635 157.349 30.3206C155.997 31.4966 154.389 32.213 152.658 32.6591C151.104 33.0511 149.536 33.2403 147.927 33.2268C147.103 33.2268 146.278 33.2403 145.467 33.1862C143.805 33.0781 142.169 32.8753 140.533 32.5103C139.06 32.1859 137.627 31.7399 136.235 31.1722C135.681 30.9424 135.14 30.6585 134.599 30.3881V21.629C134.708 21.6155 134.816 21.5884 134.924 21.5884C135.762 21.5884 136.586 21.5884 137.425 21.5884C137.803 21.5884 137.803 21.5884 137.911 21.9804C138.209 23.1564 138.56 24.3324 139.155 25.4003C139.844 26.6574 140.804 27.6441 142.088 28.293C142.858 28.685 143.683 28.9148 144.548 29.0635C145.724 29.2797 146.927 29.2933 148.117 29.2257C149.347 29.1581 150.563 28.9418 151.672 28.3335C152.699 27.7658 153.334 26.9007 153.564 25.7517C153.767 24.792 153.726 23.8323 153.321 22.9266C152.983 22.1832 152.415 21.6425 151.726 21.2234C150.685 20.5881 149.536 20.2232 148.36 19.9528C146.711 19.5608 145.035 19.2094 143.386 18.8309C141.885 18.4794 140.425 18.0334 139.047 17.3305C137.817 16.7087 136.776 15.8706 135.978 14.7487C135.356 13.8701 134.964 12.8833 134.748 11.8425C134.545 10.8557 134.518 9.84193 134.586 8.84165C134.64 7.936 134.856 7.07089 135.208 6.2193C135.735 4.94868 136.519 3.86727 137.56 2.97513C138.695 2.00188 139.993 1.31253 141.412 0.852947C143.196 0.271705 145.035 0.0148705 146.914 0.00135324C149.441 -0.0256813 151.915 0.352799 154.335 1.09625C155.7 1.50177 157.025 2.0019 158.295 2.65072C158.538 2.77238 158.62 2.92106 158.62 3.19141C158.62 5.50286 158.62 7.82785 158.62 10.1393C158.62 10.2474 158.606 10.3691 158.593 10.5178" fill="#EFEDDF"/>
<path d="M8.79639 52.4483H4.99805V48.704C4.99805 48.704 5.02508 48.677 5.0386 48.6635C5.0386 48.6635 5.06563 48.6364 5.07915 48.6364C5.16025 48.6364 5.25487 48.6094 5.33598 48.6094C14.1627 48.6094 23.003 48.6094 31.8298 48.6094C31.8703 48.6094 31.9109 48.6364 31.9785 48.6499V58.7473C31.8703 58.7608 31.7487 58.7879 31.6406 58.7879C30.8295 58.7879 30.032 58.7879 29.221 58.7879C28.856 58.7879 28.8695 58.7879 28.7614 58.4229C28.491 57.4632 28.2342 56.4899 27.9098 55.5437C27.653 54.8138 27.288 54.1244 26.7068 53.5837C26.0985 53.016 25.382 52.6781 24.571 52.5564C24.1249 52.4753 23.6519 52.4483 23.2058 52.4483C20.7592 52.4483 18.3125 52.4483 15.8659 52.4483C15.7172 52.4483 15.5821 52.4483 15.3928 52.4618C15.3928 52.6375 15.3658 52.7862 15.3658 52.9349C15.3658 56.0168 15.3658 59.0852 15.3658 62.1672C15.3658 62.2483 15.3658 62.3429 15.3658 62.424C15.3658 62.5862 15.4604 62.6538 15.6091 62.6673C15.7307 62.6673 15.8389 62.6673 15.9605 62.6673H24.2061C24.7468 62.6673 24.8143 62.7214 24.99 63.208C25.3685 64.2894 25.355 65.3708 24.99 66.4521C24.9495 66.5603 24.8819 66.6549 24.8414 66.7631C24.7738 66.9253 24.6521 67.0064 24.4764 66.9929C24.3548 66.9929 24.2466 66.9929 24.1385 66.9929H15.4874C15.3658 67.3578 15.3523 75.7656 15.4739 76.2252H19.9616C20.0833 76.5631 20.1103 79.5098 20.0022 80.064H4.99805V76.2792C5.40356 76.1846 5.8226 76.2522 6.22812 76.2387C6.64716 76.2387 7.06617 76.2387 7.47169 76.2387H8.76933C8.78285 76.0224 8.80988 75.8332 8.80988 75.6304C8.80988 71.0345 8.80988 66.4251 8.80988 61.8293V52.4348L8.79639 52.4483Z" fill="#EFEDDF"/>
<path d="M116.527 28.4833H117.054C119.109 28.4833 121.164 28.4833 123.232 28.4833C124.894 28.4833 126.07 27.7128 126.841 26.2799C127.381 25.2932 127.679 24.2118 127.936 23.1304C128.044 22.6573 128.165 22.1842 128.287 21.6976H131.369C131.464 22.0355 131.477 31.9031 131.383 32.3627H106.092V28.5103C107.349 28.4697 108.592 28.5103 109.863 28.4833C109.863 28.321 109.89 28.1994 109.89 28.0777C109.89 20.454 109.89 12.8303 109.89 5.20653C109.89 5.15246 109.89 5.09838 109.89 5.03079C109.89 4.801 109.796 4.71988 109.579 4.71988C109.485 4.71988 109.376 4.71988 109.282 4.71988H106.105C106.011 4.38195 105.984 1.65146 106.051 1.00264C106.349 0.908015 120.001 0.880982 120.69 0.962086C120.799 1.25947 120.839 3.98997 120.731 4.69286C120.596 4.69286 120.434 4.71988 120.285 4.71988C119.19 4.71988 118.095 4.71988 117 4.71988H116.554C116.46 5.08485 116.432 27.7804 116.527 28.4833Z" fill="#EFEDDF"/>
<path d="M92.3184 4.71876H91.8318C90.7504 4.71876 89.6691 4.71876 88.5877 4.71876C88.074 4.71876 88.074 4.71876 88.074 5.2189C88.074 12.8156 88.074 20.3988 88.074 27.9955C88.074 28.1307 88.0875 28.2793 88.101 28.4551C88.2903 28.4551 88.4525 28.4821 88.6282 28.4821C90.7234 28.4821 92.8321 28.4821 94.9273 28.4821C96.4547 28.4821 97.5902 27.8062 98.3336 26.468C98.9689 25.3461 99.3069 24.116 99.6042 22.8724C99.6989 22.4804 99.7394 22.0614 99.9286 21.6829H103.038V32.294C102.7 32.3886 78.0983 32.4021 77.6657 32.294V28.4686H81.41C81.5182 28.036 81.5182 5.12428 81.41 4.71876H77.7468C77.6252 4.38083 77.5846 1.60978 77.6792 0.987988C77.9766 0.893367 91.6561 0.866334 92.2779 0.947438C92.3725 1.24482 92.4131 4.01585 92.3049 4.70523" fill="#EFEDDF"/>
</g>
<defs>
<clipPath id="clip0_1948_3263">
<rect width="161" height="81" fill="white"/>
</clipPath>
</defs>
</svg>
