<svg width="169" height="79" viewBox="0 0 169 79" fill="none" xmlns="http://www.w3.org/2000/svg">
<g clip-path="url(#clip0_1948_3397)">
<path d="M142.343 18.1962H139.162V36.9226H142.343V18.1962ZM105.759 42.2246H102.578V60.951H105.759V42.2246ZM133.217 60.9397H141.486V58.1307H136.421V42.202H133.217V60.9284V60.9397ZM146.088 58.1307V52.6595H150.183V49.8054H146.088V45.011H151.413V42.2246H142.828V60.9397H151.808V58.1195H146.1L146.088 58.1307ZM130.634 45.9022C130.385 44.3229 129.618 43.0707 128.118 42.3713C127.215 41.9539 126.268 41.8975 125.298 41.9651C122.793 42.1344 121.033 43.9619 121.022 46.4662C121.011 49.8731 120.988 53.2912 121.022 56.6981C121.045 58.2661 121.643 59.586 123.019 60.4659C123.967 61.0638 125.027 61.233 126.121 61.2104C128.501 61.1766 130.216 59.8567 130.588 57.6118C130.769 56.5401 130.679 55.412 130.701 54.3065C130.701 54.2839 130.679 54.2727 130.667 54.2501H127.497C127.497 54.9608 127.497 55.6489 127.497 56.3371C127.497 56.6304 127.475 56.935 127.43 57.217C127.306 57.9277 126.866 58.3112 126.133 58.3564C125.185 58.4128 124.587 58.1195 124.395 57.4088C124.282 57.0252 124.249 56.6078 124.237 56.213C124.226 53.1446 124.237 50.0762 124.237 47.019C124.237 46.7144 124.26 46.3986 124.294 46.094C124.395 45.2817 124.824 44.8418 125.614 44.7515C126.415 44.65 127.024 44.9771 127.272 45.7217C127.419 46.1616 127.452 46.6467 127.497 47.1205C127.531 47.5492 127.497 47.9892 127.497 48.4291H130.758C130.713 47.5492 130.746 46.7031 130.611 45.8683M96.2493 56.6191C96.2493 56.8673 96.2267 57.1155 96.1703 57.3636C96.0462 57.9277 95.6965 58.3 95.1099 58.3677C94.7715 58.4015 94.4217 58.3676 94.0833 58.3225C93.6208 58.2436 93.3049 57.9502 93.1808 57.5103C93.0793 57.1493 93.0117 56.7658 93.0117 56.3935C93.0004 53.1897 93.0117 49.9746 93.0117 46.7708C93.0117 46.5001 93.0342 46.2181 93.0906 45.9586C93.2485 45.2028 93.6434 44.8643 94.4105 44.7854C95.155 44.7064 95.719 44.9884 95.9898 45.6766C96.1364 46.0714 96.2041 46.5001 96.238 46.9175C96.2831 47.4364 96.238 47.9553 96.238 48.463H99.4869C99.4869 47.9666 99.4869 47.5041 99.4869 47.0303C99.4643 46.0601 99.3064 45.1125 98.8326 44.2552C97.8624 42.4953 96.2831 41.8862 94.3766 41.9651C91.4774 42.0892 89.7627 43.8829 89.7514 46.7934C89.7514 48.3614 89.7514 49.9295 89.7514 51.4976C89.7514 53.2574 89.7176 55.0172 89.774 56.777C89.8304 58.8302 90.9585 60.3756 92.7634 60.951C93.8915 61.312 95.0535 61.3458 96.2041 61.0525C97.727 60.6577 98.7423 59.6988 99.2274 58.2097C99.6448 56.9237 99.4531 55.6038 99.4982 54.2727H96.2493C96.2493 55.0849 96.2493 55.852 96.2493 56.6191ZM105.579 29.9396C105.996 27.2886 106.413 24.6489 106.831 22.0091H106.887C107.305 24.6376 107.722 27.2773 108.139 29.9396H105.579ZM108.873 18.1962H104.845C103.695 24.4458 102.544 30.6616 101.393 36.9H104.529C104.721 35.5237 104.913 34.1587 105.105 32.7825H108.613C108.805 34.1587 108.997 35.535 109.188 36.9H112.325C111.163 30.6278 110.023 24.4007 108.873 18.1849M137.199 36.5052C135.981 32.8501 134.762 29.1838 133.533 25.5288C133.443 25.2693 133.465 25.0663 133.589 24.8294C134.638 22.7537 135.676 20.6667 136.714 18.591C136.77 18.4669 136.827 18.3428 136.906 18.1736C135.902 18.1736 134.954 18.1736 133.995 18.1736C133.747 18.1736 133.623 18.2526 133.51 18.4782C132.495 20.5877 131.468 22.686 130.442 24.7842C130.408 24.8632 130.352 24.9309 130.306 25.0099C130.284 25.0099 130.261 25.0099 130.227 24.9986V18.2075H127.024V36.9226H130.239V36.5277C130.239 34.813 130.273 33.1096 130.227 31.3949C130.205 30.6391 130.34 29.9735 130.769 29.3531C131.006 29.0033 131.175 28.631 131.412 28.2024C131.75 29.3192 132.055 30.357 132.371 31.3836C132.901 33.1322 133.42 34.8807 133.95 36.6292C133.984 36.7533 134.108 36.9339 134.198 36.9339C135.214 36.9564 136.24 36.9451 137.323 36.9451C137.267 36.7646 137.233 36.6406 137.188 36.5165M111.941 44.8869C112.697 44.8869 113.441 44.7967 114.175 45.0223C114.818 45.2253 115.156 45.7104 115.292 46.3422C115.483 47.2108 115.495 48.0907 115.337 48.9593C115.134 50.0536 114.626 50.5161 113.509 50.6064C113.001 50.6515 112.494 50.6064 111.941 50.6064V44.8869ZM119.014 60.5674C118.179 57.9728 117.345 55.3782 116.51 52.7723C116.453 52.6031 116.386 52.479 116.611 52.3662C117.491 51.8924 118.033 51.1253 118.326 50.1777C118.822 48.5194 118.811 46.8498 118.326 45.1915C117.92 43.8265 117.017 42.9127 115.652 42.5292C115.021 42.3487 114.344 42.2359 113.69 42.2133C112.088 42.1682 110.475 42.1908 108.873 42.1908C108.816 42.1908 108.76 42.202 108.692 42.2133V60.9397H111.918V60.4885C111.918 58.221 111.918 55.9535 111.918 53.6748C111.918 53.3363 112.031 53.2348 112.347 53.2574C112.652 53.2687 112.968 53.2686 113.272 53.2348C113.52 53.201 113.599 53.3025 113.667 53.5168C113.881 54.2726 114.107 55.0172 114.321 55.773C114.806 57.4088 115.28 59.0558 115.777 60.6915C115.81 60.8043 115.934 60.9623 116.013 60.9623C117.029 60.9848 118.055 60.9736 119.127 60.9736C119.082 60.8043 119.048 60.6915 119.014 60.5787M152.789 28.7552C152.259 27.3225 151.74 25.8785 151.21 24.4458C150.477 22.4491 149.755 20.4637 149.01 18.4669C148.965 18.3541 148.852 18.1849 148.762 18.1849C147.826 18.1624 146.889 18.1736 145.931 18.1736V36.9113H148.83V25.3821C148.931 25.4498 148.954 25.5175 148.988 25.5965C149.563 27.2209 150.127 28.8454 150.691 30.4699C151.413 32.5343 152.135 34.5874 152.857 36.6518C152.902 36.7646 153.015 36.9339 153.105 36.9339C153.985 36.9564 154.854 36.9451 155.745 36.9451V18.2075H152.846V28.7664H152.767M94.5458 20.881C95.1776 20.9375 95.6513 21.2984 95.9108 21.8963C96.2605 22.7198 96.317 23.5772 96.0462 24.4345C95.7868 25.2806 95.1099 25.7995 94.2299 25.8447C93.8013 25.8672 93.3726 25.8447 92.9214 25.8447V20.8585C93.4854 20.8585 94.0156 20.8134 94.5458 20.8698M92.9101 28.5182C93.7223 28.5182 94.5233 28.4393 95.2904 28.7664C95.877 29.0146 96.238 29.4771 96.3959 30.075C96.6328 30.9549 96.6215 31.8348 96.4072 32.7148C96.1928 33.5947 95.6401 34.1362 94.7263 34.2151C94.1284 34.2715 93.5305 34.2151 92.9101 34.2151V28.507V28.5182ZM89.7627 36.9226C91.6692 36.9226 93.5757 36.979 95.4709 36.8887C97.5353 36.7985 98.9229 35.6478 99.4982 33.7413C99.8366 32.6245 99.8818 31.4739 99.7125 30.3232C99.4869 28.868 98.7423 27.7963 97.4112 27.1533C97.3773 27.1307 97.3435 27.0969 97.2871 27.0517C98.5506 26.4313 99.1598 25.3709 99.3515 24.0623C99.4418 23.4982 99.4305 22.9003 99.3853 22.325C99.2387 19.9222 97.7609 18.3767 95.358 18.2413C93.4967 18.1398 91.6241 18.1962 89.7627 18.1736C89.7402 18.1736 89.7176 18.1849 89.6725 18.2075V36.8887C89.6725 36.8887 89.7289 36.9226 89.7514 36.9226M121.112 28.71C120.842 28.2024 120.65 27.6835 120.458 27.1645C119.409 24.2766 118.349 21.3887 117.3 18.5008C117.209 18.2413 117.085 18.1623 116.814 18.1736C116.047 18.1962 115.291 18.1736 114.536 18.1736H114.197V36.9113H117.108V25.3257C117.187 25.3934 117.221 25.4611 117.243 25.5401C118.45 29.0033 119.668 32.4553 120.887 35.9186C121 36.257 121.045 36.7082 121.293 36.8774C121.53 37.0466 121.981 36.9339 122.331 36.9339C122.895 36.9339 123.459 36.9339 124.034 36.9339V18.1962H121.124V28.71H121.112ZM168.617 27.4353H163.36V29.9961H165.401C165.401 30.6278 165.424 31.2144 165.401 31.8123C165.368 32.3425 165.323 32.884 165.187 33.3916C164.984 34.1362 164.409 34.4182 163.461 34.3731C162.818 34.3392 162.378 33.9444 162.232 33.2337C162.186 33.0306 162.153 32.805 162.153 32.602C162.153 29.3531 162.141 26.1154 162.153 22.8665C162.153 22.483 162.209 22.0881 162.311 21.7046C162.435 21.2082 162.762 20.881 163.281 20.7682C164.127 20.599 164.804 20.96 165.097 21.761C165.187 21.9866 165.255 22.2348 165.277 22.483C165.345 23.0696 165.39 23.6562 165.447 24.2766H168.481C168.481 23.7013 168.504 23.1598 168.481 22.6296C168.413 21.4564 168.064 20.3734 167.308 19.4484C165.853 17.6773 162.953 17.5306 161.205 18.4669C159.58 19.3356 158.949 20.8247 158.938 22.5845C158.915 25.9011 158.938 29.2177 158.938 32.5343C158.938 33.324 159.095 34.0911 159.411 34.8243C160.596 37.5769 164.488 37.904 166.044 36.0426C166.18 35.8847 166.349 35.7606 166.518 35.614C166.676 35.975 166.823 36.3472 167.003 36.7082C167.048 36.8097 167.195 36.9226 167.308 36.9226C167.759 36.9451 168.21 36.9226 168.662 36.9226V27.4353H168.617ZM40.5214 0.0451334C40.9388 0.0789763 41.3674 0.112815 41.7848 0.146658C41.9089 0.146658 42.0443 0.169229 42.2022 0.191791V19.1438C42.2022 19.1438 42.2586 19.1438 42.2925 19.1551C43.9282 13.0634 45.5639 6.97165 47.211 0.834814C48.9482 1.16196 50.6291 1.62447 52.3213 2.1998C50.6742 8.34792 49.0272 14.4735 47.3915 20.599C47.4141 20.6103 47.4366 20.6216 47.4592 20.6329C50.6291 15.139 53.8103 9.64523 57.0254 4.07244C58.5596 4.96364 60.0713 5.83226 61.6055 6.71218C58.3904 12.2737 55.2205 17.7675 52.0392 23.2613C56.5178 18.7828 61.0076 14.3043 65.5538 9.74676C66.8511 11.0441 68.092 12.285 69.3555 13.5371C64.8431 18.0495 60.3872 22.4942 55.9312 26.9502C55.9425 26.9728 55.965 27.0066 55.9876 27.0292C61.4476 23.8818 66.9075 20.7344 72.4464 17.5306C73.3264 19.0535 74.195 20.5652 75.0862 22.1107C69.536 25.3145 64.0534 28.4844 58.5596 31.6431C58.5596 31.6656 58.5822 31.6995 58.5935 31.7221C64.6965 30.0863 70.8107 28.4506 77.0152 26.7923C77.4777 28.4957 77.929 30.1653 78.3915 31.8913C72.187 33.5496 66.0501 35.1966 59.902 36.8436C59.902 36.8661 59.902 36.8774 59.902 36.9H79.0007V42.1682H59.9133C59.9133 42.1682 59.902 42.2359 59.902 42.2697C66.0276 43.9055 72.1532 45.5525 78.3238 47.2108C78.008 48.948 77.5341 50.6289 76.9588 52.321C70.8107 50.674 64.6851 49.0383 58.5483 47.3913C58.5483 47.4138 58.5258 47.4364 58.5145 47.459C64.0083 50.6289 69.4908 53.7989 75.0749 57.0139C74.195 58.5481 73.3151 60.0598 72.4351 61.594C66.8624 58.3789 61.3573 55.209 55.8634 52.0278C55.8634 52.0278 55.8522 52.0503 55.8409 52.0616C60.3307 56.5401 64.8093 61.0299 69.3668 65.5762C68.092 66.8509 66.8511 68.0805 65.5989 69.3327C61.064 64.809 56.608 60.3418 52.1407 55.8745C52.1182 55.8858 52.0843 55.9084 52.0618 55.9197C55.2204 61.3797 58.3678 66.8509 61.5491 72.356C60.0938 73.36 58.5709 74.2061 56.969 75.0071C53.7765 69.4907 50.5952 63.9856 47.414 58.4805C47.3914 58.4805 47.3802 58.503 47.3576 58.503C49.0046 64.6286 50.6404 70.7541 52.31 76.9812C50.6065 77.4437 48.9144 77.8949 47.1997 78.3575C45.5414 72.1755 43.9056 66.0838 42.2699 59.9921C42.2361 59.9921 42.2135 59.9921 42.1797 59.9921V78.978H36.9002V59.9357C36.9002 59.9357 36.8325 59.9357 36.7987 59.9244C35.1629 66.0274 33.5272 72.1417 31.8576 78.3462C30.1542 77.895 28.4733 77.4437 26.7473 76.9812C28.4056 70.8105 30.0414 64.7075 31.6658 58.6045C31.6433 58.5933 31.6094 58.582 31.5756 58.5707C28.4169 64.0307 25.2695 69.4906 22.0545 75.0409C20.5315 74.1609 19.0086 73.2924 17.4744 72.4012C20.6782 66.8509 23.8481 61.3797 27.0293 55.852C22.5169 60.3644 18.0497 64.8316 13.5148 69.3553C12.2175 68.058 10.9766 66.8284 9.71309 65.5649C14.248 61.03 18.7379 56.5514 23.2164 52.0616C23.2051 52.039 23.1938 52.0277 23.1826 52.0052C17.7 55.1751 12.2062 58.3338 6.63342 61.5601C5.7535 60.0372 4.87355 58.5256 3.98235 56.9801C9.55514 53.765 15.049 50.5951 20.5316 47.4251C20.5316 47.4026 20.509 47.38 20.509 47.3574C14.3834 48.9932 8.25788 50.6402 2.05336 52.2985C1.60212 50.5951 1.13956 48.9142 0.677044 47.1882C6.90413 45.5186 13.0297 43.8829 19.1552 42.2359C19.1552 42.2133 19.1552 42.202 19.1552 42.1795H0.101704C-0.0449481 40.4084 -0.0223862 38.6711 0.101704 36.9H19.1891C19.1891 36.9 19.1891 36.8436 19.1891 36.821C13.0523 35.174 6.91542 33.527 0.688336 31.8687C1.15085 30.1653 1.60213 28.4844 2.06465 26.7697C8.25789 28.428 14.3609 30.0637 20.4639 31.6995C20.4752 31.6769 20.4864 31.6431 20.4977 31.6205C15.0264 28.4618 9.55514 25.3032 4.05004 22.122C4.81714 20.5201 5.69709 19.0197 6.68981 17.5419C12.1949 20.7231 17.6887 23.8818 23.1713 27.0517C23.1713 27.0517 23.1713 27.0405 23.1826 27.0292C18.704 22.5619 14.2367 18.0834 9.69051 13.5484C10.9765 12.2624 12.1949 11.0328 13.4245 9.81444C17.9707 14.3607 22.4605 18.8505 26.9616 23.3403C26.9955 23.3177 27.0181 23.2952 27.0519 23.2613C23.882 17.7675 20.7007 12.2737 17.5082 6.73473C18.9634 5.742 20.4752 4.88468 22.0883 4.08373C26.5105 11.7435 30.9213 19.3807 35.3434 27.0292C31.3387 28.507 28.5185 31.1806 27.0858 35.1966C25.969 38.3327 26.0705 41.48 27.3452 44.5597C29.8496 50.6515 36.5392 53.9681 42.8791 52.2647C49.2303 50.5612 53.3704 44.5146 52.6033 37.9717C52.31 35.5237 51.3962 33.3127 49.862 31.3836C48.3165 29.4433 46.3875 28.0332 44.0523 27.1758C41.7284 26.3185 39.3594 26.1718 36.9114 26.623V0.146658C37.4642 0.101534 38.017 0.0564047 38.5698 0H40.4988L40.5214 0.0451334Z" fill="#EFEDDF"/>
</g>
<defs>
<clipPath id="clip0_1948_3397">
<rect width="168" height="79" fill="white" transform="translate(0.5)"/>
</clipPath>
</defs>
</svg>
