<svg width="252" height="54" viewBox="0 0 252 54" fill="none" xmlns="http://www.w3.org/2000/svg">
<g clip-path="url(#clip0_1948_3314)">
<path d="M189.458 19.1054C189.823 19.1189 189.945 19.0243 189.931 18.6458C189.904 17.578 189.904 16.5101 189.931 15.4423C189.931 15.0638 189.782 14.9692 189.444 14.9827C188.322 14.9962 187.214 15.0097 186.092 14.9827C185.714 14.9827 185.619 15.1043 185.633 15.4558C185.646 16.5237 185.66 17.5915 185.633 18.6594C185.633 19.0514 185.768 19.1189 186.106 19.1054C186.66 19.0784 187.228 19.1054 187.782 19.1054C188.336 19.1054 188.904 19.0919 189.458 19.1054ZM13.3415 13.7661C12.7873 13.0903 12.2061 12.8064 11.2734 12.9281C8.8538 13.2254 6.42069 13.3876 4.0011 13.6174C3.79834 13.6309 3.55503 13.5769 3.43338 13.7931C2.85213 14.8069 2.36552 15.8478 1.94649 17.0643C6.43422 16.6588 10.8003 16.2803 15.3151 15.8748C14.5851 15.1043 13.9228 14.469 13.355 13.7796M28.3322 10.6436C28.5079 9.30544 28.6431 8.11589 28.8458 6.93989C28.8999 6.58844 28.8053 6.37217 28.589 6.14237C26.7236 4.19589 24.8718 2.24944 23.0199 0.30295C22.8847 0.154261 22.7631 -0.0349828 22.5062 0.00556899C21.3708 0.221845 20.2489 0.438113 19.0729 0.884183C22.1683 4.14184 25.2097 7.34543 28.3322 10.6436ZM46.2561 32.893C46.4994 32.9877 46.6886 32.9471 46.9049 32.8255C49.2569 31.4197 51.5954 30.0003 53.9474 28.6081C54.1772 28.4729 54.3394 28.3242 54.3259 28.0133C54.2988 27.1347 54.3259 26.2561 54.2853 25.3774C54.2583 24.634 54.2312 24.634 53.5689 25.026C50.1625 27.0671 46.7562 29.1082 43.3498 31.1493C43.1741 31.2574 42.9579 31.298 42.8362 31.6089C43.9987 32.055 45.1206 32.474 46.2425 32.9066M34.4149 45.6533C34.4825 45.8831 34.6718 45.9507 34.8745 46.0318C37.4293 46.9915 39.9976 47.9648 42.5523 48.938C42.7956 49.0326 42.9849 49.0191 43.1876 48.8569C43.9041 48.2622 44.634 47.6809 45.3504 47.0997C45.7019 46.8158 45.783 46.6401 45.2423 46.4373C42.9579 45.5993 40.6734 44.7342 38.4025 43.8691C36.7129 43.2337 35.0367 42.5985 33.2254 41.9091C33.6445 43.2338 34.0365 44.4503 34.4149 45.6533ZM19.2215 40.9493C18.4646 42.1118 17.7887 43.1391 17.0993 44.1529C16.9506 44.3827 16.9642 44.572 17.0453 44.8017C17.8833 47.4106 18.7214 50.0059 19.5595 52.6147C19.6271 52.831 19.6946 53.0337 19.9785 53.1149C21.0599 53.3717 22.1278 53.6691 23.3578 53.8042C21.9655 49.4922 20.6138 45.2884 19.208 40.9628M40.5112 17.605C41.7008 16.8886 42.7956 16.2398 43.8905 15.591C44.0663 15.4828 44.1068 15.3071 44.1338 15.1179C44.4988 12.4009 44.8773 9.69741 45.2423 6.98044C45.2828 6.72361 45.2828 6.49385 45.0395 6.29109C44.2014 5.60171 43.3634 4.89881 42.3225 4.22295C41.7143 8.71068 41.1195 13.0902 40.4977 17.5915M7.29931 29.703C7.056 29.73 6.9749 29.9328 6.85324 30.1085C5.36634 32.3524 3.89297 34.5962 2.40607 36.8536C2.29793 37.0293 2.13572 37.2051 2.23034 37.4213C2.67641 38.5027 3.17655 39.5436 3.8389 40.5979C6.31256 36.8401 8.73214 33.1634 11.2464 29.3515C9.82704 29.4732 8.55642 29.5813 7.29931 29.6895M27.8726 13.9553C27.9267 13.5904 27.8726 13.3606 27.6158 13.0903C26.5344 11.9819 25.48 10.8329 24.3987 9.71095C21.952 7.14267 19.5054 4.5744 17.0588 1.99261C16.829 1.73578 16.6397 1.70874 16.3424 1.85743C15.68 2.19536 15.0177 2.54678 14.3418 2.84416C13.7876 3.08747 13.8282 3.27672 14.2202 3.69575C17.2886 6.89934 20.33 10.1165 23.3713 13.3336C24.6555 14.6988 25.9531 16.037 27.3454 17.4969C27.5211 16.2262 27.6563 15.0908 27.8455 13.9553M17.9915 18.6729C17.4778 18.0241 16.8695 17.9159 16.1126 17.997C11.7195 18.4161 7.32636 18.8081 2.91973 19.2136C1.67615 19.3307 0.928185 20.0156 0.675863 21.2682C0.392001 22.7145 0.391992 22.674 1.89241 22.5388C5.83945 22.1603 9.8 21.8224 13.7606 21.4709C15.8152 21.2817 17.8563 21.0925 20.0461 20.9032C19.2891 20.1057 18.5862 19.4434 17.9915 18.6864M32.2657 38.9758C32.3603 39.2867 32.6172 39.3273 32.8469 39.4084C37.5104 41.1791 42.1874 42.9364 46.8373 44.7206C47.3374 44.9099 47.6348 44.8423 47.9322 44.4097C48.2972 43.869 48.7162 43.3689 49.1352 42.8823C49.5137 42.4498 49.4461 42.247 48.8919 42.0442C45.418 40.7466 41.944 39.4219 38.4701 38.1107C36.064 37.1915 33.658 36.2859 31.0762 35.3126C31.5087 36.6509 31.8872 37.8133 32.2522 38.9758M39.7543 30.4194C40.0111 30.5275 40.1868 30.4464 40.4031 30.3248C44.7827 27.7024 49.1758 25.0665 53.5689 22.4577C53.8392 22.2955 53.9744 22.1333 53.8798 21.7954C53.6906 21.0519 53.5148 20.3085 53.3661 19.565C53.258 19.0379 53.0958 18.9703 52.6092 19.2677C49.4867 21.1601 46.3507 23.0254 43.2282 24.9043C40.9438 26.2696 38.6458 27.6483 36.2398 29.0947C37.5104 29.5813 38.6459 30.0004 39.7543 30.4464M37.9294 19.1595C38.1592 19.0243 38.1187 18.808 38.1457 18.6053C38.4972 16.037 38.8621 13.4688 39.2136 10.9005C39.5515 8.44034 39.8759 5.9937 40.2139 3.53355C40.2544 3.23617 40.3355 2.93878 39.9435 2.76306C39.1595 2.41161 38.389 2.03313 37.6185 1.66817C37.3212 1.51948 37.213 1.6141 37.1725 1.925C37.0914 2.68196 36.9832 3.43892 36.8751 4.19589C36.2938 8.48086 35.7126 12.7794 35.1178 17.0643C34.9421 18.362 34.7664 19.6731 34.5772 21.133C35.7802 20.4166 36.8481 19.7813 37.9159 19.1595M14.7203 29.0406C14.2066 29.0677 13.9093 29.311 13.6254 29.73C11.2464 33.3797 8.82678 37.0158 6.44774 40.679C6.01519 41.3413 5.15007 41.9901 5.29876 42.7201C5.44745 43.45 6.25848 44.0448 6.7451 44.7206C7.09655 45.1937 7.31284 45.2343 7.66428 44.6801C10.4488 40.4086 13.2604 36.1507 16.072 31.8792C16.7344 30.879 17.3832 29.8787 18.1131 28.7703C16.8831 28.8649 15.8017 28.973 14.7203 29.0406ZM189.931 22.6605C189.931 22.1874 189.823 22.0252 189.323 22.0387C188.282 22.0792 187.228 22.0657 186.187 22.0387C185.768 22.0387 185.633 22.1198 185.633 22.5658C185.646 27.7159 185.646 32.866 185.633 38.0161C185.633 38.3811 185.727 38.4892 186.092 38.4757C187.187 38.4486 188.282 38.4351 189.363 38.4757C189.85 38.4892 189.931 38.327 189.931 37.8944C189.918 35.3397 189.931 32.7984 189.931 30.2437C189.931 27.6889 189.931 25.1882 189.931 22.6605ZM26.6966 19.9841C25.4665 18.6864 24.2365 17.3888 23.0064 16.0911C19.8298 12.7388 16.6397 9.38655 13.4497 6.04779C12.936 5.5071 12.4764 4.65549 11.8817 4.54735C11.2193 4.43921 10.6381 5.30431 10.0433 5.76389C9.29987 6.34514 9.31339 6.35866 9.96221 7.03452C13.72 10.9951 17.4778 14.9421 21.2356 18.9027C22.8306 20.5923 24.4257 22.2685 26.0342 23.9582C26.1424 24.0663 26.21 24.2825 26.3992 24.1879C26.4668 24.1609 26.5073 23.9987 26.5209 23.8905C26.6695 22.8092 26.8047 21.7278 26.9534 20.6599C27.0345 20.3626 26.8858 20.1733 26.6966 19.9841ZM30.0624 32.1361C30.1705 32.5146 30.3733 32.6903 30.7382 32.8255C36.7129 35.0693 42.6875 37.3402 48.6621 39.5976C49.3515 39.8544 50.122 40.4897 50.7168 40.2059C51.3386 39.9085 51.4602 38.9218 51.8387 38.2729C52.1766 37.7052 52.0955 37.4483 51.4197 37.1915C45.5937 35.0152 39.7813 32.7849 33.9554 30.5816C32.3468 29.9733 30.7518 29.3785 28.9675 28.7027C29.373 29.9733 29.7245 31.0547 30.0489 32.1361M31.4817 23.0255C32.0089 22.7416 32.2116 22.3631 32.2927 21.7819C32.6577 18.8621 33.0767 15.9424 33.4687 13.0227C33.9959 9.1432 34.5231 5.26375 35.0638 1.37078C35.1314 0.924715 35.0367 0.681422 34.5636 0.586801C33.9013 0.451629 33.2389 0.302931 32.6036 0.113689C32.117 -0.0350009 31.9683 0.140717 31.9143 0.613821C31.6439 2.77658 31.333 4.92584 31.0491 7.0886L29.2919 19.9705C29.0756 21.498 28.8729 23.039 28.6431 24.6881C29.6569 24.0798 30.5625 23.5121 31.4952 23.0119M24.8988 32.3388C24.6555 32.6768 24.6284 32.9742 24.7636 33.3662C25.5206 35.6506 26.2505 37.9485 26.994 40.2464C28.3727 44.5449 29.7785 48.8434 31.1438 53.1554C31.2924 53.642 31.4817 53.8313 32.0089 53.6826C32.6036 53.5069 33.2254 53.3582 33.8472 53.2771C34.4285 53.1959 34.4825 52.9797 34.3068 52.4525C32.9956 48.4244 31.7115 44.3827 30.4138 40.3411C29.2514 36.732 28.0889 33.1229 26.8858 29.3651C26.1829 30.4194 25.5746 31.3926 24.9123 32.3388M21.2221 28.4594C20.8842 28.4864 20.776 28.7433 20.6138 28.973C19.1134 31.2575 17.5995 33.5554 16.0991 35.8398C13.7876 39.3543 11.4897 42.8688 9.15119 46.3562C8.88085 46.7617 8.92139 46.9916 9.28635 47.2619C9.77297 47.6269 10.2326 48.0188 10.6786 48.4244C11.1382 48.8569 11.395 48.8299 11.7735 48.2622C14.7473 43.7068 17.7482 39.1921 20.749 34.6503C22.1548 32.5281 23.5606 30.3924 25.0475 28.135C23.6822 28.2431 22.4522 28.3512 21.2356 28.4459M32.928 27.8376C33.4012 28.0404 33.7796 27.9998 34.2257 27.7294C39.6731 24.4447 45.1341 21.1871 50.5816 17.9024C51.1899 17.5374 52.1496 17.3212 52.2983 16.7264C52.447 16.0911 51.8387 15.3611 51.5008 14.7123C51.0276 13.8067 51.2845 13.7391 50.2301 14.3609C43.85 18.1728 37.4834 21.9846 31.1032 25.7965C30.6977 26.0398 30.2922 26.2831 29.765 26.6075C30.914 27.0536 31.9278 27.4186 32.928 27.8376ZM130.171 37.8404C130.171 38.3135 130.279 38.4757 130.779 38.4621C131.901 38.4216 133.01 38.4351 134.132 38.4621C134.537 38.4621 134.686 38.3946 134.686 37.935C134.672 30.852 134.672 23.7824 134.686 16.6994C134.686 16.2262 134.51 16.1857 134.118 16.1857C133.023 16.2128 131.928 16.2263 130.834 16.1857C130.252 16.1587 130.158 16.375 130.158 16.8886C130.171 20.3761 130.158 23.85 130.158 27.3375C130.158 30.8249 130.158 34.3394 130.158 37.8539M195.622 18.6729C195.324 18.7675 195.284 18.9297 195.297 19.1865C195.297 19.9976 195.297 20.8086 195.297 21.6197C195.297 21.9441 195.216 22.0657 194.878 22.0522C194.135 22.0252 193.391 22.0522 192.648 22.0387C192.31 22.0387 192.134 22.0927 192.148 22.4847C192.175 23.2552 192.161 24.0122 192.148 24.7827C192.148 25.1206 192.256 25.2288 192.594 25.2152C193.243 25.1882 193.905 25.2423 194.54 25.2017C195.122 25.1612 195.324 25.2828 195.311 25.9317C195.27 28.554 195.284 31.1764 195.297 33.7987C195.311 36.1507 196.487 37.9079 198.46 38.5432C200.082 39.0704 201.718 38.8812 203.354 38.5568C203.597 38.5162 203.692 38.3946 203.678 38.1242C203.611 37.1375 203.583 36.1372 203.529 35.0964C202.975 35.3397 202.434 35.4478 201.88 35.5019C200.758 35.61 200.001 35.0828 199.731 33.9879C199.65 33.65 199.609 33.2985 199.609 32.9606C199.609 30.5545 199.609 28.135 199.596 25.7154C199.596 25.2558 199.758 25.1882 200.15 25.2017C201.056 25.2288 201.961 25.1882 202.867 25.2152C203.313 25.2288 203.421 25.0936 203.408 24.6746C203.381 23.9852 203.381 23.2823 203.408 22.5794C203.421 22.1603 203.327 22.0116 202.881 22.0252C201.975 22.0657 201.069 22.0117 200.164 22.0522C199.677 22.0793 199.596 21.9035 199.596 21.4709C199.623 20.1463 199.596 18.8216 199.596 17.4023C198.217 17.8483 196.919 18.2674 195.608 18.6594M174.332 18.6729C174.048 18.754 174.062 18.9297 174.062 19.146C174.062 19.93 174.035 20.7275 174.062 21.5115C174.075 21.917 173.994 22.0927 173.535 22.0657C172.791 22.0252 172.048 22.0657 171.304 22.0522C170.98 22.0522 170.845 22.1333 170.858 22.4847C170.872 23.2552 170.885 24.0122 170.858 24.7827C170.845 25.1747 171.02 25.2423 171.358 25.2287C172.007 25.2152 172.656 25.2558 173.305 25.2152C173.873 25.1747 174.048 25.3234 174.048 25.9181C174.021 28.6621 174.008 31.3926 174.062 34.1366C174.102 36.2859 175.305 37.9215 177.198 38.5432C178.82 39.0704 180.455 38.8812 182.091 38.5703C182.442 38.5027 182.442 38.2729 182.429 38.0026C182.375 37.0564 182.334 36.1101 182.28 35.1234C182.05 35.2045 181.834 35.2856 181.618 35.3532C179.55 35.975 178.387 35.1369 178.374 33.0012C178.374 30.6086 178.374 28.2161 178.374 25.8235C178.374 25.418 178.401 25.1882 178.914 25.2152C179.82 25.2693 180.726 25.2152 181.631 25.2423C182.01 25.2423 182.172 25.1612 182.159 24.7421C182.132 24.0257 182.118 23.2958 182.159 22.5794C182.186 22.1198 181.996 22.0387 181.591 22.0522C180.712 22.0793 179.82 22.0387 178.941 22.0657C178.482 22.0792 178.36 21.9441 178.374 21.498C178.401 20.1598 178.374 18.8216 178.374 17.4023C176.982 17.8483 175.67 18.2809 174.332 18.6864M226.928 18.6594C226.59 18.7675 226.495 18.9297 226.509 19.2541C226.522 20.0381 226.509 20.8357 226.509 21.6197C226.509 21.9576 226.414 22.0522 226.076 22.0522C225.333 22.0252 224.589 22.0522 223.846 22.0387C223.508 22.0387 223.346 22.0927 223.359 22.4847C223.386 23.2552 223.386 24.0257 223.359 24.7827C223.346 25.1747 223.494 25.2423 223.832 25.2287C224.441 25.2017 225.049 25.2828 225.644 25.2017C226.401 25.1071 226.536 25.418 226.522 26.1074C226.482 28.6081 226.495 31.1223 226.522 33.6365C226.536 36.3534 227.887 38.1783 230.212 38.692C231.645 39.0029 233.078 38.8542 234.511 38.5703C234.808 38.5162 234.93 38.381 234.903 38.0431C234.849 37.2861 234.808 36.5156 234.835 35.7452C234.849 35.2045 234.754 35.0829 234.2 35.2721C232.118 35.975 230.956 35.1639 230.821 33.0012C230.821 32.9606 230.821 32.9066 230.821 32.866C230.821 30.4735 230.821 28.0809 230.821 25.6884C230.821 25.2693 230.969 25.2017 231.348 25.2017C232.308 25.2288 233.254 25.2017 234.214 25.2152C234.524 25.2152 234.673 25.1477 234.66 24.7962C234.633 24.0257 234.633 23.2552 234.66 22.4983C234.673 22.0657 234.484 22.0117 234.119 22.0117C233.186 22.0387 232.254 22.0116 231.321 22.0252C230.915 22.0252 230.807 21.9035 230.821 21.5115C230.848 20.1598 230.821 18.8216 230.821 17.3887C229.469 17.8213 228.212 18.2403 226.941 18.6188M168.979 23.2011C169.101 22.4983 168.979 22.1874 168.195 22.0522C165.884 21.6602 163.586 21.3628 161.301 22.1468C159.125 22.9038 157.922 24.5394 157.909 26.7292C157.909 29.0136 158.855 30.2707 161.234 31.1223C161.518 31.2169 161.802 31.3115 162.099 31.3926C162.802 31.6224 163.532 31.7846 164.208 32.1091C164.911 32.447 165.37 32.9471 165.316 33.7852C165.262 34.6368 164.762 35.1234 164.005 35.4072C163.221 35.7046 162.41 35.7046 161.599 35.61C160.463 35.4749 159.409 35.0693 158.314 34.5962C158.233 35.6776 158.179 36.6914 158.098 37.7052C158.071 38.0701 158.206 38.1918 158.544 38.2459C159.301 38.381 160.044 38.5838 160.801 38.6784C162.951 38.9353 165.073 38.9488 167.073 37.9485C169.006 36.9752 169.898 35.3937 169.844 33.2715C169.79 31.2169 168.763 29.8381 166.857 29.0812C166.411 28.9054 165.951 28.7297 165.492 28.581C164.748 28.3242 163.964 28.162 163.275 27.7835C162.802 27.5402 162.45 27.2158 162.45 26.6075C162.45 25.9587 162.721 25.4991 163.289 25.1882C163.789 24.9178 164.329 24.8232 164.897 24.8097C166.208 24.7827 167.465 25.0801 168.749 25.5126C168.831 24.7151 168.844 23.9446 168.979 23.2011ZM87.7 37.8404C87.7 38.3135 87.8081 38.4757 88.3083 38.4621C89.3491 38.4216 90.4035 38.4216 91.4443 38.4621C92.0255 38.4892 92.2282 38.3675 92.2147 37.7187C92.1742 34.9342 92.2147 32.1496 92.1742 29.3651C92.1742 28.7973 92.3499 28.6892 92.8636 28.7027C94.9588 28.7297 97.0539 28.7027 99.1491 28.7297C99.6087 28.7297 99.7439 28.6081 99.7168 28.1485C99.6763 27.405 99.6628 26.6616 99.7168 25.9181C99.7574 25.3234 99.6222 25.1206 98.9734 25.1341C96.9052 25.1747 94.8371 25.1341 92.7555 25.1612C92.3229 25.1612 92.1607 25.0936 92.1607 24.607C92.2012 23.1606 92.1877 21.7278 92.1607 20.2949C92.1607 19.8489 92.2553 19.7137 92.7284 19.7137C94.9587 19.7407 97.2026 19.7137 99.4329 19.7407C99.9736 19.7407 100.109 19.5921 100.082 19.0784C100.041 18.3079 100.041 17.5509 100.082 16.7805C100.109 16.2668 99.9061 16.1857 99.4465 16.1857C95.7292 16.1992 91.9985 16.1992 88.2812 16.1857C87.7675 16.1857 87.673 16.3479 87.6865 16.8075C87.7 20.3085 87.6865 23.823 87.6865 27.3239C87.6865 30.8249 87.6865 34.3394 87.6865 37.8404M217.29 37.989C217.276 38.327 217.344 38.4892 217.736 38.4757C218.804 38.4486 219.872 38.4486 220.953 38.4757C221.345 38.4757 221.413 38.3405 221.399 37.989C221.399 32.839 221.399 27.6754 221.399 22.5253C221.399 22.1063 221.251 22.0252 220.872 22.0387C219.845 22.0657 218.817 22.0792 217.804 22.0387C217.236 22.0117 217.06 22.1468 217.074 22.7416C217.114 25.1747 217.074 27.6213 217.087 30.0544C217.087 30.8519 216.993 31.6359 216.803 32.3929C216.574 33.2986 216.182 34.1502 215.452 34.772C213.681 36.2859 211.275 35.5019 210.775 33.258C210.626 32.6227 210.612 31.9739 210.599 31.325C210.599 28.4459 210.585 25.5667 210.599 22.6875C210.599 22.1604 210.464 22.0117 209.937 22.0387C208.896 22.0792 207.841 22.0657 206.801 22.0387C206.395 22.0387 206.287 22.1468 206.287 22.5523C206.3 26.0804 206.273 29.6083 206.314 33.1363C206.327 34.6503 206.733 36.0831 207.801 37.2321C209.342 38.8947 211.302 39.0975 213.397 38.6784C214.924 38.381 216.154 37.5295 217.29 36.2453C217.29 36.9482 217.303 37.4619 217.29 37.989ZM240.715 28.6486C240.404 28.6486 240.256 28.5945 240.296 28.2296C240.553 25.9452 242.473 24.5124 244.73 24.9179C246.636 25.2558 247.325 26.9995 247.433 28.3377C247.46 28.7433 247.177 28.6486 246.974 28.6486C245.933 28.6486 244.879 28.6486 243.838 28.6486C242.797 28.6486 241.743 28.6486 240.702 28.6486M249.664 34.4205C247.974 35.2586 246.23 35.8263 244.311 35.6776C242.27 35.5154 240.851 34.2988 240.364 32.3524C240.229 31.7846 240.283 31.5954 240.932 31.6089C244.311 31.6359 247.677 31.6089 251.056 31.6359C251.475 31.6359 251.624 31.5548 251.61 31.1088C251.583 30.0409 251.502 28.973 251.299 27.9322C250.732 24.9989 249.353 22.7416 246.217 21.9711C245.46 21.7819 244.703 21.7548 243.932 21.7143C240.851 21.5656 238.269 23.1066 237.025 25.9317C235.903 28.4729 235.836 31.1088 236.647 33.7446C237.241 35.7046 238.472 37.205 240.377 38.0026C243.622 39.3543 246.852 39.1651 250.042 37.7593C250.218 37.6782 250.367 37.597 250.353 37.3537C250.353 36.2994 250.353 35.2315 250.353 34.1772C250.029 34.1772 249.867 34.3394 249.664 34.4475M143.459 22.6334C143.499 22.1739 143.391 21.9711 142.864 21.9981C141.891 22.0387 140.904 22.0387 139.931 21.9981C139.417 21.9711 139.322 22.1603 139.336 22.6199C139.363 25.4991 139.336 28.3783 139.336 31.2575C139.336 33.4608 139.336 35.6641 139.336 37.8674C139.336 38.2459 139.376 38.4622 139.85 38.4351C140.944 38.3946 142.039 38.4081 143.134 38.4351C143.54 38.4351 143.634 38.3135 143.634 37.9215C143.621 35.9479 143.634 33.9744 143.634 32.0009C143.634 31.0277 143.594 30.0544 143.743 29.0812C143.891 28.0403 144.162 27.0401 144.824 26.1885C145.621 25.1612 147 24.7016 148.257 25.0936C149.474 25.4721 149.879 26.4723 150.028 27.6078C150.096 28.1755 150.136 28.7568 150.136 29.338C150.136 32.1496 150.163 34.9612 150.136 37.7593C150.136 38.327 150.312 38.4486 150.839 38.4351C151.866 38.3946 152.88 38.3946 153.908 38.4351C154.354 38.4486 154.448 38.2999 154.448 37.8809C154.435 35.7722 154.448 33.6635 154.448 31.5413C154.448 29.9463 154.529 28.3377 154.381 26.7427C154.137 24.1339 152.718 22.3496 150.407 21.7954C149.325 21.5386 148.244 21.5791 147.162 21.7954C145.676 22.0928 144.5 22.8903 143.459 24.2149C143.459 23.5661 143.432 23.0795 143.459 22.6064M84.5505 17.2536C84.6045 16.8075 84.4288 16.6588 84.0368 16.5372C80.6305 15.4963 77.2511 15.5369 73.9259 16.794C71.1278 17.8483 69.1813 19.8219 68.154 22.647C67.1267 25.4721 67.0186 28.3647 67.762 31.271C68.4379 33.9474 70.0194 35.9885 72.4795 37.2591C76.2779 39.2056 80.2655 39.0975 84.3072 38.1918C84.4964 38.1513 84.6181 38.0566 84.591 37.8674C84.4964 36.7184 84.564 35.5559 84.3747 34.3664C83.2258 34.8801 82.0498 35.0558 80.8738 35.2045C77.143 35.6911 73.98 34.0826 72.6823 30.9466C71.7902 28.7973 71.7361 26.567 72.4795 24.3637C73.4258 21.5656 75.3587 19.8489 78.3055 19.4434C80.3466 19.1595 82.3336 19.4569 84.2666 20.5653C84.3612 19.3893 84.4288 18.335 84.5505 17.2806M109.733 20.6599C110.828 23.7824 111.882 26.7697 112.95 29.8111H106.516C107.584 26.7832 108.625 23.8095 109.733 20.6599ZM102.664 38.4621C103.164 38.4757 103.353 38.2864 103.502 37.8674C103.988 36.5157 104.529 35.191 105.016 33.8393C105.164 33.4337 105.354 33.3256 105.759 33.3256C108.381 33.3391 111.017 33.3391 113.64 33.3256C114.059 33.3256 114.248 33.4608 114.383 33.8393C114.883 35.2315 115.41 36.6103 115.924 38.0026C116.032 38.2864 116.14 38.4621 116.505 38.4486C117.87 38.4216 119.249 38.4216 120.628 38.4486C121.034 38.4486 121.047 38.2999 120.925 37.989C120.709 37.4483 120.493 36.9212 120.277 36.3805C117.708 29.8381 115.126 23.2958 112.572 16.7534C112.396 16.3209 112.193 16.1587 111.707 16.1722C110.423 16.2128 109.152 16.2128 107.868 16.1722C107.368 16.1587 107.192 16.3344 107.03 16.767C105.489 20.7546 103.921 24.7422 102.366 28.7297C101.109 31.9333 99.852 35.1369 98.5679 38.4486C99.9872 38.4486 101.312 38.4216 102.637 38.4621M29.0621 54.0746C29.0216 53.8718 28.9945 53.6691 28.9269 53.4663C27.413 48.7488 25.8991 44.0313 24.3851 39.3137C23.9526 37.9755 23.52 36.6373 23.0469 35.1639C22.3576 36.2048 21.7763 37.1374 21.141 38.0296C20.8706 38.4081 20.8301 38.7325 20.9653 39.1786C21.9655 42.2335 22.9523 45.3019 23.9255 48.3703C24.5338 50.2627 25.2097 52.1281 25.7098 54.0611H29.0621V54.0746ZM0 26.0668C0 26.0668 0.05406 26.0533 0.05406 26.0263C0.283853 25.6748 -0.108146 25.1071 0.351441 24.9043C0.716407 24.7421 1.176 24.8097 1.58152 24.7692C5.6367 24.4042 9.67836 24.0528 13.7335 23.6878C16.2613 23.458 18.7755 23.2417 21.3032 22.9984C21.8169 22.9443 22.1683 23.0795 22.5198 23.4715C23.2227 24.269 23.9796 25.026 24.7907 25.8641C23.9931 26.1344 23.2227 26.0804 22.4927 26.1479C18.5592 26.5129 14.6257 26.8373 10.6922 27.1888C7.40746 27.4726 4.12276 27.743 0.838064 28.0809C0.337925 28.135 0.175717 27.9728 0.0135098 27.6078V26.0803L0 26.0668Z" fill="#EFEDDF"/>
</g>
<defs>
<clipPath id="clip0_1948_3314">
<rect width="251" height="54" fill="white" transform="translate(0.5)"/>
</clipPath>
</defs>
</svg>
