<svg width="216" height="23" viewBox="0 0 216 23" fill="none" xmlns="http://www.w3.org/2000/svg">
<g clip-path="url(#clip0_1948_3261)">
<path d="M33.3336 20.5057C33.3336 14.4229 33.3336 8.34013 33.3336 2.25736C33.3336 1.55446 33.3336 0.865131 34.05 0.364992H29.5082C30.2381 0.851614 30.2787 1.50038 30.2787 2.16273C30.2787 8.27253 30.2787 14.3823 30.2787 20.5057C30.2787 21.1815 30.184 21.8034 29.6434 22.263C29.6434 22.263 29.6434 22.317 29.6434 22.3441H33.9283C33.3741 21.8169 33.32 21.1951 33.32 20.5192M54.5016 19.2486C53.7852 20.5192 52.5957 20.8166 51.298 20.8977C49.4056 21.0059 47.5267 21.0328 45.6478 20.8301C45.2152 20.7895 45.0936 20.6409 45.0936 20.2083C45.1071 14.2878 45.0936 8.36719 45.0936 2.46015C45.0936 1.70318 45.0125 0.919174 45.8641 0.337931H41.2547C42.0116 0.83807 42.0522 1.51397 42.0522 2.23038C42.0522 8.12391 42.0522 14.0039 42.0522 19.8974C42.0522 20.7626 42.2144 21.6682 41.2412 22.3305H54.0285C54.2177 21.3032 54.407 20.303 54.5962 19.3027C54.5557 19.2892 54.5286 19.2621 54.4881 19.2486M71.5198 19.3432C70.9251 20.3164 69.9924 20.7355 68.911 20.8436C66.8834 21.0328 64.8558 21.0463 62.8417 20.8436C62.1794 20.776 62.1794 20.776 62.1794 20.1272C62.1794 14.2878 62.1794 8.43473 62.1794 2.58176C62.1794 1.77072 62.0713 0.946221 62.9364 0.351462H58.3405C59.1245 0.878635 59.1245 1.58154 59.1245 2.29795C59.1245 8.29961 59.1245 14.3013 59.1245 20.3029C59.1245 21.0599 59.1515 21.8033 58.354 22.2899C58.381 22.317 58.4081 22.344 58.4351 22.371H70.1275C71.1008 22.371 71.1143 22.3711 71.29 21.3978C71.4252 20.6949 71.5469 20.0055 71.682 19.235C71.5874 19.3026 71.5469 19.3162 71.5198 19.3567M197.176 1.87892C197.136 1.98706 197.109 2.09518 197.068 2.20332C195.243 7.11009 193.418 12.0304 191.594 16.9372C191.553 17.0318 191.499 17.1129 191.418 17.2751C191.323 17.0453 191.256 16.8966 191.202 16.7344C189.377 11.9898 187.538 7.24522 185.714 2.50066C185.43 1.75721 185.281 1.02735 186.038 0.378523H180.645C181.307 0.716454 181.726 1.2706 182.05 1.91943C182.186 2.18977 182.28 2.46017 182.402 2.73051C185.078 9.36749 187.755 16.0044 190.431 22.6414C190.499 22.8036 190.566 22.9523 190.661 23.1956C190.756 22.9658 190.81 22.8306 190.864 22.6954C192.648 17.9644 194.432 13.2334 196.217 8.50233C196.744 7.12357 197.23 5.71784 197.798 4.3526C198.366 3.00087 198.609 1.48692 199.718 0.364992H196.744C197.433 0.797545 197.406 1.31118 197.176 1.86539M166.816 2.25736C166.816 8.31309 166.816 14.3688 166.816 20.4381C166.816 21.1951 166.817 21.9115 165.924 22.3981H178.874C178.982 21.8709 179.077 21.3572 179.185 20.8436C179.279 20.3299 179.388 19.8298 179.509 19.2081C178.293 20.5868 177.995 20.803 176.616 20.9382C174.467 21.1545 172.318 21.0734 170.155 20.8842C169.844 20.8571 169.844 20.6814 169.844 20.4516C169.844 17.3832 169.844 14.3148 169.844 11.2328C169.844 10.8949 169.939 10.8003 170.277 10.8003C171.548 10.8138 172.818 10.8003 174.075 10.8138C174.792 10.8273 175.522 10.9219 176.252 10.976V9.28635C175.765 9.35394 175.292 9.48914 174.805 9.48914C173.291 9.51618 171.791 9.48916 170.277 9.50267C169.966 9.50267 169.831 9.43509 169.831 9.08364C169.844 6.74516 169.831 4.40667 169.831 2.06818C169.831 1.75728 169.912 1.64908 170.236 1.6626C172.021 1.70315 173.818 1.70321 175.603 1.73025C176.441 1.73025 177.225 1.94649 177.847 2.54125C177.914 2.60884 177.982 2.6494 178.076 2.71698V0.608293C178.076 0.337948 177.887 0.351462 177.698 0.351462C173.832 0.351462 169.98 0.351462 166.114 0.351462C166.722 0.851601 166.803 1.51397 166.803 2.23038M148.501 22.4116H156.111C157.584 22.4116 159.071 22.4116 160.544 22.4116C160.72 22.4116 160.909 22.4386 160.95 22.1818C161.126 21.2085 161.328 20.2353 161.545 19.1539C161.45 19.2621 161.41 19.3026 161.383 19.3432C160.761 20.3164 159.869 20.8301 158.733 20.9382C156.624 21.1275 154.516 21.0735 152.407 20.9112C151.988 20.8842 151.88 20.7355 151.88 20.3165C151.893 17.3156 151.88 14.3148 151.88 11.3139C151.88 11.1652 151.893 11.0166 151.907 10.8138H152.394C153.664 10.8138 154.935 10.7868 156.205 10.8138C156.895 10.8273 157.584 10.922 158.287 10.9895V9.29988C157.814 9.36747 157.381 9.48916 156.935 9.50267C155.381 9.52971 153.84 9.5026 152.285 9.51612C151.961 9.51612 151.88 9.4215 151.88 9.09709C151.88 6.7586 151.88 4.42011 151.88 2.08163C151.88 1.78425 151.948 1.6626 152.272 1.6626C154.07 1.70315 155.881 1.70321 157.679 1.73025C158.571 1.73025 159.382 1.97355 160.004 2.64941C160.031 2.67645 160.098 2.68993 160.112 2.70345V0.378523H148.028C148.825 0.892179 148.866 1.59508 148.852 2.32501C148.852 8.36723 148.852 14.4094 148.852 20.4652C148.852 21.2086 148.812 21.9115 148.082 22.3981H148.487L148.501 22.4116ZM130.834 10.192C130.834 7.5426 130.834 4.89321 130.834 2.24383C130.834 1.79776 130.982 1.67613 131.388 1.67613C132.037 1.67613 132.685 1.6221 133.334 1.63562C136.105 1.63562 137.944 3.71722 137.633 6.47474C137.335 9.05653 135.592 10.6651 132.969 10.7462C132.28 10.7733 131.591 10.7462 130.847 10.7462V10.192M138.43 10.219C140.093 9.1647 140.944 7.61019 140.877 5.63667C140.809 3.63612 139.755 2.23033 137.984 1.3382C136.551 0.608263 135.01 0.392027 133.442 0.364992C131.428 0.337958 129.414 0.364992 127.4 0.364992C127.319 0.364992 127.238 0.391997 127.076 0.419032C127.698 0.892136 127.819 1.47342 127.819 2.14928C127.819 8.16446 127.819 14.1796 127.819 20.1948C127.819 21.0058 127.873 21.8169 126.995 22.3846H131.631C131.158 21.9926 130.834 21.5736 130.847 20.9923C130.847 18.1267 130.847 15.2745 130.847 12.4088C130.847 12.1115 130.969 12.0169 131.253 12.0169C131.793 12.0304 132.32 12.0169 132.861 12.0169C133.51 12.0304 134.078 12.2736 134.524 12.7332C134.848 13.0712 135.146 13.4227 135.389 13.8147C136.862 16.1126 138.322 18.4241 139.796 20.7355C140.566 21.925 141.634 22.5603 143.094 22.4657C143.932 22.4116 144.783 22.4116 145.635 22.3846C144.445 21.8709 143.607 21.0194 142.932 19.9785C142.134 18.7755 141.35 17.5724 140.579 16.3694C140.039 15.5313 139.552 14.6527 139.025 13.8012C138.322 12.6387 137.43 11.6924 136.132 11.3004C136.916 10.9354 137.741 10.6651 138.444 10.2055M109.584 19.3432C109.53 19.4243 109.49 19.5054 109.436 19.546C107.651 20.8301 105.691 21.4519 103.502 20.9518C101.123 20.4111 99.433 18.2618 99.2978 15.68C99.2167 14.0985 99.5006 12.6251 100.595 11.3815C100.785 11.1652 101.014 10.976 101.285 10.7327C103.772 13.9228 106.624 16.6668 109.584 19.3297M100.244 9.8406C98.8247 10.6787 97.6757 11.8006 96.8106 13.2064C94.9723 16.1937 95.8239 19.8433 98.7977 21.6817C100.244 22.5738 101.853 22.8712 103.515 22.9253C105.975 22.9929 108.233 22.4252 110.166 20.8166C110.76 20.3165 110.76 20.3029 111.396 20.776C112.599 21.6817 113.91 22.371 115.437 22.4386C117.046 22.5062 118.655 22.4792 120.25 22.5063C120.263 22.5063 120.277 22.5063 120.29 22.5063C120.412 22.4252 120.533 22.3305 120.655 22.2494C120.533 22.1819 120.425 22.0872 120.29 22.0466C120.114 21.9926 119.925 22.0061 119.749 21.9655C118.303 21.6952 117.046 21.0329 115.856 20.1948C114.951 19.5595 114.059 18.8971 113.126 18.2212C113.302 17.9914 113.423 17.8293 113.558 17.6535C114.87 15.8828 115.802 13.9498 115.965 11.7059C116.019 11.0436 115.87 10.8274 115.194 10.7733C114.032 10.6652 112.869 10.5975 111.693 10.5434C111.504 10.5434 111.301 10.7056 111.098 10.7867C111.288 10.8679 111.463 11.003 111.653 11.03C112.91 11.1787 113.437 11.787 113.383 13.0576C113.315 14.4634 112.883 15.7611 112.18 16.9777C112.126 17.0723 112.045 17.1534 111.977 17.248C111.896 17.194 111.828 17.1534 111.788 17.1128C109.652 15.1798 107.503 13.274 105.637 11.0706C104.678 9.93519 103.745 8.77272 102.88 7.54265C102.272 6.67755 102.028 5.66375 102.069 4.58237C102.136 2.77106 103.434 1.5004 105.259 1.5004C107.395 1.5004 108.841 2.62233 109.192 4.54178C109.246 4.85268 109.233 5.19065 109.287 5.51506C109.287 5.60969 109.395 5.74484 109.449 5.74484C109.53 5.74484 109.652 5.66374 109.706 5.58263C109.76 5.48801 109.774 5.36637 109.787 5.25823C109.895 4.10927 110.017 2.96032 110.098 1.81135C110.152 1.12197 110.058 0.98677 109.368 0.770494C107.259 0.0946307 105.124 0.0541086 103.015 0.716454C101.65 1.14901 100.487 1.93295 99.7574 3.19005C98.6354 5.13654 98.9599 7.02898 100.014 8.88085C100.163 9.13768 100.339 9.36749 100.514 9.66487C100.393 9.74598 100.312 9.79998 100.23 9.85405M0 0.405501C0.770484 0.90564 0.824552 1.66263 0.811035 2.46015C0.811035 8.2185 0.811035 13.9903 0.811035 19.7487C0.811035 20.6408 1.01379 21.6006 0.121656 22.317H3.10897C2.40607 21.8169 2.29793 21.195 2.31145 20.4921C2.31145 15.1663 2.31145 9.8406 2.31145 4.5148C2.31145 4.42018 2.32497 4.312 2.352 4.13628C5.04194 10.3813 7.71835 16.5316 10.4083 22.7901C13.1388 16.437 15.8152 10.1785 18.5457 3.81188C18.5727 4.02815 18.5862 4.12276 18.5862 4.21738C18.5862 9.78649 18.5862 15.3556 18.5862 20.9112C18.5862 21.3979 18.4375 21.8169 18.0591 22.1548C18.0185 22.1954 17.9915 22.2494 17.9509 22.317H22.3981C21.7358 21.8034 21.6682 21.1815 21.6682 20.5057C21.6682 14.5986 21.6682 8.69159 21.6682 2.78455C21.6682 1.93296 21.4789 1.02729 22.3846 0.310871C21.0869 0.310871 19.938 0.324388 18.789 0.310871C18.4511 0.310871 18.2889 0.432523 18.1672 0.729902C16.2477 5.28522 14.3148 9.8406 12.3953 14.3959C12.0439 15.2069 11.7059 16.018 11.3275 16.9101C11.2328 16.7479 11.1653 16.6668 11.1247 16.5586C9.52967 12.8279 7.92111 9.09709 6.32608 5.37984C5.65021 3.81184 4.98787 2.24388 4.29849 0.689393C4.2309 0.540704 4.04166 0.351462 3.90649 0.351462C2.62235 0.324427 1.35173 0.337931 0.0675866 0.337931C0.040552 0.364966 0.0270345 0.391997 0 0.419032M216.276 19.1134C216.276 19.1134 216.154 19.2351 216.114 19.3027C215.479 20.33 214.532 20.8436 213.356 20.9518C211.207 21.1275 209.044 21.087 206.895 20.8977C206.557 20.8707 206.557 20.6679 206.557 20.4381C206.557 17.3832 206.557 14.3283 206.557 11.2599C206.557 10.8949 206.692 10.8138 207.03 10.8138C208.274 10.8273 209.518 10.8138 210.748 10.8273C211.478 10.8409 212.221 10.922 212.978 10.9895V9.31341C212.532 9.381 212.113 9.51612 211.68 9.51612C210.099 9.54316 208.531 9.51613 206.949 9.52965C206.679 9.52965 206.571 9.4486 206.571 9.16474C206.571 6.79922 206.571 4.4337 206.571 2.06818C206.571 1.7708 206.665 1.68966 206.963 1.68966C208.761 1.71669 210.572 1.73019 212.37 1.75723C213.086 1.75723 213.775 1.90592 214.357 2.35199C214.519 2.47365 214.668 2.6088 214.83 2.75749V0.405501H202.732C203.57 0.946192 203.556 1.68965 203.556 2.44662C203.556 8.44828 203.556 14.45 203.556 20.4516C203.556 21.2086 203.556 21.925 202.799 22.4252H203.286C207.138 22.4252 210.977 22.4252 214.83 22.4252C215.749 22.4252 215.546 22.6144 215.762 21.6411C215.938 20.8571 216.1 20.0867 216.276 19.3027V19.1404V19.1134ZM82.0633 0C82.604 0.121655 83.1717 0.189268 83.6989 0.364992C84.3071 0.554234 84.9019 0.824536 85.4967 1.08136C85.6183 1.13543 85.7535 1.29764 85.7535 1.4193C85.8211 2.66288 85.8616 3.90652 85.9022 5.01493C85.4426 4.37962 84.9965 3.58205 84.4018 2.93322C83.1041 1.55446 81.482 1.00026 79.6031 1.4193C78.292 1.70316 77.4945 2.56825 77.1836 3.85239C76.8727 5.12301 77.0889 6.3126 78.1703 7.13715C79.0219 7.77246 79.9681 8.28609 80.9008 8.79975C82.266 9.55672 83.6989 10.2055 85.0236 11.03C88.4569 13.1387 88.3353 18.1942 85.6048 20.6274C83.1987 22.7631 80.4277 23.0739 77.4539 22.1818C76.5077 21.8979 75.6155 21.4114 74.7099 20.9923C74.5882 20.9383 74.4395 20.749 74.4395 20.6274C74.426 19.2216 74.4395 17.8158 74.4395 16.41C74.5206 16.5992 74.5882 16.8154 74.6829 17.0317C75.3587 18.6268 76.3049 20.0056 77.9 20.8031C79.6707 21.6817 81.9281 21.4519 83.2663 20.2759C85.3074 18.4781 85.0776 14.9771 82.7932 13.5443C81.7253 12.882 80.5629 12.3413 79.4409 11.7736C78.2514 11.1788 77.1024 10.53 76.1022 9.63781C73.615 7.39395 73.8178 2.9468 77.2241 1.05439C78.0757 0.581282 78.9813 0.283899 79.9276 0.121692C80.0492 0.0946571 80.1709 0.0540954 80.279 0.0270609H82.0498L82.0633 0Z" fill="#EFEDDF"/>
</g>
<defs>
<clipPath id="clip0_1948_3261">
<rect width="216" height="23" fill="white"/>
</clipPath>
</defs>
</svg>
