<svg width="214" height="41" viewBox="0 0 214 41" fill="none" xmlns="http://www.w3.org/2000/svg">
<g clip-path="url(#clip0_1948_3267)">
<path d="M157.648 19.3852C157.607 18.2092 157.743 17.0467 157.864 15.8842C157.891 15.6139 157.851 15.5463 157.58 15.5598C156.918 15.5733 156.269 15.5733 155.607 15.5598C155.404 15.5598 155.35 15.6139 155.337 15.8166C155.201 18.5471 154.931 21.2641 154.62 23.9676C154.323 26.5223 154.025 29.0906 153.742 31.6453C153.444 34.2542 153.147 36.8765 152.836 39.4853C152.809 39.7422 152.876 39.7963 153.106 39.7963C153.728 39.7963 154.363 39.7692 154.985 39.7963C155.283 39.7963 155.35 39.7016 155.377 39.4178C155.445 38.6608 155.553 37.9038 155.647 37.1333C155.999 34.2947 156.337 31.4696 156.702 28.6445C156.891 27.1035 157.013 25.5355 157.459 24.0351C157.999 22.1968 158.824 20.5206 160.406 19.3446C161.744 18.3308 163.258 17.8713 164.961 18.2092C165.177 18.2497 165.15 18.1146 165.177 18.0064C165.38 17.1684 165.556 16.3303 165.772 15.4922C165.839 15.2354 165.758 15.1678 165.542 15.0867C164.393 14.6406 163.285 14.8434 162.203 15.2759C160.433 15.9788 159.203 17.3035 158.189 18.8715C158.027 19.1148 157.878 19.3717 157.716 19.6285C157.594 19.5474 157.634 19.4528 157.634 19.3852M112.081 15.695C113.001 19.9529 113.92 24.1973 114.852 28.4553C115.65 32.1184 116.447 35.7816 117.245 39.4583C117.312 39.7422 117.421 39.8098 117.677 39.7963C118.259 39.7827 118.853 39.7692 119.435 39.7963C119.759 39.8098 119.894 39.7016 120.016 39.4178C123.395 31.6048 126.788 23.7918 130.167 15.9788C130.221 15.8437 130.33 15.722 130.303 15.5598C129.586 15.5598 128.897 15.5733 128.194 15.5598C127.91 15.5598 127.775 15.6409 127.68 15.8977C125.477 21.1965 123.26 26.4817 121.043 31.767C120.421 33.2674 119.8 34.7543 119.151 36.2953C119.11 36.1466 119.07 36.052 119.056 35.9574C118.38 32.5645 117.705 29.1717 117.029 25.7789C116.366 22.4671 115.69 19.1554 115.042 15.8437C115.001 15.6409 114.961 15.5598 114.731 15.5598C113.866 15.5598 113.001 15.5598 112.108 15.5598C112.108 15.6274 112.108 15.6544 112.108 15.6815M61.5674 20.1421C61.297 18.6147 60.7698 17.1954 59.5398 16.1816C57.9582 14.8704 56.0929 14.6406 54.1734 14.9785C51.4564 15.4516 49.564 17.0872 48.2799 19.4663C48.2258 19.5609 48.2123 19.7502 48.0501 19.6961C47.9149 19.6555 47.9825 19.5068 47.996 19.3987C48.0906 18.2362 48.1853 17.0602 48.3069 15.9112C48.334 15.6139 48.2528 15.5598 47.9825 15.5733C47.3877 15.5868 46.7795 15.6003 46.1847 15.5733C45.8603 15.5598 45.7657 15.6544 45.7387 15.9788C45.4818 18.8986 45.3601 21.8453 44.9952 24.7651C44.6708 27.3063 44.4004 29.8475 44.103 32.4023C43.8327 34.7813 43.5624 37.1604 43.292 39.5394C43.265 39.7692 43.319 39.8233 43.5488 39.8233C44.2112 39.8233 44.86 39.8233 45.5224 39.8233C45.7657 39.8233 45.8197 39.7422 45.8468 39.5124C46.2523 35.5383 46.6443 31.5642 47.1039 27.5902C47.3607 25.3598 47.969 23.2241 49.1855 21.3046C50.6048 19.0743 52.5513 17.6955 55.3089 17.7631C56.9715 17.8037 58.161 18.6553 58.7422 20.2098C59.1478 21.2776 59.2289 22.386 59.1748 23.4944C59.0667 25.8464 58.7017 28.1714 58.4449 30.5099C58.1205 33.5107 57.7555 36.5116 57.404 39.5124C57.377 39.7287 57.4175 39.8098 57.6608 39.7963C58.2962 39.7827 58.945 39.7692 59.5803 39.7963C59.8642 39.7963 59.9318 39.6881 59.9588 39.4448C60.094 38.1201 60.2426 36.7819 60.4048 35.4572C60.7022 32.8619 60.9996 30.2531 61.2835 27.6577C61.4727 25.9275 61.7566 24.2109 61.7566 22.1968C61.7701 21.6831 61.7161 20.8991 61.5809 20.1287M83.7492 19.3311C83.249 17.4522 82.2488 15.9788 80.3563 15.2895C78.8694 14.7488 77.3285 14.6677 75.7875 15.1273C73.4625 15.8166 71.8405 17.3576 70.7185 19.4528C70.6645 19.5474 70.6509 19.7501 70.5022 19.7096C70.34 19.669 70.4212 19.4933 70.4347 19.3852C70.5293 18.2362 70.6239 17.0873 70.7456 15.9383C70.7726 15.6274 70.705 15.5598 70.4077 15.5733C69.8264 15.6003 69.2316 15.6139 68.6504 15.5733C68.2584 15.5463 68.1908 15.7085 68.1638 16.0329C68.0556 17.4658 67.934 18.8986 67.7853 20.3179C67.5825 22.1292 67.3392 23.9405 67.1635 25.7518C66.9202 28.293 66.6363 30.8208 66.366 33.3485C66.1497 35.3896 65.9469 37.4172 65.7306 39.4583C65.7036 39.7422 65.7712 39.8233 66.0551 39.8098C66.6634 39.7827 67.2851 39.7963 67.8934 39.8098C68.1502 39.8098 68.2584 39.7557 68.2719 39.4719C68.3125 38.8636 68.38 38.2553 68.4476 37.647C68.7991 34.2812 69.1505 30.9154 69.5155 27.5496C69.7588 25.3328 70.313 23.1971 71.5296 21.2911C72.7461 19.3852 74.3952 18.0605 76.7067 17.7902C79.0451 17.5198 80.7619 18.3579 81.3296 20.9802C81.6405 22.4401 81.6134 23.9135 81.4512 25.3868C80.9376 30.0909 80.3834 34.7949 79.8427 39.4989C79.8156 39.7016 79.8427 39.8098 80.086 39.7963C80.7618 39.7827 81.4242 39.7827 82.1001 39.7963C82.3299 39.7963 82.3839 39.6881 82.3975 39.4989C82.4786 38.6878 82.5732 37.8633 82.6678 37.0522C82.9652 34.4434 83.2626 31.8211 83.5464 29.2123C83.7762 27.09 84.1141 24.9948 84.1277 22.8456C84.1277 21.6561 84.0601 20.4801 83.7492 19.3311ZM18.3391 19.9394C18.0012 18.2768 17.3659 16.7899 15.879 15.8301C14.3651 14.8434 12.6619 14.6406 10.9317 14.9515C8.40398 15.4111 6.56562 16.871 5.21389 19.0067C5.13279 19.1419 5.09222 19.4392 4.90298 19.3716C4.72725 19.3041 4.93001 19.0878 4.94353 18.9256C5.11925 17.2089 5.32203 15.4922 5.51127 13.7755C6.01141 9.27428 6.49804 4.78653 6.99818 0.285285C7.02521 0.0690087 6.99815 -0.0120833 6.75484 0.00143399C6.11953 0.0149513 5.47072 0.0284685 4.83541 0.00143399C4.53803 0.00143399 4.45691 0.109557 4.4434 0.366385C4.36229 1.25852 4.25417 2.13715 4.15955 3.02929C3.83513 5.85439 3.51073 8.666 3.19983 11.4911C2.90245 14.0594 2.61856 16.6412 2.32118 19.2094C2.0238 21.7912 1.72643 24.3866 1.44256 26.9684C1.14518 29.5502 0.8478 32.1455 0.55042 34.7273C0.374695 36.2953 0.198979 37.8498 0.00973767 39.4178C-0.0308141 39.7016 0.0502895 39.8098 0.347669 39.7963C0.969463 39.7692 1.60479 39.7827 2.22659 39.7963C2.42935 39.7963 2.51042 39.7422 2.53746 39.5259C2.60505 38.796 2.71319 38.0661 2.79429 37.3226C3.19981 33.9298 3.60533 30.5234 4.02437 27.1306C4.28119 25.076 4.83542 23.1024 5.94384 21.3181C7.11984 19.4392 8.68783 18.0875 10.9587 17.7902C13.3242 17.4793 15.095 18.4119 15.6627 20.9532C15.8925 21.967 15.9466 22.9943 15.852 24.0216C15.7438 25.2517 15.6087 26.4818 15.487 27.7253C15.2437 30.0774 15.0004 32.4294 14.7706 34.7814C14.6084 36.3494 14.4597 37.9174 14.2975 39.4719C14.2705 39.7152 14.3245 39.7962 14.5813 39.7827C15.2437 39.7692 15.8925 39.7827 16.5549 39.7827C16.7441 39.7827 16.8252 39.7422 16.8522 39.5394C16.9874 38.2958 17.1226 37.0522 17.2713 35.8086C17.5417 33.4431 17.812 31.0776 18.0688 28.7121C18.2716 26.8873 18.5284 25.0625 18.5824 23.5485C18.623 22.1292 18.5689 21.0343 18.3527 19.9529M185.629 17.8172C185.723 16.7763 185.818 15.7355 185.926 14.6947C185.953 14.4243 185.953 14.3027 185.615 14.3027C183.723 14.3162 181.817 14.3027 179.924 14.3027C179.708 14.3027 179.614 14.3297 179.587 14.5866C179.465 15.7491 179.316 16.9115 179.195 18.074C178.816 21.3993 178.451 24.711 178.073 28.0362C177.64 31.8211 177.208 35.6194 176.761 39.4042C176.721 39.7151 176.789 39.8098 177.126 39.8098C178.87 39.7963 180.614 39.8098 182.358 39.8098C183.047 39.8098 183.06 39.8098 183.142 39.1339C183.588 35.4437 184.02 31.7535 184.466 28.0633C184.656 26.5493 184.899 25.0354 185.548 23.6161C186.291 21.994 187.521 21.0343 189.292 20.7504C190.59 20.5477 191.847 20.6152 193.09 21.0613C193.253 21.1154 193.415 21.237 193.442 20.8991C193.644 18.7093 193.874 16.5195 194.104 14.3297C194.145 13.9783 194.009 13.8161 193.699 13.735C192.779 13.4917 191.847 13.5322 190.914 13.6944C189.184 13.9918 187.9 14.9921 186.845 16.3438C186.413 16.898 186.061 17.5063 185.656 18.1957C185.656 18.0064 185.656 17.9118 185.656 17.8307M90.7511 29.2798C90.7511 30.7262 90.9268 31.9968 91.3864 33.2268C92.5895 36.4845 95.374 38.0931 98.7804 37.4848C101.038 37.0793 102.714 35.7816 104.012 33.9568C105.363 32.0509 106.026 29.8881 106.282 27.5902C106.485 25.7653 106.404 23.9811 105.782 22.2373C104.579 18.8445 101.687 17.1954 98.1586 17.9253C95.9282 18.3849 94.2926 19.7096 93.022 21.5344C91.3864 23.9135 90.8052 26.6034 90.7376 29.2934M96.4959 40.5667C96.1445 40.3775 95.7525 40.4451 95.374 40.364C92.211 39.7152 90.1969 37.7416 89.0615 34.8219C88.2099 32.6321 88.0747 30.3612 88.3045 28.0497C88.5478 25.5626 89.1561 23.1835 90.3997 20.9937C91.846 18.4525 93.8331 16.4925 96.6311 15.4517C100.105 14.154 103.971 14.9921 106.282 17.5603C107.756 19.1824 108.54 21.1424 108.797 23.2782C109.324 27.6307 108.486 31.6994 106.066 35.3896C104.431 37.8903 102.187 39.6205 99.2129 40.2964C98.6993 40.418 98.1721 40.4856 97.6449 40.5127C97.5638 40.5127 97.4692 40.4721 97.4422 40.5938H96.523L96.4959 40.5667ZM28.8556 37.62C31.7347 37.5794 33.884 36.3358 35.2222 33.7676C36.182 31.9292 36.5199 29.9287 36.6956 27.9011C36.7091 27.6983 36.628 27.6713 36.4658 27.6713C34.7221 27.6983 32.9784 27.5767 31.2481 27.847C29.6396 28.0903 28.0851 28.5229 26.7739 29.5502C25.1654 30.8343 24.5165 32.5239 24.8139 34.538C25.0843 36.3899 26.7604 37.62 28.8691 37.5929M27.977 40.5667C27.6255 40.4045 27.2335 40.4451 26.855 40.364C24.111 39.7828 22.516 38.1201 22.2321 35.2815C21.9888 32.7943 22.5565 30.4829 24.2056 28.5364C25.4898 27.0089 27.22 26.1844 29.1124 25.6842C30.7074 25.2652 32.3295 25.1435 33.9651 25.1435C34.8302 25.1435 35.6953 25.1435 36.5604 25.1435C36.8037 25.1435 36.9254 25.103 36.9524 24.8191C37.0606 23.7513 37.2498 22.6969 37.1281 21.6155C36.8848 19.4528 35.5737 18.1146 33.3974 17.8172C30.6669 17.4387 28.396 18.4119 26.3819 20.1557C26.0845 20.4125 25.9764 20.399 25.8007 20.061C25.5303 19.5339 25.2059 19.0202 24.895 18.5066C24.8139 18.3714 24.7463 18.2632 24.9085 18.1146C27.7472 15.5868 30.9643 14.2621 34.8032 15.0867C37.4525 15.6544 39.1152 17.6415 39.4396 20.399C39.6424 22.0616 39.4261 23.6972 39.2233 25.3463C38.6691 30.0233 37.9932 34.6732 37.9932 39.4042C37.9932 39.7287 37.8851 39.8098 37.5877 39.7827C37.0876 39.7557 36.5874 39.7557 36.0873 39.7827C35.7088 39.8098 35.5872 39.7016 35.5736 39.3096C35.5466 38.3364 35.6277 37.3632 35.7494 36.3899C35.7629 36.2547 35.8981 36.052 35.7088 35.9979C35.5737 35.9574 35.5196 36.1736 35.452 36.2818C34.5463 37.7281 33.4515 38.9987 31.8699 39.7557C30.9913 40.1747 30.0586 40.391 29.0989 40.4721C28.9773 40.4721 28.815 40.391 28.7204 40.5532H27.9634L27.977 40.5667ZM140.508 25.6842C142.684 25.6842 144.861 25.6842 147.037 25.6842C147.294 25.6842 147.402 25.6302 147.415 25.3463C147.456 24.3731 147.415 23.3998 147.159 22.4536C145.983 18.02 141.387 16.3168 137.67 19.0067C135.52 20.5612 134.277 22.751 133.655 25.3057C133.574 25.6437 133.668 25.6842 133.979 25.6842C136.156 25.6842 138.332 25.6842 140.508 25.6842ZM138.629 40.5667C138.305 40.391 137.94 40.4316 137.602 40.364C134.723 39.7828 132.83 38.0255 131.695 35.3896C130.857 33.4566 130.573 31.402 130.641 29.3068C130.749 25.522 131.857 22.0616 134.182 19.0337C135.682 17.0872 137.575 15.6274 140.008 15.0732C144.077 14.127 147.551 15.9653 149.092 19.8448C150.051 22.2644 150.214 24.7651 149.74 27.3063C149.7 27.4956 149.632 27.6848 149.646 27.874C149.659 28.3471 149.402 28.3877 149.01 28.3877C143.901 28.3877 138.791 28.3877 133.682 28.3877C133.493 28.3877 133.249 28.293 133.222 28.631C133.06 31.1182 133.385 33.4837 134.966 35.5113C136.237 37.1469 138.007 37.7416 140.008 37.5659C142.793 37.3226 144.874 35.8492 146.429 33.5918C146.631 33.2945 146.726 33.308 146.929 33.5783C147.307 34.0784 147.713 34.5516 148.118 35.0382C148.24 35.1869 148.281 35.2815 148.159 35.4572C146.402 38.012 144.104 39.7963 140.968 40.3505C140.522 40.4316 140.062 40.391 139.629 40.5532H138.629V40.5667ZM199.389 24.2514C202.133 24.2514 204.877 24.2514 207.621 24.2514C207.838 24.2514 207.878 24.1568 207.892 23.9676C207.919 23.4269 207.919 22.8862 207.811 22.3455C207.392 20.1557 205.567 18.9662 203.377 19.4798C201.43 19.9394 199.619 22.0886 199.389 24.2379M202.039 40.5667C201.647 40.391 201.228 40.4451 200.836 40.364C196.943 39.6205 194.537 37.2415 193.347 33.5513C192.671 31.4426 192.604 29.2798 192.847 27.1035C193.131 24.5488 193.847 22.1157 195.199 19.8988C197.064 16.8304 199.66 14.6947 203.228 13.8702C205.134 13.4241 207.054 13.4241 208.905 14.181C211.217 15.1408 212.528 16.9791 213.285 19.2635C213.92 21.1965 214.083 23.1836 214.015 25.1976C213.974 26.5088 213.772 27.8064 213.582 29.0906C213.528 29.442 213.393 29.469 213.109 29.469C208.784 29.469 204.458 29.469 200.133 29.469C199.849 29.469 199.579 29.4961 199.295 29.469C198.93 29.4285 198.849 29.5772 198.889 29.9151C198.997 30.8073 199.214 31.6724 199.646 32.4564C200.795 34.5245 203.161 35.1463 205.256 33.9433C206.243 33.3756 207 32.551 207.635 31.6318C207.838 31.348 207.946 31.3074 208.203 31.5913C209.352 32.8078 210.501 34.0244 211.677 35.2139C211.879 35.4166 211.839 35.5248 211.677 35.7275C209.514 38.4851 206.77 40.2288 203.201 40.4991C203.147 40.4991 203.093 40.5126 203.08 40.5802H202.079L202.039 40.5667Z" fill="#EFEDDF"/>
</g>
<defs>
<clipPath id="clip0_1948_3267">
<rect width="214" height="41" fill="white"/>
</clipPath>
</defs>
</svg>
