<svg width="135" height="93" viewBox="0 0 135 93" fill="none" xmlns="http://www.w3.org/2000/svg">
<g clip-path="url(#clip0_1948_3312)">
<path d="M52.7978 31.6304C52.8383 52.0415 52.8789 72.4525 52.9194 92.8906H48.2154C48.2154 92.6744 48.2019 92.4581 48.2019 92.2283C48.2019 85.2669 48.1884 78.3055 48.1749 71.3576C48.1478 55.0288 48.1208 38.6999 48.0938 22.3711C48.0938 22.1953 48.0938 22.0196 48.0938 21.8439C48.0938 21.2356 48.3911 20.8031 48.9453 20.5733C49.5131 20.33 50.0538 20.4381 50.5133 20.8571C50.662 20.9923 50.7702 21.141 50.8918 21.2897C61.2055 34.4014 71.5327 47.4997 81.8464 60.6114C81.995 60.8006 82.1572 60.9899 82.36 61.2467C82.4141 61.071 82.4411 60.9899 82.4546 60.8953C82.4546 60.7601 82.4546 60.6114 82.4546 60.4762C82.4411 50.6762 82.4141 40.8897 82.4006 31.0897C82.387 20.9382 82.36 10.8003 82.3465 0.648833V0H86.9964C87.0099 0.216276 87.037 0.432557 87.037 0.648833C87.037 5.46098 87.037 10.2731 87.0505 15.0717C87.064 27.3184 87.0911 39.565 87.1181 51.7981C87.1181 58.0026 87.1451 64.1935 87.1586 70.3979C87.1586 70.5871 87.1722 70.7899 87.1586 70.9791C87.091 71.6009 86.7531 72.0064 86.1584 72.2227C85.5906 72.4255 85.131 72.2498 84.712 71.8578C84.6039 71.7496 84.5093 71.6145 84.4146 71.4928C74.0604 58.354 63.6927 45.2017 53.3384 32.063C53.2168 31.9007 53.0816 31.752 52.9464 31.5898C52.8924 31.6034 52.8518 31.6304 52.7978 31.6439" fill="#EFEDDF"/>
<path d="M103.448 42.6743C103.732 42.6878 103.948 42.7148 104.178 42.7148C106.219 42.7148 108.26 42.6878 110.301 42.6878C113.194 42.6878 116.073 42.6878 118.966 42.6608C119.682 42.6608 120.412 42.5932 121.101 42.431C124.048 41.7551 125.941 39.9573 126.63 36.9835C127.035 35.2668 127.008 33.5231 126.671 31.7929C126.197 29.2922 124.765 27.5755 122.426 26.6023C122.196 26.5076 121.967 26.413 121.737 26.3454C119.763 25.6561 117.722 25.4533 115.654 25.4263C111.747 25.3857 107.827 25.4263 103.921 25.4263C103.759 25.4263 103.583 25.4668 103.434 25.4803V42.6743H103.448ZM103.488 67.3027C103.759 67.3027 103.962 67.3027 104.151 67.3027C108.301 67.3027 112.464 67.2892 116.614 67.2892C117.952 67.2892 119.29 67.2622 120.615 67.0729C122.061 66.8702 123.494 66.5593 124.846 65.9916C127.035 65.0589 128.752 63.626 129.685 61.3822C130.564 59.2735 130.712 57.0702 130.293 54.8533C129.793 52.258 128.239 50.3926 125.981 49.068C123.981 47.9055 121.804 47.3918 119.52 47.3783C114.343 47.3377 109.166 47.3783 103.989 47.3783C103.826 47.3783 103.651 47.4053 103.488 47.4324V67.3027ZM127.306 44.4315C127.644 44.6208 127.847 44.7289 128.036 44.8506C130.685 46.351 132.767 48.3786 134.037 51.1766C134.781 52.8122 135.159 54.5289 135.186 56.3402C135.213 58.3002 135.011 60.2062 134.402 62.0716C133.186 65.8023 130.766 68.4517 127.225 70.0873C125.4 70.9254 123.494 71.412 121.507 71.6958C119.763 71.9391 118.006 72.0067 116.235 72.0067C111.072 72.0067 105.908 72.0067 100.744 72.0067C100.555 72.0067 100.352 72.0067 100.163 72.0067C99.5008 71.9662 98.9602 71.5066 98.8385 70.8442C98.7844 70.5198 98.7709 70.1819 98.7709 69.844C98.7574 57.8947 98.7439 45.959 98.7304 34.0097C98.7304 30.2249 98.7439 26.4401 98.7033 22.6552C98.6898 21.3305 99.3521 20.6952 100.65 20.7087C105.624 20.7222 110.585 20.6682 115.559 20.7087C118.006 20.7222 120.439 20.9791 122.805 21.736C123.859 22.074 124.886 22.5065 125.846 23.0743C128.576 24.6828 130.347 27.0348 131.118 30.1032C131.685 32.3336 131.794 34.591 131.496 36.8619C131.118 39.6599 129.861 42.039 127.86 44.026C127.725 44.1612 127.563 44.2693 127.319 44.445" fill="#EFEDDF"/>
<path d="M4.82566 67.5047H5.51504C9.11063 67.5047 12.7062 67.5047 16.3018 67.5047C17.6941 67.5047 19.0729 67.3289 20.4246 66.964C25.0204 65.6933 28.589 63.071 30.8869 58.8536C32.4279 56.0015 33.1984 52.9331 33.5093 49.7295C33.685 47.9317 33.685 46.1474 33.5363 44.3496C33.3336 41.8489 32.874 39.4023 32.0359 37.0232C31.306 34.9281 30.3462 32.9545 28.8458 31.2919C25.5206 27.5882 21.3438 25.6552 16.3559 25.6012C12.7062 25.5606 9.05656 25.6012 5.42042 25.6012H4.83918V67.5047H4.82566ZM9.71891 72.1951C7.09656 72.1951 4.47421 72.1951 1.83835 72.1951C1.58152 72.1951 1.29766 72.1681 1.06786 72.0735C0.459587 71.8437 0.162208 71.3706 0.108139 70.7353C0.0946214 70.5596 0.108139 70.3839 0.108139 70.2081C0.0811041 55.4067 0.0540697 40.6053 0.0270351 25.8174C0.0270351 24.8172 0.0135173 23.8034 0 22.8031C0 22.5733 0.0135179 22.3435 0.0540696 22.1272C0.202759 21.4243 0.729932 20.9512 1.44635 20.8836C1.51393 20.8836 1.58152 20.8836 1.66262 20.8836C6.70456 20.8836 11.7465 20.7485 16.7749 20.9242C22.8307 21.1269 28.0889 23.3438 32.1846 27.9532C34.2257 30.2511 35.618 32.9275 36.6047 35.8202C37.3752 38.0911 37.8483 40.4296 38.1187 42.8221C38.3349 44.6605 38.389 46.5124 38.3079 48.3642C38.1052 52.9466 37.1049 57.3262 34.8475 61.3543C31.8061 66.8018 27.1967 70.1676 21.1275 71.5734C19.2621 72.0059 17.3832 72.1816 15.4773 72.1951C13.5578 72.1951 11.6384 72.1951 9.71891 72.1951Z" fill="#EFEDDF"/>
</g>
<defs>
<clipPath id="clip0_1948_3312">
<rect width="135" height="93" fill="white"/>
</clipPath>
</defs>
</svg>
