<svg width="224" height="34" viewBox="0 0 224 34" fill="none" xmlns="http://www.w3.org/2000/svg">
<g clip-path="url(#clip0_1948_3392)">
<path d="M144.621 0.851594H223.075V32.9145H144.621V0.851594ZM143.77 33.7932H223.94V0H143.77V33.7932Z" fill="#EFEDDF"/>
<path d="M48.4461 16.6125V19.1673C48.4461 22.4925 46.6618 24.1281 42.6742 24.1281H36.3887V11.6787H42.4714C47.2971 11.6787 48.4461 14.0307 48.4461 16.599" fill="#EFEDDF"/>
<path d="M61.044 20.6544C59.2191 20.6544 58.6244 20.6949 58.1648 20.9247C57.7052 21.1545 57.4619 21.6952 57.4619 22.6684C57.4619 23.4389 57.5971 23.8039 57.962 24.0202C58.4892 24.3716 59.3813 24.5068 60.8818 24.5068C62.3822 24.5068 63.2743 24.4257 63.8961 24.1824C64.9639 23.8039 65.0451 22.9388 65.0451 22.0061V20.6544H61.0304H61.044ZM61.044 20.6544C59.2191 20.6544 58.6244 20.6949 58.1648 20.9247C57.7052 21.1545 57.4619 21.6952 57.4619 22.6684C57.4619 23.4389 57.5971 23.8039 57.962 24.0202C58.4892 24.3716 59.3813 24.5068 60.8818 24.5068C62.3822 24.5068 63.2743 24.4257 63.8961 24.1824C64.9639 23.8039 65.0451 22.9388 65.0451 22.0061V20.6544H61.0304H61.044ZM61.044 20.6544C59.2191 20.6544 58.6244 20.6949 58.1648 20.9247C57.7052 21.1545 57.4619 21.6952 57.4619 22.6684C57.4619 23.4389 57.5971 23.8039 57.962 24.0202C58.4892 24.3716 59.3813 24.5068 60.8818 24.5068C62.3822 24.5068 63.2743 24.4257 63.8961 24.1824C64.9639 23.8039 65.0451 22.9388 65.0451 22.0061V20.6544H61.0304H61.044ZM61.044 20.6544C59.2191 20.6544 58.6244 20.6949 58.1648 20.9247C57.7052 21.1545 57.4619 21.6952 57.4619 22.6684C57.4619 23.4389 57.5971 23.8039 57.962 24.0202C58.4892 24.3716 59.3813 24.5068 60.8818 24.5068C62.3822 24.5068 63.2743 24.4257 63.8961 24.1824C64.9639 23.8039 65.0451 22.9388 65.0451 22.0061V20.6544H61.0304H61.044ZM58.1648 20.9112C57.7052 21.141 57.4619 21.6817 57.4619 22.6549C57.4619 23.4254 57.5971 23.7904 57.962 24.0067C58.4892 24.3581 59.3813 24.4933 60.8818 24.4933C62.3822 24.4933 63.2743 24.4122 63.8961 24.1689C64.9639 23.7904 65.0451 22.9253 65.0451 21.9926V20.6409H61.0304C59.2056 20.6409 58.6108 20.6814 58.1512 20.9112M126.454 16.1937C124.94 16.1937 123.899 16.3964 123.331 16.802C122.791 17.2075 122.48 17.8428 122.399 19.2621H130.171C130.171 18.424 130.063 18.0455 129.928 17.64C129.563 16.6668 128.576 16.1937 126.454 16.1937ZM132.456 20.8436H122.345V21.141C122.345 22.4522 122.588 23.3038 122.994 23.7093C123.548 24.2635 124.602 24.5203 126.522 24.5203C128.441 24.5203 129.198 24.3581 129.563 23.9931C129.887 23.6687 129.928 22.8036 130.009 22.4522H132.402C132.442 23.0064 132.442 23.5471 132.442 23.7093C132.442 24.3851 132.091 25.1691 130.698 25.6152C129.266 26.0342 127.941 26.1153 126.305 26.1153C124.345 26.0883 122.804 25.818 121.912 25.3178C120.479 24.5473 119.831 23.0064 119.831 20.5598C119.831 18.9917 120.087 17.7482 120.56 16.856C121.344 15.288 123.264 14.5851 126.359 14.5851C128.792 14.5851 130.55 15.0447 131.469 16.0044C132.28 16.802 132.537 17.8293 132.537 19.6946C132.537 20.1407 132.496 20.2759 132.469 20.8301M114.937 25.9802L109.125 20.6544H108.273V25.9802H105.84V9.89463H108.273V19.0593H109.125L113.95 14.7203H116.789L111.179 19.6946L118.168 25.9937H114.951L114.937 25.9802ZM100.055 25.2908C98.9463 25.8585 97.1215 26.1018 94.7425 26.1018C93.0934 26.1018 91.7416 25.9802 90.6873 25.6963C89.5518 25.426 88.9841 24.8988 88.9301 23.9256C88.8895 23.4119 88.93 22.9793 88.9841 22.3711H91.3226C91.4037 22.9388 91.4037 23.1145 91.4172 23.2362C91.4983 23.7634 91.4578 24.0472 92.0931 24.25C92.7014 24.4257 93.6746 24.5068 94.9047 24.5068C96.4456 24.5068 97.5135 24.3446 98.2299 24.0202C98.7436 23.7904 98.9869 23.3984 98.9869 22.6279C98.9869 21.7358 98.7977 21.3708 97.8785 21.2221C97.5946 21.168 97.3108 21.168 96.9999 21.141C96.8377 21.1275 96.3105 21.1275 95.4589 21.1005C95.0534 21.1005 94.5803 21.0599 94.0396 21.0464C91.6335 20.9247 89.0787 20.8166 89.0787 18.005C89.0787 15.4502 90.6468 14.5581 94.9317 14.5581C96.0266 14.5581 97.3648 14.6392 98.1759 14.7473C99.1086 14.869 99.8115 15.0312 100.325 15.3151C100.893 15.6395 101.082 16.1396 101.082 17.0317C101.082 17.2751 101.082 17.5184 101.042 17.9104H98.6895L98.5814 17.4102C98.4597 16.8019 98.4192 16.6803 98.2164 16.5316C97.8785 16.2613 96.8377 16.1531 95.3778 16.1531C93.9179 16.1531 93.0934 16.2207 92.4175 16.464C91.7957 16.6938 91.4983 17.0858 91.4983 17.8968C91.4983 18.4511 91.7011 18.8566 91.9715 19.0323C92.5932 19.4108 95.9185 19.3837 97.0539 19.3973C98.2705 19.4243 99.068 19.5189 99.7574 19.7622C100.987 20.1813 101.474 20.9923 101.474 22.6414C101.474 23.9526 101.042 24.7907 100.055 25.2908ZM84.5775 25.9802H82.1579V19.8163C82.1579 17.6941 82.0498 17.248 81.5496 16.856C81.063 16.4911 80.0898 16.2613 78.6164 16.2613C77.3187 16.2613 75.9805 16.4235 74.7234 16.7749V25.9802H72.3038V14.7068H74.4801L74.6423 15.5178C75.1289 15.261 75.4939 15.0447 75.994 14.9095C76.8051 14.6662 77.8189 14.5446 79.1841 14.5446C80.7251 14.5446 81.9146 14.7879 82.8338 15.1934C83.7259 15.5719 84.2125 16.3018 84.4018 17.1669C84.5234 17.7482 84.591 18.2618 84.591 19.5324V25.9802H84.5775ZM67.4781 25.9802H65.4371L65.2073 25.0475C64.3421 25.8045 62.8958 26.1424 60.706 26.1424C56.4886 26.1424 54.853 25.2502 54.853 22.5738C54.853 21.6547 55.0423 20.9517 55.4613 20.4111C56.394 19.1404 58.0972 19.0864 59.5706 19.0864H65.0451V17.9915C65.0451 17.5319 65.0586 16.9101 64.5584 16.6398C64.0178 16.3424 62.7201 16.2748 60.8547 16.2748C59.2326 16.2748 58.6919 16.3964 58.354 16.6938C58.0972 16.9777 58.0296 17.6671 57.989 17.9509H55.61C55.5965 17.4508 55.5559 17.0588 55.5559 16.7749C55.5559 16.3288 55.637 15.9639 56.002 15.6665C57.0699 14.7473 60.0031 14.6257 61.071 14.6257C62.4903 14.6257 65.3695 14.6392 66.5455 15.5584C67.0456 15.9369 67.2484 16.3964 67.37 17.0182C67.4782 17.6265 67.4781 18.4511 67.4781 19.6541V25.9802ZM51.0277 19.0729C51.0277 22.1548 49.8787 25.9802 42.7957 25.9802H33.7932V9.89463H42.0792C45.6748 9.89463 51.0141 10.1515 51.0141 16.9506V19.0729H51.0277ZM0 33.7932H140.296V0H0V33.7932ZM61.044 20.6544C59.2191 20.6544 58.6244 20.6949 58.1648 20.9247C57.7052 21.1545 57.4619 21.6952 57.4619 22.6684C57.4619 23.4389 57.5971 23.8039 57.962 24.0202C58.4892 24.3716 59.3813 24.5068 60.8818 24.5068C62.3822 24.5068 63.2743 24.4257 63.8961 24.1824C64.9639 23.8039 65.0451 22.9388 65.0451 22.0061V20.6544H61.0304H61.044ZM61.044 20.6544C59.2191 20.6544 58.6244 20.6949 58.1648 20.9247C57.7052 21.1545 57.4619 21.6952 57.4619 22.6684C57.4619 23.4389 57.5971 23.8039 57.962 24.0202C58.4892 24.3716 59.3813 24.5068 60.8818 24.5068C62.3822 24.5068 63.2743 24.4257 63.8961 24.1824C64.9639 23.8039 65.0451 22.9388 65.0451 22.0061V20.6544H61.0304H61.044ZM61.044 20.6544C59.2191 20.6544 58.6244 20.6949 58.1648 20.9247C57.7052 21.1545 57.4619 21.6952 57.4619 22.6684C57.4619 23.4389 57.5971 23.8039 57.962 24.0202C58.4892 24.3716 59.3813 24.5068 60.8818 24.5068C62.3822 24.5068 63.2743 24.4257 63.8961 24.1824C64.9639 23.8039 65.0451 22.9388 65.0451 22.0061V20.6544H61.0304H61.044ZM61.044 20.6544C59.2191 20.6544 58.6244 20.6949 58.1648 20.9247C57.7052 21.1545 57.4619 21.6952 57.4619 22.6684C57.4619 23.4389 57.5971 23.8039 57.962 24.0202C58.4892 24.3716 59.3813 24.5068 60.8818 24.5068C62.3822 24.5068 63.2743 24.4257 63.8961 24.1824C64.9639 23.8039 65.0451 22.9388 65.0451 22.0061V20.6544H61.0304H61.044Z" fill="#EFEDDF"/>
<path d="M160.802 24.1427H154.152V18.6277H161.127C164.101 18.6277 164.939 19.5739 164.939 21.6285C164.939 23.9264 163.317 24.1427 160.802 24.1427ZM154.152 11.6933H160.559C163.019 11.6933 164.357 11.9231 164.357 13.9507C164.357 16.3162 163.019 16.8028 160.262 16.8028H154.165V11.6933H154.152ZM163.668 17.5733V17.5328C165.777 16.9921 166.912 15.8837 166.912 14.167C166.912 11.3283 165.534 9.89551 161.627 9.89551H151.557V25.9946H162.033C165.561 25.9946 167.521 24.3995 167.521 21.4528C167.521 19.4657 166.385 18.0059 163.668 17.5733Z" fill="#EFEDDF"/>
<path d="M180.684 22.0066C180.684 22.9392 180.617 23.7908 179.549 24.1828C178.927 24.4261 178.035 24.5072 176.534 24.5072C175.034 24.5072 174.142 24.3585 173.615 24.0206C173.25 23.8043 173.115 23.4394 173.115 22.6689C173.115 21.6956 173.358 21.155 173.844 20.9252C174.291 20.7089 174.872 20.6548 176.724 20.6548H180.698V22.0066H180.684ZM183.036 17.0322C182.915 16.4104 182.712 15.9643 182.198 15.5723C181.022 14.6531 178.143 14.6396 176.724 14.6396C175.642 14.6396 172.723 14.7613 171.655 15.6805C171.29 15.9778 171.209 16.3428 171.209 16.7889C171.209 17.0728 171.249 17.4512 171.276 17.9649H173.642C173.709 17.681 173.75 16.9916 174.007 16.7078C174.331 16.4104 174.872 16.2887 176.494 16.2887C178.359 16.2887 179.657 16.3563 180.211 16.6537C180.711 16.9376 180.671 17.5458 180.671 18.0054V19.1003H175.21C173.736 19.1003 172.033 19.1409 171.1 20.425C170.695 20.9657 170.492 21.6821 170.492 22.5878C170.492 25.2642 172.128 26.1563 176.345 26.1563C178.548 26.1563 179.968 25.8049 180.846 25.0614L181.076 25.9941H183.117V19.668C183.117 18.4785 183.117 17.6405 183.023 17.0322" fill="#EFEDDF"/>
<path d="M199.61 19.5328V25.9805H197.19V19.8166C197.19 17.6944 197.095 17.2484 196.582 16.8564C196.095 16.4914 195.122 16.2616 193.635 16.2616C192.337 16.2616 190.999 16.4238 189.742 16.7753V25.9805H187.336V14.7071H189.499L189.688 15.5182C190.161 15.2613 190.512 15.0586 191.04 14.9099C191.837 14.6666 192.851 14.5449 194.203 14.5449C195.744 14.5449 196.933 14.7882 197.852 15.1937C198.745 15.5722 199.231 16.3022 199.434 17.1673C199.556 17.7485 199.596 18.2622 199.596 19.5328" fill="#EFEDDF"/>
<path d="M216.14 25.9811H212.937L207.124 20.6553H206.246V25.9811H203.826V9.89551H206.246V19.0467H207.124L211.937 14.7212H214.762L209.138 19.682L216.14 25.9811Z" fill="#EFEDDF"/>
</g>
<defs>
<clipPath id="clip0_1948_3392">
<rect width="224" height="34" fill="white"/>
</clipPath>
</defs>
</svg>
