<svg width="158" height="31" viewBox="0 0 158 31" fill="none" xmlns="http://www.w3.org/2000/svg">
<g clip-path="url(#clip0_1948_3372)">
<path d="M22.1902 4.54345C19.9791 4.38551 17.8809 4.12605 15.7826 4.11477C13.1316 4.10349 10.6046 4.75778 8.37101 6.26943C4.00528 9.20248 3.68941 14.6173 7.66031 18.0242C10.0067 20.0322 14.2709 21.228 17.5311 20.7203V19.1861C17.5311 17.8662 17.5199 16.5464 17.5311 15.2378C17.5424 14.5948 17.283 14.324 16.6287 14.3579C16.0308 14.3917 15.4329 14.3579 14.7673 14.3579V11.109H24.2997V14.3579C23.8597 14.3579 23.3973 14.3804 22.946 14.3579C22.382 14.324 22.1338 14.5948 22.1112 15.125C22.1112 15.3732 22.1112 15.6213 22.1112 15.8808C22.1112 18.3288 22.1112 20.7767 22.1112 23.2247V24.3415C21.5021 24.443 20.9606 24.5671 20.4078 24.6235C15.9405 25.1086 11.541 24.9168 7.36703 23.0216C4.14067 21.5551 1.59117 19.3666 0.553322 15.8921C-0.834234 11.3007 0.41795 7.36368 3.97145 4.1599C6.40813 1.97139 9.35247 0.832014 12.545 0.31309C15.4893 -0.160709 18.4336 -0.0817429 21.3779 0.448462C21.9871 0.561271 22.2353 0.786891 22.2015 1.41862C22.1563 2.47903 22.1902 3.53944 22.1902 4.53217" fill="#EFEDDF"/>
<path d="M98.201 14.9784C98.201 14.0421 98.1898 13.0945 98.201 12.1581C98.201 11.7182 98.0431 11.4813 97.6257 11.3233C96.4638 10.8721 95.2906 10.545 94.0384 10.6239C92.4478 10.7255 91.1617 11.391 90.4962 12.8801C89.5711 14.9333 89.6275 17.0315 90.5187 19.0846C91.0264 20.2579 92.0078 20.8219 93.3051 20.8106C95.1214 20.7993 96.5991 20.0548 97.7724 18.7124C98.0205 18.4303 98.1559 17.9904 98.1785 17.6181C98.2349 16.7382 98.201 15.8583 98.201 14.9897M86.1981 25.3456H90.1916C91.094 27.7146 93.8917 27.6694 95.8997 27.1392C97.716 26.6542 98.4718 24.9733 98.201 22.2659C97.9641 22.4125 97.7611 22.5253 97.5806 22.6607C95.7644 23.9919 93.6999 24.4657 91.5002 24.1272C88.9055 23.7324 87.1908 22.1756 86.2771 19.7615C85.3408 17.3022 85.3069 14.7866 86.2207 12.3161C87.8677 7.84882 92.4139 5.99874 96.9601 7.89394C97.4791 8.10828 97.9754 8.36774 98.4831 8.60464C99.002 7.78489 99.7616 7.37502 100.762 7.37502H104.191V10.3419C104.101 10.3983 104.045 10.4547 103.999 10.4547C102.307 10.545 102.42 10.466 102.42 12.2258C102.42 15.644 102.443 19.0621 102.409 22.4802C102.409 23.4165 102.33 24.3641 102.127 25.2779C101.506 28.0079 99.7465 29.7 97.0278 30.3656C94.7942 30.9184 92.538 30.9296 90.3044 30.3317C87.7549 29.6436 86.2997 27.8951 86.1981 25.3456Z" fill="#EFEDDF"/>
<path d="M104.607 3.66388V0.539062H111.59V9.39461C112.019 9.07874 112.278 8.88697 112.549 8.68391C114.298 7.35276 116.238 6.68718 118.46 7.01433C121.439 7.45428 123.413 9.67663 123.458 12.6886C123.492 14.7305 123.458 16.7611 123.458 18.8029C123.458 19.209 123.458 19.6151 123.458 20.0213C123.48 21.1268 123.559 21.2058 124.642 21.217C124.981 21.217 125.319 21.217 125.737 21.217V24.308H116.813V21.217C117.4 21.217 117.953 21.217 118.506 21.217C119.024 21.2283 119.239 20.9801 119.239 20.4725C119.239 18.1486 119.239 15.836 119.216 13.5122C119.216 13.0609 119.058 12.5871 118.889 12.1472C118.449 10.9627 117.479 10.3422 116.238 10.5001C114.332 10.737 112.955 11.8313 111.816 13.2865C111.681 13.467 111.635 13.7491 111.635 13.986C111.624 16.0842 111.624 18.1937 111.635 20.292C111.635 21.1042 111.748 21.1832 112.583 21.2058C113.046 21.2058 113.508 21.2058 114.027 21.2058V24.2742H104.946V21.2058C105.454 21.2058 105.972 21.1945 106.503 21.2058C107.089 21.2283 107.36 21.014 107.36 20.3935C107.349 15.0915 107.349 9.80072 107.36 4.49867C107.36 3.82182 107.067 3.61876 106.435 3.64132C105.848 3.66389 105.25 3.64132 104.607 3.64132" fill="#EFEDDF"/>
<path d="M77.9862 16.5017C76.2827 16.3889 74.6244 16.231 73 16.6935C72.4134 16.8627 71.8042 17.1335 71.3304 17.517C69.9315 18.6338 70.27 20.687 71.8944 21.3187C75.2562 22.616 78.4148 20.2019 77.9862 16.513M78.5615 22.7852C75.6848 25.0076 72.5826 25.3798 69.3337 24.1389C65.4079 22.6273 65.4756 18.0359 67.3369 16.1182C68.4312 14.9901 69.7962 14.3922 71.2853 14.0312C73.1918 13.5687 75.1321 13.3995 77.095 13.5574C77.377 13.58 77.6477 13.5574 77.9185 13.5574C78.0989 12.2939 77.4108 11.1433 76.1925 10.6018C74.3085 9.76699 72.1313 10.4551 71.0596 12.1924C70.9581 12.3503 70.7438 12.5308 70.5858 12.5308C69.4239 12.5647 68.262 12.5421 67.0098 12.5421C67.1339 10.7936 67.901 9.49625 69.187 8.49225C70.3377 7.60105 71.6688 7.17238 73.1015 6.99188C74.7485 6.78882 76.373 6.85651 77.9523 7.37543C80.5357 8.21022 82.0811 10.1844 82.1601 12.8918C82.2278 15.2157 82.1827 17.5283 82.1939 19.8522C82.1939 20.7471 82.6452 21.1984 83.5477 21.2059C83.7958 21.2059 84.044 21.2059 84.3712 21.2059V24.2856H78.8435C78.7532 23.8005 78.6517 23.3154 78.5502 22.7739" fill="#EFEDDF"/>
<path d="M37.5105 16.6033C36.0102 16.2084 33.1674 16.3551 31.8701 16.9078C31.5316 17.0545 31.1932 17.2463 30.8999 17.4832C30.1779 18.0585 29.8846 18.8369 30.0538 19.7394C30.223 20.6305 30.8096 21.1833 31.6783 21.3751C32.3438 21.5105 33.0545 21.6007 33.7201 21.5443C36.4388 21.33 37.9956 19.2768 37.5105 16.6145M37.4879 13.5123C37.6346 11.1771 35.5815 10.1844 33.9457 10.2746C32.5018 10.3536 31.1932 10.7146 30.584 12.2375C30.5276 12.3729 30.3246 12.5308 30.1779 12.5421C28.9934 12.5647 27.8089 12.5534 26.5342 12.5534C26.7259 10.5679 27.5946 9.10142 29.1852 8.21023C32.31 6.43912 35.5702 6.40527 38.7627 7.96204C40.782 8.94349 41.6394 10.8048 41.707 12.9821C41.7747 15.2721 41.7296 17.5621 41.7296 19.8522C41.7296 20.7546 42.1771 21.2134 43.072 21.2284C43.3202 21.2284 43.5571 21.2623 43.873 21.2848V24.3194H38.413C38.3115 23.8231 38.1987 23.3154 38.0746 22.7401C36.0327 24.6127 33.596 25.0188 31.0127 24.703C30.0425 24.5789 29.0273 24.263 28.1699 23.7892C24.9548 22.0068 24.7631 17.4944 27.7525 15.3623C29.3093 14.2568 31.1255 13.8281 32.9869 13.6589C34.2729 13.5461 35.5589 13.6025 36.845 13.5687C37.0593 13.5687 37.2736 13.5348 37.4879 13.5123Z" fill="#EFEDDF"/>
<path d="M139.771 14.0192C139.681 11.9886 137.707 10.1498 135.259 10.319C133.33 10.4544 131.13 12.045 131.266 14.0192H139.771ZM131.13 17.1891C131.333 19.0279 132.112 20.3703 133.781 20.9908C136.297 21.9158 138.531 21.2841 140.572 19.4566C141.272 20.077 141.983 20.72 142.817 21.4646C142.231 22.0399 141.746 22.6491 141.136 23.1116C137.684 25.8078 131.83 25.3227 128.874 22.1076C127.227 20.3252 126.686 18.1141 126.686 15.7677C126.686 11.5261 129.393 8.05154 133.454 7.16035C137.899 6.19019 142.4 7.9613 143.517 13.2972C143.776 14.5155 143.776 15.779 143.923 17.1778H131.13V17.1891Z" fill="#EFEDDF"/>
<path d="M54.3859 21.2166V24.285H45.4289V21.2166C45.9139 21.2166 46.399 21.2166 46.8954 21.2166C47.9107 21.2166 47.9783 21.1376 47.9896 20.1562C47.9896 18.4979 47.9896 16.8283 47.9896 15.17C47.9896 11.718 47.9896 8.26607 47.9896 4.8141C47.9896 3.71985 47.9219 3.66345 46.8051 3.65217C46.2072 3.65217 45.6207 3.65217 44.9551 3.65217V0.527344H52.2651V19.6373C52.2651 19.9193 52.2651 20.2013 52.2651 20.4833C52.2651 21.0023 52.5246 21.2166 53.0322 21.2053C53.4609 21.2053 53.9009 21.2053 54.3859 21.2053" fill="#EFEDDF"/>
<path d="M64.878 21.2166V24.3076H56.1127V21.2166C56.5076 21.2166 56.8686 21.2166 57.2408 21.2166C58.2336 21.2053 58.29 21.1489 58.3012 20.1223C58.3012 19.9983 58.3012 19.8742 58.3012 19.7501C58.3012 14.8541 58.3012 9.95822 58.3012 5.07357C58.3012 4.13349 57.8312 3.66345 56.8911 3.66345C56.5527 3.66345 56.203 3.66345 55.7969 3.66345V0.527344H62.5203C62.5316 0.888334 62.5654 1.24932 62.5654 1.61031C62.5654 7.6005 62.5654 13.5907 62.5654 19.5809C62.5654 19.829 62.5767 20.0772 62.5654 20.3367C62.5316 20.9571 62.7911 21.273 63.4566 21.2392C63.8853 21.2166 64.3253 21.2392 64.8668 21.2392" fill="#EFEDDF"/>
<path d="M154.189 21.2169V24.2966H145.412V21.2056C145.954 21.2056 146.45 21.2056 146.946 21.2056C147.409 21.2056 147.623 20.98 147.623 20.5062C147.623 17.404 147.623 14.3017 147.623 11.1994C147.623 10.7031 147.341 10.5339 146.912 10.5113C146.439 10.4887 145.976 10.5113 145.423 10.5113V7.3752C147.059 7.3752 148.684 7.36392 150.308 7.39776C150.477 7.39776 150.725 7.72491 150.782 7.93925C150.974 8.76276 151.098 9.59755 151.289 10.6354C152.903 8.18743 154.877 6.64194 157.923 7.12702V10.6692C157.821 10.7144 157.776 10.7595 157.72 10.7595C154.922 10.7933 152.993 12.1019 152 14.6627C151.899 14.9109 151.899 15.2155 151.887 15.4862C151.887 17.0204 151.887 18.5546 151.887 20.1001C151.887 21.1267 151.978 21.2056 153.038 21.2169C153.376 21.2169 153.726 21.2169 154.177 21.2169" fill="#EFEDDF"/>
</g>
<defs>
<clipPath id="clip0_1948_3372">
<rect width="157" height="31" fill="white" transform="translate(0.5)"/>
</clipPath>
</defs>
</svg>
