<svg width="192" height="30" viewBox="0 0 192 30" fill="none" xmlns="http://www.w3.org/2000/svg">
<g clip-path="url(#clip0_1948_3237)">
<path d="M90.4847 23.7092C93.0394 23.7228 94.9588 22.4792 95.9456 20.1272C96.7972 18.0455 96.8377 15.9098 96.1754 13.7741C95.4049 11.2734 93.4584 9.71889 91.0659 9.61075C88.1056 9.47558 85.9428 10.7597 84.875 13.3145C84.2126 14.896 84.091 16.5451 84.3613 18.2483C84.875 21.5465 87.2811 23.7093 90.4847 23.7228M96.243 7.81297V0H102.664V29.1297H96.27V25.453C96.2024 25.4124 96.1213 25.3719 96.0538 25.3313C95.9051 25.4935 95.7158 25.6287 95.6347 25.8179C95.2698 26.7236 94.9588 27.6428 94.5803 28.5484C94.4857 28.7782 94.2694 29.0486 94.0531 29.1161C89.1193 30.4814 83.6044 29.6974 80.0899 25.1015C78.1164 22.5197 77.3999 19.5324 77.454 16.3288C77.5351 12.3548 78.7786 8.85378 81.9687 6.31254C85.5373 3.47391 89.633 2.97378 93.972 4.12275C94.2559 4.20385 94.5668 4.54177 94.6885 4.82563C95.0535 5.67722 95.3238 6.56939 95.6483 7.43449C95.7158 7.61022 95.9051 7.75887 96.0402 7.90756C96.1078 7.86701 96.1754 7.84 96.243 7.79944" fill="#EFEDDF"/>
<path d="M186.512 16.6536C186.512 16.6536 186.403 16.613 186.349 16.5995C186.282 15.9507 186.241 15.3018 186.12 14.6665C185.606 11.9495 183.903 10.1383 181.429 9.66516C178.969 9.19205 176.468 10.2058 175.144 12.2199C173.481 14.7611 173.589 18.7623 175.306 21.2765C177.536 24.5341 183.578 24.8721 185.525 20.3303C186.011 19.1813 186.174 17.8836 186.485 16.6671M186.011 7.79977V0.0273438H192.419V29.1435H186.052V25.4803C186.052 25.4803 185.917 25.3857 185.849 25.3452C185.701 25.4939 185.484 25.6155 185.417 25.7912C185.038 26.7104 184.714 27.6566 184.335 28.5893C184.254 28.7921 184.051 29.0489 183.849 29.103C179.442 30.3331 174.157 29.9681 170.44 25.8453C168.101 23.2365 167.209 20.0869 167.209 16.6536C167.209 13.0039 168.223 9.71922 170.859 7.08336C173.062 4.88004 175.792 3.81217 178.861 3.60941C180.483 3.50127 182.105 3.58238 183.686 4.08252C184.092 4.21769 184.349 4.40693 184.484 4.83949C184.741 5.70459 185.065 6.5562 185.39 7.39427C185.457 7.58351 185.633 7.74568 185.755 7.90789C185.836 7.86734 185.917 7.82679 185.984 7.78624" fill="#EFEDDF"/>
<path d="M133.592 16.6945C133.592 16.6945 133.498 16.6675 133.457 16.6404C133.376 15.951 133.335 15.2481 133.2 14.5723C132.673 11.8824 130.902 10.0575 128.442 9.63845C125.874 9.2059 123.346 10.2467 122.157 12.423C120.548 15.3427 120.602 18.3301 122.386 21.1552C123.684 23.1963 125.739 23.8857 128.077 23.6694C130.28 23.4666 131.875 22.2636 132.686 20.2225C133.133 19.1006 133.308 17.8705 133.606 16.681M139.54 29.1439H133.146V25.4537C133.079 25.4131 133.011 25.3726 132.93 25.332C132.781 25.4942 132.578 25.6294 132.511 25.8051C132.146 26.7108 131.835 27.6299 131.456 28.5356C131.362 28.7654 131.146 29.0493 130.929 29.1033C126.442 30.3469 121.237 29.8873 117.574 25.8727C115.601 23.7099 114.627 21.1011 114.384 18.2355C114.087 14.7615 114.627 11.4498 116.723 8.55709C118.993 5.39405 122.184 3.89364 125.995 3.6233C127.604 3.51516 129.199 3.59626 130.767 4.08288C131.2 4.21805 131.47 4.42081 131.605 4.88039C131.862 5.7455 132.186 6.5971 132.511 7.43517C132.578 7.62442 132.768 7.75957 132.889 7.92178C132.957 7.89474 133.024 7.85418 133.092 7.82715V4.17751H139.526V29.1439H139.54Z" fill="#EFEDDF"/>
<path d="M62.9359 9.58437C61.0976 9.61141 59.151 10.6522 58.0697 12.9772C56.8801 15.5319 56.9342 18.1408 58.2589 20.628C59.5025 22.98 61.6248 23.8856 64.2066 23.6829C66.6397 23.4936 68.2211 22.1013 69.0727 19.871C69.6675 18.3435 69.7351 16.7485 69.5324 15.1264C69.1133 11.7741 66.7883 9.58437 62.9359 9.58437ZM69.3702 4.15041H75.7773V29.1168H69.4107V25.4672C69.3431 25.4266 69.2755 25.3725 69.208 25.332C69.0457 25.4942 68.8159 25.6293 68.7348 25.8321C68.3698 26.7378 68.0589 27.6569 67.6939 28.5626C67.5993 28.7924 67.3696 29.0627 67.1533 29.1168C62.6656 30.2658 58.4077 29.9414 54.758 26.7783C52.0275 24.4263 50.8245 21.3038 50.5947 17.7893C50.3649 14.383 51.0137 11.1523 53.1089 8.36779C55.3933 5.3264 58.5293 3.86655 62.2736 3.60973C63.8957 3.50159 65.5313 3.55566 67.0857 4.12339C67.3831 4.23153 67.694 4.54241 67.8156 4.82627C68.1806 5.67786 68.4374 6.57 68.7619 7.44862C68.8159 7.61083 69.0187 7.71899 69.1538 7.85417C69.2349 7.69196 69.3836 7.52973 69.3836 7.36752C69.4106 6.32669 69.3836 5.28587 69.3836 4.16394" fill="#EFEDDF"/>
<path d="M16.3153 0.0263672V11.489H6.39364V0.0263672H0V29.1155H6.36658V17.7205H16.2883V29.129H22.709V0.0263672H16.3153Z" fill="#EFEDDF"/>
<path d="M42.2685 13.7466C41.9982 11.2459 39.8084 9.55625 36.8616 9.5157C33.8878 9.48867 31.4953 11.273 31.2114 13.7466H42.2685ZM49.0137 24.3712C47.9458 25.9662 46.4319 27.2909 44.5665 28.1425C40.4167 30.0484 36.1452 30.2647 31.8873 28.6291C27.2238 26.8178 24.8989 23.1411 24.3177 18.2884C24.0068 15.7607 24.2636 13.26 25.2639 10.8945C27.0211 6.74469 30.2382 4.44674 34.6178 3.74384C37.1185 3.33833 39.5921 3.51403 41.9577 4.48728C45.783 6.0688 47.8917 9.06963 48.7298 13.0167C48.9596 14.1251 49.0002 15.2741 49.0813 16.4095C49.1354 17.0989 49.0813 17.7883 49.0813 18.5723H30.9546C31.3736 19.4509 31.6034 20.2484 32.063 20.8702C33.6175 23.0194 35.8208 23.8035 38.4026 23.6413C40.9303 23.479 42.9174 22.3165 44.4449 20.3295C44.526 20.2214 44.6205 20.1132 44.7152 20.0051C44.7152 19.9916 44.7558 19.9781 44.8639 19.9105C46.2156 21.3568 47.5808 22.8167 49.0272 24.3712" fill="#EFEDDF"/>
<path d="M149.218 29.1433H142.811V4.17695H149.218C149.218 5.21778 149.218 6.24508 149.218 7.28591C149.218 7.48867 149.326 7.69144 149.393 7.8942C149.556 7.74551 149.786 7.62386 149.88 7.43462C150.299 6.556 150.651 5.63681 151.07 4.75819C151.178 4.54191 151.408 4.28509 151.624 4.2175C154.557 3.3524 157.504 3.28482 160.369 4.43379C163.397 5.65034 164.884 8.09696 165.452 11.1924C165.614 12.0981 165.709 13.0443 165.709 13.9634C165.736 18.8432 165.709 23.7364 165.709 28.6161V29.1704H159.302C159.302 28.9135 159.261 28.6432 159.261 28.3728C159.261 24.169 159.275 19.9516 159.261 15.7477C159.261 14.8015 159.18 13.8418 159.004 12.9091C158.639 11.0843 157.517 9.98936 155.638 9.65143C152.597 9.11074 150.015 10.6517 149.353 13.4633C149.218 14.0175 149.204 14.6123 149.204 15.1935C149.204 19.5731 149.204 23.9392 149.204 28.3188V29.1568L149.218 29.1433Z" fill="#EFEDDF"/>
<path d="M112.342 0.0537109H106.002V29.1834H112.342V0.0537109Z" fill="#EFEDDF"/>
</g>
<defs>
<clipPath id="clip0_1948_3237">
<rect width="192" height="30" fill="white"/>
</clipPath>
</defs>
</svg>
