<svg width="124" height="54" viewBox="0 0 124 54" fill="none" xmlns="http://www.w3.org/2000/svg">
<g clip-path="url(#clip0_1948_3358)">
<path d="M124.112 42.5856C123.931 42.8789 123.954 43.2286 123.886 43.5444C122.973 47.5943 119.566 50.753 115.459 51.3509C114.771 51.4524 114.072 51.4975 113.372 51.4975C102.971 51.4975 92.5591 51.4975 82.158 51.4975C80.7253 51.4975 79.6085 50.6176 79.3491 49.309C79.0219 47.6056 80.229 46.0826 81.9663 46.015C82.1355 46.015 82.3047 46.015 82.4739 46.015C92.7734 46.015 103.073 45.9811 113.372 46.0375C116.114 46.0488 118.268 43.646 118.122 41.0626C117.975 38.6259 115.922 36.5728 113.508 36.5841C105.137 36.6179 96.7556 36.6179 88.3851 36.5841C84.6173 36.5728 81.5489 35.0612 79.4506 31.8912C75.7053 26.2507 78.7061 18.3766 85.2377 16.583C86.2643 16.3009 87.3134 16.1543 88.3738 16.1543C98.82 16.1543 109.255 16.1543 119.701 16.1543C121.213 16.1543 122.273 16.9327 122.589 18.2864C122.984 19.9673 121.732 21.6256 120.006 21.7045C119.836 21.7045 119.667 21.7045 119.498 21.7045C109.142 21.7045 98.7861 21.7271 88.4415 21.6932C86.2981 21.6932 84.1999 23.3741 83.8615 25.7769C83.5456 28.0783 85.046 30.3796 87.2232 30.9775C87.6293 31.0903 88.0354 31.1128 88.4528 31.1128C96.7781 31.1128 105.103 31.1128 113.429 31.1128C116.475 31.1128 119.137 32.0943 121.28 34.2828C122.837 35.8734 123.751 37.7912 124.033 40.0022C124.033 40.0699 124.033 40.1376 124.101 40.1714V42.5743L124.112 42.5856Z" fill="#EFEDDF"/>
<path d="M0.0225619 32.2635C0.191776 31.7333 0.169214 31.1805 0.248181 30.639C0.800947 27.0517 2.19978 23.8592 4.76056 21.2307C7.19724 18.7489 10.1867 17.2937 13.571 16.5943C15.2631 16.2445 16.9778 16.1543 18.6925 16.1543C27.4465 16.1543 36.1893 16.1543 44.9433 16.1543C46.4098 16.1543 47.4815 16.944 47.8199 18.2638C48.2373 19.8883 47.019 21.5353 45.3381 21.6256C45.1689 21.6256 44.9997 21.6256 44.8305 21.6256C35.7268 21.6256 26.6343 21.6143 17.5306 21.6481C14.8344 21.6481 12.3188 22.3701 10.1641 24.0735C8.12228 25.6867 6.94906 27.8414 6.37374 30.3457C6.09171 31.5641 5.99018 32.7937 5.99018 34.0346C5.99018 38.8516 5.99018 43.6685 5.99018 48.4968C5.99018 50.2679 5.25692 51.2493 3.5535 51.7457C3.53094 51.7457 3.51966 51.7795 3.49709 51.8021H2.56078C1.73727 51.599 1.02657 51.2268 0.530205 50.5161C0.259462 50.1325 0.135371 49.6926 0 49.2526V32.2748L0.0225619 32.2635Z" fill="#EFEDDF"/>
<path d="M62.3047 51.8135C62.2709 51.7232 62.1807 51.7345 62.113 51.712C60.669 51.2494 59.9019 50.2003 59.8906 48.6774C59.8906 44.966 59.8906 41.2658 59.8906 37.5544C59.8906 31.3837 59.8906 25.2017 59.8906 19.0311C59.8906 17.5081 60.9059 16.2785 62.3612 15.9965C64.121 15.6581 65.7793 16.9779 65.8582 18.7829C65.8582 18.9295 65.8582 19.0649 65.8582 19.2115C65.8582 28.9921 65.8582 38.7727 65.8582 48.5533C65.8582 50.2793 65.1024 51.2833 63.4216 51.7684C63.399 51.7684 63.3877 51.8022 63.3764 51.8248H62.2935L62.3047 51.8135Z" fill="#EFEDDF"/>
<path d="M63.4659 0.0107422C63.6125 0.134833 63.8043 0.112271 63.9735 0.157395C65.8461 0.676318 67.1322 2.5828 66.8614 4.478C66.5794 6.49729 64.8647 8.00894 62.8454 8.02022C60.8712 8.02022 59.1678 6.55369 58.9084 4.60209C58.6263 2.52639 59.8898 0.653756 61.9204 0.123552C62.0219 0.10099 62.1573 0.146114 62.2249 0.0107422L63.4659 0.0107422Z" fill="#EFEDDF"/>
<path d="M37.9479 0.0107422C38.5119 0.179956 39.076 0.326609 39.5836 0.653756C40.9373 1.54495 41.6706 3.15813 41.3322 4.73746C40.9825 6.40704 39.9333 7.49001 38.2863 7.89613C35.7143 8.52786 33.3227 6.55369 33.3678 3.92523C33.4017 2.05259 34.7892 0.428137 36.6393 0.0897088C36.7183 0.0784279 36.7972 0.0897088 36.8536 0.0107422H37.9366L37.9479 0.0107422Z" fill="#EFEDDF"/>
<path d="M50.6627 0.0112809C51.1703 0.157933 51.678 0.270743 52.1405 0.541486C53.5168 1.34243 54.3515 2.98945 54.1146 4.45597C53.8326 6.22708 52.603 7.56952 50.9447 7.90795C48.7223 8.37046 46.6467 7.00547 46.1841 4.78312C45.7329 2.61718 47.1769 0.496362 49.3992 0.0676857C49.4556 0.0676857 49.512 0.0225619 49.5684 0H50.6514L50.6627 0.0112809Z" fill="#EFEDDF"/>
<path d="M25.2238 0.0107422C25.5171 0.134833 25.8442 0.146114 26.1375 0.270204C28.6419 1.27421 29.4992 4.17341 27.9312 6.3732C27.0738 7.56898 25.3478 8.2684 23.9716 7.95253C22.2681 7.56898 21.0949 6.39576 20.7903 4.81643C20.3165 2.43615 22.0312 0.304047 24.1182 0.0671469C24.1521 0.0671469 24.1859 0.0333041 24.2085 0.0107422H25.2125L25.2238 0.0107422Z" fill="#EFEDDF"/>
<path d="M12.5098 0.0112809C13.1077 0.180495 13.7169 0.338428 14.2471 0.699419C16.5258 2.24491 16.5935 5.55023 14.3825 7.18596C12.7016 8.42687 10.5357 8.26894 9.08041 6.77985C7.83951 5.5051 7.62517 3.373 8.60661 1.85008C9.26091 0.846071 10.1747 0.248181 11.3592 0.0676857C11.4043 0.0676857 11.4494 0.0225619 11.4945 0H12.4985L12.5098 0.0112809Z" fill="#EFEDDF"/>
<path d="M25.5389 36.6066C21.004 36.6066 16.469 36.6066 11.9341 36.6066C10.6029 36.6066 9.54253 35.862 9.19282 34.6888C8.66262 32.9515 9.9148 31.2143 11.7649 31.124C11.8664 31.124 11.9679 31.124 12.0695 31.124C21.0491 31.124 30.04 31.124 39.0197 31.124C40.3734 31.124 41.3548 31.7332 41.7948 32.8387C42.528 34.6662 41.2194 36.5953 39.234 36.6066C36.1204 36.6178 33.0069 36.6066 29.8934 36.6066H25.5502" fill="#EFEDDF"/>
</g>
<defs>
<clipPath id="clip0_1948_3358">
<rect width="124" height="54" fill="white"/>
</clipPath>
</defs>
</svg>
