<svg width="96" height="119" viewBox="0 0 96 119" fill="none" xmlns="http://www.w3.org/2000/svg">
<path d="M44.7099 91.9982C44.8856 91.9982 44.9802 91.9712 44.9802 91.7549C44.9802 90.6735 44.9802 89.5921 44.9802 88.5107C44.9802 88.335 44.9127 88.281 44.7504 88.281C43.5069 88.281 42.2768 88.281 41.0332 88.281C40.844 88.281 40.7899 88.3486 40.7899 88.5378C40.7899 89.6057 40.7899 90.6735 40.7899 91.7549C40.7899 91.9441 40.8575 92.0117 41.0467 91.9982C41.655 91.9982 42.2633 91.9982 42.8715 91.9982C43.4798 91.9982 44.1151 91.9982 44.7369 91.9982M44.8451 95.8506C44.8451 95.6073 44.8045 95.4992 44.5207 95.4992C43.3311 95.5127 42.1551 95.5127 40.9791 95.4992C40.7358 95.4992 40.6547 95.5533 40.6547 95.8101C40.6547 101.203 40.6547 106.583 40.6547 111.977C40.6547 112.247 40.7358 112.288 40.9791 112.288C42.1281 112.288 43.2771 112.274 44.426 112.288C44.7504 112.288 44.8586 112.22 44.8586 111.869C44.8451 109.206 44.8586 106.556 44.8586 103.893C44.8586 101.23 44.8586 98.5271 44.8586 95.8506M32.8417 107.759C32.8012 107.475 32.7606 107.192 32.7066 106.908C32.247 104.407 31.7739 101.906 31.3143 99.3922C31.098 98.2297 30.8817 97.0537 30.6655 95.8777C30.6384 95.729 30.6114 95.6073 30.4086 95.6073C29.138 95.6073 27.8674 95.6073 26.5833 95.6073C26.421 95.6073 26.367 95.6479 26.4075 95.8236C26.5292 96.2696 26.6238 96.7157 26.7184 97.1618C27.9079 102.123 29.0975 107.07 30.287 112.031C30.341 112.247 30.4221 112.315 30.6519 112.315C32.0983 112.315 33.5311 112.301 34.9775 112.315C35.3019 112.315 35.4235 112.22 35.4911 111.909C36.1805 108.976 36.8834 106.056 37.5863 103.136C38.1675 100.73 38.7353 98.3243 39.3165 95.9317C39.3841 95.6884 39.3706 95.5938 39.0732 95.5938C37.8431 95.5938 36.6131 95.5938 35.383 95.5938C35.1937 95.5938 35.1126 95.6344 35.0856 95.8506C34.7477 97.7566 34.3827 99.649 34.0313 101.541C33.6528 103.61 33.2743 105.664 32.8958 107.732H32.8417M57.4026 100.325C57.6324 100.325 57.7 100.244 57.6865 100.041C57.6729 99.6895 57.6865 99.3516 57.6189 99.0001C57.3756 97.4457 56.5375 96.3508 55.1182 95.7155C53.5907 95.0396 52.0092 95.0396 50.4277 95.4045C48.3596 95.8776 46.8456 96.9861 46.5618 99.257C46.3996 100.514 46.6293 101.704 47.4539 102.717C48.0216 103.407 48.738 103.866 49.522 104.258C50.3196 104.65 51.1306 105.015 51.9281 105.407C52.5094 105.691 53.0365 106.056 53.442 106.57C53.9422 107.205 53.9557 107.962 53.8611 108.692C53.7394 109.773 53.3339 110.449 52.0633 110.341C51.3469 110.287 50.8062 109.787 50.698 109.084C50.6034 108.449 50.6305 107.827 50.6305 107.192C50.6305 106.989 50.5899 106.894 50.3601 106.894C49.1706 106.894 47.9676 106.894 46.778 106.894C46.5347 106.894 46.4942 106.989 46.4942 107.192C46.4942 107.719 46.4942 108.246 46.5618 108.773C46.751 110.557 47.8189 111.855 49.522 112.301C51.0495 112.707 52.5905 112.788 54.1314 112.423C58.2677 111.436 58.8354 106.948 57.1458 104.704C56.524 103.866 55.6724 103.285 54.7667 102.798C53.7935 102.271 52.7527 101.852 51.8065 101.258C50.8062 100.636 50.3736 99.7842 50.6305 98.5946C50.7791 97.8782 51.2387 97.3781 51.8876 97.3375C52.7932 97.2969 53.2123 97.5943 53.4285 98.4459C53.5772 98.9731 53.5367 99.5138 53.5367 100.054C53.5367 100.257 53.5907 100.325 53.807 100.325C54.4018 100.325 54.9965 100.325 55.6048 100.325C56.2131 100.325 56.7943 100.325 57.4026 100.325ZM63.4178 103.272C63.4178 104.718 63.4043 105.989 63.5124 107.259C63.5665 107.935 63.6476 108.611 63.8638 109.246C64.1612 110.098 64.6073 110.395 65.5265 110.382C66.3105 110.382 66.7565 110.03 67.0269 109.219C67.3378 108.3 67.3783 107.34 67.4324 106.394C67.527 104.448 67.5405 102.501 67.4324 100.555C67.3919 99.8382 67.3378 99.1218 67.0945 98.4324C66.9052 97.8917 66.5808 97.4862 65.9861 97.351C65.7292 97.297 65.4724 97.3105 65.2156 97.324C64.6208 97.324 64.1883 97.6078 63.9179 98.135C63.6341 98.6892 63.58 99.2975 63.5124 99.8923C63.3908 101.068 63.4448 102.258 63.4313 103.258M71.6903 103.92C71.6903 105.313 71.6363 106.894 71.2713 108.435C70.9739 109.719 70.4197 110.855 69.3113 111.652C68.5814 112.179 67.7433 112.436 66.8647 112.544C65.6076 112.707 64.3505 112.693 63.1204 112.369C61.5389 111.95 60.498 110.963 59.9033 109.462C59.4843 108.381 59.3356 107.246 59.2409 106.097C59.1598 104.988 59.1328 103.866 59.1734 102.758C59.2274 101.514 59.295 100.271 59.6329 99.0542C60.2007 97.0537 61.4307 95.7695 63.4989 95.364C64.9452 95.0801 66.3916 95.0802 67.8109 95.4722C69.7439 95.9993 70.7982 97.3781 71.2578 99.257C71.6228 100.73 71.6633 102.244 71.6768 103.92M7.71316 105.488C7.71316 104.961 7.71316 104.434 7.71316 103.907C7.71316 103.677 7.64557 103.623 7.4293 103.623C7.10488 103.623 6.78047 103.65 6.45605 103.704C5.44226 103.88 4.67177 104.367 4.33384 105.394C3.99591 106.462 3.96888 107.53 4.23922 108.611C4.38791 109.206 4.68529 109.692 5.34764 109.787C6.38847 109.936 7.10488 109.476 7.44281 108.462C7.76722 107.489 7.71316 106.489 7.71316 105.488ZM7.91592 110.152C7.5915 110.72 7.26709 111.22 6.83453 111.639C6.13164 112.301 5.30708 112.653 4.34736 112.693C3.87425 112.707 3.40115 112.72 2.94157 112.612C1.64391 112.288 0.859904 111.423 0.413835 110.206C0.157007 109.503 0.021835 108.773 0.00831775 108.03C-0.00519951 107.097 -0.032232 106.164 0.211079 105.245C0.670666 103.42 1.86018 102.366 3.65798 101.933C4.87453 101.636 6.11812 101.636 7.34819 101.663C7.6726 101.663 7.74019 101.568 7.72667 101.271C7.68612 100.474 7.74019 99.676 7.65909 98.8785C7.56447 97.9188 7.10488 97.3781 6.29385 97.324C5.10433 97.2429 4.72584 97.8512 4.55012 98.7703C4.4555 99.2434 4.46901 99.7166 4.46901 100.19C4.46901 100.392 4.41495 100.46 4.19867 100.46C2.99564 100.46 1.7926 100.46 0.576045 100.46C0.413838 100.46 0.332734 100.433 0.332734 100.244C0.359769 99.0407 0.549007 97.8917 1.33301 96.9185C1.94129 96.1615 2.75232 95.7155 3.69853 95.5127C5.53688 95.1342 7.36171 95.1612 9.14599 95.783C10.6734 96.3237 11.4574 97.4592 11.7143 99.0137C11.8224 99.6895 11.8494 100.379 11.8494 101.068C11.8494 103.691 11.8494 106.326 11.8494 108.949C11.8494 110.003 11.917 111.058 12.0387 112.112C12.0657 112.315 11.9981 112.382 11.7954 112.382C10.6734 112.382 9.53799 112.382 8.41605 112.382C8.18626 112.382 8.13219 112.301 8.13219 112.098C8.10516 111.504 8.03757 110.909 7.99702 110.314C7.99702 110.287 7.96999 110.26 7.94295 110.165M20.9601 103.907C20.9871 102.69 20.933 101.406 20.8249 100.122C20.7708 99.4732 20.6762 98.8244 20.3518 98.2432C20.122 97.8377 19.7976 97.6079 19.311 97.6079C18.4594 97.6079 18.0268 97.9458 17.797 98.7974C17.4997 99.9328 17.4997 101.095 17.4726 102.244C17.4186 103.92 17.4185 105.597 17.5267 107.273C17.5808 108.03 17.6348 108.8 18.0133 109.49C18.2701 109.976 18.7162 110.165 19.2434 110.165C19.7435 110.165 20.122 109.936 20.3653 109.49C20.5951 109.057 20.7032 108.584 20.7708 108.097C20.9601 106.719 20.9736 105.34 20.9736 103.893M21.1628 110.503C20.8655 110.895 20.6357 111.301 20.2977 111.639C19.6759 112.261 18.9325 112.544 18.0674 112.612C17.1482 112.693 16.2696 112.585 15.4856 112.071C14.7556 111.598 14.3096 110.909 13.9987 110.111C13.6067 109.084 13.4715 108.003 13.3904 106.908C13.2688 105.151 13.3093 103.393 13.3363 101.636C13.3499 100.311 13.4715 98.9866 13.9176 97.716C14.3907 96.4048 15.1882 95.4046 16.621 95.1612C18.3512 94.8639 19.8111 95.3099 20.7979 96.8644C20.8249 96.905 20.8519 96.932 20.879 96.9725C20.879 96.9725 20.906 96.9725 20.9195 96.9725C20.9871 96.8779 20.9465 96.7563 20.9465 96.6481C20.9465 93.9447 20.9465 91.2412 20.9465 88.5378C20.9465 88.2404 21.0141 88.1593 21.3115 88.1593C22.4875 88.1728 23.65 88.1593 24.826 88.1593C25.0693 88.1593 25.1639 88.1998 25.1639 88.4702C25.1639 96.3102 25.1639 104.164 25.1639 112.004C25.1639 112.247 25.0828 112.301 24.853 112.301C23.7176 112.301 22.5821 112.301 21.4332 112.301C21.2169 112.301 21.1358 112.234 21.1493 112.017C21.1628 111.504 21.1493 110.99 21.1493 110.476M87.3704 105.975C86.6134 102.582 85.8429 99.1894 85.086 95.783C85.0319 95.5532 84.9373 95.4992 84.7345 95.4992C83.3557 95.4992 81.9905 95.4721 80.6117 95.4992C79.5979 95.5262 78.6923 95.8641 77.9894 96.6481C77.6515 97.0131 77.4217 97.4457 77.1784 97.8782C77.1513 97.2835 77.1378 96.7157 77.1648 96.1345C77.1648 95.8777 77.0837 95.8101 76.8404 95.8236C75.7185 95.8236 74.6101 95.8371 73.4881 95.8236C73.2178 95.8236 73.1502 95.9047 73.1502 96.1615C73.1502 101.42 73.1502 106.691 73.1502 111.95C73.1502 112.206 73.2178 112.274 73.4746 112.274C74.556 112.261 75.6374 112.274 76.7188 112.274C77.1423 112.274 77.3541 112.062 77.3541 111.639C77.3541 108.368 77.3541 105.096 77.3541 101.825C77.3541 100.392 78.057 99.5408 79.3952 99.2434C80.044 99.0947 80.6928 99.1759 81.3417 99.1353C81.6661 99.1083 81.7877 99.2434 81.8688 99.5408C82.9232 103.461 83.9775 107.367 85.0454 111.287C85.1806 111.76 85.1806 112.193 84.9913 112.653C84.8156 113.072 84.7345 113.518 84.4371 113.869C83.8424 114.586 83.0719 114.829 82.1797 114.721C81.7607 114.667 81.7607 114.653 81.7607 115.099C81.7607 116.072 81.7607 117.059 81.7607 118.046C81.7607 118.303 81.8418 118.37 82.0851 118.37C83.1395 118.37 84.2073 118.33 85.2482 118.154C86.4782 117.938 87.4785 117.357 88.1138 116.235C88.7356 115.14 89.0465 113.95 89.3844 112.761C90.6145 108.489 91.8446 104.204 93.0747 99.9328C93.4667 98.5676 93.8722 97.2159 94.2507 95.8506C94.2912 95.7019 94.4534 95.4856 94.0749 95.4856C92.7638 95.4992 91.4391 95.4856 90.1144 95.4856C89.9251 95.4856 89.844 95.5532 89.817 95.7289C89.5872 96.7698 89.3574 97.8106 89.1276 98.8515C88.5869 101.312 88.0327 103.758 87.492 106.218C87.3974 106.151 87.3974 106.056 87.3704 105.975ZM0.751766 76.575C0.643628 76.575 0.521973 76.575 0.413835 76.575C0.251627 76.575 0.197559 76.6291 0.197559 76.7913C0.197559 77.751 0.197559 78.7107 0.197559 79.6705C0.197559 79.8462 0.265145 79.9138 0.44087 79.9002C0.53549 79.9002 0.616595 79.9002 0.711216 79.9002H94.0884C94.1695 79.9002 94.2507 79.9002 94.3182 79.9002C94.548 79.9273 94.6021 79.8327 94.6021 79.6164C94.6021 78.7648 94.6021 77.8997 94.6021 77.0481C94.6021 76.5209 94.6697 76.5885 94.129 76.5885C78.5436 76.5885 62.9582 76.5885 47.3728 76.5885H0.751766M65.2156 1.89214C59.5383 3.33849 55.5372 6.69075 53.3745 12.1788C52.1309 15.3418 51.5767 18.6671 51.2658 22.0329C51.09 23.9929 50.9954 25.9664 50.9549 27.9399C50.8873 31.4679 50.9008 34.9959 50.9143 38.5239C50.9278 42.6197 51.036 46.7019 51.6713 50.757C52.0227 52.9874 52.5364 55.1907 53.3609 57.2994C54.8749 61.1248 57.3215 64.1527 61.0117 66.0721C63.8098 67.532 66.8241 68.1808 69.9331 68.4511C71.8255 68.6133 73.7044 68.6404 75.6103 68.5322C77.5839 68.4241 79.5304 68.1402 81.4228 67.5725C84.302 66.7074 86.7756 65.207 88.6545 62.8144C90.2225 60.8409 91.1958 58.57 91.8446 56.1504C92.7638 52.7711 92.9936 49.3107 93.0611 45.8232C93.0611 45.5123 92.9665 45.4583 92.6826 45.4583C88.4517 45.4583 84.2344 45.4583 80.0035 45.4583C79.6926 45.4583 79.5979 45.5123 79.5979 45.8503C79.5979 48.5267 79.5304 51.2166 79.1384 53.866C78.9086 55.3664 78.5706 56.8398 77.9218 58.2321C77.1648 59.8271 76.0564 61.0437 74.2992 61.5168C72.961 61.8817 71.6092 61.8277 70.2575 61.4897C68.9193 61.1653 67.9055 60.3948 67.1756 59.2459C66.6754 58.4754 66.351 57.6238 66.0942 56.7587C65.4048 54.3932 65.1885 51.9466 65.0263 49.4999C64.8371 46.81 64.7695 44.1201 64.756 41.4301C64.729 35.3879 64.6478 29.3457 64.9317 23.317C65.0669 20.6 65.2426 17.8966 65.7563 15.2337C66.0536 13.6792 66.4727 12.1788 67.2161 10.773C68.649 8.09658 71.4065 7.43421 73.8126 8.00193C75.2454 8.33986 76.1781 9.32664 76.8945 10.5567C77.8272 12.1923 78.2462 13.9901 78.5301 15.8284C78.8815 18.0182 78.9491 20.2216 78.9761 22.4249C78.9761 22.6817 79.0437 22.7357 79.287 22.7357C83.5315 22.7357 87.7894 22.7357 92.0338 22.7357C92.2636 22.7357 92.3312 22.6817 92.3447 22.4519C92.4123 20.7217 92.3582 18.9779 92.196 17.2477C92.0068 15.2607 91.6283 13.3142 90.966 11.4218C89.5331 7.36662 86.9378 4.37933 82.9502 2.66264C80.3279 1.54071 77.5704 1.09462 74.7452 1H71.9066C69.6492 1.05407 67.4189 1.33794 65.2291 1.89214M15.837 34.7661C15.837 43.2009 15.837 51.6221 15.837 60.0569C15.837 60.3273 15.8911 60.4084 16.1885 60.4084C18.3512 60.4084 20.514 60.4084 22.6768 60.4084C24.3529 60.3949 25.8939 59.9623 27.2321 58.9215C28.5568 57.8942 29.3948 56.5289 30.0301 55.015C30.9628 52.7846 31.3954 50.4191 31.7198 48.0266C32.0307 45.7016 32.1794 43.3631 32.247 41.0246C32.3822 36.7802 32.3686 32.5358 32.2875 28.2778C32.2199 25.2364 32.0577 22.2086 31.5306 19.2078C31.1926 17.3018 30.706 15.4365 29.8409 13.6927C28.3405 10.6784 25.9615 9.09685 22.5416 9.16444C20.4464 9.20499 18.3512 9.17795 16.2561 9.16444C15.8911 9.16444 15.8505 9.27254 15.8505 9.59696C15.8505 17.9912 15.8505 26.3854 15.8505 34.7932M14.7151 2.06788C18.2296 2.06788 21.7441 2.06788 25.2586 2.06788C27.5835 2.06788 29.8815 2.31119 32.1388 2.87892C37.4646 4.24416 41.1008 7.52883 43.2095 12.5708C44.1692 14.8552 44.764 17.2477 45.1695 19.6944C45.8859 23.9388 46.0887 28.2238 46.1292 32.5087C46.1427 35.077 46.2103 37.6453 46.1562 40.2136C46.1022 43.2009 45.94 46.1747 45.4398 49.1215C44.8586 52.5143 43.8989 55.7854 42.1011 58.7728C39.5598 62.9766 35.8291 65.5585 31.098 66.748C28.9488 67.2887 26.759 67.5049 24.5421 67.5049C17.2158 67.5049 9.88943 67.5049 2.56308 67.5049C2.2657 67.5049 2.19812 67.4238 2.19812 67.1399C2.19812 45.5664 2.19812 23.9928 2.19812 2.4193C2.19812 2.12192 2.2657 2.05434 2.56308 2.05434C6.60474 2.05434 10.6599 2.05434 14.7016 2.05434" fill="#EFEDDF"/>
</svg>
