<svg width="143" height="95" viewBox="0 0 143 95" fill="none" xmlns="http://www.w3.org/2000/svg">
<g clip-path="url(#clip0_1948_3298)">
<path d="M123.061 38.1186C123.453 37.9023 129.374 31.9818 129.563 31.6168H123.061V38.1186ZM74.6964 27.8455C73.4798 26.6155 72.2497 25.3718 71.0737 24.1688C69.7896 25.4664 68.5325 26.7236 67.2484 27.9942C68.4649 29.1567 69.722 30.3732 70.9521 31.5492C72.1686 30.3462 73.4123 29.1026 74.6964 27.832M67.343 6.21791C67.343 9.5026 67.343 12.8008 67.343 16.0855C67.343 16.7884 67.3971 17.4778 67.6269 18.1401C68.0053 19.2486 68.6947 20.0866 69.8032 20.4921C70.9251 20.8976 72.0876 20.9382 73.2095 20.5327C74.791 19.9515 75.7237 18.789 76.0076 17.1263C75.8859 17.2074 75.8048 17.3291 75.6967 17.4102C75.4398 17.5859 75.1965 17.8022 74.9127 17.9104C73.8854 18.2889 73.0067 17.8292 72.7364 16.7614C72.6688 16.491 72.6417 16.2072 72.6417 15.9233C72.6417 12.598 72.6417 9.2728 72.6417 5.96108C72.6417 5.83942 72.6688 5.71777 72.6958 5.54204H76.332V4.94728H72.6417V2.50066C72.6417 2.10866 72.6417 1.70314 72.6417 1.31113C72.6417 0.932651 72.7093 0.540644 72.5742 0.121609C72.412 0.270299 72.2903 0.378477 72.1822 0.500132C70.8845 1.79779 69.5733 3.08194 68.2892 4.39311C67.8972 4.79863 67.4782 5.04193 66.8969 4.97434C66.5319 4.93379 66.1535 4.97434 65.7615 4.97434V5.55557H67.343V6.21791ZM120.344 73.6691C118.492 73.0743 116.6 72.7093 114.653 72.6011C112.72 72.493 110.814 72.6552 108.976 73.277C105.867 74.3178 103.65 76.3049 102.61 79.4679C101.69 82.293 101.677 85.1722 102.596 88.0109C103.502 90.7954 105.34 92.7689 108.098 93.8233C110.368 94.6748 112.693 94.7425 115.018 94.0936C116.776 93.607 118.181 92.6067 119.209 91.1063C119.993 89.9708 120.452 88.7002 120.709 87.362C120.723 87.2674 120.709 87.1592 120.709 86.97C120.547 87.2403 120.439 87.4296 120.317 87.6054C119.871 88.3083 119.317 88.9165 118.627 89.4031C116.586 90.8765 112.734 91.0252 110.909 87.6188C110.693 87.2268 110.517 86.8078 110.368 86.3888C109.99 85.3615 109.814 84.2801 109.747 83.1852C109.598 81.1576 109.679 79.157 110.112 77.17C110.301 76.3049 110.585 75.4803 111.071 74.7369C111.477 74.1286 111.991 73.642 112.707 73.4527C113.504 73.2229 114.221 73.3041 114.829 73.9664C115.654 74.8585 116.546 75.7101 117.424 76.5752C117.533 76.6834 117.641 76.7645 117.708 76.8185C118.722 75.8047 119.695 74.8045 120.682 73.8042C120.601 73.7772 120.466 73.7231 120.331 73.6825M119.033 37.6455C119.033 37.6455 119.06 37.6726 119.033 37.6726C118.925 37.632 118.817 37.5915 118.709 37.5644C116.384 36.9426 114.018 36.6047 111.598 36.5911C110.328 36.5911 109.057 36.6993 107.814 37.0508C106.381 37.4563 105.11 38.1051 104.069 39.1865C101.853 41.5115 101.785 46.0397 104.907 48.4458C105.408 48.8243 105.948 49.1487 106.503 49.4461C107.246 49.8381 108.016 50.176 108.787 50.541C109.801 51.0276 110.828 51.5007 111.815 52.0279C112.301 52.2847 112.761 52.6497 113.167 53.0282C113.734 53.5554 113.91 54.2717 113.829 55.0287C113.707 56.1777 113.031 56.9211 112.018 57.3942C111.22 57.7592 110.368 57.8403 109.49 57.8133C108.76 57.7862 108.138 57.543 107.624 57.0158C106.84 56.2183 106.029 55.4207 105.245 54.6232C105.137 54.5151 105.016 54.4069 104.894 54.2988C104.434 54.6097 102.177 56.8941 102.001 57.2185C102.096 57.2591 102.177 57.2996 102.272 57.3267C105.543 58.4621 108.909 58.8271 112.342 58.4486C113.68 58.2999 114.978 57.9484 116.167 57.3131C118.479 56.0966 119.709 54.2042 119.776 51.5818C119.83 49.5407 119.06 47.9051 117.33 46.7697C116.694 46.3506 116.019 45.9992 115.329 45.6748C114.37 45.2152 113.383 44.8367 112.437 44.3906C111.598 43.9986 110.774 43.5661 109.963 43.12C109.49 42.8497 109.071 42.4847 108.746 42.0386C107.597 40.4436 108.287 38.2403 110.152 37.632C110.571 37.4968 111.017 37.4563 111.463 37.4022C112.261 37.3076 112.923 37.5644 113.477 38.1457C114.207 38.9026 114.978 39.646 115.721 40.3895C115.829 40.4976 115.965 40.6058 116.019 40.6599C117.032 39.6461 118.019 38.6593 119.019 37.6591M141.972 37.5374C140.904 37.3076 139.85 37.0508 138.768 36.8886C136.741 36.5777 134.686 36.456 132.645 36.7399C131.226 36.9427 129.874 37.3617 128.657 38.1592C127.495 38.9297 126.63 39.957 126.197 41.2952C125.44 43.6742 125.859 46.7021 128.536 48.608C129.076 49 129.685 49.3244 130.293 49.6218C131.672 50.2977 133.077 50.9195 134.456 51.6089C135.119 51.9468 135.754 52.3388 136.335 52.7984C137.106 53.4202 137.349 54.2718 137.16 55.245C136.957 56.2723 136.308 56.9347 135.389 57.3537C134.47 57.7728 133.496 57.8403 132.523 57.7457C131.956 57.6916 131.455 57.4348 131.036 57.0158C130.239 56.2048 129.428 55.3937 128.617 54.5961C128.509 54.488 128.373 54.3799 128.279 54.2853C127.306 55.272 126.359 56.2317 125.413 57.205C125.454 57.2185 125.548 57.2861 125.656 57.3131C129.144 58.4891 132.712 58.8947 136.362 58.354C137.781 58.1512 139.12 57.6781 140.336 56.8806C141.472 56.1236 142.337 55.1504 142.783 53.8527C142.918 53.4877 142.986 53.0823 142.999 52.6903C143.026 51.9333 142.999 51.1628 143.013 50.4058C143.04 49.7705 142.85 49.2028 142.553 48.6486C142.242 48.0809 141.837 47.5672 141.309 47.1752C140.769 46.7697 140.201 46.3912 139.606 46.0668C138.836 45.6612 138.011 45.3368 137.227 44.9719C136.146 44.4717 135.064 43.9851 133.997 43.4579C133.402 43.1606 132.875 42.7686 132.402 42.2819C131.226 41.0789 131.253 38.2944 133.632 37.578C134.024 37.4563 134.443 37.4157 134.848 37.3616C135.673 37.2535 136.362 37.5239 136.943 38.1321C137.687 38.9161 138.457 39.6596 139.228 40.4166C139.322 40.5112 139.417 40.5788 139.512 40.6599C139.498 40.6193 139.471 40.5923 139.458 40.5518C140.431 39.5785 141.418 38.6052 142.391 37.632C142.283 37.605 142.134 37.5509 141.972 37.5104M66.7077 64.4503C67.2484 64.991 67.7755 65.5317 68.3297 66.0588C68.6541 66.3697 68.7894 66.7212 68.7894 67.1537C68.7894 75.1289 68.7894 83.0906 68.7894 91.0658C68.7894 91.5524 68.6406 91.9309 68.2892 92.2553C67.7079 92.796 67.1538 93.3637 66.586 93.9179C66.5049 93.999 66.4373 94.1071 66.3562 94.2288C66.9915 94.3369 78.0757 94.3099 78.4542 94.2018C78.3596 94.0936 78.292 93.9855 78.1974 93.9044C77.6432 93.3366 77.0889 92.7554 76.5077 92.2282C76.1022 91.8633 75.9535 91.4577 75.9535 90.917C75.9535 81.7388 75.9535 72.5606 75.9535 63.3824V62.8553C72.7229 63.2473 69.5598 63.6257 66.2887 64.0177C66.4779 64.2205 66.586 64.3421 66.6942 64.4503M129.941 81.8875C129.941 81.8875 129.874 81.7658 129.874 81.7118C129.928 79.8464 129.982 77.9675 130.469 76.1562C130.617 75.5885 130.847 75.0207 131.144 74.5206C132.131 72.9255 134.172 72.9797 135.105 74.6018C135.578 75.4263 135.754 76.3319 135.875 77.2511C136.065 78.6974 136.119 80.1438 136.105 81.6037C136.105 81.6848 136.092 81.7658 136.078 81.8875H129.914H129.941ZM142.837 81.9146C142.796 81.1711 142.783 80.4276 142.675 79.6977C142.175 76.5347 140.444 74.3313 137.403 73.2635C134.713 72.3038 131.983 72.3308 129.252 73.1554C126.13 74.0881 124.034 76.1562 123.061 79.2651C122.237 81.874 122.156 84.5504 122.858 87.1998C123.737 90.5521 125.832 92.823 129.117 93.9584C131.482 94.7694 133.888 94.8236 136.295 94.1883C138.795 93.5259 140.593 91.9984 141.701 89.6735C142.107 88.8354 142.391 87.9568 142.58 87.0511C142.607 86.943 142.621 86.8213 142.634 86.7132C142.539 86.7537 142.499 86.7943 142.472 86.8484C141.215 89.0517 139.309 90.2817 136.795 90.5115C133.929 90.7819 131.482 89.4436 130.442 86.605C130.023 85.4696 129.874 84.2936 129.874 83.1041C129.874 82.9824 129.901 82.8472 129.914 82.6715H142.783C142.81 82.3741 142.85 82.1578 142.837 81.9551M86.8619 45.8641C86.8619 45.2828 86.8349 44.7151 86.8619 44.1609C86.916 42.8497 87.0376 41.5656 87.3621 40.2814C87.5243 39.6191 87.7406 38.9838 88.1326 38.416C88.6732 37.6185 89.4302 37.2806 90.3899 37.4022C91.0793 37.4833 91.5794 37.8618 91.9444 38.4296C92.2958 38.9567 92.4851 39.5515 92.6338 40.1733C92.8906 41.2682 92.9852 42.3901 93.0258 43.5121C93.0528 44.2825 93.0258 45.053 93.0258 45.8641H86.8619ZM99.7033 46.0938C99.6763 45.3909 99.6763 44.661 99.5817 43.9716C99.1221 40.7004 97.3919 38.4295 94.2559 37.3076C91.9039 36.4695 89.4843 36.429 87.0647 36.9697C83.4285 37.7807 80.9549 39.9435 79.887 43.5526C79.1706 45.9722 79.103 48.4458 79.6707 50.906C80.4277 54.1501 82.3607 56.4751 85.4561 57.7457C87.8622 58.746 90.3629 58.9082 92.9041 58.3269C95.8104 57.6511 97.8109 55.8939 98.9058 53.1363C99.1762 52.4605 99.3384 51.7575 99.5411 51.0546C99.5682 50.96 99.5546 50.8519 99.5817 50.6627C99.4871 50.7978 99.4465 50.8519 99.4194 50.906C98.1353 53.1363 96.1888 54.3664 93.634 54.5692C90.9441 54.7854 88.6057 53.5553 87.4972 50.8924C86.9701 49.6353 86.8214 48.3107 86.8214 46.9589C86.8214 46.8778 86.8619 46.8103 86.9025 46.7021H99.6898C99.7033 46.4588 99.7439 46.2831 99.7303 46.1074M28.9134 48.0538C28.8864 49.9192 28.8458 51.7846 28.8323 53.65C28.8323 53.9474 28.7377 54.1907 28.5349 54.407C27.9266 55.0558 27.1967 55.4207 26.2911 55.3802C25.4935 55.3396 24.8582 54.9611 24.4933 54.2447C24.3175 53.8932 24.1824 53.5148 24.1013 53.1363C23.885 52.082 23.912 51.0412 24.1959 50.0003C24.7771 47.9187 26.3857 46.9859 28.4809 47.4996C28.6025 47.5266 28.7242 47.5807 28.8728 47.6213C28.8728 47.77 28.8999 47.9187 28.8999 48.0674M38.0105 54.826C37.7132 55.2586 37.2941 55.4613 36.767 55.3666C36.2668 55.272 35.9965 54.9071 35.9154 54.4475C35.8343 54.0014 35.7667 53.5283 35.7667 53.0687C35.7667 52.1495 35.8478 51.2168 35.8748 50.2977C35.9289 48.2701 35.9965 46.229 36.0235 44.2014C36.0235 43.2011 35.8343 42.2279 35.5234 41.2817C34.9286 39.4298 33.8067 38.0645 31.9413 37.3616C30.6842 36.8885 29.3865 36.7129 28.0618 36.6588C24.8853 36.5507 21.8033 37.0643 18.8025 38.1052C18.6809 38.1457 18.5727 38.1997 18.4105 38.2808C19.4243 39.2946 20.3976 40.2679 21.3843 41.2546C21.5465 41.1059 21.6547 41.0113 21.7628 40.9032C22.7225 39.9434 23.6822 38.9837 24.642 38.024C24.9258 37.7401 25.2502 37.4968 25.6558 37.4563C26.6425 37.3617 27.5076 37.632 28.0753 38.4971C28.3457 38.9026 28.5349 39.3758 28.6836 39.8489C28.9269 40.6058 28.981 41.4033 28.981 42.2008C28.981 43.6877 28.9404 45.1746 28.9269 46.6615C28.9269 46.7561 28.8999 46.8508 28.8864 46.9859C28.7107 46.9048 28.562 46.8508 28.4133 46.7832C25.8855 45.7154 23.3578 45.7423 20.8436 46.8102C19.0864 47.5672 17.8698 48.8784 17.3291 50.7438C17.0182 51.8116 16.9912 52.893 17.194 53.9879C17.5184 55.7046 18.397 57.0428 19.965 57.8944C21.2356 58.5837 22.6009 58.7595 24.0066 58.5297C26.1289 58.1783 27.6563 57.0023 28.6025 55.0558C28.6566 54.9476 28.7242 54.8665 28.8188 54.6908C28.8594 54.8665 28.8729 54.9476 28.8864 55.0287C29.1973 56.6237 30.1164 57.6916 31.6304 58.2729C32.5496 58.6243 33.5093 58.6649 34.469 58.5432C35.3747 58.4351 36.1992 58.1242 36.9021 57.5159C37.7402 56.786 38.1727 55.8533 38.1727 54.6367C38.0646 54.7584 38.0376 54.7854 38.0105 54.826ZM91.3496 84.0638C91.3226 85.9427 91.2956 87.8216 91.255 89.714C91.255 89.8898 91.2009 90.079 91.1063 90.2142C90.6062 90.8765 89.9439 91.282 89.1058 91.3496C88.0244 91.4307 87.1863 90.9576 86.7943 89.9438C86.5916 89.4302 86.497 88.8624 86.4294 88.3082C86.3212 87.389 86.4294 86.4969 86.7538 85.6318C87.3756 83.9016 88.7678 83.0905 90.5656 83.415C90.8225 83.4555 91.0793 83.5366 91.3496 83.6042C91.3496 83.7799 91.3496 83.9286 91.3496 84.0773M100.393 90.9305C100.095 91.309 99.6898 91.4848 99.2167 91.3902C98.7301 91.3091 98.4732 90.9576 98.3786 90.5115C98.284 90.0925 98.2029 89.6599 98.2164 89.2409C98.2299 88.119 98.311 86.997 98.3516 85.8751C98.4057 84.0097 98.4732 82.1443 98.4867 80.2654C98.4867 79.3598 98.3245 78.4541 98.0812 77.5755C97.4189 75.1694 95.905 73.615 93.4448 73.0472C92.7014 72.8715 91.9579 72.7363 91.201 72.6822C87.7946 72.4389 84.4829 72.9797 81.2522 74.0746C81.1441 74.1151 81.036 74.1827 80.9549 74.2232C81.9417 75.21 82.9014 76.1832 83.8881 77.1835C84.0098 77.0754 84.1449 76.9537 84.2666 76.8185C85.1993 75.8858 86.1455 74.9532 87.0782 74.007C87.335 73.7366 87.6324 73.5203 87.9974 73.4663C88.9841 73.3041 89.8357 73.5474 90.471 74.3719C90.8225 74.8315 91.0252 75.3452 91.1604 75.8994C91.3767 76.7374 91.4308 77.6026 91.4308 78.4541C91.4308 79.8464 91.3902 81.2387 91.3767 82.6175C91.3767 82.7121 91.3631 82.8067 91.3496 82.9013C91.2956 82.9013 91.255 82.9148 91.228 82.9013C91.1334 82.8743 91.0523 82.8202 90.9577 82.7797C88.5651 81.7253 86.1455 81.6983 83.7124 82.5904C81.7794 83.3068 80.4007 84.618 79.7924 86.6456C79.4004 87.9973 79.4139 89.3626 79.8329 90.7008C80.3601 92.404 81.482 93.58 83.1717 94.1747C83.6313 94.3369 84.1314 94.4451 84.6181 94.5127C87.3621 94.8911 89.8763 93.4989 91.0658 90.9847C91.1063 90.89 91.1604 90.8089 91.2415 90.6602C91.2821 90.8224 91.3226 90.917 91.3361 91.0116C91.6335 92.6608 92.6068 93.7286 94.1612 94.2963C94.9993 94.6072 95.8779 94.6748 96.7565 94.5802C97.7298 94.4721 98.6354 94.1747 99.3789 93.5124C100.19 92.796 100.636 91.9173 100.528 90.7819C100.487 90.8224 100.447 90.8765 100.406 90.917M49.7976 81.6037C49.7976 76.3455 49.7976 71.0872 49.7976 65.829C49.7976 65.6938 49.7976 65.5587 49.7976 65.437C49.8381 64.9909 49.9328 64.8693 50.3653 64.8558C51.0817 64.8423 51.7846 64.8152 52.501 64.8558C53.6906 64.9369 54.6233 65.5316 55.3532 66.4508C56.0426 67.3294 56.4616 68.3297 56.7049 69.3976C57.3808 72.3038 57.3537 75.1965 56.4886 78.0622C56.2318 78.9273 55.8263 79.7248 55.2586 80.4277C54.4205 81.455 53.3526 82.0498 52.0144 82.1038C51.298 82.1309 50.5681 82.1038 49.7841 82.1038V81.5766L49.7976 81.6037ZM50.1761 83.05C51.0817 83.023 51.9874 83.0229 52.893 82.9824C53.8798 82.9418 54.8801 82.8878 55.8533 82.7797C57.4484 82.5904 59.0029 82.1984 60.4627 81.4955C62.5714 80.4817 64.1664 78.9542 64.964 76.7239C65.6263 74.872 65.7344 72.9661 65.3424 71.0602C64.8153 68.4108 63.2202 66.5995 60.8277 65.4505C58.9488 64.5449 56.9482 64.0988 54.8801 64.0853C49.5543 64.0312 44.2285 64.0582 38.9027 64.0447C38.8216 64.0447 38.7269 64.0853 38.6053 64.0988C39.5515 65.0585 40.4436 65.9777 41.3763 66.8698C41.6872 67.1672 41.8224 67.4917 41.8224 67.9242C41.8224 75.2371 41.8224 82.5363 41.8224 89.8492C41.8224 90.0249 41.8089 90.2142 41.8224 90.3899C41.89 90.8495 41.7007 91.1739 41.3898 91.4848C40.5247 92.3229 39.6732 93.1879 38.8216 94.0395C38.754 94.1071 38.6999 94.2018 38.6053 94.3369H43.4445C45.0125 94.3369 46.594 94.3369 48.162 94.3369C49.73 94.3369 51.3115 94.3639 52.9471 94.3099C52.8525 94.1747 52.8255 94.1206 52.7714 94.0801C51.9063 93.215 51.0547 92.3364 50.1625 91.4983C49.8516 91.201 49.703 90.8765 49.703 90.4575C49.703 88.1731 49.703 85.8886 49.703 83.6177C49.703 83.4555 49.7165 83.2933 49.73 83.1041C49.8922 83.0906 50.0139 83.0635 50.149 83.0635M51.6224 58.2594C51.5413 58.1647 51.4737 58.0701 51.3926 57.989C50.7979 57.3942 50.2166 56.7859 49.5948 56.2047C49.2569 55.8803 49.1217 55.5289 49.1217 55.0558C49.1217 51.5278 49.1217 48.0133 49.1217 44.4853C49.1217 43.7959 49.1217 43.093 49.1217 42.4036C49.1217 42.2279 49.1623 42.0387 49.2569 41.9035C50.1085 40.6734 51.271 40.0787 52.7849 40.2814C53.5689 40.3896 54.2042 40.7545 54.6097 41.4304C54.853 41.8359 55.0423 42.282 55.1775 42.7416C55.5154 43.9176 55.5424 45.1206 55.5289 46.3371C55.5019 49.2433 55.4343 52.1631 55.3937 55.0693C55.3937 55.5289 55.2315 55.8938 54.9071 56.2182C54.3664 56.7319 53.8528 57.2726 53.3256 57.7997C53.2175 57.9079 53.1093 58.0296 52.9877 58.1647C53.4878 58.2729 64.6666 58.2729 65.0991 58.1647C64.9775 58.0296 64.8693 57.9079 64.7612 57.7997C64.2205 57.259 63.6933 56.7048 63.1391 56.1912C62.7741 55.8532 62.6255 55.4613 62.639 54.9611C62.6795 52.0684 62.7066 49.1758 62.7471 46.2831C62.7607 44.9584 62.666 43.6336 62.3957 42.336C62.3551 42.0927 62.3957 41.9305 62.5579 41.7548C63.3824 40.8491 64.4097 40.3084 65.6398 40.2679C66.8023 40.2273 67.708 40.7004 68.2216 41.7548C68.4244 42.1738 68.5866 42.6469 68.6947 43.1065C68.9921 44.4447 68.9786 45.7964 68.9516 47.1617C68.911 49.784 68.8434 52.4199 68.8028 55.0422C68.8028 55.5153 68.6542 55.9074 68.3027 56.2318C67.735 56.7725 67.1943 57.3266 66.6536 57.8808C66.586 57.9484 66.532 58.0431 66.4238 58.1783H78.1568C78.2379 58.1783 78.319 58.1782 78.4001 58.1647C78.4001 58.1647 78.4271 58.1512 78.4407 58.1377C78.4407 58.1377 78.4542 58.1106 78.4812 58.0566C77.8189 57.3942 77.17 56.7319 76.4942 56.0696C76.1698 55.7587 76.0346 55.4072 76.0481 54.9611C76.1022 52.6227 76.1427 50.2977 76.1968 47.9727C76.2238 46.3507 76.2779 44.7286 76.0481 43.12C75.8724 41.8899 75.548 40.6869 74.9262 39.592C74.1692 38.2538 73.0743 37.3211 71.5874 36.875C70.4384 36.5371 69.2624 36.4695 68.1 36.6858C65.4506 37.1724 63.5717 38.6728 62.4362 41.1059C62.3822 41.2141 62.3146 41.3087 62.2605 41.4168C61.9766 40.8085 61.7604 40.2138 61.4495 39.6731C60.6249 38.1592 59.3678 37.1724 57.6782 36.7669C56.8131 36.5641 55.9479 36.5371 55.0693 36.6182C52.8525 36.821 51.1088 37.8078 49.8922 39.6867C49.6354 40.0922 49.4461 40.5247 49.2164 40.9573C49.1758 41.0384 49.1082 41.133 49.0542 41.2141C48.9595 39.7813 49.0001 38.3755 48.9595 36.9697H39.3487C39.5109 37.1454 39.6191 37.267 39.7272 37.3887C40.2544 37.9159 40.7681 38.4565 41.3087 38.9702C41.6602 39.3081 41.7954 39.6866 41.7954 40.1597C41.7954 44.4582 41.7954 48.7568 41.7954 53.0552C41.7954 53.7446 41.7819 54.4475 41.7954 55.1369C41.8089 55.6235 41.6737 55.9885 41.3087 56.3264C40.7545 56.8265 40.2544 57.3672 39.7272 57.8944C39.6191 58.0025 39.511 58.1242 39.3893 58.2594C39.8759 58.381 51.2304 58.3675 51.6224 58.2594ZM0 67.3024C1.66262 67.3024 3.29821 67.0726 4.89324 66.5995C9.1647 65.3153 12.0439 62.6119 13.3551 58.2999C13.8552 56.6372 13.9904 54.9341 13.9904 53.2039C13.9904 46.1074 13.9904 39.0243 13.9904 31.9278C13.9904 31.4682 14.1391 31.1167 14.477 30.7923C15.3286 29.9812 16.1396 29.1432 16.9777 28.3051C17.0453 28.224 17.1129 28.1429 17.221 28.0077H2.77104C2.8927 28.1429 2.96029 28.2375 3.02787 28.3186C3.85243 29.1431 4.67697 29.9948 5.52855 30.8058C5.85297 31.1167 6.00167 31.4546 6.00167 31.9007C6.00167 38.7134 6.00167 45.5261 6.00167 52.3388C6.00167 53.5824 6.00165 54.826 5.98814 56.056C5.9611 57.5429 5.77188 59.0163 5.39339 60.4627C4.63643 63.3148 3.05491 65.5316 0.473112 67.0185C0.33794 67.0996 0.17573 67.1402 0.0270403 67.2078V67.3024H0ZM53.3121 0.013448C53.5013 0.0404825 53.7041 0.0945482 53.8933 0.0945482C55.9885 0.148617 58.0431 0.446033 60.0842 0.892103C60.1789 0.919137 60.2735 0.932638 60.3681 0.959673C60.4086 0.97319 60.4492 1.00021 60.5033 1.02724V7.42096C60.3005 7.23172 60.1788 7.11006 60.0572 6.9884C58.2999 5.25819 56.5427 3.52793 54.8125 1.78421C54.0825 1.04076 53.2175 0.729912 52.2172 0.824533C51.6765 0.878602 51.1223 0.946205 50.6086 1.09489C48.0268 1.86538 47.2023 4.04159 47.405 6.09621C47.5267 7.32629 48.1485 8.28604 49.1217 9.00246C49.8517 9.54315 50.6356 10.0162 51.4332 10.4353C52.8795 11.1923 54.3664 11.8816 55.8398 12.598C57.0428 13.1928 58.2188 13.8281 59.3002 14.6256C60.0031 15.1528 60.6519 15.734 61.2062 16.4234C62.247 17.7211 62.7741 19.208 62.8417 20.8571C62.9904 25.1151 60.7331 28.5079 56.6508 30.1299C54.6097 30.941 52.4875 31.2654 50.2842 31.1708C47.6484 31.0491 45.053 30.6706 42.4847 30.0624C42.309 30.0218 42.1333 29.9677 41.9576 29.9271C41.9306 29.9271 41.9035 29.8866 41.8494 29.846V23.4795C42.0252 23.6417 42.1603 23.7498 42.282 23.8714C44.0392 25.6287 45.7965 27.3724 47.5402 29.1432C48.3783 29.9948 49.3515 30.3733 50.5275 30.3192C51.4737 30.2787 52.4064 30.157 53.2851 29.792C55.2721 28.9675 56.2318 27.2913 56.1372 25.1421C56.0831 23.7903 55.5019 22.6954 54.4745 21.8303C53.7446 21.222 52.9471 20.7354 52.0955 20.3299C50.9466 19.7757 49.7841 19.2621 48.6216 18.7349C47.0806 18.0455 45.5937 17.2615 44.269 16.1801C42.7145 14.896 41.5656 13.328 41.079 11.3409C40.1733 7.5696 41.4574 3.25761 46.0263 1.2165C47.5402 0.540641 49.1217 0.189169 50.7708 0.0945482C50.9871 0.0945482 51.1899 0.0405518 51.4061 0H53.2985L53.3121 0.013448Z" fill="#EFEDDF"/>
</g>
<defs>
<clipPath id="clip0_1948_3298">
<rect width="143" height="95" fill="white"/>
</clipPath>
</defs>
</svg>
