<svg width="203" height="20" viewBox="0 0 203 20" fill="none" xmlns="http://www.w3.org/2000/svg">
<g clip-path="url(#clip0_1948_3513)">
<path d="M162.321 0.361328H158.373C159.016 1.51198 159.038 2.78673 159.038 4.09532V8.3708H150.42V4.09532C150.42 2.78673 150.453 1.51198 151.085 0.361328H147.137C147.78 1.51198 147.802 2.78673 147.802 4.09532V15.3876C147.802 16.6961 147.78 17.9709 147.137 19.1441H151.085C150.442 17.9709 150.42 16.6849 150.42 15.3876V9.70195H159.038V15.3876C159.038 16.6961 159.016 17.9709 158.373 19.1441H162.321C161.678 17.9709 161.655 16.6849 161.655 15.3876V4.09532C161.655 2.78673 161.678 1.51198 162.321 0.361328Z" fill="#EFEDDF"/>
<path d="M170.442 0.361328H166.438C167.081 1.35405 167.137 2.78673 167.137 4.09532V15.3876C167.137 16.6961 167.114 18.1627 166.471 19.1441H170.363C169.777 18.2416 169.754 16.6059 169.754 15.3876V4.09532C169.754 2.76417 169.777 1.37661 170.454 0.361328" fill="#EFEDDF"/>
<path d="M193.445 0.181465C190.613 0.181465 188.098 0.395803 186.484 0.395803C187.116 1.38853 187.116 2.88889 187.116 4.19748V15.5461C187.116 16.8547 187.116 18.1633 186.484 19.156C188.492 19.156 190.139 19.2575 193.05 19.2575C198.69 19.2575 203.067 15.2302 203.067 8.99188C203.067 3.46422 199.559 0.0686551 193.456 0.170184M193.039 18.1859C189.632 18.1859 189.733 17.9828 189.733 15.9071V2.88889C189.733 2.40381 189.79 1.89617 189.79 1.47877C190.636 1.32084 191.482 1.36597 192.125 1.36597C197.54 1.36597 199.976 4.68256 199.976 9.55593C199.976 14.4293 198.014 18.1859 193.05 18.1859" fill="#EFEDDF"/>
<path d="M82.248 2.47087C82.97 1.90682 83.9064 1.87298 84.5832 1.87298H88.2044V15.3311C88.2044 16.6397 88.2043 18.1627 87.5613 19.1441H91.4646C90.8215 18.1514 90.8215 16.6397 90.8215 15.3311V1.87298H94.0367C95.2324 1.87298 96.5861 1.61351 97.0937 0.361328H82.8346L82.248 2.47087Z" fill="#EFEDDF"/>
<path d="M180.134 17.8472C181.758 17.8472 183.259 17.7457 184.703 16.3356L184.127 19.1671H174.629C175.306 18.2533 175.306 16.6289 175.306 15.4106V4.10704C175.306 2.79845 175.283 1.36577 174.64 0.373047H178.588C177.945 1.36577 177.923 2.79845 177.923 4.10704C177.923 4.10704 177.923 17.1929 177.923 17.8472C178.239 17.8472 180.134 17.8472 180.134 17.8472Z" fill="#EFEDDF"/>
<path d="M133.181 9.30766C133.181 4.96449 135.189 1.25306 139.239 1.25306C142.093 1.25306 143.424 2.34731 144.315 3.5995V0.316742C142.95 0.316742 141.89 0.0234375 139.329 0.0234375C133.328 0.0234375 130.146 4.88553 130.146 10.0071C130.146 17.272 135.088 19.5056 138.686 19.5056C141.969 19.5056 144.203 18.0166 145.139 15.3994C143.537 16.9223 141.664 17.6894 139.803 17.6894C136.385 17.6894 133.181 14.9369 133.181 9.30766Z" fill="#EFEDDF"/>
<path d="M113.586 0.361328H109.616C110.259 1.51198 110.304 2.84314 110.304 4.15173V8.3708H101.685V4.15173C101.685 2.84314 101.708 1.51198 102.351 0.361328H98.4023C99.0454 1.51198 99.0679 2.84314 99.0679 4.15173V15.3311C99.0679 16.6397 99.0454 17.9709 98.4023 19.1441H102.351C101.708 17.9709 101.685 16.6397 101.685 15.3311V9.70195H110.304V15.3311C110.304 16.6397 110.247 17.9709 109.616 19.1441H113.586C112.943 17.9709 112.921 16.6397 112.921 15.3311V4.15173C112.921 2.84314 112.943 1.51198 113.586 0.361328Z" fill="#EFEDDF"/>
<path d="M73.5058 0.0234375C67.448 0.0234375 64.2441 4.67119 64.2441 10.1876C64.2441 15.3655 66.9403 19.5056 73.0546 19.5056C79.1688 19.5056 82.2937 14.9143 82.2937 9.39791C82.2937 4.21995 79.6314 0.0347187 73.5171 0.0347187M73.2576 18.2196C68.5873 18.2196 67.2787 13.2334 67.2787 9.38662C67.2787 5.19011 69.0724 1.29818 73.2576 1.29818C77.9279 1.29818 79.2365 6.34077 79.2365 10.1876C79.2365 14.3728 77.4541 18.2196 73.2576 18.2196Z" fill="#EFEDDF"/>
<path d="M61.7636 16.4369L56.6872 9.37502C59.1577 8.69816 61.1206 7.08498 61.1206 4.09553C61.1206 1.89575 59.4172 -0.0784196 55.5704 0.0682327C53.709 0.147199 51.9492 0.260009 49.4899 0.361538C50.0765 1.27529 50.1104 2.65157 50.1104 3.88119V15.5908C50.1104 16.6625 50.054 18.0049 49.332 19.1556H53.3593C52.7163 18.1629 52.7163 16.8994 52.7163 15.5908V10.0068C54.1828 10.1421 54.3972 10.3565 55.8073 12.387L59.3607 17.5537C60.0827 18.569 60.5566 19.1556 61.8088 19.1556H64.3244C63.5347 18.5351 62.5871 17.5763 61.7636 16.4369ZM54.0249 8.94634C53.5962 8.94634 53.145 8.92378 52.7163 8.86737V2.62901C52.7163 2.17777 52.7389 1.76038 52.7727 1.34298C53.4947 1.26401 54.2167 1.18505 54.8822 1.18505C56.7774 1.18505 58.2439 1.91831 58.2439 4.67086C58.2439 7.15267 56.8564 8.93506 54.0249 8.93506" fill="#EFEDDF"/>
<path d="M123.042 8.0211C120.549 6.5997 119.725 5.82131 119.714 4.24198C119.714 2.51599 121.023 1.25253 123.019 1.24125C124.599 1.22997 126.347 2.06476 127.283 3.0462V0.259804C125.986 0.259804 124.813 -0.010938 122.929 0.000342987C120.289 0.0229049 116.961 1.24125 116.984 4.87371C116.995 7.56986 119.014 8.94614 121.316 10.266C124.317 11.9807 125.343 12.8945 125.354 14.7558C125.366 17.1474 123.448 18.2529 121.496 18.2642C118.484 18.2868 117.367 16.8541 116.318 15.4101V18.4785C117.717 19.0764 119.511 19.4938 121.271 19.4825C124.745 19.46 128.118 17.7791 128.096 13.8872C128.073 10.8865 125.828 9.57787 123.042 7.99854" fill="#EFEDDF"/>
<path d="M13.8643 7.15222L13.3003 6.98301L10.2431 9.38585L10.8072 8.24647L12.9506 6.55433L12.9054 5.96772L14.8683 4.42223L14.8345 5.4488L15.8046 5.61801L13.8643 7.15222ZM13.1987 13.6952L13.7854 13.4019L10.2093 10.6268L12.2173 14.6879L12.6009 14.169L12.7813 16.4703L11.0666 14.9361H11.7096L9.70166 10.8749L9.72417 15.3986L10.2995 15.1053L9.46473 17.2374L8.59608 15.1053L9.18271 15.3986L9.16012 10.8637L7.18596 14.9361H7.84027L6.14813 16.4928L6.29479 14.1915L6.70089 14.7105L8.66376 10.6268L5.1103 13.4244L5.69693 13.7177L3.48584 14.3607L4.63652 12.364L4.77189 12.9958L8.97966 9.67915L5.53898 7.00557L4.97494 7.18607L3.00077 5.67442L4.00479 5.46008L3.93704 4.46736L5.91121 5.99028L5.85481 6.56561L14.1351 12.9732L14.2591 12.3415L15.4211 14.3269L13.21 13.6952H13.1987ZM6.38506 3.51976L6.75728 2.57216L7.86286 4.81707L7.56954 5.32471L9.28427 8.79924L8.28025 8.02086L7.08447 5.57289L6.50913 5.5052L5.40362 3.27158L6.38506 3.53104V3.51976ZM9.40834 2.82034L10.1416 2.15476V4.64785L9.66778 4.975V8.84436L9.12632 7.70499V4.975L8.62995 4.65913V2.16604L9.39705 2.83162L9.40834 2.82034ZM12.0142 2.56088L12.4203 3.50848L13.3793 3.22645L12.3076 5.47136L11.7209 5.56161L10.0401 9.0587V7.78396L11.2246 5.32471L10.9199 4.81707L12.0029 2.56088H12.0142ZM18.2301 0.304688H0.564047C0.248181 0.304688 0 0.552868 0 0.868735V18.5347C0 18.8506 0.248181 19.0987 0.564047 19.0987H18.2301C18.5346 19.0987 18.7828 18.8506 18.7828 18.5347V0.868735C18.7828 0.552868 18.5346 0.304688 18.2301 0.304688Z" fill="#EFEDDF"/>
<path d="M30.2894 9.07024C30.0864 9.07024 29.6464 9.07024 29.4434 9.04767V6.50946C29.4434 6.32897 29.4546 6.18231 29.4772 5.97926C29.8156 5.94541 30.3458 5.92285 30.6504 5.92285C31.4852 5.92285 32.3426 6.29512 32.3426 7.41194C32.3426 8.41594 31.5868 9.05896 30.3007 9.05896" fill="#EFEDDF"/>
<path d="M33.9087 13.379C33.3559 13.379 33.1416 13.1534 32.8145 12.736L31.1674 10.5362C30.5244 9.66754 30.1973 9.64498 29.4302 9.64498V11.9012C29.4302 12.3524 29.4302 12.9052 29.746 13.3903H28.0652C28.381 12.9165 28.3811 12.3524 28.3811 11.9012V6.88114C28.3811 6.35094 28.2682 5.91098 28.0088 5.51615C29.1369 5.48231 30.1296 5.4259 30.9418 5.39206C32.7468 5.32437 33.48 6.20429 33.48 7.20829C33.48 8.40407 32.6114 9.13733 31.4833 9.46448L33.8749 12.2396C34.2472 12.7247 34.5743 13.0405 35.003 13.3903H33.8975L33.9087 13.379ZM40.1245 0.270508H22.4586C22.1427 0.270508 21.8945 0.518688 21.8945 0.823274V18.4892C21.8945 18.7938 22.1427 19.042 22.4586 19.042H40.1245C40.4404 19.042 40.6886 18.7938 40.6886 18.4892V0.823274C40.6886 0.518688 40.4404 0.270508 40.1245 0.270508Z" fill="#EFEDDF"/>
</g>
<defs>
<clipPath id="clip0_1948_3513">
<rect width="203" height="20" fill="white"/>
</clipPath>
</defs>
</svg>
