<svg width="167" height="31" viewBox="0 0 167 31" fill="none" xmlns="http://www.w3.org/2000/svg">
<g clip-path="url(#clip0_1948_3483)">
<path d="M19.4145 27.9204C18.4782 27.8865 18.151 27.5707 18.0721 26.6456C18.0495 26.4087 18.0608 26.1718 18.0608 25.9349V9.81444H12.2962V12.1383C12.488 12.1609 12.6459 12.1834 12.8039 12.1834C14.5299 12.2173 14.7104 12.3978 14.7104 14.1012C14.7104 18.0382 14.7104 21.9866 14.7104 25.9236C14.7104 26.1831 14.7104 26.4426 14.6765 26.702C14.5524 27.6158 14.2591 27.8865 13.3341 27.9091C12.9392 27.9204 12.5557 27.9091 12.1834 27.9091V29.8156H20.5539V27.9091C20.1591 27.9091 19.7868 27.9091 19.4145 27.9091M93.0453 27.9204C91.6577 27.9204 91.3531 27.6158 91.3306 26.2057C91.3306 26.0364 91.3306 25.8785 91.3306 25.7093V9.81444H85.5998V12.1834C85.8029 12.1834 85.9383 12.1834 86.0849 12.1834C87.8222 12.206 87.9914 12.3752 87.9914 14.0899C87.9914 18.0608 87.9914 22.0204 87.9914 25.98C87.9914 26.262 87.9914 26.5441 87.9463 26.8261C87.8109 27.6158 87.5176 27.864 86.7167 27.9091C86.2993 27.9317 85.8819 27.9091 85.4081 27.9091C85.4081 28.3942 85.4419 28.8002 85.4081 29.1951C85.3629 29.714 85.5434 29.8833 86.0849 29.8833C88.5103 29.8607 90.947 29.8832 93.3837 29.872C93.5642 29.872 93.7447 29.8381 93.9252 29.8156V27.9316C93.5868 27.9316 93.3273 27.9316 93.0678 27.9316M154.876 12.2398C155.553 12.2737 155.903 12.646 155.903 13.3341C155.903 13.7402 155.903 14.135 155.903 14.5412C155.903 18.4782 155.903 22.4266 155.903 26.3636C155.903 27.6045 155.587 27.9203 154.357 27.9316C154.041 27.9316 153.714 27.9316 153.41 27.9316V29.8381H161.69C161.712 29.6237 161.746 29.4433 161.746 29.2515C161.746 28.8341 161.746 28.4167 161.746 27.9204C161.34 27.9204 161.024 27.9204 160.697 27.9204C159.558 27.9204 159.174 27.6045 159.174 26.4651C159.174 23.9156 159.163 21.3662 159.321 18.8279C159.445 16.8763 160.065 15.0375 161.374 13.5033C161.927 12.8603 162.57 12.3526 163.45 12.2737C164.183 12.206 164.612 12.5331 164.747 13.2664C164.803 13.5597 164.815 13.853 164.837 14.1463H167.093V10.9876C167.093 9.84826 167.06 9.79186 165.943 9.55496C165.807 9.52112 165.661 9.50985 165.525 9.49857C162.987 9.31808 161.126 10.4462 159.727 12.4767C159.58 12.6911 159.434 12.9054 159.231 13.1987C159.061 11.9578 158.926 10.8748 158.779 9.73546C156.85 9.93852 155.034 10.1416 153.173 10.3334V12.2285C153.804 12.2285 154.346 12.206 154.887 12.2285M45.9135 0.011292C45.214 0.11282 44.5259 0.214326 43.8265 0.304573C42.6871 0.439945 41.5477 0.564065 40.4196 0.688156V2.53821C40.837 2.53821 41.2093 2.53821 41.5816 2.53821C43.0819 2.53821 43.3076 2.75256 43.3076 4.24165C43.3076 11.4389 43.3076 18.6361 43.3076 25.8334C43.3076 26.1605 43.3076 26.4989 43.2624 26.8261C43.1609 27.6045 42.845 27.8865 42.0441 27.9204C41.6267 27.9317 41.2093 27.9204 40.7468 27.9204V29.8156H49.2413V27.9204C48.9142 27.9204 48.6322 27.9204 48.3501 27.9204C47.0641 27.9204 46.7483 27.6158 46.7483 26.341C46.7483 24.8745 46.7483 23.4192 46.7483 21.9527C46.7483 16.3348 46.7483 10.7169 46.7483 5.09898C46.7483 3.40683 46.7595 1.70342 46.7708 0H45.9247L45.9135 0.011292ZM103.875 30.4698C104.597 30.278 105.342 30.1314 106.052 29.8833C109.019 28.8341 110.576 26.0364 109.82 23.0921C109.369 21.3323 108.105 20.238 106.582 19.4371C105.184 18.7038 103.706 18.1285 102.296 17.4178C101.483 17.0117 100.637 16.5943 99.9492 15.9964C98.4601 14.7216 98.7986 12.5332 100.558 11.6532C101.833 11.0215 103.164 11.0666 104.484 11.4727C105.883 11.9014 106.312 12.488 106.346 13.9433C106.357 14.496 106.346 15.0601 106.346 15.6467H108.951C108.951 13.9658 108.963 12.3188 108.929 10.6718C108.929 10.5026 108.647 10.2769 108.444 10.1867C106.109 9.20525 103.649 8.90067 101.168 9.27294C100.13 9.43087 99.058 9.837 98.1443 10.3785C95.3691 12.0368 94.8051 16.5266 98.0879 18.7038C99.2385 19.4709 100.525 20.0237 101.754 20.6667C102.927 21.2758 104.134 21.8173 105.251 22.5055C106.346 23.171 106.729 24.2428 106.537 25.5062C106.346 26.7133 105.624 27.4917 104.495 27.9204C103.266 28.3942 101.991 28.3716 100.739 28.0896C98.9903 27.6947 98.415 26.9615 98.3812 25.1678C98.3812 24.6038 98.3812 24.051 98.3812 23.4531H95.606C95.606 25.1114 95.6512 26.7133 95.5835 28.3152C95.5496 29.0259 95.8091 29.3305 96.4634 29.4659C97.9412 29.7817 99.4077 30.1202 100.874 30.4473H103.852L103.875 30.4698ZM82.9037 0.011292C82.7232 0.0564158 82.5427 0.124096 82.3622 0.146658C78.7185 0.721986 76.5864 2.8428 76.0674 6.48655C75.9208 7.54695 75.9095 8.6412 75.8305 9.79185H73.281V12.1947H75.8531C75.8757 12.4316 75.8982 12.5895 75.8982 12.7587C75.8982 17.2937 75.8982 21.8287 75.8982 26.3523C75.8982 26.5215 75.8757 26.6795 75.8644 26.8487C75.8418 27.5481 75.447 27.8752 74.7814 27.8978C74.2963 27.9091 73.8 27.8978 73.3149 27.8978V29.7591H81.9787V27.9204C81.6515 27.9204 81.4146 27.9204 81.189 27.9204C79.745 27.9204 79.4517 27.6383 79.384 26.2057C79.384 26.0703 79.384 25.9236 79.384 25.777V12.1722H83.6934V9.71291H79.3164C79.4066 8.50585 79.4179 7.36648 79.5984 6.26095C80.1399 3.05716 82.6104 1.50035 85.7691 2.27874C87.1002 2.60589 87.6643 3.29403 87.7319 4.68159C87.7545 5.05386 87.7771 5.41487 87.7996 5.76458H90.4168C90.4168 4.55752 90.383 3.40685 90.4281 2.25619C90.4507 1.75983 90.2927 1.44398 89.8302 1.28604C88.5103 0.857369 87.2017 0.439968 85.8819 0.011292H82.9037ZM9.63393 0.011292C8.96835 0.169225 8.2915 0.293307 7.64848 0.496364C4.56878 1.48909 2.88792 3.79039 2.69615 7.25364C2.65102 8.06587 2.69615 8.88938 2.69615 9.79185H0V12.206H2.62846V26.1831C2.62846 26.3184 2.62846 26.4651 2.62846 26.6118C2.54949 27.6383 2.31259 27.8865 1.28603 27.9316C0.857353 27.9542 0.439957 27.9316 0.0112812 27.9316V29.9171C2.8992 29.8832 5.78713 29.8381 8.66377 29.8043V27.9429C8.3479 27.9429 8.08844 27.9429 7.82898 27.9429C6.50911 27.9429 6.20452 27.6496 6.12555 26.3523C6.12555 26.2169 6.12555 26.0703 6.12555 25.9236C6.12555 21.603 6.12555 17.2937 6.12555 12.9731C6.12555 12.7475 6.14812 12.5106 6.1594 12.1947H10.4574V9.75801H6.04659C6.14812 8.50583 6.1594 7.34391 6.33989 6.21581C6.89266 2.94434 9.78058 1.30858 12.8941 2.4254C13.9207 2.79767 14.4171 3.45197 14.4509 4.54622C14.4622 4.96362 14.4509 5.38102 14.4509 5.78713H17.1132C17.1132 4.56879 17.0794 3.38427 17.1245 2.21106C17.147 1.72598 16.9778 1.44395 16.5492 1.2973C15.2406 0.868626 13.9207 0.451226 12.6008 0.0225495H9.62265L9.63393 0.011292ZM35.4899 17.1132C35.4335 15.7482 35.1176 14.5073 34.3956 13.4018C33.6172 12.2173 32.5004 11.6081 31.0903 11.484C27.6383 11.1794 25.6642 14.2366 25.4949 17.1132H35.4899ZM29.4771 30.4698C29.0259 30.357 28.5634 30.2555 28.1121 30.1314C25.5175 29.4094 23.5997 27.8188 22.5957 25.337C20.9826 21.3661 21.1067 17.3727 23.1711 13.5936C25.777 8.833 32.3199 7.62592 36.257 11.0666C37.8589 12.4654 38.5244 14.3381 38.7952 16.3686C38.9306 17.3839 38.9418 18.4218 39.0208 19.5274H25.2693C24.9422 23.2613 26.5779 26.3862 29.5448 27.2774C31.6092 27.8978 33.5721 27.5255 35.4222 26.5215C36.4713 25.9574 37.4415 25.2355 38.5132 24.5361C38.5132 25.4837 38.5244 26.4538 38.5019 27.4127C38.5019 27.5594 38.2875 27.706 38.1522 27.8301C36.5616 29.15 34.7792 30.0637 32.7035 30.3457C32.5681 30.3683 32.4327 30.4248 32.2974 30.4586H29.4658L29.4771 30.4698ZM147.871 17.1245C147.521 15.9964 147.329 14.9134 146.878 13.9545C145.479 11.0328 141.407 10.5815 139.297 13.0408C138.293 14.2027 137.842 15.6016 137.605 17.1245H147.871ZM141.711 30.4698C141.08 30.3119 140.425 30.1878 139.805 29.9847C137.458 29.1951 135.732 27.6609 134.807 25.3934C133.172 21.3774 133.284 17.3501 135.417 13.5371C137.549 9.70162 142.084 8.15614 146.19 9.71291C149.01 10.7733 150.409 12.9957 150.905 15.8498C151.108 17.023 151.153 18.23 151.278 19.5274H137.402C137.368 22.0656 137.707 24.3894 139.647 26.1154C141.598 27.8527 143.9 27.9768 146.224 27.1194C147.521 26.6343 148.694 25.777 149.913 25.0663C150.172 24.9196 150.386 24.7053 150.747 24.4232C150.747 25.4837 150.77 26.4087 150.736 27.3337C150.736 27.503 150.533 27.6947 150.386 27.8188C148.83 29.1387 147.058 30.0412 145.017 30.3457C144.859 30.3683 144.701 30.436 144.543 30.4811H141.711V30.4698ZM116.769 0.011292C116.07 0.11282 115.37 0.214326 114.671 0.304573C113.531 0.439945 112.392 0.564065 111.264 0.688156V2.53821C111.681 2.53821 112.065 2.53821 112.437 2.53821C113.96 2.53821 114.197 2.75255 114.197 4.29804C114.197 11.4727 114.197 18.6474 114.197 25.8221C114.197 26.1718 114.163 26.5215 114.129 26.8825C114.062 27.5932 113.622 27.909 112.945 27.9316C112.527 27.9429 112.11 27.9316 111.648 27.9316V29.8381H120.097V27.9316C119.601 27.9316 119.161 27.9542 118.709 27.9316C118.055 27.8978 117.66 27.5593 117.604 26.8825C117.581 26.5779 117.547 26.2733 117.547 25.9687C117.547 23.6561 117.514 21.3436 117.559 19.031C117.581 18.027 117.683 17.0004 117.931 16.019C118.54 13.571 120.12 12.2962 122.59 12.1157C124.609 11.9691 126.234 13.1762 126.538 15.0714C126.629 15.6693 126.685 16.2897 126.696 16.8989C126.708 19.7981 126.696 22.7085 126.696 25.6077C126.696 25.9574 126.708 26.3184 126.685 26.6681C126.606 27.5932 126.256 27.9203 125.331 27.9429C124.937 27.9429 124.553 27.9429 124.181 27.9429V29.8607H132.72V27.9429C132.258 27.9429 131.863 27.9542 131.457 27.9429C130.645 27.9091 130.306 27.5932 130.227 26.781C130.193 26.3862 130.205 25.98 130.193 25.5739C130.16 22.0317 130.171 18.5008 130.058 14.9585C130.002 13.0972 129.291 11.4727 127.667 10.3785C125.467 8.90068 120.661 8.74275 118.303 11.5743C118.1 11.8224 117.875 12.048 117.536 12.4316V11.5066C117.536 7.96436 117.536 4.42213 117.536 0.879913C117.536 0.597889 117.491 0.315865 117.48 0.0338415H116.769V0.011292ZM65.5987 19.5725C65.6664 19.5612 65.7228 19.5386 65.7792 19.5274C65.4746 18.1285 65.3393 16.6732 64.8316 15.3646C64.0194 13.2777 62.4288 12.0255 60.0936 11.9014C57.9841 11.7886 56.3596 12.6798 55.4797 14.5524C53.9342 17.8239 53.7763 21.2307 55.2654 24.5473C56.9688 28.3377 61.7519 28.6424 64.1209 25.2355C65.3054 23.5208 65.5536 21.5805 65.5987 19.5837M68.5882 0.011292C68.6107 0.315878 68.6446 0.62046 68.6446 0.925046C68.6446 9.16014 68.6446 17.3952 68.6446 25.6416C68.6446 27.8527 68.701 27.909 70.8782 27.9316C71.0361 27.9316 71.2054 27.9316 71.4197 27.9316V29.8269H65.5987C65.4859 28.9808 65.3731 28.1008 65.249 27.1645C65.1475 27.2548 65.0234 27.3225 64.967 27.4127C62.4965 31.5077 55.2315 31.2934 52.6031 27.142C51.0463 24.694 50.5725 22.0543 50.7417 19.234C50.9109 16.222 51.7908 13.5146 54.0245 11.3374C56.7996 8.62995 62.237 8.14483 65.0685 11.5517C65.1024 11.5855 65.1475 11.5968 65.2603 11.6645C65.2829 11.4614 65.3167 11.3035 65.3167 11.1343C65.3167 8.79913 65.3167 6.46399 65.3167 4.12883C65.3167 2.70743 65.0459 2.44797 63.6133 2.43669C63.2184 2.43669 62.8236 2.43669 62.3498 2.43669V0.665572C64.2563 0.439953 66.0725 0.22563 67.9 0.011292H68.6107H68.5882Z" fill="#EFEDDF"/>
</g>
<defs>
<clipPath id="clip0_1948_3483">
<rect width="167" height="31" fill="white"/>
</clipPath>
</defs>
</svg>
