<svg width="82" height="95" viewBox="0 0 82 95" fill="none" xmlns="http://www.w3.org/2000/svg">
<g clip-path="url(#clip0_1948_3269)">
<path d="M63.3419 69.303C61.9631 69.303 61.4495 69.8167 61.4495 71.209C61.4495 78.1974 61.4495 85.1857 61.4495 92.1742C61.4495 92.3499 61.4495 92.5256 61.4495 92.7013C61.5441 93.3367 61.8685 93.8503 62.5038 93.9584C63.1121 94.0666 63.7609 93.9855 64.4233 93.9855V93.2556C64.4233 88.8625 64.4098 84.4559 64.4233 80.0627C64.4233 79.1706 64.5044 78.2649 64.7071 77.3998C65.3289 74.7099 66.8023 72.7094 69.5193 71.7902C70.6817 71.3982 71.8848 71.3982 73.1013 71.5063C75.7237 71.7361 77.6161 73.2771 78.2108 75.8183C78.4542 76.8726 78.5353 77.9811 78.5488 79.0625C78.5893 83.807 78.5623 88.5651 78.5623 93.3096C78.5623 93.553 78.5893 93.7963 78.6029 94.0666H79.5491C81.0495 94.0666 81.5091 93.607 81.5091 92.1336C81.5091 87.6054 81.5091 83.0636 81.5091 78.5218C81.5091 77.8053 81.4821 77.0754 81.3739 76.3725C80.8603 73.1418 79.3058 70.6547 76.1968 69.357C74.3179 68.573 72.3444 68.4514 70.3438 68.7623C68.0459 69.1272 65.9913 69.9383 64.5855 71.9389C64.5855 71.9524 64.5179 71.9389 64.4233 71.9659V69.3436C63.9907 69.3436 63.6663 69.3436 63.3284 69.3436M31.8196 94.026C33.1038 94.026 33.6174 93.5124 33.631 92.2283C33.631 87.9298 33.631 83.6178 33.631 79.3193C33.631 73.8313 33.631 68.3433 33.631 62.8417C33.631 61.6792 33.0767 61.125 31.9142 61.1115C31.5898 61.1115 31.2519 61.1386 30.9275 61.1115C29.8867 61.0304 29.2919 61.49 28.8728 62.4497C24.9934 71.5063 21.0734 80.5493 17.1669 89.5924C17.0723 89.8087 16.9642 90.0385 16.8155 90.3494C16.6803 90.0655 16.5857 89.9033 16.5181 89.7275C12.6927 80.8602 8.82677 72.0064 5.06897 63.1121C4.43366 61.6117 3.64966 60.9223 1.98704 61.071C0.473106 61.2061 0 61.5576 0 63.0715C0 72.7229 0 82.3877 0 92.039C0 92.2283 0 92.431 0 92.6202C0.0405518 93.2826 0.473114 93.8638 1.10843 93.9449C1.7167 94.026 2.32497 93.9584 3.00083 93.9584V65.775C3.17656 65.9237 3.25765 66.0994 3.32523 66.2751C7.21821 75.3047 11.0977 84.3342 14.9771 93.3772C15.1663 93.8368 15.3826 94.0531 15.9098 94.0126C16.464 93.9585 17.0453 93.9585 17.5995 94.0126C18.1672 94.0666 18.4375 93.8639 18.6673 93.3232C22.5062 84.3342 26.3722 75.3587 30.2381 66.3832C30.3327 66.167 30.4273 65.9642 30.522 65.7479C30.5625 65.7614 30.6031 65.775 30.6301 65.7885V93.9855C31.0762 93.9855 31.4411 93.9855 31.8061 93.9855M0.0405501 53.5824H21.0869V36.1722C21.3708 36.3344 21.5195 36.5371 21.6682 36.7264C25.6287 42.2009 29.5757 47.6754 33.5228 53.1499C33.7661 53.4878 34.0094 53.6229 34.4285 53.6229C38.5918 53.6094 42.7551 53.6094 46.9184 53.6229C47.4321 53.6229 47.7565 53.4743 48.0674 53.0417C51.9874 47.5943 55.9209 42.1603 59.8544 36.7129C59.9896 36.5101 60.1518 36.3208 60.287 36.1316C60.3411 36.1316 60.3816 36.1586 60.4357 36.1722V53.5554H81.4685V0H80.7927C71.9794 0 63.1662 0 54.3394 0C53.8528 0 53.5824 0.162212 53.2985 0.554213C49.2704 6.23146 45.2152 11.9087 41.1736 17.5724C41.0384 17.7617 40.9032 17.9239 40.714 18.1672C40.5247 17.9104 40.376 17.7076 40.2409 17.5048C36.1992 11.8411 32.144 6.16385 28.1159 0.486602C27.8591 0.121636 27.6022 0 27.1562 0C18.3159 0.0135173 9.48913 0 0.648843 0H0.0135305V53.5689L0.0405501 53.5824ZM54.3934 80.3736C53.7311 81.0765 52.8255 81.2522 51.9333 81.4009C50.4059 81.6578 48.8649 81.8605 47.3239 82.1173C45.5937 82.4012 43.877 82.7121 42.3361 83.6178C41.3493 84.1855 40.6464 84.983 40.3896 86.1184C39.93 88.0785 40.7275 90.025 42.4307 91.1199C44.242 92.2959 46.229 92.2959 48.2161 91.8228C51.271 91.0928 53.5824 89.3626 54.2312 86.1725C54.6097 84.3341 54.4205 82.3877 54.4881 80.4953C54.4881 80.4683 54.4475 80.4412 54.3934 80.3871M44.607 94.6208C43.7419 94.4315 42.8497 94.3099 41.9981 94.0395C38.4296 92.9311 37.0103 89.9439 37.3076 86.5781C37.578 83.5502 39.3487 81.7659 42.0522 80.7521C44.2285 79.9276 46.5264 79.6302 48.8243 79.3463C49.7841 79.2246 50.7573 79.1436 51.7171 78.9678C53.7041 78.6299 54.6097 77.4133 54.4881 75.3857C54.3935 73.7772 53.5824 72.6418 52.1496 71.9659C50.541 71.1954 48.8243 71.0602 47.0806 71.0873C45.6478 71.1143 44.2555 71.3711 42.9849 72.0605C41.3493 72.9391 40.3625 74.2773 40.1192 76.1292C40.0922 76.3184 40.0517 76.5077 40.0111 76.7239C39.4163 76.7239 38.8081 76.7915 38.2268 76.7104C37.4969 76.6023 37.1454 75.8994 37.3211 75.0749C37.7942 72.8175 39.1054 71.1954 41.106 70.087C42.4172 69.3571 43.8365 68.9515 45.3098 68.7623C47.77 68.4378 50.2031 68.5054 52.5821 69.2759C55.5694 70.2492 57.3808 72.5606 57.4348 75.7101C57.5024 79.9275 57.4348 84.1584 57.4889 88.3893C57.5024 90.1601 57.6782 91.9173 57.7863 93.6881C57.7863 93.7827 57.7863 93.8773 57.7863 94.026C57.1239 94.026 56.4886 94.0801 55.8533 94.026C55.191 93.9584 54.7314 93.3907 54.6638 92.7013C54.6097 92.066 54.5692 91.4308 54.5151 90.7954C54.434 90.7279 54.3664 90.6602 54.2853 90.5927C54.2042 90.7684 54.1636 90.9711 54.0555 91.1063C52.3523 93.2691 50.1355 94.418 47.3915 94.5532C47.2428 94.5532 47.0942 94.6208 46.9455 94.6614H44.607V94.6208Z" fill="#EFEDDF"/>
</g>
<defs>
<clipPath id="clip0_1948_3269">
<rect width="81" height="95" fill="white" transform="translate(0.5)"/>
</clipPath>
</defs>
</svg>
