<svg width="136" height="60" viewBox="0 0 136 60" fill="none" xmlns="http://www.w3.org/2000/svg">
<g clip-path="url(#clip0_1948_3444)">
<path d="M37.5366 -0.282227C37.9653 -0.214541 38.4053 -0.158136 38.8339 -0.0791692C40.7517 0.281821 42.4664 1.09406 44.0457 2.24471C46.787 4.24144 48.7386 6.88118 50.3179 9.83679C52.168 13.3 53.33 16.9889 54.0407 20.8357C54.6724 24.2651 54.9093 27.7284 54.819 31.2142C54.6837 36.4598 53.8038 41.5588 51.8634 46.4435C50.7692 49.2186 49.3929 51.8358 47.4751 54.1483C45.8281 56.1338 43.9216 57.8147 41.5301 58.8751C40.2215 59.4504 38.8565 59.8565 37.4351 59.9016C36.0137 59.9468 34.6149 59.6422 33.2724 59.1571C33.1371 59.112 33.0017 59.0781 32.8776 59.0104C32.5053 58.7735 32.1669 58.8299 31.7721 59.0104C30.5199 59.5519 29.2 59.8565 27.835 59.9242C27.5079 59.9468 27.1694 59.8678 26.831 59.8565C25.4886 59.8114 24.2364 59.4391 22.9955 58.8976C23.6836 58.5028 24.3605 58.1305 24.9809 57.7808C25.7593 58.4013 26.5264 59.0217 27.3048 59.6196C27.6996 59.9242 27.6094 59.8904 27.9704 59.6196C30.1927 58.0177 31.9977 56.021 33.5545 53.7874C36.1152 50.1323 37.8299 46.0937 38.9016 41.7731C39.6349 38.8401 40.0184 35.8619 40.1877 32.8499C40.323 30.2553 40.2892 27.672 40.0636 25.0886C39.5672 19.3353 38.1458 13.8415 35.303 8.77638C34.7164 7.72725 34.017 6.73453 33.3627 5.73052C33.2612 5.58387 33.2499 5.48234 33.3627 5.34697C33.9606 4.61371 34.5585 3.86917 35.1564 3.13591C35.224 3.05694 35.303 2.97797 35.382 2.899C36.3521 3.69995 37.2208 4.59115 38.0104 5.55003C40.1425 8.13337 41.6316 11.0777 42.7936 14.2025C43.7976 16.9212 44.4631 19.7415 44.8805 22.6068C45.3882 26.1378 45.5123 29.6687 45.2866 33.2222C44.9482 38.5919 43.775 43.7699 41.485 48.6545C40.12 51.5537 38.3827 54.1822 35.9911 56.3369C35.4835 56.7881 34.9533 57.1942 34.4005 57.6454C34.8179 58.0177 35.224 58.4125 35.664 58.7848C36.1039 59.1571 36.5552 59.4955 37.0515 59.8903C37.672 59.3714 38.315 58.8863 38.9129 58.3449C41.5978 55.9195 43.6509 53.0315 45.2979 49.839C47.0352 46.4547 48.1633 42.8674 48.8514 39.1334C49.517 35.5122 49.7313 31.8459 49.6298 28.1683C49.4944 23.498 48.8063 18.918 47.2721 14.4845C45.9184 10.5926 43.978 7.01655 41.3721 3.82404C40.1087 2.27855 38.676 0.924841 37.0177 -0.214535C36.1378 0.372074 35.3256 1.04892 34.5585 1.77091C31.7269 4.46705 29.6738 7.70469 28.0155 11.2018C26.628 14.1235 25.748 17.2032 25.1502 20.3619C24.5297 23.6898 24.2928 27.0515 24.3266 30.4245C24.383 35.2753 25.0712 40.0359 26.5941 44.6498C26.628 44.7626 26.6392 44.898 26.6054 44.9995C25.9737 46.8721 25.2178 48.6884 24.2815 50.4256C24.259 50.4595 24.2364 50.4933 24.1913 50.561C24.1349 50.482 24.101 50.4256 24.0672 50.3579C22.3863 47.3572 21.2244 44.1647 20.4573 40.8143C19.4871 36.629 19.1374 32.3874 19.2728 28.1006C19.3856 24.4569 19.8594 20.8583 20.8295 17.3386C21.732 14.0446 22.9955 10.8859 24.8004 7.97543C25.0712 7.53547 25.105 7.24217 24.8004 6.84733C24.462 6.41866 24.18 5.94486 23.8416 5.4485C24.541 4.59115 25.2517 3.71123 25.9962 2.79748C26.5603 3.3164 27.0792 3.7902 27.5868 4.24144C28.4667 3.47433 29.3579 2.70723 30.3055 1.895C29.4595 1.20686 28.5908 0.496164 27.6658 -0.25966C26.7182 0.541287 25.7706 1.26327 24.9132 2.0755C22.8714 3.99326 21.3033 6.27201 19.9271 8.69742C17.9529 12.1945 16.6894 15.9398 15.9111 19.8655C15.144 23.7236 14.907 27.6156 15.0199 31.53C15.1552 36.1778 15.8434 40.7466 17.3889 45.1574C18.4831 48.2935 19.9384 51.2379 21.9012 53.934C22.014 54.0807 22.014 54.1709 21.9012 54.3176C21.2469 55.1298 20.5926 55.9533 19.9271 56.7994C19.803 56.6978 19.7353 56.6414 19.6563 56.585C17.4453 54.6786 15.7531 52.3885 14.3994 49.8277C12.5268 46.2855 11.3423 42.5177 10.6316 38.5919C9.98855 35.061 9.78549 31.4962 9.90958 27.9089C10.0788 22.8099 10.97 17.8575 12.8539 13.097C14.1061 9.93831 15.7531 7.02783 18.0432 4.51218C18.8554 3.63226 19.724 2.80876 20.7167 2.12062C20.7619 2.08678 20.7957 2.05294 20.8408 2.00781C20.085 1.19558 19.2728 0.473602 18.359 -0.135569C18.3026 -0.169412 18.1447 -0.135574 18.0657 -0.0791692C16.8361 0.766902 15.7193 1.74835 14.7153 2.85388C11.5679 6.32842 9.35682 10.3331 7.86773 14.7666C6.95398 17.474 6.35609 20.2378 6.00638 23.0693C5.60027 26.4198 5.49874 29.7702 5.70179 33.1432C5.97254 37.6894 6.79604 42.1116 8.44306 46.3758C9.90958 50.1549 11.9176 53.5956 14.625 56.6302C15.6967 57.8259 16.8925 58.8976 18.2462 59.8114C18.359 59.7437 18.4831 59.676 18.5959 59.597C20.6716 58.0967 22.3976 56.2579 23.898 54.1935C26.628 50.4369 28.4329 46.263 29.5497 41.7844C30.1927 39.2011 30.5876 36.5726 30.7793 33.9216C30.9486 31.6203 30.9824 29.3303 30.8583 27.029C30.644 22.9227 29.9558 18.9067 28.6698 14.9922C28.6247 14.8568 28.6021 14.6876 28.6472 14.5635C29.2564 12.7021 30.0122 10.9085 30.9373 9.18249C30.9711 9.12608 31.005 9.08097 31.0614 8.97944C31.4224 9.66758 31.7721 10.3219 32.0992 10.9874C33.5093 13.8979 34.4569 16.9663 35.0887 20.1363C35.8445 23.8929 36.0927 27.6945 35.9799 31.5075C35.8219 36.629 34.9307 41.6152 33.0355 46.3983C32.2571 48.3499 31.3547 50.2339 30.204 51.9937C30.125 52.1178 30.1363 52.208 30.204 52.3208C30.6101 52.9413 31.0162 53.5617 31.4449 54.216C30.7568 55.0621 30.0461 55.942 29.3128 56.8445C28.7262 56.3143 28.1734 55.8179 27.5981 55.3103C27.4966 55.4231 27.3951 55.5359 27.2823 55.6487C25.1163 57.8936 22.5217 59.315 19.4194 59.8001C18.0093 60.0145 16.6443 59.8001 15.3019 59.394C12.414 58.5141 10.0788 56.8219 8.13848 54.5545C5.98382 52.0388 4.46089 49.1735 3.26511 46.105C2.22726 43.4427 1.52784 40.6789 1.0766 37.8587C0.73817 35.7604 0.546396 33.6509 0.47871 31.53C0.47871 31.4285 0.456156 31.327 0.433594 31.2255V28.4278C0.444875 28.315 0.467429 28.2022 0.47871 28.0894C0.535115 25.9798 0.73817 23.8703 1.0766 21.7833C1.71961 17.7786 2.89284 13.943 4.69779 10.3106C6.11919 7.46778 7.92413 4.92957 10.3834 2.87644C12.1658 1.38736 14.1512 0.338226 16.4525 -0.0791692C16.8812 -0.158136 17.2986 -0.203258 17.7273 -0.270943H18.6298C18.6975 -0.248381 18.7651 -0.225818 18.8328 -0.225818C20.164 -0.113009 21.4274 0.214138 22.6345 0.778185C22.8037 0.857152 22.9391 0.857152 23.1083 0.778185C24.0108 0.372071 24.9471 0.0900513 25.9285 -0.0904439C26.3459 -0.169411 26.7746 -0.214541 27.2033 -0.282227H27.9478C28.1283 -0.248384 28.3088 -0.191975 28.4893 -0.180694C29.7302 -0.079165 30.926 0.259265 32.0654 0.755627C32.2459 0.834594 32.3812 0.834594 32.5617 0.755627C33.5432 0.326951 34.5585 0.0223645 35.6076 -0.135569C35.946 -0.191973 36.2844 -0.237103 36.6229 -0.282227H37.5254H37.5366Z" fill="#EFEDDF"/>
<path d="M110.377 40.7355C110.343 40.8596 110.321 40.9499 110.298 41.0289C109.543 43.2174 108.787 45.3946 108.042 47.5831C107.974 47.7636 107.896 47.82 107.704 47.82C100.179 47.82 92.655 47.82 85.1306 47.82H84.8824V46.4324C85.0967 46.3986 85.3223 46.3647 85.5367 46.3309C86.2248 46.2294 86.8678 46.0489 87.4319 45.5976C87.9734 45.1689 88.1764 44.5823 88.2441 43.9393C88.3118 43.3301 88.3569 42.7097 88.3569 42.1005C88.3569 33.7075 88.3569 25.3145 88.3569 16.9215C88.3569 16.3574 88.3005 15.7934 88.1877 15.2406C87.9508 14.1802 87.2063 13.6161 86.191 13.3567C85.7623 13.2551 85.3223 13.1987 84.8711 13.1311V11.7773H100.157V13.1875C99.7394 13.2439 99.2769 13.289 98.8369 13.3567C98.4985 13.4131 98.1601 13.4808 97.8329 13.5823C96.8966 13.8643 96.4115 14.5525 96.2987 15.4775C96.1972 16.301 96.1408 17.1245 96.1408 17.948C96.1295 25.3709 96.1295 32.805 96.1408 40.2279C96.1408 41.1981 96.1972 42.1682 96.4454 43.1045C96.6484 43.8942 97.1109 44.4131 97.9006 44.6726C98.6226 44.9095 99.3558 44.9997 100.112 45.0336C101.432 45.09 102.751 45.1351 104.06 44.8305C105.899 44.4131 107.219 43.3076 108.144 41.6944C108.29 41.435 108.414 41.1642 108.572 40.9048C108.618 40.8371 108.696 40.7355 108.764 40.7355C109.294 40.7243 109.825 40.7355 110.389 40.7355" fill="#EFEDDF"/>
<path d="M135.851 40.7355C135.671 41.2657 135.501 41.7621 135.332 42.2585C134.723 44.0409 134.103 45.812 133.505 47.5944C133.448 47.7636 133.381 47.82 133.189 47.82C125.642 47.82 118.106 47.82 110.559 47.82H110.334V46.4324C110.638 46.3873 110.965 46.3422 111.27 46.2858C111.766 46.1955 112.24 46.0376 112.669 45.7668C113.436 45.2818 113.673 44.5259 113.74 43.6911C113.797 42.9692 113.831 42.2359 113.831 41.5026C113.831 33.5609 113.831 25.6191 113.831 17.666C113.831 16.944 113.797 16.222 113.695 15.5113C113.537 14.3156 112.77 13.65 111.653 13.368C111.225 13.2552 110.774 13.21 110.322 13.1311V11.7773H125.642V13.1762C125.078 13.2551 124.514 13.3115 123.961 13.4131C122.438 13.6951 121.806 14.3945 121.682 15.94C121.626 16.6846 121.592 17.4404 121.592 18.1849C121.592 25.5063 121.581 32.8276 121.592 40.1489C121.592 41.0288 121.716 41.92 121.829 42.8C121.975 43.9393 122.664 44.5936 123.769 44.7967C125.732 45.169 127.695 45.2366 129.647 44.7967C131.44 44.3906 132.692 43.2512 133.595 41.6944C133.742 41.435 133.866 41.1642 134.012 40.9048C134.057 40.8371 134.148 40.7581 134.215 40.7581C134.746 40.7468 135.276 40.7581 135.829 40.7581" fill="#EFEDDF"/>
<path d="M67.2739 13.1423V11.7773H82.537V13.1423C82.2324 13.1875 81.9278 13.2326 81.6233 13.289C79.9198 13.6049 79.1527 14.4622 79.0512 16.1882C79.0174 16.8425 78.9948 17.4968 78.9948 18.1398C78.9948 24.773 78.9948 31.4062 78.9948 38.0394C78.9948 39.7315 78.8369 41.4124 78.2728 43.0256C77.2575 45.9473 75.227 47.7523 72.2375 48.4404C69.8459 48.9932 67.4657 48.9706 65.1192 48.2261C62.6149 47.4251 61.0355 45.6879 60.2007 43.2399C59.93 42.4502 59.7608 41.638 59.5352 40.7807C60.1556 40.7807 60.6971 40.7807 61.2499 40.7807C61.3063 40.7807 61.3852 40.8935 61.4078 40.9724C61.6785 41.8749 62.0734 42.6984 62.7164 43.3866C64.228 45.0336 66.0781 45.5412 68.2102 44.9659C69.6203 44.5936 70.3874 43.5558 70.8161 42.2246C71.1884 41.0627 71.2786 39.8556 71.2786 38.6486C71.2786 31.6431 71.2786 24.6376 71.2786 17.6434C71.2786 16.8538 71.1997 16.0641 71.0756 15.2857C70.9289 14.3494 70.3536 13.7515 69.4398 13.5146C68.8419 13.368 68.2328 13.289 67.6236 13.1875C67.5108 13.1649 67.398 13.1536 67.2852 13.1311" fill="#EFEDDF"/>
</g>
<defs>
<clipPath id="clip0_1948_3444">
<rect width="136" height="60" fill="white"/>
</clipPath>
</defs>
</svg>
