<svg width="177" height="27" viewBox="0 0 177 27" fill="none" xmlns="http://www.w3.org/2000/svg">
<g clip-path="url(#clip0_1948_3227)">
<path d="M77.3052 26.3587H86.0509C85.8346 26.0478 85.5913 25.899 85.3345 25.7909C84.0909 25.2502 83.4421 24.3445 83.4556 22.9387C83.4827 16.6667 83.4556 10.3948 83.4691 4.12275C83.4691 2.63585 84.0503 1.87884 85.4291 1.3787C85.6724 1.28408 85.9022 1.17602 86.4294 0.946225H77.2512C80.1844 2.48719 79.7383 2.82508 79.9411 5.46094C79.9411 5.5826 79.9411 5.71781 79.9411 5.83947C79.9411 11.0571 79.9411 16.2747 79.9411 21.5059C79.9411 23.5741 79.9817 25.6963 76.9943 26.0883C77.089 26.1829 77.1836 26.2776 77.2918 26.3722M65.5993 14.4364C64.3827 10.7462 63.2203 7.19119 62.0578 3.63615C61.9632 3.63615 61.882 3.63613 61.7874 3.62262C60.5574 7.20469 59.3138 10.7733 58.0566 14.45H65.5993V14.4364ZM75.3317 26.3451H66.3292C66.4238 26.1694 66.4509 26.0612 66.5049 26.0477C68.7893 25.3313 69.0327 24.9123 68.2892 22.5873C67.6945 20.7084 67.0186 18.8566 66.4103 16.9777C66.2211 16.3829 65.9372 16.099 65.2614 16.1126C62.977 16.1531 60.679 16.1531 58.3946 16.1126C57.7052 16.1126 57.4484 16.3829 57.2456 16.9912C56.6644 18.7484 56.0021 20.4787 55.3938 22.2224C54.5557 24.6284 54.8261 25.2232 57.0834 26.3045H50.514C50.541 26.1558 50.5411 26.0207 50.5816 26.0072C52.8525 25.3854 53.8257 23.6687 54.5151 21.6276C56.7725 15.0177 59.0975 8.44827 61.3413 1.83833C61.6522 0.919154 62.1119 0.60828 63.0716 0.594763C64.0313 0.581245 64.4098 1.00024 64.6801 1.8248C66.9781 8.67805 69.2895 15.5313 71.6145 22.371C72.2363 24.1959 72.6553 26.264 75.5345 25.8855C75.4804 26.0342 75.4128 26.1829 75.3587 26.3316M6.62349 1.20306C6.62349 5.21768 6.5965 8.98898 6.66408 12.7603C6.66408 13.0577 7.24526 13.5578 7.61022 13.6119C8.6105 13.7335 9.6378 13.7335 10.6381 13.6795C14.0444 13.5037 16.1126 11.6248 16.3018 8.58343C16.5046 5.16356 14.3418 2.08162 11.2464 1.56797C9.80002 1.33817 8.31315 1.32471 6.62349 1.20306ZM6.66408 14.3824C6.66408 17.4373 6.62346 20.3705 6.67753 23.3173C6.70456 24.669 7.44806 25.6017 8.84034 25.9261C9.09717 25.9937 9.35398 26.1018 9.58377 26.3856H0C0.29738 26.1288 0.405538 25.9802 0.527193 25.9532C2.68995 25.4125 3.24414 23.9796 3.20358 21.8844C3.09545 16.5451 3.14957 11.1922 3.17661 5.85291C3.17661 3.69015 3.12254 1.62204 0.310953 1.14893C0.459643 0.932658 0.513702 0.811003 0.554254 0.811003C4.98791 0.959692 9.46208 0.811049 13.8552 1.36526C17.7887 1.86539 19.9921 5.08251 19.6677 8.71865C19.4379 11.2329 17.8699 13.1253 15.3557 13.9498C12.7063 14.8284 10.0163 14.7473 7.31288 14.4364C7.15068 14.4229 6.97498 14.4229 6.66408 14.3958M149.149 1.1354C149.285 1.21651 149.406 1.35174 149.555 1.36526C151.677 1.70319 152.542 3.0684 152.677 5.05544C152.718 5.77186 152.759 6.48829 152.759 7.19119C152.759 12.0304 152.745 16.8695 152.772 21.7087C152.786 23.7633 152.448 25.5071 150.001 25.9396C149.947 25.9396 149.92 26.0747 149.771 26.3045H157.598C157.125 26.0207 156.976 25.872 156.8 25.8179C154.435 25.0474 154.043 24.5203 154.043 22.1277C154.043 16.5722 154.043 11.0165 154.043 5.46094C154.043 5.08246 154.083 4.69049 154.124 4.05518C155.773 6.06925 157.246 7.86706 158.706 9.65134C163.099 15.0042 167.479 20.357 171.872 25.6963C172.183 26.0748 172.629 26.3316 173.291 26.8723C173.345 25.9126 173.413 25.3854 173.413 24.8583C173.413 18.1672 173.413 11.4761 173.413 4.78508C173.413 2.2979 173.697 1.93294 176.076 1.24356C176.197 1.20301 176.306 1.0814 176.617 0.865124H168.722C169.196 1.17602 169.344 1.31119 169.506 1.36526C171.804 2.13574 172.115 2.46012 172.142 4.87971C172.183 9.97572 172.156 15.0582 172.142 20.1542C172.142 20.2623 172.061 20.357 171.967 20.6003C171.507 20.0596 171.102 19.5865 170.696 19.1134C165.87 13.301 161.058 7.47503 156.233 1.67613C155.949 1.32468 155.57 0.82452 155.219 0.811003C153.218 0.729899 151.204 0.770494 149.204 0.770494C149.19 0.892149 149.163 1.01374 149.149 1.12187M97.5 1.63554C97.473 2.10864 97.4459 2.56827 97.4324 3.02785C97.3919 8.7051 97.3513 14.3958 97.3378 20.0731C97.3378 21.0734 97.3919 22.0871 97.5 23.0874C97.6757 24.6554 98.3922 25.4935 99.9737 25.6693C101.312 25.818 102.691 25.845 104.029 25.7368C109.219 25.3583 112.802 22.371 113.68 17.4372C114.018 15.5718 113.937 13.5849 113.775 11.6654C113.315 6.44774 109.814 2.41959 104.894 1.68966C102.542 1.33821 100.095 1.63554 97.5135 1.63554M90.7414 26.2776C90.9982 26.0613 91.1063 25.8991 91.255 25.8721C93.3908 25.3314 94.0126 23.939 93.972 21.8303C93.8639 16.4505 93.9179 11.0571 93.945 5.67727C93.945 3.52802 93.7558 1.55445 91.147 0.811003C91.4443 0.756934 91.7417 0.648802 92.0391 0.648802C96.4862 0.743423 100.947 0.67585 105.381 1.00026C113.018 1.56799 117.816 6.94783 117.708 14.4905C117.614 21.0328 113.586 25.5341 106.624 26.1694C101.528 26.629 96.3781 26.4127 91.255 26.4938C91.1469 26.4938 91.0387 26.3992 90.7414 26.264M25.2638 5.85291C25.1827 11.2733 25.2368 16.7073 25.2368 22.1413C25.2368 24.696 25.0611 24.9663 22.628 25.9666C22.4793 26.0342 22.29 26.0072 22.1143 26.0343C22.2224 26.1424 22.317 26.2505 22.4252 26.3587H31.7926C31.6439 26.0748 31.4682 25.9802 31.279 25.9261C29.2243 25.2773 28.8324 24.8042 28.7648 22.709C28.7107 21.0734 28.7377 19.4243 28.7242 17.7887C28.7242 16.5856 28.7242 15.3961 28.7242 14.2336H42.985C42.985 17.1128 42.985 19.8838 42.985 22.6684C42.985 24.304 42.3767 25.5205 40.6059 25.899C40.4572 25.9261 40.3356 26.1153 40.0247 26.3992H49.0136C46.3237 25.5341 46.3372 23.4524 46.3777 21.2491C46.4453 16.2477 46.4859 11.2328 46.3643 6.23144C46.3102 3.89295 46.594 1.97347 49.1353 1.1354C49.1488 1.1354 49.1352 1.06787 49.1623 0.932694H40.3491C40.7005 1.35173 41.1871 1.45985 41.4845 1.75723C42.0252 2.2844 42.8227 2.91971 42.8497 3.52798C42.9849 6.62344 42.9173 9.71885 42.9173 12.8684H28.8323C28.8323 9.85403 28.7783 6.92085 28.8594 3.98761C28.8864 2.75754 29.6028 1.86535 30.8464 1.48687C31.1032 1.40576 31.3331 1.27059 31.5764 1.14893C31.5764 1.06783 31.5493 1.00027 31.5358 0.919164H22.6549C25.3043 1.66261 25.3179 3.67666 25.2908 5.87997M144.256 13.382C144.364 13.355 144.148 13.4091 144.256 13.382C144.148 11.0976 143.688 8.75916 142.864 6.65047C141.445 3.06839 138.66 0.946215 134.7 0.851594C130.752 0.756973 127.833 2.6899 126.224 6.21791C123.899 11.2734 123.98 16.437 126.454 21.4384C128.049 24.6825 130.901 26.237 134.483 26.264C138.011 26.2775 140.62 24.5879 142.31 21.5465C143.716 19.0188 144.189 16.2612 144.256 13.4091M134.645 0C135.808 0 136.957 0.202775 138.038 0.608293C139.458 1.13547 140.877 1.63557 142.107 2.43309C146.797 5.44744 149.055 11.3004 147.852 16.5181C146.554 22.1007 142.202 26.237 136.443 26.9128C128.941 27.7914 122.372 23.6822 121.007 15.7746C119.736 8.40771 124.48 1.66261 131.82 0.243301C132.537 0.108128 133.253 0 133.983 0H134.645Z" fill="#EFEDDF"/>
</g>
<defs>
<clipPath id="clip0_1948_3227">
<rect width="177" height="27" fill="white"/>
</clipPath>
</defs>
</svg>
