<svg width="189" height="42" viewBox="0 0 189 42" fill="none" xmlns="http://www.w3.org/2000/svg">
<g clip-path="url(#clip0_1948_3210)">
<path d="M17.9374 22.1299C17.8022 21.7515 17.6535 21.373 17.5319 20.9945C16.7614 18.7236 15.9909 16.4527 15.2204 14.1953C14.6798 12.6003 14.1255 11.0188 13.5848 9.42373C13.1388 8.13959 12.7062 6.84192 12.2737 5.54426C11.76 4.01681 11.2464 2.50289 10.7462 0.975444C10.4894 0.191443 10.1785 -0.0248344 9.35396 0.00220012C8.29962 0.0292346 7.23174 0.0292198 6.1774 0.0292198C4.19036 0.0292198 2.18979 0.0292198 0.202751 0.0292198C0.135164 0.0292198 0.0675863 0.0832855 0 0.11032C0.0405518 0.177906 0.0540921 0.259016 0.108161 0.286051C1.16251 0.867293 1.79782 1.81351 2.21685 2.89489C2.70347 4.152 3.14954 5.42262 3.60913 6.69324C4.27147 8.50455 4.93381 10.3159 5.58264 12.1272C6.29905 14.1007 6.98844 16.0877 7.70486 18.0612C8.40775 20.0483 9.0971 22.0353 9.82703 24.0088C10.2866 25.2659 11.0031 26.3879 11.9358 27.3746C12.8414 28.3344 13.9093 29.0778 15.0853 29.6726C16.4235 30.3619 17.8428 30.8215 19.2891 31.2C19.4243 31.2406 19.4919 31.2 19.5325 31.0648C19.6271 30.7675 19.7352 30.4701 19.8298 30.1862C20.5733 28.0099 21.3167 25.8201 22.0602 23.6303C22.5874 22.0894 23.101 20.5349 23.6282 18.9939C24.25 17.1421 24.8853 15.3037 25.5206 13.4518C25.9261 12.2488 26.3316 11.0458 26.7371 9.84276C27.1832 8.53159 27.6158 7.22041 28.0618 5.90924C28.562 4.43585 29.0486 2.97599 29.5488 1.51613C29.711 1.04302 29.8596 0.569914 30.0218 0.0968102H21.8033C22.0602 0.299569 22.29 0.461781 22.5062 0.651023C23.2091 1.21875 23.8174 1.86757 23.8174 2.84081C23.8174 3.36799 23.7498 3.92219 23.6011 4.42233C23.1551 5.94978 22.6685 7.46371 22.1954 8.97764C21.3708 11.5865 20.5462 14.2088 19.7217 16.8177C19.1945 18.5208 18.6674 20.2105 18.1402 21.9137C18.1131 21.9948 18.0591 22.0759 18.0185 22.157C17.9915 22.157 17.978 22.157 17.9509 22.157M187.849 29.0238C187.741 28.3749 187.687 27.6991 187.674 27.0367C187.674 18.5749 187.674 10.0996 187.674 1.63778V0.0157099C184.497 0.150883 181.361 0.272529 178.185 0.407701C178.266 0.475288 178.279 0.488815 178.306 0.502332C179.009 0.894333 179.482 1.48908 179.617 2.2866C179.712 2.89488 179.739 3.50315 179.739 4.12495C179.753 6.24716 179.739 8.38289 179.739 10.5051C179.739 10.8836 179.644 10.9377 179.306 10.7619C178.874 10.5457 178.441 10.3294 177.995 10.1401C176.211 9.36966 174.373 9.13986 172.453 9.62648C171.061 9.97793 169.817 10.6403 168.722 11.546C166.911 13.0329 165.843 14.9928 165.262 17.2367C164.911 18.6425 164.775 20.0618 164.897 21.5082C164.992 22.7112 165.249 23.8872 165.681 25.0091C166.343 26.7123 167.384 28.1451 168.79 29.3076C169.939 30.2673 171.237 30.9702 172.71 31.2811C173.818 31.5244 174.94 31.5245 176.076 31.3487C176.59 31.2676 176.981 31.0378 177.225 30.5782C177.59 29.9159 177.968 29.267 178.333 28.6182C178.536 28.2668 178.712 27.9153 178.928 27.5233C178.712 27.5098 178.536 27.4963 178.36 27.4693C177.738 27.3747 177.103 27.3206 176.508 27.1448C175.265 26.7664 174.427 25.9148 173.9 24.7523C173.237 23.2924 172.926 21.7379 172.967 20.1294C172.98 19.2643 173.129 18.3857 173.305 17.5341C173.508 16.4797 173.967 15.5335 174.751 14.7766C176.076 13.4924 178.198 13.7763 179.131 15.3578C179.577 16.1012 179.725 16.9393 179.766 17.7909C179.807 18.6695 179.807 19.5617 179.807 20.4403C179.807 23.725 179.807 27.0232 179.807 30.3079C179.807 30.4836 179.847 30.6593 179.834 30.8215C179.834 31.0648 179.928 31.1054 180.145 31.1054C181.429 31.1054 182.713 31.1054 183.997 31.1054H189.255C188.417 30.6728 188.012 29.9429 187.863 29.0643M149.609 10.5456C150.244 11.2891 150.38 12.2083 150.38 13.1274C150.38 16.723 150.38 20.3321 150.366 23.9277C150.366 25.1037 150.366 26.2933 150.352 27.4693C150.352 27.8883 150.312 27.9018 149.893 27.9559C149.298 28.0235 148.717 28.064 148.109 27.9559C147.514 27.8613 146.973 27.672 146.5 27.2935C145.581 26.5636 145.27 25.5363 145.162 24.4414C145.081 23.6439 145.108 22.8464 145.094 22.0488C145.094 21.2108 145.094 20.3862 145.081 19.5481C145.054 18.1153 145.081 16.669 144.797 15.2632C144.54 14.0061 144.013 12.8977 143.107 11.965C142.08 10.9242 140.769 10.424 139.404 10.0185C138.255 9.68056 137.092 9.50482 135.903 9.45075C135.416 9.42372 134.929 9.38318 134.443 9.42373C133.361 9.51835 132.28 9.62649 131.199 9.76166C130.658 9.82925 130.104 9.9644 129.563 10.0725C129.225 10.1401 129.036 10.3699 128.941 10.6944C128.671 11.5459 128.387 12.3975 128.117 13.2626C127.927 13.8574 127.738 14.4522 127.549 15.0875C127.657 15.0604 127.738 15.0604 127.806 15.0334C129.239 14.6549 130.671 14.2494 132.118 13.8844C133.334 13.5735 134.564 13.5735 135.713 14.1412C136.024 14.2899 136.335 14.4927 136.578 14.736C137.376 15.547 137.268 16.5879 136.322 17.2367C135.511 17.7909 134.591 18.0072 133.659 18.237C132.091 18.629 130.523 18.9804 128.968 19.3859C127.995 19.6293 127.103 20.0483 126.305 20.6701C125.035 21.6569 124.318 22.9274 124.183 24.5225C124.061 25.8742 124.372 27.1043 125.224 28.1722C126.332 29.5644 127.86 30.2944 129.536 30.7269C130.374 30.9432 131.226 31.0648 132.104 31.0784C133.253 31.0919 134.402 31.1054 135.551 31.0919C135.835 31.0919 136.024 30.9432 136.159 30.6729C136.376 30.2133 136.632 29.7672 136.849 29.3076C137.051 28.8886 137.241 28.4695 137.443 28.037C137.376 28.0235 137.335 28.01 137.295 28.01C136.47 27.8883 135.632 27.8072 134.808 27.6585C133.253 27.3746 132.645 26.0905 132.685 24.7928C132.712 23.8331 133.226 23.1437 134.105 22.7653C135.159 22.3192 136.213 21.9002 137.268 21.4676C137.443 21.4 137.511 21.4676 137.511 21.6298C137.511 22.1164 137.457 22.6166 137.484 23.1032C137.525 24.144 137.525 25.1984 137.66 26.2392C137.836 27.618 138.498 28.7804 139.647 29.605C140.89 30.5106 142.323 30.8756 143.824 31.0108C144.837 31.1054 145.865 31.1054 146.879 31.1054C150.92 31.1054 154.948 31.1054 158.99 31.1054C159.247 31.1054 159.517 31.0648 159.828 31.0378C159.76 30.9837 159.747 30.9567 159.72 30.9432C159.044 30.6053 158.639 30.0375 158.422 29.3346C158.22 28.6588 158.233 27.9559 158.22 27.253C158.22 26.6718 158.206 26.0905 158.206 25.5093C158.22 23.0762 158.206 20.6565 158.274 18.2234C158.314 16.3581 159.598 14.9523 161.45 14.709C162.248 14.6008 163.059 14.6279 163.856 14.6008C164.073 14.6008 164.289 14.6008 164.505 14.6008C164.505 14.4657 164.532 14.3575 164.532 14.2629C164.532 13.0869 164.532 11.8974 164.532 10.7214C164.532 10.4375 164.546 10.1536 164.532 9.86978C164.505 9.55889 164.302 9.34263 164.005 9.30208C162.667 9.13987 161.396 9.30205 160.234 10.032C159.571 10.451 159.071 11.0458 158.585 11.6405C158.476 11.7622 158.368 11.8839 158.247 12.0055C158.179 11.8704 158.165 11.7757 158.165 11.6811C158.165 11.0187 158.165 10.3564 158.165 9.70758C158.165 9.50482 158.098 9.43722 157.895 9.43722C157.044 9.47777 156.178 9.4913 155.327 9.53185C154.097 9.58592 152.867 9.63998 151.65 9.69405C150.744 9.7346 149.839 9.76166 148.893 9.80221C149.177 10.0455 149.447 10.2483 149.663 10.4916M59.3273 11.5324C59.3002 10.9377 59.2732 10.3564 59.2597 9.76166C59.2597 9.5589 59.2056 9.47778 59.0028 9.4913C58.1783 9.53185 57.3538 9.5589 56.5427 9.58593C55.0288 9.64 53.5148 9.70759 52.0009 9.76166C51.3386 9.7887 50.6762 9.82926 50.0409 9.85629C50.3383 10.1266 50.6492 10.3699 50.906 10.6673C51.3926 11.2621 51.4873 11.992 51.5143 12.7219C51.5549 13.5735 51.5549 14.4386 51.5549 15.2902C51.5549 19.1291 51.5549 22.9545 51.5549 26.7934C51.5549 27.0502 51.5008 27.307 51.5008 27.5639C51.5008 27.8342 51.325 27.9018 51.1088 27.9153C50.5275 27.9288 49.9327 27.9694 49.365 27.9153C48.6486 27.8477 48.0133 27.5504 47.4997 27.0367C46.6886 26.2392 46.4183 25.1984 46.3912 24.1305C46.3237 21.9407 46.3236 19.7509 46.3236 17.5476C46.3236 16.6554 46.2426 15.7633 46.0128 14.8982C45.6343 13.4654 44.8908 12.2759 43.6878 11.3972C42.8497 10.789 41.9305 10.3294 40.9167 10.0861C39.9976 9.85627 39.0649 9.64 38.1322 9.50483C36.9021 9.32911 35.6585 9.32909 34.4285 9.4913C33.3606 9.62647 32.2927 9.82925 31.2249 9.97794C30.6031 10.059 30.2786 10.4105 30.1029 10.9917C29.8055 12.0055 29.4541 13.0193 29.1297 14.0196C29.0215 14.344 28.9269 14.6819 28.8053 15.0604C28.9405 15.0334 29.0215 15.0199 29.0891 14.9928C30.5084 14.6144 31.9278 14.2224 33.3471 13.8574C34.0094 13.6952 34.6988 13.587 35.4017 13.6681C36.2938 13.7628 37.1049 14.0466 37.7808 14.6414C38.6053 15.3578 38.5783 16.4527 37.6997 17.088C37.3617 17.3313 36.9832 17.5611 36.5777 17.6693C35.0097 18.1289 33.4147 18.5344 31.8331 18.9804C30.8329 19.2643 29.8191 19.5482 28.8323 19.8996C27.7645 20.2781 26.8858 20.9404 26.264 21.9137C25.7909 22.6571 25.5476 23.4546 25.4395 24.3197C25.2232 25.9824 25.7098 27.4017 26.8723 28.5912C27.9402 29.6861 29.2784 30.3349 30.7518 30.6593C31.6034 30.8486 32.4955 30.9702 33.3606 31.0108C34.5096 31.0784 35.6721 31.0513 36.8345 31.0378C36.9832 31.0378 37.213 30.9162 37.2806 30.7945C37.7672 29.8753 38.2133 28.9561 38.6999 27.9829C38.1322 27.9288 37.5915 27.8883 37.0643 27.8342C36.2263 27.7531 35.4287 27.5504 34.7529 26.9962C34.104 26.469 33.7256 25.3471 33.9283 24.536C34.1852 23.4682 34.9151 22.8193 35.8478 22.3868C36.429 22.1164 37.0643 21.9542 37.6861 21.765C37.997 21.6704 38.3215 21.6433 38.6324 21.5893C38.6594 21.6433 38.6729 21.6569 38.6729 21.6839C38.6729 21.765 38.6729 21.8596 38.6729 21.9407C38.7135 23.2383 38.6999 24.536 38.7946 25.8337C38.8621 26.7528 39.2001 27.618 39.7272 28.3884C40.7951 29.9294 42.3631 30.6458 44.1474 30.9162C45.053 31.0513 45.9857 31.0784 46.9049 31.0784C51.4737 31.0919 56.0426 31.0784 60.6114 31.0784H60.8818C60.8006 30.9567 60.706 30.8756 60.6114 30.808C60.0842 30.416 59.6787 29.9159 59.53 29.2671C59.3949 28.6723 59.2867 28.064 59.2867 27.4557C59.2597 24.4414 59.2867 21.4135 59.2732 18.3992C59.2732 17.6963 59.3138 17.0069 59.53 16.3446C59.7328 15.7498 60.0437 15.2226 60.5573 14.8171C61.2872 14.2359 62.1388 14.1277 63.0175 14.2494C63.8285 14.3711 64.4773 14.8036 64.7477 15.6011C64.9234 16.1148 65.018 16.669 65.0316 17.1962C65.0586 21.5893 65.0316 25.9959 65.0316 30.389C65.0316 30.9702 65.0315 30.9837 65.5993 30.9973C66.7617 30.9973 67.9242 30.9973 69.1002 30.9973C70.452 30.9973 71.7902 30.9973 73.1419 30.9973H74.4396C74.372 30.8891 74.3044 30.8351 74.2233 30.781C73.6285 30.3484 73.0878 29.8618 72.9121 29.1319C72.7905 28.6047 72.7093 28.037 72.6958 27.4963C72.6823 24.0494 72.6958 20.589 72.6958 17.1421C72.6958 16.3175 72.6958 15.4795 72.5201 14.6684C72.2768 13.4654 71.7631 12.411 70.9115 11.5324C69.9113 10.5051 68.6677 9.93739 67.2889 9.64001C65.775 9.3156 64.2746 9.32909 62.7877 9.82923C61.8144 10.1536 60.9223 10.6538 60.1113 11.2621C59.8815 11.4243 59.6517 11.5865 59.3813 11.7893C59.3678 11.6541 59.3408 11.573 59.3408 11.4919M85.8481 13.4654C85.2939 13.4519 84.8614 13.587 84.4288 13.8303C84.0098 14.0736 83.7394 14.4521 83.5367 14.8441C83.3339 15.2091 83.2393 15.6552 83.1582 16.0742C83.0636 16.5473 83.023 17.0339 82.996 17.5206C82.9825 17.8315 83.023 18.1423 83.0771 18.4397C83.1312 18.7912 83.1852 19.1426 83.3069 19.467C83.4421 19.7915 83.6313 20.1023 83.8611 20.3862C84.0503 20.6295 84.2801 20.8728 84.5504 21.0215C84.8478 21.1837 85.1993 21.2783 85.5373 21.3054C85.9969 21.3324 86.4699 21.2919 86.916 21.1837C87.335 21.0891 87.6324 20.7242 87.8893 20.3997C88.0244 20.2375 88.1055 20.0348 88.1731 19.832C88.2812 19.467 88.3759 19.1021 88.457 18.7371C88.5516 18.3181 88.6327 17.9126 88.7003 17.48C88.7273 17.2772 88.7273 17.061 88.6867 16.8582C88.5921 16.4122 88.484 15.9796 88.3488 15.547C88.2136 15.155 88.0784 14.736 87.8351 14.4116C87.335 13.7357 86.6457 13.4113 85.8481 13.4789M94.3369 13.3843C94.4991 13.6276 94.6208 13.8304 94.756 14.0196C95.6616 15.2497 96.1753 16.6284 96.1483 18.1694C96.1348 19.1697 95.8509 20.1024 95.3507 20.981C94.5397 22.3868 93.2962 23.2654 91.8769 23.9413C90.1061 24.7793 88.2271 25.2389 86.3077 25.5363C85.7264 25.6309 85.1452 25.685 84.564 25.7661C83.9422 25.8607 83.6719 26.1175 83.6719 26.6177C83.6719 27.1449 84.0233 27.5504 84.6046 27.618C85.0101 27.672 85.4156 27.6855 85.8211 27.6991C87.4161 27.7396 88.9977 27.7531 90.5927 27.8207C91.4037 27.8477 92.2283 27.9153 93.0123 28.0911C94.3099 28.3749 95.4994 28.9156 96.5267 29.7943C97.6892 30.781 98.4056 32.0111 98.6489 33.4844C99.0409 35.85 98.2975 37.864 96.4997 39.4456C95.2562 40.5405 93.7692 41.1893 92.1742 41.6083C90.9171 41.9463 89.6465 42.0949 88.3488 42.1625C86.943 42.2301 85.5507 42.3247 84.1449 42.2842C83.0636 42.2572 81.9822 42.0679 80.9008 41.8786C79.5761 41.6488 78.3325 41.1758 77.1565 40.5404C76.332 40.0944 75.5344 39.6077 74.9262 38.8373C74.0475 37.7288 74.007 36.0392 74.8316 34.8902C75.5345 33.917 76.5077 33.4033 77.6296 33.0789C78.8597 32.7275 80.1168 32.7545 81.3604 32.8762C81.6848 32.9167 82.0228 32.9573 82.3877 32.9978C82.1444 33.1871 81.9282 33.3222 81.7389 33.498C80.8468 34.2685 80.7792 35.3363 81.3064 36.3231C81.7659 37.2017 82.5634 37.6207 83.442 37.9316C84.4829 38.2966 85.5508 38.4318 86.6322 38.2696C87.6324 38.1344 88.6056 37.8911 89.4437 37.2828C90.3493 36.634 90.6738 35.7013 90.6467 34.6334C90.6467 33.9711 90.4845 33.3493 90.1196 32.7816C89.6464 32.0651 88.9301 31.7542 88.119 31.6056C86.2942 31.2811 84.4423 31.1324 82.5904 31.1189C81.3063 31.1189 80.1439 30.6728 79.2247 29.7266C78.5353 29.0237 78.1568 28.1722 77.9946 27.1989C77.9541 26.9556 77.927 26.7123 77.927 26.4825C77.927 25.8877 78.1974 25.4687 78.7516 25.266C79.3734 25.0497 80.0222 24.8739 80.6575 24.6847C80.7251 24.6577 80.8062 24.6441 80.9414 24.6036C80.8332 24.4954 80.7656 24.4143 80.671 24.3468C79.9816 23.8466 79.2787 23.3735 78.6164 22.8599C77.3863 21.9137 76.4266 20.7376 75.94 19.2372C75.2641 17.115 75.548 15.101 76.8186 13.2491C77.6026 12.1136 78.6434 11.3162 79.8735 10.6944C81.1576 10.0455 82.5364 9.65353 83.9692 9.55891C85.4561 9.46429 86.943 9.47777 88.4299 9.43722C88.6191 9.43722 88.7949 9.43722 88.9706 9.43722C94.0261 9.43722 99.0815 9.43722 104.137 9.43722C105.313 9.43722 106.489 9.46425 107.665 9.47777C107.908 9.47777 107.989 9.5589 107.989 9.80221C107.989 14.3305 107.989 18.8588 107.989 23.387C107.989 23.9953 108.111 24.5766 108.408 25.1038C108.827 25.8607 109.517 26.2527 110.355 26.3338C111.274 26.4284 112.139 26.2392 112.788 25.5093C113.221 25.0226 113.383 24.4144 113.531 23.7926C113.748 22.8869 113.721 21.9678 113.721 21.0486C113.721 18.4533 113.721 15.8579 113.707 13.2626C113.707 12.7084 113.626 12.1542 113.518 11.6135C113.383 10.9377 112.991 10.424 112.41 10.0455C112.328 9.99144 112.261 9.93738 112.18 9.84276C115.248 9.70759 118.317 9.58592 121.412 9.45075C121.439 9.93737 121.48 10.3699 121.48 10.816C121.48 16.277 121.48 21.7244 121.48 27.1854C121.48 27.8072 121.561 28.4425 121.669 29.0643C121.818 29.9159 122.264 30.5782 123.115 31.0243H113.748V28.7264C113.748 28.7264 113.707 28.6858 113.68 28.6723C113.491 28.794 113.302 28.9156 113.126 29.0508C112.004 29.9294 110.787 30.6188 109.382 30.9162C108.571 31.0919 107.76 31.173 106.935 31.0919C105.827 30.9702 104.745 30.7269 103.745 30.2538C102.258 29.5509 101.177 28.456 100.582 26.9015C100.271 26.077 100.122 25.2119 100.122 24.3333C100.109 20.7647 100.095 17.1826 100.095 13.6141C100.095 13.3573 100.028 13.2762 99.7574 13.2762C98.0812 13.2897 96.4051 13.2761 94.729 13.2896C94.6073 13.2896 94.4857 13.3167 94.2829 13.3437" fill="#EFEDDF"/>
</g>
<defs>
<clipPath id="clip0_1948_3210">
<rect width="189" height="42" fill="white"/>
</clipPath>
</defs>
</svg>
