<svg width="169" height="58" viewBox="0 0 169 58" fill="none" xmlns="http://www.w3.org/2000/svg">
<g clip-path="url(#clip0_1948_3300)">
<path d="M17.926 26.034C19.7914 27.237 20.8728 29.2916 21.1431 32.1979H14.9116C14.8711 31.5085 14.6277 30.8596 14.2357 30.2919C13.5599 29.4403 12.3839 29.0213 10.7213 29.0213C9.36956 29.0213 8.39629 29.2376 7.81504 29.6566C7.30139 29.981 6.97704 30.5352 6.95 31.1435C6.90945 31.8059 7.27441 32.4141 7.86917 32.698C8.47744 33.0359 10.6537 33.6172 14.3845 34.4282C16.8717 35.0094 18.737 35.8881 19.967 37.0776C21.1836 38.2536 21.846 39.8756 21.8055 41.5653C21.8595 43.7957 20.8863 45.9449 19.1696 47.3642C17.4123 48.8646 14.6819 49.6081 11.0052 49.6081C7.32849 49.6081 4.47631 48.8106 2.69203 47.229C0.934789 45.7151 -0.0519577 43.4983 0.00211137 41.1733H6.34171C6.47688 42.2817 6.76075 43.0657 7.1933 43.5523C7.96379 44.3904 9.39661 44.7959 11.4918 44.7959C12.4921 44.8365 13.4923 44.6472 14.4115 44.2552C15.0738 43.9849 15.5064 43.3226 15.5064 42.6061C15.5334 41.9438 15.1955 41.322 14.6278 40.9841C14.033 40.6191 11.8703 39.9838 8.11247 39.1052C5.3955 38.4293 3.48951 37.5912 2.39461 36.5774C1.29971 35.5772 0.732014 34.1443 0.732014 32.2925C0.732014 30.0891 1.5971 28.1967 3.3273 26.6017C5.05751 25.0202 7.50418 24.2227 10.6402 24.2227C13.614 24.2227 16.047 24.8039 17.9395 25.9934" fill="#EFEDDF"/>
<path d="M52.7062 44.3776V49.041L49.7459 49.1492C46.7992 49.2438 44.7716 48.7437 43.6902 47.6082C42.9873 46.8918 42.6358 45.7834 42.6358 44.2965V29.5897H39.3105V25.1425H42.6494V18.4785H48.8132V25.1425H52.6927V29.5897H48.8132V42.2148C48.8132 43.1881 48.9349 43.7963 49.1917 44.0396C49.4351 44.283 50.2055 44.4046 51.4761 44.4046H52.0708C52.2871 44.3911 52.5034 44.3911 52.7062 44.3641" fill="#EFEDDF"/>
<path d="M78.3063 34.7932V48.8241H71.9261V34.293C71.9666 33.2117 71.7504 32.1438 71.2638 31.1841C70.696 30.0757 69.6147 29.5214 68.0197 29.5214C66.3706 29.5214 65.1134 30.0756 64.2618 31.1705C63.4102 32.279 62.9777 33.847 62.9777 35.9016V48.8376H56.7598V16.626H62.9777V28.0481C63.7346 26.8045 64.816 25.7907 66.1272 25.1419C67.3032 24.6012 68.5874 24.3173 69.8851 24.3173C71.2638 24.3038 72.629 24.5606 73.8996 25.0743C75.0892 25.5744 76.1165 26.3854 76.8735 27.4263C77.4952 28.2373 77.9008 29.17 78.0765 30.1703C78.2522 31.6977 78.3333 33.2522 78.3063 34.7932Z" fill="#EFEDDF"/>
<path d="M95.2583 30.6972C92.7441 30.6972 91.0544 31.5217 90.1893 33.1573C89.7027 34.0765 89.4729 35.4958 89.4729 37.4153V48.8373H83.1738V24.9388H89.135V29.1021C90.0947 27.5206 90.9328 26.4393 91.6492 25.8445C92.8117 24.8577 94.3391 24.3711 96.2045 24.3711H96.5019L97.0426 24.3981V30.8053C96.6506 30.7648 96.2991 30.7377 95.9882 30.7242C95.6774 30.7107 95.434 30.6972 95.2447 30.6972" fill="#EFEDDF"/>
<path d="M114.088 34.4961C113.98 32.847 113.48 31.5899 112.588 30.7383C111.682 29.8867 110.479 29.4271 109.249 29.4542C107.803 29.4542 106.681 29.9002 105.883 30.8059C105.086 31.7116 104.586 32.9416 104.383 34.4826H114.088V34.4961ZM120.266 41.8225C120.104 43.2418 119.36 44.6746 118.049 46.1345C116.008 48.4594 113.142 49.6219 109.452 49.6219C106.505 49.649 103.64 48.6081 101.409 46.6887C99.0843 44.7287 97.9219 41.5386 97.9219 37.132C97.9219 32.9957 98.9762 29.8191 101.071 27.6158C103.167 25.4125 105.897 24.3041 109.236 24.3041C111.088 24.2771 112.926 24.6555 114.602 25.426C116.224 26.1965 117.603 27.4266 118.549 28.954C119.509 30.4544 120.131 32.1441 120.36 33.9013C120.55 35.4829 120.617 37.0644 120.563 38.6459H104.207C104.302 41.0385 105.045 42.7146 106.465 43.6879C107.384 44.3096 108.465 44.6205 109.574 44.58C110.723 44.634 111.845 44.242 112.71 43.4851C113.196 43.012 113.588 42.4578 113.872 41.836L120.252 41.809L120.266 41.8225Z" fill="#EFEDDF"/>
<path d="M138.147 34.4961C138.039 32.847 137.539 31.5899 136.647 30.7383C135.741 29.8867 134.538 29.4271 133.308 29.4542C131.862 29.4542 130.74 29.9002 129.942 30.8059C129.145 31.7116 128.644 32.9416 128.442 34.4826H138.147V34.4961ZM144.324 41.8225C144.162 43.2418 143.432 44.6746 142.108 46.1345C140.067 48.4594 137.201 49.6219 133.511 49.6219C130.564 49.649 127.698 48.6081 125.468 46.6887C123.143 44.7287 121.98 41.5386 121.98 37.132C121.98 32.9957 123.035 29.8191 125.13 27.6158C127.225 25.4125 129.956 24.3041 133.294 24.3041C135.146 24.2771 136.985 24.6555 138.661 25.426C140.283 26.1965 141.662 27.4266 142.608 28.954C143.568 30.4544 144.189 32.1441 144.433 33.9013C144.622 35.4829 144.689 37.0644 144.635 38.6459H128.279C128.374 41.0385 129.118 42.7146 130.537 43.6879C131.456 44.3096 132.551 44.6205 133.646 44.58C134.795 44.634 135.917 44.242 136.782 43.4851C137.269 43.012 137.66 42.4578 137.944 41.836L144.324 41.809V41.8225Z" fill="#EFEDDF"/>
<path d="M32.9302 11.1787H29.0508V60.8276H32.9302V11.1787Z" fill="#EFEDDF"/>
<path d="M139.946 0C145.002 0 149.097 4.09574 149.097 9.15119C149.097 14.2066 145.002 18.3024 139.946 18.3024C134.891 18.3024 130.795 14.2066 130.795 9.15119C130.795 4.10925 134.904 0.0135173 139.946 0Z" fill="#EFEDDF"/>
<path d="M160.345 0C165.4 0 169.496 4.09574 169.496 9.15119C169.496 14.2066 165.4 18.3024 160.345 18.3024C155.289 18.3024 151.193 14.2066 151.193 9.15119C151.193 4.10925 155.303 0.0135173 160.345 0Z" fill="#EFEDDF"/>
<path d="M160.345 20.3164C165.4 20.3164 169.496 24.4121 169.496 29.4676C169.496 34.523 165.4 38.6188 160.345 38.6188C155.289 38.6188 151.193 34.523 151.193 29.4676C151.193 24.4121 155.303 20.3299 160.345 20.3164Z" fill="#EFEDDF"/>
</g>
<defs>
<clipPath id="clip0_1948_3300">
<rect width="169" height="58" fill="white"/>
</clipPath>
</defs>
</svg>
