<svg width="257" height="22" viewBox="0 0 257 22" fill="none" xmlns="http://www.w3.org/2000/svg">
<g clip-path="url(#clip0_1948_3462)">
<path d="M89.6906 21.6292C89.5959 21.3318 89.3256 21.4129 89.1228 21.3589C85.4732 20.3586 83.6889 18.331 83.5808 14.5462C83.4456 10.0449 83.5402 5.54366 83.5132 1.04241C83.5132 0.542276 83.7024 0.380082 84.1755 0.380082C85.0947 0.393599 86.0139 0.420634 86.9195 0.380082C87.6359 0.33953 87.8252 0.596356 87.8117 1.28574C87.7846 4.92188 87.7981 8.55802 87.7981 12.1806C87.7981 13.1674 87.8117 14.1407 88.0685 15.1139C88.6227 17.2226 89.9203 18.2769 92.0561 18.304C94.2594 18.331 95.5435 17.3983 96.1653 15.2626C96.4627 14.2353 96.5438 13.1809 96.5438 12.1266C96.5438 8.53097 96.5438 4.93539 96.5438 1.3398C96.5438 0.393588 96.5438 0.393599 97.4495 0.380082C98.3281 0.380082 99.2067 0.393599 100.085 0.380082C100.572 0.366565 100.748 0.542283 100.748 1.0289C100.721 5.71939 100.788 10.4099 100.653 15.1004C100.558 18.2634 98.6931 20.3451 95.6111 21.2237C95.2326 21.3318 94.7731 21.2372 94.4892 21.6157H89.6771L89.6906 21.6292Z" fill="#EFEDDF"/>
<path d="M110.115 21.6289C109.439 21.1423 108.614 21.2099 107.857 20.9801C107.438 20.8449 107.303 20.6827 107.344 20.2772C107.452 19.2634 107.546 18.2496 107.641 17.2358C107.992 17.0736 108.222 17.3305 108.479 17.4386C109.98 18.0739 111.521 18.4253 113.156 18.2496C113.94 18.1685 114.643 17.9117 115.251 17.4251C116.414 16.5194 116.454 14.9514 115.373 13.9647C114.859 13.5051 114.237 13.2077 113.602 12.9509C112.48 12.4778 111.331 12.0722 110.25 11.518C107.344 10.0311 106.262 7.36824 107.249 4.25927C107.871 2.28575 109.277 1.09622 111.21 0.487946C113.737 -0.296055 116.265 -0.0392377 118.779 0.582556C119.252 0.690694 119.374 0.947531 119.306 1.3936C119.185 2.28574 119.104 3.1914 118.982 4.16464C117.684 3.77264 116.454 3.36713 115.13 3.36713C114.44 3.36713 113.764 3.36713 113.102 3.62396C112.088 4.02948 111.52 4.74587 111.412 5.84077C111.291 6.94919 111.831 7.6656 112.751 8.12519C113.67 8.58478 114.629 8.94976 115.589 9.32825C116.373 9.63914 117.13 9.97706 117.86 10.4096C119.955 11.6532 120.78 13.5321 120.618 15.8706C120.442 18.2767 119.185 19.9528 116.941 20.9125C116.211 21.2234 115.4 21.2234 114.711 21.6154H110.128L110.115 21.6289Z" fill="#EFEDDF"/>
<path d="M199.776 10.8557C199.681 12.8833 200.127 14.7757 201.128 16.5195C203.547 20.7369 209.508 20.9667 212.293 16.9656C214.577 13.6944 214.577 7.99008 212.306 4.73242C209.495 0.677237 203.493 0.920569 201.087 5.21906C200.1 6.9763 199.668 8.8687 199.776 10.8557ZM206.899 21.629C206.048 21.629 205.21 21.5073 204.372 21.3722C204.345 21.3722 204.318 21.3722 204.291 21.3587C201.357 20.6017 199.438 18.7228 198.465 15.9518C197.113 12.0588 197.126 8.17933 199.1 4.44856C200.614 1.59642 203.115 0.231179 206.318 0.0554549C209.265 -0.106752 211.806 0.798891 213.739 3.08331C215.118 4.73241 215.848 6.69245 216.037 8.7741C216.307 11.6127 216.145 14.4243 214.78 17.0467C213.591 19.3446 211.752 20.7774 209.238 21.3857C209.184 21.3992 209.13 21.4127 209.076 21.4127C208.386 21.5344 207.683 21.6155 206.981 21.6155H206.899V21.629Z" fill="#EFEDDF"/>
<path d="M165.213 21.6291C164.415 21.6291 163.618 21.5074 162.834 21.3317C162.469 21.2506 162.104 21.2101 161.752 21.0884C159.035 20.1692 157.035 18.4796 155.953 15.8302C154.602 12.532 154.602 9.17969 155.953 5.90851C157.21 2.86713 159.603 1.01527 162.834 0.325895C165.537 -0.255348 168.227 -0.0255474 170.876 0.839557C171.079 0.907144 171.228 1.09639 171.241 1.31267C171.268 1.74522 171.174 2.20482 171.025 2.61034C170.917 2.93475 170.579 2.73198 170.336 2.63736C168.632 1.97501 166.862 1.78577 165.064 1.88039C161.063 2.08315 158.251 4.34055 157.346 8.35517C156.899 10.3828 156.967 12.4104 157.602 14.3974C158.684 17.8037 161.455 19.6285 164.983 19.8178C166.199 19.8854 167.416 19.8178 168.632 19.588C169.89 19.3582 170.011 19.2365 170.011 17.9929C170.011 16.2492 170.011 14.5055 170.011 12.7753C170.011 11.5993 169.984 11.9372 167.916 11.8156C167.281 11.775 166.645 11.8156 166.024 11.8561C165.253 11.9237 165.131 11.5722 165.158 10.9775C165.186 10.4773 165.077 10.0043 165.875 10.0178C167.74 10.0583 169.619 10.0448 171.485 10.0178C172.133 10.0178 172.336 10.2476 172.201 11.2073C171.795 13.9107 171.809 16.6412 172.215 19.3447C172.323 20.0746 172.12 20.4126 171.579 20.6018C170.606 20.9397 169.646 21.2777 168.619 21.3993C168.551 21.3993 168.497 21.3993 168.43 21.4263C167.794 21.5345 167.173 21.6291 166.537 21.6291H165.199H165.213Z" fill="#EFEDDF"/>
<path d="M19.7256 21.6295C19.4823 20.9402 19.5364 20.2373 19.5364 19.5209C19.5364 13.5462 19.5364 7.55809 19.5364 1.58346C19.5364 0.407459 20.2258 -0.0656423 21.3612 0.339876C21.7938 0.488565 21.7667 0.840008 21.7667 1.17794V5.48993C21.7667 6.58483 21.7938 7.67976 21.7667 8.77465C21.7397 9.437 22.01 9.59919 22.6318 9.59919C25.6056 9.57215 28.5929 9.57215 31.5667 9.59919C32.2561 9.59919 32.3778 9.32885 32.3778 8.72057C32.3507 6.17933 32.3642 3.65159 32.3778 1.11035C32.3778 0.826486 32.2426 0.407454 32.6481 0.353385C33.2023 0.272282 33.7836 0.150623 34.3242 0.434486C34.5 0.529106 34.4459 0.772416 34.4459 0.961658C34.4459 1.44828 34.4459 1.94843 34.4459 2.43505V20.1427C34.4459 20.6293 34.4459 21.1159 34.4459 21.6025H32.3778C32.3778 21.0753 32.3778 20.5482 32.3778 20.021C32.3778 17.4527 32.3642 14.8844 32.3778 12.3162C32.3778 11.6809 32.2967 11.3699 31.5262 11.3699C28.5524 11.4105 25.5786 11.4105 22.5913 11.3699C21.9154 11.3699 21.7667 11.6133 21.7667 12.2351C21.7938 14.6547 21.7667 17.0742 21.7667 19.4938C21.7667 20.1967 21.8208 20.9131 21.5775 21.6025H19.7391L19.7256 21.6295Z" fill="#EFEDDF"/>
<path d="M69.0496 21.6286C68.171 21.3853 67.9952 20.7635 68.0763 19.9389C68.1439 19.236 68.0899 18.5196 68.0899 17.7491C68.8333 17.7086 69.4281 17.9925 70.0769 17.9789C71.726 17.9384 72.5641 17.2355 72.7533 15.6404C72.8209 15.0457 72.8615 14.4374 72.8615 13.8291C72.8615 9.70637 72.8615 5.57009 72.8615 1.44732C72.8615 0.42001 72.8615 0.420004 73.9293 0.406487C74.7268 0.406487 75.5379 0.447039 76.3354 0.406487C76.9572 0.365935 77.0924 0.622765 77.0924 1.19049C77.0788 6.30001 77.0923 11.4095 77.0653 16.5191C77.0518 18.9116 75.4973 20.777 73.1859 21.3988C73.0101 21.4394 72.7938 21.3988 72.7127 21.6286H69.036H69.0496Z" fill="#EFEDDF"/>
<path d="M41.9752 21.6294C41.7454 20.9805 41.7725 20.3047 41.7725 19.6423C41.7725 13.6271 41.7725 7.59847 41.7725 1.58329C41.7725 0.326183 41.7725 0.326172 43.0296 0.326172C45.706 0.326172 48.3824 0.326172 51.0588 0.326172C52.2078 0.326172 52.3159 0.474874 52.2619 1.54274C52.2348 2.16453 51.9104 2.28617 51.3832 2.28617C49.5449 2.27265 47.7065 2.28617 45.8817 2.28617C44.0569 2.28617 44.0028 2.28616 44.0028 4.13803C44.0028 5.65196 44.0028 7.16592 44.0028 8.67985C44.0028 9.58551 44.0163 9.59901 44.976 9.59901C46.9631 9.59901 48.9501 9.63955 50.9372 9.58548C51.6806 9.57197 51.8293 9.84234 51.8293 10.5047C51.8293 11.167 51.6941 11.4509 50.9372 11.4374C48.9096 11.3833 46.882 11.4374 44.8544 11.4103C44.2326 11.4103 43.9622 11.559 43.9758 12.2214C44.0163 14.3436 44.0163 16.4658 43.9758 18.588C43.9758 19.2503 44.2326 19.4126 44.8544 19.4126C47.0712 19.3855 49.2881 19.4126 51.5049 19.4126C52.5052 19.4126 52.5052 19.4125 52.5187 20.3993C52.5187 20.8183 52.5187 21.2239 52.5187 21.6429H41.9617L41.9752 21.6294Z" fill="#EFEDDF"/>
<path d="M229.46 21.629C228.838 21.629 228.23 21.5344 227.635 21.3317C227.432 21.2641 227.216 21.2506 227.026 21.1695C224.526 20.2503 223.012 18.5201 222.512 15.9247C222.35 15.0596 222.295 14.2081 222.295 13.3295C222.295 9.39593 222.295 5.44889 222.295 1.51536C222.295 1.16391 222.079 0.663769 222.552 0.515079C223.052 0.352872 223.62 0.366389 224.134 0.515079C224.485 0.623217 224.364 1.04226 224.364 1.32612C224.364 3.29964 224.364 5.25964 224.364 7.23316C224.364 9.31482 224.364 11.3965 224.364 13.4781C224.364 14.3162 224.472 15.1408 224.688 15.9383C225.567 19.3176 228.54 20.1692 231.163 19.6961C234.164 19.1554 235.475 17.1278 235.542 13.8161C235.61 9.80143 235.556 5.78682 235.556 1.77219C235.556 1.50185 235.556 1.24503 235.556 0.974681C235.556 0.542129 235.799 0.40695 236.259 0.461019C236.516 0.488053 236.772 0.488053 237.029 0.461019C237.448 0.420467 237.624 0.596192 237.624 0.947641C237.624 1.33964 237.638 1.73164 237.624 2.12364C237.408 5.88143 237.34 9.63923 237.624 13.397C237.719 14.7217 237.57 16.0194 237.097 17.2224C236.232 19.4257 234.556 20.7504 232.285 21.3587C232.163 21.3993 232.028 21.3722 231.906 21.4128C231.406 21.575 230.879 21.602 230.352 21.602H229.46V21.629Z" fill="#EFEDDF"/>
<path d="M247.316 6.39571C247.316 7.49061 247.343 8.58551 247.316 9.69393C247.303 10.2617 247.465 10.505 248.087 10.4914C249.074 10.4644 250.06 10.4103 251.047 10.3022C253.697 10.0183 255.062 8.53143 254.873 5.9226C254.697 3.54356 253.021 2.21887 251.142 2.28645C250.114 2.31349 249.074 2.31349 248.046 2.28645C247.492 2.27294 247.316 2.47571 247.316 3.0164C247.343 4.15185 247.316 5.28728 247.316 6.42273M256.941 6.31461C256.941 7.19323 256.792 8.07186 256.427 8.85586C256.427 8.85586 256.427 8.85583 256.427 8.86935C255.535 10.7347 253.967 11.6809 251.993 12.0865C250.79 12.3433 249.56 12.2757 248.344 12.2892C247.316 12.2892 247.303 12.2892 247.303 13.3571C247.303 15.7091 247.303 18.0476 247.303 20.3996C247.303 20.6699 247.438 21.1025 247.019 21.1566C246.465 21.2377 245.87 21.3593 245.356 21.0619C245.154 20.9403 245.235 20.6429 245.235 20.4266C245.235 19.4804 245.235 18.5342 245.235 17.588C245.235 12.2487 245.235 6.90937 245.235 1.58357C245.235 0.475155 245.235 0.461635 246.343 0.461635C248.141 0.461635 249.939 0.380523 251.723 0.515695C254.075 0.691419 255.913 1.90796 256.616 4.13831C256.657 4.27348 256.643 4.4357 256.697 4.57087C256.873 5.12508 256.927 5.73337 256.927 6.31461H256.941Z" fill="#EFEDDF"/>
<path d="M134.663 12.4235C134.663 15.1134 134.636 17.7899 134.676 20.4798C134.676 21.1286 134.474 21.3314 133.838 21.3043C133 21.2638 132.162 21.3043 131.311 21.3043C130.405 21.3043 130.391 21.2908 130.391 20.3311C130.391 15.2621 130.391 10.1931 130.391 5.12417C130.391 3.44803 130.608 3.7319 128.918 3.70487C127.661 3.69135 126.404 3.67784 125.133 3.70487C124.579 3.70487 124.268 3.61022 124.336 2.9614C124.39 2.39367 124.39 1.82595 124.336 1.25823C124.255 0.541814 124.538 0.366098 125.241 0.379615C128.337 0.420167 131.432 0.393125 134.514 0.393125C136.19 0.393125 137.88 0.393125 139.556 0.393125C140.322 0.393125 140.705 0.789638 140.705 1.58265C140.705 2.06927 140.678 2.56941 140.705 3.05603C140.732 3.54265 140.556 3.71839 140.056 3.70487C138.569 3.67784 137.082 3.69135 135.582 3.70487C134.649 3.70487 134.649 3.70485 134.649 4.6105C134.649 7.21933 134.649 9.82818 134.649 12.437" fill="#EFEDDF"/>
<path d="M181.716 5.88169C181.716 6.89549 181.729 7.92281 181.716 8.93661C181.716 9.42323 181.878 9.61246 182.378 9.59894C183.257 9.57191 184.135 9.63949 185 9.55839C186.068 9.46377 187.096 9.17992 187.947 8.47703C189.191 7.4362 189.434 6.12503 189.056 4.59758C188.718 3.23234 187.744 2.55646 186.487 2.36722C185.176 2.16446 183.838 2.19148 182.513 2.1239C181.919 2.08335 181.702 2.36722 181.716 2.93494C181.743 3.90818 181.716 4.89493 181.716 5.88169ZM186.744 10.6127C188.001 10.9777 188.65 11.6671 189.069 12.6133C190.218 15.2086 191.381 17.7904 192.53 20.3857C192.854 21.1157 192.786 21.1832 191.948 21.2103C191.056 21.2463 190.434 20.8588 190.083 20.0478C189.218 18.0337 188.299 16.0332 187.474 14.0056C186.704 12.0996 185.365 11.2751 183.284 11.3968C181.459 11.5049 181.716 11.1805 181.702 12.9783C181.689 15.3978 181.702 17.831 181.702 20.2505C181.702 20.5614 181.878 21.0346 181.459 21.1427C180.918 21.2779 180.296 21.359 179.783 21.0886C179.472 20.9129 179.634 20.4533 179.634 20.1289C179.634 15.9656 179.634 11.8023 179.634 7.63896C179.634 5.59786 179.634 3.55674 179.634 1.50212C179.634 0.474803 179.634 0.46128 180.715 0.46128C182.581 0.46128 184.46 0.420734 186.339 0.488321C189.948 0.637011 192.246 3.93519 191.083 7.26044C190.407 9.20693 188.893 10.1802 186.744 10.5992" fill="#EFEDDF"/>
<path d="M6.19489 11.7207C6.19489 8.88203 6.19489 6.04339 6.19489 3.21829C6.19489 2.29911 6.18138 2.28559 5.24869 2.28559C3.76179 2.28559 2.27489 2.24504 0.787987 2.28559C0.0715726 2.31263 -0.0230508 1.96119 0.00398372 1.39347C0.0310182 0.879814 -0.0500737 0.447266 0.733927 0.447266C5.08648 0.4743 9.43903 0.4743 13.7916 0.447266C14.5891 0.447266 14.481 0.920351 14.4945 1.42049C14.508 1.93415 14.4674 2.29911 13.7916 2.28559C12.3723 2.24504 10.9665 2.28559 9.54717 2.28559C8.7091 2.28559 8.29007 2.68662 8.29007 3.48865C8.29007 8.9361 8.29007 14.3835 8.29007 19.8175C8.29007 20.0878 8.27655 20.3446 8.29007 20.615C8.31711 21.0475 8.11435 21.2503 7.6818 21.2233C7.53311 21.2233 7.37091 21.2233 7.22222 21.2233C6.22194 21.2233 6.20842 21.2233 6.20842 20.2365C6.20842 17.3979 6.20842 14.5593 6.20842 11.7342" fill="#EFEDDF"/>
</g>
<defs>
<clipPath id="clip0_1948_3462">
<rect width="257" height="22" fill="white"/>
</clipPath>
</defs>
</svg>
