<svg width="172" height="37" viewBox="0 0 172 37" fill="none" xmlns="http://www.w3.org/2000/svg">
<path d="M10.0685 25.3662V19.4407H3.1055V25.3662H0V10.8484H3.1055V16.5441H10.0685V10.8484H13.174V25.3592H10.0685V25.3662ZM38.763 20.7219H42.2863L40.5873 17.0315H40.4411L38.763 20.7219ZM44.3056 25.3662L43.282 23.1172H37.7603L37.266 24.2103L36.7437 25.3662H33.3876L40.4829 10.7926H40.5734L47.6757 25.3662H44.3125H44.3056ZM54.1373 17.0802H57.3542C58.2525 17.0802 59.0393 16.2586 59.0393 15.3186C59.0393 14.3786 58.2664 13.6405 57.3542 13.6405H54.1373V17.0872V17.0802ZM59.2273 25.3662L56.0104 19.5382H54.1373V25.3662H51.2059V10.8553H57.6258C60.0768 10.8553 62.0682 12.8328 62.0682 15.2559C62.0682 17.0315 60.9123 18.6051 59.0462 19.3502L58.9418 19.392L62.3119 25.3592H59.2273V25.3662ZM66.2599 25.3662V10.8484H76.3562V13.745H69.3445V16.5441H74.713V19.4407H69.3445V22.4766H76.3562V25.3732H66.2599V25.3662ZM145.938 25.3801V10.8762H149.043V16.565H153.931V19.4616H149.043V25.3801H145.938ZM155.769 25.3801V10.8762H158.847V25.3801H155.769ZM160.692 25.3801V22.3025H163.763V25.3801H160.692ZM86.4456 25.3801V10.8692H89.5233V22.5114H96.5698V25.3871H86.4456V25.3801ZM100.574 25.3801V10.8623H110.67V13.7589H103.658V16.558H109.027V19.4546H103.658V22.4835H110.67V25.3801H100.574ZM119.652 20.7288H123.182L121.483 17.0315H121.337L119.659 20.7288H119.652ZM125.209 25.3801L124.185 23.1241H118.649L117.626 25.3801H114.263L121.372 10.7718H121.456L128.572 25.3801H125.202H125.209ZM24.3148 13.6405C21.8569 13.6405 19.8654 15.6389 19.8654 18.0899C19.8654 20.5408 21.8638 22.5392 24.3148 22.5392C26.7658 22.5392 28.7642 20.5408 28.7642 18.0899C28.7642 15.6389 26.7658 13.6405 24.3148 13.6405ZM24.3009 25.4358C22.3303 25.4358 20.4851 24.6769 19.1134 23.3052C17.7348 21.9265 16.9758 20.0883 16.9758 18.1108C16.9758 16.1333 17.7348 14.2811 19.1134 12.8955C20.4921 11.5098 22.3303 10.7439 24.3009 10.7439C26.2714 10.7439 28.1236 11.5098 29.5022 12.8955C30.8809 14.2811 31.6468 16.1333 31.6468 18.1108C31.6468 20.0883 30.8809 21.9265 29.5022 23.3052C28.1236 24.6769 26.2784 25.4358 24.3009 25.4358ZM153.875 2.54149C145.283 2.54149 138.292 9.53235 138.292 18.1247C138.292 26.717 145.283 33.7079 153.875 33.7079C162.468 33.7079 169.459 26.717 169.459 18.1247C169.459 9.53235 162.468 2.54149 153.875 2.54149ZM153.875 36.2563C143.876 36.2563 135.744 28.1236 135.744 18.1317C135.744 8.13975 143.876 0 153.875 0C163.874 0 172 8.13278 172 18.1317C172 28.1305 163.867 36.2563 153.875 36.2563Z" fill="#001D47"/>
</svg>
