<svg width="194" height="31" viewBox="0 0 194 31" fill="none" xmlns="http://www.w3.org/2000/svg">
<path d="M11.2491 0.504639C11.818 0.933994 12.5157 0.826655 13.1598 0.955462C15.5105 1.40629 17.7002 2.24353 19.5679 3.76774C20.9203 4.87333 22.0259 6.15066 22.2298 7.98616C22.4874 10.2832 21.5859 12.3119 19.3425 13.3209C17.829 13.9971 16.2511 14.3836 14.5766 14.3728C14.1365 14.3728 13.6857 14.3728 13.192 14.3728C13.3423 15.3603 13.8037 16.1546 14.1579 16.9919C14.8878 18.6878 15.9291 20.2013 17.0776 21.6289C18.5375 23.4537 20.1261 25.1496 21.9079 26.6739C23.4643 27.9941 25.3105 28.6918 27.2319 29.2285C27.8222 29.3895 28.4126 29.5613 28.9922 29.7223C28.9815 29.8511 28.9815 29.937 28.8849 29.9477C26.8455 30.1516 24.8383 30.1838 22.8525 29.5505C20.7594 28.885 18.9131 27.7902 17.1635 26.5236C13.6213 23.9689 10.852 20.7273 8.63009 17.0134C8.09339 16.1224 7.49221 15.2745 6.93405 14.3943C5.76405 12.5588 4.01449 11.7215 1.89992 11.5176C1.27735 11.4532 0.665501 11.4103 0 11.3566C0.161008 11.0024 0.493696 11.0238 0.740575 10.9487C2.37213 10.4979 4.05736 10.3369 5.72111 10.09C6.15047 10.0256 6.55838 10.1866 6.95554 10.3261C8.37241 10.8092 9.80007 11.1956 11.3028 11.2922C13.353 11.4103 15.0596 10.6911 16.3692 9.14542C17.3245 8.01836 17.1419 5.34562 16.0256 4.14343C14.7912 2.81242 13.2886 1.95371 11.5712 1.41702C10.4441 1.0628 9.28483 0.815922 8.0719 0.794454C8.15777 0.676381 8.21137 0.59051 8.26504 0.526107H11.2491V0.504639Z" fill="#133358"/>
<path d="M191.569 15.8864C191.601 14.9204 191.483 13.9651 191.118 13.0527C190.646 11.8612 189.84 11.0562 188.499 10.9166C187.028 10.7556 185.869 11.2816 185.225 12.6018C184.141 14.8023 184.119 17.0457 185.268 19.2461C185.901 20.4591 186.964 21.0065 188.348 20.8991C189.712 20.7918 190.592 20.0404 191.086 18.8168C191.472 17.8829 191.601 16.9061 191.569 15.8971M193.2 17.6146C192.9 17.7648 192.964 18.0761 192.889 18.3123C192.47 19.7399 191.783 20.9635 190.388 21.6612C188.338 22.6917 186.116 22.155 184.774 20.3302C184.72 20.2551 184.688 20.1478 184.452 20.18V26.7598C183.479 26.86 182.992 26.4808 182.992 25.6221V10.7664C182.992 10.5946 182.992 10.4229 182.992 10.2511C182.992 10.015 183.067 9.87544 183.336 9.88618C183.411 9.88618 183.486 9.88618 183.561 9.88618C184.42 9.86471 184.42 9.86471 184.398 10.7127C184.398 11.0991 184.398 11.4855 184.398 11.9041C184.645 11.8183 184.71 11.5929 184.817 11.4104C186.491 8.74838 190.967 9.20994 192.277 11.8075C192.578 12.4086 192.803 13.0312 192.964 13.686C193.007 13.8577 192.932 14.1046 193.179 14.1905V17.6146H193.2Z" fill="#133358"/>
<path d="M97.7309 10.0256C97.7309 10.5945 97.7309 11.1634 97.7309 11.7323C97.7309 11.9147 97.7416 12.0972 97.9885 12.0865C98.976 12.0757 99.985 12.2046 100.94 11.8396C101.842 11.4961 102.239 10.9058 102.207 9.96117C102.175 9.02732 101.724 8.49063 100.769 8.22228C99.8669 7.96467 98.9437 8.08274 98.0206 8.06127C97.7308 8.06127 97.7202 8.25448 97.7202 8.45843C97.7202 8.98439 97.7202 9.49961 97.7202 10.0256M97.7309 16.8631C97.7309 17.5286 97.7309 18.1941 97.7309 18.8596C97.7309 19.0635 97.7308 19.2674 98.0206 19.2674C99.1262 19.2352 100.253 19.4177 101.327 18.9776C102.25 18.6019 102.701 17.9686 102.701 16.9919C102.701 15.6931 102.003 14.888 100.693 14.6519C99.8561 14.5016 99.0189 14.5338 98.1709 14.5231C97.7845 14.5231 97.7202 14.6948 97.7202 15.0168C97.7309 15.6394 97.7202 16.2512 97.7202 16.8631M102.325 13.3853C103.194 13.5785 103.914 13.7824 104.515 14.244C105.953 15.3174 106.307 17.0026 105.706 18.8596C105.255 20.255 104.203 21.0278 102.872 21.4786C102.035 21.7577 101.176 21.8543 100.307 21.865C98.5681 21.8865 96.8292 21.8758 95.0903 21.865C94.4892 21.865 94.4785 21.865 94.4785 21.2532C94.4785 16.2298 94.4785 11.1956 94.4785 6.17211C94.4785 5.52808 94.4785 5.52808 95.1333 5.52808C96.9688 5.52808 98.815 5.52808 100.65 5.52808C101.509 5.52808 102.336 5.67835 103.119 6.00037C104.708 6.6444 105.524 7.9432 105.502 9.74649C105.47 11.3244 104.579 12.548 103.044 13.1277C102.862 13.1921 102.679 13.2565 102.325 13.3853Z" fill="#133358"/>
<path d="M124.439 15.736C124.406 16.6698 124.546 17.5608 124.965 18.398C125.845 20.1906 128.314 20.1047 129.162 18.5697C130.171 16.7343 130.203 14.8558 129.108 13.0633C128.099 11.4102 125.813 11.5713 124.933 13.2887C124.546 14.0615 124.417 14.888 124.439 15.736ZM129.999 21.8758V20.6843C129.838 20.6199 129.773 20.7058 129.698 20.7702C127.004 23.3034 122.861 22.3588 121.637 18.881C120.907 16.8094 120.918 14.6841 121.669 12.6124C122.861 9.32787 126.94 8.40475 129.484 10.7984C129.57 10.8843 129.612 11.0131 129.698 11.1634C129.945 10.8843 129.892 10.6803 129.892 10.5086C129.892 8.63017 129.892 6.741 129.892 4.86257C129.892 4.27221 129.892 4.26147 130.514 4.26147C131.158 4.26147 131.802 4.26147 132.457 4.26147C133.047 4.26147 133.058 4.27221 133.058 4.89477C133.058 5.68908 133.058 6.48339 133.058 7.2777C133.058 11.8825 133.058 16.4981 133.058 21.1029C133.058 21.8758 133.058 21.8758 132.296 21.8758C131.555 21.8758 130.815 21.8758 129.988 21.8758" fill="#133358"/>
<path d="M144.275 14.405C144.146 13.4748 144.511 13.0096 145.369 13.0096C146.593 13.0096 147.806 13.0204 149.03 13.0096C149.427 13.0096 149.599 13.0955 149.599 13.5356C149.577 15.9185 149.588 18.3014 149.599 20.6736C149.599 20.9742 149.556 21.1889 149.234 21.3069C146.636 22.2408 143.995 22.5091 141.344 21.6397C139.068 20.8883 137.555 19.3104 136.772 17.067C136.042 14.9739 136.009 12.8272 136.664 10.7019C137.684 7.38508 140.303 5.43151 143.942 5.2061C145.337 5.12023 146.722 5.29197 148.074 5.65693C148.911 5.89307 148.922 5.91454 148.793 6.79472C148.772 6.96646 148.729 7.12747 148.675 7.37435C147.795 7.02013 146.937 6.75178 146.024 6.66591C144.929 6.55857 143.834 6.51563 142.761 6.77325C140.26 7.36361 138.757 8.96296 138.103 11.3888C137.684 12.9238 137.716 14.4802 138.103 16.0259C138.822 18.8596 141.001 20.5985 143.985 20.7273C145.133 20.781 146.271 20.7058 147.387 20.416C147.784 20.3087 147.999 20.1262 147.988 19.6432C147.945 18.0868 147.956 16.5196 147.988 14.9525C147.988 14.4802 147.838 14.3621 147.387 14.3728C146.346 14.405 145.305 14.3728 144.275 14.3728" fill="#133358"/>
<path d="M32.321 12.7199C33.1475 12.7199 33.8667 12.7521 34.5859 12.7199C35.4124 12.677 36.2067 12.4731 36.9152 12.0222C37.9134 11.3889 38.3427 10.2726 38.0959 8.96308C37.8919 7.88969 37.2265 7.26712 36.0135 7.03098C34.908 6.8163 33.7808 6.89144 32.6644 6.8807C32.4176 6.8807 32.3103 6.97731 32.3103 7.22419C32.3103 9.02748 32.3103 10.8308 32.3103 12.7199M32.3103 14.2334C32.3103 16.4983 32.3103 18.7309 32.3103 20.9528C32.3103 21.994 32.4713 21.8652 31.4194 21.8759C30.7217 21.8759 30.7109 21.8759 30.7109 21.2104C30.7109 16.2084 30.7109 11.1957 30.7109 6.19373C30.7109 5.52823 30.7109 5.5175 31.3442 5.52823C32.8899 5.53897 34.4356 5.4531 35.9706 5.57117C37.9456 5.73218 39.2443 6.80557 39.6415 8.51225C40.1138 10.5732 39.4161 12.7521 36.4321 13.5035C36.4321 13.6967 36.6253 13.6967 36.7326 13.7289C37.2586 13.9114 37.6236 14.2871 37.849 14.7701C38.9009 17.0886 39.9421 19.4179 41.0262 21.8223C40.468 21.9403 39.9851 21.8759 39.5021 21.8759C39.1693 21.8759 39.1478 21.5754 39.0512 21.3607C38.3535 19.7506 37.6021 18.1513 36.9795 16.509C36.3355 14.8023 35.2513 13.9007 33.3514 14.1583C33.0831 14.1905 32.804 14.1583 32.5356 14.169C32.4927 14.169 32.4498 14.1905 32.321 14.2334" fill="#133358"/>
<path d="M55.849 15.8757C55.849 16.9491 55.9992 17.9903 56.493 18.967C57.1263 20.2336 58.1031 20.9528 59.5629 20.8991C61.0227 20.8455 61.9994 20.0834 62.4825 18.7631C63.1909 16.8095 63.191 14.8238 62.4289 12.8917C61.9566 11.7002 61.0549 10.9918 59.7132 10.9059C58.2212 10.7985 57.18 11.4318 56.5038 12.7306C55.9885 13.7182 55.8383 14.7916 55.849 15.8971M55.9456 11.6573C56.2246 11.3352 56.45 11.024 56.7291 10.7556C58.8759 8.74838 62.6005 9.40314 63.8027 12.0651C64.8976 14.5017 64.9083 17.0349 63.8027 19.4823C62.8152 21.6827 60.5182 22.6273 58.1997 21.9403C57.2229 21.6505 56.5252 21.0172 55.849 20.1907C55.849 20.5664 55.8275 20.9421 55.849 21.307C55.8812 21.7256 55.7417 21.8974 55.3016 21.8544C55.0332 21.8222 54.7648 21.8544 54.5394 21.8544C54.3032 21.6505 54.3785 21.4358 54.3785 21.2534C54.3785 15.8005 54.3785 10.3585 54.3785 4.90564C54.3785 4.68023 54.2281 4.33675 54.5716 4.27234C54.958 4.20794 55.3766 4.14354 55.7416 4.31528C55.9348 4.40115 55.8275 4.68023 55.8275 4.87344C55.8275 6.88068 55.8275 8.88792 55.8275 10.8952C55.8275 11.1313 55.7631 11.3782 55.9133 11.6465" fill="#133358"/>
<path d="M167.664 15.8542C167.696 14.7808 167.46 13.7074 166.901 12.6984C165.56 10.2833 162.018 10.3477 160.633 12.43C159.441 14.2226 159.366 17.4535 160.568 19.2246C162.114 21.5216 165.42 21.468 166.88 19.1065C167.481 18.1297 167.685 17.0349 167.664 15.8434M158.121 15.9186C158.121 14.2119 158.497 12.634 159.635 11.2923C161.696 8.87713 167.009 8.81273 168.651 12.7091C169.563 14.8666 169.553 17.0564 168.576 19.1924C167.814 20.8561 166.483 21.8115 164.68 22.0583C161.019 22.5521 158.518 20.4805 158.132 16.6485C158.11 16.4016 158.132 16.1547 158.132 15.9078" fill="#133358"/>
<path d="M51.0062 15.9293C51.0062 14.4051 50.6627 13.2888 50.0079 12.3442C48.6769 10.4335 45.5855 10.4443 44.2116 12.1402C42.6981 14.0079 42.623 17.636 44.115 19.5251C45.7895 21.6397 49.117 21.2962 50.3514 18.8811C50.8345 17.9365 51.0384 16.9168 50.9954 15.94M52.5948 15.8971C52.6163 17.314 52.3265 18.6557 51.5536 19.8579C50.9525 20.781 50.1367 21.4358 49.0848 21.8115C45.768 23.0029 42.6015 21.3714 41.6891 17.9795C41.2383 16.305 41.3242 14.6305 41.936 13.0097C42.8054 10.7234 44.92 9.45677 47.421 9.62851C50.6626 9.86465 52.2835 12.1295 52.584 15.0813C52.6162 15.3497 52.584 15.6287 52.584 15.8971" fill="#133358"/>
<path d="M116.379 11.9578C116.658 11.3459 117.033 10.7985 117.527 10.3477C118.279 9.64999 119.169 9.46752 120.146 9.55339C120.393 9.57485 120.49 9.68219 120.49 9.92907C120.49 10.82 120.49 11.7002 120.49 12.6877C120.007 12.5696 119.577 12.5374 119.137 12.5267C118.085 12.5052 117.398 12.999 117.001 13.9435C116.658 14.7593 116.561 15.618 116.55 16.4875C116.55 18.0976 116.529 19.7076 116.55 21.3177C116.55 21.79 116.411 21.9188 115.96 21.8974C115.316 21.8652 114.672 21.8974 114.017 21.8866C113.416 21.8866 113.405 21.8866 113.405 21.2641C113.405 17.9258 113.405 14.5768 113.405 11.2386C113.405 10.9166 113.416 10.5946 113.405 10.2726C113.384 9.93981 113.47 9.76807 113.856 9.7788C114.479 9.80027 115.101 9.80027 115.724 9.7788C116.078 9.76807 116.218 9.90761 116.207 10.2511C116.185 10.82 116.207 11.3781 116.207 11.947C116.261 11.947 116.325 11.9578 116.379 11.9685" fill="#133358"/>
<path d="M67.688 15.0706C69.8455 15.0706 71.8743 15.0706 73.9137 15.0706C74.2572 15.0706 74.3216 14.9096 74.3109 14.6091C74.2679 13.9114 74.1285 13.2459 73.8494 12.6018C73.0336 10.7234 71.0692 10.5087 69.7382 11.2708C68.3106 12.0759 67.7739 13.4069 67.6988 15.0706M74.9871 20.1477C75.0945 21.7793 75.1804 21.5002 73.8387 21.8652C72.7545 22.1657 71.6381 22.2409 70.511 22.0798C68.6541 21.8222 67.3017 20.8884 66.6576 19.1066C65.8526 16.8739 65.8419 14.6305 66.8509 12.4515C67.8384 10.294 69.9314 9.26358 72.2607 9.73588C73.7742 10.0472 74.7724 10.981 75.3628 12.3657C75.8136 13.4283 75.9425 14.5554 75.9532 15.7039C75.9532 16.1655 75.8136 16.2943 75.3628 16.2835C73.1194 16.2621 70.876 16.2835 68.6434 16.2835H67.8491C67.409 18.4625 69.0728 20.6844 71.2625 20.8776C72.3252 20.9743 73.3341 20.7059 74.3324 20.3624C74.5363 20.2873 74.7188 20.137 75.0194 20.137" fill="#133358"/>
<path d="M180.62 21.8008C180.556 21.8222 180.491 21.8652 180.416 21.8652C179.665 21.9224 179.289 21.5718 179.289 20.8132V19.9975C178.956 20.1048 178.913 20.3409 178.795 20.5127C177.657 22.1013 176.037 22.3482 174.276 22.0476C172.709 21.7793 171.732 20.6952 171.4 19.0207C171.314 18.6021 171.26 18.1942 171.26 17.7648C171.26 15.3604 171.26 12.956 171.26 10.5516C171.26 10.3262 171.11 9.98274 171.464 9.91834C171.84 9.85394 172.269 9.78954 172.634 9.96128C172.827 10.0579 172.72 10.3262 172.72 10.5194C172.72 12.7306 172.72 14.9311 172.72 17.1422C172.72 17.5931 172.741 18.0332 172.827 18.4732C173.042 19.6003 173.525 20.5127 174.727 20.7918C176.026 21.0923 177.207 20.8347 178.119 19.8043C178.57 19.289 178.838 18.6665 178.967 18.0117C179.074 17.475 179.15 16.9383 179.139 16.3909C179.128 14.4588 179.139 12.5267 179.139 10.5946C179.139 9.90761 179.139 9.90761 179.826 9.89687C180.341 9.89687 180.602 10.1473 180.609 10.6482C180.631 14.3192 180.556 17.9902 180.652 21.6505C180.652 21.6934 180.62 21.7471 180.599 21.8008" fill="#133358"/>
<path d="M107.961 15.8327C107.961 14.0509 107.961 12.2583 107.961 10.4765C107.961 9.77881 107.961 9.77881 108.659 9.77881C109.26 9.77881 109.85 9.77881 110.451 9.77881C111.052 9.77881 111.063 9.77881 111.063 10.4014C111.063 13.2566 111.063 16.1011 111.063 18.9563C111.063 19.7721 111.052 20.5878 111.063 21.4143C111.063 21.7578 110.967 21.9081 110.602 21.8974C109.936 21.8759 109.26 21.8974 108.584 21.8974C107.972 21.8974 107.961 21.8866 107.961 21.2855C107.961 19.4715 107.961 17.6682 107.961 15.8542" fill="#133358"/>
<path d="M86.3962 9.88593C86.3962 9.04868 86.4177 8.32951 86.3962 7.61034C86.3747 7.18099 86.4821 6.90191 86.9436 6.81603C87.2335 6.76237 87.4911 6.57989 87.8667 6.60136C87.8667 7.503 87.8667 8.38318 87.8667 9.2741C87.8667 9.87519 87.8667 9.87519 88.4785 9.87519C89.0259 9.87519 89.5734 9.89666 90.1208 9.87519C90.4858 9.85372 90.6254 9.99327 90.5824 10.3475C90.5502 10.5944 90.6253 10.8412 90.518 11.1096C89.8632 11.2169 89.1977 11.1418 88.5322 11.1525C87.8775 11.174 87.8667 11.1525 87.8667 11.7858C87.8667 14.1151 87.8667 16.4443 87.8667 18.7736C87.8667 18.8702 87.8667 18.9668 87.8667 19.0741C87.9741 20.5339 88.7255 21.1136 90.1531 20.8238C90.3463 20.7808 90.5288 20.695 90.7435 20.7379C90.7757 20.7701 90.8293 20.8023 90.8293 20.8452C90.9688 21.8864 90.9474 21.9079 89.9277 22.0796C89.8311 22.0904 89.7344 22.1118 89.6271 22.1226C88.017 22.2406 86.6539 21.9293 86.4499 19.6967C86.407 19.2244 86.3855 18.7628 86.3855 18.2906C86.3855 16.1116 86.3747 13.9326 86.3855 11.7536C86.3855 11.3135 86.2996 11.1096 85.8165 11.1633C85.3764 11.2062 84.9256 11.1633 84.4748 11.174C84.1742 11.174 83.9919 11.0989 84.0241 10.7554C84.0348 10.6051 84.0348 10.4548 84.0241 10.3045C83.9919 9.98253 84.1313 9.86446 84.4533 9.87519C85.0651 9.89666 85.6877 9.87519 86.3747 9.87519" fill="#133358"/>
<path d="M77.4238 21.747V9.95047C77.4238 9.95047 77.4882 9.8968 77.5526 9.8968C78.3827 9.84671 78.7978 10.2331 78.7978 11.0561V11.8933C79.1413 11.9255 79.1197 11.625 79.227 11.4639C79.7852 10.573 80.44 9.83239 81.5671 9.67138C81.5886 9.67138 81.6207 9.66065 81.6422 9.66065C82.8014 9.48891 83.0055 9.66065 82.9733 10.8092C82.9733 10.9272 82.9947 11.0561 82.8873 11.1956C82.6727 11.2707 82.4258 11.1956 82.1896 11.1849C80.9552 11.0883 80.0858 11.6142 79.5384 12.7198C79.0446 13.7288 78.9051 14.8022 78.9051 15.897C78.9051 17.6359 78.9051 19.3641 78.9051 21.103C78.9051 21.9295 79.0124 21.8865 78.0893 21.8865C77.8961 21.8865 77.6922 21.9402 77.4346 21.7685" fill="#133358"/>
<path d="M152.121 9.92894C153.03 9.85738 153.484 10.2474 153.484 11.0989V11.9576C153.817 11.8825 153.838 11.6034 153.957 11.421C154.493 10.5408 155.17 9.8538 156.232 9.67133C157.553 9.43518 157.767 9.67133 157.595 11.1633C157.391 11.2921 157.166 11.1955 156.951 11.1848C155.577 11.0989 154.751 11.5927 154.171 12.8486C153.753 13.7609 153.602 14.7377 153.602 15.736C153.602 17.5393 153.602 19.3533 153.602 21.1566C153.602 21.8758 153.602 21.8758 152.873 21.8758H152.121V9.92894Z" fill="#133358"/>
<path d="M109.508 7.52454C109.111 7.52454 108.713 7.52454 108.316 7.52454C108.069 7.52454 107.951 7.42793 107.951 7.17032C107.951 6.40821 107.951 5.63537 107.951 4.87327C107.951 4.62639 108.08 4.52979 108.327 4.52979C109.121 4.52979 109.916 4.52979 110.71 4.52979C110.967 4.52979 111.064 4.63712 111.064 4.884C111.064 5.64611 111.064 6.41895 111.064 7.18105C111.064 7.4494 110.935 7.5138 110.699 7.5138C110.302 7.5138 109.905 7.5138 109.508 7.5138" fill="#133358"/>
</svg>
