<svg width="28" height="22" viewBox="0 0 28 22" fill="none" xmlns="http://www.w3.org/2000/svg">
<path d="M14.3897 18.2049C11.0636 18.2049 8.29424 16.0649 7.55666 12.655H21.2088C20.4851 16.0791 17.7018 18.2049 14.3757 18.2049M14.3897 3.79507C17.66 3.79507 20.4155 6.49157 21.1809 9.2166H7.58449C8.3499 6.4773 11.1054 3.79507 14.3757 3.79507M28 9.23087H24.9662C24.1451 4.43709 19.7197 0 14.3897 0C9.05964 0 4.64811 4.43709 3.81312 9.23087H0V12.655H3.79921C4.57853 18.1193 9.03181 22 14.3897 22C19.7475 22 24.2147 18.1193 24.9801 12.655H28V9.23087Z" fill="#68CCB2"/>
</svg>
