<svg width="164" height="61" viewBox="0 0 164 61" fill="none" xmlns="http://www.w3.org/2000/svg">
<g clip-path="url(#clip0_1814_3090)">
<path d="M126.598 9.63567C125.715 8.65451 124.227 7.72366 122.437 7.72366C116.687 7.72366 114.795 12.8559 114.795 17.6863C114.795 22.1896 116.762 26.6426 122.184 26.6426C123.672 26.6426 125.412 25.7872 125.967 24.8563V26.4161C125.967 29.2087 125.74 30.5421 122.109 30.5421C120.369 30.5421 118.326 29.9131 116.535 28.9823L115.35 32.3283C117.696 33.4856 119.915 34.19 122.361 34.19C124.252 34.19 126.926 33.8881 128.64 32.4038C130.456 30.9194 130.532 28.2778 130.532 25.7117L130.557 7.67334L126.951 8.25198C126.951 8.20166 126.673 9.23314 126.598 9.63567ZM125.967 19.07C125.967 19.9253 125.892 20.7807 125.564 21.4851C125.16 22.3405 124.379 22.894 123.37 22.894C120.47 22.894 120.142 20.8813 120.142 17.0573C120.142 13.6358 120.772 11.6232 123.294 11.6232C124.555 11.6232 125.488 12.2521 125.967 12.7804V19.07Z" fill="white"/>
<path d="M108.793 53.6875L108.818 47.4734C108.818 45.5614 108.743 44.9828 108.491 44.2029C107.785 42.1902 105.666 41.0078 102.514 41.0078C100.774 41.0078 99.2102 41.3097 97.3944 42.0896C96.3857 42.5173 95.4022 43.0708 94.4691 43.6243L96.2596 46.7942C98.4788 45.4105 100.219 44.857 101.782 44.857C103.598 44.857 104.027 45.6621 104.027 47.6747V48.3791H102.892C96.9909 48.3791 94.0151 50.3918 94.0151 54.6687C94.0151 57.9895 95.8309 60.0525 99.3111 60.3796H101.278C102.388 60.2538 103.321 59.9016 104.077 59.4235C104.481 59.1971 104.859 58.7946 105.263 58.3921C105.666 59.172 106.423 59.9016 107.28 60.3796L107.86 60.6563L108.112 60.3796L110.609 57.7128C108.97 56.48 108.793 55.5744 108.793 53.6875ZM101.354 56.9581C100.093 56.9581 99.2354 55.9517 99.2354 54.5429C99.2354 52.3541 100.345 51.5491 103.724 51.5491H104.002V55.8259C103.27 56.6058 102.287 56.9581 101.354 56.9581Z" fill="white"/>
<path d="M19.5949 1.48438H0V20.8813L9.8605 30.6678L29.4806 11.2709L19.5949 1.48438Z" fill="white"/>
<path d="M0 40.4545V59.8765H19.5949L29.4806 50.09L9.8605 30.668L0 40.4545Z" fill="white"/>
<path d="M39.3412 59.8765H58.8352V40.3035L49.1008 30.668L29.4807 50.09L39.3412 59.8765Z" fill="white"/>
<path d="M29.4807 11.2709L49.1008 30.6678L58.8352 21.0322V1.48438H39.3412L29.4807 11.2709Z" fill="white"/>
<path d="M162.56 23.1204C161.702 23.3468 161.299 23.5229 160.845 23.5229C159.18 23.5229 158.726 22.894 158.726 20.5543V11.3716H161.778L163.039 8.02553H158.726V2.96875L153.935 3.74865V8.02553H152.043V11.3716H153.935V21.3342C153.935 23.0449 153.935 23.3468 154.237 24.1519C154.792 25.7872 156.759 26.869 159.18 26.869C160.441 26.869 161.778 26.5671 163.19 26.0136L162.56 23.1204Z" fill="white"/>
<path d="M73.3862 13.3842L80.977 26.3909H87.3825L78.6821 13.0068L86.5251 1.48438H80.5483L73.3862 12.8558V1.48438H68.292V26.3909H73.3862V13.3842Z" fill="white"/>
<path d="M96.9155 11.7489C98.2521 11.7489 98.6303 12.6043 98.6303 14.6924V26.3658H103.346V13.0068C103.346 11.8244 103.271 11.0697 103.044 10.3652C102.489 8.80543 100.597 7.72363 98.5547 7.72363C97.4451 7.72363 96.2094 7.95006 95.251 8.50353C94.4693 8.90606 93.6875 9.50986 93.1327 10.2143L92.8301 7.77395L88.7446 8.42806V26.3909H93.6118V15.573C93.6118 14.2396 94.0153 13.3087 94.6458 12.7049C95.3519 12.076 96.1337 11.7489 96.9155 11.7489Z" fill="white"/>
<path d="M107.028 26.3907H111.92V7.64795L107.028 8.40269V26.3907Z" fill="white"/>
<path d="M144.251 7.57236C142.132 7.57236 140.317 8.35226 138.98 9.81143C138.98 9.58501 139.056 8.47805 139.056 7.94973V1.03125L134.113 1.83631V26.4158H139.056V16.2771C139.056 14.5663 139.283 13.5851 139.837 12.931C140.569 12.0757 141.804 11.5977 142.914 11.5977C144.326 11.5977 144.806 12.3776 144.806 14.0883V26.3906H149.521V13.56C149.521 11.7738 149.446 11.2203 149.042 10.214C148.487 8.57868 146.621 7.57236 144.251 7.57236Z" fill="white"/>
<path d="M109.5 0C107.835 0 106.499 1.33338 106.499 2.99381C106.499 4.65425 107.835 5.98763 109.5 5.98763C111.164 5.98763 112.501 4.65425 112.501 2.99381C112.501 1.35854 111.164 0 109.5 0Z" fill="white"/>
<path d="M68.2417 59.7505H73.1846V48.7061H79.6405V44.6808H73.1846V38.8441H81.2041L81.8346 34.8691H68.2417V59.7505Z" fill="white"/>
<path d="M86.9538 43.8002L86.4746 41.3095L82.5405 41.9385V59.7504H87.4077V48.3789C87.4077 47.4481 87.559 46.6682 88.1139 46.0644C88.593 45.5612 89.3748 45.209 90.2574 45.209C90.8122 45.209 91.4427 45.36 91.9219 45.5864L93.1576 41.3095C92.3758 41.0076 92.048 40.9321 91.3418 40.9321C89.5261 40.9321 87.7356 42.5674 86.9538 43.8002Z" fill="white"/>
<path d="M131.137 35.3473V59.7506H136.004V49.3352V34.5674L131.137 35.3473Z" fill="white"/>
<path d="M146.697 41.3853H140.796L136.004 49.3352L142.334 59.7507H148.034L140.72 49.1088L146.697 41.3853Z" fill="white"/>
<path d="M122.664 41.083C121.554 41.083 120.293 41.3094 119.36 41.8629C118.578 42.2654 117.796 42.8692 117.242 43.5737L116.939 41.1333L112.854 41.7874V59.7503H117.721V48.9323C117.721 47.599 118.124 46.6681 118.755 46.0392C119.461 45.4102 120.243 45.1083 121.024 45.1083C122.361 45.1083 122.764 45.9637 122.764 48.077V59.7503H127.48V46.3662C127.48 45.2089 127.405 44.429 127.178 43.7246C126.598 42.19 124.706 41.083 122.664 41.083Z" fill="white"/>
</g>
<defs>
<clipPath id="clip0_1814_3090">
<rect width="164" height="61" fill="white"/>
</clipPath>
</defs>
</svg>
