<svg width="161" height="141" viewBox="0 0 161 141" fill="none" xmlns="http://www.w3.org/2000/svg">
<path d="M129.349 87C129.338 96.4279 126.853 105.283 122.5 112.98C124.118 113.639 125.887 114 127.743 114C135.337 114 141.5 107.936 141.5 100.451C141.5 93.505 136.187 87.7795 129.349 87Z" fill="#EFEDDF"/>
<path d="M114.265 100.687C114.265 93.166 120.373 87.0628 127.912 87.0628C128.449 87.0628 128.98 87.0974 129.5 87.155C129.5 87.132 129.5 87.1089 129.5 87.0859C129.5 85.0284 129.379 82.9998 129.154 81H21.8464C21.6212 83.0056 21.5 85.0342 21.5 87.0916C21.5 116.864 45.677 141 75.5 141C95.8034 141 113.48 129.814 122.705 113.279C117.752 111.239 114.265 106.369 114.265 100.687Z" fill="#EFEDDF"/>
</svg>
