<svg width="161" height="141" viewBox="0 0 161 141" fill="none" xmlns="http://www.w3.org/2000/svg">
<g clip-path="url(#clip0_1814_3182)">
<path d="M95.3338 109.145V117.987H20.4444V109.145H11.5V141H104.278V109.145H95.3338Z" fill="#EFEDDF"/>
<path d="M95.3338 86.1318H20.4445V109.145H95.3338V86.1318Z" fill="#EFEDDF"/>
<path d="M149.5 99.9377C140.719 97.5078 131.695 101.756 127.82 109.553V97.0166C133.725 89.9308 133.131 79.3647 126.211 73C119.291 79.3647 118.697 89.9308 124.602 97.0166V102.817C121.531 96.5672 114.6 92.763 107.312 93.9649C108.096 102.77 115.826 109.265 124.602 108.675V120.176H116.283L119.264 141H133.157L136.138 120.176H127.82V114.543C137.805 116.398 147.518 109.929 149.5 99.9377Z" fill="#EFEDDF"/>
</g>
<defs>
<clipPath id="clip0_1814_3182">
<rect width="138" height="68" fill="white" transform="translate(11.5 73)"/>
</clipPath>
</defs>
</svg>
