<svg width="258" height="23" viewBox="0 0 258 23" fill="none" xmlns="http://www.w3.org/2000/svg">
<path d="M90.3566 22.1551C90.2619 21.8577 89.9916 21.9388 89.7889 21.8848C86.1392 20.8845 84.3549 18.8569 84.2468 15.072C84.1116 10.5708 84.2062 6.06954 84.1792 1.56829C84.1792 1.06815 84.3684 0.905961 84.8415 0.905961C85.7607 0.919478 86.6799 0.946513 87.5855 0.905961C88.302 0.865409 88.4912 1.12223 88.4777 1.81161C88.4507 5.44776 88.4642 9.0839 88.4642 12.7065C88.4642 13.6933 88.4777 14.6665 88.7345 15.6398C89.2887 17.7485 90.5864 18.8028 92.7221 18.8298C94.9254 18.8569 96.2096 17.9242 96.8313 15.7885C97.1287 14.7611 97.2098 13.7068 97.2098 12.6524C97.2098 9.05685 97.2098 5.46127 97.2098 1.86567C97.2098 0.919467 97.2098 0.919478 98.1155 0.905961C98.9941 0.905961 99.8727 0.919478 100.751 0.905961C101.238 0.892444 101.414 1.06816 101.414 1.55478C101.387 6.24527 101.454 10.9358 101.319 15.6263C101.224 18.7893 99.3591 20.871 96.2771 21.7496C95.8987 21.8577 95.4391 21.7631 95.1552 22.1416H90.3431L90.3566 22.1551Z" fill="#001D47"/>
<path d="M110.781 22.1548C110.105 21.6682 109.28 21.7358 108.523 21.506C108.104 21.3708 107.969 21.2086 108.01 20.8031C108.118 19.7893 108.212 18.7755 108.307 17.7617C108.658 17.5995 108.888 17.8563 109.145 17.9645C110.646 18.5998 112.187 18.9512 113.822 18.7755C114.606 18.6944 115.309 18.4376 115.917 17.951C117.08 17.0453 117.12 15.4773 116.039 14.4905C115.525 14.0309 114.903 13.7336 114.268 13.4767C113.146 13.0036 111.997 12.5981 110.916 12.0439C108.01 10.557 106.928 7.89412 107.915 4.78515C108.537 2.81163 109.943 1.6221 111.876 1.01383C114.403 0.229824 116.931 0.486641 119.445 1.10844C119.918 1.21657 120.04 1.47341 119.972 1.91948C119.851 2.81162 119.77 3.71728 119.648 4.69052C118.35 4.29852 117.12 3.89301 115.796 3.89301C115.106 3.89301 114.43 3.89301 113.768 4.14984C112.754 4.55536 112.187 5.27175 112.078 6.36665C111.957 7.47506 112.497 8.19148 113.417 8.65107C114.336 9.11066 115.295 9.47564 116.255 9.85413C117.039 10.165 117.796 10.5029 118.526 10.9355C120.621 12.1791 121.446 14.058 121.284 16.3965C121.108 18.8025 119.851 20.4787 117.607 21.4384C116.877 21.7493 116.066 21.7493 115.377 22.1413H110.794L110.781 22.1548Z" fill="#001D47"/>
<path d="M200.442 11.3816C200.347 13.4092 200.793 15.3016 201.794 17.0453C204.213 21.2627 210.174 21.4925 212.959 17.4914C215.243 14.2203 215.243 8.51595 212.972 5.25829C210.161 1.20312 204.159 1.44645 201.753 5.74494C200.766 7.50218 200.334 9.39457 200.442 11.3816ZM207.566 22.1549C206.714 22.1549 205.876 22.0332 205.038 21.898C205.011 21.898 204.984 21.8981 204.957 21.8846C202.023 21.1276 200.104 19.2487 199.131 16.4776C197.779 12.5847 197.792 8.70521 199.766 4.97444C201.28 2.1223 203.781 0.757058 206.984 0.581334C209.931 0.419127 212.472 1.32477 214.405 3.60919C215.784 5.25829 216.514 7.21833 216.703 9.29998C216.973 12.1386 216.811 14.9502 215.446 17.5725C214.257 19.8705 212.418 21.3033 209.904 21.9116C209.85 21.9251 209.796 21.9386 209.742 21.9386C209.052 22.0602 208.349 22.1414 207.647 22.1414H207.566V22.1549Z" fill="#001D47"/>
<path d="M165.879 22.155C165.081 22.155 164.284 22.0333 163.5 21.8576C163.135 21.7765 162.77 21.7359 162.418 21.6143C159.701 20.6951 157.701 19.0055 156.619 16.3561C155.268 13.0579 155.268 9.70557 156.619 6.43439C157.876 3.393 160.269 1.54115 163.5 0.851774C166.203 0.270531 168.893 0.500331 171.542 1.36544C171.745 1.43302 171.894 1.62227 171.907 1.83855C171.934 2.2711 171.84 2.7307 171.691 3.13621C171.583 3.46063 171.245 3.25785 171.002 3.16323C169.298 2.50089 167.528 2.31165 165.73 2.40627C161.729 2.60903 158.917 4.86642 158.012 8.88105C157.565 10.9086 157.633 12.9362 158.268 14.9233C159.35 18.3296 162.121 20.1544 165.649 20.3437C166.865 20.4112 168.082 20.3437 169.298 20.1139C170.556 19.8841 170.677 19.7624 170.677 18.5188C170.677 16.7751 170.677 15.0314 170.677 13.3012C170.677 12.1252 170.65 12.4631 168.582 12.3415C167.947 12.3009 167.311 12.3415 166.69 12.382C165.919 12.4496 165.797 12.0981 165.825 11.5034C165.852 11.0032 165.743 10.5301 166.541 10.5436C168.406 10.5842 170.285 10.5707 172.151 10.5436C172.799 10.5436 173.002 10.7734 172.867 11.7332C172.461 14.4366 172.475 17.1671 172.881 19.8705C172.989 20.6005 172.786 20.9384 172.245 21.1277C171.272 21.4656 170.312 21.8035 169.285 21.9252C169.217 21.9252 169.163 21.9252 169.096 21.9522C168.46 22.0604 167.839 22.155 167.203 22.155H165.865H165.879Z" fill="#001D47"/>
<path d="M20.3916 22.1549C20.1483 21.4656 20.2024 20.7627 20.2024 20.0462C20.2024 14.0716 20.2024 8.08348 20.2024 2.10885C20.2024 0.93285 20.8918 0.459748 22.0272 0.865266C22.4598 1.01396 22.4327 1.3654 22.4327 1.70333V6.01532C22.4327 7.11022 22.4598 8.20515 22.4327 9.30004C22.4057 9.96239 22.6761 10.1246 23.2978 10.1246C26.2716 10.0975 29.259 10.0975 32.2328 10.1246C32.9221 10.1246 33.0438 9.85424 33.0438 9.24596C33.0167 6.70472 33.0303 4.17698 33.0438 1.63574C33.0438 1.35188 32.9086 0.932845 33.3141 0.878776C33.8683 0.797672 34.4496 0.676014 34.9903 0.959876C35.166 1.0545 35.1119 1.29781 35.1119 1.48705C35.1119 1.97367 35.1119 2.47382 35.1119 2.96045V20.6681C35.1119 21.1547 35.1119 21.6413 35.1119 22.1279H33.0438C33.0438 21.6007 33.0438 21.0735 33.0438 20.5464C33.0438 17.9781 33.0303 15.4098 33.0438 12.8416C33.0438 12.2062 32.9627 11.8953 32.1922 11.8953C29.2184 11.9359 26.2446 11.9359 23.2573 11.8953C22.5814 11.8953 22.4327 12.1387 22.4327 12.7605C22.4598 15.18 22.4327 17.5996 22.4327 20.0192C22.4327 20.7221 22.4868 21.4385 22.2435 22.1279H20.4052L20.3916 22.1549Z" fill="#001D47"/>
<path d="M69.7156 22.1549C68.837 21.9116 68.6612 21.2898 68.7423 20.4653C68.8099 19.7624 68.7559 19.046 68.7559 18.2755C69.4993 18.235 70.0941 18.5188 70.7429 18.5053C72.392 18.4648 73.2301 17.7618 73.4193 16.1668C73.4869 15.5721 73.5275 14.9638 73.5275 14.3555C73.5275 10.2327 73.5275 6.09645 73.5275 1.97369C73.5275 0.946377 73.5275 0.946371 74.5953 0.932854C75.3929 0.932854 76.2039 0.973406 77.0014 0.932854C77.6232 0.892302 77.7584 1.14913 77.7584 1.71686C77.7449 6.82638 77.7584 11.9359 77.7313 17.0454C77.7178 19.438 76.1633 21.3034 73.8519 21.9252C73.6761 21.9657 73.4599 21.9252 73.3788 22.1549H69.7021H69.7156Z" fill="#001D47"/>
<path d="M42.6412 22.1552C42.4114 21.5064 42.4385 20.8306 42.4385 20.1682C42.4385 14.153 42.4385 8.12435 42.4385 2.10917C42.4385 0.852061 42.4385 0.852051 43.6956 0.852051C46.372 0.852051 49.0484 0.852051 51.7248 0.852051C52.8738 0.852051 52.9819 1.00075 52.9279 2.06862C52.9008 2.69041 52.5764 2.81205 52.0493 2.81205C50.2109 2.79853 48.3725 2.81205 46.5477 2.81205C44.7229 2.81205 44.6688 2.81204 44.6688 4.66391C44.6688 6.17784 44.6688 7.6918 44.6688 9.20573C44.6688 10.1114 44.6823 10.1249 45.6421 10.1249C47.6291 10.1249 49.6161 10.1654 51.6032 10.1114C52.3466 10.0978 52.4953 10.3682 52.4953 11.0306C52.4953 11.6929 52.3601 11.9768 51.6032 11.9633C49.5756 11.9092 47.548 11.9632 45.5204 11.9362C44.8986 11.9362 44.6283 12.0849 44.6418 12.7472C44.6823 14.8695 44.6823 16.9917 44.6418 19.1139C44.6418 19.7762 44.8986 19.9384 45.5204 19.9384C47.7372 19.9114 49.9541 19.9384 52.1709 19.9384C53.1712 19.9384 53.1712 19.9384 53.1847 20.9252C53.1847 21.3442 53.1847 21.7497 53.1847 22.1688H42.6277L42.6412 22.1552Z" fill="#001D47"/>
<path d="M230.126 22.1554C229.504 22.1554 228.896 22.0608 228.301 21.858C228.098 21.7904 227.882 21.7769 227.692 21.6958C225.192 20.7766 223.678 19.0464 223.178 16.4511C223.016 15.586 222.961 14.7344 222.961 13.8558C222.961 9.9223 222.961 5.97525 222.961 2.04173C222.961 1.69028 222.745 1.19014 223.218 1.04145C223.718 0.879239 224.286 0.892756 224.8 1.04145C225.151 1.14958 225.03 1.56863 225.03 1.85249C225.03 3.82601 225.03 5.78601 225.03 7.75953C225.03 9.84118 225.03 11.9228 225.03 14.0045C225.03 14.8426 225.138 15.6671 225.354 16.4646C226.233 19.844 229.206 20.6955 231.829 20.2224C234.83 19.6818 236.141 17.6542 236.208 14.3424C236.276 10.3278 236.222 6.31319 236.222 2.29856C236.222 2.02822 236.222 1.77139 236.222 1.50105C236.222 1.0685 236.465 0.933317 236.925 0.987386C237.182 1.01442 237.438 1.01442 237.695 0.987386C238.114 0.946834 238.29 1.12256 238.29 1.47401C238.29 1.86601 238.304 2.258 238.29 2.65C238.074 6.4078 238.006 10.1656 238.29 13.9234C238.385 15.2481 238.236 16.5458 237.763 17.7488C236.898 19.9521 235.222 21.2768 232.951 21.8851C232.829 21.9256 232.694 21.8986 232.572 21.9391C232.072 22.1013 231.545 22.1284 231.018 22.1284H230.126V22.1554Z" fill="#001D47"/>
<path d="M247.982 6.9211C247.982 8.016 248.009 9.1109 247.982 10.2193C247.969 10.787 248.131 11.0303 248.753 11.0168C249.74 10.9898 250.726 10.9357 251.713 10.8276C254.363 10.5437 255.728 9.05682 255.539 6.44799C255.363 4.06895 253.687 2.74426 251.808 2.81184C250.781 2.83888 249.74 2.83888 248.712 2.81184C248.158 2.79833 247.982 3.0011 247.982 3.54179C248.009 4.67724 247.982 5.81267 247.982 6.94812M257.607 6.84C257.607 7.71862 257.458 8.59725 257.093 9.38125C257.093 9.38125 257.093 9.38122 257.093 9.39474C256.201 11.2601 254.633 12.2063 252.659 12.6119C251.456 12.8687 250.226 12.8011 249.01 12.8146C247.982 12.8146 247.969 12.8146 247.969 13.8825C247.969 16.2345 247.969 18.573 247.969 20.925C247.969 21.1953 248.104 21.6279 247.685 21.682C247.131 21.7631 246.536 21.8847 246.022 21.5873C245.82 21.4657 245.901 21.1683 245.901 20.952C245.901 20.0058 245.901 19.0596 245.901 18.1134C245.901 12.7741 245.901 7.43476 245.901 2.10896C245.901 1.00055 245.901 0.987026 247.009 0.987026C248.807 0.987026 250.605 0.905913 252.389 1.04109C254.741 1.21681 256.579 2.43335 257.282 4.6637C257.323 4.79887 257.309 4.96109 257.363 5.09626C257.539 5.65047 257.593 6.25876 257.593 6.84H257.607Z" fill="#001D47"/>
<path d="M135.329 12.9494C135.329 15.6393 135.302 18.3157 135.342 21.0057C135.342 21.6545 135.14 21.8572 134.504 21.8302C133.666 21.7897 132.828 21.8302 131.977 21.8302C131.071 21.8302 131.057 21.8167 131.057 20.857C131.057 15.788 131.057 10.719 131.057 5.65004C131.057 3.9739 131.274 4.25778 129.584 4.23075C128.327 4.21723 127.07 4.20371 125.799 4.23075C125.245 4.23075 124.934 4.1361 125.002 3.48727C125.056 2.91955 125.056 2.35183 125.002 1.78411C124.921 1.06769 125.205 0.891977 125.907 0.905494C129.003 0.946046 132.098 0.919004 135.18 0.919004C136.856 0.919004 138.546 0.919004 140.222 0.919004C140.988 0.919004 141.371 1.31552 141.371 2.10853C141.371 2.59515 141.344 3.09528 141.371 3.58191C141.398 4.06853 141.222 4.24427 140.722 4.23075C139.235 4.20371 137.749 4.21723 136.248 4.23075C135.315 4.23075 135.315 4.23073 135.315 5.13638C135.315 7.74521 135.315 10.3541 135.315 12.9629" fill="#001D47"/>
<path d="M182.382 6.40757C182.382 7.42137 182.395 8.44869 182.382 9.46249C182.382 9.94911 182.544 10.1383 183.044 10.1248C183.923 10.0978 184.801 10.1654 185.666 10.0843C186.734 9.98965 187.762 9.7058 188.613 9.00291C189.857 7.96208 190.1 6.65091 189.722 5.12346C189.384 3.75822 188.41 3.08234 187.153 2.8931C185.842 2.69034 184.504 2.71736 183.179 2.64978C182.585 2.60922 182.368 2.8931 182.382 3.46082C182.409 4.43406 182.382 5.42081 182.382 6.40757ZM187.41 11.1386C188.667 11.5036 189.316 12.193 189.735 13.1392C190.884 15.7345 192.047 18.3163 193.196 20.9116C193.52 21.6415 193.452 21.7091 192.614 21.7361C191.722 21.7722 191.1 21.3847 190.749 20.5737C189.884 18.5596 188.965 16.559 188.14 14.5315C187.37 12.6255 186.031 11.801 183.95 11.9226C182.125 12.0308 182.382 11.7063 182.368 13.5041C182.355 15.9237 182.368 18.3568 182.368 20.7764C182.368 21.0873 182.544 21.5604 182.125 21.6686C181.584 21.8037 180.962 21.8848 180.449 21.6145C180.138 21.4388 180.3 20.9792 180.3 20.6548C180.3 16.4915 180.3 12.3282 180.3 8.16484C180.3 6.12374 180.3 4.08262 180.3 2.02799C180.3 1.00068 180.3 0.987159 181.382 0.987159C183.247 0.987159 185.126 0.946613 187.005 1.0142C190.614 1.16289 192.912 4.46107 191.749 7.78632C191.073 9.7328 189.559 10.706 187.41 11.1251" fill="#001D47"/>
<path d="M6.86091 12.247C6.86091 9.4084 6.86091 6.56976 6.86091 3.74465C6.86091 2.82548 6.84739 2.81196 5.9147 2.81196C4.4278 2.81196 2.9409 2.77141 1.454 2.81196C0.737588 2.83899 0.642965 2.48756 0.669999 1.91984C0.697034 1.40618 0.615942 0.973633 1.39994 0.973633C5.7525 1.00067 10.105 1.00067 14.4576 0.973633C15.2551 0.973633 15.147 1.44672 15.1605 1.94686C15.174 2.46051 15.1335 2.82548 14.4576 2.81196C13.0383 2.77141 11.6325 2.81196 10.2132 2.81196C9.37511 2.81196 8.95609 3.21299 8.95609 4.01502C8.95609 9.46247 8.95609 14.9099 8.95609 20.3438C8.95609 20.6142 8.94257 20.871 8.95609 21.1414C8.98312 21.5739 8.78037 21.7767 8.34781 21.7497C8.19912 21.7497 8.03692 21.7497 7.88823 21.7497C6.88795 21.7497 6.87444 21.7496 6.87444 20.7629C6.87444 17.9243 6.87444 15.0857 6.87444 12.2606" fill="#001D47"/>
</svg>
