<svg width="158" height="32" viewBox="0 0 158 32" fill="none" xmlns="http://www.w3.org/2000/svg">
<path d="M22.237 5.50097C20.026 5.34303 17.9277 5.08357 15.8295 5.07229C13.1785 5.06101 10.6515 5.7153 8.41789 7.22695C4.05216 10.16 3.73629 15.5749 7.70718 18.9817C10.0536 20.9897 14.3178 22.1855 17.578 21.6778V20.1436C17.578 18.8238 17.5667 17.5039 17.578 16.1953C17.5893 15.5523 17.3298 15.2815 16.6756 15.3154C16.0777 15.3492 15.4798 15.3154 14.8142 15.3154V12.0665H24.3466V15.3154C23.9066 15.3154 23.4441 15.338 22.9929 15.3154C22.4288 15.2815 22.1807 15.5523 22.1581 16.0825C22.1581 16.3307 22.1581 16.5789 22.1581 16.8383C22.1581 19.2863 22.1581 21.7343 22.1581 24.1822V25.299C21.5489 25.4006 21.0074 25.5247 20.4547 25.5811C15.9874 26.0661 11.5879 25.8744 7.4139 23.9792C4.18755 22.5126 1.63804 20.3241 0.600197 16.8496C-0.787359 12.2583 0.464825 8.3212 4.01832 5.11741C6.45501 2.92891 9.39934 1.78953 12.5919 1.27061C15.5362 0.79681 18.4805 0.875777 21.4248 1.40598C22.034 1.51879 22.2822 1.74441 22.2483 2.37614C22.2032 3.43655 22.237 4.49696 22.237 5.48969" fill="#001D47"/>
<path d="M98.2479 15.9359C98.2479 14.9996 98.2366 14.052 98.2479 13.1157C98.2479 12.6757 98.09 12.4388 97.6726 12.2809C96.5106 11.8296 95.3374 11.5025 94.0852 11.5814C92.4946 11.683 91.2086 12.3486 90.543 13.8376C89.618 15.8908 89.6744 17.989 90.5656 20.0422C91.0732 21.2154 92.0547 21.7794 93.352 21.7681C95.1682 21.7569 96.646 21.0123 97.8192 19.6699C98.0674 19.3879 98.2028 18.9479 98.2254 18.5756C98.2818 17.6957 98.2479 16.8158 98.2479 15.9472M86.245 26.3031H90.2384C91.1409 28.6721 93.9386 28.627 95.9466 28.0968C97.7628 27.6117 98.5187 25.9308 98.2479 23.2234C98.011 23.37 97.808 23.4828 97.6275 23.6182C95.8112 24.9494 93.7468 25.4232 91.547 25.0847C88.9524 24.6899 87.2377 23.1331 86.3239 20.719C85.3876 18.2598 85.3538 15.7441 86.2676 13.2736C87.9146 8.80633 92.4608 6.95626 97.007 8.85146C97.5259 9.0658 98.0223 9.32526 98.5299 9.56216C99.0489 8.74241 99.8084 8.33254 100.809 8.33254H104.238V11.2994C104.148 11.3558 104.091 11.4122 104.046 11.4122C102.354 11.5025 102.467 11.4235 102.467 13.1833C102.467 16.6015 102.49 20.0196 102.456 23.4377C102.456 24.374 102.377 25.3216 102.174 26.2354C101.553 28.9654 99.7934 30.6575 97.0747 31.3231C94.8411 31.8759 92.5849 31.8872 90.3513 31.2893C87.8018 30.6011 86.3465 28.8526 86.245 26.3031Z" fill="#001D47"/>
<path d="M104.654 4.6214V1.49658H111.637V10.3521C112.066 10.0363 112.325 9.84448 112.596 9.64143C114.345 8.31028 116.285 7.6447 118.507 7.97185C121.485 8.4118 123.46 10.6342 123.505 13.6462C123.539 15.688 123.505 17.7186 123.505 19.7604C123.505 20.1666 123.505 20.5727 123.505 20.9788C123.527 22.0843 123.606 22.1633 124.689 22.1746C125.028 22.1746 125.366 22.1746 125.784 22.1746V25.2655H116.86V22.1746C117.447 22.1746 118 22.1746 118.552 22.1746C119.071 22.1858 119.286 21.9377 119.286 21.43C119.286 19.1061 119.286 16.7935 119.263 14.4697C119.263 14.0184 119.105 13.5446 118.936 13.1047C118.496 11.9202 117.526 11.2997 116.285 11.4577C114.378 11.6946 113.002 12.7888 111.863 14.2441C111.727 14.4246 111.682 14.7066 111.682 14.9435C111.671 17.0417 111.671 19.1513 111.682 21.2495C111.682 22.0618 111.795 22.1407 112.63 22.1633C113.092 22.1633 113.555 22.1633 114.074 22.1633V25.2317H104.993V22.1633C105.5 22.1633 106.019 22.152 106.55 22.1633C107.136 22.1858 107.407 21.9715 107.407 21.3511C107.396 16.049 107.396 10.7582 107.407 5.45619C107.407 4.77934 107.114 4.57628 106.482 4.59884C105.895 4.6214 105.297 4.59884 104.654 4.59884" fill="#001D47"/>
<path d="M78.033 17.4592C76.3296 17.3464 74.6713 17.1885 73.0468 17.651C72.4602 17.8202 71.8511 18.091 71.3773 18.4745C69.9784 19.5913 70.3168 21.6445 71.9413 22.2762C75.303 23.5735 78.4617 21.1594 78.033 17.4705M78.6083 23.7427C75.7317 25.9651 72.6295 26.3373 69.3805 25.0964C65.4548 23.5848 65.5225 18.9935 67.3838 17.0757C68.4781 15.9476 69.8431 15.3497 71.3322 14.9887C73.2386 14.5262 75.179 14.357 77.1418 14.5149C77.4239 14.5375 77.6946 14.5149 77.9653 14.5149C78.1458 13.2514 77.4577 12.1008 76.2393 11.5593C74.3554 10.7245 72.1782 11.4127 71.1065 13.1499C71.005 13.3078 70.7906 13.4883 70.6327 13.4883C69.4708 13.5222 68.3089 13.4996 67.0567 13.4996C67.1808 11.7511 67.9479 10.4538 69.2339 9.44977C70.3845 8.55857 71.7157 8.1299 73.1484 7.9494C74.7954 7.74634 76.4199 7.81403 77.9992 8.33295C80.5825 9.16774 82.128 11.1419 82.207 13.8493C82.2747 16.1732 82.2295 18.4858 82.2408 20.8097C82.2408 21.7046 82.6921 22.1559 83.5945 22.1634C83.8427 22.1634 84.0909 22.1634 84.418 22.1634V25.2431H78.8904C78.8001 24.758 78.6986 24.2729 78.5971 23.7314" fill="#001D47"/>
<path d="M37.5574 17.5603C36.057 17.1654 33.2142 17.3121 31.9169 17.8649C31.5785 18.0115 31.2401 18.2033 30.9467 18.4402C30.2248 19.0155 29.9315 19.7939 30.1007 20.6964C30.2699 21.5876 30.8565 22.1403 31.7251 22.3321C32.3907 22.4675 33.1014 22.5577 33.767 22.5013C36.4857 22.287 38.0425 20.2339 37.5574 17.5716M37.5348 14.4693C37.6815 12.1341 35.6284 11.1414 33.9926 11.2317C32.5487 11.3106 31.2401 11.6716 30.6309 13.1946C30.5745 13.3299 30.3714 13.4879 30.2248 13.4991C29.0403 13.5217 27.8558 13.5104 26.581 13.5104C26.7728 11.525 27.6414 10.0585 29.2321 9.16726C32.3569 7.39615 35.6171 7.3623 38.8096 8.91907C40.8289 9.90052 41.6862 11.7619 41.7539 13.9391C41.8216 16.2291 41.7765 18.5192 41.7765 20.8092C41.7765 21.7117 42.2239 22.1704 43.1189 22.1855C43.3671 22.1855 43.604 22.2193 43.9198 22.2419V25.2765H38.4599C38.3583 24.7801 38.2455 24.2724 38.1214 23.6971C36.0796 25.5698 33.6429 25.9759 31.0596 25.66C30.0894 25.5359 29.0741 25.22 28.2168 24.7462C25.0017 22.9639 24.8099 18.4515 27.7994 16.3194C29.3562 15.2138 31.1724 14.7852 33.0337 14.616C34.3198 14.5031 35.6058 14.5596 36.8918 14.5257C37.1062 14.5257 37.3205 14.4919 37.5348 14.4693Z" fill="#001D47"/>
<path d="M139.818 14.9772C139.728 12.9466 137.754 11.1078 135.306 11.277C133.377 11.4124 131.177 13.003 131.312 14.9772H139.818ZM131.177 18.1471C131.38 19.9859 132.159 21.3283 133.828 21.9488C136.344 22.8738 138.577 22.2421 140.619 20.4146C141.319 21.035 142.029 21.6781 142.864 22.4226C142.278 22.9979 141.792 23.6071 141.183 24.0696C137.731 26.7658 131.877 26.2807 128.921 23.0656C127.274 21.2832 126.732 19.0722 126.732 16.7257C126.732 12.4841 129.44 9.00955 133.501 8.11836C137.946 7.14819 142.447 8.9193 143.564 14.2552C143.823 15.4735 143.823 16.737 143.97 18.1358H131.177V18.1471Z" fill="#001D47"/>
<path d="M54.4328 22.1741V25.2425H45.4757V22.1741C45.9608 22.1741 46.4459 22.1741 46.9422 22.1741C47.9575 22.1741 48.0252 22.0952 48.0365 21.1137C48.0365 19.4554 48.0365 17.7858 48.0365 16.1275C48.0365 12.6756 48.0365 9.22359 48.0365 5.77162C48.0365 4.67737 47.9688 4.62097 46.852 4.60969C46.2541 4.60969 45.6675 4.60969 45.002 4.60969V1.48486H52.312V20.5948C52.312 20.8768 52.312 21.1588 52.312 21.4409C52.312 21.9598 52.5714 22.1741 53.0791 22.1628C53.5078 22.1628 53.9477 22.1628 54.4328 22.1628" fill="#001D47"/>
<path d="M64.9249 22.1741V25.2651H56.1596V22.1741C56.5544 22.1741 56.9154 22.1741 57.2877 22.1741C58.2804 22.1628 58.3368 22.1064 58.3481 21.0799C58.3481 20.9558 58.3481 20.8317 58.3481 20.7076C58.3481 15.8117 58.3481 10.9157 58.3481 6.03109C58.3481 5.09101 57.8781 4.62097 56.938 4.62097C56.5996 4.62097 56.2499 4.62097 55.8438 4.62097V1.48486H62.5672C62.5785 1.84585 62.6123 2.20684 62.6123 2.56783C62.6123 8.55802 62.6123 14.5482 62.6123 20.5384C62.6123 20.7866 62.6236 21.0347 62.6123 21.2942C62.5785 21.9147 62.8379 22.2305 63.5035 22.1967C63.9322 22.1741 64.3722 22.1967 64.9136 22.1967" fill="#001D47"/>
<path d="M154.236 22.1744V25.2541H145.459V22.1632C146 22.1632 146.497 22.1632 146.993 22.1632C147.456 22.1632 147.67 21.9375 147.67 21.4637C147.67 18.3615 147.67 15.2592 147.67 12.157C147.67 11.6606 147.388 11.4914 146.959 11.4688C146.486 11.4463 146.023 11.4688 145.47 11.4688V8.33272C147.106 8.33272 148.73 8.32144 150.355 8.35528C150.524 8.35528 150.772 8.68243 150.829 8.89677C151.021 9.72028 151.145 10.5551 151.336 11.5929C152.95 9.14495 154.924 7.59946 157.97 8.08454V11.6268C157.868 11.6719 157.823 11.717 157.767 11.717C154.969 11.7509 153.04 13.0594 152.047 15.6202C151.946 15.8684 151.946 16.173 151.934 16.4437C151.934 17.9779 151.934 19.5121 151.934 21.0576C151.934 22.0842 152.025 22.1632 153.085 22.1744C153.423 22.1744 153.773 22.1744 154.224 22.1744" fill="#001D47"/>
</svg>
