<svg width="170" height="80" viewBox="0 0 170 80" fill="none" xmlns="http://www.w3.org/2000/svg">
<path d="M143.091 19.0546H139.91V37.781H143.091V19.0546ZM106.507 43.083H103.326V61.8094H106.507V43.083ZM133.965 61.7981H142.234V58.9891H137.169V43.0604H133.965V61.7868V61.7981ZM146.837 58.9891V53.5179H150.932V50.6638H146.837V45.8694H152.161V43.083H143.576V61.7981H152.556V58.9779H146.848L146.837 58.9891ZM131.382 46.7606C131.133 45.1813 130.366 43.9291 128.866 43.2297C127.964 42.8123 127.016 42.7559 126.046 42.8235C123.541 42.9928 121.782 44.8203 121.77 47.3246C121.759 50.7315 121.736 54.1496 121.77 57.5565C121.793 59.1245 122.391 60.4444 123.767 61.3243C124.715 61.9222 125.775 62.0914 126.869 62.0688C129.25 62.035 130.964 60.7151 131.337 58.4702C131.517 57.3985 131.427 56.2704 131.449 55.1649C131.449 55.1423 131.427 55.1311 131.416 55.1085H128.245C128.245 55.8192 128.245 56.5073 128.245 57.1955C128.245 57.4888 128.223 57.7934 128.178 58.0754C128.054 58.7861 127.614 59.1696 126.881 59.2148C125.933 59.2712 125.335 58.9779 125.143 58.2672C125.03 57.8836 124.997 57.4662 124.985 57.0714C124.974 54.003 124.985 50.9346 124.985 47.8774C124.985 47.5728 125.008 47.257 125.042 46.9524C125.143 46.1401 125.572 45.7002 126.362 45.6099C127.163 45.5084 127.772 45.8355 128.02 46.5801C128.167 47.02 128.2 47.5051 128.245 47.9789C128.279 48.4076 128.245 48.8476 128.245 49.2875H131.506C131.461 48.4076 131.494 47.5615 131.359 46.7267M96.9973 57.4775C96.9973 57.7257 96.9748 57.9739 96.9184 58.222C96.7943 58.7861 96.4445 59.1584 95.8579 59.2261C95.5195 59.2599 95.1698 59.226 94.8313 59.1809C94.3688 59.102 94.053 58.8086 93.9289 58.3687C93.8273 58.0077 93.7597 57.6242 93.7597 57.2519C93.7484 54.0481 93.7597 50.833 93.7597 47.6292C93.7597 47.3585 93.7822 47.0765 93.8386 46.817C93.9965 46.0612 94.3914 45.7227 95.1585 45.6438C95.9031 45.5648 96.4671 45.8468 96.7378 46.535C96.8845 46.9298 96.9522 47.3585 96.986 47.7759C97.0312 48.2948 96.986 48.8137 96.986 49.3214H100.235C100.235 48.825 100.235 48.3625 100.235 47.8887C100.212 46.9185 100.054 45.9709 99.5806 45.1136C98.6105 43.3537 97.0311 42.7446 95.1246 42.8235C92.2254 42.9476 90.5108 44.7413 90.4995 47.6518C90.4995 49.2198 90.4995 50.7879 90.4995 52.356C90.4995 54.1158 90.4657 55.8756 90.5221 57.6354C90.5785 59.6886 91.7065 61.234 93.5115 61.8094C94.6396 62.1704 95.8015 62.2042 96.9522 61.9109C98.4751 61.5161 99.4904 60.5572 99.9754 59.0681C100.393 57.7821 100.201 56.4622 100.246 55.1311H96.9973C96.9973 55.9433 96.9973 56.7104 96.9973 57.4775ZM106.327 30.798C106.744 28.147 107.161 25.5073 107.579 22.8675H107.635C108.053 25.496 108.47 28.1357 108.887 30.798H106.327ZM109.621 19.0546H105.593C104.443 25.3042 103.292 31.52 102.141 37.7584H105.278C105.469 36.3821 105.661 35.0171 105.853 33.6409H109.361C109.553 35.0171 109.745 36.3934 109.937 37.7584H113.073C111.911 31.4862 110.771 25.2591 109.621 19.0433M137.947 37.3636C136.729 33.7085 135.51 30.0422 134.281 26.3872C134.191 26.1277 134.213 25.9247 134.337 25.6878C135.386 23.6121 136.424 21.5251 137.462 19.4494C137.518 19.3253 137.575 19.2012 137.654 19.032C136.65 19.032 135.702 19.032 134.743 19.032C134.495 19.032 134.371 19.111 134.258 19.3366C133.243 21.4461 132.216 23.5444 131.19 25.6426C131.156 25.7216 131.1 25.7893 131.055 25.8683C131.032 25.8683 131.009 25.8683 130.976 25.857V19.0659H127.772V37.781H130.987V37.3861C130.987 35.6714 131.021 33.968 130.976 32.2533C130.953 31.4975 131.088 30.8319 131.517 30.2115C131.754 29.8617 131.923 29.4894 132.16 29.0608C132.498 30.1776 132.803 31.2154 133.119 32.242C133.649 33.9906 134.168 35.7391 134.698 37.4876C134.732 37.6117 134.856 37.7922 134.946 37.7922C135.962 37.8148 136.988 37.8035 138.071 37.8035C138.015 37.623 137.981 37.499 137.936 37.3749M112.689 45.7453C113.445 45.7453 114.189 45.6551 114.923 45.8807C115.566 46.0837 115.904 46.5688 116.04 47.2006C116.231 48.0692 116.243 48.9491 116.085 49.8177C115.882 50.912 115.374 51.3745 114.257 51.4648C113.75 51.5099 113.242 51.4648 112.689 51.4648V45.7453ZM119.762 61.4258C118.927 58.8312 118.093 56.2366 117.258 53.6307C117.201 53.4615 117.134 53.3374 117.359 53.2246C118.239 52.7508 118.781 51.9837 119.074 51.0361C119.571 49.3778 119.559 47.7082 119.074 46.0499C118.668 44.6849 117.766 43.7711 116.401 43.3876C115.769 43.2071 115.092 43.0943 114.438 43.0717C112.836 43.0266 111.223 43.0492 109.621 43.0492C109.564 43.0492 109.508 43.0604 109.44 43.0717V61.7981H112.667V61.3469C112.667 59.0794 112.667 56.8119 112.667 54.5332C112.667 54.1947 112.779 54.0932 113.095 54.1158C113.4 54.1271 113.716 54.127 114.02 54.0932C114.268 54.0594 114.347 54.1609 114.415 54.3752C114.629 55.131 114.855 55.8756 115.069 56.6314C115.554 58.2672 116.028 59.9142 116.525 61.5499C116.558 61.6627 116.683 61.8207 116.762 61.8207C117.777 61.8432 118.803 61.8319 119.875 61.8319C119.83 61.6627 119.796 61.5499 119.762 61.4371M153.537 29.6136C153.007 28.1809 152.488 26.7369 151.958 25.3042C151.225 23.3075 150.503 21.3221 149.758 19.3253C149.713 19.2125 149.6 19.0433 149.51 19.0433C148.574 19.0208 147.637 19.032 146.679 19.032V37.7697H149.578V26.2405C149.679 26.3082 149.702 26.3759 149.736 26.4549C150.311 28.0793 150.875 29.7038 151.439 31.3283C152.161 33.3927 152.883 35.4458 153.605 37.5102C153.65 37.623 153.763 37.7922 153.853 37.7922C154.733 37.8148 155.602 37.8035 156.493 37.8035V19.0659H153.594V29.6248H153.515M95.2939 21.7394C95.9256 21.7959 96.3994 22.1568 96.6588 22.7547C97.0086 23.5782 97.065 24.4356 96.7943 25.2929C96.5348 26.139 95.8579 26.6579 94.978 26.7031C94.5493 26.7256 94.1207 26.7031 93.6694 26.7031V21.7169C94.2335 21.7169 94.7637 21.6717 95.2939 21.7282M93.6581 29.3766C94.4704 29.3766 95.2713 29.2977 96.0384 29.6248C96.625 29.873 96.9861 30.3355 97.144 30.9334C97.3809 31.8133 97.3695 32.6932 97.1552 33.5732C96.9409 34.4531 96.3881 34.9946 95.4744 35.0735C94.8765 35.1299 94.2786 35.0735 93.6581 35.0735V29.3654V29.3766ZM90.5108 37.781C92.4173 37.781 94.3237 37.8374 96.2189 37.7471C98.2834 37.6569 99.6709 36.5062 100.246 34.5997C100.585 33.4829 100.63 32.3323 100.461 31.1816C100.235 29.7264 99.4904 28.6547 98.1592 28.0117C98.1254 27.9891 98.0916 27.9552 98.0352 27.9101C99.2986 27.2897 99.9078 26.2293 100.1 24.9207C100.19 24.3566 100.179 23.7587 100.133 23.1834C99.9867 20.7806 98.5089 19.2351 96.1061 19.0997C94.2447 18.9982 92.3721 19.0546 90.5108 19.032C90.4882 19.032 90.4656 19.0433 90.4205 19.0659V37.7471C90.4205 37.7471 90.4769 37.781 90.4995 37.781M121.861 29.5684C121.59 29.0608 121.398 28.5419 121.206 28.0229C120.157 25.135 119.097 22.2471 118.048 19.3592C117.957 19.0997 117.833 19.0207 117.562 19.032C116.795 19.0546 116.04 19.032 115.284 19.032H114.945V37.7697H117.856V26.1841C117.935 26.2518 117.969 26.3195 117.991 26.3985C119.198 29.8617 120.417 33.3137 121.635 36.777C121.748 37.1154 121.793 37.5666 122.041 37.7358C122.278 37.905 122.729 37.7922 123.079 37.7922C123.643 37.7922 124.207 37.7922 124.782 37.7922V19.0546H121.872V29.5684H121.861ZM169.365 28.2937H164.108V30.8545H166.15C166.15 31.4862 166.172 32.0728 166.15 32.6707C166.116 33.2009 166.071 33.7424 165.935 34.25C165.732 34.9946 165.157 35.2766 164.209 35.2315C163.566 35.1976 163.126 34.8028 162.98 34.0921C162.934 33.889 162.901 33.6634 162.901 33.4604C162.901 30.2115 162.889 26.9738 162.901 23.7249C162.901 23.3414 162.957 22.9465 163.059 22.563C163.183 22.0666 163.51 21.7394 164.029 21.6266C164.875 21.4574 165.552 21.8184 165.845 22.6194C165.935 22.845 166.003 23.0932 166.025 23.3414C166.093 23.928 166.138 24.5146 166.195 25.135H169.229C169.229 24.5597 169.252 24.0182 169.229 23.488C169.162 22.3148 168.812 21.2318 168.056 20.3068C166.601 18.5357 163.702 18.389 161.953 19.3253C160.329 20.194 159.697 21.6831 159.686 23.4429C159.663 26.7595 159.686 30.0761 159.686 33.3927C159.686 34.1824 159.843 34.9495 160.159 35.6827C161.344 38.4353 165.236 38.7624 166.793 36.901C166.928 36.7431 167.097 36.619 167.266 36.4724C167.424 36.8334 167.571 37.2056 167.751 37.5666C167.797 37.6681 167.943 37.781 168.056 37.781C168.507 37.8035 168.958 37.781 169.41 37.781V28.2937H169.365ZM41.2694 0.903532C41.6868 0.937375 42.1155 0.971213 42.5329 1.00506C42.657 1.00506 42.7923 1.02763 42.9503 1.05019V20.0022C42.9503 20.0022 43.0067 20.0022 43.0405 20.0135C44.6763 13.9218 46.312 7.83005 47.959 1.69321C49.6963 2.02036 51.3772 2.48287 53.0693 3.0582C51.4223 9.20631 49.7753 15.3319 48.1395 21.4574C48.1621 21.4687 48.1847 21.48 48.2072 21.4913C51.3772 15.9974 54.5584 10.5036 57.7734 4.93084C59.3077 5.82203 60.8193 6.69066 62.3535 7.57058C59.1384 13.1321 55.9685 18.6259 52.7873 24.1197C57.2658 19.6412 61.7556 15.1627 66.3018 10.6052C67.5992 11.9025 68.84 13.1434 70.1035 14.3955C65.5911 18.9079 61.1352 23.3526 56.6792 27.8086C56.6905 27.8312 56.7131 27.865 56.7356 27.8876C62.1956 24.7402 67.6555 21.5928 73.1945 18.389C74.0744 19.9119 74.9431 21.4236 75.8343 22.9691C70.284 26.1729 64.8015 29.3428 59.3076 32.5015C59.3076 32.524 59.3302 32.5579 59.3415 32.5805C65.4445 30.9447 71.5587 29.309 77.7633 27.6507C78.2258 29.3541 78.677 31.0237 79.1396 32.7497C72.935 34.408 66.7982 36.055 60.6501 37.702C60.6501 37.7245 60.6501 37.7358 60.6501 37.7584H79.7487V43.0266H60.6614C60.6614 43.0266 60.6501 43.0943 60.6501 43.1281C66.7756 44.7639 72.9012 46.4109 79.0719 48.0692C78.756 49.8064 78.2822 51.4873 77.7069 53.1794C71.5587 51.5324 65.4332 49.8967 59.2963 48.2497C59.2963 48.2722 59.2738 48.2948 59.2625 48.3174C64.7564 51.4873 70.2389 54.6573 75.823 57.8723C74.9431 59.4065 74.0631 60.9182 73.1832 62.4524C67.6104 59.2373 62.1053 56.0674 56.6115 52.8862C56.6115 52.8862 56.6002 52.9087 56.589 52.92C61.0788 57.3985 65.5573 61.8883 70.1148 66.4346C68.8401 67.7093 67.5991 68.9389 66.3469 70.1911C61.812 65.6674 57.356 61.2002 52.8888 56.7329C52.8662 56.7442 52.8324 56.7668 52.8098 56.7781C55.9685 62.2381 59.1159 67.7093 62.2971 73.2144C60.8419 74.2184 59.319 75.0645 57.7171 75.8655C54.5245 70.3491 51.3433 64.844 48.1621 59.3389C48.1395 59.3389 48.1282 59.3614 48.1057 59.3614C49.7527 65.487 51.3884 71.6125 53.058 77.8396C51.3546 78.3021 49.6624 78.7533 47.9477 79.2159C46.2894 73.0339 44.6537 66.9422 43.0179 60.8505C42.9841 60.8505 42.9616 60.8505 42.9277 60.8505V79.8364H37.6482V60.7941C37.6482 60.7941 37.5806 60.7941 37.5467 60.7828C35.911 66.8858 34.2752 73.0001 32.6057 79.2046C30.9022 78.7534 29.2213 78.3021 27.4953 77.8396C29.1536 71.6689 30.7894 65.5659 32.4139 59.4629C32.3913 59.4517 32.3575 59.4404 32.3236 59.4291C29.165 64.8891 26.0176 70.349 22.8025 75.8993C21.2796 75.0193 19.7566 74.1507 18.2224 73.2596C21.4262 67.7093 24.5961 62.2381 27.7774 56.7104C23.265 61.2228 18.7978 65.69 14.2628 70.2137C12.9655 68.9164 11.7246 67.6868 10.4611 66.4233C14.9961 61.8884 19.4859 57.4098 23.9645 52.92C23.9532 52.8974 23.9419 52.8861 23.9306 52.8636C18.4481 56.0335 12.9543 59.1922 7.38146 62.4185C6.50155 60.8956 5.6216 59.384 4.7304 57.8385C10.3032 54.6234 15.7971 51.4535 21.2796 48.2835C21.2796 48.261 21.257 48.2384 21.257 48.2158C15.1315 49.8516 9.00592 51.4986 2.8014 53.1569C2.35016 51.4535 1.88761 49.7726 1.42509 48.0466C7.65217 46.377 13.7777 44.7413 19.9033 43.0943C19.9033 43.0717 19.9033 43.0604 19.9033 43.0379H0.849751C0.703099 41.2668 0.725661 39.5295 0.849751 37.7584H19.9372C19.9372 37.7584 19.9372 37.702 19.9372 37.6794C13.8003 36.0324 7.66347 34.3854 1.43638 32.7271C1.8989 31.0237 2.35018 29.3428 2.81269 27.6281C9.00593 29.2864 15.1089 30.9221 21.2119 32.5579C21.2232 32.5353 21.2344 32.5015 21.2457 32.4789C15.7745 29.3202 10.3032 26.1616 4.79808 22.9804C5.56519 21.3785 6.44513 19.8781 7.43786 18.4003C12.943 21.5815 18.4368 24.7402 23.9193 27.9101C23.9193 27.9101 23.9193 27.8989 23.9306 27.8876C19.4521 23.4203 14.9848 18.9418 10.4386 14.4068C11.7246 13.1208 12.9429 11.8912 14.1725 10.6728C18.7188 15.2191 23.2086 19.7089 27.7097 24.1987C27.7435 24.1761 27.7661 24.1536 27.8 24.1197C24.63 18.6259 21.4488 13.1321 18.2562 7.59313C19.7115 6.6004 21.2232 5.74308 22.8364 4.94213C27.2585 12.6019 31.6694 20.2391 36.0915 27.8876C32.0868 29.3654 29.2665 32.039 27.8338 36.055C26.717 39.1911 26.8185 42.3384 28.0933 45.4181C30.5976 51.5099 37.2873 54.8265 43.6272 53.1231C49.9783 51.4196 54.1184 45.373 53.3513 38.8301C53.058 36.3821 52.1443 34.1711 50.6101 32.242C49.0646 30.3017 47.1355 28.8916 44.8004 28.0342C42.4765 27.1769 40.1075 27.0302 37.6595 27.4814V1.00506C38.2123 0.959932 38.7651 0.914803 39.3178 0.858398H41.2468L41.2694 0.903532Z" fill="#EFEDDF"/>
</svg>
