<svg width="225" height="35" viewBox="0 0 225 35" fill="none" xmlns="http://www.w3.org/2000/svg">
<path d="M145.012 1.30228H223.466V33.3652H145.012V1.30228ZM144.16 34.2438H224.331V0.450684H144.16V34.2438Z" fill="#001D47"/>
<path d="M48.8367 17.0637V19.6184C48.8367 22.9437 47.0524 24.5793 43.0649 24.5793H36.7793V12.1299H42.8621C47.6877 12.1299 48.8367 14.4819 48.8367 17.0502" fill="#001D47"/>
<path d="M61.4346 21.1051C59.6097 21.1051 59.015 21.1456 58.5554 21.3754C58.0958 21.6052 57.8525 22.1459 57.8525 23.1191C57.8525 23.8896 57.9877 24.2546 58.3526 24.4708C58.8798 24.8223 59.772 24.9575 61.2724 24.9575C62.7728 24.9575 63.6649 24.8764 64.2867 24.6331C65.3546 24.2546 65.4357 23.3895 65.4357 22.4568V21.1051H61.421H61.4346ZM61.4346 21.1051C59.6097 21.1051 59.015 21.1456 58.5554 21.3754C58.0958 21.6052 57.8525 22.1459 57.8525 23.1191C57.8525 23.8896 57.9877 24.2546 58.3526 24.4708C58.8798 24.8223 59.772 24.9575 61.2724 24.9575C62.7728 24.9575 63.6649 24.8764 64.2867 24.6331C65.3546 24.2546 65.4357 23.3895 65.4357 22.4568V21.1051H61.421H61.4346ZM61.4346 21.1051C59.6097 21.1051 59.015 21.1456 58.5554 21.3754C58.0958 21.6052 57.8525 22.1459 57.8525 23.1191C57.8525 23.8896 57.9877 24.2546 58.3526 24.4708C58.8798 24.8223 59.772 24.9575 61.2724 24.9575C62.7728 24.9575 63.6649 24.8764 64.2867 24.6331C65.3546 24.2546 65.4357 23.3895 65.4357 22.4568V21.1051H61.421H61.4346ZM61.4346 21.1051C59.6097 21.1051 59.015 21.1456 58.5554 21.3754C58.0958 21.6052 57.8525 22.1459 57.8525 23.1191C57.8525 23.8896 57.9877 24.2546 58.3526 24.4708C58.8798 24.8223 59.772 24.9575 61.2724 24.9575C62.7728 24.9575 63.6649 24.8764 64.2867 24.6331C65.3546 24.2546 65.4357 23.3895 65.4357 22.4568V21.1051H61.421H61.4346ZM58.5554 21.3619C58.0958 21.5917 57.8525 22.1324 57.8525 23.1056C57.8525 23.8761 57.9877 24.2411 58.3526 24.4573C58.8798 24.8088 59.772 24.944 61.2724 24.944C62.7728 24.944 63.6649 24.8628 64.2867 24.6195C65.3546 24.2411 65.4357 23.376 65.4357 22.4433V21.0915H61.421C59.5962 21.0915 59.0015 21.1321 58.5419 21.3619M126.845 16.6444C125.331 16.6444 124.29 16.8471 123.722 17.2526C123.181 17.6582 122.871 18.2935 122.789 19.7128H130.562C130.562 18.8747 130.454 18.4962 130.319 18.0907C129.954 17.1175 128.967 16.6444 126.845 16.6444ZM132.846 21.2943H122.735V21.5917C122.735 22.9029 122.979 23.7544 123.384 24.16C123.938 24.7142 124.993 24.971 126.912 24.971C128.832 24.971 129.589 24.8088 129.954 24.4438C130.278 24.1194 130.319 23.2543 130.4 22.9029H132.792C132.833 23.4571 132.833 23.9978 132.833 24.16C132.833 24.8358 132.481 25.6198 131.089 26.0659C129.656 26.4849 128.331 26.566 126.696 26.566C124.736 26.539 123.195 26.2687 122.303 25.7685C120.87 24.998 120.221 23.4571 120.221 21.0104C120.221 19.4424 120.478 18.1989 120.951 17.3067C121.735 15.7387 123.655 15.0358 126.75 15.0358C129.183 15.0358 130.94 15.4954 131.86 16.4551C132.671 17.2526 132.927 18.2799 132.927 20.1453C132.927 20.5914 132.887 20.7266 132.86 21.2808M115.328 26.4309L109.515 21.1051H108.664V26.4309H106.231V10.3453H108.664V19.51H109.515L114.341 15.171H117.18L111.57 20.1453L118.558 26.4444H115.341L115.328 26.4309ZM100.445 25.7415C99.337 26.3092 97.5121 26.5525 95.1331 26.5525C93.484 26.5525 92.1323 26.4309 91.0779 26.147C89.9425 25.8767 89.3748 25.3495 89.3207 24.3762C89.2801 23.8626 89.3207 23.43 89.3747 22.8217H91.7132C91.7943 23.3895 91.7943 23.5652 91.8079 23.6869C91.889 24.214 91.8484 24.4979 92.4837 24.7007C93.092 24.8764 94.0652 24.9575 95.2953 24.9575C96.8363 24.9575 97.9041 24.7953 98.6205 24.4708C99.1342 24.2411 99.3775 23.8491 99.3775 23.0786C99.3775 22.1864 99.1883 21.8215 98.2691 21.6728C97.9852 21.6187 97.7014 21.6187 97.3905 21.5917C97.2283 21.5782 96.7011 21.5782 95.8495 21.5511C95.444 21.5511 94.9709 21.5106 94.4302 21.4971C92.0241 21.3754 89.4694 21.2673 89.4694 18.4557C89.4694 15.9009 91.0374 15.0088 95.3224 15.0088C96.4173 15.0088 97.7555 15.0899 98.5665 15.198C99.4992 15.3197 100.202 15.4819 100.716 15.7658C101.283 16.0902 101.473 16.5903 101.473 17.4824C101.473 17.7257 101.473 17.9691 101.432 18.3611H99.0802L98.972 17.8609C98.8503 17.2526 98.8098 17.131 98.607 16.9823C98.2691 16.712 97.2283 16.6038 95.7684 16.6038C94.3085 16.6038 93.484 16.6714 92.8081 16.9147C92.1863 17.1445 91.889 17.5365 91.889 18.3475C91.889 18.9017 92.0917 19.3073 92.3621 19.483C92.9839 19.8615 96.3091 19.8344 97.4445 19.8479C98.6611 19.875 99.4586 19.9696 100.148 20.2129C101.378 20.632 101.865 21.443 101.865 23.0921C101.865 24.4033 101.432 25.2413 100.445 25.7415ZM84.9681 26.4309H82.5485V20.267C82.5485 18.1448 82.4404 17.6987 81.9402 17.3067C81.4536 16.9418 80.4804 16.712 79.007 16.712C77.7094 16.712 76.3711 16.8741 75.114 17.2256V26.4309H72.6944V15.1575H74.8707L75.0329 15.9685C75.5196 15.7117 75.8845 15.4954 76.3847 15.3602C77.1957 15.1169 78.2095 14.9953 79.5747 14.9953C81.1157 14.9953 82.3052 15.2386 83.2244 15.6441C84.1165 16.0226 84.6032 16.7525 84.7924 17.6176C84.9141 18.1989 84.9816 18.7125 84.9816 19.9831V26.4309H84.9681ZM67.8688 26.4309H65.8277L65.5979 25.4982C64.7328 26.2551 63.2864 26.5931 61.0966 26.5931C56.8793 26.5931 55.2436 25.7009 55.2436 23.0245C55.2436 22.1053 55.4329 21.4024 55.8519 20.8617C56.7846 19.5911 58.4878 19.5371 59.9612 19.5371H65.4357V18.4422C65.4357 17.9826 65.4492 17.3608 64.9491 17.0904C64.4084 16.7931 63.1107 16.7255 61.2453 16.7255C59.6232 16.7255 59.0825 16.8471 58.7446 17.1445C58.4878 17.4284 58.4202 18.1178 58.3797 18.4016H56.0006C55.9871 17.9015 55.9466 17.5095 55.9466 17.2256C55.9466 16.7795 56.0277 16.4146 56.3926 16.1172C57.4605 15.198 60.3937 15.0764 61.4616 15.0764C62.8809 15.0764 65.7601 15.0899 66.9361 16.0091C67.4363 16.3875 67.639 16.8471 67.7606 17.4689C67.8688 18.0772 67.8688 18.9017 67.8688 20.1048V26.4309ZM51.4183 19.5235C51.4183 22.6055 50.2693 26.4309 43.1863 26.4309H34.1838V10.3453H42.4699C46.0655 10.3453 51.4048 10.6021 51.4048 17.4013V19.5235H51.4183ZM0.390625 34.2438H140.686V0.450684H0.390625V34.2438ZM61.4346 21.1051C59.6097 21.1051 59.015 21.1456 58.5554 21.3754C58.0958 21.6052 57.8525 22.1459 57.8525 23.1191C57.8525 23.8896 57.9877 24.2546 58.3526 24.4708C58.8798 24.8223 59.772 24.9575 61.2724 24.9575C62.7728 24.9575 63.6649 24.8764 64.2867 24.6331C65.3546 24.2546 65.4357 23.3895 65.4357 22.4568V21.1051H61.421H61.4346ZM61.4346 21.1051C59.6097 21.1051 59.015 21.1456 58.5554 21.3754C58.0958 21.6052 57.8525 22.1459 57.8525 23.1191C57.8525 23.8896 57.9877 24.2546 58.3526 24.4708C58.8798 24.8223 59.772 24.9575 61.2724 24.9575C62.7728 24.9575 63.6649 24.8764 64.2867 24.6331C65.3546 24.2546 65.4357 23.3895 65.4357 22.4568V21.1051H61.421H61.4346ZM61.4346 21.1051C59.6097 21.1051 59.015 21.1456 58.5554 21.3754C58.0958 21.6052 57.8525 22.1459 57.8525 23.1191C57.8525 23.8896 57.9877 24.2546 58.3526 24.4708C58.8798 24.8223 59.772 24.9575 61.2724 24.9575C62.7728 24.9575 63.6649 24.8764 64.2867 24.6331C65.3546 24.2546 65.4357 23.3895 65.4357 22.4568V21.1051H61.421H61.4346ZM61.4346 21.1051C59.6097 21.1051 59.015 21.1456 58.5554 21.3754C58.0958 21.6052 57.8525 22.1459 57.8525 23.1191C57.8525 23.8896 57.9877 24.2546 58.3526 24.4708C58.8798 24.8223 59.772 24.9575 61.2724 24.9575C62.7728 24.9575 63.6649 24.8764 64.2867 24.6331C65.3546 24.2546 65.4357 23.3895 65.4357 22.4568V21.1051H61.421H61.4346Z" fill="#001D47"/>
<path d="M161.193 24.5929H154.543V19.0779H161.517C164.491 19.0779 165.329 20.0241 165.329 22.0787C165.329 24.3766 163.707 24.5929 161.193 24.5929ZM154.543 12.1435H160.95C163.41 12.1435 164.748 12.3733 164.748 14.4009C164.748 16.7664 163.41 17.253 160.652 17.253H154.556V12.1435H154.543ZM164.059 18.0235V17.983C166.167 17.4423 167.303 16.3339 167.303 14.6172C167.303 11.7785 165.924 10.3457 162.018 10.3457H151.947V26.4448H162.423C165.951 26.4448 167.911 24.8497 167.911 21.903C167.911 19.9159 166.776 18.4561 164.059 18.0235Z" fill="#001D47"/>
<path d="M181.075 22.4567C181.075 23.3894 181.007 24.241 179.939 24.633C179.318 24.8763 178.425 24.9574 176.925 24.9574C175.425 24.9574 174.532 24.8087 174.005 24.4708C173.64 24.2545 173.505 23.8896 173.505 23.1191C173.505 22.1458 173.748 21.6052 174.235 21.3754C174.681 21.1591 175.262 21.105 177.114 21.105H181.088V22.4567H181.075ZM183.427 17.4824C183.305 16.8606 183.102 16.4145 182.589 16.0225C181.413 15.1033 178.534 15.0898 177.114 15.0898C176.033 15.0898 173.113 15.2115 172.045 16.1307C171.68 16.428 171.599 16.793 171.599 17.2391C171.599 17.5229 171.64 17.9014 171.667 18.4151H174.032C174.1 18.1312 174.14 17.4418 174.397 17.158C174.722 16.8606 175.262 16.7389 176.884 16.7389C178.75 16.7389 180.048 16.8065 180.602 17.1039C181.102 17.3878 181.061 17.996 181.061 18.4556V19.5505H175.6C174.127 19.5505 172.424 19.5911 171.491 20.8752C171.086 21.4159 170.883 22.1323 170.883 23.038C170.883 25.7144 172.518 26.6065 176.736 26.6065C178.939 26.6065 180.358 26.2551 181.237 25.5116L181.467 26.4443H183.508V20.1182C183.508 18.9287 183.508 18.0907 183.413 17.4824" fill="#001D47"/>
<path d="M200 19.9835V26.4312H197.581V20.2673C197.581 18.1451 197.486 17.6991 196.972 17.3071C196.486 16.9421 195.513 16.7123 194.026 16.7123C192.728 16.7123 191.39 16.8745 190.133 17.2259V26.4312H187.727V15.1578H189.889L190.079 15.9688C190.552 15.712 190.903 15.5093 191.43 15.3606C192.228 15.1173 193.242 14.9956 194.593 14.9956C196.134 14.9956 197.324 15.2389 198.243 15.6444C199.135 16.0229 199.622 16.7529 199.825 17.618C199.946 18.1992 199.987 18.7129 199.987 19.9835" fill="#001D47"/>
<path d="M216.531 26.4313H213.327L207.515 21.1055H206.636V26.4313H204.217V10.3457H206.636V19.4969H207.515L212.327 15.1714H215.152L209.529 20.1322L216.531 26.4313Z" fill="#001D47"/>
</svg>
