<svg width="330" height="271" viewBox="0 0 330 271" fill="none" xmlns="http://www.w3.org/2000/svg">
<path d="M91.6582 100.382H101.511L108.7 67.5235L99.4898 60.5103L91.6582 100.382Z" fill="#001D47"/>
<path d="M126.57 46.1101C132.704 51.0584 139.783 53.8758 147.78 53.7934V44.4735C140.234 44.3692 133.292 40.8543 128.772 34.8571C123.966 28.4754 121.654 18.3262 111.214 21.4457L87 31.5894V53.7879H96.3089V38.0314L104.519 34.879L100.461 55.5399L117.327 68.3691L117.294 68.4076L119.578 70.0881V100.371H128.887V65.1563L119.342 56.0506L122.044 41.9966L126.57 46.0992V46.1101Z" fill="#001D47"/>
<path d="M121.096 18.7051C134.875 19.7706 134.815 -1.98865 120.069 0.147725C110.134 1.58662 110.233 17.8648 121.096 18.7051Z" fill="#001D47"/>
<path d="M37.8 187.82H31.08V194.26C31.08 196.99 31.78 198.25 34.44 198.46V200H20.86V198.46C23.52 198.25 24.22 196.99 24.22 194.26V187.82H0.7V185.3L24.22 151H31.08V185.3H37.8V187.82ZM3.78 185.3H24.22V155.62L3.78 185.3ZM104.484 194.33C105.044 196.99 106.024 198.18 108.614 198.46V200H94.1938V198.46C96.5738 198.32 97.3438 196.92 96.7838 194.19L90.4138 161.43L77.2538 200H74.5238L60.1038 160.94L54.9238 194.26C54.5738 196.92 55.2038 198.18 57.8638 198.46V200H48.3438V198.46C51.0038 198.18 51.8438 196.99 52.2638 194.26L58.0038 157.09C58.4238 154.5 58.0738 152.75 55.4138 152.54V151H64.3038L78.1638 189.5L91.3238 151H99.5138V152.54C97.0638 152.75 96.2938 154.22 96.8538 157.16L104.484 194.33ZM124.093 152.54C121.503 152.75 120.803 153.94 120.803 156.67V194.26C120.803 196.99 121.503 198.18 124.093 198.46V200H110.023V198.46C112.683 198.18 113.313 196.99 113.313 194.26V156.67C113.313 153.94 112.683 152.75 110.023 152.54V151H124.093V152.54ZM162.454 151H171.764V152.54C169.104 152.75 168.404 153.94 168.404 156.67V200H164.064L132.844 160.1V194.26C132.844 196.99 133.544 198.18 136.134 198.46V200H126.894V198.46C129.484 198.18 130.184 196.99 130.184 194.26V156.67C130.184 153.94 129.484 152.75 126.894 152.54V151H135.504L165.744 189.57V156.67C165.744 153.94 165.044 152.75 162.454 152.54V151ZM193.505 171.37C202.255 176.48 208.485 180.61 206.105 190.06C204.005 198.04 196.655 200.7 189.375 200.7C183.005 200.7 177.685 198.95 173.135 195.73V185.86H174.465C176.985 193.91 181.745 198.46 188.395 198.81C195.115 199.16 198.475 195.66 199.245 191.25C200.435 184.39 194.835 181.38 188.395 177.74C181.325 173.75 173.695 168.99 175.795 159.61C177.335 152.75 183.215 150.23 189.865 150.23C195.255 150.23 199.245 152.12 203.865 155.2V164.65H202.535C200.435 155.97 196.375 152.4 190.775 152.19C185.315 151.91 182.515 154.71 182.165 158.98C181.605 165.07 187.135 167.66 193.505 171.37Z" fill="#001D47"/>
<path d="M10.696 233.336C8.75467 233.336 7.07467 232.916 5.656 232.076C4.256 231.217 3.17333 230.032 2.408 228.52C1.66133 226.989 1.288 225.225 1.288 223.228C1.288 221.212 1.66133 219.448 2.408 217.936C3.17333 216.405 4.256 215.211 5.656 214.352C7.07467 213.493 8.75467 213.064 10.696 213.064C13.0293 213.064 14.9333 213.643 16.408 214.8C17.8827 215.939 18.816 217.553 19.208 219.644H15.512C15.2507 218.543 14.7187 217.675 13.916 217.04C13.1133 216.405 12.0307 216.088 10.668 216.088C9.436 216.088 8.372 216.377 7.476 216.956C6.59867 217.516 5.91733 218.337 5.432 219.42C4.96533 220.484 4.732 221.753 4.732 223.228C4.732 224.703 4.96533 225.972 5.432 227.036C5.91733 228.081 6.59867 228.893 7.476 229.472C8.372 230.032 9.436 230.312 10.668 230.312C12.0307 230.312 13.1133 230.023 13.916 229.444C14.7187 228.847 15.2507 228.025 15.512 226.98H19.208C18.8347 228.959 17.9013 230.517 16.408 231.656C14.9333 232.776 13.0293 233.336 10.696 233.336ZM20.9344 233L28.1024 213.4H31.8544L39.0224 233H35.4664L29.9504 217.32L24.4344 233H20.9344ZM24.1264 228.38L25.0224 225.72H34.6824L35.5784 228.38H24.1264ZM41.7185 233V213.4H45.0785L54.5145 227.568V213.4H57.8745V233H54.5145L45.0785 218.86V233H41.7185ZM61.8161 233V213.4H65.1761L74.6121 227.568V213.4H77.9721V233H74.6121L65.1761 218.86V233H61.8161ZM90.8458 233.336C88.9604 233.336 87.2898 232.916 85.8338 232.076C84.3964 231.217 83.2671 230.032 82.4458 228.52C81.6244 226.989 81.2138 225.216 81.2138 223.2C81.2138 221.203 81.6244 219.448 82.4458 217.936C83.2671 216.405 84.3964 215.211 85.8338 214.352C87.2898 213.493 88.9604 213.064 90.8458 213.064C92.7684 213.064 94.4578 213.493 95.9138 214.352C97.3698 215.211 98.4991 216.405 99.3018 217.936C100.104 219.448 100.506 221.203 100.506 223.2C100.506 225.216 100.104 226.989 99.3018 228.52C98.4991 230.032 97.3698 231.217 95.9138 232.076C94.4578 232.916 92.7684 233.336 90.8458 233.336ZM90.8738 230.312C92.1244 230.312 93.2164 230.032 94.1498 229.472C95.0831 228.893 95.8018 228.072 96.3058 227.008C96.8098 225.944 97.0618 224.675 97.0618 223.2C97.0618 221.725 96.8098 220.456 96.3058 219.392C95.8018 218.328 95.0831 217.516 94.1498 216.956C93.2164 216.377 92.1244 216.088 90.8738 216.088C89.6231 216.088 88.5311 216.377 87.5978 216.956C86.6644 217.516 85.9364 218.328 85.4138 219.392C84.9098 220.456 84.6578 221.725 84.6578 223.2C84.6578 224.675 84.9098 225.944 85.4138 227.008C85.9364 228.072 86.6644 228.893 87.5978 229.472C88.5311 230.032 89.6231 230.312 90.8738 230.312ZM103.789 233V213.4H107.149L116.585 227.568V213.4H119.945V233H116.585L107.149 218.86V233H103.789ZM137.302 233.336C135.884 233.336 134.624 233.084 133.522 232.58C132.421 232.076 131.562 231.357 130.946 230.424C130.33 229.491 130.013 228.38 129.994 227.092H133.55C133.55 227.745 133.7 228.333 133.998 228.856C134.316 229.36 134.745 229.761 135.286 230.06C135.846 230.359 136.518 230.508 137.302 230.508C137.974 230.508 138.553 230.405 139.038 230.2C139.542 229.976 139.925 229.668 140.186 229.276C140.466 228.865 140.606 228.389 140.606 227.848C140.606 227.232 140.457 226.728 140.158 226.336C139.878 225.925 139.486 225.58 138.982 225.3C138.478 225.02 137.9 224.777 137.246 224.572C136.593 224.348 135.902 224.115 135.174 223.872C133.625 223.349 132.458 222.687 131.674 221.884C130.89 221.063 130.498 219.971 130.498 218.608C130.498 217.469 130.769 216.489 131.31 215.668C131.852 214.847 132.608 214.212 133.578 213.764C134.568 213.297 135.706 213.064 136.994 213.064C138.301 213.064 139.44 213.297 140.41 213.764C141.4 214.231 142.174 214.884 142.734 215.724C143.313 216.545 143.612 217.535 143.63 218.692H140.046C140.028 218.207 139.897 217.759 139.654 217.348C139.412 216.919 139.057 216.573 138.59 216.312C138.142 216.032 137.592 215.892 136.938 215.892C136.378 215.873 135.874 215.967 135.426 216.172C134.997 216.359 134.652 216.639 134.39 217.012C134.148 217.367 134.026 217.815 134.026 218.356C134.026 218.879 134.138 219.317 134.362 219.672C134.605 220.008 134.95 220.297 135.398 220.54C135.846 220.764 136.369 220.979 136.966 221.184C137.564 221.389 138.217 221.613 138.926 221.856C139.897 222.173 140.774 222.565 141.558 223.032C142.361 223.48 142.996 224.068 143.462 224.796C143.929 225.524 144.162 226.467 144.162 227.624C144.162 228.632 143.901 229.575 143.378 230.452C142.856 231.311 142.09 232.011 141.082 232.552C140.074 233.075 138.814 233.336 137.302 233.336ZM151.72 233V216.116H145.952V213.4H160.82V216.116H155.052V233H151.72ZM163.59 233V213.4H170.618C172.167 213.4 173.446 213.671 174.454 214.212C175.48 214.735 176.236 215.444 176.722 216.34C177.226 217.217 177.478 218.216 177.478 219.336C177.478 220.381 177.235 221.352 176.75 222.248C176.264 223.144 175.508 223.863 174.482 224.404C173.455 224.945 172.139 225.216 170.534 225.216H166.95V233H163.59ZM173.81 233L169.694 224.348H173.334L177.646 233H173.81ZM166.95 222.724H170.394C171.644 222.724 172.559 222.425 173.138 221.828C173.735 221.212 174.034 220.409 174.034 219.42C174.034 218.449 173.744 217.675 173.166 217.096C172.587 216.499 171.663 216.2 170.394 216.2H166.95V222.724ZM180.953 233V213.4H193.609V216.116H184.313V221.744H192.769V224.404H184.313V230.284H193.609V233H180.953ZM197.14 233V213.4H209.796V216.116H200.5V221.744H208.956V224.404H200.5V230.284H209.796V233H197.14ZM217.892 233V216.116H212.124V213.4H226.992V216.116H221.224V233H217.892Z" fill="#001D47"/>
<path d="M53.3897 267.205C50.0636 267.205 47.2942 265.065 46.5567 261.655H60.2088C59.4851 265.079 56.7018 267.205 53.3757 267.205M53.3897 252.795C56.66 252.795 59.4155 255.492 60.1809 258.217H46.5845C47.3499 255.477 50.1054 252.795 53.3757 252.795M67 258.231H63.9662C63.1451 253.437 58.7197 249 53.3897 249C48.0596 249 43.6481 253.437 42.8131 258.231H39V261.655H42.7992C43.5785 267.119 48.0318 271 53.3897 271C58.7475 271 63.2147 267.119 63.9801 261.655H67V258.231Z" fill="#FFCD00"/>
<path d="M85.3897 267.205C82.0636 267.205 79.2942 265.065 78.5567 261.655H92.2088C91.4851 265.079 88.7018 267.205 85.3757 267.205M85.3897 252.795C88.66 252.795 91.4155 255.492 92.1809 258.217H78.5845C79.3499 255.477 82.1054 252.795 85.3757 252.795M99 258.231H95.9662C95.1451 253.437 90.7197 249 85.3897 249C80.0596 249 75.6481 253.437 74.8131 258.231H71V261.655H74.7992C75.5785 267.119 80.0318 271 85.3897 271C90.7475 271 95.2147 267.119 95.9801 261.655H99V258.231Z" fill="#007934"/>
<g clip-path="url(#clip0_1136_1470)">
<path d="M10.6978 251L19.6075 255.109H4V257.728H20.1682L12.4579 261.272H4V263.907H12.5202L21.4299 268H27.3178L18.4081 263.907H34V261.272H18.3458L26.0561 257.728H34V255.109H25.4953L16.5857 251H10.6978Z" fill="#ED1C24"/>
</g>
<defs>
<clipPath id="clip0_1136_1470">
<rect width="30" height="17" fill="white" transform="translate(4 251)"/>
</clipPath>
</defs>
</svg>
