<svg width="330" height="267" viewBox="0 0 330 267" fill="none" xmlns="http://www.w3.org/2000/svg">
<path d="M133.603 6.7666V40.7319H81.482V6.7666C75.536 7.77204 71 12.9495 71 19.1843V65.8793C71 72.7151 76.449 78.2739 83.2386 78.4646V96.7878H91.2936V89.3915H123.785V96.7878H131.84V78.4646C138.63 78.2739 144.079 72.7151 144.079 65.8793V19.1843C144.079 12.9495 139.543 7.77204 133.597 6.77238L133.603 6.7666ZM81.3028 62.0021C81.3028 58.7604 83.932 56.1312 87.1737 56.1312C90.4153 56.1312 93.0445 58.7604 93.0445 62.0021C93.0445 65.2437 90.4153 67.8729 87.1737 67.8729C83.932 67.8729 81.3028 65.2437 81.3028 62.0021ZM91.2936 83.2087V78.4762H123.785V83.2087H91.2936ZM127.911 67.8729C124.67 67.8729 122.04 65.2437 122.04 62.0021C122.04 58.7604 124.67 56.1312 127.911 56.1312C131.153 56.1312 133.782 58.7604 133.782 62.0021C133.782 65.2437 131.153 67.8729 127.911 67.8729Z" fill="#001D47"/>
<path d="M131.486 6.58734C132.209 6.58734 132.908 6.65091 133.596 6.76647V0H81.4805V6.76647C82.1681 6.65091 82.8731 6.58734 83.5896 6.58734H131.486Z" fill="#001D47"/>
<path d="M19.74 165.13C30.17 165.13 37.03 171.57 37.03 180.67C37.03 190.26 29.68 196.7 18.69 196.7C12.18 196.7 5.81 193.41 3.85 190.75C3.08 189.63 1.82 187.53 2.94 185.29C3.85 183.54 6.72 182.63 8.54 184.17C9.94 185.36 10.08 187.6 10.08 189.21C10.01 192.36 13.86 194.81 18.69 194.81C26.11 194.81 29.47 188.44 29.47 181.02C29.47 173.81 25.9 167.93 19.18 167.44C14.7 167.16 10.71 169.33 8.75 171.15L6.86 170.8L8.75 147H34.09V152.39H10.57L9.31 168.35C11.76 166.67 15.12 165.13 19.74 165.13ZM104.757 190.33C105.317 192.99 106.297 194.18 108.887 194.46V196H94.4672V194.46C96.8472 194.32 97.6172 192.92 97.0572 190.19L90.6872 157.43L77.5272 196H74.7972L60.3772 156.94L55.1972 190.26C54.8472 192.92 55.4772 194.18 58.1372 194.46V196H48.6172V194.46C51.2772 194.18 52.1172 192.99 52.5372 190.26L58.2772 153.09C58.6972 150.5 58.3472 148.75 55.6872 148.54V147H64.5772L78.4372 185.5L91.5972 147H99.7872V148.54C97.3372 148.75 96.5672 150.22 97.1272 153.16L104.757 190.33ZM124.366 148.54C121.776 148.75 121.076 149.94 121.076 152.67V190.26C121.076 192.99 121.776 194.18 124.366 194.46V196H110.296V194.46C112.956 194.18 113.586 192.99 113.586 190.26V152.67C113.586 149.94 112.956 148.75 110.296 148.54V147H124.366V148.54ZM162.728 147H172.038V148.54C169.378 148.75 168.678 149.94 168.678 152.67V196H164.338L133.118 156.1V190.26C133.118 192.99 133.818 194.18 136.408 194.46V196H127.168V194.46C129.758 194.18 130.458 192.99 130.458 190.26V152.67C130.458 149.94 129.758 148.75 127.168 148.54V147H135.778L166.018 185.57V152.67C166.018 149.94 165.318 148.75 162.728 148.54V147ZM193.779 167.37C202.529 172.48 208.759 176.61 206.379 186.06C204.279 194.04 196.929 196.7 189.649 196.7C183.279 196.7 177.959 194.95 173.409 191.73V181.86H174.739C177.259 189.91 182.019 194.46 188.669 194.81C195.389 195.16 198.749 191.66 199.519 187.25C200.709 180.39 195.109 177.38 188.669 173.74C181.599 169.75 173.969 164.99 176.069 155.61C177.609 148.75 183.489 146.23 190.139 146.23C195.529 146.23 199.519 148.12 204.139 151.2V160.65H202.809C200.709 151.97 196.649 148.4 191.049 148.19C185.589 147.91 182.789 150.71 182.439 154.98C181.879 161.07 187.409 163.66 193.779 167.37Z" fill="#001D47"/>
<path d="M1.988 229V209.4H5.348V226.368H14.084V229H1.988ZM24.5098 229.336C22.6245 229.336 20.9538 228.916 19.4978 228.076C18.0605 227.217 16.9312 226.032 16.1098 224.52C15.2885 222.989 14.8778 221.216 14.8778 219.2C14.8778 217.203 15.2885 215.448 16.1098 213.936C16.9312 212.405 18.0605 211.211 19.4978 210.352C20.9538 209.493 22.6245 209.064 24.5098 209.064C26.4325 209.064 28.1218 209.493 29.5778 210.352C31.0338 211.211 32.1632 212.405 32.9658 213.936C33.7685 215.448 34.1698 217.203 34.1698 219.2C34.1698 221.216 33.7685 222.989 32.9658 224.52C32.1632 226.032 31.0338 227.217 29.5778 228.076C28.1218 228.916 26.4325 229.336 24.5098 229.336ZM24.5378 226.312C25.7885 226.312 26.8805 226.032 27.8138 225.472C28.7472 224.893 29.4658 224.072 29.9698 223.008C30.4738 221.944 30.7258 220.675 30.7258 219.2C30.7258 217.725 30.4738 216.456 29.9698 215.392C29.4658 214.328 28.7472 213.516 27.8138 212.956C26.8805 212.377 25.7885 212.088 24.5378 212.088C23.2872 212.088 22.1952 212.377 21.2618 212.956C20.3285 213.516 19.6005 214.328 19.0778 215.392C18.5738 216.456 18.3218 217.725 18.3218 219.2C18.3218 220.675 18.5738 221.944 19.0778 223.008C19.6005 224.072 20.3285 224.893 21.2618 225.472C22.1952 226.032 23.2872 226.312 24.5378 226.312ZM37.4528 229V209.4H40.8128L50.2488 223.568V209.4H53.6088V229H50.2488L40.8128 214.86V229H37.4528ZM57.5505 229V209.4H63.8785C66.1558 209.4 68.0318 209.801 69.5065 210.604C70.9998 211.407 72.1012 212.545 72.8105 214.02C73.5385 215.476 73.9025 217.212 73.9025 219.228C73.9025 221.207 73.5385 222.933 72.8105 224.408C72.1012 225.864 70.9998 226.993 69.5065 227.796C68.0318 228.599 66.1558 229 63.8785 229H57.5505ZM60.9105 226.144H63.7105C65.4092 226.144 66.7438 225.873 67.7145 225.332C68.7038 224.772 69.4038 223.979 69.8145 222.952C70.2438 221.907 70.4585 220.665 70.4585 219.228C70.4585 217.772 70.2438 216.531 69.8145 215.504C69.4038 214.459 68.7038 213.656 67.7145 213.096C66.7438 212.517 65.4092 212.228 63.7105 212.228H60.9105V226.144ZM86.1153 229.336C84.23 229.336 82.5593 228.916 81.1033 228.076C79.666 227.217 78.5366 226.032 77.7153 224.52C76.894 222.989 76.4833 221.216 76.4833 219.2C76.4833 217.203 76.894 215.448 77.7153 213.936C78.5366 212.405 79.666 211.211 81.1033 210.352C82.5593 209.493 84.23 209.064 86.1153 209.064C88.038 209.064 89.7273 209.493 91.1833 210.352C92.6393 211.211 93.7686 212.405 94.5713 213.936C95.374 215.448 95.7753 217.203 95.7753 219.2C95.7753 221.216 95.374 222.989 94.5713 224.52C93.7686 226.032 92.6393 227.217 91.1833 228.076C89.7273 228.916 88.038 229.336 86.1153 229.336ZM86.1433 226.312C87.394 226.312 88.486 226.032 89.4193 225.472C90.3526 224.893 91.0713 224.072 91.5753 223.008C92.0793 221.944 92.3313 220.675 92.3313 219.2C92.3313 217.725 92.0793 216.456 91.5753 215.392C91.0713 214.328 90.3526 213.516 89.4193 212.956C88.486 212.377 87.394 212.088 86.1433 212.088C84.8926 212.088 83.8006 212.377 82.8673 212.956C81.934 213.516 81.206 214.328 80.6833 215.392C80.1793 216.456 79.9273 217.725 79.9273 219.2C79.9273 220.675 80.1793 221.944 80.6833 223.008C81.206 224.072 81.934 224.893 82.8673 225.472C83.8006 226.032 84.8926 226.312 86.1433 226.312ZM99.0583 229V209.4H102.418L111.854 223.568V209.4H115.214V229H111.854L102.418 214.86V229H99.0583ZM125.992 229V209.4H133.664C135.045 209.4 136.193 209.615 137.108 210.044C138.041 210.473 138.741 211.071 139.208 211.836C139.675 212.583 139.908 213.451 139.908 214.44C139.908 215.429 139.693 216.26 139.264 216.932C138.835 217.604 138.265 218.117 137.556 218.472C136.865 218.827 136.109 219.041 135.288 219.116L135.708 218.808C136.585 218.827 137.369 219.06 138.06 219.508C138.769 219.956 139.329 220.544 139.74 221.272C140.151 221.981 140.356 222.775 140.356 223.652C140.356 224.679 140.104 225.603 139.6 226.424C139.115 227.227 138.396 227.861 137.444 228.328C136.492 228.776 135.325 229 133.944 229H125.992ZM129.352 226.256H133.44C134.541 226.256 135.4 225.995 136.016 225.472C136.632 224.949 136.94 224.221 136.94 223.288C136.94 222.355 136.623 221.617 135.988 221.076C135.353 220.516 134.485 220.236 133.384 220.236H129.352V226.256ZM129.352 217.688H133.188C134.271 217.688 135.092 217.445 135.652 216.96C136.212 216.456 136.492 215.765 136.492 214.888C136.492 214.029 136.212 213.357 135.652 212.872C135.092 212.368 134.261 212.116 133.16 212.116H129.352V217.688ZM143.574 229V209.4H150.602C152.151 209.4 153.43 209.671 154.438 210.212C155.465 210.735 156.221 211.444 156.706 212.34C157.21 213.217 157.462 214.216 157.462 215.336C157.462 216.381 157.219 217.352 156.734 218.248C156.249 219.144 155.493 219.863 154.466 220.404C153.439 220.945 152.123 221.216 150.518 221.216H146.934V229H143.574ZM153.794 229L149.678 220.348H153.318L157.63 229H153.794ZM146.934 218.724H150.378C151.629 218.724 152.543 218.425 153.122 217.828C153.719 217.212 154.018 216.409 154.018 215.42C154.018 214.449 153.729 213.675 153.15 213.096C152.571 212.499 151.647 212.2 150.378 212.2H146.934V218.724ZM160.937 229V209.4H164.297V229H160.937ZM168.238 229V209.4H174.566C176.843 209.4 178.719 209.801 180.194 210.604C181.687 211.407 182.789 212.545 183.498 214.02C184.226 215.476 184.59 217.212 184.59 219.228C184.59 221.207 184.226 222.933 183.498 224.408C182.789 225.864 181.687 226.993 180.194 227.796C178.719 228.599 176.843 229 174.566 229H168.238ZM171.598 226.144H174.398C176.097 226.144 177.431 225.873 178.402 225.332C179.391 224.772 180.091 223.979 180.502 222.952C180.931 221.907 181.146 220.665 181.146 219.228C181.146 217.772 180.931 216.531 180.502 215.504C180.091 214.459 179.391 213.656 178.402 213.096C177.431 212.517 176.097 212.228 174.398 212.228H171.598V226.144ZM196.411 229.336C194.563 229.336 192.939 228.916 191.539 228.076C190.157 227.236 189.084 226.069 188.319 224.576C187.553 223.064 187.171 221.3 187.171 219.284C187.171 217.287 187.563 215.523 188.347 213.992C189.131 212.443 190.251 211.239 191.707 210.38C193.181 209.503 194.927 209.064 196.943 209.064C199.22 209.064 201.105 209.615 202.599 210.716C204.111 211.799 205.091 213.311 205.539 215.252H201.759C201.479 214.281 200.928 213.525 200.107 212.984C199.285 212.443 198.221 212.172 196.915 212.172C195.589 212.172 194.451 212.461 193.499 213.04C192.565 213.6 191.847 214.421 191.343 215.504C190.857 216.568 190.615 217.837 190.615 219.312C190.615 220.787 190.857 222.056 191.343 223.12C191.847 224.184 192.556 224.996 193.471 225.556C194.385 226.097 195.459 226.368 196.691 226.368C198.52 226.368 199.901 225.855 200.835 224.828C201.768 223.801 202.319 222.467 202.487 220.824H197.419V218.276H205.875V229H202.795L202.515 226.312C202.085 226.947 201.591 227.497 201.031 227.964C200.471 228.412 199.808 228.757 199.043 229C198.296 229.224 197.419 229.336 196.411 229.336ZM209.5 229V209.4H222.156V212.116H212.86V217.744H221.316V220.404H212.86V226.284H222.156V229H209.5Z" fill="#001D47"/>
<path d="M53.3897 263.205C50.0636 263.205 47.2942 261.065 46.5567 257.655H60.2088C59.4851 261.079 56.7018 263.205 53.3757 263.205M53.3897 248.795C56.66 248.795 59.4155 251.492 60.1809 254.217H46.5845C47.3499 251.477 50.1054 248.795 53.3757 248.795M67 254.231H63.9662C63.1451 249.437 58.7197 245 53.3897 245C48.0596 245 43.6481 249.437 42.8131 254.231H39V257.655H42.7992C43.5785 263.119 48.0318 267 53.3897 267C58.7475 267 63.2147 263.119 63.9801 257.655H67V254.231Z" fill="black"/>
<path d="M85.3897 263.205C82.0636 263.205 79.2942 261.065 78.5567 257.655H92.2088C91.4851 261.079 88.7018 263.205 85.3757 263.205M85.3897 248.795C88.66 248.795 91.4155 251.492 92.1809 254.217H78.5845C79.3499 251.477 82.1054 248.795 85.3757 248.795M99 254.231H95.9662C95.1451 249.437 90.7197 245 85.3897 245C80.0596 245 75.6481 249.437 74.8131 254.231H71V257.655H74.7992C75.5785 263.119 80.0318 267 85.3897 267C90.7475 267 95.2147 263.119 95.9801 257.655H99V254.231Z" fill="#79858D"/>
<g clip-path="url(#clip0_1136_1471)">
<path d="M10.6978 247L19.6075 251.109H4V253.728H20.1682L12.4579 257.272H4V259.907H12.5202L21.4299 264H27.3178L18.4081 259.907H34V257.272H18.3458L26.0561 253.728H34V251.109H25.4953L16.5857 247H10.6978Z" fill="#ED1C24"/>
</g>
<defs>
<clipPath id="clip0_1136_1471">
<rect width="30" height="17" fill="white" transform="translate(4 247)"/>
</clipPath>
</defs>
</svg>
