<svg width="330" height="278" viewBox="0 0 330 278" fill="none" xmlns="http://www.w3.org/2000/svg">
<path d="M13.93 201.26C13.93 203.99 14.63 205.25 17.22 205.46V207H3.71V205.46C6.3 205.25 7 203.99 7 201.26V165.28C6.02 165.28 4.41 165.28 2.8 165.28V163.74L12.67 158H13.93V201.26ZM50.9775 196.36H52.3075L50.9775 207H18.9875V205.25C32.0075 191.81 41.8775 184.53 42.6475 171.3C43.0675 164.09 40.1975 159.4 34.5275 159.19C29.6275 158.98 27.1775 161.43 27.1775 164.58C27.1775 167.45 26.8975 168.78 25.8475 169.55C24.0975 170.88 21.2975 169.97 20.5975 168.5C19.6875 166.61 20.5275 164.44 21.4375 163.04C23.3975 160.03 27.8775 157.3 34.5275 157.3C43.5575 157.3 51.0475 161.78 50.4875 171.3C49.8575 183.13 37.3275 192.65 26.4775 201.61H41.5275C47.9675 201.61 49.8575 199.93 50.9775 196.36ZM119.988 201.33C120.548 203.99 121.528 205.18 124.118 205.46V207H109.698V205.46C112.078 205.32 112.848 203.92 112.288 201.19L105.918 168.43L92.7577 207H90.0277L75.6077 167.94L70.4277 201.26C70.0777 203.92 70.7077 205.18 73.3677 205.46V207H63.8477V205.46C66.5077 205.18 67.3477 203.99 67.7677 201.26L73.5077 164.09C73.9277 161.5 73.5777 159.75 70.9177 159.54V158H79.8077L93.6677 196.5L106.828 158H115.018V159.54C112.568 159.75 111.798 161.22 112.358 164.16L119.988 201.33ZM139.597 159.54C137.007 159.75 136.307 160.94 136.307 163.67V201.26C136.307 203.99 137.007 205.18 139.597 205.46V207H125.527V205.46C128.187 205.18 128.817 203.99 128.817 201.26V163.67C128.817 160.94 128.187 159.75 125.527 159.54V158H139.597V159.54ZM177.958 158H187.268V159.54C184.608 159.75 183.908 160.94 183.908 163.67V207H179.568L148.348 167.1V201.26C148.348 203.99 149.048 205.18 151.638 205.46V207H142.398V205.46C144.988 205.18 145.688 203.99 145.688 201.26V163.67C145.688 160.94 144.988 159.75 142.398 159.54V158H151.008L181.248 196.57V163.67C181.248 160.94 180.548 159.75 177.958 159.54V158ZM209.009 178.37C217.759 183.48 223.989 187.61 221.609 197.06C219.509 205.04 212.159 207.7 204.879 207.7C198.509 207.7 193.189 205.95 188.639 202.73V192.86H189.969C192.489 200.91 197.249 205.46 203.899 205.81C210.619 206.16 213.979 202.66 214.749 198.25C215.939 191.39 210.339 188.38 203.899 184.74C196.829 180.75 189.199 175.99 191.299 166.61C192.839 159.75 198.719 157.23 205.369 157.23C210.759 157.23 214.749 159.12 219.369 162.2V171.65H218.039C215.939 162.97 211.879 159.4 206.279 159.19C200.819 158.91 198.019 161.71 197.669 165.98C197.109 172.07 202.639 174.66 209.009 178.37Z" fill="#001D47"/>
<path d="M1.988 240V220.4H5.964L12.236 233.056L18.452 220.4H22.456V240H19.096V226.168L13.552 237.256H10.92L5.348 226.196V240H1.988ZM35.3653 240.336C33.48 240.336 31.8093 239.916 30.3533 239.076C28.916 238.217 27.7866 237.032 26.9653 235.52C26.144 233.989 25.7333 232.216 25.7333 230.2C25.7333 228.203 26.144 226.448 26.9653 224.936C27.7866 223.405 28.916 222.211 30.3533 221.352C31.8093 220.493 33.48 220.064 35.3653 220.064C37.288 220.064 38.9773 220.493 40.4333 221.352C41.8893 222.211 43.0186 223.405 43.8213 224.936C44.624 226.448 45.0253 228.203 45.0253 230.2C45.0253 232.216 44.624 233.989 43.8213 235.52C43.0186 237.032 41.8893 238.217 40.4333 239.076C38.9773 239.916 37.288 240.336 35.3653 240.336ZM35.3933 237.312C36.644 237.312 37.736 237.032 38.6693 236.472C39.6026 235.893 40.3213 235.072 40.8253 234.008C41.3293 232.944 41.5813 231.675 41.5813 230.2C41.5813 228.725 41.3293 227.456 40.8253 226.392C40.3213 225.328 39.6026 224.516 38.6693 223.956C37.736 223.377 36.644 223.088 35.3933 223.088C34.1426 223.088 33.0506 223.377 32.1173 223.956C31.184 224.516 30.456 225.328 29.9333 226.392C29.4293 227.456 29.1773 228.725 29.1773 230.2C29.1773 231.675 29.4293 232.944 29.9333 234.008C30.456 235.072 31.184 235.893 32.1173 236.472C33.0506 237.032 34.1426 237.312 35.3933 237.312ZM57.2403 240.336C55.355 240.336 53.6843 239.916 52.2283 239.076C50.791 238.217 49.6616 237.032 48.8403 235.52C48.019 233.989 47.6083 232.216 47.6083 230.2C47.6083 228.203 48.019 226.448 48.8403 224.936C49.6616 223.405 50.791 222.211 52.2283 221.352C53.6843 220.493 55.355 220.064 57.2403 220.064C59.163 220.064 60.8523 220.493 62.3083 221.352C63.7643 222.211 64.8936 223.405 65.6963 224.936C66.499 226.448 66.9003 228.203 66.9003 230.2C66.9003 232.216 66.499 233.989 65.6963 235.52C64.8936 237.032 63.7643 238.217 62.3083 239.076C60.8523 239.916 59.163 240.336 57.2403 240.336ZM57.2683 237.312C58.519 237.312 59.611 237.032 60.5443 236.472C61.4776 235.893 62.1963 235.072 62.7003 234.008C63.2043 232.944 63.4563 231.675 63.4563 230.2C63.4563 228.725 63.2043 227.456 62.7003 226.392C62.1963 225.328 61.4776 224.516 60.5443 223.956C59.611 223.377 58.519 223.088 57.2683 223.088C56.0176 223.088 54.9256 223.377 53.9923 223.956C53.059 224.516 52.331 225.328 51.8083 226.392C51.3043 227.456 51.0523 228.725 51.0523 230.2C51.0523 231.675 51.3043 232.944 51.8083 234.008C52.331 235.072 53.059 235.893 53.9923 236.472C54.9256 237.032 56.0176 237.312 57.2683 237.312ZM70.1833 240V220.4H77.2113C78.7606 220.4 80.0393 220.671 81.0473 221.212C82.074 221.735 82.83 222.444 83.3153 223.34C83.8193 224.217 84.0713 225.216 84.0713 226.336C84.0713 227.381 83.8286 228.352 83.3433 229.248C82.858 230.144 82.102 230.863 81.0753 231.404C80.0486 231.945 78.7326 232.216 77.1273 232.216H73.5433V240H70.1833ZM80.4033 240L76.2873 231.348H79.9273L84.2393 240H80.4033ZM73.5433 229.724H76.9873C78.238 229.724 79.1526 229.425 79.7313 228.828C80.3286 228.212 80.6273 227.409 80.6273 226.42C80.6273 225.449 80.338 224.675 79.7593 224.096C79.1806 223.499 78.2566 223.2 76.9873 223.2H73.5433V229.724ZM96.0866 240.336C94.2386 240.336 92.6146 239.916 91.2146 239.076C89.8333 238.236 88.7599 237.069 87.9946 235.576C87.2293 234.064 86.8466 232.3 86.8466 230.284C86.8466 228.287 87.2386 226.523 88.0226 224.992C88.8066 223.443 89.9266 222.239 91.3826 221.38C92.8573 220.503 94.6026 220.064 96.6186 220.064C98.8959 220.064 100.781 220.615 102.275 221.716C103.787 222.799 104.767 224.311 105.215 226.252H101.435C101.155 225.281 100.604 224.525 99.7826 223.984C98.9613 223.443 97.8973 223.172 96.5906 223.172C95.2653 223.172 94.1266 223.461 93.1746 224.04C92.2413 224.6 91.5226 225.421 91.0186 226.504C90.5333 227.568 90.2906 228.837 90.2906 230.312C90.2906 231.787 90.5333 233.056 91.0186 234.12C91.5226 235.184 92.2319 235.996 93.1466 236.556C94.0613 237.097 95.1346 237.368 96.3666 237.368C98.1959 237.368 99.5773 236.855 100.511 235.828C101.444 234.801 101.995 233.467 102.163 231.824H97.0946V229.276H105.551V240H102.471L102.191 237.312C101.761 237.947 101.267 238.497 100.707 238.964C100.147 239.412 99.4839 239.757 98.7186 240C97.9719 240.224 97.0946 240.336 96.0866 240.336ZM107.888 240L115.056 220.4H118.808L125.976 240H122.42L116.904 224.32L111.388 240H107.888ZM111.08 235.38L111.976 232.72H121.636L122.532 235.38H111.08ZM131.13 240V223.116H125.362V220.4H140.23V223.116H134.462V240H131.13ZM143 240V220.4H155.656V223.116H146.36V228.744H154.816V231.404H146.36V237.284H155.656V240H143Z" fill="#001D47"/>
<path d="M113 0V139" stroke="#001D47" stroke-width="4.5"/>
<path d="M53.3897 274.205C50.0636 274.205 47.2942 272.065 46.5567 268.655H60.2088C59.4851 272.079 56.7018 274.205 53.3757 274.205M53.3897 259.795C56.66 259.795 59.4155 262.492 60.1809 265.217H46.5845C47.3499 262.477 50.1054 259.795 53.3757 259.795M67 265.231H63.9662C63.1451 260.437 58.7197 256 53.3897 256C48.0596 256 43.6481 260.437 42.8131 265.231H39V268.655H42.7992C43.5785 274.119 48.0318 278 53.3897 278C58.7475 278 63.2147 274.119 63.9801 268.655H67V265.231Z" fill="#EA9BAD"/>
<path d="M119.39 274.205C116.064 274.205 113.294 272.065 112.557 268.655H126.209C125.485 272.079 122.702 274.205 119.376 274.205M119.39 259.795C122.66 259.795 125.416 262.492 126.181 265.217H112.584C113.35 262.477 116.105 259.795 119.376 259.795M133 265.231H129.966C129.145 260.437 124.72 256 119.39 256C114.06 256 109.648 260.437 108.813 265.231H105V268.655H108.799C109.579 274.119 114.032 278 119.39 278C124.748 278 129.215 274.119 129.98 268.655H133V265.231Z" fill="black"/>
<path d="M85.3897 274.205C82.0636 274.205 79.2942 272.065 78.5567 268.655H92.2088C91.4851 272.079 88.7018 274.205 85.3757 274.205M85.3897 259.795C88.66 259.795 91.4155 262.492 92.1809 265.217H78.5845C79.3499 262.477 82.1054 259.795 85.3757 259.795M99 265.231H95.9662C95.1451 260.437 90.7197 256 85.3897 256C80.0596 256 75.6481 260.437 74.8131 265.231H71V268.655H74.7992C75.5785 274.119 80.0318 278 85.3897 278C90.7475 278 95.2147 274.119 95.9801 268.655H99V265.231Z" fill="#8A134E"/>
<g clip-path="url(#clip0_1136_1476)">
<path d="M10.6978 258L19.6075 262.109H4V264.728H20.1682L12.4579 268.272H4V270.907H12.5202L21.4299 275H27.3178L18.4081 270.907H34V268.272H18.3458L26.0561 264.728H34V262.109H25.4953L16.5857 258H10.6978Z" fill="#ED1C24"/>
</g>
<defs>
<clipPath id="clip0_1136_1476">
<rect width="30" height="17" fill="white" transform="translate(4 258)"/>
</clipPath>
</defs>
</svg>
