<svg width="330" height="255" viewBox="0 0 330 255" fill="none" xmlns="http://www.w3.org/2000/svg">
<path d="M92.6649 7.1875H73.9199V13.4358H92.6649V7.1875Z" fill="#001D47"/>
<path d="M164.274 36.7638H153.48H164.287C159.425 32.2596 152.926 29.503 145.776 29.503C142.896 29.4968 140.12 29.946 137.517 30.7767L145.24 48.3071L148.723 56.2017L142.994 58.7245L138.539 48.621L131.806 33.3549C123.868 38.1113 118.551 46.7935 118.551 56.7247C118.551 71.7631 130.742 83.9526 145.782 83.9526C148.459 83.9526 151.043 83.5588 153.486 82.845C164.767 79.5223 173 69.0926 173 56.737C173 48.8486 169.64 41.7478 164.28 36.7761L164.274 36.7638Z" fill="#001D47"/>
<path d="M81.2602 33.5744L71.731 54.1245L68.975 52.8691L66.0406 51.5405L75.6005 30.8076C72.9614 29.9666 70.1562 29.5034 67.2341 29.5034C52.3221 29.5034 40.2276 41.3752 40.0185 56.093H40C40 56.2149 40.0062 56.3368 40.0123 56.4587C40.0123 56.4587 40.0123 56.4709 40.0123 56.477C40.2215 71.1948 52.3159 83.0605 67.2218 83.0605C82.1276 83.0605 94.2282 71.1887 94.4312 56.477H94.4497C94.4497 56.3551 94.4435 56.2332 94.4374 56.1113C94.4374 56.1113 94.4374 56.0991 94.4374 56.093C94.302 46.4579 89.0668 38.0477 81.2909 33.3855L81.211 33.5562L81.254 33.5744H81.2602Z" fill="#001D47"/>
<path d="M137.288 30.7027H137.294L124.062 0.183787L103.418 0.046875L103.375 6.38215L119.982 6.48795L125.128 18.3557L126.819 22.4506L127.879 24.6972L131.512 33.0737L137.215 30.5222L137.288 30.7027Z" fill="#001D47"/>
<path d="M81.3475 17.9056L75.7051 30.4452C77.7106 31.1055 79.6118 31.9838 81.3843 33.0739L85.3524 24.2533L128.37 24.3841L125.616 18.0365L81.3475 17.8994V17.9056Z" fill="#001D47"/>
<path d="M22.12 157.75C31.99 159.01 37.52 163.56 37.52 170.49C37.52 179.1 30.1 184.7 19.53 184.7C11.83 184.7 6.09 181.48 4.13 178.75C2.8 176.86 2.52 174.69 3.29 173.29C4.48 171.26 7.28 170.84 8.82 172.17C10.43 173.5 10.43 175.88 10.36 177.21C10.15 180.36 14 182.81 19.53 182.81C26.32 182.81 29.54 178.26 29.54 170.84C29.54 163.63 25.48 158.73 15.96 158.73V156.98C22.4 156.42 26.32 152.57 26.32 145.57C26.32 140.04 24.01 136.19 19.53 136.19C14.56 136.19 12.67 138.57 12.74 141.58C12.74 144.59 12.32 145.85 11.41 146.55C9.38 148.09 6.86 146.69 6.09 145.5C5.32 144.17 5.81 141.79 6.93 140.04C8.75 137.24 13.09 134.3 19.39 134.3C26.6 134.3 34.09 138.01 34.09 145.57C34.09 151.45 29.33 156.14 22.12 157.75ZM105.236 178.33C105.796 180.99 106.776 182.18 109.366 182.46V184H94.9457V182.46C97.3257 182.32 98.0957 180.92 97.5357 178.19L91.1657 145.43L78.0057 184H75.2757L60.8557 144.94L55.6757 178.26C55.3257 180.92 55.9557 182.18 58.6157 182.46V184H49.0957V182.46C51.7557 182.18 52.5957 180.99 53.0157 178.26L58.7557 141.09C59.1757 138.5 58.8257 136.75 56.1657 136.54V135H65.0557L78.9157 173.5L92.0757 135H100.266V136.54C97.8157 136.75 97.0457 138.22 97.6057 141.16L105.236 178.33ZM124.845 136.54C122.255 136.75 121.555 137.94 121.555 140.67V178.26C121.555 180.99 122.255 182.18 124.845 182.46V184H110.775V182.46C113.435 182.18 114.065 180.99 114.065 178.26V140.67C114.065 137.94 113.435 136.75 110.775 136.54V135H124.845V136.54ZM163.206 135H172.516V136.54C169.856 136.75 169.156 137.94 169.156 140.67V184H164.816L133.596 144.1V178.26C133.596 180.99 134.296 182.18 136.886 182.46V184H127.646V182.46C130.236 182.18 130.936 180.99 130.936 178.26V140.67C130.936 137.94 130.236 136.75 127.646 136.54V135H136.256L166.496 173.57V140.67C166.496 137.94 165.796 136.75 163.206 136.54V135ZM194.257 155.37C203.007 160.48 209.237 164.61 206.857 174.06C204.757 182.04 197.407 184.7 190.127 184.7C183.757 184.7 178.437 182.95 173.887 179.73V169.86H175.217C177.737 177.91 182.497 182.46 189.147 182.81C195.867 183.16 199.227 179.66 199.997 175.25C201.187 168.39 195.587 165.38 189.147 161.74C182.077 157.75 174.447 152.99 176.547 143.61C178.087 136.75 183.967 134.23 190.617 134.23C196.007 134.23 199.997 136.12 204.617 139.2V148.65H203.287C201.187 139.97 197.127 136.4 191.527 136.19C186.067 135.91 183.267 138.71 182.917 142.98C182.357 149.07 187.887 151.66 194.257 155.37Z" fill="#001D47"/>
<path d="M1.988 217V197.4H9.66C11.0413 197.4 12.1893 197.615 13.104 198.044C14.0373 198.473 14.7373 199.071 15.204 199.836C15.6707 200.583 15.904 201.451 15.904 202.44C15.904 203.429 15.6893 204.26 15.26 204.932C14.8307 205.604 14.2613 206.117 13.552 206.472C12.8613 206.827 12.1053 207.041 11.284 207.116L11.704 206.808C12.5813 206.827 13.3653 207.06 14.056 207.508C14.7653 207.956 15.3253 208.544 15.736 209.272C16.1467 209.981 16.352 210.775 16.352 211.652C16.352 212.679 16.1 213.603 15.596 214.424C15.1107 215.227 14.392 215.861 13.44 216.328C12.488 216.776 11.3213 217 9.94 217H1.988ZM5.348 214.256H9.436C10.5373 214.256 11.396 213.995 12.012 213.472C12.628 212.949 12.936 212.221 12.936 211.288C12.936 210.355 12.6187 209.617 11.984 209.076C11.3493 208.516 10.4813 208.236 9.38 208.236H5.348V214.256ZM5.348 205.688H9.184C10.2667 205.688 11.088 205.445 11.648 204.96C12.208 204.456 12.488 203.765 12.488 202.888C12.488 202.029 12.208 201.357 11.648 200.872C11.088 200.368 10.2573 200.116 9.156 200.116H5.348V205.688ZM19.57 217V197.4H22.93V214.368H31.666V217H19.57ZM33.6492 217L40.8172 197.4H44.5692L51.7372 217H48.1812L42.6652 201.32L37.1492 217H33.6492ZM36.8412 212.38L37.7372 209.72H47.3972L48.2932 212.38H36.8412ZM62.0202 217.336C60.0789 217.336 58.3989 216.916 56.9802 216.076C55.5802 215.217 54.4976 214.032 53.7322 212.52C52.9856 210.989 52.6122 209.225 52.6122 207.228C52.6122 205.212 52.9856 203.448 53.7322 201.936C54.4976 200.405 55.5802 199.211 56.9802 198.352C58.3989 197.493 60.0789 197.064 62.0202 197.064C64.3536 197.064 66.2576 197.643 67.7322 198.8C69.2069 199.939 70.1402 201.553 70.5322 203.644H66.8362C66.5749 202.543 66.0429 201.675 65.2402 201.04C64.4376 200.405 63.3549 200.088 61.9922 200.088C60.7602 200.088 59.6962 200.377 58.8002 200.956C57.9229 201.516 57.2416 202.337 56.7562 203.42C56.2896 204.484 56.0562 205.753 56.0562 207.228C56.0562 208.703 56.2896 209.972 56.7562 211.036C57.2416 212.081 57.9229 212.893 58.8002 213.472C59.6962 214.032 60.7602 214.312 61.9922 214.312C63.3549 214.312 64.4376 214.023 65.2402 213.444C66.0429 212.847 66.5749 212.025 66.8362 210.98H70.5322C70.1589 212.959 69.2256 214.517 67.7322 215.656C66.2576 216.776 64.3536 217.336 62.0202 217.336ZM73.82 217V197.4H77.18V205.492L84.572 197.4H88.744L81.492 205.184L88.912 217H84.824L79.112 207.76L77.18 209.86V217H73.82ZM91.5388 217V197.4H104.055V200.116H94.8988V205.856H102.375V208.516H94.8988V217H91.5388ZM106.933 217V197.4H113.961C115.511 197.4 116.789 197.671 117.797 198.212C118.824 198.735 119.58 199.444 120.065 200.34C120.569 201.217 120.821 202.216 120.821 203.336C120.821 204.381 120.579 205.352 120.093 206.248C119.608 207.144 118.852 207.863 117.825 208.404C116.799 208.945 115.483 209.216 113.877 209.216H110.293V217H106.933ZM117.153 217L113.037 208.348H116.677L120.989 217H117.153ZM110.293 206.724H113.737C114.988 206.724 115.903 206.425 116.481 205.828C117.079 205.212 117.377 204.409 117.377 203.42C117.377 202.449 117.088 201.675 116.509 201.096C115.931 200.499 115.007 200.2 113.737 200.2H110.293V206.724ZM124.297 217V197.4H127.657V217H124.297ZM130.309 217L137.477 197.4H141.229L148.397 217H144.841L139.325 201.32L133.809 217H130.309ZM133.501 212.38L134.397 209.72H144.057L144.953 212.38H133.501ZM151.093 217V197.4H158.121C159.671 197.4 160.949 197.671 161.957 198.212C162.984 198.735 163.74 199.444 164.225 200.34C164.729 201.217 164.981 202.216 164.981 203.336C164.981 204.381 164.739 205.352 164.253 206.248C163.768 207.144 163.012 207.863 161.985 208.404C160.959 208.945 159.643 209.216 158.037 209.216H154.453V217H151.093ZM161.313 217L157.197 208.348H160.837L165.149 217H161.313ZM154.453 206.724H157.897C159.148 206.724 160.063 206.425 160.641 205.828C161.239 205.212 161.537 204.409 161.537 203.42C161.537 202.449 161.248 201.675 160.669 201.096C160.091 200.499 159.167 200.2 157.897 200.2H154.453V206.724ZM175.037 217.336C173.618 217.336 172.358 217.084 171.257 216.58C170.155 216.076 169.297 215.357 168.681 214.424C168.065 213.491 167.747 212.38 167.729 211.092H171.285C171.285 211.745 171.434 212.333 171.733 212.856C172.05 213.36 172.479 213.761 173.021 214.06C173.581 214.359 174.253 214.508 175.037 214.508C175.709 214.508 176.287 214.405 176.773 214.2C177.277 213.976 177.659 213.668 177.921 213.276C178.201 212.865 178.341 212.389 178.341 211.848C178.341 211.232 178.191 210.728 177.893 210.336C177.613 209.925 177.221 209.58 176.717 209.3C176.213 209.02 175.634 208.777 174.981 208.572C174.327 208.348 173.637 208.115 172.909 207.872C171.359 207.349 170.193 206.687 169.409 205.884C168.625 205.063 168.233 203.971 168.233 202.608C168.233 201.469 168.503 200.489 169.045 199.668C169.586 198.847 170.342 198.212 171.313 197.764C172.302 197.297 173.441 197.064 174.729 197.064C176.035 197.064 177.174 197.297 178.145 197.764C179.134 198.231 179.909 198.884 180.469 199.724C181.047 200.545 181.346 201.535 181.365 202.692H177.781C177.762 202.207 177.631 201.759 177.389 201.348C177.146 200.919 176.791 200.573 176.325 200.312C175.877 200.032 175.326 199.892 174.673 199.892C174.113 199.873 173.609 199.967 173.161 200.172C172.731 200.359 172.386 200.639 172.125 201.012C171.882 201.367 171.761 201.815 171.761 202.356C171.761 202.879 171.873 203.317 172.097 203.672C172.339 204.008 172.685 204.297 173.133 204.54C173.581 204.764 174.103 204.979 174.701 205.184C175.298 205.389 175.951 205.613 176.661 205.856C177.631 206.173 178.509 206.565 179.293 207.032C180.095 207.48 180.73 208.068 181.197 208.796C181.663 209.524 181.897 210.467 181.897 211.624C181.897 212.632 181.635 213.575 181.113 214.452C180.59 215.311 179.825 216.011 178.817 216.552C177.809 217.075 176.549 217.336 175.037 217.336Z" fill="#001D47"/>
<path d="M53.3897 251.205C50.0636 251.205 47.2942 249.065 46.5567 245.655H60.2088C59.4851 249.079 56.7018 251.205 53.3757 251.205M53.3897 236.795C56.66 236.795 59.4155 239.492 60.1809 242.217H46.5845C47.3499 239.477 50.1054 236.795 53.3757 236.795M67 242.231H63.9662C63.1451 237.437 58.7197 233 53.3897 233C48.0596 233 43.6481 237.437 42.8131 242.231H39V245.655H42.7992C43.5785 251.119 48.0318 255 53.3897 255C58.7475 255 63.2147 251.119 63.9801 245.655H67V242.231Z" fill="#FFCD00"/>
<path d="M85.3897 251.205C82.0636 251.205 79.2942 249.065 78.5567 245.655H92.2088C91.4851 249.079 88.7018 251.205 85.3757 251.205M85.3897 236.795C88.66 236.795 91.4155 239.492 92.1809 242.217H78.5845C79.3499 239.477 82.1054 236.795 85.3757 236.795M99 242.231H95.9662C95.1451 237.437 90.7197 233 85.3897 233C80.0596 233 75.6481 237.437 74.8131 242.231H71V245.655H74.7992C75.5785 251.119 80.0318 255 85.3897 255C90.7475 255 95.2147 251.119 95.9801 245.655H99V242.231Z" fill="#007934"/>
<g clip-path="url(#clip0_1136_1472)">
<path d="M10.6978 235L19.6075 239.109H4V241.728H20.1682L12.4579 245.272H4V247.907H12.5202L21.4299 252H27.3178L18.4081 247.907H34V245.272H18.3458L26.0561 241.728H34V239.109H25.4953L16.5857 235H10.6978Z" fill="#ED1C24"/>
</g>
<defs>
<clipPath id="clip0_1136_1472">
<rect width="30" height="17" fill="white" transform="translate(4 235)"/>
</clipPath>
</defs>
</svg>
