<svg width="172" height="26" viewBox="0 0 172 26" fill="none" xmlns="http://www.w3.org/2000/svg">
<path d="M155.258 1.32861H160.034V21.036H171.96V25.1793H155.258V1.32861Z" fill="#133358"/>
<path d="M95.4609 13.2862C95.4609 5.60072 100.27 0.727539 107.257 0.727539C113.172 0.727539 116.843 4.30192 118.013 9.21804H112.904C112.131 6.81365 110.263 4.87082 107.257 4.87082C102.578 4.87082 100.313 8.91749 100.313 13.2862C100.313 17.6549 102.588 21.7445 107.257 21.7445C110.735 21.7445 112.807 19.0395 113.236 15.9267H118.281C117.583 21.5405 113.773 25.8556 107.257 25.8556C100.27 25.8556 95.4609 20.9072 95.4609 13.2969" fill="#133358"/>
<path d="M86.7219 1.32861H81.9453V25.19H86.7219V1.32861Z" fill="#133358"/>
<path d="M56.7188 1.32861H61.4953V21.036H73.4314V25.1793H56.7188V1.32861Z" fill="#133358"/>
<path d="M30.0781 1.32861H47.8642V5.43969H34.8654V10.9784H46.9196V15.0251H34.8654V21.0682H47.9286V25.1793H30.0781V1.32861Z" fill="#133358"/>
<path d="M15.9844 20.0487V25.1795H20.761V16.6997L15.9844 20.0487Z" fill="#133358"/>
<path d="M142.016 23.3118L142.681 25.1795H147.855L146.03 20.4995L142.016 23.3118Z" fill="#133358"/>
<path d="M132.525 14.9284L135.735 5.70804H135.864L139.073 14.9284H132.525ZM140.479 18.9429H145.428L138.569 1.32861H133.019L123.734 25.19H128.908L131.109 18.9429H140.469H140.479Z" fill="#133358"/>
<path d="M15.9868 1.32861V10.8818H4.99533H0.21875V25.1793H4.99533V15.1539H15.9868V15.1646H20.7634V1.32861H15.9868Z" fill="#133358"/>
<path d="M0.21875 1.32861V9.33609L4.99533 5.98712V1.32861H0.21875Z" fill="#133358"/>
</svg>
