<svg width="90" height="78" viewBox="0 0 90 78" fill="none" xmlns="http://www.w3.org/2000/svg">
<path d="M24.3552 33.2289V28.5596C24.3552 27.7009 24.4518 27.5614 25.2676 27.2823C25.3534 27.2501 25.4393 27.2179 25.5359 27.2072C26.0189 27.175 26.502 27.1535 27.0172 27.132C27.0172 26.4773 27.0172 25.7688 27.0172 25.0604C27.0172 25.0067 26.8884 24.9209 26.8133 24.9101C25.9223 24.8135 25.1173 24.996 24.4411 25.6186C24.3767 25.6722 24.3123 25.7152 24.1942 25.801V25.1033H21.8542V33.626H24.3659V33.2396L24.3552 33.2289ZM15.7037 6.53371V15.2174C15.7037 15.5502 15.693 15.8937 15.7144 16.2264C15.7896 17.1817 16.1223 17.9868 17.0991 18.3302C17.9578 18.6308 18.838 18.5235 19.7074 18.3088V16.1942C19.525 16.2371 19.3532 16.2801 19.1815 16.3015C18.5804 16.3982 18.2798 16.1405 18.2476 15.5287C18.2476 15.4428 18.2476 15.3462 18.2476 15.2496V6.53371H15.7037ZM36.0981 15.6253C35.4111 15.9688 34.6812 16.1298 33.9298 16.162C32.8779 16.2049 31.8904 15.5609 31.665 14.6593C31.2678 13.0599 32.4807 11.6967 34.1123 11.9007C34.81 11.9865 35.454 12.2119 36.0766 12.5232C36.1517 12.5554 36.2269 12.5876 36.3342 12.6306C36.3342 11.847 36.3342 11.1171 36.3342 10.3872C36.3342 10.3013 36.2269 10.1725 36.1303 10.1296C35.3037 9.70021 34.4128 9.51773 33.479 9.54993C31.7508 9.61434 30.3984 10.355 29.5933 11.8792C28.7883 13.3819 28.7883 14.9598 29.7329 16.4089C31.2786 18.7811 34.123 18.8991 36.1947 17.9546C36.2698 17.9224 36.3342 17.8043 36.3342 17.7184C36.3449 17.01 36.3342 16.2908 36.3342 15.5287C36.2269 15.5716 36.1625 15.5931 36.0981 15.6253ZM53.5084 10.3872C53.5084 10.194 53.4548 10.1081 53.2616 10.033C52.2204 9.61433 51.1362 9.49626 50.0307 9.58213C49.2793 9.64654 48.5923 9.90415 48.0019 10.4086C46.8749 11.3747 46.9286 13.5537 48.3776 14.2621C48.9036 14.5197 49.4618 14.7129 50.0092 14.9276C50.4063 15.0886 50.8035 15.2389 51.1899 15.4106C51.426 15.518 51.5441 15.7112 51.5119 15.9795C51.4797 16.2371 51.2973 16.3337 51.0826 16.3982C50.9538 16.4411 50.825 16.4626 50.6961 16.4733C49.5154 16.5806 48.4742 16.2157 47.5296 15.518C47.4438 15.4536 47.3579 15.3892 47.2291 15.3033C47.2291 16.0976 47.2291 16.8275 47.2291 17.5681C47.2291 17.6433 47.3365 17.7506 47.4223 17.7936C48.442 18.3302 49.5476 18.5342 50.6961 18.4913C51.5549 18.4591 52.3706 18.2873 53.0791 17.7614C54.3135 16.8382 54.4316 14.9813 53.326 13.9616C52.8751 13.5429 52.3277 13.3068 51.7588 13.1136C51.2221 12.9311 50.6747 12.7594 50.138 12.5662C49.9019 12.4803 49.7301 12.33 49.7623 12.0402C49.7945 11.7718 49.9877 11.6323 50.2131 11.6216C50.6961 11.6001 51.1899 11.5786 51.6622 11.6645C52.274 11.7933 52.8537 12.0295 53.4762 12.2227C53.4762 11.6323 53.4762 10.999 53.4762 10.3764M10.7983 23.4825C11.1633 23.5684 11.5282 23.6865 11.9468 23.7938C11.9468 23.1498 11.9468 22.495 11.9468 21.851C11.9468 21.7866 11.818 21.69 11.7322 21.6685C10.9915 21.4645 10.2187 21.4323 9.45658 21.4967C7.97531 21.6256 7.0629 22.4628 6.81602 23.8797C6.75162 24.2661 6.75162 24.6632 6.71942 25.0819H5.66749V27.0247H6.75162V33.6046H9.28484V33.2289C9.28484 31.3075 9.28484 29.3862 9.28484 27.4541C9.28484 26.9603 9.23117 27.014 9.72493 27.014C10.3797 27.014 11.0452 27.014 11.7107 27.014V25.0604H9.32775C9.08087 23.7723 9.92887 23.2464 10.7983 23.461M6.38667 48.9433H13.6428V46.5067H13.2564C12.0005 46.5067 10.7554 46.496 9.49949 46.5067C9.18821 46.5067 9.10236 46.4208 9.11309 46.1096C9.12382 43.2651 9.11309 40.4099 9.11309 37.5654C9.11309 37.4366 9.10233 37.3078 9.0916 37.179H6.37593V48.9326L6.38667 48.9433ZM25.654 14.348C25.01 14.5519 24.4303 14.7129 23.8829 14.9276C23.6789 15.0027 23.5072 15.2067 23.3784 15.3892C23.1852 15.6682 23.153 16.001 23.3355 16.3123C23.518 16.6021 23.797 16.7309 24.119 16.6665C24.5913 16.5699 25.0529 16.4089 25.5037 16.2693C25.5681 16.2479 25.6433 16.1405 25.6433 16.0654C25.654 15.5394 25.6433 15.0135 25.6433 14.3587M28.1442 18.2873H25.815V17.6647C25.6755 17.7506 25.5896 17.815 25.5037 17.8687C24.5699 18.4483 23.5716 18.6845 22.4982 18.3625C21.6181 18.0941 20.974 17.5467 20.813 16.6128C20.6413 15.6468 20.856 14.7666 21.6288 14.0904C22.3265 13.4678 23.1959 13.1887 24.0868 13.0062C24.5162 12.9204 24.9456 12.856 25.3857 12.813C25.6111 12.7916 25.654 12.695 25.6218 12.5017C25.5467 11.9865 25.1817 11.6752 24.5699 11.6323C23.5394 11.5679 22.6056 11.8792 21.6932 12.3193C21.5751 12.3729 21.4571 12.4373 21.2853 12.5232C21.3927 12.0939 21.4893 11.7182 21.5859 11.3425C21.6717 10.9883 21.7576 10.6341 21.865 10.2798C21.8972 10.1832 21.983 10.0437 22.0689 10.0222C23.3355 9.62507 24.6235 9.41039 25.9438 9.668C27.2963 9.93635 28.1013 10.838 28.1442 12.2549C28.2087 14.2299 28.1657 16.2049 28.1764 18.18C28.1764 18.2122 28.1657 18.2336 28.1442 18.2873ZM61.5588 48.5998C61.5588 47.1722 61.5588 45.7553 61.5588 44.3277C61.5588 43.8554 61.5159 43.3724 61.4515 42.9001C61.2905 41.7087 60.625 40.8714 59.4979 40.4635C58.3602 40.0449 57.2438 40.0878 56.2348 40.8607C56.149 40.9251 56.0524 41.0002 55.9343 41.0968C55.9236 40.8392 55.9128 40.6353 55.9021 40.4528H53.5943V48.9433H56.0845V43.5764C56.0845 42.8894 56.1382 42.8142 56.8145 42.5996C56.9218 42.5674 57.0291 42.5352 57.1365 42.5137C58.0811 42.3312 58.811 42.7713 58.9505 43.63C58.9934 43.9198 59.0257 44.2204 59.0257 44.5102C59.0257 45.8734 59.0257 47.2366 59.0257 48.5998V48.9648H61.5696V48.6105L61.5588 48.5998ZM26.8991 48.9433V43.6408C26.8991 42.8894 27.0065 42.7498 27.7364 42.5566C27.8115 42.5352 27.8759 42.5244 27.9403 42.5137C28.96 42.3205 29.6255 42.782 29.7758 43.8018C29.808 44.0164 29.8187 44.2311 29.8187 44.4458C29.8187 45.8412 29.8187 47.2366 29.8187 48.632V48.954H32.3412C32.3412 48.954 32.3627 48.8682 32.3627 48.8467C32.3627 47.1937 32.3842 45.5514 32.3627 43.8984C32.352 43.0719 32.2553 42.2561 31.7401 41.5476C30.9565 40.4635 29.3894 39.9376 28.0476 40.3669C27.5968 40.5065 27.1889 40.7855 26.7489 41.011C26.7489 40.8607 26.7274 40.6675 26.7167 40.4635H24.3767V48.9648H26.8884L26.8991 48.9433ZM40.1018 12.9633H43.4937C43.3434 12.0939 42.6457 11.5357 41.7763 11.5572C40.8854 11.5679 40.2414 12.1046 40.1018 12.9633ZM45.9088 14.7559H40.0804C40.1555 15.3355 40.4131 15.7434 40.8854 16.0332C41.5294 16.4304 42.2379 16.4411 42.957 16.3767C43.8157 16.3123 44.6315 16.0654 45.4366 15.7756C45.5117 15.7434 45.5868 15.7219 45.7049 15.679C45.7049 16.3874 45.7049 17.0529 45.7049 17.7292C45.7049 17.7828 45.619 17.8687 45.5546 17.8902C43.9123 18.5127 42.2164 18.7381 40.5097 18.2551C38.7064 17.7506 37.6223 16.2908 37.5364 14.4124C37.5042 13.6395 37.5364 12.8882 37.8369 12.1583C38.4702 10.6019 39.6402 9.73241 41.304 9.5714C42.2701 9.47479 43.2146 9.6036 44.0626 10.1403C45.1682 10.8487 45.6512 11.9329 45.823 13.178C45.8874 13.6825 45.8874 14.187 45.9303 14.7451M16.6161 44.7034C16.6161 45.9056 17.4962 46.8287 18.6555 46.8287C19.8148 46.8287 20.7057 45.8841 20.6949 44.6605C20.6949 43.469 19.7826 42.5352 18.634 42.5459C17.4855 42.5459 16.6161 43.4797 16.6161 44.6927M18.6555 40.2166C20.9418 40.2166 22.7558 41.6979 23.1852 43.9198C23.6897 46.5496 21.5537 49.115 18.8809 49.1472C17.2279 49.1687 15.8754 48.6105 14.9201 47.2688C13.8789 45.8197 13.8038 44.2419 14.5659 42.6532C15.3065 41.1183 16.8951 40.2059 18.6662 40.2059M18.3335 29.3539C18.3335 28.1625 17.4426 27.2179 16.2941 27.2179C15.1455 27.2179 14.2546 28.141 14.2546 29.3539C14.2546 30.5776 15.1348 31.5007 16.3048 31.5007C17.4533 31.5007 18.3335 30.5561 18.3442 29.3539M16.2833 33.83C13.6857 33.83 11.7107 31.8871 11.7214 29.3539C11.7214 26.81 13.7286 24.8779 16.337 24.8887C18.8809 24.8887 20.8989 26.8852 20.8882 29.3647C20.8882 31.8764 18.8594 33.83 16.2833 33.83ZM47.8517 42.5459C46.7139 42.5459 45.8122 43.469 45.8122 44.6497C45.8122 45.9056 46.671 46.8287 47.8624 46.8287C49.0002 46.8287 49.8911 45.8949 49.9019 44.6819C49.9126 43.5119 48.9895 42.5459 47.8517 42.5459ZM47.8409 49.1472C45.7693 49.2438 43.8372 47.7196 43.3864 45.7768C42.6887 42.7391 44.975 40.0664 48.12 40.2274C50.3312 40.3455 52.156 42.0199 52.4028 44.1452C52.7034 46.8395 50.6425 49.1472 47.9268 49.1472H47.8302M9.1238 8.72342C9.1238 9.88268 9.1238 10.9453 9.1238 12.008C9.1238 12.0724 9.24189 12.1797 9.30629 12.1797C9.76785 12.1797 10.2509 12.1797 10.7017 12.1153C11.5282 11.9865 12.0112 11.3854 12.0327 10.5482C12.0542 9.67874 11.6248 9.04544 10.7983 8.8737C10.2724 8.76636 9.71419 8.76636 9.11309 8.72342M6.38667 6.57664C8.02896 6.57664 9.64978 6.51224 11.2599 6.59811C12.9988 6.68398 14.362 7.82178 14.684 9.39966C15.2958 12.3193 13.5676 14.0689 11.1525 14.3802C10.5836 14.4553 9.99327 14.4446 9.41364 14.4446C9.17749 14.4446 9.10235 14.509 9.10235 14.7559C9.11308 15.8078 9.10235 16.849 9.10235 17.9009V18.2766H6.36522V6.57664H6.38667ZM39.6188 44.6927C39.6188 44.2204 39.6188 43.7374 39.6188 43.2543C39.6188 43.1577 39.5759 43.0182 39.5007 42.9753C38.7493 42.5674 37.9658 42.3634 37.1392 42.7606C36.2805 43.1685 35.8297 44.1345 36.0015 45.1435C36.1517 46.0451 36.785 46.7106 37.6652 46.8609C38.3522 46.979 38.9426 46.7106 39.5115 46.3886C39.5759 46.3564 39.6081 46.2169 39.6081 46.131C39.6081 45.6587 39.6081 45.1757 39.6081 44.6927M39.6188 40.7748V37.1897H42.1305V48.9433H39.8549C39.8549 48.7608 39.8442 48.5891 39.8335 48.3959C39.7691 48.4281 39.7154 48.4388 39.6725 48.471C38.0409 49.6947 34.9173 49.437 33.7903 46.6677C33.0282 44.7893 33.5112 42.4493 34.9388 41.1827C36.1088 40.1415 37.8584 39.9054 39.2753 40.6031C39.3719 40.646 39.4685 40.6997 39.6295 40.7748M2.62981 2.84125V3.27061C2.62981 19.5646 2.62981 35.848 2.62981 52.142C2.62981 52.4103 2.71569 52.5928 2.89816 52.7753C5.90365 55.77 8.89842 58.7755 11.9039 61.7918C13.0202 62.9188 14.1473 64.0459 15.2636 65.1729C18.5911 68.5004 21.9079 71.8279 25.2354 75.1554C25.3856 75.3057 25.5252 75.3701 25.7399 75.3701C45.8659 75.3701 66.0027 75.3701 86.1287 75.3701H86.4937V74.9408C86.4937 58.636 86.4937 42.342 86.4937 26.0372C86.4937 25.7903 86.4293 25.6186 86.2575 25.4468C82.2645 21.4538 78.2715 17.4501 74.2785 13.4463C70.8222 9.99002 67.3766 6.53371 63.9203 3.06666C63.77 2.91639 63.6198 2.83052 63.3944 2.83052C43.2683 2.83052 23.1315 2.83052 3.00551 2.83052H2.64056L2.62981 2.84125ZM0 0.275854C0.118073 0.26512 0.236174 0.243652 0.364981 0.243652C21.7254 0.243652 43.0858 0.243652 64.4463 0.243652C64.6824 0.243652 64.8434 0.329523 65.0044 0.490532C68.7935 4.29033 72.5933 8.07939 76.3823 11.8792C80.5363 16.0332 84.6796 20.1872 88.8444 24.3412C89.0269 24.5237 89.102 24.6954 89.102 24.9531C89.102 42.4922 89.102 60.0421 89.102 77.5813V77.9999H88.737C67.3873 77.9999 46.0376 77.9999 24.6879 77.9999C24.4625 77.9999 24.3123 77.9355 24.162 77.7745C21.3068 74.9086 18.4515 72.0533 15.5963 69.1981C10.4548 64.0459 5.30257 58.8936 0.161034 53.7521C0.118099 53.7091 0.0751359 53.6662 0.0322003 53.6233V0.275854H0Z" fill="#133358"/>
</svg>
