<svg width="89" height="96" viewBox="0 0 89 96" fill="none" xmlns="http://www.w3.org/2000/svg">
<path d="M88.9963 77.8024H24.3173L0 53.4631V0.12793H64.679L89 24.4727L88.9963 77.8024ZM25.3885 75.1821H86.376V25.5751L63.606 2.74827H2.62034V52.3589L25.3904 75.1821H25.3885Z" fill="#001D47"/>
<path d="M9.09862 14.3356V18.1938H6.32812V6.39954H10.2724C11.6952 6.39954 12.8012 6.75294 13.5922 7.46159C14.3832 8.1684 14.7788 9.12791 14.7788 10.3383C14.7788 11.5706 14.3576 12.5466 13.5171 13.2644C12.6748 13.9822 11.556 14.3393 10.1607 14.3356H9.09679H9.09862ZM9.09862 8.66098V12.0742H9.97206C10.6404 12.0742 11.144 11.9332 11.4864 11.6384C11.8288 11.3436 11.9991 10.9224 11.9991 10.3822C11.9991 9.84205 11.8288 9.39709 11.4864 9.10228C11.144 8.80747 10.6386 8.66281 9.97206 8.66281L9.09862 8.65914V8.66098Z" fill="#001D47"/>
<path d="M19.6941 18.1775C19.1851 18.3294 18.654 18.4009 18.1212 18.3862C17.3228 18.3917 16.7131 18.1701 16.2937 17.7197C15.8707 17.271 15.6602 16.6082 15.6602 15.7347V6.40149H18.2054V15.2074C18.1853 15.4729 18.2457 15.7366 18.3739 15.9673C18.4398 16.0515 18.524 16.1174 18.6211 16.1596C18.7181 16.2017 18.8243 16.2182 18.9305 16.209C19.1924 16.1962 19.4488 16.1376 19.6905 16.0369V18.1775H19.6941Z" fill="#001D47"/>
<path d="M25.7518 18.1938V17.5383C25.4185 17.802 25.0432 18.0107 24.644 18.1554C24.2686 18.3019 23.8694 18.3806 23.4666 18.3861C22.7524 18.4154 22.0529 18.181 21.4999 17.7287C21.2417 17.5145 21.0367 17.2453 20.9011 16.9395C20.7638 16.6337 20.6997 16.3023 20.7125 15.9672C20.7125 14.0427 22.3386 12.9403 25.5907 12.6602C25.5907 12.2793 25.4899 11.9936 25.2904 11.8014C25.0889 11.6091 24.7557 11.512 24.2887 11.512C23.3567 11.512 22.3367 11.8178 21.2234 12.4276L21.8625 9.95009C22.8073 9.62598 23.7998 9.45386 24.7978 9.43921C27.0244 9.43921 28.1378 10.5232 28.1378 12.6949V18.1956H25.7518V18.1938ZM25.5888 14.321C24.73 14.4345 24.1166 14.6103 23.7449 14.8465C23.375 15.0827 23.1882 15.3904 23.1882 15.7694C23.1791 15.8774 23.1937 15.9837 23.2322 16.0844C23.2706 16.1851 23.3311 16.2748 23.408 16.3499C23.4904 16.4213 23.5856 16.4744 23.6881 16.5092C23.7907 16.544 23.8987 16.5568 24.0067 16.5476C24.4444 16.5531 24.9736 16.3957 25.5962 16.0734L25.5888 14.321Z" fill="#001D47"/>
<path d="M36.2853 17.7654C35.4595 18.1774 34.5494 18.388 33.6265 18.3788C32.4125 18.4008 31.2388 17.9448 30.358 17.1098C29.9185 16.7088 29.5688 16.2199 29.3344 15.6724C29.1 15.1249 28.9846 14.5353 28.9993 13.9402C28.9993 12.6272 29.4442 11.5469 30.3342 10.7009C30.7608 10.2871 31.2662 9.96295 31.8192 9.74505C32.3722 9.52714 32.9637 9.42094 33.5588 9.43193C34.5128 9.41728 35.454 9.65532 36.2872 10.1241V12.5577C35.3679 12.0394 34.5128 11.7813 33.7236 11.7813C33.1578 11.7703 32.6084 11.979 32.1909 12.3617C31.9749 12.5613 31.8064 12.8067 31.6947 13.0795C31.583 13.3524 31.5336 13.6453 31.5464 13.9383C31.5409 14.5884 31.757 15.0993 32.1964 15.471C32.6377 15.8427 33.1999 16.0405 33.7767 16.0276C34.6575 16.0331 35.5236 15.8079 36.2872 15.3721V17.7635L36.2853 17.7654Z" fill="#001D47"/>
<path d="M40.0241 14.6544C40.0461 14.8961 40.1212 15.1305 40.2439 15.341C40.3666 15.5516 40.535 15.7311 40.7346 15.8684C41.1906 16.1614 41.7271 16.3079 42.2673 16.2859C42.7598 16.2859 43.2524 16.242 43.7358 16.1504C44.3877 16.0057 45.0249 15.8062 45.642 15.5516V17.7178C44.5525 18.1738 43.3806 18.4027 42.1977 18.3935C40.7694 18.399 39.6213 18.009 38.7552 17.2198C37.8872 16.4306 37.4551 15.3191 37.4551 13.8853C37.4551 12.5394 37.8543 11.4627 38.6526 10.6552C39.451 9.8495 40.4618 9.44482 41.685 9.44482C42.9924 9.44482 44.0087 9.855 44.7338 10.6772C45.4589 11.4993 45.8233 12.6676 45.8306 14.1874V14.6617L40.0223 14.6562L40.0241 14.6544ZM43.4502 12.8672C43.3696 12.4662 43.159 12.1018 42.8514 11.8308C42.5529 11.5763 42.1702 11.4389 41.7784 11.4481C41.3517 11.4298 40.9324 11.5634 40.5936 11.8235C40.2787 12.089 40.0772 12.4625 40.0241 12.8709L43.4502 12.8654V12.8672Z" fill="#001D47"/>
<path d="M47.1719 17.5732V15.1469C48.1204 15.9636 49.155 16.3738 50.272 16.3738C51.0704 16.3738 51.4695 16.1778 51.4695 15.786C51.4641 15.6816 51.4311 15.5809 51.3725 15.4948C51.3139 15.4088 51.2333 15.341 51.1381 15.2971C50.9165 15.1671 50.38 14.9583 49.5267 14.6708C48.5782 14.3595 47.9446 14.0025 47.6278 13.5996C47.3001 13.1656 47.1334 12.6328 47.1518 12.0889C47.1463 11.7227 47.2268 11.3601 47.388 11.0305C47.5473 10.7009 47.7817 10.4135 48.0728 10.1901C48.6862 9.69016 49.5102 9.44113 50.5467 9.44113C51.541 9.42465 52.5279 9.62424 53.438 10.0253V12.2263C52.5957 11.7374 51.6417 11.4737 50.6675 11.459C50.0285 11.459 49.708 11.6385 49.708 11.9955C49.708 12.186 49.8234 12.338 50.0504 12.4442C50.4899 12.6346 50.944 12.7884 51.4091 12.902C52.3247 13.173 52.9894 13.53 53.4032 13.9695C53.8207 14.4145 54.0441 15.0077 54.024 15.6157C54.035 16.0075 53.9507 16.3939 53.7786 16.7455C53.6083 17.0971 53.3538 17.4029 53.0407 17.6354C52.3906 18.1353 51.497 18.3843 50.3635 18.3843C49.2484 18.3935 48.1497 18.1133 47.1737 17.5732H47.1719Z" fill="#001D47"/>
<path d="M11.9149 23.7439C11.4681 23.4839 10.9646 23.3393 10.4482 23.321C10.287 23.31 10.1259 23.3338 9.97392 23.3869C9.82194 23.4418 9.68277 23.526 9.56558 23.6359C9.45755 23.7586 9.37514 23.8996 9.32387 24.0552C9.2726 24.2091 9.25246 24.372 9.26528 24.535V24.9507H11.7263V26.91H9.26711V33.5057H6.72184V26.91H5.625V24.9507H6.72184V24.5368C6.72184 23.4949 7.00201 22.702 7.56416 22.1582C8.12449 21.6144 8.93018 21.3415 9.97758 21.3415C10.635 21.3342 11.2887 21.4166 11.9241 21.5832L11.9131 23.7439H11.9149Z" fill="#001D47"/>
<path d="M16.251 33.7017C15.6523 33.7127 15.0571 33.6046 14.5005 33.3831C13.9438 33.1597 13.4384 32.8282 13.0118 32.4071C12.5815 31.9987 12.2409 31.5062 12.012 30.9587C11.7831 30.4111 11.6714 29.8234 11.6824 29.2301C11.6732 28.6386 11.7849 28.0508 12.0138 27.5052C12.2427 26.9595 12.5815 26.4669 13.0118 26.0604C13.4366 25.6356 13.9438 25.3005 14.5005 25.0753C15.059 24.85 15.6559 24.742 16.2565 24.7548C16.859 24.742 17.4577 24.85 18.0162 25.0753C18.5747 25.3005 19.082 25.6356 19.5086 26.0604C19.9371 26.4687 20.2759 26.9613 20.5047 27.507C20.7336 28.0527 20.849 28.6386 20.8417 29.2301C20.849 29.8197 20.7355 30.4057 20.5066 30.9513C20.2795 31.4952 19.9426 31.9877 19.5159 32.3979C19.0893 32.8264 18.5784 33.1633 18.0162 33.3867C17.4541 33.612 16.8516 33.7182 16.2474 33.7035L16.251 33.7017ZM16.251 31.3542C16.5239 31.3633 16.7949 31.3121 17.0476 31.2077C17.3003 31.1015 17.5255 30.944 17.7104 30.7444C18.0913 30.3342 18.3001 29.7904 18.2891 29.2301C18.2982 28.9517 18.2506 28.6752 18.1517 28.4152C18.0529 28.1552 17.9027 27.919 17.7104 27.7176C17.5237 27.5198 17.2966 27.3642 17.0457 27.258C16.7949 27.1517 16.5239 27.1005 16.251 27.106C15.98 27.1005 15.709 27.1517 15.4582 27.258C15.2073 27.3642 14.9821 27.5198 14.7953 27.7176C14.4108 28.1259 14.2057 28.6697 14.2221 29.2301C14.2112 29.5084 14.2569 29.7849 14.354 30.0449C14.451 30.3049 14.6012 30.543 14.7916 30.7444C14.9784 30.944 15.2036 31.1015 15.4545 31.2059C15.7054 31.3121 15.9764 31.3615 16.2492 31.3542H16.251Z" fill="#001D47"/>
<path d="M26.9808 27.1042C26.7153 27.0365 26.4424 27.0017 26.1696 26.9999C25.4866 26.9962 24.8274 27.2434 24.3128 27.692V33.5113H21.7676V24.9527H24.1425V25.7126C24.4264 25.4123 24.7633 25.1669 25.135 24.9874C25.5196 24.8226 25.9352 24.7421 26.3527 24.7531H26.5029C26.6622 24.7567 26.8215 24.7732 26.9771 24.8062L26.9808 27.1079V27.1042Z" fill="#001D47"/>
<path d="M6.32812 48.8268V37.0325H9.09862V46.3621H13.6343V48.8286H6.32996L6.32812 48.8268Z" fill="#001D47"/>
<path d="M18.6179 49.0172C18.0172 49.03 17.4203 48.922 16.8636 48.7005C16.3051 48.4771 15.7998 48.1456 15.3731 47.7226C14.9428 47.3143 14.6022 46.8217 14.3733 46.2742C14.1444 45.7267 14.0327 45.1389 14.0437 44.5456C14.0346 43.9542 14.1462 43.3664 14.3751 42.8207C14.604 42.275 14.9428 41.7825 15.3731 41.3759C15.7979 40.9511 16.3051 40.6179 16.8636 40.3945C17.4221 40.1711 18.0191 40.0612 18.6197 40.074C19.2221 40.0612 19.8209 40.1692 20.3794 40.3926C20.9379 40.616 21.4451 40.9511 21.8718 41.3778C22.2984 41.7861 22.639 42.2787 22.8679 42.8244C23.0968 43.37 23.2122 43.956 23.2067 44.5475C23.2122 45.1371 23.0986 45.7212 22.8697 46.2651C22.6427 46.8089 22.3057 47.2996 21.8809 47.7098C21.4543 48.1383 20.9452 48.4734 20.3849 48.6986C19.8246 48.9238 19.224 49.0319 18.6197 49.0191L18.6179 49.0172ZM18.6179 46.6697C18.8907 46.6789 19.1617 46.6294 19.4144 46.5232C19.6671 46.417 19.8923 46.2614 20.0791 46.0618C20.4618 45.6516 20.6687 45.1078 20.6577 44.5475C20.6669 44.2691 20.6193 43.9926 20.5204 43.7326C20.4215 43.4726 20.2714 43.2345 20.0791 43.035C19.8923 42.8372 19.6653 42.6815 19.4144 42.5753C19.1635 42.4691 18.8925 42.4179 18.6197 42.4234C18.3487 42.4179 18.0777 42.4691 17.8268 42.5753C17.5759 42.6815 17.3507 42.8372 17.1639 43.035C16.7812 43.4433 16.5743 43.9871 16.5908 44.5475C16.5798 44.8258 16.6256 45.1023 16.7226 45.3623C16.8197 45.6223 16.9698 45.8604 17.1603 46.0618C17.3471 46.2614 17.5723 46.417 17.825 46.5232C18.0758 46.6276 18.3469 46.6789 18.6197 46.6697H18.6179Z" fill="#001D47"/>
<path d="M29.7807 48.8267V44.5785C29.7917 44.161 29.7606 43.7454 29.6873 43.3352C29.6233 43.0532 29.4639 42.8023 29.2387 42.6229C28.975 42.4214 28.6473 42.3189 28.3158 42.3336C27.7903 42.3336 27.2812 42.5057 26.8656 42.8261V48.8267H24.3203V40.2699H26.6953V40.9877C26.9773 40.6892 27.3215 40.453 27.7006 40.2937C28.0814 40.1362 28.4898 40.0611 28.9018 40.0721C29.6086 40.0501 30.3044 40.2442 30.8977 40.6288C31.3976 40.9511 31.7876 41.4162 32.0184 41.9637C32.2271 42.48 32.3278 43.1997 32.3278 44.1207V48.8249H29.7826L29.7807 48.8267Z" fill="#001D47"/>
<path d="M39.779 48.8268V48.206C39.1308 48.7334 38.3196 49.019 37.4846 49.0172C36.2522 49.0227 35.2598 48.6052 34.509 47.761C33.7583 46.9169 33.3829 45.886 33.3829 44.6646C33.3774 43.3883 33.7564 42.3024 34.5218 41.4107C35.2872 40.5171 36.2852 40.0703 37.5157 40.0721C38.2372 40.0685 38.944 40.2736 39.5519 40.6581V37.0325H42.0972V48.8268H39.779ZM39.5556 42.9049C39.0777 42.5991 38.5265 42.4325 37.9589 42.4215C37.6897 42.4196 37.4205 42.4727 37.1733 42.5771C36.9243 42.6833 36.7009 42.8371 36.5141 43.0331C36.3163 43.2382 36.1625 43.4799 36.0618 43.7454C35.9611 44.0109 35.9171 44.2947 35.93 44.5785C35.9153 44.8624 35.9574 45.148 36.0563 45.4154C36.1552 45.6827 36.3053 45.9281 36.5013 46.1368C36.6826 46.3309 36.9041 46.4847 37.1495 46.5873C37.3949 46.6898 37.6585 46.7411 37.9259 46.7356C38.391 46.7356 38.9367 46.5543 39.5556 46.1936V42.9031V42.9049Z" fill="#001D47"/>
<path d="M47.78 49.0172C47.1794 49.03 46.5824 48.922 46.0258 48.7005C45.4691 48.4771 44.9619 48.1456 44.5352 47.7226C44.1049 47.3143 43.7643 46.8217 43.5354 46.2742C43.3065 45.7267 43.1948 45.1389 43.2058 44.5456C43.1967 43.9542 43.3102 43.3664 43.5391 42.8207C43.768 42.275 44.1067 41.7825 44.537 41.3759C44.9619 40.9511 45.4691 40.6179 46.0276 40.3945C46.5861 40.1711 47.183 40.0612 47.7836 40.074C48.3861 40.0612 48.983 40.1692 49.5415 40.3926C50.1 40.616 50.6072 40.9511 51.0339 41.3778C51.4624 41.7861 51.8011 42.2787 52.0318 42.8244C52.2607 43.37 52.3761 43.956 52.3706 44.5475C52.3761 45.1371 52.2607 45.7212 52.0337 46.2651C51.8066 46.8089 51.4697 47.2996 51.0467 47.7098C50.62 48.1383 50.111 48.4734 49.5507 48.6986C48.9903 48.9238 48.3897 49.0319 47.7855 49.0191L47.78 49.0172ZM47.78 46.6697C48.0528 46.6789 48.3256 46.6294 48.5783 46.5251C48.831 46.4207 49.0581 46.2632 49.2449 46.0618C49.6257 45.6498 49.8327 45.1078 49.8235 44.5456C49.8308 44.2673 49.785 43.9908 49.6862 43.7308C49.5873 43.4708 49.4371 43.2345 49.2467 43.0331C49.0599 42.8354 48.8329 42.6797 48.582 42.5735C48.3311 42.4673 48.0601 42.416 47.7873 42.4215C47.5163 42.416 47.2453 42.4673 46.9944 42.5735C46.7436 42.6797 46.5183 42.8354 46.3315 43.0331C45.947 43.4415 45.7419 43.9853 45.7584 44.5456C45.7474 44.824 45.7914 45.1005 45.8884 45.3605C45.9855 45.6205 46.1338 45.8585 46.3242 46.06C46.511 46.2596 46.7362 46.4152 46.9889 46.5214C47.2398 46.6258 47.5108 46.6752 47.7836 46.6679L47.78 46.6697Z" fill="#001D47"/>
<path d="M58.9413 48.8267V44.5785C58.9522 44.161 58.9193 43.7454 58.846 43.3352C58.7838 43.0532 58.6245 42.8005 58.3974 42.6229C58.1356 42.4233 57.8114 42.3207 57.4818 42.3336C56.9563 42.3336 56.4473 42.5057 56.0316 42.8261V48.8267H53.4863V40.2699H55.8613V40.9877C56.1433 40.6892 56.4857 40.453 56.8648 40.2955C57.2438 40.138 57.6521 40.0611 58.0641 40.0721C58.771 40.0501 59.4668 40.2442 60.0582 40.6288C60.5581 40.9511 60.9482 41.4162 61.1807 41.9637C61.3876 42.48 61.492 43.1997 61.492 44.1207V48.8249H58.9449L58.9413 48.8267Z" fill="#001D47"/>
<path d="M41.7481 83.1804H40.4004V82.4407H43.9143V83.1804H42.5666V86.8464H41.7481V83.1804Z" fill="#001D47"/>
<path d="M47.0285 83.9606C47.2684 84.2151 47.3893 84.5722 47.3893 85.0299V86.8464H46.6294V85.0904C46.6294 84.8267 46.5634 84.6216 46.4353 84.4788C46.3053 84.3359 46.1075 84.2645 45.8438 84.2645C45.7065 84.2645 45.5746 84.2865 45.4465 84.3305C45.3183 84.3744 45.2066 84.4293 45.1095 84.4953V86.8464H44.3496V82.4426H45.1095V83.8361C45.3476 83.6639 45.6424 83.5779 45.994 83.5779C46.4426 83.5779 46.7868 83.706 47.0267 83.9624L47.0285 83.9606Z" fill="#001D47"/>
<path d="M50.9604 85.4602H48.6752C48.71 85.7202 48.8144 85.918 48.9865 86.0572C49.1586 86.1963 49.3839 86.2659 49.6604 86.2659C49.8764 86.2659 50.0797 86.2366 50.2683 86.1798C50.4569 86.1231 50.6675 86.037 50.8964 85.9217V86.6559C50.6894 86.7475 50.4844 86.8153 50.2793 86.8574C50.0742 86.8995 49.8544 86.9215 49.6146 86.9215C49.2813 86.9215 48.9828 86.85 48.7228 86.7109C48.4628 86.5699 48.2614 86.3721 48.1185 86.1194C47.9757 85.8667 47.9043 85.5756 47.9043 85.2441C47.9043 84.931 47.9739 84.649 48.1094 84.3963C48.2449 84.1436 48.4353 83.944 48.677 83.7994C48.9206 83.6547 49.1897 83.5815 49.4901 83.5815C49.9478 83.5815 50.3086 83.7316 50.5704 84.0319C50.8323 84.3304 50.9641 84.7424 50.9641 85.2661V85.4639L50.9604 85.4602ZM48.9792 84.389C48.8418 84.5044 48.7503 84.6692 48.7008 84.8834H50.206C50.1786 84.6765 50.1035 84.5135 49.979 84.3945C49.8526 84.2755 49.6915 84.2169 49.4937 84.2169C49.296 84.2169 49.1147 84.2736 48.9792 84.389Z" fill="#001D47"/>
<path d="M54.1094 83.1804H52.7617V82.4407H56.2756V83.1804H54.9279V86.8464H54.1094V83.1804Z" fill="#001D47"/>
<path d="M57.517 83.1475C57.4291 83.2482 57.3852 83.3929 57.3852 83.576V83.6492H58.482V84.2901H57.3852V86.8464H56.6253V84.2901H56.1309V83.6492H56.6253V83.5833C56.6253 83.2043 56.7333 82.9058 56.9494 82.6842C57.1654 82.4645 57.4639 82.3546 57.8466 82.3546C58.0535 82.3546 58.2659 82.3857 58.4802 82.4462V83.1273C58.2824 83.0395 58.0883 82.9955 57.8997 82.9955C57.7331 82.9955 57.6049 83.0468 57.517 83.1475Z" fill="#001D47"/>
<path d="M58.873 82.4426H59.6916V86.1012H61.6399V86.8483H58.873V82.4444V82.4426Z" fill="#001D47"/>
<path d="M63.7402 82.4426H65.1795C65.6995 82.4426 66.0951 82.5707 66.3679 82.8289C66.6407 83.0871 66.7781 83.4222 66.7781 83.8361C66.7781 84.1309 66.7085 84.3854 66.5693 84.5996C66.4302 84.8139 66.2379 84.975 65.9925 85.0849C65.7472 85.1947 65.4652 85.2497 65.1484 85.2497H64.5606V86.8483H63.7421V82.4444L63.7402 82.4426ZM65.0806 84.5355C65.3663 84.5355 65.5823 84.4769 65.727 84.3579C65.8717 84.2389 65.9449 84.0704 65.9449 83.8507C65.9449 83.631 65.8735 83.4479 65.727 83.3288C65.5823 83.2098 65.3663 83.1512 65.0806 83.1512H64.5587V84.5374H65.0806V84.5355Z" fill="#001D47"/>
<path d="M69.3792 83.6767V84.3963L69.3664 84.4018C69.2089 84.3139 69.0386 84.27 68.8592 84.27C68.5772 84.27 68.3208 84.3689 68.0919 84.5666V86.8445H67.332V83.6474H68.0663V83.8653C68.189 83.7646 68.3172 83.6914 68.4527 83.6437C68.5864 83.598 68.7365 83.5742 68.905 83.5742C69.0899 83.5742 69.2474 83.6071 69.3792 83.673V83.6767Z" fill="#001D47"/>
<path d="M70.2644 86.7017C70.0044 86.5571 69.7993 86.3556 69.651 86.1011C69.5009 85.8466 69.4258 85.5609 69.4258 85.2496C69.4258 84.9383 69.5009 84.6527 69.651 84.3982C69.8012 84.1418 70.0062 83.9422 70.2644 83.7976C70.5245 83.6529 70.8101 83.5797 71.1232 83.5797C71.4364 83.5797 71.7293 83.6529 71.9894 83.7976C72.2494 83.9422 72.4526 84.1436 72.6028 84.3982C72.7529 84.6527 72.828 84.9383 72.828 85.2496C72.828 85.5609 72.7529 85.8466 72.6028 86.1011C72.4526 86.3575 72.2475 86.5571 71.9894 86.7017C71.7293 86.8464 71.4418 86.9196 71.1232 86.9196C70.8046 86.9196 70.5245 86.8464 70.2644 86.7017ZM71.7934 85.9345C71.971 85.755 72.0608 85.5261 72.0608 85.2478C72.0608 84.9695 71.9729 84.7406 71.7934 84.5611C71.6158 84.3817 71.3924 84.2901 71.1232 84.2901C70.8541 84.2901 70.638 84.3799 70.4585 84.5611C70.2809 84.7424 70.1912 84.9713 70.1912 85.2478C70.1912 85.5243 70.2791 85.755 70.4585 85.9345C70.6362 86.1158 70.8596 86.2055 71.1232 86.2055C71.3869 86.2055 71.6158 86.1158 71.7934 85.9345Z" fill="#001D47"/>
<path d="M75.8111 83.7921C76.0565 83.9349 76.2506 84.1327 76.3879 84.3853C76.5271 84.638 76.5967 84.9274 76.5967 85.2478C76.5967 85.5683 76.5271 85.8576 76.3861 86.1103C76.2451 86.363 76.0492 86.5607 75.7983 86.7035C75.5474 86.8464 75.26 86.9178 74.9395 86.9178C74.6191 86.9178 74.3627 86.8482 74.1466 86.7127V88.0732H73.3867V83.6492H74.0862V83.8671C74.2052 83.7756 74.3426 83.7042 74.4982 83.6529C74.6557 83.6016 74.8132 83.576 74.9706 83.576C75.2838 83.576 75.5621 83.6474 75.8093 83.7902L75.8111 83.7921ZM75.5511 85.9546C75.7379 85.7697 75.8313 85.5353 75.8313 85.2478C75.8313 84.9603 75.7379 84.7351 75.5529 84.5538C75.368 84.3725 75.13 84.2828 74.8388 84.2828C74.6191 84.2828 74.3865 84.3579 74.1448 84.508V86.0077C74.2364 86.0736 74.3444 86.1286 74.4689 86.1689C74.5934 86.2091 74.7143 86.2311 74.8315 86.2311C75.1226 86.2311 75.3607 86.1396 75.5474 85.9528L75.5511 85.9546Z" fill="#001D47"/>
<path d="M80.0444 85.4602H77.7592C77.794 85.7202 77.8984 85.918 78.0705 86.0572C78.2426 86.1963 78.4678 86.2659 78.7443 86.2659C78.9604 86.2659 79.1637 86.2366 79.3523 86.1798C79.5409 86.1231 79.7514 86.037 79.9803 85.9217V86.6559C79.7734 86.7475 79.5683 86.8153 79.3633 86.8574C79.1582 86.8995 78.9384 86.9215 78.6986 86.9215C78.3653 86.9215 78.0668 86.85 77.8068 86.7109C77.5468 86.5699 77.3453 86.3721 77.2025 86.1194C77.0597 85.8667 76.9883 85.5756 76.9883 85.2441C76.9883 84.931 77.0579 84.649 77.1934 84.3963C77.3289 84.1436 77.5193 83.944 77.761 83.7994C78.0046 83.6547 78.2737 83.5815 78.574 83.5815C79.0318 83.5815 79.3925 83.7316 79.6544 84.0319C79.9162 84.3304 80.0481 84.7424 80.0481 85.2661V85.4639L80.0444 85.4602ZM78.0632 84.389C77.9258 84.5044 77.8343 84.6692 77.7848 84.8834H79.29C79.2625 84.6765 79.1875 84.5135 79.0629 84.3945C78.9366 84.2755 78.7755 84.2169 78.5777 84.2169C78.3799 84.2169 78.1987 84.2736 78.0632 84.389Z" fill="#001D47"/>
<path d="M82.639 83.6767V84.3963L82.6262 84.4018C82.4687 84.3139 82.2984 84.27 82.119 84.27C81.837 84.27 81.5806 84.3689 81.3517 84.5666V86.8445H80.5918V83.6474H81.3261V83.8653C81.4488 83.7646 81.5769 83.6914 81.7124 83.6437C81.8461 83.598 81.9963 83.5742 82.1647 83.5742C82.3497 83.5742 82.5072 83.6071 82.639 83.673V83.6767Z" fill="#001D47"/>
<path d="M85.0672 86.1927C85.1844 86.1616 85.2961 86.1176 85.4078 86.0609V86.7677C85.1478 86.8684 84.8731 86.9197 84.582 86.9197C84.2121 86.9197 83.9283 86.8153 83.7305 86.6084C83.5327 86.4014 83.4339 86.1085 83.4339 85.7294V84.303H82.9395V83.6493H83.4339V82.8893H84.2011V83.6493H85.3895V84.303H84.2011V85.691C84.2011 85.8924 84.2487 86.0352 84.3458 86.1158C84.4428 86.1982 84.5765 86.2385 84.7486 86.2385C84.8457 86.2385 84.9519 86.222 85.0691 86.1909L85.0672 86.1927Z" fill="#001D47"/>
<path d="M88.9728 83.6493L87.4475 87.3207C87.2369 87.8224 86.8469 88.0733 86.2774 88.0733C86.1492 88.0733 86.0375 88.066 85.9404 88.0532V87.4068C86.0723 87.4251 86.1785 87.4342 86.2572 87.4342C86.3946 87.4342 86.5081 87.4013 86.5978 87.339C86.6875 87.2749 86.7681 87.1705 86.8395 87.0241L86.9 86.8922L85.4863 83.6493H86.325L87.2625 85.9547L88.1415 83.6493H88.9728Z" fill="#001D47"/>
<path d="M41.7496 93.7607C41.3833 93.5629 41.094 93.2901 40.8853 92.9458C40.6765 92.5997 40.5703 92.2134 40.5703 91.7867C40.5703 91.3601 40.6747 90.9645 40.8853 90.6148C41.094 90.265 41.3797 89.9885 41.7441 89.7853C42.1066 89.582 42.5131 89.4813 42.9618 89.4813C43.2181 89.4813 43.4672 89.5088 43.7089 89.5637C43.9506 89.6187 44.1721 89.6992 44.3699 89.8054V90.6642C44.1502 90.5196 43.9304 90.4097 43.7089 90.3365C43.4873 90.2632 43.2438 90.2284 42.9764 90.2284C42.6724 90.2284 42.4014 90.2925 42.1634 90.4225C41.9253 90.5525 41.7404 90.732 41.6049 90.9609C41.4712 91.1898 41.4035 91.4516 41.4035 91.7464C41.4035 92.0412 41.4712 92.3214 41.6086 92.5576C41.7459 92.7957 41.9345 92.9806 42.1762 93.1124C42.4179 93.2443 42.6944 93.3102 43.002 93.3102C43.2438 93.3102 43.4745 93.2772 43.696 93.2113C43.9176 93.1454 44.141 93.0392 44.3699 92.8945V93.7387C44.1776 93.8412 43.9579 93.9181 43.7125 93.9731C43.4672 94.028 43.2236 94.0555 42.9764 94.0555C42.526 94.0555 42.1194 93.9566 41.7514 93.7588L41.7496 93.7607Z" fill="#001D47"/>
<path d="M45.4773 93.8266C45.2173 93.6819 45.0122 93.4805 44.8639 93.226C44.7137 92.9715 44.6387 92.6858 44.6387 92.3745C44.6387 92.0632 44.7137 91.7776 44.8639 91.523C45.0141 91.2667 45.2191 91.0671 45.4773 90.9224C45.7373 90.7778 46.023 90.7045 46.3361 90.7045C46.6492 90.7045 46.9422 90.7778 47.2022 90.9224C47.4623 91.0671 47.6655 91.2685 47.8157 91.523C47.9658 91.7776 48.0409 92.0632 48.0409 92.3745C48.0409 92.6858 47.9658 92.9715 47.8157 93.226C47.6655 93.4823 47.4604 93.6819 47.2022 93.8266C46.9422 93.9713 46.6547 94.0445 46.3361 94.0445C46.0175 94.0445 45.7373 93.9713 45.4773 93.8266ZM47.0063 93.0594C47.1839 92.8799 47.2737 92.651 47.2737 92.3727C47.2737 92.0944 47.1858 91.8655 47.0063 91.686C46.8287 91.5066 46.6053 91.415 46.3361 91.415C46.067 91.415 45.8509 91.5047 45.6714 91.686C45.4938 91.8673 45.4041 92.0962 45.4041 92.3727C45.4041 92.6492 45.492 92.8799 45.6714 93.0594C45.849 93.2406 46.0724 93.3304 46.3361 93.3304C46.5998 93.3304 46.8287 93.2406 47.0063 93.0594Z" fill="#001D47"/>
<path d="M53.4263 91.0854C53.6625 91.3363 53.7797 91.6842 53.7797 92.1291V93.9786H53.0198V92.1951C53.0198 91.6622 52.7818 91.3949 52.3057 91.3949C52.0365 91.3949 51.7765 91.4901 51.5256 91.6787C51.5568 91.8069 51.5714 91.957 51.5714 92.1273V93.9694H50.8115V92.1932C50.8115 91.6567 50.5661 91.3875 50.0717 91.3875C49.9399 91.3875 49.8117 91.4095 49.689 91.4535C49.5663 91.4974 49.4546 91.5523 49.3576 91.6183V93.9694H48.5977V90.7723H49.3319V90.97C49.5736 90.7888 49.8703 90.699 50.2237 90.699C50.6741 90.699 51.0166 90.8364 51.2546 91.1092C51.6025 90.84 51.9889 90.7064 52.4174 90.7064C52.8459 90.7064 53.1883 90.8309 53.4245 91.0836L53.4263 91.0854Z" fill="#001D47"/>
<path d="M56.9244 90.9169C57.1698 91.0598 57.3639 91.2575 57.5012 91.5102C57.6404 91.7629 57.71 92.0522 57.71 92.3727C57.71 92.6931 57.6404 92.9824 57.4994 93.2351C57.3584 93.4878 57.1625 93.6856 56.9116 93.8284C56.6607 93.9713 56.3732 94.0427 56.0528 94.0427C55.7323 94.0427 55.476 93.9731 55.2599 93.8376V95.1981H54.5V90.7741H55.1995V90.992C55.3185 90.9005 55.4558 90.829 55.6115 90.7778C55.769 90.7265 55.9264 90.7009 56.0839 90.7009C56.397 90.7009 56.6754 90.7723 56.9226 90.9151L56.9244 90.9169ZM56.6644 93.0795C56.8512 92.8946 56.9446 92.6602 56.9446 92.3727C56.9446 92.0852 56.8512 91.86 56.6662 91.6787C56.4813 91.4974 56.2432 91.4077 55.9521 91.4077C55.7323 91.4077 55.4998 91.4828 55.2581 91.6329V93.1326C55.3496 93.1985 55.4577 93.2535 55.5822 93.2937C55.7067 93.334 55.8276 93.356 55.9448 93.356C56.2359 93.356 56.474 93.2644 56.6607 93.0777L56.6644 93.0795Z" fill="#001D47"/>
<path d="M60.3299 91.036C60.5716 91.2575 60.6925 91.5981 60.6925 92.0559V93.9713H59.96V93.746C59.8282 93.8376 59.6817 93.9108 59.5206 93.9639C59.3594 94.017 59.202 94.0445 59.0481 94.0445C58.7405 94.0445 58.4896 93.9584 58.2992 93.79C58.1069 93.6197 58.0117 93.4036 58.0117 93.1399C58.0117 92.7792 58.182 92.4935 58.5208 92.283C58.8595 92.0724 59.3301 91.9479 59.9344 91.9131C59.9307 91.7318 59.8667 91.5945 59.7421 91.4992C59.6194 91.404 59.4546 91.3582 59.2477 91.3582C58.9035 91.3582 58.5519 91.4864 58.1912 91.7409L58.1784 91.7281L58.3761 90.9279C58.508 90.8583 58.6581 90.8034 58.8284 90.7631C58.9987 90.7228 59.1653 90.7027 59.3338 90.7027C59.7568 90.7027 60.0882 90.8144 60.3299 91.036ZM58.887 93.3542C58.9602 93.4183 59.0646 93.4494 59.202 93.4494C59.4473 93.4494 59.6927 93.3651 59.9344 93.1985V92.4459C59.5645 92.4679 59.2807 92.5357 59.0793 92.651C58.8797 92.7645 58.779 92.9129 58.779 93.0923C58.779 93.2022 58.8156 93.2901 58.887 93.3542Z" fill="#001D47"/>
<path d="M64.091 91.0854C64.3309 91.3399 64.4518 91.697 64.4518 92.1548V93.9713H63.6919V92.2152C63.6919 91.9515 63.6259 91.7464 63.4978 91.6036C63.3677 91.4608 63.17 91.3894 62.9063 91.3894C62.769 91.3894 62.6371 91.4113 62.509 91.4553C62.3808 91.4992 62.2691 91.5542 62.172 91.6201V93.9713H61.4121V90.7741H62.1464V90.9792C62.3881 90.7943 62.6921 90.7009 63.0565 90.7009C63.5051 90.7009 63.8493 90.829 64.0892 91.0854H64.091Z" fill="#001D47"/>
<path d="M68.0978 90.776L66.5725 94.4474C66.3619 94.9491 65.9719 95.2 65.4024 95.2C65.2742 95.2 65.1625 95.1927 65.0654 95.1799V94.5335C65.1973 94.5518 65.3035 94.5609 65.3822 94.5609C65.5196 94.5609 65.6331 94.528 65.7228 94.4657C65.8125 94.4016 65.8931 94.2972 65.9645 94.1508L66.025 94.0189L64.6113 90.776H65.45L66.3875 93.0814L67.2665 90.776H68.0978Z" fill="#001D47"/>
<path d="M35.287 88.1593C35.287 89.1518 34.8915 90.104 34.1901 90.8071C33.4888 91.5103 32.5366 91.9058 31.5442 91.9077C31.0516 91.9077 30.5645 91.8106 30.1104 91.622C29.6563 91.4334 29.2424 91.1569 28.8945 90.809C28.5466 90.4611 28.2701 90.0472 28.0815 89.5931C27.8929 89.139 27.7959 88.6519 27.7959 88.1593C27.7959 87.6668 27.8929 87.1797 28.0815 86.7256C28.2701 86.2715 28.5466 85.8576 28.8945 85.5097C29.2424 85.1618 29.6563 84.8853 30.1104 84.6967C30.5663 84.5081 31.0534 84.411 31.5442 84.411C32.0349 84.411 32.5238 84.5081 32.9779 84.6967C33.4321 84.8853 33.8459 85.1618 34.1938 85.5097C34.5417 85.8576 34.8182 86.2715 35.0068 86.7256C35.1954 87.1797 35.2925 87.6668 35.2925 88.1593M31.535 82.3547C30.7733 82.3547 30.017 82.5048 29.312 82.796C28.607 83.0871 27.968 83.5156 27.4278 84.0558C26.8876 84.5941 26.461 85.235 26.1698 85.94C25.8787 86.645 25.7285 87.3994 25.7285 88.163C25.7285 88.9248 25.8787 89.681 26.1698 90.386C26.461 91.091 26.8894 91.73 27.4296 92.2702C27.9698 92.8086 28.6089 93.2371 29.3139 93.5282C30.0188 93.8194 30.7733 93.9695 31.5368 93.9695C32.3004 93.9695 33.0548 93.8194 33.7598 93.5282C34.4648 93.2371 35.1057 92.8086 35.6459 92.2702C36.1842 91.7319 36.6127 91.091 36.9057 90.386C37.1987 89.681 37.3488 88.9266 37.3488 88.163C37.3488 87.3994 37.1987 86.645 36.9075 85.94C36.6164 85.235 36.1879 84.5941 35.6477 84.0558C35.1075 83.5174 34.4666 83.089 33.7617 82.796C33.0567 82.5048 32.3004 82.3547 31.5387 82.3547H31.535Z" fill="#001D47"/>
<path d="M38.6744 86.9855H24.377V89.3349H38.6744V86.9855Z" fill="#001D47"/>
</svg>
