<svg width="194" height="36" viewBox="0 0 194 36" fill="none" xmlns="http://www.w3.org/2000/svg">
<path d="M3.06988 6.18933V12.9624H0.901675V6.18933H0V4.54705H0.901675V3.46293C0.901675 2.22853 1.66377 0.983398 3.43486 0.983398H4.66928V2.81889H3.82126C3.30603 2.81889 3.06988 3.09797 3.06988 3.60247V4.54705H4.66928V6.18933H3.06988Z" fill="#133358"/>
<path d="M9.12303 12.9625C7.3412 12.9625 6.58984 11.7174 6.58984 10.483V1.1123H8.75811V10.3542C8.75811 10.8694 8.97275 11.1378 9.52017 11.1378H10.3574V12.9732H9.12303V12.9625Z" fill="#133358"/>
<path d="M17.0672 6.88707C16.8311 6.37184 16.348 5.98542 15.6181 5.98542C14.8882 5.98542 14.4052 6.37184 14.1691 6.88707C14.0403 7.19835 13.9866 7.4345 13.9651 7.82092H17.2604C17.239 7.4345 17.196 7.20909 17.0565 6.88707M13.9651 9.30219C13.9651 10.4185 14.6521 11.2343 15.8651 11.2343C16.8096 11.2343 17.2819 10.9659 17.8293 10.4185L19.1496 11.6958C18.2694 12.576 17.4215 13.0591 15.8543 13.0591C13.8041 13.0591 11.8398 12.1252 11.8398 8.61522C11.8398 5.78148 13.3747 4.18213 15.6181 4.18213C18.0333 4.18213 19.3965 5.94249 19.3965 8.32541V9.29146H13.9651V9.30219Z" fill="#133358"/>
<path d="M24.26 12.9622C22.4997 12.9622 21.7483 11.7171 21.7483 10.4827V6.18913H20.8359V4.54684H21.7483V1.98145H23.9166V4.54684H25.4515V6.18913H23.9166V10.3539C23.9166 10.8584 24.1527 11.1374 24.6679 11.1374H25.4515V12.9729H24.2707L24.26 12.9622Z" fill="#133358"/>
<path d="M31.0077 13.0591C29.2796 13.0591 27.1328 12.1252 27.1328 8.61522C27.1328 5.10524 29.2796 4.18213 31.0077 4.18213C32.2099 4.18213 33.1008 4.54708 33.8737 5.35212L32.4139 6.81193C31.963 6.32891 31.5766 6.12496 31.0185 6.12496C30.5032 6.12496 30.1061 6.30744 29.7841 6.69386C29.4513 7.11248 29.301 7.69211 29.301 8.60449C29.301 9.51687 29.4513 10.118 29.7841 10.5366C30.0953 10.923 30.5032 11.1055 31.0185 11.1055C31.5874 11.1055 31.963 10.9123 32.4139 10.4293L33.8737 11.8783C33.1116 12.6726 32.2099 13.0591 31.0077 13.0591Z" fill="#133358"/>
<path d="M40.543 12.9625V7.67071C40.543 6.52218 39.8131 6.13576 39.1262 6.13576C38.4392 6.13576 37.7308 6.53292 37.7308 7.67071V12.9625H35.5625V1.1123H37.7308V5.09458C38.3104 4.49348 39.051 4.19293 39.8131 4.19293C41.713 4.19293 42.7113 5.52393 42.7113 7.35943V12.9732H40.543V12.9625Z" fill="#133358"/>
<path d="M49.9237 6.88707C49.6875 6.37184 49.2045 5.98542 48.4746 5.98542C47.7447 5.98542 47.2617 6.37184 47.0255 6.88707C46.8967 7.19835 46.843 7.4345 46.8216 7.82092H50.1169C50.0954 7.4345 50.0525 7.20909 49.9129 6.88707M46.8323 9.30219C46.8323 10.4185 47.5193 11.2343 48.7322 11.2343C49.6768 11.2343 50.1491 10.9659 50.6965 10.4185L52.0168 11.6958C51.1366 12.576 50.2886 13.0591 48.7215 13.0591C46.6713 13.0591 44.707 12.1252 44.707 8.61522C44.707 5.78148 46.2419 4.18213 48.4853 4.18213C50.9004 4.18213 52.2637 5.94249 52.2637 8.32541V9.29146H46.8431L46.8323 9.30219Z" fill="#133358"/>
<path d="M59.0559 6.65093C58.7232 6.31818 58.4441 6.1357 57.9074 6.1357C57.2419 6.1357 56.512 6.6402 56.512 7.73505V12.9625H54.3438V4.28948H56.4584V5.12672C56.877 4.62223 57.7035 4.19287 58.6373 4.19287C59.4853 4.19287 60.0864 4.40755 60.6875 5.00865L59.0559 6.65093Z" fill="#133358"/>
<path d="M69.7804 6.1357C68.4816 6.1357 68.3099 7.19836 68.3099 8.61523C68.3099 10.0321 68.4816 11.1162 69.7804 11.1162C71.0792 11.1162 71.2402 10.0321 71.2402 8.61523C71.2402 7.19836 71.0685 6.1357 69.7804 6.1357ZM72.5283 12.2755C72.0452 12.7585 71.2617 13.0591 70.4137 13.0591C69.5658 13.0591 68.8788 12.8229 68.3206 12.1896V16.1397H66.1523V4.28948H68.2455V5.10525C68.8466 4.43975 69.4906 4.19287 70.4137 4.19287C71.2617 4.19287 72.0452 4.49342 72.5283 4.97644C73.3977 5.84589 73.4085 7.32716 73.4085 8.62597C73.4085 9.92477 73.387 11.4168 72.5283 12.2862" fill="#133358"/>
<path d="M80.5481 6.65093C80.2154 6.31818 79.9363 6.1357 79.3996 6.1357C78.7341 6.1357 78.0041 6.6402 78.0041 7.73505V12.9625H75.8359V4.28948H77.9505V5.12672C78.3691 4.62223 79.1956 4.19287 80.1295 4.19287C80.9775 4.19287 81.5785 4.40755 82.1796 5.00865L80.5481 6.65093Z" fill="#133358"/>
<path d="M85.6995 4.28955H83.5312V12.9625H85.6995V4.28955Z" fill="#133358"/>
<path d="M93.3524 6.88707C93.1163 6.37184 92.6332 5.98542 91.9033 5.98542C91.1734 5.98542 90.6904 6.37184 90.4542 6.88707C90.3254 7.19835 90.2718 7.4345 90.2503 7.82092H93.5456C93.5241 7.4345 93.4812 7.20909 93.3417 6.88707M90.2503 9.30219C90.2503 10.4185 90.9373 11.2343 92.1502 11.2343C93.0948 11.2343 93.567 10.9659 94.1145 10.4185L95.4348 11.6958C94.5546 12.576 93.7066 13.0591 92.1395 13.0591C90.0893 13.0591 88.125 12.1252 88.125 8.61522C88.125 5.78148 89.6599 4.18213 91.9033 4.18213C94.3184 4.18213 95.6816 5.94249 95.6816 8.32541V9.29146H90.261L90.2503 9.30219Z" fill="#133358"/>
<path d="M101.017 13.0591C99.6535 13.0591 98.4191 12.9088 97.3242 11.8139L98.7411 10.3971C99.4603 11.1162 100.394 11.2128 101.06 11.2128C101.811 11.2128 102.595 10.966 102.595 10.3112C102.595 9.88183 102.358 9.58128 101.682 9.51688L100.319 9.38807C98.7519 9.2378 97.7858 8.55083 97.7858 6.96221C97.7858 5.16965 99.3637 4.19287 101.135 4.19287C102.487 4.19287 103.614 4.42902 104.452 5.21259L103.121 6.56506C102.616 6.11424 101.854 5.98543 101.103 5.98543C100.233 5.98543 99.8682 6.38258 99.8682 6.82267C99.8682 7.13395 99.997 7.50964 100.77 7.57404L102.133 7.70285C103.85 7.87459 104.72 8.78697 104.72 10.2468C104.72 12.1574 103.088 13.0698 101.038 13.0698" fill="#133358"/>
<path d="M109.733 12.9627C107.972 12.9627 107.221 11.7176 107.221 10.4832V6.18962H106.309V4.54733H107.221V1.98193H109.389V4.54733H110.924V6.18962H109.389V10.3544C109.389 10.8589 109.625 11.1379 110.141 11.1379H110.924V12.9734H109.743L109.733 12.9627Z" fill="#133358"/>
<path d="M121.508 9.30221H119.79C119.007 9.30221 118.577 9.66716 118.577 10.279C118.577 10.8908 118.975 11.2772 119.823 11.2772C120.424 11.2772 120.799 11.2236 121.186 10.8586C121.422 10.6439 121.508 10.2897 121.508 9.76377V9.30221ZM121.551 12.9625V12.2111C120.971 12.7907 120.424 13.0483 119.415 13.0483C118.406 13.0483 117.719 12.8015 117.204 12.2862C116.742 11.8032 116.484 11.1055 116.484 10.3434C116.484 8.95872 117.429 7.83167 119.447 7.83167H121.497V7.40231C121.497 6.45773 121.036 6.03911 119.887 6.03911C119.05 6.03911 118.674 6.24305 118.223 6.75828L116.839 5.40581C117.687 4.47196 118.524 4.20361 119.973 4.20361C122.409 4.20361 123.665 5.23406 123.665 7.2735V12.9839H121.551V12.9625Z" fill="#133358"/>
<path d="M131.251 6.65093C130.919 6.31818 130.629 6.1357 130.103 6.1357C129.437 6.1357 128.707 6.6402 128.707 7.73505V12.9625H126.539V4.28948H128.654V5.12672C129.072 4.62223 129.899 4.19287 130.833 4.19287C131.681 4.19287 132.282 4.40755 132.883 5.00865L131.251 6.65093Z" fill="#133358"/>
<path d="M137.202 13.0591C135.474 13.0591 133.316 12.1252 133.316 8.61522C133.316 5.10524 135.463 4.18213 137.202 4.18213C138.394 4.18213 139.295 4.54708 140.068 5.35212L138.597 6.81193C138.147 6.32891 137.771 6.12496 137.202 6.12496C136.687 6.12496 136.29 6.30744 135.968 6.69386C135.635 7.11248 135.485 7.69211 135.485 8.60449C135.485 9.51687 135.635 10.118 135.968 10.5366C136.29 10.923 136.687 11.1055 137.202 11.1055C137.771 11.1055 138.147 10.9123 138.597 10.4293L140.068 11.8783C139.306 12.6726 138.404 13.0591 137.202 13.0591Z" fill="#133358"/>
<path d="M147.064 12.9625V7.67071C147.064 6.52218 146.334 6.13576 145.647 6.13576C144.96 6.13576 144.251 6.53292 144.251 7.67071V12.9625H142.094V1.1123H144.251V5.09458C144.831 4.49348 145.561 4.19293 146.334 4.19293C148.234 4.19293 149.232 5.52393 149.232 7.35943V12.9732H147.064V12.9625Z" fill="#133358"/>
<path d="M154.106 4.28955H151.938V12.9625H154.106V4.28955Z" fill="#133358"/>
<path d="M159.755 12.9622C157.984 12.9622 157.233 11.7171 157.233 10.4827V6.18913H156.32V4.54684H157.233V1.98145H159.401V4.54684H160.936V6.18913H159.401V10.3539C159.401 10.8584 159.637 11.1374 160.152 11.1374H160.936V12.9729H159.755V12.9622Z" fill="#133358"/>
<path d="M167.771 6.88707C167.535 6.37184 167.052 5.98542 166.322 5.98542C165.592 5.98542 165.109 6.37184 164.873 6.88707C164.744 7.19835 164.691 7.4345 164.669 7.82092H167.965C167.954 7.4345 167.9 7.20909 167.761 6.88707M164.68 9.30219C164.68 10.4185 165.356 11.2343 166.58 11.2343C167.535 11.2343 167.997 10.9659 168.544 10.4185L169.864 11.6958C168.984 12.576 168.136 13.0591 166.569 13.0591C164.519 13.0591 162.555 12.1252 162.555 8.61522C162.555 5.78148 164.09 4.18213 166.333 4.18213C168.748 4.18213 170.111 5.94249 170.111 8.32541V9.29146H164.68V9.30219Z" fill="#133358"/>
<path d="M175.574 13.0591C173.846 13.0591 171.699 12.1252 171.699 8.61522C171.699 5.10524 173.846 4.18213 175.574 4.18213C176.776 4.18213 177.667 4.54708 178.44 5.35212L176.98 6.81193C176.529 6.32891 176.143 6.12496 175.585 6.12496C175.07 6.12496 174.672 6.30744 174.35 6.69386C174.018 7.11248 173.867 7.69211 173.867 8.60449C173.867 9.51687 174.018 10.118 174.35 10.5366C174.672 10.923 175.07 11.1055 175.585 11.1055C176.154 11.1055 176.529 10.9123 176.98 10.4293L178.44 11.8783C177.678 12.6726 176.776 13.0591 175.574 13.0591Z" fill="#133358"/>
<path d="M183.174 12.9622C181.414 12.9622 180.662 11.7171 180.662 10.4827V6.18913H179.75V4.54684H180.662V1.98145H182.831V4.54684H184.355V6.18913H182.831V10.3539C182.831 10.8584 183.067 11.1374 183.582 11.1374H184.366V12.9729H183.185L183.174 12.9622Z" fill="#133358"/>
<path d="M189.539 13.0591C188.176 13.0591 186.942 12.9088 185.836 11.8139L187.253 10.3971C187.972 11.1162 188.906 11.2128 189.571 11.2128C190.323 11.2128 191.106 10.966 191.106 10.3112C191.106 9.88183 190.87 9.58128 190.194 9.51688L188.831 9.38807C187.264 9.2378 186.297 8.55083 186.297 6.96221C186.297 5.16965 187.875 4.19287 189.646 4.19287C190.999 4.19287 192.126 4.42902 192.963 5.21259L191.632 6.56506C191.139 6.11424 190.366 5.98543 189.614 5.98543C188.745 5.98543 188.38 6.38258 188.38 6.82267C188.38 7.13395 188.509 7.50964 189.271 7.57404L190.634 7.70285C192.351 7.87459 193.21 8.78697 193.21 10.2468C193.21 12.1574 191.579 13.0698 189.528 13.0698" fill="#133358"/>
<path d="M3.09177 32.3693C1.30995 32.3693 0.558594 31.1241 0.558594 29.8897V20.519H2.72686V29.7609C2.72686 30.2761 2.9415 30.5445 3.48892 30.5445H4.31545V32.38H3.08103L3.09177 32.3693Z" fill="#133358"/>
<path d="M10.2943 25.9289C10.0474 25.682 9.71464 25.5424 9.27455 25.5424C8.83446 25.5424 8.52318 25.6712 8.2763 25.9289C7.82548 26.3797 7.77178 27.1203 7.77178 28.022C7.77178 28.9236 7.82548 29.6857 8.2763 30.1365C8.52318 30.3834 8.84519 30.523 9.27455 30.523C9.7039 30.523 10.0367 30.3942 10.2943 30.1365C10.7451 29.6857 10.7987 28.9236 10.7987 28.022C10.7987 27.1203 10.7451 26.3689 10.2943 25.9289ZM11.9795 31.4031C11.4428 31.972 10.5626 32.4658 9.28529 32.4658C8.00796 32.4658 7.13851 31.9613 6.60182 31.4031C5.81825 30.5874 5.625 29.5998 5.625 28.022C5.625 26.4441 5.82898 25.478 6.60182 24.6623C7.13851 24.0934 7.99723 23.5996 9.28529 23.5996C10.5734 23.5996 11.4535 24.0934 11.9795 24.6623C12.7631 25.478 12.9563 26.4548 12.9563 28.022C12.9563 29.5891 12.7523 30.5874 11.9795 31.4031Z" fill="#133358"/>
<path d="M20.1035 32.3692V27.1203C20.1035 25.9396 19.3521 25.5424 18.6759 25.5424C17.9997 25.5424 17.2268 25.9396 17.2268 27.1203V32.3692H15.0586V23.6962H17.1731V24.5013C17.742 23.9002 18.5364 23.5996 19.3414 23.5996C20.2108 23.5996 20.9085 23.8894 21.3915 24.3617C22.0892 25.0594 22.2717 25.8752 22.2717 26.8305V32.3692H20.1035Z" fill="#133358"/>
<path d="M27.8429 25.5532C26.5441 25.5532 26.3831 26.6159 26.3831 28.0328C26.3831 29.4496 26.5441 30.5338 27.8429 30.5338C29.1417 30.5338 29.3242 29.4604 29.3242 28.0328C29.3242 26.6052 29.1417 25.5532 27.8429 25.5532ZM29.3671 32.3693V31.5535C28.766 32.219 28.1327 32.4659 27.2203 32.4659C26.3723 32.4659 25.5781 32.1653 25.095 31.6823C24.2256 30.8128 24.2148 29.3208 24.2148 28.022C24.2148 26.7232 24.2256 25.242 25.095 24.3832C25.5781 23.9002 26.3617 23.5997 27.2096 23.5997C28.0576 23.5997 28.7553 23.8358 29.3242 24.4691V20.5298H31.4924V32.38H29.3778L29.3671 32.3693Z" fill="#133358"/>
<path d="M38.4407 25.9289C38.1938 25.682 37.8611 25.5424 37.421 25.5424C36.9809 25.5424 36.6696 25.6712 36.4227 25.9289C35.9719 26.3797 35.929 27.1203 35.929 28.022C35.929 28.9236 35.9826 29.6857 36.4227 30.1365C36.6696 30.3834 36.9916 30.523 37.421 30.523C37.8503 30.523 38.1831 30.3942 38.4407 30.1365C38.8915 29.6857 38.9345 28.9236 38.9345 28.022C38.9345 27.1203 38.8915 26.3689 38.4407 25.9289ZM40.1152 31.4031C39.5785 31.972 38.6983 32.4658 37.421 32.4658C36.1436 32.4658 35.2742 31.9613 34.7375 31.4031C33.9539 30.5874 33.75 29.5998 33.75 28.022C33.75 26.4441 33.9539 25.478 34.7375 24.6623C35.2635 24.0934 36.1329 23.5996 37.421 23.5996C38.709 23.5996 39.5892 24.0934 40.1152 24.6623C40.8988 25.478 41.092 26.4548 41.092 28.022C41.092 29.5891 40.888 30.5874 40.1152 31.4031Z" fill="#133358"/>
<path d="M48.2481 32.3692V27.1203C48.2481 25.9396 47.4967 25.5424 46.8204 25.5424C46.1442 25.5424 45.3714 25.9396 45.3714 27.1203V32.3692H43.2031V23.6962H45.3177V24.5013C45.8866 23.9002 46.6809 23.5996 47.4752 23.5996C48.3446 23.5996 49.0424 23.8894 49.5254 24.3617C50.2231 25.0594 50.4056 25.8752 50.4056 26.8305V32.3692H48.2373H48.2481Z" fill="#133358"/>
<path d="M61.2786 28.7737V31.4465H59.2499V28.7737H56.5664V26.745H59.2499V24.083H61.2786V26.745H63.9406V28.7737H61.2786Z" fill="#133358"/>
<path d="M75.62 32.3693L73.4839 28.7627L72.5715 29.7931V32.3693H70.4141V20.519H72.5715V27.2492L75.4483 23.6963H78.0673L74.9652 27.1955L78.3034 32.3693H75.62Z" fill="#133358"/>
<path d="M84.0471 25.9289C83.8003 25.682 83.4676 25.5424 83.0275 25.5424C82.5874 25.5424 82.276 25.6712 82.0292 25.9289C81.5783 26.3797 81.5247 27.1203 81.5247 28.022C81.5247 28.9236 81.5783 29.6857 82.0292 30.1365C82.276 30.3834 82.5981 30.523 83.0275 30.523C83.4568 30.523 83.7895 30.3942 84.0471 30.1365C84.498 29.6857 84.5409 28.9236 84.5409 28.022C84.5409 27.1203 84.4872 26.3689 84.0471 25.9289ZM85.7324 31.4031C85.1957 31.972 84.3155 32.4658 83.0382 32.4658C81.7608 32.4658 80.8914 31.9613 80.3547 31.4031C79.5711 30.5874 79.3672 29.5998 79.3672 28.022C79.3672 26.4441 79.5711 25.478 80.3547 24.6623C80.8806 24.0934 81.7501 23.5996 83.0382 23.5996C84.3262 23.5996 85.2064 24.0934 85.7324 24.6623C86.5159 25.478 86.7092 26.4548 86.7092 28.022C86.7092 29.5891 86.5052 30.5874 85.7324 31.4031Z" fill="#133358"/>
<path d="M91.4199 32.3693C89.6381 32.3693 88.8867 31.1241 88.8867 29.8897V20.519H91.055V29.7609C91.055 30.2761 91.2697 30.5445 91.8171 30.5445H92.6543V32.38H91.4199V32.3693Z" fill="#133358"/>
<path d="M99.7832 32.3692V27.1203C99.7832 25.9396 99.0318 25.5424 98.3556 25.5424C97.6794 25.5424 96.9065 25.9396 96.9065 27.1203V32.3692H94.7383V23.6962H96.8528V24.5013C97.4217 23.9002 98.216 23.5996 99.0211 23.5996C99.8905 23.5996 100.588 23.8894 101.071 24.3617C101.769 25.0594 101.951 25.8752 101.951 26.8305V32.3692H99.7832Z" fill="#133358"/>
<path d="M85.8356 20.1973H80.2969V22.2474H85.8356V20.1973Z" fill="#133358"/>
<path d="M112.876 28.7737V31.4465H110.848V28.7737H108.164V26.745H110.848V24.083H112.876V26.745H115.538V28.7737H112.876Z" fill="#133358"/>
<path d="M126.842 26.0469C126.509 25.7142 126.23 25.5317 125.694 25.5317C125.028 25.5317 124.298 26.0255 124.298 27.1203V32.3262H122.141V23.6855H124.244V24.512C124.663 24.0182 125.49 23.5781 126.423 23.5781C127.271 23.5781 127.872 23.7928 128.463 24.3939L126.842 26.0362V26.0469Z" fill="#133358"/>
<path d="M132.04 23.6855H129.883V32.3263H132.04V23.6855Z" fill="#133358"/>
<path d="M137.824 25.5317C136.547 25.5317 136.408 26.6266 136.408 27.7751C136.408 28.9236 136.536 30.0292 137.824 30.0292C139.112 30.0292 139.252 28.9129 139.252 27.7751C139.252 26.6373 139.102 25.5317 137.824 25.5317ZM137.61 35.6001C136.279 35.6001 135.366 35.3317 134.475 34.473L135.817 33.1098C136.3 33.5714 136.783 33.7753 137.513 33.7753C138.812 33.7753 139.252 32.8629 139.252 31.9828V31.1026C138.683 31.7359 138.039 31.9613 137.191 31.9613C136.343 31.9613 135.613 31.6822 135.13 31.1992C134.314 30.3834 134.25 29.2778 134.25 27.7643C134.25 26.2509 134.314 25.156 135.13 24.351C135.613 23.8679 136.354 23.5889 137.202 23.5889C138.114 23.5889 138.715 23.8357 139.306 24.5012V23.6855H141.399V32.015C141.399 34.0866 139.917 35.6001 137.599 35.6001" fill="#133358"/>
<path d="M148.473 28.6875H146.766C145.982 28.6875 145.553 29.0524 145.553 29.6642C145.553 30.2761 145.95 30.6625 146.798 30.6625C147.399 30.6625 147.775 30.6088 148.161 30.2439C148.398 30.0292 148.473 29.675 148.473 29.149V28.6875ZM148.526 32.337V31.5963C147.947 32.176 147.399 32.4229 146.401 32.4229C145.403 32.4229 144.705 32.176 144.201 31.6607C143.739 31.1777 143.492 30.48 143.492 29.7179C143.492 28.344 144.437 27.2062 146.444 27.2062H148.483V26.7768C148.483 25.8322 148.022 25.4136 146.873 25.4136C146.047 25.4136 145.66 25.6068 145.21 26.1221L143.836 24.7803C144.684 23.8572 145.51 23.5889 146.949 23.5889C149.374 23.5889 150.63 24.6193 150.63 26.6373V32.3262H148.526V32.337Z" fill="#133358"/>
</svg>
