<svg width="119" height="39" viewBox="0 0 119 39" fill="none" xmlns="http://www.w3.org/2000/svg">
<path d="M81.8339 38.1725C80.9645 34.5874 80.0951 31.0022 79.2149 27.4171C77.3472 19.8605 75.4794 12.3038 73.6117 4.74715C73.5795 4.60761 73.5366 4.46807 73.4937 4.32853C72.8496 1.94561 72.4633 1.61286 70.0804 1.43038C69.9408 0.936622 69.7368 0.442863 70.5848 0.442863C75.6619 0.442863 80.7391 0.442863 86.0524 0.442863C85.9236 0.872218 85.9235 1.37671 85.7303 1.46258C84.5389 2.01001 84.571 3.04046 84.775 4.03871C85.2043 6.11035 85.7303 8.16053 86.2348 10.2214C87.4477 15.202 88.6607 20.1825 89.9166 25.3347C90.0776 25.0449 90.2063 24.9054 90.2492 24.7336C91.1401 21.2237 92.0204 17.7029 92.8791 14.1822C92.9757 13.7851 92.9757 13.3235 92.8791 12.9264C92.2029 10.1034 91.5051 7.28035 90.7859 4.45734C90.4639 3.18 90.0454 1.97781 88.6071 1.51625C88.3924 1.45185 88.3171 0.947355 88.1132 0.518C88.564 0.475064 88.7573 0.432129 88.9612 0.432129C93.6949 0.432129 98.4285 0.432129 103.162 0.432129C103.817 0.432129 104.321 0.475064 104.01 1.35524C102.132 1.69873 101.659 2.27836 102.099 4.15679C103.753 11.1767 105.47 18.1752 107.22 25.4099C107.381 25.0235 107.499 24.8195 107.552 24.6156C108.905 19.2916 110.268 13.9783 111.567 8.64355C111.803 7.6453 111.9 6.57191 111.814 5.55219C111.578 2.70771 110.558 1.72019 107.778 1.40891C107.649 0.893686 107.531 0.453597 108.347 0.453597C111.535 0.464331 114.723 0.453597 117.932 0.453597C118.211 1.12983 118.19 1.53772 117.363 1.49478C116.075 1.43038 115.184 2.16028 114.68 3.23367C114.014 4.65055 113.402 6.12109 113.016 7.63457C110.472 17.499 107.992 27.3849 105.491 37.2601C105.416 37.5714 105.298 37.8719 105.202 38.1832H99.1047C99.0832 37.9685 99.0833 37.7538 99.0404 37.5499C97.3337 30.6588 95.627 23.7676 93.9203 16.8764C93.8666 16.6618 93.7808 16.4471 93.7056 16.2324C93.0509 18.025 92.6 19.8175 92.1492 21.6101C90.7537 27.138 89.3476 32.6552 87.9522 38.1832H81.8554L81.8339 38.1725Z" fill="#133358"/>
<path d="M0 0.399902C3.40264 0.410636 6.79455 0.432104 10.1972 0.442838C17.668 0.442838 25.1388 0.442838 32.5988 0.442838H33.8868C33.9405 0.711185 34.005 0.915129 34.005 1.11907C34.005 5.75611 34.0049 10.4039 34.0264 15.0409C34.0264 15.7494 33.844 16.0606 33.0712 15.8138C32.674 12.2394 31.2786 9.04068 29.4001 6.05666C28.7776 5.06914 28.0477 4.12456 27.2748 3.25512C25.7614 1.58063 24.9562 1.32302 22.4982 1.55916V2.78283C22.4982 12.9585 22.4982 23.145 22.4982 33.3207C22.4982 36.4121 23.0778 37.0132 26.1155 37.0991C26.255 37.0991 26.3947 37.1205 26.6093 37.142C26.6415 37.4855 26.6737 37.829 26.7059 38.1617H7.35268C7.37415 37.8182 7.38494 37.4855 7.40641 37.0669C7.99677 37.0669 8.49049 37.0991 8.97351 37.0669C10.6802 36.9273 11.4101 36.1545 11.5282 34.3941C11.5496 34.0721 11.5497 33.7501 11.5497 33.4281C11.5497 23.1772 11.5497 12.9263 11.5497 2.67549C11.5497 2.2998 11.5174 1.92411 11.4959 1.6021C9.47798 1.12981 7.97534 1.80604 6.77314 3.25512C5.97884 4.21043 5.20592 5.19795 4.55116 6.24987C2.73713 9.18022 1.39544 12.3252 0.97682 15.846C0.611868 15.8782 0.300549 15.9104 0 15.9426V0.399902Z" fill="#133358"/>
<path d="M37.2344 38.1725C37.2666 37.8612 37.3096 37.5392 37.3526 37.1528C37.9859 37.1098 38.6192 37.1206 39.231 37.0347C40.6908 36.8308 41.324 36.133 41.4528 34.6303C41.4851 34.2009 41.4958 33.7716 41.4958 33.3422C41.4958 23.993 41.4958 14.6331 41.4958 5.28386C41.4958 4.99405 41.4958 4.70423 41.4958 4.42515C41.4207 2.38571 40.7122 1.64507 38.7586 1.50553C38.5118 1.48407 38.2756 1.47333 37.9751 1.4626C37.7497 0.850767 37.739 0.453613 38.5655 0.453613C44.1793 0.464347 49.7823 0.464347 55.3962 0.453613C56.1905 0.453613 56.1261 0.872234 56.0081 1.39819C53.389 1.65581 52.4336 1.68801 52.4443 5.60588C52.4765 14.6653 52.4443 23.7354 52.4443 32.8055V33.4496C52.4551 36.6805 54.194 37.9149 57.1888 36.7985C58.8525 36.176 60.1298 34.9845 61.214 33.5999C63.8652 30.2401 65.6578 26.4726 66.3341 22.1683C66.377 21.8784 66.7741 21.6423 67.0103 21.3847C67.1176 21.4491 67.2141 21.5135 67.3215 21.5886V38.1832H37.2344V38.1725Z" fill="#133358"/>
</svg>
