<svg width="194" height="31" viewBox="0 0 194 31" fill="none" xmlns="http://www.w3.org/2000/svg">
<path d="M11.2491 0.504883C11.818 0.934238 12.5157 0.826899 13.1598 0.955706C15.5105 1.40653 17.7002 2.24377 19.5679 3.76798C20.9203 4.87357 22.0259 6.15091 22.2298 7.9864C22.4874 10.2835 21.5859 12.3122 19.3425 13.3211C17.829 13.9974 16.2511 14.3838 14.5766 14.3731C14.1365 14.3731 13.6857 14.3731 13.192 14.3731C13.3423 15.3606 13.8037 16.1549 14.1579 16.9921C14.8878 18.6881 15.9291 20.2016 17.0776 21.6292C18.5375 23.4539 20.1261 25.1499 21.9079 26.6741C23.4643 27.9944 25.3105 28.6921 27.2319 29.2288C27.8222 29.3898 28.4126 29.5615 28.9922 29.7225C28.9815 29.8513 28.9815 29.9372 28.8849 29.9479C26.8455 30.1519 24.8383 30.1841 22.8525 29.5508C20.7594 28.8853 18.9131 27.7904 17.1635 26.5238C13.6213 23.9692 10.852 20.7275 8.63009 17.0136C8.09339 16.1227 7.49221 15.2747 6.93405 14.3945C5.76405 12.559 4.01449 11.7218 1.89992 11.5178C1.27735 11.4534 0.665501 11.4105 0 11.3568C0.161008 11.0026 0.493696 11.0241 0.740575 10.949C2.37213 10.4981 4.05736 10.3371 5.72111 10.0902C6.15047 10.0258 6.55838 10.1868 6.95554 10.3264C8.37241 10.8094 9.80007 11.1958 11.3028 11.2924C13.353 11.4105 15.0596 10.6913 16.3692 9.14566C17.3245 8.0186 17.1419 5.34587 16.0256 4.14367C14.7912 2.81267 13.2886 1.95396 11.5712 1.41726C10.4441 1.06305 9.28483 0.816166 8.0719 0.794698C8.15777 0.676625 8.21137 0.590754 8.26504 0.526351H11.2491V0.504883Z" fill="#133358"/>
<path d="M191.569 15.8864C191.601 14.9204 191.483 13.9651 191.118 13.0527C190.646 11.8612 189.84 11.0562 188.499 10.9166C187.028 10.7556 185.869 11.2816 185.225 12.6018C184.141 14.8023 184.119 17.0457 185.268 19.2461C185.901 20.4591 186.964 21.0065 188.348 20.8991C189.712 20.7918 190.592 20.0404 191.086 18.8168C191.472 17.8829 191.601 16.9061 191.569 15.8971M193.2 17.6146C192.9 17.7648 192.964 18.0761 192.889 18.3123C192.47 19.7399 191.783 20.9635 190.388 21.6612C188.338 22.6917 186.116 22.155 184.774 20.3302C184.72 20.2551 184.688 20.1478 184.452 20.18V26.7598C183.479 26.86 182.992 26.4808 182.992 25.6221V10.7664C182.992 10.5946 182.992 10.4229 182.992 10.2511C182.992 10.015 183.067 9.87544 183.336 9.88618C183.411 9.88618 183.486 9.88618 183.561 9.88618C184.42 9.86471 184.42 9.86471 184.398 10.7127C184.398 11.0991 184.398 11.4855 184.398 11.9041C184.645 11.8183 184.71 11.5929 184.817 11.4104C186.491 8.74838 190.967 9.20994 192.277 11.8075C192.578 12.4086 192.803 13.0312 192.964 13.686C193.007 13.8577 192.932 14.1046 193.179 14.1905V17.6146H193.2Z" fill="#133358"/>
<path d="M97.729 10.0258C97.729 10.5947 97.729 11.1636 97.729 11.7325C97.729 11.915 97.7397 12.0975 97.9866 12.0867C98.9741 12.076 99.9831 12.2048 100.938 11.8398C101.84 11.4964 102.237 10.906 102.205 9.96142C102.173 9.02757 101.722 8.49087 100.767 8.22253C99.865 7.96491 98.9418 8.08299 98.0187 8.06152C97.7289 8.06152 97.7182 8.25473 97.7182 8.45867C97.7182 8.98463 97.7182 9.49986 97.7182 10.0258M97.729 16.8633C97.729 17.5288 97.729 18.1943 97.729 18.8598C97.729 19.0637 97.7289 19.2677 98.0187 19.2677C99.1243 19.2355 100.251 19.418 101.325 18.9779C102.248 18.6022 102.699 17.9689 102.699 16.9921C102.699 15.6933 102.001 14.8883 100.691 14.6521C99.8542 14.5018 99.0169 14.5341 98.169 14.5233C97.7825 14.5233 97.7182 14.6951 97.7182 15.0171C97.729 15.6396 97.7182 16.2515 97.7182 16.8633M102.323 13.3855C103.192 13.5787 103.912 13.7827 104.513 14.2442C105.951 15.3176 106.305 17.0028 105.704 18.8598C105.253 20.2552 104.201 21.0281 102.87 21.4789C102.033 21.758 101.174 21.8546 100.305 21.8653C98.5661 21.8868 96.8272 21.876 95.0883 21.8653C94.4872 21.8653 94.4766 21.8653 94.4766 21.2535C94.4766 16.23 94.4766 11.1958 94.4766 6.17235C94.4766 5.52832 94.4765 5.52832 95.1313 5.52832C96.9668 5.52832 98.8131 5.52832 100.649 5.52832C101.507 5.52832 102.334 5.6786 103.117 6.00061C104.706 6.64464 105.522 7.94344 105.5 9.74674C105.468 11.3246 104.577 12.5483 103.042 13.1279C102.86 13.1923 102.677 13.2567 102.323 13.3855Z" fill="#133358"/>
<path d="M124.439 15.7362C124.406 16.6701 124.546 17.561 124.965 18.3982C125.845 20.1908 128.314 20.1049 129.162 18.57C130.171 16.7345 130.203 14.8561 129.108 13.0635C128.099 11.4105 125.813 11.5715 124.933 13.2889C124.546 14.0618 124.417 14.8883 124.439 15.7362ZM129.999 21.876V20.6846C129.838 20.6202 129.773 20.706 129.698 20.7704C127.004 23.3036 122.861 22.359 121.637 18.8813C120.907 16.8096 120.918 14.6843 121.669 12.6127C122.861 9.32811 126.94 8.405 129.484 10.7987C129.57 10.8845 129.612 11.0133 129.698 11.1636C129.945 10.8845 129.892 10.6806 129.892 10.5088C129.892 8.63041 129.892 6.74125 129.892 4.86282C129.892 4.27245 129.892 4.26172 130.514 4.26172C131.158 4.26172 131.802 4.26172 132.457 4.26172C133.047 4.26172 133.058 4.27245 133.058 4.89502C133.058 5.68932 133.058 6.48363 133.058 7.27794C133.058 11.8828 133.058 16.4983 133.058 21.1032C133.058 21.876 133.058 21.876 132.296 21.876C131.555 21.876 130.815 21.876 129.988 21.876" fill="#133358"/>
<path d="M144.273 14.4053C144.144 13.475 144.509 13.0099 145.367 13.0099C146.591 13.0099 147.804 13.0206 149.028 13.0099C149.425 13.0099 149.597 13.0958 149.597 13.5358C149.575 15.9188 149.586 18.3017 149.597 20.6739C149.597 20.9744 149.554 21.1891 149.232 21.3072C146.634 22.241 143.993 22.5094 141.342 21.6399C139.067 20.8886 137.553 19.3107 136.77 17.0673C136.04 14.9742 136.007 12.8274 136.662 10.7021C137.682 7.38533 140.301 5.43176 143.94 5.20635C145.335 5.12047 146.72 5.29222 148.072 5.65717C148.91 5.89331 148.92 5.91478 148.792 6.79496C148.77 6.9667 148.727 7.12771 148.673 7.37459C147.793 7.02037 146.935 6.75203 146.022 6.66616C144.927 6.55882 143.832 6.51588 142.759 6.77349C140.258 7.36386 138.755 8.96321 138.101 11.3891C137.682 12.924 137.714 14.4804 138.101 16.0261C138.82 18.8598 140.999 20.5987 143.983 20.7275C145.131 20.7812 146.269 20.7061 147.385 20.4163C147.782 20.3089 147.997 20.1264 147.986 19.6434C147.944 18.087 147.954 16.5199 147.986 14.9527C147.986 14.4804 147.836 14.3624 147.385 14.3731C146.344 14.4053 145.303 14.3731 144.273 14.3731" fill="#133358"/>
<path d="M32.321 12.7202C33.1475 12.7202 33.8667 12.7524 34.5859 12.7202C35.4124 12.6772 36.2067 12.4733 36.9152 12.0225C37.9134 11.3892 38.3427 10.2729 38.0959 8.96332C37.8919 7.88993 37.2265 7.26737 36.0135 7.03122C34.908 6.81654 33.7808 6.89168 32.6644 6.88095C32.4176 6.88095 32.3103 6.97755 32.3103 7.22443C32.3103 9.02772 32.3103 10.831 32.3103 12.7202M32.3103 14.2337C32.3103 16.4985 32.3103 18.7312 32.3103 20.9531C32.3103 21.9943 32.4713 21.8654 31.4194 21.8762C30.7217 21.8762 30.7109 21.8762 30.7109 21.2107C30.7109 16.2087 30.7109 11.196 30.7109 6.19398C30.7109 5.52848 30.7109 5.51774 31.3442 5.52848C32.8899 5.53921 34.4356 5.45334 35.9706 5.57141C37.9456 5.73242 39.2443 6.80581 39.6415 8.5125C40.1138 10.5734 39.4161 12.7524 36.4321 13.5038C36.4321 13.697 36.6253 13.697 36.7326 13.7292C37.2586 13.9116 37.6236 14.2873 37.849 14.7704C38.9009 17.0889 39.9421 19.4181 41.0262 21.8225C40.468 21.9406 39.9851 21.8762 39.5021 21.8762C39.1693 21.8762 39.1478 21.5756 39.0512 21.361C38.3535 19.7509 37.6021 18.1515 36.9795 16.5092C36.3355 14.8026 35.2513 13.9009 33.3514 14.1585C33.0831 14.1907 32.804 14.1585 32.5356 14.1693C32.4927 14.1693 32.4498 14.1907 32.321 14.2337" fill="#133358"/>
<path d="M55.847 15.8757C55.847 16.9491 55.9973 17.9903 56.4911 18.967C57.1244 20.2336 58.1011 20.9528 59.5609 20.8991C61.0207 20.8455 61.9975 20.0834 62.4805 18.7631C63.189 16.8095 63.189 14.8238 62.4269 12.8917C61.9546 11.7002 61.053 10.9918 59.7112 10.9059C58.2192 10.7985 57.178 11.4318 56.5018 12.7306C55.9866 13.7182 55.8363 14.7916 55.847 15.8971M55.9436 11.6573C56.2227 11.3352 56.4481 11.024 56.7272 10.7556C58.8739 8.74838 62.5986 9.40314 63.8008 12.0651C64.8956 14.5017 64.9064 17.0349 63.8008 19.4823C62.8132 21.6827 60.5162 22.6273 58.1977 21.9403C57.2209 21.6505 56.5233 21.0172 55.847 20.1907C55.847 20.5664 55.8256 20.9421 55.847 21.307C55.8792 21.7256 55.7397 21.8974 55.2996 21.8544C55.0313 21.8222 54.7628 21.8544 54.5374 21.8544C54.3013 21.6505 54.3765 21.4358 54.3765 21.2534C54.3765 15.8005 54.3765 10.3585 54.3765 4.90564C54.3765 4.68023 54.2262 4.33675 54.5696 4.27234C54.9561 4.20794 55.3747 4.14354 55.7396 4.31528C55.9328 4.40115 55.8256 4.68023 55.8256 4.87344C55.8256 6.88068 55.8256 8.88792 55.8256 10.8952C55.8256 11.1313 55.7611 11.3782 55.9114 11.6465" fill="#133358"/>
<path d="M167.664 15.8542C167.696 14.7808 167.46 13.7074 166.901 12.6984C165.56 10.2833 162.018 10.3477 160.633 12.43C159.441 14.2226 159.366 17.4535 160.568 19.2246C162.114 21.5216 165.42 21.468 166.88 19.1065C167.481 18.1297 167.685 17.0349 167.664 15.8434M158.121 15.9186C158.121 14.2119 158.497 12.634 159.635 11.2923C161.696 8.87713 167.009 8.81273 168.651 12.7091C169.563 14.8666 169.553 17.0564 168.576 19.1924C167.814 20.8561 166.483 21.8115 164.68 22.0583C161.019 22.5521 158.518 20.4805 158.132 16.6485C158.11 16.4016 158.132 16.1547 158.132 15.9078" fill="#133358"/>
<path d="M51.0081 15.9295C51.0081 14.4053 50.6646 13.289 50.0098 12.3444C48.6788 10.4338 45.5875 10.4445 44.2135 12.1405C42.7 14.0082 42.6249 17.6362 44.1169 19.5254C45.7914 21.64 49.119 21.2965 50.3534 18.8814C50.8364 17.9368 51.0403 16.9171 50.9974 15.9403M52.5967 15.8973C52.6182 17.3142 52.3284 18.6559 51.5556 19.8581C50.9545 20.7813 50.1387 21.436 49.0867 21.8117C45.77 23.0032 42.6035 21.3716 41.6911 17.9797C41.2403 16.3052 41.3261 14.6307 41.9379 13.0099C42.8074 10.7236 44.9219 9.45701 47.4229 9.62875C50.6646 9.8649 52.2854 12.1297 52.586 15.0816C52.6182 15.3499 52.586 15.629 52.586 15.8973" fill="#133358"/>
<path d="M116.379 11.9578C116.658 11.3459 117.033 10.7985 117.527 10.3477C118.279 9.64999 119.169 9.46752 120.146 9.55339C120.393 9.57485 120.49 9.68219 120.49 9.92907C120.49 10.82 120.49 11.7002 120.49 12.6877C120.007 12.5696 119.577 12.5374 119.137 12.5267C118.085 12.5052 117.398 12.999 117.001 13.9435C116.658 14.7593 116.561 15.618 116.55 16.4875C116.55 18.0976 116.529 19.7076 116.55 21.3177C116.55 21.79 116.411 21.9188 115.96 21.8974C115.316 21.8652 114.672 21.8974 114.017 21.8866C113.416 21.8866 113.405 21.8866 113.405 21.2641C113.405 17.9258 113.405 14.5768 113.405 11.2386C113.405 10.9166 113.416 10.5946 113.405 10.2726C113.384 9.93981 113.47 9.76807 113.856 9.7788C114.479 9.80027 115.101 9.80027 115.724 9.7788C116.078 9.76807 116.218 9.90761 116.207 10.2511C116.185 10.82 116.207 11.3781 116.207 11.947C116.261 11.947 116.325 11.9578 116.379 11.9685" fill="#133358"/>
<path d="M67.6861 15.0706C69.8436 15.0706 71.8723 15.0706 73.9118 15.0706C74.2553 15.0706 74.3197 14.9096 74.3089 14.6091C74.266 13.9114 74.1265 13.2459 73.8474 12.6018C73.0317 10.7234 71.0673 10.5087 69.7363 11.2708C68.3087 12.0759 67.772 13.4069 67.6968 15.0706M74.9852 20.1477C75.0925 21.7793 75.1784 21.5002 73.8367 21.8652C72.7526 22.1657 71.6362 22.2409 70.5091 22.0798C68.6521 21.8222 67.2997 20.8884 66.6557 19.1066C65.8506 16.8739 65.8399 14.6305 66.8489 12.4515C67.8365 10.294 69.9295 9.26358 72.2587 9.73588C73.7722 10.0472 74.7705 10.981 75.3608 12.3657C75.8117 13.4283 75.9405 14.5554 75.9512 15.7039C75.9512 16.1655 75.8117 16.2943 75.3608 16.2835C73.1174 16.2621 70.8741 16.2835 68.6414 16.2835H67.8471C67.407 18.4625 69.0708 20.6844 71.2605 20.8776C72.3232 20.9743 73.3322 20.7059 74.3304 20.3624C74.5344 20.2873 74.7169 20.137 75.0174 20.137" fill="#133358"/>
<path d="M180.618 21.8008C180.554 21.8222 180.489 21.8652 180.414 21.8652C179.663 21.9224 179.287 21.5718 179.287 20.8132V19.9975C178.954 20.1048 178.911 20.3409 178.793 20.5127C177.656 22.1013 176.035 22.3482 174.274 22.0476C172.707 21.7793 171.73 20.6952 171.398 19.0207C171.312 18.6021 171.258 18.1942 171.258 17.7648C171.258 15.3604 171.258 12.956 171.258 10.5516C171.258 10.3262 171.108 9.98274 171.462 9.91834C171.838 9.85394 172.267 9.78954 172.632 9.96128C172.825 10.0579 172.718 10.3262 172.718 10.5194C172.718 12.7306 172.718 14.9311 172.718 17.1422C172.718 17.5931 172.739 18.0332 172.825 18.4732C173.04 19.6003 173.523 20.5127 174.725 20.7918C176.024 21.0923 177.205 20.8347 178.117 19.8043C178.568 19.289 178.836 18.6665 178.965 18.0117C179.072 17.475 179.148 16.9383 179.137 16.3909C179.126 14.4588 179.137 12.5267 179.137 10.5946C179.137 9.90761 179.137 9.90761 179.824 9.89687C180.339 9.89687 180.6 10.1473 180.607 10.6482C180.629 14.3192 180.554 17.9902 180.65 21.6505C180.65 21.6934 180.618 21.7471 180.597 21.8008" fill="#133358"/>
<path d="M107.961 15.8327C107.961 14.0509 107.961 12.2583 107.961 10.4765C107.961 9.77881 107.961 9.77881 108.659 9.77881C109.26 9.77881 109.85 9.77881 110.451 9.77881C111.052 9.77881 111.063 9.77881 111.063 10.4014C111.063 13.2566 111.063 16.1011 111.063 18.9563C111.063 19.7721 111.052 20.5878 111.063 21.4143C111.063 21.7578 110.967 21.9081 110.602 21.8974C109.936 21.8759 109.26 21.8974 108.584 21.8974C107.972 21.8974 107.961 21.8866 107.961 21.2855C107.961 19.4715 107.961 17.6682 107.961 15.8542" fill="#133358"/>
<path d="M86.3962 9.88641C86.3962 9.04917 86.4177 8.33 86.3962 7.61083C86.3747 7.18147 86.4821 6.90239 86.9436 6.81652C87.2335 6.76285 87.4911 6.58038 87.8667 6.60184C87.8667 7.50349 87.8667 8.38367 87.8667 9.27458C87.8667 9.87568 87.8667 9.87568 88.4785 9.87568C89.0259 9.87568 89.5734 9.89715 90.1208 9.87568C90.4858 9.85421 90.6254 9.99375 90.5824 10.348C90.5502 10.5949 90.6253 10.8417 90.518 11.1101C89.8632 11.2174 89.1977 11.1423 88.5322 11.153C87.8775 11.1745 87.8667 11.153 87.8667 11.7863C87.8667 14.1156 87.8667 16.4448 87.8667 18.7741C87.8667 18.8707 87.8667 18.9673 87.8667 19.0746C87.9741 20.5344 88.7255 21.1141 90.1531 20.8242C90.3463 20.7813 90.5288 20.6954 90.7435 20.7384C90.7757 20.7706 90.8293 20.8028 90.8293 20.8457C90.9688 21.8869 90.9474 21.9084 89.9277 22.0801C89.8311 22.0908 89.7344 22.1123 89.6271 22.123C88.017 22.2411 86.6539 21.9298 86.4499 19.6972C86.407 19.2249 86.3855 18.7633 86.3855 18.291C86.3855 16.1121 86.3747 13.9331 86.3855 11.7541C86.3855 11.314 86.2996 11.1101 85.8165 11.1637C85.3764 11.2067 84.9256 11.1637 84.4748 11.1745C84.1742 11.1745 83.9919 11.0993 84.0241 10.7559C84.0348 10.6056 84.0348 10.4553 84.0241 10.305C83.9919 9.98302 84.1313 9.86495 84.4533 9.87568C85.0651 9.89715 85.6877 9.87568 86.3747 9.87568" fill="#133358"/>
<path d="M77.4219 21.7472V9.95071C77.4219 9.95071 77.4863 9.89704 77.5507 9.89704C78.3808 9.84695 78.7958 10.2334 78.7958 11.0563V11.8935C79.1393 11.9257 79.1178 11.6252 79.2251 11.4642C79.7833 10.5733 80.4381 9.83264 81.5651 9.67163C81.5866 9.67163 81.6188 9.66089 81.6402 9.66089C82.7995 9.48915 83.0035 9.66089 82.9713 10.8094C82.9713 10.9275 82.9927 11.0563 82.8854 11.1958C82.6707 11.271 82.4238 11.1958 82.1877 11.1851C80.9533 11.0885 80.0838 11.6145 79.5364 12.7201C79.0427 13.729 78.9032 14.8024 78.9032 15.8973C78.9032 17.6362 78.9032 19.3643 78.9032 21.1032C78.9032 21.9297 79.0105 21.8868 78.0874 21.8868C77.8942 21.8868 77.6902 21.9405 77.4326 21.7687" fill="#133358"/>
<path d="M152.121 9.92943C153.03 9.85787 153.484 10.2479 153.484 11.0994V11.9581C153.817 11.883 153.838 11.6039 153.957 11.4214C154.493 10.5413 155.17 9.85429 156.232 9.67182C157.553 9.43567 157.767 9.67182 157.595 11.1638C157.391 11.2926 157.166 11.196 156.951 11.1853C155.577 11.0994 154.751 11.5932 154.171 12.849C153.753 13.7614 153.602 14.7382 153.602 15.7365C153.602 17.5398 153.602 19.3538 153.602 21.1571C153.602 21.8762 153.602 21.8762 152.873 21.8762H152.121V9.92943Z" fill="#133358"/>
<path d="M109.506 7.52503C109.109 7.52503 108.711 7.52503 108.314 7.52503C108.067 7.52503 107.949 7.42842 107.949 7.17081C107.949 6.4087 107.949 5.63586 107.949 4.87376C107.949 4.62688 108.078 4.53027 108.325 4.53027C109.119 4.53027 109.914 4.53027 110.708 4.53027C110.966 4.53027 111.062 4.63761 111.062 4.88449C111.062 5.6466 111.062 6.41944 111.062 7.18154C111.062 7.44989 110.933 7.51429 110.697 7.51429C110.3 7.51429 109.903 7.51429 109.506 7.51429" fill="#133358"/>
</svg>
