<svg width="59" height="47" viewBox="0 0 59 47" fill="none" xmlns="http://www.w3.org/2000/svg">
<path d="M4.39453 44.4561C4.39453 43.0032 5.48418 41.9136 6.91282 41.9136C7.68163 41.9136 8.30514 42.2223 8.72284 42.7248C8.78338 42.8035 8.80154 42.864 8.741 42.9245L8.48675 43.1606C8.39595 43.2514 8.31725 43.209 8.25672 43.1485C7.94798 42.8216 7.57266 42.5734 6.94309 42.5734C5.87766 42.5734 5.08464 43.3422 5.08464 44.45C5.08464 45.5578 5.87766 46.3266 6.9552 46.3266C7.58477 46.3266 7.96009 46.0784 8.25672 45.7637C8.32331 45.6971 8.402 45.6547 8.49281 45.7455L8.74706 45.9816C8.80759 46.0421 8.78943 46.1027 8.72889 46.1814C8.3112 46.6838 7.69373 46.9925 6.91282 46.9925C5.47812 46.9925 4.39453 45.9029 4.39453 44.4561Z" fill="#001D47"/>
<path d="M11.375 44.4561C11.375 43.0153 12.4404 41.9136 13.857 41.9136C15.2735 41.9136 16.3268 43.0093 16.3268 44.4561C16.3268 45.9029 15.2614 46.9925 13.857 46.9925C12.4525 46.9925 11.375 45.8968 11.375 44.4561ZM15.6307 44.4561C15.6307 43.3604 14.8679 42.5795 13.8509 42.5795C12.8339 42.5795 12.0651 43.3604 12.0651 44.4561C12.0651 45.5518 12.8279 46.3327 13.8509 46.3327C14.874 46.3327 15.6307 45.5518 15.6307 44.4561Z" fill="#001D47"/>
<path d="M21.7019 42.186V42.5189C21.7019 42.6279 21.6353 42.6461 21.5264 42.6158C21.3992 42.5734 21.2782 42.5674 21.1813 42.5674C20.3096 42.5674 20.0735 43.3483 20.0735 43.8931V46.7383C20.0735 46.8291 20.0311 46.8775 19.9464 46.8775H19.4924C19.4016 46.8775 19.3652 46.8291 19.3652 46.7383V42.1739C19.3652 42.0831 19.4076 42.0346 19.4924 42.0346H19.9101C20.0069 42.0346 20.0493 42.077 20.0493 42.1799L20.0675 42.7308C20.2551 42.2768 20.582 41.9136 21.1813 41.9136C21.3811 41.9136 21.5385 41.956 21.6232 42.0104C21.6838 42.0528 21.7019 42.0891 21.7019 42.1799V42.186Z" fill="#001D47"/>
<path d="M28.4812 44.7163H24.837C24.9278 45.6728 25.5876 46.3932 26.762 46.3932C27.3553 46.3932 27.779 46.2176 28.1543 45.927C28.2028 45.8847 28.2633 45.8847 28.2996 45.9391L28.4691 46.1692C28.5357 46.26 28.4994 46.3084 28.4268 46.375C27.9909 46.7927 27.3674 46.9985 26.6954 46.9985C25.1154 46.9985 24.1348 45.8544 24.1348 44.4378C24.1348 43.0213 25.1215 41.9196 26.5683 41.9196C28.0151 41.9196 28.8323 43.0274 28.8323 44.2139C28.8323 44.571 28.7658 44.7163 28.4752 44.7163H28.4812ZM24.8309 44.1594H28.2028C28.1725 43.209 27.5429 42.5491 26.5623 42.5491C25.5816 42.5491 24.9217 43.1787 24.8309 44.1594Z" fill="#001D47"/>
<path d="M34.9833 41.0963V42.0346H35.964C36.0548 42.0346 36.1032 42.083 36.1032 42.1738V42.4886C36.1032 42.5794 36.0548 42.6278 35.964 42.6278H34.9833V46.7382C34.9833 46.829 34.941 46.8774 34.8562 46.8774H34.4022C34.3114 46.8774 34.2751 46.829 34.2751 46.7382V42.6278H33.6939C33.6031 42.6278 33.5547 42.5794 33.5547 42.4886V42.1738C33.5547 42.083 33.6031 42.0346 33.6939 42.0346H34.2751V40.9389C34.2751 40.1095 34.6988 39.6555 35.5403 39.6555C35.7158 39.6555 35.8732 39.6737 36.0124 39.7342C36.079 39.7645 36.1032 39.7826 36.1032 39.8613V40.2669C36.1032 40.3335 36.0427 40.3456 35.9822 40.3335C35.855 40.3154 35.7461 40.3033 35.6492 40.3033C35.0984 40.3033 34.9894 40.6483 34.9894 41.0963H34.9833Z" fill="#001D47"/>
<path d="M38.9844 40.3396C38.9844 40.0854 39.1841 39.8856 39.4263 39.8856C39.6684 39.8856 39.8682 40.0854 39.8682 40.3396C39.8682 40.5939 39.6684 40.7816 39.4263 40.7816C39.1841 40.7816 38.9844 40.5818 38.9844 40.3396ZM39.0752 46.7383V42.1739C39.0752 42.0831 39.1176 42.0346 39.2023 42.0346H39.6563C39.7471 42.0346 39.7834 42.0831 39.7834 42.1739V46.7383C39.7834 46.8291 39.7411 46.8775 39.6563 46.8775H39.2023C39.1115 46.8775 39.0752 46.8291 39.0752 46.7383Z" fill="#001D47"/>
<path d="M44.5899 46.7625L42.7799 42.2042C42.7375 42.0952 42.7799 42.0347 42.8888 42.0347H43.3428C43.4215 42.0347 43.47 42.077 43.5002 42.1557L44.9955 46.0906L46.4968 42.1557C46.527 42.077 46.5755 42.0347 46.6542 42.0347H47.1082C47.2171 42.0347 47.2535 42.0952 47.2171 42.2042L45.4071 46.7625C45.3768 46.8412 45.3103 46.8836 45.2316 46.8836H44.7654C44.6867 46.8836 44.6202 46.8412 44.5899 46.7625Z" fill="#001D47"/>
<path d="M53.9676 44.7163H50.3233C50.4141 45.6728 51.074 46.3932 52.2483 46.3932C52.8416 46.3932 53.2653 46.2176 53.6407 45.927C53.6891 45.8847 53.7496 45.8847 53.786 45.9391L53.9555 46.1692C54.022 46.26 53.9857 46.3084 53.9131 46.375C53.4772 46.7927 52.8537 46.9985 52.1818 46.9985C50.6018 46.9985 49.6211 45.8544 49.6211 44.4378C49.6211 43.0213 50.6078 41.9196 52.0546 41.9196C53.5014 41.9196 54.3187 43.0274 54.3187 44.2139C54.3187 44.571 54.2521 44.7163 53.9615 44.7163H53.9676ZM50.3233 44.1594H53.6952C53.6649 43.209 53.0353 42.5491 52.0546 42.5491C51.074 42.5491 50.4141 43.1787 50.3233 44.1594Z" fill="#001D47"/>
<path d="M29.2086 33.0996C29.2086 33.0996 29.1843 33.0996 29.1722 33.0935C28.9361 33.0451 28.7848 32.809 28.8332 32.5729L35.6314 0.349687C35.6798 0.113598 35.9099 -0.0437953 36.152 0.010687C36.3881 0.0591156 36.5394 0.295205 36.491 0.531295L29.6928 32.7606C29.6444 32.9845 29.4325 33.1359 29.2086 33.1056V33.0996Z" fill="#001D47"/>
<path d="M49.3557 12.027C49.2226 12.027 49.0894 12.027 48.9562 12.0392C48.4901 12.0573 48.0361 12.1118 47.5881 12.2026L48.5748 7.52923H56.2931L57.3828 2.37158H44.3857L43.3022 7.52923L41.4255 16.4098L41.4074 16.4764L46.4561 17.5419L47.3157 17.7235C47.4731 17.6327 47.6305 17.554 47.8 17.4995C48.2782 17.3058 48.8049 17.2029 49.3497 17.2029C51.6743 17.2029 53.5509 19.0855 53.5509 21.404C53.5509 23.7226 51.6682 25.6052 49.3497 25.6052C47.9695 25.6052 46.7466 24.9454 45.9839 23.9163C45.5904 23.3957 45.3241 22.7903 45.209 22.1305L40.1543 23.1959C40.8626 26.8704 43.732 29.7761 47.3883 30.5571C48.0239 30.6963 48.6777 30.7689 49.3497 30.7689C54.5194 30.7689 58.7146 26.5799 58.7146 21.404C58.7146 16.2282 54.5194 12.0331 49.3497 12.0331L49.3557 12.027Z" fill="#001D47"/>
<path d="M14.2017 25.4963C9.25592 25.4963 5.24845 21.4888 5.24845 16.543C5.24845 11.5972 9.25592 7.58976 14.2017 7.58976C17.0045 7.58976 19.5046 8.87312 21.1452 10.889L25.7035 8.20723C23.1247 4.65378 18.9295 2.34131 14.2017 2.34131C6.36231 2.34131 0 8.69757 0 16.543C0 24.3884 6.36231 30.7447 14.2017 30.7447C18.6148 30.7447 22.5556 28.7349 25.1647 25.575L20.5459 22.8629C18.9235 24.4914 16.6837 25.4963 14.2017 25.4963Z" fill="#001D47"/>
</svg>
