<svg width="97" height="85" viewBox="0 0 97 85" fill="none" xmlns="http://www.w3.org/2000/svg">
<g clip-path="url(#clip0_1814_3048)">
<path d="M27.6826 81.4653H94.1661V27.6261L69.3375 2.84209H2.85413V56.6812L27.6826 81.4653ZM97 84.3073H26.5054L0 57.8935V0H70.4946L97 26.4137V84.3073Z" fill="white"/>
<path d="M9.92092 9.26059V12.9577H10.8803C11.5979 12.9577 12.1582 12.7972 12.5372 12.4801C12.9161 12.1629 13.0976 11.7053 13.0976 11.1071C13.0976 10.509 12.9161 10.0354 12.5372 9.71824C12.1582 9.4011 11.618 9.24052 10.8803 9.24052L9.92092 9.26059ZM9.92092 15.4225V19.6174H6.90552V6.81592H11.1948C12.7508 6.81592 13.9482 7.19326 14.8068 7.96801C15.6655 8.74276 16.1049 9.77842 16.1049 11.0871C16.1049 12.3957 15.6453 13.4917 14.7261 14.2663C13.807 15.0411 12.5896 15.4386 11.0739 15.4386H9.91684V15.4185L9.92092 15.4225Z" fill="white"/>
<path d="M21.4742 19.5973C20.9138 19.7579 20.3373 19.8341 19.7569 19.814C18.8781 19.814 18.2209 19.5772 17.7614 19.0995C17.3018 18.6018 17.064 17.8872 17.064 16.9519V6.81592H19.8375V16.3738C19.8173 16.6509 19.8777 16.9519 20.0189 17.2088C20.0995 17.3091 20.1801 17.3694 20.2971 17.4055C20.3978 17.4456 20.5147 17.4657 20.6356 17.4657C20.9138 17.4456 21.196 17.3854 21.4742 17.2851V19.5893V19.5973Z" fill="white"/>
<path d="M27.8997 15.4231C26.9604 15.5436 26.3033 15.7402 25.8841 16.0011C25.485 16.258 25.2874 16.5993 25.2874 16.9967C25.2874 17.1171 25.2874 17.2335 25.3278 17.3339C25.368 17.4342 25.4286 17.5346 25.5253 17.6109C25.6059 17.6912 25.7229 17.7513 25.8236 17.7915C25.9445 17.8316 26.0615 17.8517 26.1623 17.8316C26.6419 17.8316 27.2184 17.6711 27.8997 17.3138V15.4271V15.4231ZM28.0811 19.618V18.9035C27.7223 19.1804 27.3031 19.4213 26.8637 19.5779C26.4444 19.7384 26.0251 19.8147 25.5858 19.8348C24.8078 19.8749 24.0498 19.618 23.4492 19.1202C23.171 18.8834 22.9493 18.6024 22.7921 18.2652C22.651 17.928 22.5704 17.5707 22.5946 17.2134C22.5946 15.126 24.3723 13.9338 27.9037 13.6167C27.9037 13.1992 27.8029 12.9022 27.5853 12.6814C27.3676 12.4646 27.0047 12.3643 26.4888 12.3643C25.4729 12.3643 24.3522 12.7015 23.1549 13.3558L23.8523 10.6742C24.8884 10.3169 25.9688 10.1363 27.0451 10.1162C29.48 10.1162 30.6772 11.2884 30.6772 13.6528V19.614H28.0811V19.618Z" fill="white"/>
<path d="M39.5583 19.16C38.6593 19.6177 37.6636 19.8344 36.664 19.8344C35.3457 19.8545 34.0677 19.3568 33.1124 18.4616C32.6326 18.024 32.2538 17.4861 31.9957 16.9121C31.7377 16.314 31.6168 15.6797 31.6369 15.0253C31.6369 13.5923 32.1167 12.4201 33.0922 11.5089C33.5518 11.0512 34.1121 10.7141 34.7087 10.4732C35.3054 10.2323 35.9463 10.1159 36.6034 10.136C37.6395 10.1159 38.6795 10.3729 39.5785 10.8907V13.5361C38.5787 12.9781 37.6435 12.7011 36.7848 12.7011C36.164 12.6811 35.5674 12.9179 35.1079 13.3394C34.87 13.5561 34.6886 13.8171 34.5677 14.1141C34.4467 14.4112 34.3863 14.7283 34.4064 15.0495C34.4064 15.764 34.6442 16.3019 35.1038 16.7194C35.5836 17.1168 36.2003 17.3375 36.8211 17.3175C37.7805 17.3175 38.7158 17.0807 39.5544 16.603V19.168L39.5583 19.16Z" fill="white"/>
<path d="M47.3634 13.8329C47.2828 13.3953 47.0449 12.9978 46.7063 12.7008C46.3879 12.4238 45.9686 12.2833 45.5292 12.2833C45.0696 12.2633 44.61 12.4038 44.2312 12.7008C43.8925 12.9978 43.6708 13.3953 43.6143 13.8329H47.3675H47.3634ZM43.6304 15.7797C43.6506 16.0367 43.7312 16.2976 43.8683 16.5143C44.0094 16.7311 44.1867 16.9318 44.4085 17.0924C44.9083 17.4095 45.4848 17.5701 46.0855 17.5501C46.6257 17.5501 47.1618 17.5099 47.6818 17.4095C48.3994 17.249 49.0807 17.0321 49.7579 16.7552V19.0995C48.5607 19.5973 47.2828 19.8341 46.0049 19.8341C44.4488 19.8341 43.191 19.4167 42.2518 18.5617C41.3125 17.7065 40.8328 16.4942 40.8328 14.9448C40.8328 13.3953 41.2722 12.3195 42.1308 11.4483C43.0096 10.5732 44.1061 10.1357 45.4445 10.1357C46.8635 10.1357 47.9802 10.5732 48.7582 11.4684C49.5564 12.3636 49.9555 13.6361 49.9555 15.286V15.8038L43.6304 15.7837V15.7797Z" fill="white"/>
<path d="M51.4139 18.9389V16.2936C52.4499 17.1887 53.5706 17.6262 54.7881 17.6262C55.6669 17.6262 56.0861 17.4095 56.0861 16.992C56.0861 16.8716 56.0458 16.7753 55.9854 16.6749C55.9248 16.5745 55.824 16.5143 55.7273 16.4541C55.4895 16.3136 54.909 16.0767 53.9697 15.7797C52.9336 15.4425 52.2524 15.0451 51.8936 14.6076C51.5348 14.1298 51.3534 13.5558 51.3736 12.9778C51.3736 12.5803 51.4542 12.1829 51.6316 11.8257C51.8089 11.4684 52.071 11.1513 52.3693 10.9105C53.0465 10.3725 53.9455 10.0955 55.0622 10.0955C56.1385 10.0754 57.2189 10.2922 58.2146 10.7297V13.1143C57.2955 12.5764 56.2595 12.2993 55.1993 12.2792C54.5018 12.2792 54.1632 12.476 54.1632 12.8573C54.1632 13.054 54.2842 13.2346 54.5422 13.3551C55.0219 13.5518 55.5218 13.7325 56.0176 13.8529C57.0133 14.1499 57.7349 14.5273 58.1944 15.0049C58.654 15.4827 58.8919 16.137 58.8717 16.7954C58.8919 17.2128 58.7911 17.6504 58.6137 18.0277C58.4323 18.405 58.1542 18.7422 57.8155 19.0031C57.0979 19.541 56.1385 19.8181 54.9009 19.8181C53.6834 19.8381 52.4862 19.541 51.4099 18.943" fill="white"/>
<path d="M12.9928 25.639C12.513 25.362 11.9568 25.2015 11.3964 25.1814C11.2191 25.1613 11.0376 25.2015 10.8764 25.2616C10.7152 25.3218 10.5579 25.4222 10.437 25.5387C10.316 25.6791 10.2395 25.8156 10.1789 25.9962C10.1185 26.1568 10.0983 26.3334 10.1185 26.5141V26.9717H12.7952V29.0993H10.1185V36.2526H7.34499V29.0993H6.14771V26.9517H7.34499V26.494C7.34499 25.362 7.6433 24.507 8.26411 23.9089C8.88493 23.3107 9.7597 23.0137 10.9005 23.0137C11.6181 23.0137 12.3356 23.0939 13.017 23.2706L12.9968 25.635L12.9928 25.639Z" fill="white"/>
<path d="M17.722 33.9039C18.0203 33.9039 18.3185 33.8637 18.5806 33.7433C18.8587 33.6229 19.1007 33.4664 19.2981 33.2456C19.7175 32.808 19.9351 32.2099 19.9351 31.5957C19.9351 31.2987 19.8948 30.9976 19.794 30.7206C19.6932 30.4436 19.5159 30.1827 19.3143 29.9659C19.1128 29.7492 18.8548 29.5886 18.5967 29.4682C18.3185 29.3477 18.0364 29.2876 17.7381 29.3075C17.4398 29.3075 17.1414 29.3678 16.8795 29.4682C16.6013 29.5886 16.3594 29.7451 16.1618 29.9659C15.7426 30.4035 15.5249 30.9976 15.5451 31.6158C15.5249 31.9128 15.5854 32.2099 15.6862 32.4909C15.7869 32.7678 15.9442 33.0288 16.1659 33.2456C16.3675 33.4623 16.6255 33.6229 16.8834 33.7433C17.1213 33.8436 17.4236 33.9039 17.722 33.9039ZM17.722 36.4489C17.0649 36.469 16.4239 36.3485 15.8071 36.1117C15.2105 35.8749 14.6501 35.5136 14.1906 35.06C13.7108 34.6225 13.352 34.0845 13.0941 33.4904C12.8361 32.8963 12.7151 32.258 12.7353 31.6238C12.7151 30.9896 12.8563 30.3513 13.0941 29.7572C13.332 29.163 13.7108 28.6251 14.1704 28.1876C14.63 27.73 15.1903 27.3526 15.7869 27.1158C16.3836 26.879 17.0447 26.7585 17.7018 26.7585C18.3589 26.7384 19.02 26.8589 19.6167 27.0957C20.2375 27.3326 20.7736 27.7099 21.2332 28.1675C21.6928 28.605 22.0717 29.143 22.3095 29.7371C22.5474 30.3312 22.6885 30.9695 22.6683 31.6037C22.6683 32.238 22.5474 32.8763 22.3095 33.4703C22.0717 34.0685 21.6928 34.6024 21.2332 35.0399C20.7736 35.4976 20.2132 35.8749 19.5965 36.1117C19.0361 36.3485 18.3791 36.469 17.722 36.4489Z" fill="white"/>
<path d="M29.4197 29.2956C29.1415 29.2153 28.8392 29.1753 28.5409 29.1753C27.8031 29.1753 27.0856 29.4321 26.5252 29.9299V36.2483H23.7517V26.9473H26.3478V27.7622C26.6664 27.4451 27.0251 27.1681 27.4242 26.9674C27.8435 26.7907 28.303 26.7104 28.7425 26.7104H28.9037C29.0811 26.7104 29.2423 26.7305 29.4237 26.7707V29.2956H29.4197Z" fill="white"/>
<path d="M6.90552 52.8673V40.0659H9.92092V50.1818H14.8672V52.8673H6.90552Z" fill="white"/>
<path d="M20.2967 50.5196C20.595 50.5196 20.8933 50.4794 21.1553 50.3589C21.4334 50.2385 21.6754 50.082 21.8729 49.8612C22.2922 49.4237 22.5099 48.8255 22.5099 48.2113C22.5099 47.9143 22.4695 47.6132 22.3687 47.3362C22.2679 47.0592 22.0906 46.7983 21.8891 46.5816C21.6875 46.3648 21.4295 46.2042 21.1714 46.0838C20.8932 45.9634 20.6111 45.9031 20.3128 45.9232C20.0144 45.9232 19.7122 45.9835 19.4542 46.0838C19.176 46.2042 18.9341 46.3608 18.7366 46.5816C18.3173 47.0191 18.0996 47.6132 18.1198 48.2314C18.0996 48.5284 18.1601 48.8255 18.2609 49.1265C18.3616 49.4036 18.5189 49.6645 18.7406 49.8813C18.9422 50.0981 19.2002 50.2586 19.4581 50.379C19.696 50.4794 19.9983 50.5396 20.2967 50.5196ZM20.2967 53.0645C19.6395 53.0846 18.9986 52.9642 18.3818 52.7274C17.7852 52.4905 17.2248 52.1293 16.7653 51.6757C16.2856 51.2381 15.9268 50.7002 15.6688 50.1061C15.4108 49.5119 15.2899 48.8737 15.31 48.2394C15.2899 47.6051 15.431 46.967 15.6688 46.3728C15.9067 45.7787 16.2856 45.2408 16.7451 44.8032C17.2047 44.3456 17.765 43.9884 18.3616 43.7315C18.9583 43.4946 19.6194 43.3742 20.2765 43.3943C20.9336 43.3742 21.5948 43.4946 22.1914 43.7315C22.8122 43.9723 23.3483 44.3496 23.8281 44.8032C24.2876 45.2408 24.6666 45.7787 24.9044 46.3728C25.1624 46.9709 25.2834 47.6051 25.2632 48.2394C25.2632 48.8737 25.1422 49.5119 24.9044 50.1061C24.6666 50.7002 24.2836 51.2381 23.8281 51.6757C23.3685 52.1332 22.8122 52.5106 22.1914 52.7474C21.6109 52.9642 20.9538 53.0846 20.2967 53.0645Z" fill="white"/>
<path d="M32.4717 52.8675V48.2552C32.4917 47.7976 32.4515 47.3399 32.3709 46.9024C32.2902 46.6053 32.133 46.3244 31.8709 46.1276C31.5928 45.9108 31.234 45.7904 30.8712 45.8105C30.2907 45.8105 29.7344 45.9911 29.295 46.3484V52.8675H26.5215V43.5866H29.1176V44.3613C29.416 44.0442 29.7948 43.7833 30.2141 43.6067C30.6333 43.426 31.0727 43.3497 31.5323 43.3698C32.3103 43.3497 33.0682 43.5505 33.7092 43.9679C34.2494 44.3252 34.6888 44.8229 34.9266 45.4171C35.1443 45.9751 35.2653 46.7699 35.2653 47.7614V52.8675H32.4717Z" fill="white"/>
<path d="M43.1102 46.4245C42.5902 46.0873 41.9936 45.9067 41.3728 45.9067C41.0745 45.9067 40.7923 45.9669 40.5141 46.0873C40.2359 46.2077 39.9941 46.3642 39.7965 46.585C39.5788 46.8058 39.4176 47.0628 39.2967 47.3598C39.1959 47.6568 39.1355 47.9539 39.1555 48.2751C39.1355 48.5922 39.1959 48.8933 39.2967 49.1903C39.3975 49.4874 39.5749 49.7483 39.7764 49.965C39.9739 50.1818 40.2158 50.3424 40.4738 50.4628C40.7318 50.5832 41.0341 50.6234 41.3123 50.6234C41.8122 50.6234 42.4088 50.4227 43.09 50.0252V46.4285H43.1102V46.4245ZM43.3682 52.8633V52.1889C42.6708 52.763 41.7718 53.0641 40.8729 53.0641C39.5345 53.0641 38.4582 52.6064 37.6398 51.6912C36.8215 50.7759 36.4224 49.664 36.4224 48.3312C36.4224 46.9985 36.8215 45.7661 37.66 44.7947C38.4985 43.8192 39.5749 43.3456 40.9333 43.3456C41.7114 43.3456 42.4894 43.5623 43.1465 43.9798V40.0659H45.92V52.8633H43.3642H43.3682Z" fill="white"/>
<path d="M52.0926 50.5196C52.3909 50.5396 52.6891 50.4794 52.9714 50.3589C53.2495 50.2385 53.4914 50.082 53.6889 49.8612C54.1082 49.4237 54.3258 48.8255 54.3258 48.2113C54.3258 47.9143 54.2856 47.6132 54.1646 47.3362C54.0638 47.0592 53.8864 46.7983 53.6849 46.5816C53.4834 46.3648 53.2254 46.2042 52.9673 46.0838C52.6891 45.9634 52.407 45.9031 52.1087 45.9232C51.8103 45.9232 51.508 45.9835 51.2501 46.0838C50.9719 46.2042 50.73 46.3608 50.5324 46.5816C50.1132 47.0191 49.8955 47.6132 49.9157 48.2314C49.8955 48.5284 49.956 48.8255 50.0568 49.1265C50.1575 49.4036 50.3148 49.6645 50.5365 49.8813C50.7381 50.0981 50.996 50.2586 51.254 50.379C51.4919 50.4794 51.7942 50.5396 52.0926 50.5196ZM52.0926 53.0645C51.4354 53.0846 50.7945 52.9642 50.1777 52.7274C49.5811 52.4905 49.0207 52.1293 48.5612 51.6757C48.0815 51.2381 47.7227 50.7002 47.4647 50.1061C47.2067 49.5119 47.0857 48.8737 47.1059 48.2394C47.0857 47.6051 47.2269 46.967 47.4647 46.3728C47.7026 45.7787 48.0815 45.2408 48.541 44.8032C49.0006 44.3456 49.5609 43.9884 50.1575 43.7315C50.7542 43.4946 51.4153 43.3742 52.0724 43.3943C52.7295 43.3742 53.3906 43.4946 53.9872 43.7315C54.6081 43.9723 55.1442 44.3496 55.6038 44.8032C56.0633 45.2408 56.4423 45.7787 56.6801 46.3728C56.9381 46.9709 57.0591 47.6051 57.0389 48.2394C57.0389 48.8737 56.918 49.5119 56.6801 50.1061C56.4423 50.7002 56.0633 51.2381 55.6038 51.6757C55.1442 52.1332 54.5838 52.5106 53.9671 52.7474C53.3866 52.9642 52.7497 53.0846 52.0926 53.0645Z" fill="white"/>
<path d="M64.2468 52.8675V48.2552C64.2669 47.7976 64.2266 47.3399 64.146 46.9024C64.0855 46.6053 63.9041 46.3244 63.6461 46.1276C63.368 45.9108 63.0092 45.8105 62.6464 45.8105C62.0699 45.8105 61.5096 45.9911 61.0702 46.3484V52.8675H58.2966V43.5866H60.8927V44.3613C61.1911 44.0442 61.57 43.7833 61.9892 43.6067C62.4086 43.426 62.848 43.3497 63.2874 43.3698C64.0653 43.3497 64.8233 43.5505 65.4642 43.9679C66.0043 44.3252 66.4438 44.8229 66.6816 45.4171C66.8994 45.9751 67.0202 46.7699 67.0202 47.7614V52.8675H64.2468Z" fill="white"/>
</g>
<defs>
<clipPath id="clip0_1814_3048">
<rect width="97" height="85" fill="white"/>
</clipPath>
</defs>
</svg>
