<svg width="158" height="71" viewBox="0 0 158 71" fill="none" xmlns="http://www.w3.org/2000/svg">
<g clip-path="url(#clip0_1814_3066)">
<path d="M95.6145 14.4253H82.177H77.9582V16.0545C78.7915 16.1596 79.4686 16.2122 80.0415 16.3698C80.7186 16.5275 81.1874 16.7377 81.552 17.0531C82.5936 17.9465 82.5936 19.6808 82.5936 22.729V43.3832C82.5936 47.5877 82.9582 53.5264 77.0728 53.4213C74.5207 53.3687 71.9686 51.5819 71.1353 48.2709H69.104C69.9373 53.8417 72.9061 57.6257 80.0415 57.6257C86.0832 57.6257 91.4999 54.7877 91.4999 45.2752V29.2459V22.729C91.4999 19.6283 91.4999 18.0516 92.5416 17.1056C93.2187 16.5275 93.7395 16.2647 95.6145 16.0545V14.4778V14.4253Z" fill="white"/>
<path d="M115.927 14.4253H98.271V15.9494V16.0545C100.094 16.2122 100.719 16.5275 101.344 17.1056C102.177 17.8414 102.334 18.9976 102.334 21.0473C102.334 21.6779 102.334 22.3086 102.334 23.0969V47.7979C102.334 48.5336 102.334 49.2169 102.334 49.8475C102.281 51.8446 102.177 53.106 101.344 53.7892C100.667 54.3673 100.146 54.6301 98.271 54.8403V54.9454V56.4695H115.927H115.979H124.938L127.75 48.2183H125.719C123.688 52.7381 120.511 53.2636 117.594 53.2636C115.198 53.2636 113.636 53.106 112.542 52.4227C111.656 51.8446 111.344 50.3205 111.292 47.6928V23.202V22.729C111.292 19.6283 111.292 17.9465 112.334 17.0531C113.011 16.4749 114.104 16.2647 115.979 16.1071L115.927 14.4253Z" fill="white"/>
<path d="M145.302 14.4253H127.646V15.9494V16.0545C129.468 16.2122 130.093 16.5275 130.718 17.1056C131.552 17.8414 131.708 18.9976 131.708 21.0473C131.708 21.6779 131.708 22.3086 131.708 23.0969V47.7979C131.708 48.5336 131.708 49.2169 131.708 49.8475C131.656 51.8446 131.552 53.106 130.718 53.7892C130.041 54.3673 129.521 54.6301 127.646 54.8403V54.9454V56.4695H145.302H145.354H154.312L157.125 48.2183H155.094C153.062 52.7381 149.885 53.2636 146.968 53.2636C144.573 53.2636 143.01 53.106 141.916 52.4227C141.031 51.8446 140.718 50.3205 140.666 47.6928V23.202V22.729C140.666 19.6283 140.666 17.9465 141.708 17.0531C142.385 16.4749 143.479 16.2647 145.354 16.1071V14.4253H145.302Z" fill="white"/>
<path d="M26.8124 69.2405C27.6458 68.8727 28.427 68.3997 29.2083 67.8741C29.3645 67.769 29.5208 67.6639 29.677 67.5588C30.6145 66.8756 31.4479 66.0872 32.2812 65.1412C33.3229 64.0376 34.2604 62.7762 35.1458 61.4624C35.8229 60.4638 36.3958 59.3602 36.9687 58.2565C39.1041 53.947 40.5104 49.217 41.2396 44.5396C41.7083 41.4914 41.9166 38.4432 41.9166 35.4475C41.9166 32.4519 41.7083 29.4037 41.2396 26.3555C40.5104 21.678 39.1562 16.8955 36.9687 12.6385C36.7083 12.1655 36.4479 11.64 36.1875 11.167C35.0416 13.2692 34.1041 15.5291 33.3229 17.8941C34.7291 22.0985 35.5625 26.5657 35.875 30.9803C35.9791 32.4519 36.0312 34.0285 36.0312 35.5001C36.0312 36.9716 35.9791 38.5483 35.875 40.0198C35.5104 45.433 34.4166 50.8462 32.3333 55.8915C31.552 57.8361 30.6145 59.728 29.4687 61.5149C29.2083 61.9354 28.9999 62.3558 28.6874 62.7762C28.1145 63.6171 27.5416 64.4055 26.9166 65.2463C26.1874 66.1398 25.4062 67.0332 24.5208 67.8741C23.6353 68.7675 22.6978 69.5559 21.6562 70.2916C21.552 70.3442 21.4999 70.3968 21.3958 70.4493V70.5544C23.2187 70.5019 25.1458 70.0289 26.8124 69.2405Z" fill="white"/>
<path d="M37.6455 69.2408C38.4789 68.8729 39.2601 68.3999 40.0414 67.8743C40.1976 67.7692 40.3539 67.6641 40.5101 67.559C43.6872 65.1415 46.031 61.883 47.8018 58.3618C49.9372 54.0523 51.3435 49.3223 52.0727 44.6449C52.5414 41.5967 52.7497 38.5485 52.7497 35.5529C52.7497 32.5572 52.5414 29.509 52.0727 26.4608C51.3435 21.7834 49.9893 17.0009 47.8018 12.7439C46.1872 9.48546 43.9997 6.43725 41.1872 4.07227C40.3018 5.01826 39.4684 6.06936 38.6872 7.17302C38.9476 7.54091 39.208 7.9088 39.4684 8.27669C43.9476 15.0038 46.1351 22.9922 46.656 31.0331C46.7601 32.5047 46.8122 34.0813 46.8122 35.5529C46.8122 37.0244 46.7601 38.6011 46.656 40.0726C46.1351 48.1136 43.9476 56.1545 39.4684 62.829C38.8955 63.6699 38.3226 64.4582 37.6976 65.2991C36.9684 66.1926 36.1872 67.086 35.3018 67.9269C34.4163 68.8203 33.4788 69.6087 32.4372 70.3444C32.333 70.397 32.2809 70.4495 32.1768 70.5021V70.6072C34.1038 70.5021 35.9789 70.0291 37.6455 69.2408Z" fill="white"/>
<path d="M51.3956 67.5061C54.5727 65.0886 56.9165 61.8301 58.6873 58.3089C60.8227 53.9994 62.229 49.2694 62.9581 44.592C63.4269 41.5438 63.6352 38.4956 63.6352 35.5C63.6352 32.5043 63.4269 29.4561 62.9581 26.4079C62.229 21.7305 60.8748 16.948 58.6873 12.691C56.9165 9.16979 54.5206 5.80626 51.3956 3.49383C48.9998 1.60184 46.031 0.445622 43.1143 0.393066V0.498177C45.9789 2.49528 48.4269 5.2807 50.3019 8.2238C54.781 14.9509 56.9685 22.9393 57.4894 30.9802C57.5935 32.4518 57.6456 34.0284 57.6456 35.5C57.6456 36.9715 57.5935 38.5482 57.4894 40.0197C56.9685 48.0607 54.781 56.1016 50.3019 62.7761C48.3748 65.6667 45.9268 68.4521 43.0623 70.5018V70.6069C46.031 70.5018 48.9998 69.3455 51.3956 67.5061Z" fill="white"/>
<path d="M37.6457 1.70695C36.8124 2.07483 36.0311 2.54783 35.2499 3.07338C35.0936 3.17849 34.9374 3.28361 34.7811 3.38872C33.8957 4.07193 33.0103 4.86026 32.1769 5.7537C31.1353 6.85736 30.1978 8.11869 29.3124 9.43257C28.6353 10.4311 28.0624 11.5348 27.4894 12.6384C25.354 16.948 23.9478 21.6779 23.2186 26.3554C22.7498 29.4036 22.5415 32.4518 22.5415 35.4474C22.5415 38.4431 22.7498 41.4913 23.2186 44.5395C23.9478 49.2169 25.3019 53.9994 27.4894 58.2564C27.7499 58.7294 28.0103 59.2549 28.2707 59.7279C29.4165 57.6257 30.354 55.3659 31.1353 53.0009C29.729 48.7965 28.8957 44.3293 28.5832 39.9146C28.479 38.4431 28.4269 36.8664 28.4269 35.3949C28.4269 33.9233 28.479 32.3467 28.5832 30.8751C28.9478 25.4619 30.0415 20.0487 32.1249 15.0034C32.9582 13.1114 33.8957 11.1669 35.0415 9.38001C35.302 8.95957 35.5103 8.53913 35.8228 8.11869C36.3957 7.2778 36.9686 6.48948 37.5936 5.64859C38.3228 4.75515 39.1041 3.86171 39.9895 3.02083C40.8749 2.12739 41.8124 1.33906 42.8541 0.603287C42.9582 0.550732 43.0103 0.498177 43.1145 0.445622V0.393066C41.2395 0.445622 39.4166 0.918619 37.6457 1.70695Z" fill="white"/>
<path d="M26.8122 1.70695C25.9789 2.07483 25.1976 2.54783 24.4164 3.07338C24.2601 3.17849 24.1039 3.2836 23.9476 3.38872C20.8226 5.80626 18.4789 9.06468 16.6559 12.5859C14.5205 16.8954 13.1143 21.6254 12.3851 26.3028C11.9163 29.4036 11.708 32.3992 11.708 35.4474C11.708 38.4431 11.9163 41.4913 12.3851 44.5395C13.1143 49.2169 14.4684 53.9994 16.6559 58.2564C18.2705 61.5148 20.458 64.563 23.2705 66.928C24.156 65.982 24.9893 64.9309 25.7705 63.8272C25.5101 63.4594 25.2497 63.0915 24.9893 62.7236C20.5101 55.9965 18.3226 48.0081 17.8018 39.9672C17.6976 38.4956 17.6455 36.919 17.6455 35.4474C17.6455 33.9759 17.6976 32.3992 17.8018 30.9277C18.3226 22.8867 20.5101 14.8458 24.9893 8.17124C25.5622 7.33036 26.1351 6.54203 26.7601 5.70115C27.4893 4.80771 28.2706 3.91427 29.156 3.07338C30.0414 2.2325 30.9789 1.44417 31.9685 0.760953C32.0727 0.708398 32.1247 0.655843 32.2289 0.603287V0.393066C30.406 0.445622 28.531 0.918619 26.8122 1.70695Z" fill="white"/>
<path d="M13.1144 3.44127C9.93728 5.85881 7.59353 9.11724 5.82269 12.6384C3.68726 16.948 2.28101 21.6779 1.55184 26.3554C1.08309 29.4561 0.874756 32.4518 0.874756 35.5C0.874756 38.4956 1.08309 41.5438 1.55184 44.592C2.28101 49.2694 3.63518 54.052 5.82269 58.3089C7.59353 61.8301 9.98937 65.1937 13.1144 67.5061C15.5102 69.2404 18.4269 70.4492 21.3957 70.5543V70.4492C18.479 68.4521 16.0831 65.6667 14.156 62.7236C9.67686 55.9965 7.48936 48.0081 6.96852 39.9672C6.86436 38.4956 6.81227 36.919 6.81227 35.4474C6.81227 33.9759 6.86436 32.3992 6.96852 30.9277C7.48936 22.8867 9.67686 14.8458 14.156 8.17124C16.0311 5.2807 18.479 2.49528 21.3957 0.498177V0.393066C18.4269 0.445622 15.4581 1.60184 13.1144 3.44127Z" fill="white"/>
<path d="M34.1561 66.9804C35.0415 66.0344 35.8748 64.9833 36.6561 63.8796C36.3957 63.5117 36.1353 63.1439 35.8748 62.776C35.6144 62.3555 35.354 61.9351 35.0936 61.5146C34.2603 62.776 33.3228 64.0899 32.229 65.1935C32.8019 65.8242 33.5311 66.4023 34.1561 66.9804Z" fill="white"/>
<path d="M40.0416 67.874C39.3124 68.3996 38.5312 68.82 37.6458 69.2405C39.3124 70.0288 41.2395 70.5018 43.0624 70.5543V70.4492C42.0208 69.7135 40.9791 68.82 40.0416 67.874Z" fill="white"/>
<path d="M31.2394 70.5016C31.5519 70.4491 31.8123 70.3965 32.1248 70.3965C31.8123 70.1863 31.5519 69.9761 31.2394 69.7659C30.5102 69.1878 29.8331 68.6097 29.2081 67.979C28.4789 68.5046 27.6977 68.925 26.8123 69.3454C27.906 69.871 29.156 70.2389 30.3539 70.4491C30.6664 70.3965 30.9269 70.4491 31.2394 70.5016ZM32.2289 70.5542V70.4491C32.1769 70.3965 32.1248 70.3965 32.0727 70.344C31.7602 70.3965 31.4998 70.4491 31.1873 70.4491C31.5519 70.5542 31.9164 70.5542 32.2289 70.5542Z" fill="white"/>
<path d="M30.354 4.01953C29.4686 4.96553 28.6353 6.01663 27.854 7.12029C28.1144 7.48818 28.3748 7.85606 28.6353 8.22395C28.8957 8.64439 29.1561 9.06483 29.4165 9.48528C30.2498 8.22395 31.1873 6.91007 32.2811 5.80641C31.6561 5.12319 31.0311 4.54508 30.354 4.01953Z" fill="white"/>
<path d="M24.4166 3.12594C25.1458 2.60039 25.927 2.17994 26.8124 1.7595C25.1458 0.918619 23.2187 0.445622 21.3958 0.393066V0.498177C22.4895 1.23395 23.4791 2.12739 24.4166 3.12594Z" fill="white"/>
<path d="M37.6457 1.70695C36.5519 1.1814 35.3019 0.813508 34.104 0.603287C33.7915 0.550732 33.5311 0.498177 33.2186 0.498177C32.9061 0.445622 32.5936 0.393066 32.229 0.393066V0.498177C32.2811 0.550732 32.3332 0.550732 32.3853 0.603287C32.6978 0.813508 32.9582 1.02373 33.2707 1.23395C33.9998 1.81206 34.6769 2.39017 35.3019 3.02083C36.0832 2.54783 36.8644 2.07483 37.6457 1.70695Z" fill="white"/>
</g>
<defs>
<clipPath id="clip0_1814_3066">
<rect width="158" height="71" fill="white"/>
</clipPath>
</defs>
</svg>
