<svg width="161" height="141" viewBox="0 0 161 141" fill="none" xmlns="http://www.w3.org/2000/svg">
<path d="M80.5 85.4749H41.1V141H46.8841V126.322H80.5V85.4749ZM68.1324 103.255H53.4613V101.367H68.1324V103.255ZM68.1324 98.5851H53.4613V96.6969H68.1324V98.5851ZM68.1324 93.9213H53.4613V92.0331H68.1324V93.9213Z" fill="#EFEDDF"/>
<path d="M41.1 85.4748V44.6272H80.5L41.1 85.4748Z" fill="#EFEDDF"/>
<path d="M80.5 126.322H114.116V140.994H119.894V85.4749L80.5 126.322Z" fill="#EFEDDF"/>
<path d="M80.5 44.6272V85.4748H119.9V44.6272H80.5ZM107.532 62.4076H92.8613V60.5194H107.532V62.4076ZM107.532 57.7375H92.8613V55.8493H107.532V57.7375ZM107.532 53.0737H92.8613V51.1855H107.532V53.0737Z" fill="#EFEDDF"/>
</svg>
