<svg width="161" height="141" viewBox="0 0 161 141" fill="none" xmlns="http://www.w3.org/2000/svg">
<path d="M95.2479 67.1492C90.9499 54.3277 78.8465 45.0803 64.5719 45.0803C46.7063 45.0803 32.2201 59.5665 32.2201 77.4321C32.2201 93.8669 44.4738 107.429 60.3407 109.5V140.994H68.7975V109.5C74.4205 108.765 79.5814 106.583 83.9128 103.348C81.3518 99.4843 79.8598 94.8523 79.8598 89.864C79.8598 79.5644 86.2344 70.7513 95.2479 67.1492Z" fill="#EFEDDF"/>
<path d="M104.323 65.4067C101.116 65.4067 98.0539 66.0303 95.2479 67.1549C96.328 70.3839 96.9237 73.8413 96.9237 77.4377C96.9237 88.0491 91.8073 97.4579 83.9128 103.354C87.5539 108.843 93.3439 112.785 100.092 113.959V141H108.548V113.959C120.039 111.955 128.78 101.934 128.78 89.8696C128.78 76.3577 117.829 65.4067 104.317 65.4067H104.323Z" fill="#EFEDDF"/>
</svg>
