<svg width="161" height="141" viewBox="0 0 161 141" fill="none" xmlns="http://www.w3.org/2000/svg">
<g clip-path="url(#clip0_1814_3178)">
<path d="M97.7723 105.807H94.2455V114.119H97.7723V105.807Z" fill="#EFEDDF"/>
<path d="M87.3566 105.807H83.8298V114.119H87.3566V105.807Z" fill="#EFEDDF"/>
<path d="M76.935 105.807H73.4083V114.119H76.935V105.807Z" fill="#EFEDDF"/>
<path d="M97.7723 119.25H94.2455V127.562H97.7723V119.25Z" fill="#EFEDDF"/>
<path d="M87.3566 119.25H83.8298V127.562H87.3566V119.25Z" fill="#EFEDDF"/>
<path d="M76.935 119.25H73.4083V127.562H76.935V119.25Z" fill="#EFEDDF"/>
<path d="M97.7723 132.694H94.2455V141.006H97.7723V132.694Z" fill="#EFEDDF"/>
<path d="M87.3566 132.694H83.8298V141.006H87.3566V132.694Z" fill="#EFEDDF"/>
<path d="M76.935 132.694H73.4083V141.006H76.935V132.694Z" fill="#EFEDDF"/>
<path d="M118.604 105.807H115.077V114.119H118.604V105.807Z" fill="#EFEDDF"/>
<path d="M118.604 119.25H115.077V127.562H118.604V119.25Z" fill="#EFEDDF"/>
<path d="M108.188 119.25H104.661V127.562H108.188V119.25Z" fill="#EFEDDF"/>
<path d="M118.604 132.694H115.077V141.006H118.604V132.694Z" fill="#EFEDDF"/>
<path d="M108.188 132.694H104.661V141.006H108.188V132.694Z" fill="#EFEDDF"/>
<path d="M123.5 100.675C123.5 87.1564 113.455 75.9544 100.317 73.9155V100.675H123.5Z" fill="#EFEDDF"/>
<path d="M68.5178 100.675H91.7004V73.9155C78.5632 75.9544 68.5178 87.1564 68.5178 100.675Z" fill="#EFEDDF"/>
<path d="M37.5 53V61.4913H91.7004V73.9154C93.1052 73.6953 94.5453 73.5795 96.0089 73.5795C97.4725 73.5795 98.9126 73.6953 100.317 73.9154V53H37.5Z" fill="#EFEDDF"/>
<path d="M108.188 105.807H104.661V114.119H108.188V105.807Z" fill="#EFEDDF"/>
</g>
<defs>
<clipPath id="clip0_1814_3178">
<rect width="86" height="88" fill="white" transform="translate(37.5 53)"/>
</clipPath>
</defs>
</svg>
