<svg width="161" height="141" viewBox="0 0 161 141" fill="none" xmlns="http://www.w3.org/2000/svg">
<path d="M117.973 75.8782H102.244V81.1414H117.973V75.8782Z" fill="#EFEDDF"/>
<path d="M124.01 94.5408C121.553 94.5408 119.185 94.9246 116.959 95.6318L112.184 84.9847L74.2445 85.0998L78.6908 75.0174L92.9454 74.9188L92.9125 69.6555L75.2533 69.7761L63.855 95.6428C61.6237 94.93 59.2442 94.5408 56.7716 94.5408C50.5763 94.5408 44.9567 96.9695 40.79 100.922H49.0686V139.684C51.481 140.534 54.0687 141 56.7716 141C69.6008 141 80.0011 130.599 80.0011 117.77C80.0011 109.283 75.4506 101.865 68.6523 97.8139L71.9308 90.374L108.79 90.2644L112.167 97.7919C105.358 101.844 100.791 109.272 100.791 117.77C100.791 130.599 111.191 141 124.02 141C136.85 141 147.25 130.599 147.25 117.77C147.25 104.941 136.85 94.5408 124.02 94.5408H124.01Z" fill="#EFEDDF"/>
<path d="M33.531 117.77C33.531 111.136 36.3161 105.155 40.7789 100.922H13.75V141H49.0576V139.684C40.0169 136.504 33.531 127.896 33.531 117.77Z" fill="#EFEDDF"/>
</svg>
