<svg width="161" height="141" viewBox="0 0 161 141" fill="none" xmlns="http://www.w3.org/2000/svg">
<path d="M44.3151 110.996C32.7512 111.307 21.2806 115.786 12.3374 124.441L10.7432 125.981L12.3374 127.521C30.8926 145.493 60.3584 145.493 78.9058 127.521L80.5 125.981L78.2837 125.942C64.9 125.725 52.8695 120.024 44.3151 110.988V110.996Z" fill="#EFEDDF"/>
<path d="M148.663 124.434C139.719 115.778 128.249 111.299 116.685 110.988C108.131 120.024 96.1 125.725 82.7164 125.942L80.5 125.981L82.0942 127.521C100.649 145.493 130.107 145.493 148.663 127.521L150.257 125.981L148.663 124.441V124.434Z" fill="#EFEDDF"/>
<path d="M75.7564 121.642L78.0894 123.438C69.3795 113.959 65.1879 101.827 65.5145 89.7886C57.1157 81.833 45.8395 76.8871 33.3968 76.6849L31.1804 76.646L31.2193 78.8624C31.4215 91.305 36.3675 102.581 44.323 110.98C55.4437 110.677 66.6421 114.231 75.7642 121.642V121.626L75.7564 121.642Z" fill="#EFEDDF"/>
<path d="M82.0399 57.8186L80.5001 56.2244L78.9603 57.8186C70.3048 66.7618 65.8255 78.2324 65.5144 89.7963C74.0143 97.8452 79.5669 108.974 80.3679 121.409V121.393L80.5001 123.096L80.6323 121.393V121.409C81.4411 108.974 86.9858 97.8452 95.4858 89.7963C95.1747 78.2324 90.6953 66.7618 82.0399 57.8186Z" fill="#EFEDDF"/>
<path d="M127.604 76.6925C115.161 76.8947 103.885 81.8407 95.4858 89.7962C95.8124 101.835 91.6208 113.958 82.9109 123.446L85.2439 121.65V121.665C94.3659 114.254 105.564 110.7 116.685 111.003C124.641 102.604 129.587 91.3282 129.789 78.8855L129.828 76.6692L127.611 76.7081L127.604 76.6925Z" fill="#EFEDDF"/>
</svg>
